<?xml version="1.0" encoding="us-ascii" standalone="no"?><svg xmlns="http://www.w3.org/2000/svg" xmlns:xlink="http://www.w3.org/1999/xlink" contentStyleType="text/css" height="1012px" preserveAspectRatio="none" style="width:724px;height:1012px;background:#FFFFFF;" version="1.1" viewBox="0 0 724 1012" width="724px" zoomAndPan="magnify"><defs/><g><!--class CreateCheckUpUI--><g id="elem_CreateCheckUpUI"><rect codeLine="11" fill="#F1F1F1" height="48" id="CreateCheckUpUI" rx="2.5" ry="2.5" style="stroke:#181818;stroke-width:0.5;" width="144" x="405" y="7"/><ellipse cx="420" cy="23" fill="#ADD1B2" rx="11" ry="11" style="stroke:#181818;stroke-width:1.0;"/><path d="M422.7656,18.875 Q422.9219,18.6563 423.1094,18.5469 Q423.2969,18.4375 423.5156,18.4375 Q423.8906,18.4375 424.125,18.7031 Q424.3594,18.9531 424.3594,19.5625 L424.3594,21.0156 Q424.3594,21.625 424.125,21.8906 Q423.8906,22.1563 423.5156,22.1563 Q423.1719,22.1563 422.9688,21.9531 Q422.7656,21.7656 422.6563,21.25 Q422.6094,20.8906 422.4219,20.7031 Q422.0938,20.3281 421.4844,20.1094 Q420.875,19.8906 420.25,19.8906 Q419.4844,19.8906 418.8438,20.2188 Q418.2188,20.5469 417.7188,21.2969 Q417.2344,22.0469 417.2344,23.0781 L417.2344,24.1719 Q417.2344,25.4063 418.125,26.2344 Q419.0156,27.0469 420.6094,27.0469 Q421.5469,27.0469 422.2031,26.7969 Q422.5938,26.6406 423.0156,26.2031 Q423.2813,25.9375 423.4219,25.8594 Q423.5781,25.7813 423.7813,25.7813 Q424.1094,25.7813 424.3594,26.0469 Q424.625,26.2969 424.625,26.6406 Q424.625,26.9844 424.2813,27.3906 Q423.7813,27.9688 422.9844,28.2969 Q421.9063,28.75 420.6094,28.75 Q419.0938,28.75 417.8906,28.125 Q416.9063,27.625 416.2188,26.5625 Q415.5313,25.4844 415.5313,24.2031 L415.5313,23.0469 Q415.5313,21.7188 416.1406,20.5781 Q416.7656,19.4219 417.8594,18.8125 Q418.9531,18.1875 420.1875,18.1875 Q420.9219,18.1875 421.5625,18.3594 Q422.2188,18.5156 422.7656,18.875 Z " fill="#000000"/><text fill="#000000" font-family="sans-serif" font-size="14" lengthAdjust="spacing" textLength="112" x="434" y="28.7969">CreateCheckUpUI</text><line style="stroke:#181818;stroke-width:0.5;" x1="406" x2="548" y1="39" y2="39"/><line style="stroke:#181818;stroke-width:0.5;" x1="406" x2="548" y1="47" y2="47"/></g><!--class Vehicle--><g id="elem_Vehicle"><rect codeLine="16" fill="#F1F1F1" height="271.4531" id="Vehicle" rx="2.5" ry="2.5" style="stroke:#181818;stroke-width:0.5;" width="200" x="517" y="551"/><ellipse cx="589.75" cy="567" fill="#ADD1B2" rx="11" ry="11" style="stroke:#181818;stroke-width:1.0;"/><path d="M592.5156,562.875 Q592.6719,562.6563 592.8594,562.5469 Q593.0469,562.4375 593.2656,562.4375 Q593.6406,562.4375 593.875,562.7031 Q594.1094,562.9531 594.1094,563.5625 L594.1094,565.0156 Q594.1094,565.625 593.875,565.8906 Q593.6406,566.1563 593.2656,566.1563 Q592.9219,566.1563 592.7188,565.9531 Q592.5156,565.7656 592.4063,565.25 Q592.3594,564.8906 592.1719,564.7031 Q591.8438,564.3281 591.2344,564.1094 Q590.625,563.8906 590,563.8906 Q589.2344,563.8906 588.5938,564.2188 Q587.9688,564.5469 587.4688,565.2969 Q586.9844,566.0469 586.9844,567.0781 L586.9844,568.1719 Q586.9844,569.4063 587.875,570.2344 Q588.7656,571.0469 590.3594,571.0469 Q591.2969,571.0469 591.9531,570.7969 Q592.3438,570.6406 592.7656,570.2031 Q593.0313,569.9375 593.1719,569.8594 Q593.3281,569.7813 593.5313,569.7813 Q593.8594,569.7813 594.1094,570.0469 Q594.375,570.2969 594.375,570.6406 Q594.375,570.9844 594.0313,571.3906 Q593.5313,571.9688 592.7344,572.2969 Q591.6563,572.75 590.3594,572.75 Q588.8438,572.75 587.6406,572.125 Q586.6563,571.625 585.9688,570.5625 Q585.2813,569.4844 585.2813,568.2031 L585.2813,567.0469 Q585.2813,565.7188 585.8906,564.5781 Q586.5156,563.4219 587.6094,562.8125 Q588.7031,562.1875 589.9375,562.1875 Q590.6719,562.1875 591.3125,562.3594 Q591.9688,562.5156 592.5156,562.875 Z " fill="#000000"/><text fill="#000000" font-family="sans-serif" font-size="14" lengthAdjust="spacing" textLength="46" x="610.25" y="572.7969">Vehicle</text><line style="stroke:#181818;stroke-width:0.5;" x1="518" x2="716" y1="583" y2="583"/><text fill="#000000" font-family="sans-serif" font-size="14" lengthAdjust="spacing" textLength="94" x="523" y="602.1074">-plateID: String</text><text fill="#000000" font-family="sans-serif" font-size="14" lengthAdjust="spacing" textLength="87" x="523" y="620.7285">-brand: String</text><text fill="#000000" font-family="sans-serif" font-size="14" lengthAdjust="spacing" textLength="88" x="523" y="639.3496">-model: String</text><text fill="#000000" font-family="sans-serif" font-size="14" lengthAdjust="spacing" textLength="94" x="523" y="657.9707">-plateID: String</text><text fill="#000000" font-family="sans-serif" font-size="14" lengthAdjust="spacing" textLength="77" x="523" y="676.5918">-type: String</text><text fill="#000000" font-family="sans-serif" font-size="14" lengthAdjust="spacing" textLength="53" x="523" y="695.2129">-tare: int</text><text fill="#000000" font-family="sans-serif" font-size="14" lengthAdjust="spacing" textLength="107" x="523" y="713.834">-grossWeight: int</text><text fill="#000000" font-family="sans-serif" font-size="14" lengthAdjust="spacing" textLength="76" x="523" y="732.4551">-current km:</text><text fill="#000000" font-family="sans-serif" font-size="14" lengthAdjust="spacing" textLength="132" x="523" y="751.0762">-register Date: String</text><text fill="#000000" font-family="sans-serif" font-size="14" lengthAdjust="spacing" textLength="151" x="523" y="769.6973">-acquisition Date: String</text><text fill="#000000" font-family="sans-serif" font-size="14" lengthAdjust="spacing" textLength="188" x="523" y="788.3184">-checkUpFrequencyInKms: int</text><line style="stroke:#181818;stroke-width:0.5;" x1="518" x2="716" y1="795.832" y2="795.832"/><text fill="#000000" font-family="sans-serif" font-size="14" lengthAdjust="spacing" textLength="108" x="523" y="814.9395">+createVehicle ()</text></g><!--class Repositories--><g id="elem_Repositories"><rect codeLine="33" fill="#F1F1F1" height="122.4844" id="Repositories" rx="2.5" ry="2.5" style="stroke:#181818;stroke-width:0.5;" width="208" x="7" y="368"/><ellipse cx="67.25" cy="384" fill="#ADD1B2" rx="11" ry="11" style="stroke:#181818;stroke-width:1.0;"/><path d="M70.0156,379.875 Q70.1719,379.6563 70.3594,379.5469 Q70.5469,379.4375 70.7656,379.4375 Q71.1406,379.4375 71.375,379.7031 Q71.6094,379.9531 71.6094,380.5625 L71.6094,382.0156 Q71.6094,382.625 71.375,382.8906 Q71.1406,383.1563 70.7656,383.1563 Q70.4219,383.1563 70.2188,382.9531 Q70.0156,382.7656 69.9063,382.25 Q69.8594,381.8906 69.6719,381.7031 Q69.3438,381.3281 68.7344,381.1094 Q68.125,380.8906 67.5,380.8906 Q66.7344,380.8906 66.0938,381.2188 Q65.4688,381.5469 64.9688,382.2969 Q64.4844,383.0469 64.4844,384.0781 L64.4844,385.1719 Q64.4844,386.4063 65.375,387.2344 Q66.2656,388.0469 67.8594,388.0469 Q68.7969,388.0469 69.4531,387.7969 Q69.8438,387.6406 70.2656,387.2031 Q70.5313,386.9375 70.6719,386.8594 Q70.8281,386.7813 71.0313,386.7813 Q71.3594,386.7813 71.6094,387.0469 Q71.875,387.2969 71.875,387.6406 Q71.875,387.9844 71.5313,388.3906 Q71.0313,388.9688 70.2344,389.2969 Q69.1563,389.75 67.8594,389.75 Q66.3438,389.75 65.1406,389.125 Q64.1563,388.625 63.4688,387.5625 Q62.7813,386.4844 62.7813,385.2031 L62.7813,384.0469 Q62.7813,382.7188 63.3906,381.5781 Q64.0156,380.4219 65.1094,379.8125 Q66.2031,379.1875 67.4375,379.1875 Q68.1719,379.1875 68.8125,379.3594 Q69.4688,379.5156 70.0156,379.875 Z " fill="#000000"/><text fill="#000000" font-family="sans-serif" font-size="14" lengthAdjust="spacing" textLength="79" x="87.75" y="389.7969">Repositories</text><line style="stroke:#181818;stroke-width:0.5;" x1="8" x2="214" y1="400" y2="400"/><line style="stroke:#181818;stroke-width:0.5;" x1="8" x2="214" y1="408" y2="408"/><text fill="#000000" font-family="sans-serif" font-size="14" lengthAdjust="spacing" textLength="94" x="13" y="427.1074">-Repositories()</text><text fill="#000000" font-family="sans-serif" font-size="14" lengthAdjust="spacing" textLength="182" x="13" y="445.7285">+getInstance() : Repositories</text><text fill="#000000" font-family="sans-serif" font-size="14" lengthAdjust="spacing" textLength="152" x="13" y="464.3496">+getVehicleRepository()</text><text fill="#000000" font-family="sans-serif" font-size="14" lengthAdjust="spacing" textLength="196" x="13" y="482.9707">+getAuthenticationRepository()</text></g><!--class CreateCheckUpController--><g id="elem_CreateCheckUpController"><rect codeLine="41" fill="#F1F1F1" height="66.6211" id="CreateCheckUpController" rx="2.5" ry="2.5" style="stroke:#181818;stroke-width:0.5;" width="194" x="380" y="116"/><ellipse cx="395" cy="132" fill="#ADD1B2" rx="11" ry="11" style="stroke:#181818;stroke-width:1.0;"/><path d="M397.7656,127.875 Q397.9219,127.6563 398.1094,127.5469 Q398.2969,127.4375 398.5156,127.4375 Q398.8906,127.4375 399.125,127.7031 Q399.3594,127.9531 399.3594,128.5625 L399.3594,130.0156 Q399.3594,130.625 399.125,130.8906 Q398.8906,131.1563 398.5156,131.1563 Q398.1719,131.1563 397.9688,130.9531 Q397.7656,130.7656 397.6563,130.25 Q397.6094,129.8906 397.4219,129.7031 Q397.0938,129.3281 396.4844,129.1094 Q395.875,128.8906 395.25,128.8906 Q394.4844,128.8906 393.8438,129.2188 Q393.2188,129.5469 392.7188,130.2969 Q392.2344,131.0469 392.2344,132.0781 L392.2344,133.1719 Q392.2344,134.4063 393.125,135.2344 Q394.0156,136.0469 395.6094,136.0469 Q396.5469,136.0469 397.2031,135.7969 Q397.5938,135.6406 398.0156,135.2031 Q398.2813,134.9375 398.4219,134.8594 Q398.5781,134.7813 398.7813,134.7813 Q399.1094,134.7813 399.3594,135.0469 Q399.625,135.2969 399.625,135.6406 Q399.625,135.9844 399.2813,136.3906 Q398.7813,136.9688 397.9844,137.2969 Q396.9063,137.75 395.6094,137.75 Q394.0938,137.75 392.8906,137.125 Q391.9063,136.625 391.2188,135.5625 Q390.5313,134.4844 390.5313,133.2031 L390.5313,132.0469 Q390.5313,130.7188 391.1406,129.5781 Q391.7656,128.4219 392.8594,127.8125 Q393.9531,127.1875 395.1875,127.1875 Q395.9219,127.1875 396.5625,127.3594 Q397.2188,127.5156 397.7656,127.875 Z " fill="#000000"/><text fill="#000000" font-family="sans-serif" font-size="14" lengthAdjust="spacing" textLength="162" x="409" y="137.7969">CreateCheckUpController</text><line style="stroke:#181818;stroke-width:0.5;" x1="381" x2="573" y1="148" y2="148"/><line style="stroke:#181818;stroke-width:0.5;" x1="381" x2="573" y1="156" y2="156"/><text fill="#000000" font-family="sans-serif" font-size="14" lengthAdjust="spacing" textLength="177" x="386" y="175.1074">+createCheckUpController()</text></g><!--class VehicleRepository--><g id="elem_VehicleRepository"><rect codeLine="45" fill="#F1F1F1" height="85.2422" id="VehicleRepository" rx="2.5" ry="2.5" style="stroke:#181818;stroke-width:0.5;" width="296" x="329" y="386.5"/><ellipse cx="415.75" cy="402.5" fill="#ADD1B2" rx="11" ry="11" style="stroke:#181818;stroke-width:1.0;"/><path d="M418.5156,398.375 Q418.6719,398.1563 418.8594,398.0469 Q419.0469,397.9375 419.2656,397.9375 Q419.6406,397.9375 419.875,398.2031 Q420.1094,398.4531 420.1094,399.0625 L420.1094,400.5156 Q420.1094,401.125 419.875,401.3906 Q419.6406,401.6563 419.2656,401.6563 Q418.9219,401.6563 418.7188,401.4531 Q418.5156,401.2656 418.4063,400.75 Q418.3594,400.3906 418.1719,400.2031 Q417.8438,399.8281 417.2344,399.6094 Q416.625,399.3906 416,399.3906 Q415.2344,399.3906 414.5938,399.7188 Q413.9688,400.0469 413.4688,400.7969 Q412.9844,401.5469 412.9844,402.5781 L412.9844,403.6719 Q412.9844,404.9063 413.875,405.7344 Q414.7656,406.5469 416.3594,406.5469 Q417.2969,406.5469 417.9531,406.2969 Q418.3438,406.1406 418.7656,405.7031 Q419.0313,405.4375 419.1719,405.3594 Q419.3281,405.2813 419.5313,405.2813 Q419.8594,405.2813 420.1094,405.5469 Q420.375,405.7969 420.375,406.1406 Q420.375,406.4844 420.0313,406.8906 Q419.5313,407.4688 418.7344,407.7969 Q417.6563,408.25 416.3594,408.25 Q414.8438,408.25 413.6406,407.625 Q412.6563,407.125 411.9688,406.0625 Q411.2813,404.9844 411.2813,403.7031 L411.2813,402.5469 Q411.2813,401.2188 411.8906,400.0781 Q412.5156,398.9219 413.6094,398.3125 Q414.7031,397.6875 415.9375,397.6875 Q416.6719,397.6875 417.3125,397.8594 Q417.9688,398.0156 418.5156,398.375 Z " fill="#000000"/><text fill="#000000" font-family="sans-serif" font-size="14" lengthAdjust="spacing" textLength="114" x="436.25" y="408.2969">VehicleRepository</text><line style="stroke:#181818;stroke-width:0.5;" x1="330" x2="624" y1="418.5" y2="418.5"/><text fill="#000000" font-family="sans-serif" font-size="14" lengthAdjust="spacing" textLength="148" x="335" y="437.6074">-vehicles: List&lt;Vehicle&gt;</text><line style="stroke:#181818;stroke-width:0.5;" x1="330" x2="624" y1="445.1211" y2="445.1211"/><text fill="#000000" font-family="sans-serif" font-size="14" lengthAdjust="spacing" textLength="284" x="335" y="464.2285">+getVehicleByIdPlate(plateId: String): Vehicle</text></g><!--class CheckUp--><g id="elem_CheckUp"><rect codeLine="50" fill="#F1F1F1" height="122.4844" id="CheckUp" rx="2.5" ry="2.5" style="stroke:#181818;stroke-width:0.5;" width="149" x="542.5" y="883"/><ellipse cx="584.5" cy="899" fill="#ADD1B2" rx="11" ry="11" style="stroke:#181818;stroke-width:1.0;"/><path d="M587.2656,894.875 Q587.4219,894.6563 587.6094,894.5469 Q587.7969,894.4375 588.0156,894.4375 Q588.3906,894.4375 588.625,894.7031 Q588.8594,894.9531 588.8594,895.5625 L588.8594,897.0156 Q588.8594,897.625 588.625,897.8906 Q588.3906,898.1563 588.0156,898.1563 Q587.6719,898.1563 587.4688,897.9531 Q587.2656,897.7656 587.1563,897.25 Q587.1094,896.8906 586.9219,896.7031 Q586.5938,896.3281 585.9844,896.1094 Q585.375,895.8906 584.75,895.8906 Q583.9844,895.8906 583.3438,896.2188 Q582.7188,896.5469 582.2188,897.2969 Q581.7344,898.0469 581.7344,899.0781 L581.7344,900.1719 Q581.7344,901.4063 582.625,902.2344 Q583.5156,903.0469 585.1094,903.0469 Q586.0469,903.0469 586.7031,902.7969 Q587.0938,902.6406 587.5156,902.2031 Q587.7813,901.9375 587.9219,901.8594 Q588.0781,901.7813 588.2813,901.7813 Q588.6094,901.7813 588.8594,902.0469 Q589.125,902.2969 589.125,902.6406 Q589.125,902.9844 588.7813,903.3906 Q588.2813,903.9688 587.4844,904.2969 Q586.4063,904.75 585.1094,904.75 Q583.5938,904.75 582.3906,904.125 Q581.4063,903.625 580.7188,902.5625 Q580.0313,901.4844 580.0313,900.2031 L580.0313,899.0469 Q580.0313,897.7188 580.6406,896.5781 Q581.2656,895.4219 582.3594,894.8125 Q583.4531,894.1875 584.6875,894.1875 Q585.4219,894.1875 586.0625,894.3594 Q586.7188,894.5156 587.2656,894.875 Z " fill="#000000"/><text fill="#000000" font-family="sans-serif" font-size="14" lengthAdjust="spacing" textLength="57" x="604.5" y="904.7969">CheckUp</text><line style="stroke:#181818;stroke-width:0.5;" x1="543.5" x2="690.5" y1="915" y2="915"/><text fill="#000000" font-family="sans-serif" font-size="14" lengthAdjust="spacing" textLength="92" x="548.5" y="934.1074">-plateId: String</text><text fill="#000000" font-family="sans-serif" font-size="14" lengthAdjust="spacing" textLength="137" x="548.5" y="952.7285">-scheduleDate: String</text><text fill="#000000" font-family="sans-serif" font-size="14" lengthAdjust="spacing" textLength="100" x="548.5" y="971.3496">-currentKms: int</text><line style="stroke:#181818;stroke-width:0.5;" x1="543.5" x2="690.5" y1="978.8633" y2="978.8633"/><text fill="#000000" font-family="sans-serif" font-size="14" lengthAdjust="spacing" textLength="115" x="548.5" y="997.9707">+createCheckUp()</text></g><!--link CreateCheckUpUI to CreateCheckUpController--><g id="link_CreateCheckUpUI_CreateCheckUpController"><path codeLine="60" d="M477,55.02 C477,72.39 477,90.46 477,109.83 " fill="none" id="CreateCheckUpUI-to-CreateCheckUpController" style="stroke:#181818;stroke-width:1.0;stroke-dasharray:7.0,7.0;"/><polygon fill="#181818" points="477,115.83,481,106.83,477,110.83,473,106.83,477,115.83" style="stroke:#181818;stroke-width:1.0;"/></g><!--link CreateCheckUpController to Repositories--><g id="link_CreateCheckUpController_Repositories"><path codeLine="61" d="M433.94,183.15 C374.13,228.49 269.6409,307.7147 194.9209,364.3747 " fill="none" id="CreateCheckUpController-to-Repositories" style="stroke:#181818;stroke-width:1.0;stroke-dasharray:7.0,7.0;"/><polygon fill="#181818" points="190.14,368,199.7282,365.7493,194.1241,364.9789,194.8944,359.3747,190.14,368" style="stroke:#181818;stroke-width:1.0;"/></g><!--link CreateCheckUpController to Vehicle--><g id="link_CreateCheckUpController_Vehicle"><path codeLine="62" d="M547.02,183.07 C605.03,210.05 678,244 678,244 C678,244 678,244 678,430 C678,430 665.253,483.3839 650.593,544.8039 " fill="none" id="CreateCheckUpController-to-Vehicle" style="stroke:#181818;stroke-width:1.0;stroke-dasharray:7.0,7.0;"/><polygon fill="#181818" points="649.2,550.64,655.1802,542.8146,650.3608,545.7766,647.3988,540.9573,649.2,550.64" style="stroke:#181818;stroke-width:1.0;"/></g><!--link Repositories to Repositories--><g id="link_Repositories_Repositories"><path codeLine="63" d="M215.26,412.88 C235.58,414.75 250,420.12 250,429 C250,437.88 241.5548,442.7002 221.2348,444.5702 " fill="none" id="Repositories-to-Repositories" style="stroke:#181818;stroke-width:1.0;"/><polygon fill="#181818" points="215.26,445.12,224.5887,448.2784,220.239,444.6618,223.8556,440.3121,215.26,445.12" style="stroke:#181818;stroke-width:1.0;"/><text fill="#000000" font-family="sans-serif" font-size="13" lengthAdjust="spacing" textLength="49" x="256" y="434.5283">instance</text></g><!--link Repositories to VehicleRepository--><g id="link_Repositories_VehicleRepository"><path codeLine="64" d="M215.26,429 C225.96,429 233,429 233,429 C233,429 286.98,429 322.83,429 " fill="none" id="Repositories-to-VehicleRepository" style="stroke:#181818;stroke-width:1.0;"/><polygon fill="#181818" points="328.83,429,319.83,425,323.83,429,319.83,433,328.83,429" style="stroke:#181818;stroke-width:1.0;"/></g><!--link CreateCheckUpController to VehicleRepository--><g id="link_CreateCheckUpController_VehicleRepository"><path codeLine="65" d="M477,183.15 C477,233.72 477,324.95 477,380.46 " fill="none" id="CreateCheckUpController-to-VehicleRepository" style="stroke:#181818;stroke-width:1.0;"/><polygon fill="#181818" points="477,386.46,481,377.46,477,381.46,473,377.46,477,386.46" style="stroke:#181818;stroke-width:1.0;"/></g><!--link VehicleRepository to Vehicle--><g id="link_VehicleRepository_Vehicle"><path codeLine="66" d="M499.81,471.62 C511.85,493.61 524.5064,516.7084 540.3064,545.5384 " fill="none" id="VehicleRepository-to-Vehicle" style="stroke:#181818;stroke-width:1.0;"/><polygon fill="#181818" points="543.19,550.8,542.3724,540.9851,540.787,546.4153,535.3568,544.8299,543.19,550.8" style="stroke:#181818;stroke-width:1.0;"/></g><!--link Vehicle to CheckUp--><g id="link_Vehicle_CheckUp"><path codeLine="67" d="M617,822.36 C617,843.59 617,858.56 617,876.91 " fill="none" id="Vehicle-to-CheckUp" style="stroke:#181818;stroke-width:1.0;"/><polygon fill="#181818" points="617,882.91,621,873.91,617,877.91,613,873.91,617,882.91" style="stroke:#181818;stroke-width:1.0;"/></g><!--SRC=[VLDBRjim4Dtp5BEpZK91raPX87LGG6WMGOsqQuQQK8GfKY6f5ghXy_G4FK4krb4aMQ8aHplElFcyzqOhVrIcv8uNK5XZHUviWH1SXMp8b5mSkSH3g3M2Gn6uaNeCy3dFx6zb9BnmxSSPhGo6kaGehQwR1rij9AqBbesgXERUtuNWr7CLC1NM7DGVX5l6LXfV0WGBJiayGAQQTPGrZBtNmDuX3xZFKHoVogVqnCwCzRaVc2j134uCw4kWr0HDxxTme456Tj5dnqqsYHKsGps9BLStTAOXxYYaJEZUqbdlVsAp_pWiAkVG13WMsoxYK2eVqC4zJPeqvUArKburr9VIeXNWgyFN2eseK_EjyCEqJo3UTUeLMMz8f7ElqtSiBRMsJg6_Y3KE4hpj8Z6anjCv25nlO1k11aWtvPAin_LtLSY9jXAyuH9XXeqYL_VM16Ur9c5E4PjPddgS9-OF0oxCVhKPakU1vFxS0NUp_R_KQVROcBvkhRySoMRRTnzjtEuIdzhqh3pPb5KQbmniho5sBQBPYTZSz-f1IVxsz-qVgSucVm3StEokwSUkwPea2LL5Rdu09MpFFpgT96u13PFsM6QucJlNvos1v-OEi3v9c-vwMzX_]--></g></svg>