<?xml version="1.0" encoding="us-ascii" standalone="no"?><svg xmlns="http://www.w3.org/2000/svg" xmlns:xlink="http://www.w3.org/1999/xlink" contentStyleType="text/css" height="1200.8px" preserveAspectRatio="none" style="width:1688px;height:1200px;background:#FFFFFF;" version="1.1" viewBox="0 0 1688 1200" width="1688.8px" zoomAndPan="magnify"><defs/><g><rect fill="#FFFFFF" height="1015.7125" style="stroke:#181818;stroke-width:0.8000000000000002;" width="8" x="60" y="89.7938"/><rect fill="#FFFFFF" height="25.0328" style="stroke:#181818;stroke-width:0.8000000000000002;" width="8" x="316" y="108.4266"/><rect fill="#FFFFFF" height="25.0328" style="stroke:#181818;stroke-width:0.8000000000000002;" width="8" x="316" y="158.4922"/><rect fill="#FFFFFF" height="896.9484" style="stroke:#181818;stroke-width:0.8000000000000002;" width="8" x="316" y="208.5578"/><rect fill="#FFFFFF" height="846.8828" style="stroke:#181818;stroke-width:0.8000000000000002;" width="8" x="518.4" y="233.5906"/><rect fill="#FFFFFF" height="25.0328" style="stroke:#181818;stroke-width:0.8000000000000002;" width="8" x="650.4" y="294.0563"/><rect fill="#FFFFFF" height="25.0328" style="stroke:#181818;stroke-width:0.8000000000000002;" width="8" x="650.4" y="544.3844"/><rect fill="#FFFFFF" height="25.0328" style="stroke:#181818;stroke-width:0.8000000000000002;" width="8" x="650.4" y="744.6469"/><rect fill="#FFFFFF" height="25.0328" style="stroke:#181818;stroke-width:0.8000000000000002;" width="8" x="736" y="344.1219"/><rect fill="#FFFFFF" height="25.0328" style="stroke:#181818;stroke-width:0.8000000000000002;" width="8" x="736" y="594.45"/><rect fill="#FFFFFF" height="25.0328" style="stroke:#181818;stroke-width:0.8000000000000002;" width="8" x="736" y="794.7125"/><rect fill="#FFFFFF" height="125.1641" style="stroke:#181818;stroke-width:0.8000000000000002;" width="8" x="853.2" y="394.1875"/><rect fill="#FFFFFF" height="75.0984" style="stroke:#181818;stroke-width:0.8000000000000002;" width="8" x="1005.2" y="419.2203"/><rect fill="#FFFFFF" height="75.0984" style="stroke:#181818;stroke-width:0.8000000000000002;" width="8" x="1097.2" y="644.5156"/><rect fill="#FFFFFF" height="25.0328" style="stroke:#181818;stroke-width:0.8000000000000002;" width="8" x="1254" y="669.5484"/><rect fill="#FFFFFF" height="60.4656" style="stroke:#181818;stroke-width:0.8000000000000002;" width="8" x="1254" y="944.9094"/><rect fill="#FFFFFF" height="75.0984" style="stroke:#181818;stroke-width:0.8000000000000002;" width="8" x="1380.4" y="844.7781"/><rect fill="#FFFFFF" height="25.0328" style="stroke:#181818;stroke-width:0.8000000000000002;" width="8" x="1543.6" y="869.8109"/><rect fill="#FFFFFF" height="25.0328" style="stroke:#181818;stroke-width:0.8000000000000002;" width="8" x="1626.8" y="1030.4078"/><line style="stroke:#181818;stroke-width:0.4000000000000001;stroke-dasharray:5.0,5.0;" x1="64" x2="64" y1="81.7938" y2="1119.9063"/><line style="stroke:#181818;stroke-width:0.4000000000000001;stroke-dasharray:5.0,5.0;" x1="320" x2="320" y1="81.7938" y2="1119.9063"/><line style="stroke:#181818;stroke-width:0.4000000000000001;stroke-dasharray:5.0,5.0;" x1="522.4" x2="522.4" y1="81.7938" y2="1119.9063"/><line style="stroke:#181818;stroke-width:0.4000000000000001;stroke-dasharray:5.0,5.0;" x1="654" x2="654" y1="81.7938" y2="1119.9063"/><line style="stroke:#181818;stroke-width:0.4000000000000001;stroke-dasharray:5.0,5.0;" x1="739.6" x2="739.6" y1="81.7938" y2="1119.9063"/><line style="stroke:#181818;stroke-width:0.4000000000000001;stroke-dasharray:5.0,5.0;" x1="857.2" x2="857.2" y1="81.7938" y2="1119.9063"/><line style="stroke:#181818;stroke-width:0.4000000000000001;stroke-dasharray:5.0,5.0;" x1="1008.8" x2="1008.8" y1="81.7938" y2="1119.9063"/><line style="stroke:#181818;stroke-width:0.4000000000000001;stroke-dasharray:5.0,5.0;" x1="1100.8" x2="1100.8" y1="81.7938" y2="1119.9063"/><line style="stroke:#181818;stroke-width:0.4000000000000001;stroke-dasharray:5.0,5.0;" x1="1257.6" x2="1257.6" y1="81.7938" y2="1119.9063"/><line style="stroke:#181818;stroke-width:0.4000000000000001;stroke-dasharray:5.0,5.0;" x1="1384.4" x2="1384.4" y1="81.7938" y2="1119.9063"/><line style="stroke:#181818;stroke-width:0.4000000000000001;stroke-dasharray:5.0,5.0;" x1="1547.6" x2="1547.6" y1="81.7938" y2="1119.9063"/><line style="stroke:#181818;stroke-width:0.4000000000000001;stroke-dasharray:5.0,5.0;" x1="1630.8" x2="1630.8" y1="81.7938" y2="1119.9063"/><text fill="#000000" font-family="sans-serif" font-size="11.2" lengthAdjust="spacing" textLength="115.2" x="4" y="64.0859">Green Space Manager</text><text fill="#000000" font-family="sans-serif" font-size="11.2" lengthAdjust="spacing" textLength="32.8" x="45.2" y="78.9828">(GSM)</text><ellipse cx="64" cy="10.8" fill="#E3E3E3" rx="6.4" ry="6.4" style="stroke:#181818;stroke-width:0.4000000000000001;"/><path d="M64,17.2 L64,38.8 M53.6,23.6 L74.4,23.6 M64,38.8 L53.6,50.8 M64,38.8 L74.4,50.8 " fill="none" style="stroke:#181818;stroke-width:0.4000000000000001;"/><text fill="#000000" font-family="sans-serif" font-size="11.2" lengthAdjust="spacing" textLength="115.2" x="4" y="1131.1922">Green Space Manager</text><text fill="#000000" font-family="sans-serif" font-size="11.2" lengthAdjust="spacing" textLength="32.8" x="45.2" y="1146.0891">(GSM)</text><ellipse cx="64" cy="1155.7" fill="#E3E3E3" rx="6.4" ry="6.4" style="stroke:#181818;stroke-width:0.4000000000000001;"/><path d="M64,1162.1 L64,1183.7 M53.6,1168.5 L74.4,1168.5 M64,1183.7 L53.6,1195.7 M64,1183.7 L74.4,1195.7 " fill="none" style="stroke:#181818;stroke-width:0.4000000000000001;"/><rect fill="#E3E3E3" height="26.0969" rx="2" ry="2" style="stroke:#181818;stroke-width:0.4000000000000001;" width="124.8" x="257.6" y="54.8969"/><text fill="#000000" font-family="sans-serif" font-size="11.2" lengthAdjust="spacing" textLength="113.6" x="263.2" y="72.5828">:AssignTeamToTaskUI</text><rect fill="#E3E3E3" height="26.0969" rx="2" ry="2" style="stroke:#181818;stroke-width:0.4000000000000001;" width="124.8" x="257.6" y="1119.1063"/><text fill="#000000" font-family="sans-serif" font-size="11.2" lengthAdjust="spacing" textLength="113.6" x="263.2" y="1136.7922">:AssignTeamToTaskUI</text><rect fill="#E3E3E3" height="26.0969" rx="2" ry="2" style="stroke:#181818;stroke-width:0.4000000000000001;" width="164.8" x="440" y="54.8969"/><text fill="#000000" font-family="sans-serif" font-size="11.2" lengthAdjust="spacing" textLength="153.6" x="445.6" y="72.5828">:AssignTeamToTaskController</text><rect fill="#E3E3E3" height="26.0969" rx="2" ry="2" style="stroke:#181818;stroke-width:0.4000000000000001;" width="164.8" x="440" y="1119.1063"/><text fill="#000000" font-family="sans-serif" font-size="11.2" lengthAdjust="spacing" textLength="153.6" x="445.6" y="1136.7922">:AssignTeamToTaskController</text><rect fill="#E3E3E3" height="26.0969" rx="2" ry="2" style="stroke:#181818;stroke-width:0.4000000000000001;" width="77.6" x="615.6" y="54.8969"/><text fill="#000000" font-family="sans-serif" font-size="11.2" lengthAdjust="spacing" textLength="66.4" x="621.2" y="72.5828">:Repositories</text><rect fill="#E3E3E3" height="26.0969" rx="2" ry="2" style="stroke:#181818;stroke-width:0.4000000000000001;" width="77.6" x="615.6" y="1119.1063"/><text fill="#000000" font-family="sans-serif" font-size="11.2" lengthAdjust="spacing" textLength="66.4" x="621.2" y="1136.7922">:Repositories</text><rect fill="#E3E3E3" height="40.9938" rx="2" ry="2" style="stroke:#181818;stroke-width:0.4000000000000001;" width="77.6" x="701.2" y="40"/><text fill="#000000" font-family="sans-serif" font-size="11.2" lengthAdjust="spacing" textLength="59.2" x="710.4" y="57.6859">repositories</text><text fill="#000000" font-family="sans-serif" font-size="11.2" lengthAdjust="spacing" textLength="66.4" x="706.8" y="72.5828">:Repositories</text><rect fill="#E3E3E3" height="40.9938" rx="2" ry="2" style="stroke:#181818;stroke-width:0.4000000000000001;" width="77.6" x="701.2" y="1119.1063"/><text fill="#000000" font-family="sans-serif" font-size="11.2" lengthAdjust="spacing" textLength="59.2" x="710.4" y="1136.7922">repositories</text><text fill="#000000" font-family="sans-serif" font-size="11.2" lengthAdjust="spacing" textLength="66.4" x="706.8" y="1151.6891">:Repositories</text><rect fill="#E3E3E3" height="40.9938" rx="2" ry="2" style="stroke:#181818;stroke-width:0.4000000000000001;" width="140.8" x="786.8" y="40"/><text fill="#000000" font-family="sans-serif" font-size="11.2" lengthAdjust="spacing" textLength="61.6" x="826.4" y="57.6859">AuthFacade</text><text fill="#000000" font-family="sans-serif" font-size="11.2" lengthAdjust="spacing" textLength="129.6" x="792.4" y="72.5828">:AuthenticationRepository</text><rect fill="#E3E3E3" height="40.9938" rx="2" ry="2" style="stroke:#181818;stroke-width:0.4000000000000001;" width="140.8" x="786.8" y="1119.1063"/><text fill="#000000" font-family="sans-serif" font-size="11.2" lengthAdjust="spacing" textLength="61.6" x="826.4" y="1136.7922">AuthFacade</text><text fill="#000000" font-family="sans-serif" font-size="11.2" lengthAdjust="spacing" textLength="129.6" x="792.4" y="1151.6891">:AuthenticationRepository</text><rect fill="#E3E3E3" height="40.9938" rx="2" ry="2" style="stroke:#181818;stroke-width:0.4000000000000001;" width="77.6" x="970.4" y="40"/><text fill="#000000" font-family="sans-serif" font-size="11.2" lengthAdjust="spacing" textLength="62.4" x="978" y="57.6859">userSession</text><text fill="#000000" font-family="sans-serif" font-size="11.2" lengthAdjust="spacing" textLength="66.4" x="976" y="72.5828">:UserSession</text><rect fill="#E3E3E3" height="40.9938" rx="2" ry="2" style="stroke:#181818;stroke-width:0.4000000000000001;" width="77.6" x="970.4" y="1119.1063"/><text fill="#000000" font-family="sans-serif" font-size="11.2" lengthAdjust="spacing" textLength="62.4" x="978" y="1136.7922">userSession</text><text fill="#000000" font-family="sans-serif" font-size="11.2" lengthAdjust="spacing" textLength="66.4" x="976" y="1151.6891">:UserSession</text><rect fill="#E3E3E3" height="40.9938" rx="2" ry="2" style="stroke:#181818;stroke-width:0.4000000000000001;" width="90.4" x="1056" y="40"/><text fill="#000000" font-family="sans-serif" font-size="11.2" lengthAdjust="spacing" textLength="78.4" x="1062" y="57.6859">taskRepository:</text><text fill="#000000" font-family="sans-serif" font-size="11.2" lengthAdjust="spacing" textLength="79.2" x="1061.6" y="72.5828">TaskRepository</text><rect fill="#E3E3E3" height="40.9938" rx="2" ry="2" style="stroke:#181818;stroke-width:0.4000000000000001;" width="90.4" x="1056" y="1119.1063"/><text fill="#000000" font-family="sans-serif" font-size="11.2" lengthAdjust="spacing" textLength="78.4" x="1062" y="1136.7922">taskRepository:</text><text fill="#000000" font-family="sans-serif" font-size="11.2" lengthAdjust="spacing" textLength="79.2" x="1061.6" y="1151.6891">TaskRepository</text><rect fill="#E3E3E3" height="40.9938" rx="2" ry="2" style="stroke:#181818;stroke-width:0.4000000000000001;" width="39.2" x="1238.4" y="40"/><text fill="#000000" font-family="sans-serif" font-size="11.2" lengthAdjust="spacing" textLength="20.8" x="1247.6" y="57.6859">task</text><text fill="#000000" font-family="sans-serif" font-size="11.2" lengthAdjust="spacing" textLength="28" x="1244" y="72.5828">:Task</text><rect fill="#E3E3E3" height="40.9938" rx="2" ry="2" style="stroke:#181818;stroke-width:0.4000000000000001;" width="39.2" x="1238.4" y="1119.1063"/><text fill="#000000" font-family="sans-serif" font-size="11.2" lengthAdjust="spacing" textLength="20.8" x="1247.6" y="1136.7922">task</text><text fill="#000000" font-family="sans-serif" font-size="11.2" lengthAdjust="spacing" textLength="28" x="1244" y="1151.6891">:Task</text><rect fill="#E3E3E3" height="40.9938" rx="2" ry="2" style="stroke:#181818;stroke-width:0.4000000000000001;" width="94.4" x="1337.2" y="40"/><text fill="#000000" font-family="sans-serif" font-size="11.2" lengthAdjust="spacing" textLength="82.4" x="1343.2" y="57.6859">teamRepository:</text><text fill="#000000" font-family="sans-serif" font-size="11.2" lengthAdjust="spacing" textLength="83.2" x="1342.8" y="72.5828">TeamRepository</text><rect fill="#E3E3E3" height="40.9938" rx="2" ry="2" style="stroke:#181818;stroke-width:0.4000000000000001;" width="94.4" x="1337.2" y="1119.1063"/><text fill="#000000" font-family="sans-serif" font-size="11.2" lengthAdjust="spacing" textLength="82.4" x="1343.2" y="1136.7922">teamRepository:</text><text fill="#000000" font-family="sans-serif" font-size="11.2" lengthAdjust="spacing" textLength="83.2" x="1342.8" y="1151.6891">TeamRepository</text><rect fill="#E3E3E3" height="40.9938" rx="2" ry="2" style="stroke:#181818;stroke-width:0.4000000000000001;" width="43.2" x="1526" y="40"/><text fill="#000000" font-family="sans-serif" font-size="11.2" lengthAdjust="spacing" textLength="24.8" x="1535.2" y="57.6859">team</text><text fill="#000000" font-family="sans-serif" font-size="11.2" lengthAdjust="spacing" textLength="32" x="1531.6" y="72.5828">:Team</text><rect fill="#E3E3E3" height="40.9938" rx="2" ry="2" style="stroke:#181818;stroke-width:0.4000000000000001;" width="43.2" x="1526" y="1119.1063"/><text fill="#000000" font-family="sans-serif" font-size="11.2" lengthAdjust="spacing" textLength="24.8" x="1535.2" y="1136.7922">team</text><text fill="#000000" font-family="sans-serif" font-size="11.2" lengthAdjust="spacing" textLength="32" x="1531.6" y="1151.6891">:Team</text><rect fill="#E3E3E3" height="40.9938" rx="2" ry="2" style="stroke:#181818;stroke-width:0.4000000000000001;" width="107.2" x="1577.2" y="40"/><text fill="#000000" font-family="sans-serif" font-size="11.2" lengthAdjust="spacing" textLength="92.8" x="1584.4" y="57.6859">NotificationService</text><text fill="#000000" font-family="sans-serif" font-size="11.2" lengthAdjust="spacing" textLength="96" x="1582.8" y="72.5828">:NotificationService</text><rect fill="#E3E3E3" height="40.9938" rx="2" ry="2" style="stroke:#181818;stroke-width:0.4000000000000001;" width="107.2" x="1577.2" y="1119.1063"/><text fill="#000000" font-family="sans-serif" font-size="11.2" lengthAdjust="spacing" textLength="92.8" x="1584.4" y="1136.7922">NotificationService</text><text fill="#000000" font-family="sans-serif" font-size="11.2" lengthAdjust="spacing" textLength="96" x="1582.8" y="1151.6891">:NotificationService</text><rect fill="#FFFFFF" height="1015.7125" style="stroke:#181818;stroke-width:0.8000000000000002;" width="8" x="60" y="89.7938"/><rect fill="#FFFFFF" height="25.0328" style="stroke:#181818;stroke-width:0.8000000000000002;" width="8" x="316" y="108.4266"/><rect fill="#FFFFFF" height="25.0328" style="stroke:#181818;stroke-width:0.8000000000000002;" width="8" x="316" y="158.4922"/><rect fill="#FFFFFF" height="896.9484" style="stroke:#181818;stroke-width:0.8000000000000002;" width="8" x="316" y="208.5578"/><rect fill="#FFFFFF" height="846.8828" style="stroke:#181818;stroke-width:0.8000000000000002;" width="8" x="518.4" y="233.5906"/><rect fill="#FFFFFF" height="25.0328" style="stroke:#181818;stroke-width:0.8000000000000002;" width="8" x="650.4" y="294.0563"/><rect fill="#FFFFFF" height="25.0328" style="stroke:#181818;stroke-width:0.8000000000000002;" width="8" x="650.4" y="544.3844"/><rect fill="#FFFFFF" height="25.0328" style="stroke:#181818;stroke-width:0.8000000000000002;" width="8" x="650.4" y="744.6469"/><rect fill="#FFFFFF" height="25.0328" style="stroke:#181818;stroke-width:0.8000000000000002;" width="8" x="736" y="344.1219"/><rect fill="#FFFFFF" height="25.0328" style="stroke:#181818;stroke-width:0.8000000000000002;" width="8" x="736" y="594.45"/><rect fill="#FFFFFF" height="25.0328" style="stroke:#181818;stroke-width:0.8000000000000002;" width="8" x="736" y="794.7125"/><rect fill="#FFFFFF" height="125.1641" style="stroke:#181818;stroke-width:0.8000000000000002;" width="8" x="853.2" y="394.1875"/><rect fill="#FFFFFF" height="75.0984" style="stroke:#181818;stroke-width:0.8000000000000002;" width="8" x="1005.2" y="419.2203"/><rect fill="#FFFFFF" height="75.0984" style="stroke:#181818;stroke-width:0.8000000000000002;" width="8" x="1097.2" y="644.5156"/><rect fill="#FFFFFF" height="25.0328" style="stroke:#181818;stroke-width:0.8000000000000002;" width="8" x="1254" y="669.5484"/><rect fill="#FFFFFF" height="60.4656" style="stroke:#181818;stroke-width:0.8000000000000002;" width="8" x="1254" y="944.9094"/><rect fill="#FFFFFF" height="75.0984" style="stroke:#181818;stroke-width:0.8000000000000002;" width="8" x="1380.4" y="844.7781"/><rect fill="#FFFFFF" height="25.0328" style="stroke:#181818;stroke-width:0.8000000000000002;" width="8" x="1543.6" y="869.8109"/><rect fill="#FFFFFF" height="25.0328" style="stroke:#181818;stroke-width:0.8000000000000002;" width="8" x="1626.8" y="1030.4078"/><polygon fill="#181818" points="306.4,105.2266,314.4,108.4266,306.4,111.6266,309.6,108.4266" style="stroke:#181818;stroke-width:0.8000000000000002;"/><line style="stroke:#181818;stroke-width:0.8000000000000002;" x1="68" x2="311.2" y1="108.4266" y2="108.4266"/><text fill="#000000" font-family="sans-serif" font-size="10.4" font-weight="bold" lengthAdjust="spacing" textLength="5.6" x="73.6" y="104.2164">1</text><text fill="#000000" font-family="sans-serif" font-size="10.4" lengthAdjust="spacing" textLength="147.2" x="82.4" y="104.2164">asks to assign a team to a task</text><polygon fill="#181818" points="76.8,130.2594,68.8,133.4594,76.8,136.6594,73.6,133.4594" style="stroke:#181818;stroke-width:0.8000000000000002;"/><line style="stroke:#181818;stroke-width:0.8000000000000002;stroke-dasharray:2.0,2.0;" x1="72" x2="319.2" y1="133.4594" y2="133.4594"/><text fill="#000000" font-family="sans-serif" font-size="10.4" font-weight="bold" lengthAdjust="spacing" textLength="5.6" x="81.6" y="129.2492">2</text><text fill="#000000" font-family="sans-serif" font-size="10.4" lengthAdjust="spacing" textLength="177.6" x="90.4" y="129.2492">requests data (Team and Task details)</text><polygon fill="#181818" points="306.4,155.2922,314.4,158.4922,306.4,161.6922,309.6,158.4922" style="stroke:#181818;stroke-width:0.8000000000000002;"/><line style="stroke:#181818;stroke-width:0.8000000000000002;" x1="68" x2="311.2" y1="158.4922" y2="158.4922"/><text fill="#000000" font-family="sans-serif" font-size="10.4" font-weight="bold" lengthAdjust="spacing" textLength="5.6" x="73.6" y="154.282">3</text><text fill="#000000" font-family="sans-serif" font-size="10.4" lengthAdjust="spacing" textLength="224" x="82.4" y="154.282">provides requested data (Team and Task details)</text><polygon fill="#181818" points="76.8,180.325,68.8,183.525,76.8,186.725,73.6,183.525" style="stroke:#181818;stroke-width:0.8000000000000002;"/><line style="stroke:#181818;stroke-width:0.8000000000000002;stroke-dasharray:2.0,2.0;" x1="72" x2="319.2" y1="183.525" y2="183.525"/><text fill="#000000" font-family="sans-serif" font-size="10.4" font-weight="bold" lengthAdjust="spacing" textLength="5.6" x="81.6" y="179.3148">4</text><text fill="#000000" font-family="sans-serif" font-size="10.4" lengthAdjust="spacing" textLength="188.8" x="90.4" y="179.3148">shows all data and requests confirmation</text><polygon fill="#181818" points="306.4,205.3578,314.4,208.5578,306.4,211.7578,309.6,208.5578" style="stroke:#181818;stroke-width:0.8000000000000002;"/><line style="stroke:#181818;stroke-width:0.8000000000000002;" x1="68" x2="311.2" y1="208.5578" y2="208.5578"/><text fill="#000000" font-family="sans-serif" font-size="10.4" font-weight="bold" lengthAdjust="spacing" textLength="5.6" x="73.6" y="204.3477">5</text><text fill="#000000" font-family="sans-serif" font-size="10.4" lengthAdjust="spacing" textLength="62.4" x="82.4" y="204.3477">confirms data</text><polygon fill="#181818" points="508.8,230.3906,516.8,233.5906,508.8,236.7906,512,233.5906" style="stroke:#181818;stroke-width:0.8000000000000002;"/><line style="stroke:#181818;stroke-width:0.8000000000000002;" x1="324" x2="513.6" y1="233.5906" y2="233.5906"/><text fill="#000000" font-family="sans-serif" font-size="10.4" font-weight="bold" lengthAdjust="spacing" textLength="5.6" x="329.6" y="229.3805">6</text><text fill="#000000" font-family="sans-serif" font-size="10.4" lengthAdjust="spacing" textLength="139.2" x="338.4" y="229.3805">assignTeam(employees, task)</text><line style="stroke:#181818;stroke-width:0.8000000000000002;" x1="526.4" x2="560" y1="258.6234" y2="258.6234"/><line style="stroke:#181818;stroke-width:0.8000000000000002;" x1="560" x2="560" y1="258.6234" y2="269.0234"/><line style="stroke:#181818;stroke-width:0.8000000000000002;" x1="527.2" x2="560" y1="269.0234" y2="269.0234"/><polygon fill="#181818" points="535.2,265.8234,527.2,269.0234,535.2,272.2234,532,269.0234" style="stroke:#181818;stroke-width:0.8000000000000002;"/><text fill="#000000" font-family="sans-serif" font-size="10.4" font-weight="bold" lengthAdjust="spacing" textLength="5.6" x="532" y="254.4133">7</text><text fill="#000000" font-family="sans-serif" font-size="10.4" lengthAdjust="spacing" textLength="104" x="540.8" y="254.4133">getUserFromSession()</text><polygon fill="#181818" points="640.8,290.8563,648.8,294.0563,640.8,297.2563,644,294.0563" style="stroke:#181818;stroke-width:0.8000000000000002;"/><line style="stroke:#181818;stroke-width:0.8000000000000002;" x1="526.4" x2="645.6" y1="294.0563" y2="294.0563"/><text fill="#000000" font-family="sans-serif" font-size="10.4" font-weight="bold" lengthAdjust="spacing" textLength="5.6" x="532" y="289.8461">8</text><text fill="#000000" font-family="sans-serif" font-size="10.4" lengthAdjust="spacing" textLength="60" x="540.8" y="289.8461">getInstance()</text><polygon fill="#181818" points="535.2,315.8891,527.2,319.0891,535.2,322.2891,532,319.0891" style="stroke:#181818;stroke-width:0.8000000000000002;"/><line style="stroke:#181818;stroke-width:0.8000000000000002;stroke-dasharray:2.0,2.0;" x1="530.4" x2="653.6" y1="319.0891" y2="319.0891"/><text fill="#000000" font-family="sans-serif" font-size="10.4" font-weight="bold" lengthAdjust="spacing" textLength="5.6" x="540" y="314.8789">9</text><text fill="#000000" font-family="sans-serif" font-size="10.4" lengthAdjust="spacing" textLength="57.6" x="548.8" y="314.8789">Repositories</text><polygon fill="#181818" points="726.4,340.9219,734.4,344.1219,726.4,347.3219,729.6,344.1219" style="stroke:#181818;stroke-width:0.8000000000000002;"/><line style="stroke:#181818;stroke-width:0.8000000000000002;" x1="526.4" x2="731.2" y1="344.1219" y2="344.1219"/><text fill="#000000" font-family="sans-serif" font-size="10.4" font-weight="bold" lengthAdjust="spacing" textLength="11.2" x="532" y="339.9117">10</text><text fill="#000000" font-family="sans-serif" font-size="10.4" lengthAdjust="spacing" textLength="136.8" x="546.4" y="339.9117">getAuthenticationRepository()</text><polygon fill="#181818" points="535.2,365.9547,527.2,369.1547,535.2,372.3547,532,369.1547" style="stroke:#181818;stroke-width:0.8000000000000002;"/><line style="stroke:#181818;stroke-width:0.8000000000000002;stroke-dasharray:2.0,2.0;" x1="530.4" x2="739.2" y1="369.1547" y2="369.1547"/><text fill="#000000" font-family="sans-serif" font-size="10.4" font-weight="bold" lengthAdjust="spacing" textLength="11.2" x="540" y="364.9445">11</text><text fill="#000000" font-family="sans-serif" font-size="10.4" lengthAdjust="spacing" textLength="122.4" x="554.4" y="364.9445">AuthenticationRepository()</text><polygon fill="#181818" points="843.6,390.9875,851.6,394.1875,843.6,397.3875,846.8,394.1875" style="stroke:#181818;stroke-width:0.8000000000000002;"/><line style="stroke:#181818;stroke-width:0.8000000000000002;" x1="526.4" x2="848.4" y1="394.1875" y2="394.1875"/><text fill="#000000" font-family="sans-serif" font-size="10.4" font-weight="bold" lengthAdjust="spacing" textLength="11.2" x="532" y="389.9773">12</text><text fill="#000000" font-family="sans-serif" font-size="10.4" lengthAdjust="spacing" textLength="113.6" x="546.4" y="389.9773">getCurrentUserSession()</text><polygon fill="#181818" points="995.6,416.0203,1003.6,419.2203,995.6,422.4203,998.8,419.2203" style="stroke:#181818;stroke-width:0.8000000000000002;"/><line style="stroke:#181818;stroke-width:0.8000000000000002;" x1="861.2" x2="1000.4" y1="419.2203" y2="419.2203"/><text fill="#000000" font-family="sans-serif" font-size="10.4" font-weight="bold" lengthAdjust="spacing" textLength="11.2" x="866.8" y="415.0102">13</text><text fill="#000000" font-family="sans-serif" font-size="10.4" lengthAdjust="spacing" textLength="114.4" x="881.2" y="415.0102">isLoggedWithRole(GSM)</text><polygon fill="#181818" points="870,441.0531,862,444.2531,870,447.4531,866.8,444.2531" style="stroke:#181818;stroke-width:0.8000000000000002;"/><line style="stroke:#181818;stroke-width:0.8000000000000002;stroke-dasharray:2.0,2.0;" x1="865.2" x2="1004.4" y1="444.2531" y2="444.2531"/><text fill="#000000" font-family="sans-serif" font-size="10.4" font-weight="bold" lengthAdjust="spacing" textLength="11.2" x="874.8" y="440.043">14</text><text fill="#000000" font-family="sans-serif" font-size="10.4" lengthAdjust="spacing" textLength="56.8" x="889.2" y="440.043">"True/False"</text><polygon fill="#181818" points="995.6,466.0859,1003.6,469.2859,995.6,472.4859,998.8,469.2859" style="stroke:#181818;stroke-width:0.8000000000000002;"/><line style="stroke:#181818;stroke-width:0.8000000000000002;stroke-dasharray:2.0,2.0;" x1="861.2" x2="1000.4" y1="469.2859" y2="469.2859"/><text fill="#000000" font-family="sans-serif" font-size="10.4" font-weight="bold" lengthAdjust="spacing" textLength="11.2" x="866.8" y="465.0758">15</text><text fill="#000000" font-family="sans-serif" font-size="10.4" lengthAdjust="spacing" textLength="75.2" x="881.2" y="465.0758">getUserId(email)</text><polygon fill="#181818" points="870,491.1188,862,494.3188,870,497.5188,866.8,494.3188" style="stroke:#181818;stroke-width:0.8000000000000002;"/><line style="stroke:#181818;stroke-width:0.8000000000000002;stroke-dasharray:2.0,2.0;" x1="865.2" x2="1008.4" y1="494.3188" y2="494.3188"/><text fill="#000000" font-family="sans-serif" font-size="10.4" font-weight="bold" lengthAdjust="spacing" textLength="11.2" x="874.8" y="490.1086">16</text><text fill="#000000" font-family="sans-serif" font-size="10.4" lengthAdjust="spacing" textLength="59.2" x="889.2" y="490.1086">userId(email)</text><polygon fill="#181818" points="535.2,516.1516,527.2,519.3516,535.2,522.5516,532,519.3516" style="stroke:#181818;stroke-width:0.8000000000000002;"/><line style="stroke:#181818;stroke-width:0.8000000000000002;stroke-dasharray:2.0,2.0;" x1="530.4" x2="856.4" y1="519.3516" y2="519.3516"/><text fill="#000000" font-family="sans-serif" font-size="10.4" font-weight="bold" lengthAdjust="spacing" textLength="11.2" x="540" y="515.1414">17</text><text fill="#000000" font-family="sans-serif" font-size="10.4" lengthAdjust="spacing" textLength="59.2" x="554.4" y="515.1414">userId(email)</text><polygon fill="#181818" points="640.8,541.1844,648.8,544.3844,640.8,547.5844,644,544.3844" style="stroke:#181818;stroke-width:0.8000000000000002;"/><line style="stroke:#181818;stroke-width:0.8000000000000002;" x1="526.4" x2="645.6" y1="544.3844" y2="544.3844"/><text fill="#000000" font-family="sans-serif" font-size="10.4" font-weight="bold" lengthAdjust="spacing" textLength="11.2" x="532" y="540.1742">18</text><text fill="#000000" font-family="sans-serif" font-size="10.4" lengthAdjust="spacing" textLength="60" x="546.4" y="540.1742">getInstance()</text><polygon fill="#181818" points="535.2,566.2172,527.2,569.4172,535.2,572.6172,532,569.4172" style="stroke:#181818;stroke-width:0.8000000000000002;"/><line style="stroke:#181818;stroke-width:0.8000000000000002;stroke-dasharray:2.0,2.0;" x1="530.4" x2="653.6" y1="569.4172" y2="569.4172"/><text fill="#000000" font-family="sans-serif" font-size="10.4" font-weight="bold" lengthAdjust="spacing" textLength="11.2" x="540" y="565.207">19</text><text fill="#000000" font-family="sans-serif" font-size="10.4" lengthAdjust="spacing" textLength="57.6" x="554.4" y="565.207">Repositories</text><polygon fill="#181818" points="726.4,591.25,734.4,594.45,726.4,597.65,729.6,594.45" style="stroke:#181818;stroke-width:0.8000000000000002;"/><line style="stroke:#181818;stroke-width:0.8000000000000002;" x1="526.4" x2="731.2" y1="594.45" y2="594.45"/><text fill="#000000" font-family="sans-serif" font-size="10.4" font-weight="bold" lengthAdjust="spacing" textLength="11.2" x="532" y="590.2398">20</text><text fill="#000000" font-family="sans-serif" font-size="10.4" lengthAdjust="spacing" textLength="92.8" x="546.4" y="590.2398">getTaskRepository()</text><polygon fill="#181818" points="535.2,616.2828,527.2,619.4828,535.2,622.6828,532,619.4828" style="stroke:#181818;stroke-width:0.8000000000000002;"/><line style="stroke:#181818;stroke-width:0.8000000000000002;stroke-dasharray:2.0,2.0;" x1="530.4" x2="739.2" y1="619.4828" y2="619.4828"/><text fill="#000000" font-family="sans-serif" font-size="10.4" font-weight="bold" lengthAdjust="spacing" textLength="11.2" x="540" y="615.2727">21</text><text fill="#000000" font-family="sans-serif" font-size="10.4" lengthAdjust="spacing" textLength="78.4" x="554.4" y="615.2727">TaskRepository()</text><polygon fill="#181818" points="1087.6,641.3156,1095.6,644.5156,1087.6,647.7156,1090.8,644.5156" style="stroke:#181818;stroke-width:0.8000000000000002;"/><line style="stroke:#181818;stroke-width:0.8000000000000002;" x1="526.4" x2="1092.4" y1="644.5156" y2="644.5156"/><text fill="#000000" font-family="sans-serif" font-size="10.4" font-weight="bold" lengthAdjust="spacing" textLength="11.2" x="532" y="640.3055">22</text><text fill="#000000" font-family="sans-serif" font-size="10.4" lengthAdjust="spacing" textLength="71.2" x="546.4" y="640.3055">getTask(taskId)</text><polygon fill="#181818" points="1244.4,666.3484,1252.4,669.5484,1244.4,672.7484,1247.6,669.5484" style="stroke:#181818;stroke-width:0.8000000000000002;"/><line style="stroke:#181818;stroke-width:0.8000000000000002;" x1="1105.2" x2="1249.2" y1="669.5484" y2="669.5484"/><text fill="#000000" font-family="sans-serif" font-size="10.4" font-weight="bold" lengthAdjust="spacing" textLength="11.2" x="1110.8" y="665.3383">23</text><text fill="#000000" font-family="sans-serif" font-size="10.4" lengthAdjust="spacing" textLength="119.2" x="1125.2" y="665.3383">anyTaskHasThisId(taskId)</text><polygon fill="#181818" points="1114,691.3813,1106,694.5813,1114,697.7813,1110.8,694.5813" style="stroke:#181818;stroke-width:0.8000000000000002;"/><line style="stroke:#181818;stroke-width:0.8000000000000002;stroke-dasharray:2.0,2.0;" x1="1109.2" x2="1257.2" y1="694.5813" y2="694.5813"/><text fill="#000000" font-family="sans-serif" font-size="10.4" font-weight="bold" lengthAdjust="spacing" textLength="11.2" x="1118.8" y="690.3711">24</text><text fill="#000000" font-family="sans-serif" font-size="10.4" lengthAdjust="spacing" textLength="48.8" x="1133.2" y="690.3711">True/False</text><polygon fill="#181818" points="535.2,716.4141,527.2,719.6141,535.2,722.8141,532,719.6141" style="stroke:#181818;stroke-width:0.8000000000000002;"/><line style="stroke:#181818;stroke-width:0.8000000000000002;stroke-dasharray:2.0,2.0;" x1="530.4" x2="1100.4" y1="719.6141" y2="719.6141"/><text fill="#000000" font-family="sans-serif" font-size="10.4" font-weight="bold" lengthAdjust="spacing" textLength="11.2" x="540" y="715.4039">25</text><text fill="#000000" font-family="sans-serif" font-size="10.4" lengthAdjust="spacing" textLength="20" x="554.4" y="715.4039">task</text><polygon fill="#181818" points="640.8,741.4469,648.8,744.6469,640.8,747.8469,644,744.6469" style="stroke:#181818;stroke-width:0.8000000000000002;"/><line style="stroke:#181818;stroke-width:0.8000000000000002;" x1="526.4" x2="645.6" y1="744.6469" y2="744.6469"/><text fill="#000000" font-family="sans-serif" font-size="10.4" font-weight="bold" lengthAdjust="spacing" textLength="11.2" x="532" y="740.4367">26</text><text fill="#000000" font-family="sans-serif" font-size="10.4" lengthAdjust="spacing" textLength="60" x="546.4" y="740.4367">getInstance()</text><polygon fill="#181818" points="535.2,766.4797,527.2,769.6797,535.2,772.8797,532,769.6797" style="stroke:#181818;stroke-width:0.8000000000000002;"/><line style="stroke:#181818;stroke-width:0.8000000000000002;stroke-dasharray:2.0,2.0;" x1="530.4" x2="653.6" y1="769.6797" y2="769.6797"/><text fill="#000000" font-family="sans-serif" font-size="10.4" font-weight="bold" lengthAdjust="spacing" textLength="11.2" x="540" y="765.4695">27</text><text fill="#000000" font-family="sans-serif" font-size="10.4" lengthAdjust="spacing" textLength="57.6" x="554.4" y="765.4695">Repositories</text><polygon fill="#181818" points="726.4,791.5125,734.4,794.7125,726.4,797.9125,729.6,794.7125" style="stroke:#181818;stroke-width:0.8000000000000002;"/><line style="stroke:#181818;stroke-width:0.8000000000000002;" x1="526.4" x2="731.2" y1="794.7125" y2="794.7125"/><text fill="#000000" font-family="sans-serif" font-size="10.4" font-weight="bold" lengthAdjust="spacing" textLength="11.2" x="532" y="790.5023">28</text><text fill="#000000" font-family="sans-serif" font-size="10.4" lengthAdjust="spacing" textLength="96" x="546.4" y="790.5023">getTeamRepository()</text><polygon fill="#181818" points="535.2,816.5453,527.2,819.7453,535.2,822.9453,532,819.7453" style="stroke:#181818;stroke-width:0.8000000000000002;"/><line style="stroke:#181818;stroke-width:0.8000000000000002;stroke-dasharray:2.0,2.0;" x1="530.4" x2="739.2" y1="819.7453" y2="819.7453"/><text fill="#000000" font-family="sans-serif" font-size="10.4" font-weight="bold" lengthAdjust="spacing" textLength="11.2" x="540" y="815.5352">29</text><text fill="#000000" font-family="sans-serif" font-size="10.4" lengthAdjust="spacing" textLength="81.6" x="554.4" y="815.5352">TeamRepository()</text><polygon fill="#181818" points="1370.8,841.5781,1378.8,844.7781,1370.8,847.9781,1374,844.7781" style="stroke:#181818;stroke-width:0.8000000000000002;"/><line style="stroke:#181818;stroke-width:0.8000000000000002;" x1="526.4" x2="1375.6" y1="844.7781" y2="844.7781"/><text fill="#000000" font-family="sans-serif" font-size="10.4" font-weight="bold" lengthAdjust="spacing" textLength="11.2" x="532" y="840.568">30</text><text fill="#000000" font-family="sans-serif" font-size="10.4" lengthAdjust="spacing" textLength="98.4" x="546.4" y="840.568">getTeamById(teamId)</text><polygon fill="#181818" points="1534,866.6109,1542,869.8109,1534,873.0109,1537.2,869.8109" style="stroke:#181818;stroke-width:0.8000000000000002;"/><line style="stroke:#181818;stroke-width:0.8000000000000002;" x1="1388.4" x2="1538.8" y1="869.8109" y2="869.8109"/><text fill="#000000" font-family="sans-serif" font-size="10.4" font-weight="bold" lengthAdjust="spacing" textLength="11.2" x="1394" y="865.6008">31</text><text fill="#000000" font-family="sans-serif" font-size="10.4" lengthAdjust="spacing" textLength="125.6" x="1408.4" y="865.6008">anyTeamHasThisId(teamId)</text><polygon fill="#181818" points="1397.2,891.6438,1389.2,894.8438,1397.2,898.0438,1394,894.8438" style="stroke:#181818;stroke-width:0.8000000000000002;"/><line style="stroke:#181818;stroke-width:0.8000000000000002;stroke-dasharray:2.0,2.0;" x1="1392.4" x2="1546.8" y1="894.8438" y2="894.8438"/><text fill="#000000" font-family="sans-serif" font-size="10.4" font-weight="bold" lengthAdjust="spacing" textLength="11.2" x="1402" y="890.6336">32</text><text fill="#000000" font-family="sans-serif" font-size="10.4" lengthAdjust="spacing" textLength="48.8" x="1416.4" y="890.6336">True/False</text><polygon fill="#181818" points="535.2,916.6766,527.2,919.8766,535.2,923.0766,532,919.8766" style="stroke:#181818;stroke-width:0.8000000000000002;"/><line style="stroke:#181818;stroke-width:0.8000000000000002;stroke-dasharray:2.0,2.0;" x1="530.4" x2="1383.6" y1="919.8766" y2="919.8766"/><text fill="#000000" font-family="sans-serif" font-size="10.4" font-weight="bold" lengthAdjust="spacing" textLength="11.2" x="540" y="915.6664">33</text><text fill="#000000" font-family="sans-serif" font-size="10.4" lengthAdjust="spacing" textLength="23.2" x="554.4" y="915.6664">team</text><polygon fill="#181818" points="1244.4,941.7094,1252.4,944.9094,1244.4,948.1094,1247.6,944.9094" style="stroke:#181818;stroke-width:0.8000000000000002;"/><line style="stroke:#181818;stroke-width:0.8000000000000002;" x1="526.4" x2="1249.2" y1="944.9094" y2="944.9094"/><text fill="#000000" font-family="sans-serif" font-size="10.4" font-weight="bold" lengthAdjust="spacing" textLength="11.2" x="532" y="940.6992">34</text><text fill="#000000" font-family="sans-serif" font-size="10.4" lengthAdjust="spacing" textLength="85.6" x="546.4" y="940.6992">assignTeam(team)</text><line style="stroke:#181818;stroke-width:0.8000000000000002;" x1="1262" x2="1295.6" y1="969.9422" y2="969.9422"/><line style="stroke:#181818;stroke-width:0.8000000000000002;" x1="1295.6" x2="1295.6" y1="969.9422" y2="980.3422"/><line style="stroke:#181818;stroke-width:0.8000000000000002;" x1="1262.8" x2="1295.6" y1="980.3422" y2="980.3422"/><polygon fill="#181818" points="1270.8,977.1422,1262.8,980.3422,1270.8,983.5422,1267.6,980.3422" style="stroke:#181818;stroke-width:0.8000000000000002;"/><text fill="#000000" font-family="sans-serif" font-size="10.4" font-weight="bold" lengthAdjust="spacing" textLength="11.2" x="1267.6" y="965.732">35</text><text fill="#000000" font-family="sans-serif" font-size="10.4" lengthAdjust="spacing" textLength="92.8" x="1282" y="965.732">setStatus(assigned)</text><polygon fill="#181818" points="535.2,1002.175,527.2,1005.375,535.2,1008.575,532,1005.375" style="stroke:#181818;stroke-width:0.8000000000000002;"/><line style="stroke:#181818;stroke-width:0.8000000000000002;stroke-dasharray:2.0,2.0;" x1="530.4" x2="1257.2" y1="1005.375" y2="1005.375"/><text fill="#000000" font-family="sans-serif" font-size="10.4" font-weight="bold" lengthAdjust="spacing" textLength="11.2" x="540" y="1001.1648">36</text><text fill="#000000" font-family="sans-serif" font-size="10.4" lengthAdjust="spacing" textLength="60" x="554.4" y="1001.1648">updated task</text><polygon fill="#181818" points="1617.2,1027.2078,1625.2,1030.4078,1617.2,1033.6078,1620.4,1030.4078" style="stroke:#181818;stroke-width:0.8000000000000002;"/><line style="stroke:#181818;stroke-width:0.8000000000000002;" x1="526.4" x2="1622" y1="1030.4078" y2="1030.4078"/><text fill="#000000" font-family="sans-serif" font-size="10.4" font-weight="bold" lengthAdjust="spacing" textLength="11.2" x="532" y="1026.1977">37</text><text fill="#000000" font-family="sans-serif" font-size="10.4" lengthAdjust="spacing" textLength="188.8" x="546.4" y="1026.1977">notifyTeamAssignment(employees, task)</text><polygon fill="#181818" points="535.2,1052.2406,527.2,1055.4406,535.2,1058.6406,532,1055.4406" style="stroke:#181818;stroke-width:0.8000000000000002;"/><line style="stroke:#181818;stroke-width:0.8000000000000002;stroke-dasharray:2.0,2.0;" x1="530.4" x2="1630" y1="1055.4406" y2="1055.4406"/><text fill="#000000" font-family="sans-serif" font-size="10.4" font-weight="bold" lengthAdjust="spacing" textLength="11.2" x="540" y="1051.2305">38</text><text fill="#000000" font-family="sans-serif" font-size="10.4" lengthAdjust="spacing" textLength="72.8" x="554.4" y="1051.2305">notification sent</text><polygon fill="#181818" points="332.8,1077.2734,324.8,1080.4734,332.8,1083.6734,329.6,1080.4734" style="stroke:#181818;stroke-width:0.8000000000000002;"/><line style="stroke:#181818;stroke-width:0.8000000000000002;stroke-dasharray:2.0,2.0;" x1="328" x2="521.6" y1="1080.4734" y2="1080.4734"/><text fill="#000000" font-family="sans-serif" font-size="10.4" font-weight="bold" lengthAdjust="spacing" textLength="11.2" x="337.6" y="1076.2633">39</text><text fill="#000000" font-family="sans-serif" font-size="10.4" lengthAdjust="spacing" textLength="160.8" x="352" y="1076.2633">task assigned and notification sent</text><polygon fill="#181818" points="72.8,1102.3063,64.8,1105.5063,72.8,1108.7063,69.6,1105.5063" style="stroke:#181818;stroke-width:0.8000000000000002;"/><line style="stroke:#181818;stroke-width:0.8000000000000002;stroke-dasharray:2.0,2.0;" x1="68" x2="319.2" y1="1105.5063" y2="1105.5063"/><text fill="#000000" font-family="sans-serif" font-size="10.4" font-weight="bold" lengthAdjust="spacing" textLength="11.2" x="77.6" y="1101.2961">40</text><text fill="#000000" font-family="sans-serif" font-size="10.4" lengthAdjust="spacing" textLength="126.4" x="92" y="1101.2961">displays operation success</text><!--SRC=[tLTDR-8m4BtpAonE82tQErfLOglIecsx5GdQIo_UP0eMYPsrdLRy-vrnGX8dvgFNzW9nvhtvuCruQlP25bppdELAgcIdLGxCwX96fdbJy6JFjn3PGmPCGsAvt6PT0xFZgVeGSilUU6PWDEAbLRBC_uB6xubLcetlDO1a4N81U-8I-VIhdDn7JzCnuuRXbn6IMP68WalBnlE5CM8hO-1vh69kzfkLCzoiBjZTAccroZBGplusNZ_s46ieb14ObG3ZR9g3GoGeDGpUX-WEubKE2LuU5x6FM9Hsj-G9Jm7jwG4alkHMADbwSzZ59dvOtxtuyDA0ZW0pKnBnc_Qfga5qj_RjBIRUyivVPUmTE9H_DCIZ8pAfR1VHhvu55jZtu1rKAEzeY2SF-57PtYrwl_YpikAjhb44-bqaLBl0gSC__uvNIwSkySujE06DMFs73snsWrfXSxJT6sOLVf9E66SKYJjWb7M3QPXGOSqXCioGYFZcAFr_9HXhMCejPnDAXN6PkiAo52mNcPawQ0e3jcv8XLRl8WLpP8JqCkNbyCnEVHZ6iwmY8vecuaJ9Dw5pLyLh8gpjgrJF-xznBUOAVMp42UH5fWu0vfkhyNHOPDUMpR5ZQ9csO4doInn6jUmdqw5ne6ihx4eQ7549J09-Gwtk4V-OpKumTxk-mNJg6A8U14sJeehor508HUtcoo3CckiAeawKZceGLZs4giXkIwsHi3DrGZ4TvrRpviX16i81XLp2FAhj5j8_mkxMAWCtxWCDH-DiG4CPrZpZ62-axqkwMyP3Tws_MZUh50M8dJCznra63RjjuKNL5Bsjr4M6GOM-Y7BzY-JJUZq9lwXI7za6Cw4Xiqe3WVJklCQ0_dfin8-t7WqoUQ1t3zp4Es7m9-xJ-oxegZp3IvdNnAsCFK0dRqSshDmWSU_cwk9FvFjLbESj69zNtYduPULvo3QOdmUI1tu9gy_VXtoL-8pa0pUYMdtuhgE-7htlWjQeCxnEFHNn5UeZie3w-ibJH47rdSYtgMBTN-sYG4oXmdbju60jt82DBBUbcLH4qAbDPTfk4cM12mokLoVxPTXl27Qx9Q8bxPxkrwZ-oSZnLhnYjwbNq-DvnTO9IdPMMin6sb1aFP8gjEDwHexPCNktwOKvEtpjmkKjZQamHSOFXga2T8qkamIl_T2Qs7caVVi_]--></g></svg>