<?xml version="1.0" encoding="us-ascii" standalone="no"?><svg xmlns="http://www.w3.org/2000/svg" xmlns:xlink="http://www.w3.org/1999/xlink" contentStyleType="text/css" height="1108.8px" preserveAspectRatio="none" style="width:1322px;height:1108px;background:#FFFFFF;" version="1.1" viewBox="0 0 1322 1108" width="1322.1px" zoomAndPan="magnify"><defs/><g><!--class AssignTeamToTaskUI--><g id="elem_AssignTeamToTaskUI"><rect codeLine="11" fill="#F1F1F1" height="43.2" id="AssignTeamToTaskUI" rx="2.25" ry="2.25" style="stroke:#181818;stroke-width:0.45;" width="153" x="6.3" y="64.8"/><ellipse cx="19.8" cy="79.2" fill="#ADD1B2" rx="9.9" ry="9.9" style="stroke:#181818;stroke-width:0.9;"/><path d="M22.2891,75.4875 Q22.4297,75.2906 22.5984,75.1922 Q22.7672,75.0938 22.9641,75.0938 Q23.3016,75.0938 23.5125,75.3328 Q23.7234,75.5578 23.7234,76.1063 L23.7234,77.4141 Q23.7234,77.9625 23.5125,78.2016 Q23.3016,78.4406 22.9641,78.4406 Q22.6547,78.4406 22.4719,78.2578 Q22.2891,78.0891 22.1906,77.625 Q22.1484,77.3016 21.9797,77.1328 Q21.6844,76.7953 21.1359,76.5984 Q20.5875,76.4016 20.025,76.4016 Q19.3359,76.4016 18.7594,76.6969 Q18.1969,76.9922 17.7469,77.6672 Q17.3109,78.3422 17.3109,79.2703 L17.3109,80.2547 Q17.3109,81.3656 18.1125,82.1109 Q18.9141,82.8422 20.3484,82.8422 Q21.1922,82.8422 21.7828,82.6172 Q22.1344,82.4766 22.5141,82.0828 Q22.7531,81.8438 22.8797,81.7734 Q23.0203,81.7031 23.2031,81.7031 Q23.4984,81.7031 23.7234,81.9422 Q23.9625,82.1672 23.9625,82.4766 Q23.9625,82.7859 23.6531,83.1516 Q23.2031,83.6719 22.4859,83.9672 Q21.5156,84.375 20.3484,84.375 Q18.9844,84.375 17.9016,83.8125 Q17.0156,83.3625 16.3969,82.4063 Q15.7781,81.4359 15.7781,80.2828 L15.7781,79.2422 Q15.7781,78.0469 16.3266,77.0203 Q16.8891,75.9797 17.8734,75.4313 Q18.8578,74.8688 19.9688,74.8688 Q20.6297,74.8688 21.2063,75.0234 Q21.7969,75.1641 22.2891,75.4875 Z " fill="#000000"/><text fill="#000000" font-family="sans-serif" font-size="12.6" lengthAdjust="spacing" textLength="124.2" x="32.4" y="84.4172">AssignTeamToTaskUI</text><line style="stroke:#181818;stroke-width:0.45;" x1="7.2" x2="158.4" y1="93.6" y2="93.6"/><line style="stroke:#181818;stroke-width:0.45;" x1="7.2" x2="158.4" y1="100.8" y2="100.8"/></g><!--class AssignTeamToTaskController--><g id="elem_AssignTeamToTaskController"><rect codeLine="14" fill="#F1F1F1" height="76.718" id="AssignTeamToTaskController" rx="2.25" ry="2.25" style="stroke:#181818;stroke-width:0.45;" width="514.8" x="190.8" y="48.15"/><ellipse cx="359.775" cy="62.55" fill="#ADD1B2" rx="9.9" ry="9.9" style="stroke:#181818;stroke-width:0.9;"/><path d="M362.2641,58.8375 Q362.4047,58.6406 362.5734,58.5422 Q362.7422,58.4438 362.9391,58.4438 Q363.2766,58.4438 363.4875,58.6828 Q363.6984,58.9078 363.6984,59.4563 L363.6984,60.7641 Q363.6984,61.3125 363.4875,61.5516 Q363.2766,61.7906 362.9391,61.7906 Q362.6297,61.7906 362.4469,61.6078 Q362.2641,61.4391 362.1656,60.975 Q362.1234,60.6516 361.9547,60.4828 Q361.6594,60.1453 361.1109,59.9484 Q360.5625,59.7516 360,59.7516 Q359.3109,59.7516 358.7344,60.0469 Q358.1719,60.3422 357.7219,61.0172 Q357.2859,61.6922 357.2859,62.6203 L357.2859,63.6047 Q357.2859,64.7156 358.0875,65.4609 Q358.8891,66.1922 360.3234,66.1922 Q361.1672,66.1922 361.7578,65.9672 Q362.1094,65.8266 362.4891,65.4328 Q362.7281,65.1938 362.8547,65.1234 Q362.9953,65.0531 363.1781,65.0531 Q363.4734,65.0531 363.6984,65.2922 Q363.9375,65.5172 363.9375,65.8266 Q363.9375,66.1359 363.6281,66.5016 Q363.1781,67.0219 362.4609,67.3172 Q361.4906,67.725 360.3234,67.725 Q358.9594,67.725 357.8766,67.1625 Q356.9906,66.7125 356.3719,65.7563 Q355.7531,64.7859 355.7531,63.6328 L355.7531,62.5922 Q355.7531,61.3969 356.3016,60.3703 Q356.8641,59.3297 357.8484,58.7813 Q358.8328,58.2188 359.9438,58.2188 Q360.6047,58.2188 361.1813,58.3734 Q361.7719,58.5141 362.2641,58.8375 Z " fill="#000000"/><text fill="#000000" font-family="sans-serif" font-size="12.6" lengthAdjust="spacing" textLength="169.2" x="378.225" y="67.7672">AssignTeamToTaskController</text><line style="stroke:#181818;stroke-width:0.45;" x1="191.7" x2="704.7" y1="76.95" y2="76.95"/><line style="stroke:#181818;stroke-width:0.45;" x1="191.7" x2="704.7" y1="84.15" y2="84.15"/><text fill="#000000" font-family="sans-serif" font-size="12.6" lengthAdjust="spacing" textLength="504" x="196.2" y="101.3467">+AssignTeamToTaskController(employeeRepository, taskRepository, notificationService)</text><text fill="#000000" font-family="sans-serif" font-size="12.6" lengthAdjust="spacing" textLength="177.3" x="196.2" y="118.1057">+assignTeam(employees, task)</text></g><!--class Repositories--><g id="elem_Repositories"><rect codeLine="19" fill="#F1F1F1" height="160.5129" id="Repositories" rx="2.25" ry="2.25" style="stroke:#181818;stroke-width:0.45;" width="187.2" x="799.2" y="6.3"/><ellipse cx="853.425" cy="20.7" fill="#ADD1B2" rx="9.9" ry="9.9" style="stroke:#181818;stroke-width:0.9;"/><path d="M855.9141,16.9875 Q856.0547,16.7906 856.2234,16.6922 Q856.3922,16.5938 856.5891,16.5938 Q856.9266,16.5938 857.1375,16.8328 Q857.3484,17.0578 857.3484,17.6063 L857.3484,18.9141 Q857.3484,19.4625 857.1375,19.7016 Q856.9266,19.9406 856.5891,19.9406 Q856.2797,19.9406 856.0969,19.7578 Q855.9141,19.5891 855.8156,19.125 Q855.7734,18.8016 855.6047,18.6328 Q855.3094,18.2953 854.7609,18.0984 Q854.2125,17.9016 853.65,17.9016 Q852.9609,17.9016 852.3844,18.1969 Q851.8219,18.4922 851.3719,19.1672 Q850.9359,19.8422 850.9359,20.7703 L850.9359,21.7547 Q850.9359,22.8656 851.7375,23.6109 Q852.5391,24.3422 853.9734,24.3422 Q854.8172,24.3422 855.4078,24.1172 Q855.7594,23.9766 856.1391,23.5828 Q856.3781,23.3438 856.5047,23.2734 Q856.6453,23.2031 856.8281,23.2031 Q857.1234,23.2031 857.3484,23.4422 Q857.5875,23.6672 857.5875,23.9766 Q857.5875,24.2859 857.2781,24.6516 Q856.8281,25.1719 856.1109,25.4672 Q855.1406,25.875 853.9734,25.875 Q852.6094,25.875 851.5266,25.3125 Q850.6406,24.8625 850.0219,23.9063 Q849.4031,22.9359 849.4031,21.7828 L849.4031,20.7422 Q849.4031,19.5469 849.9516,18.5203 Q850.5141,17.4797 851.4984,16.9313 Q852.4828,16.3688 853.5938,16.3688 Q854.2547,16.3688 854.8313,16.5234 Q855.4219,16.6641 855.9141,16.9875 Z " fill="#000000"/><text fill="#000000" font-family="sans-serif" font-size="12.6" lengthAdjust="spacing" textLength="71.1" x="871.875" y="25.9172">Repositories</text><line style="stroke:#181818;stroke-width:0.45;" x1="800.1" x2="985.5" y1="35.1" y2="35.1"/><line style="stroke:#181818;stroke-width:0.45;" x1="800.1" x2="985.5" y1="42.3" y2="42.3"/><text fill="#000000" font-family="sans-serif" font-size="12.6" lengthAdjust="spacing" textLength="84.6" x="804.6" y="59.4967">-Repositories()</text><text fill="#000000" font-family="sans-serif" font-size="12.6" lengthAdjust="spacing" textLength="163.8" x="804.6" y="76.2557">+getInstance() : Repositories</text><text fill="#000000" font-family="sans-serif" font-size="12.6" lengthAdjust="spacing" textLength="151.2" x="804.6" y="93.0146">+getEmployeeRepository()</text><text fill="#000000" font-family="sans-serif" font-size="12.6" lengthAdjust="spacing" textLength="123.3" x="804.6" y="109.7736">+getTaskRepository()</text><text fill="#000000" font-family="sans-serif" font-size="12.6" lengthAdjust="spacing" textLength="176.4" x="804.6" y="126.5326">+getAuthenticationRepository()</text><text fill="#000000" font-family="sans-serif" font-size="12.6" lengthAdjust="spacing" textLength="166.5" x="804.6" y="143.2916">+getTemMemberRepository()</text><text fill="#000000" font-family="sans-serif" font-size="12.6" lengthAdjust="spacing" textLength="127.8" x="804.6" y="160.0506">+getTeamRepository()</text></g><!--class AuthenticationRepository--><g id="elem_AuthenticationRepository"><rect codeLine="29" fill="#F1F1F1" height="59.959" id="AuthenticationRepository" rx="2.25" ry="2.25" style="stroke:#181818;stroke-width:0.45;" width="171" x="407.7" y="229.5"/><ellipse cx="421.2" cy="243.9" fill="#ADD1B2" rx="9.9" ry="9.9" style="stroke:#181818;stroke-width:0.9;"/><path d="M423.6891,240.1875 Q423.8297,239.9906 423.9984,239.8922 Q424.1672,239.7938 424.3641,239.7938 Q424.7016,239.7938 424.9125,240.0328 Q425.1234,240.2578 425.1234,240.8063 L425.1234,242.1141 Q425.1234,242.6625 424.9125,242.9016 Q424.7016,243.1406 424.3641,243.1406 Q424.0547,243.1406 423.8719,242.9578 Q423.6891,242.7891 423.5906,242.325 Q423.5484,242.0016 423.3797,241.8328 Q423.0844,241.4953 422.5359,241.2984 Q421.9875,241.1016 421.425,241.1016 Q420.7359,241.1016 420.1594,241.3969 Q419.5969,241.6922 419.1469,242.3672 Q418.7109,243.0422 418.7109,243.9703 L418.7109,244.9547 Q418.7109,246.0656 419.5125,246.8109 Q420.3141,247.5422 421.7484,247.5422 Q422.5922,247.5422 423.1828,247.3172 Q423.5344,247.1766 423.9141,246.7828 Q424.1531,246.5438 424.2797,246.4734 Q424.4203,246.4031 424.6031,246.4031 Q424.8984,246.4031 425.1234,246.6422 Q425.3625,246.8672 425.3625,247.1766 Q425.3625,247.4859 425.0531,247.8516 Q424.6031,248.3719 423.8859,248.6672 Q422.9156,249.075 421.7484,249.075 Q420.3844,249.075 419.3016,248.5125 Q418.4156,248.0625 417.7969,247.1063 Q417.1781,246.1359 417.1781,244.9828 L417.1781,243.9422 Q417.1781,242.7469 417.7266,241.7203 Q418.2891,240.6797 419.2734,240.1313 Q420.2578,239.5688 421.3688,239.5688 Q422.0297,239.5688 422.6063,239.7234 Q423.1969,239.8641 423.6891,240.1875 Z " fill="#000000"/><text fill="#000000" font-family="sans-serif" font-size="12.6" lengthAdjust="spacing" textLength="142.2" x="433.8" y="249.1172">AuthenticationRepository</text><line style="stroke:#181818;stroke-width:0.45;" x1="408.6" x2="577.8" y1="258.3" y2="258.3"/><line style="stroke:#181818;stroke-width:0.45;" x1="408.6" x2="577.8" y1="265.5" y2="265.5"/><text fill="#000000" font-family="sans-serif" font-size="12.6" lengthAdjust="spacing" textLength="148.5" x="413.1" y="282.6967">+getCurrentUserSession()</text></g><!--class UserSession--><g id="elem_UserSession"><rect codeLine="34" fill="#F1F1F1" height="76.718" id="UserSession" rx="2.25" ry="2.25" style="stroke:#181818;stroke-width:0.45;" width="140.4" x="675" y="221.4"/><ellipse cx="706.725" cy="235.8" fill="#ADD1B2" rx="9.9" ry="9.9" style="stroke:#181818;stroke-width:0.9;"/><path d="M709.2141,232.0875 Q709.3547,231.8906 709.5234,231.7922 Q709.6922,231.6938 709.8891,231.6938 Q710.2266,231.6938 710.4375,231.9328 Q710.6484,232.1578 710.6484,232.7063 L710.6484,234.0141 Q710.6484,234.5625 710.4375,234.8016 Q710.2266,235.0406 709.8891,235.0406 Q709.5797,235.0406 709.3969,234.8578 Q709.2141,234.6891 709.1156,234.225 Q709.0734,233.9016 708.9047,233.7328 Q708.6094,233.3953 708.0609,233.1984 Q707.5125,233.0016 706.95,233.0016 Q706.2609,233.0016 705.6844,233.2969 Q705.1219,233.5922 704.6719,234.2672 Q704.2359,234.9422 704.2359,235.8703 L704.2359,236.8547 Q704.2359,237.9656 705.0375,238.7109 Q705.8391,239.4422 707.2734,239.4422 Q708.1172,239.4422 708.7078,239.2172 Q709.0594,239.0766 709.4391,238.6828 Q709.6781,238.4438 709.8047,238.3734 Q709.9453,238.3031 710.1281,238.3031 Q710.4234,238.3031 710.6484,238.5422 Q710.8875,238.7672 710.8875,239.0766 Q710.8875,239.3859 710.5781,239.7516 Q710.1281,240.2719 709.4109,240.5672 Q708.4406,240.975 707.2734,240.975 Q705.9094,240.975 704.8266,240.4125 Q703.9406,239.9625 703.3219,239.0063 Q702.7031,238.0359 702.7031,236.8828 L702.7031,235.8422 Q702.7031,234.6469 703.2516,233.6203 Q703.8141,232.5797 704.7984,232.0313 Q705.7828,231.4688 706.8938,231.4688 Q707.5547,231.4688 708.1313,231.6234 Q708.7219,231.7641 709.2141,232.0875 Z " fill="#000000"/><text fill="#000000" font-family="sans-serif" font-size="12.6" lengthAdjust="spacing" textLength="71.1" x="723.375" y="241.0172">UserSession</text><line style="stroke:#181818;stroke-width:0.45;" x1="675.9" x2="814.5" y1="250.2" y2="250.2"/><line style="stroke:#181818;stroke-width:0.45;" x1="675.9" x2="814.5" y1="257.4" y2="257.4"/><text fill="#000000" font-family="sans-serif" font-size="12.6" lengthAdjust="spacing" textLength="129.6" x="680.4" y="274.5967">+isLoggedInWithRole()</text><text fill="#000000" font-family="sans-serif" font-size="12.6" lengthAdjust="spacing" textLength="70.2" x="680.4" y="291.3557">+getUserId()</text></g><!--class TeamRepository--><g id="elem_TeamRepository"><rect codeLine="39" fill="#F1F1F1" height="59.959" id="TeamRepository" rx="2.25" ry="2.25" style="stroke:#181818;stroke-width:0.45;" width="577.8" x="536.4" y="324.9"/><ellipse cx="774.675" cy="339.3" fill="#ADD1B2" rx="9.9" ry="9.9" style="stroke:#181818;stroke-width:0.9;"/><path d="M777.1641,335.5875 Q777.3047,335.3906 777.4734,335.2922 Q777.6422,335.1938 777.8391,335.1938 Q778.1766,335.1938 778.3875,335.4328 Q778.5984,335.6578 778.5984,336.2063 L778.5984,337.5141 Q778.5984,338.0625 778.3875,338.3016 Q778.1766,338.5406 777.8391,338.5406 Q777.5297,338.5406 777.3469,338.3578 Q777.1641,338.1891 777.0656,337.725 Q777.0234,337.4016 776.8547,337.2328 Q776.5594,336.8953 776.0109,336.6984 Q775.4625,336.5016 774.9,336.5016 Q774.2109,336.5016 773.6344,336.7969 Q773.0719,337.0922 772.6219,337.7672 Q772.1859,338.4422 772.1859,339.3703 L772.1859,340.3547 Q772.1859,341.4656 772.9875,342.2109 Q773.7891,342.9422 775.2234,342.9422 Q776.0672,342.9422 776.6578,342.7172 Q777.0094,342.5766 777.3891,342.1828 Q777.6281,341.9438 777.7547,341.8734 Q777.8953,341.8031 778.0781,341.8031 Q778.3734,341.8031 778.5984,342.0422 Q778.8375,342.2672 778.8375,342.5766 Q778.8375,342.8859 778.5281,343.2516 Q778.0781,343.7719 777.3609,344.0672 Q776.3906,344.475 775.2234,344.475 Q773.8594,344.475 772.7766,343.9125 Q771.8906,343.4625 771.2719,342.5063 Q770.6531,341.5359 770.6531,340.3828 L770.6531,339.3422 Q770.6531,338.1469 771.2016,337.1203 Q771.7641,336.0797 772.7484,335.5313 Q773.7328,334.9688 774.8438,334.9688 Q775.5047,334.9688 776.0813,335.1234 Q776.6719,335.2641 777.1641,335.5875 Z " fill="#000000"/><text fill="#000000" font-family="sans-serif" font-size="12.6" lengthAdjust="spacing" textLength="93.6" x="793.125" y="344.5172">TeamRepository</text><line style="stroke:#181818;stroke-width:0.45;" x1="537.3" x2="1113.3" y1="353.7" y2="353.7"/><line style="stroke:#181818;stroke-width:0.45;" x1="537.3" x2="1113.3" y1="360.9" y2="360.9"/><text fill="#000000" font-family="sans-serif" font-size="12.6" lengthAdjust="spacing" textLength="567" x="541.8" y="378.0967">+createTeam(minSize: int, maxSize: int, skills: List&lt;Skill&gt;, teamMembers: List&lt;TeamMember&gt;): Team</text></g><!--class Team--><g id="elem_Team"><rect codeLine="43" fill="#F1F1F1" height="126.9949" id="Team" rx="2.25" ry="2.25" style="stroke:#181818;stroke-width:0.45;" width="332.1" x="765.45" y="975.6"/><ellipse cx="911.475" cy="990" fill="#ADD1B2" rx="9.9" ry="9.9" style="stroke:#181818;stroke-width:0.9;"/><path d="M913.9641,986.2875 Q914.1047,986.0906 914.2734,985.9922 Q914.4422,985.8938 914.6391,985.8938 Q914.9766,985.8938 915.1875,986.1328 Q915.3984,986.3578 915.3984,986.9063 L915.3984,988.2141 Q915.3984,988.7625 915.1875,989.0016 Q914.9766,989.2406 914.6391,989.2406 Q914.3297,989.2406 914.1469,989.0578 Q913.9641,988.8891 913.8656,988.425 Q913.8234,988.1016 913.6547,987.9328 Q913.3594,987.5953 912.8109,987.3984 Q912.2625,987.2016 911.7,987.2016 Q911.0109,987.2016 910.4344,987.4969 Q909.8719,987.7922 909.4219,988.4672 Q908.9859,989.1422 908.9859,990.0703 L908.9859,991.0547 Q908.9859,992.1656 909.7875,992.9109 Q910.5891,993.6422 912.0234,993.6422 Q912.8672,993.6422 913.4578,993.4172 Q913.8094,993.2766 914.1891,992.8828 Q914.4281,992.6438 914.5547,992.5734 Q914.6953,992.5031 914.8781,992.5031 Q915.1734,992.5031 915.3984,992.7422 Q915.6375,992.9672 915.6375,993.2766 Q915.6375,993.5859 915.3281,993.9516 Q914.8781,994.4719 914.1609,994.7672 Q913.1906,995.175 912.0234,995.175 Q910.6594,995.175 909.5766,994.6125 Q908.6906,994.1625 908.0719,993.2063 Q907.4531,992.2359 907.4531,991.0828 L907.4531,990.0422 Q907.4531,988.8469 908.0016,987.8203 Q908.5641,986.7797 909.5484,986.2313 Q910.5328,985.6688 911.6438,985.6688 Q912.3047,985.6688 912.8813,985.8234 Q913.4719,985.9641 913.9641,986.2875 Z " fill="#000000"/><text fill="#000000" font-family="sans-serif" font-size="12.6" lengthAdjust="spacing" textLength="32.4" x="929.925" y="995.2172">Team</text><line style="stroke:#181818;stroke-width:0.45;" x1="766.35" x2="1096.65" y1="1004.4" y2="1004.4"/><text fill="#000000" font-family="sans-serif" font-size="12.6" lengthAdjust="spacing" textLength="68.4" x="770.85" y="1021.5967">-minSize: int</text><text fill="#000000" font-family="sans-serif" font-size="12.6" lengthAdjust="spacing" textLength="71.1" x="770.85" y="1038.3557">-maxSize: int</text><text fill="#000000" font-family="sans-serif" font-size="12.6" lengthAdjust="spacing" textLength="95.4" x="770.85" y="1055.1146">-skills: List&lt;Skill&gt;</text><text fill="#000000" font-family="sans-serif" font-size="12.6" lengthAdjust="spacing" textLength="204.3" x="770.85" y="1071.8736">-teamMembers: List&lt;TeamMember&gt;</text><line style="stroke:#181818;stroke-width:0.45;" x1="766.35" x2="1096.65" y1="1078.6359" y2="1078.6359"/><text fill="#000000" font-family="sans-serif" font-size="12.6" lengthAdjust="spacing" textLength="321.3" x="770.85" y="1095.8326">+assignTeamMember(teamMember: TeamMember): void</text></g><!--class TaskRepository--><g id="elem_TaskRepository"><rect codeLine="74" fill="#F1F1F1" height="76.718" id="TaskRepository" rx="2.25" ry="2.25" style="stroke:#181818;stroke-width:0.45;" width="150.3" x="1012.95" y="221.4"/><ellipse cx="1041.03" cy="235.8" fill="#ADD1B2" rx="9.9" ry="9.9" style="stroke:#181818;stroke-width:0.9;"/><path d="M1043.5191,232.0875 Q1043.6597,231.8906 1043.8284,231.7922 Q1043.9972,231.6938 1044.1941,231.6938 Q1044.5316,231.6938 1044.7425,231.9328 Q1044.9534,232.1578 1044.9534,232.7063 L1044.9534,234.0141 Q1044.9534,234.5625 1044.7425,234.8016 Q1044.5316,235.0406 1044.1941,235.0406 Q1043.8847,235.0406 1043.7019,234.8578 Q1043.5191,234.6891 1043.4206,234.225 Q1043.3784,233.9016 1043.2097,233.7328 Q1042.9144,233.3953 1042.3659,233.1984 Q1041.8175,233.0016 1041.255,233.0016 Q1040.5659,233.0016 1039.9894,233.2969 Q1039.4269,233.5922 1038.9769,234.2672 Q1038.5409,234.9422 1038.5409,235.8703 L1038.5409,236.8547 Q1038.5409,237.9656 1039.3425,238.7109 Q1040.1441,239.4422 1041.5784,239.4422 Q1042.4222,239.4422 1043.0128,239.2172 Q1043.3644,239.0766 1043.7441,238.6828 Q1043.9831,238.4438 1044.1097,238.3734 Q1044.2503,238.3031 1044.4331,238.3031 Q1044.7284,238.3031 1044.9534,238.5422 Q1045.1925,238.7672 1045.1925,239.0766 Q1045.1925,239.3859 1044.8831,239.7516 Q1044.4331,240.2719 1043.7159,240.5672 Q1042.7456,240.975 1041.5784,240.975 Q1040.2144,240.975 1039.1316,240.4125 Q1038.2456,239.9625 1037.6269,239.0063 Q1037.0081,238.0359 1037.0081,236.8828 L1037.0081,235.8422 Q1037.0081,234.6469 1037.5566,233.6203 Q1038.1191,232.5797 1039.1034,232.0313 Q1040.0878,231.4688 1041.1988,231.4688 Q1041.8597,231.4688 1042.4363,231.6234 Q1043.0269,231.7641 1043.5191,232.0875 Z " fill="#000000"/><text fill="#000000" font-family="sans-serif" font-size="12.6" lengthAdjust="spacing" textLength="89.1" x="1056.87" y="241.0172">TaskRepository</text><line style="stroke:#181818;stroke-width:0.45;" x1="1013.85" x2="1162.35" y1="250.2" y2="250.2"/><line style="stroke:#181818;stroke-width:0.45;" x1="1013.85" x2="1162.35" y1="257.4" y2="257.4"/><text fill="#000000" font-family="sans-serif" font-size="12.6" lengthAdjust="spacing" textLength="95.4" x="1018.35" y="274.5967">+getTask(taskId)</text><text fill="#000000" font-family="sans-serif" font-size="12.6" lengthAdjust="spacing" textLength="139.5" x="1018.35" y="291.3557">+TaskExistsByTitle(Title)</text></g><!--class Tasks--><g id="elem_Tasks"><rect codeLine="78" fill="#F1F1F1" height="76.718" id="Tasks" rx="2.25" ry="2.25" style="stroke:#181818;stroke-width:0.45;" width="148.5" x="1056.15" y="412.2"/><ellipse cx="1109.475" cy="426.6" fill="#ADD1B2" rx="9.9" ry="9.9" style="stroke:#181818;stroke-width:0.9;"/><path d="M1111.9641,422.8875 Q1112.1047,422.6906 1112.2734,422.5922 Q1112.4422,422.4938 1112.6391,422.4938 Q1112.9766,422.4938 1113.1875,422.7328 Q1113.3984,422.9578 1113.3984,423.5063 L1113.3984,424.8141 Q1113.3984,425.3625 1113.1875,425.6016 Q1112.9766,425.8406 1112.6391,425.8406 Q1112.3297,425.8406 1112.1469,425.6578 Q1111.9641,425.4891 1111.8656,425.025 Q1111.8234,424.7016 1111.6547,424.5328 Q1111.3594,424.1953 1110.8109,423.9984 Q1110.2625,423.8016 1109.7,423.8016 Q1109.0109,423.8016 1108.4344,424.0969 Q1107.8719,424.3922 1107.4219,425.0672 Q1106.9859,425.7422 1106.9859,426.6703 L1106.9859,427.6547 Q1106.9859,428.7656 1107.7875,429.5109 Q1108.5891,430.2422 1110.0234,430.2422 Q1110.8672,430.2422 1111.4578,430.0172 Q1111.8094,429.8766 1112.1891,429.4828 Q1112.4281,429.2438 1112.5547,429.1734 Q1112.6953,429.1031 1112.8781,429.1031 Q1113.1734,429.1031 1113.3984,429.3422 Q1113.6375,429.5672 1113.6375,429.8766 Q1113.6375,430.1859 1113.3281,430.5516 Q1112.8781,431.0719 1112.1609,431.3672 Q1111.1906,431.775 1110.0234,431.775 Q1108.6594,431.775 1107.5766,431.2125 Q1106.6906,430.7625 1106.0719,429.8063 Q1105.4531,428.8359 1105.4531,427.6828 L1105.4531,426.6422 Q1105.4531,425.4469 1106.0016,424.4203 Q1106.5641,423.3797 1107.5484,422.8313 Q1108.5328,422.2688 1109.6438,422.2688 Q1110.3047,422.2688 1110.8813,422.4234 Q1111.4719,422.5641 1111.9641,422.8875 Z " fill="#000000"/><text fill="#000000" font-family="sans-serif" font-size="12.6" lengthAdjust="spacing" textLength="34.2" x="1127.925" y="431.8172">Tasks</text><line style="stroke:#181818;stroke-width:0.45;" x1="1057.05" x2="1203.75" y1="441" y2="441"/><text fill="#000000" font-family="sans-serif" font-size="12.6" lengthAdjust="spacing" textLength="103.5" x="1061.55" y="458.1967">-tasks: List&lt;Task&gt;</text><line style="stroke:#181818;stroke-width:0.45;" x1="1057.05" x2="1203.75" y1="464.959" y2="464.959"/><text fill="#000000" font-family="sans-serif" font-size="12.6" lengthAdjust="spacing" textLength="137.7" x="1061.55" y="482.1557">+getTasks(): List&lt;Task&gt;</text></g><!--class Task--><g id="elem_Task"><rect codeLine="83" fill="#F1F1F1" height="344.8617" id="Task" rx="2.25" ry="2.25" style="stroke:#181818;stroke-width:0.45;" width="406.8" x="909" y="559.8"/><ellipse cx="1094.625" cy="574.2" fill="#ADD1B2" rx="9.9" ry="9.9" style="stroke:#181818;stroke-width:0.9;"/><path d="M1097.1141,570.4875 Q1097.2547,570.2906 1097.4234,570.1922 Q1097.5922,570.0938 1097.7891,570.0938 Q1098.1266,570.0938 1098.3375,570.3328 Q1098.5484,570.5578 1098.5484,571.1063 L1098.5484,572.4141 Q1098.5484,572.9625 1098.3375,573.2016 Q1098.1266,573.4406 1097.7891,573.4406 Q1097.4797,573.4406 1097.2969,573.2578 Q1097.1141,573.0891 1097.0156,572.625 Q1096.9734,572.3016 1096.8047,572.1328 Q1096.5094,571.7953 1095.9609,571.5984 Q1095.4125,571.4016 1094.85,571.4016 Q1094.1609,571.4016 1093.5844,571.6969 Q1093.0219,571.9922 1092.5719,572.6672 Q1092.1359,573.3422 1092.1359,574.2703 L1092.1359,575.2547 Q1092.1359,576.3656 1092.9375,577.1109 Q1093.7391,577.8422 1095.1734,577.8422 Q1096.0172,577.8422 1096.6078,577.6172 Q1096.9594,577.4766 1097.3391,577.0828 Q1097.5781,576.8438 1097.7047,576.7734 Q1097.8453,576.7031 1098.0281,576.7031 Q1098.3234,576.7031 1098.5484,576.9422 Q1098.7875,577.1672 1098.7875,577.4766 Q1098.7875,577.7859 1098.4781,578.1516 Q1098.0281,578.6719 1097.3109,578.9672 Q1096.3406,579.375 1095.1734,579.375 Q1093.8094,579.375 1092.7266,578.8125 Q1091.8406,578.3625 1091.2219,577.4063 Q1090.6031,576.4359 1090.6031,575.2828 L1090.6031,574.2422 Q1090.6031,573.0469 1091.1516,572.0203 Q1091.7141,570.9797 1092.6984,570.4313 Q1093.6828,569.8688 1094.7938,569.8688 Q1095.4547,569.8688 1096.0313,570.0234 Q1096.6219,570.1641 1097.1141,570.4875 Z " fill="#000000"/><text fill="#000000" font-family="sans-serif" font-size="12.6" lengthAdjust="spacing" textLength="27.9" x="1113.075" y="579.4172">Task</text><line style="stroke:#181818;stroke-width:0.45;" x1="909.9" x2="1314.9" y1="588.6" y2="588.6"/><text fill="#000000" font-family="sans-serif" font-size="12.6" lengthAdjust="spacing" textLength="67.5" x="914.4" y="605.7967">+title: String</text><text fill="#000000" font-family="sans-serif" font-size="12.6" lengthAdjust="spacing" textLength="155.7" x="914.4" y="622.5557">+greenSpace: GreenSpace</text><text fill="#000000" font-family="sans-serif" font-size="12.6" lengthAdjust="spacing" textLength="109.8" x="914.4" y="639.3146">+description: String</text><text fill="#000000" font-family="sans-serif" font-size="12.6" lengthAdjust="spacing" textLength="84.6" x="914.4" y="656.0736">+status: Status</text><text fill="#000000" font-family="sans-serif" font-size="12.6" lengthAdjust="spacing" textLength="107.1" x="914.4" y="672.8326">+urgency: Urgency</text><text fill="#000000" font-family="sans-serif" font-size="12.6" lengthAdjust="spacing" textLength="54.9" x="914.4" y="689.5916">+days: int</text><text fill="#000000" font-family="sans-serif" font-size="12.6" lengthAdjust="spacing" textLength="60.3" x="914.4" y="706.3506">+hours: int</text><line style="stroke:#181818;stroke-width:0.45;" x1="909.9" x2="1314.9" y1="713.1129" y2="713.1129"/><text fill="#000000" font-family="sans-serif" font-size="12.6" lengthAdjust="spacing" textLength="99" x="914.4" y="730.3096">+getTitle(): String</text><text fill="#000000" font-family="sans-serif" font-size="12.6" lengthAdjust="spacing" textLength="185.4" x="914.4" y="747.0686">+getGreenSpace(): GreenSpace</text><text fill="#000000" font-family="sans-serif" font-size="12.6" lengthAdjust="spacing" textLength="138.6" x="914.4" y="763.8275">+getDescription(): String</text><text fill="#000000" font-family="sans-serif" font-size="12.6" lengthAdjust="spacing" textLength="113.4" x="914.4" y="780.5865">+getStatus(): Status</text><text fill="#000000" font-family="sans-serif" font-size="12.6" lengthAdjust="spacing" textLength="112.5" x="914.4" y="797.3455">+setStatus(): Status</text><text fill="#000000" font-family="sans-serif" font-size="12.6" lengthAdjust="spacing" textLength="135" x="914.4" y="814.1045">+getUrgency(): Urgency</text><text fill="#000000" font-family="sans-serif" font-size="12.6" lengthAdjust="spacing" textLength="83.7" x="914.4" y="830.8635">+getDays(): int</text><text fill="#000000" font-family="sans-serif" font-size="12.6" lengthAdjust="spacing" textLength="88.2" x="914.4" y="847.6225">+getHours(): int</text><text fill="#000000" font-family="sans-serif" font-size="12.6" lengthAdjust="spacing" textLength="100.8" x="914.4" y="864.3814">+toString(): String</text><text fill="#000000" font-family="sans-serif" font-size="12.6" lengthAdjust="spacing" textLength="396" x="914.4" y="881.1404">+findTasksByDateRange(startDate: Date, endDate: Date): List&lt;Task&gt;</text><text fill="#000000" font-family="sans-serif" font-size="12.6" lengthAdjust="spacing" textLength="194.4" x="914.4" y="897.8994">+compareTo(otherTask: Task): int</text></g><!--class NotificationService--><g id="elem_NotificationService"><rect codeLine="104" fill="#F1F1F1" height="59.959" id="NotificationService" rx="2.25" ry="2.25" style="stroke:#181818;stroke-width:0.45;" width="247.5" x="447.75" y="1008.9"/><ellipse cx="515.475" cy="1023.3" fill="#ADD1B2" rx="9.9" ry="9.9" style="stroke:#181818;stroke-width:0.9;"/><path d="M517.9641,1019.5875 Q518.1047,1019.3906 518.2734,1019.2922 Q518.4422,1019.1938 518.6391,1019.1938 Q518.9766,1019.1938 519.1875,1019.4328 Q519.3984,1019.6578 519.3984,1020.2063 L519.3984,1021.5141 Q519.3984,1022.0625 519.1875,1022.3016 Q518.9766,1022.5406 518.6391,1022.5406 Q518.3297,1022.5406 518.1469,1022.3578 Q517.9641,1022.1891 517.8656,1021.725 Q517.8234,1021.4016 517.6547,1021.2328 Q517.3594,1020.8953 516.8109,1020.6984 Q516.2625,1020.5016 515.7,1020.5016 Q515.0109,1020.5016 514.4344,1020.7969 Q513.8719,1021.0922 513.4219,1021.7672 Q512.9859,1022.4422 512.9859,1023.3703 L512.9859,1024.3547 Q512.9859,1025.4656 513.7875,1026.2109 Q514.5891,1026.9422 516.0234,1026.9422 Q516.8672,1026.9422 517.4578,1026.7172 Q517.8094,1026.5766 518.1891,1026.1828 Q518.4281,1025.9438 518.5547,1025.8734 Q518.6953,1025.8031 518.8781,1025.8031 Q519.1734,1025.8031 519.3984,1026.0422 Q519.6375,1026.2672 519.6375,1026.5766 Q519.6375,1026.8859 519.3281,1027.2516 Q518.8781,1027.7719 518.1609,1028.0672 Q517.1906,1028.475 516.0234,1028.475 Q514.6594,1028.475 513.5766,1027.9125 Q512.6906,1027.4625 512.0719,1026.5063 Q511.4531,1025.5359 511.4531,1024.3828 L511.4531,1023.3422 Q511.4531,1022.1469 512.0016,1021.1203 Q512.5641,1020.0797 513.5484,1019.5313 Q514.5328,1018.9688 515.6438,1018.9688 Q516.3047,1018.9688 516.8813,1019.1234 Q517.4719,1019.2641 517.9641,1019.5875 Z " fill="#000000"/><text fill="#000000" font-family="sans-serif" font-size="12.6" lengthAdjust="spacing" textLength="104.4" x="533.925" y="1028.5172">NotificationService</text><line style="stroke:#181818;stroke-width:0.45;" x1="448.65" x2="694.35" y1="1037.7" y2="1037.7"/><line style="stroke:#181818;stroke-width:0.45;" x1="448.65" x2="694.35" y1="1044.9" y2="1044.9"/><text fill="#000000" font-family="sans-serif" font-size="12.6" lengthAdjust="spacing" textLength="236.7" x="453.15" y="1062.0967">+notifyTeamAssignment(employees, task)</text></g><!--link Repositories to Repositories--><g id="link_Repositories_Repositories"><path codeLine="116" d="M986.634,67.374 C1004.922,69.579 1017.9,75.924 1017.9,86.4 C1017.9,96.876 1010.2832,102.5746 991.9952,104.7796 " fill="none" id="Repositories-to-Repositories" style="stroke:#181818;stroke-width:0.9;"/><polygon fill="#181818" points="986.634,105.426,995.1067,108.0305,991.1016,104.8873,994.2448,100.8823,986.634,105.426" style="stroke:#181818;stroke-width:0.9;"/><text fill="#000000" font-family="sans-serif" font-size="11.7" lengthAdjust="spacing" textLength="44.1" x="1023.3" y="91.3755">instance</text></g><!--link AssignTeamToTaskUI to AssignTeamToTaskController--><g id="link_AssignTeamToTaskUI_AssignTeamToTaskController"><path codeLine="117" d="M159.588,86.4 C171.369,86.4 176.904,86.4 185.04,86.4 " fill="none" id="AssignTeamToTaskUI-to-AssignTeamToTaskController" style="stroke:#181818;stroke-width:0.9;stroke-dasharray:7.0,7.0;"/><polygon fill="#181818" points="190.44,86.4,182.34,82.8,185.94,86.4,182.34,90,190.44,86.4" style="stroke:#181818;stroke-width:0.9;"/></g><!--link AssignTeamToTaskController to Repositories--><g id="link_AssignTeamToTaskController_Repositories"><path codeLine="118" d="M705.861,86.4 C739.035,86.4 765.738,86.4 793.701,86.4 " fill="none" id="AssignTeamToTaskController-to-Repositories" style="stroke:#181818;stroke-width:0.9;stroke-dasharray:7.0,7.0;"/><polygon fill="#181818" points="799.101,86.4,791.001,82.8,794.601,86.4,791.001,90,799.101,86.4" style="stroke:#181818;stroke-width:0.9;"/><text fill="#000000" font-family="sans-serif" font-size="11.7" lengthAdjust="spacing" textLength="60.3" x="722.25" y="80.1255">repositories</text></g><!--link Repositories to TeamRepository--><g id="link_Repositories_TeamRepository"><path codeLine="119" d="M872.73,166.644 C859.248,219.951 843.581,281.8921 834.023,319.6561 " fill="none" id="Repositories-to-TeamRepository" style="stroke:#181818;stroke-width:0.9;"/><polygon fill="#181818" points="832.698,324.891,838.1754,317.9219,833.8021,320.5286,831.1955,316.1553,832.698,324.891" style="stroke:#181818;stroke-width:0.9;"/><text fill="#000000" font-family="sans-serif" font-size="11.7" lengthAdjust="spacing" textLength="6.3" x="827.2343" y="314.8322">1</text></g><!--link TeamRepository to Team--><g id="link_TeamRepository_Team"><path codeLine="120" d="M828.927,385.443 C842.949,499.383 892.8,904.5 892.8,904.5 C892.8,904.5 901.7476,935.3849 911.7826,970.0529 " fill="none" id="TeamRepository-to-Team" style="stroke:#181818;stroke-width:0.9;"/><polygon fill="#181818" points="913.284,975.24,914.4899,966.4584,912.0328,970.9174,907.5738,968.4604,913.284,975.24" style="stroke:#181818;stroke-width:0.9;"/><text fill="#000000" font-family="sans-serif" font-size="11.7" lengthAdjust="spacing" textLength="56.7" x="847.8" y="529.2255">employees</text><text fill="#000000" font-family="sans-serif" font-size="11.7" lengthAdjust="spacing" textLength="4.5" x="906.7694" y="965.5394">*</text></g><!--link AuthenticationRepository to UserSession--><g id="link_AuthenticationRepository_UserSession"><path codeLine="121" d="M578.871,259.65 C610.119,259.65 639.666,259.65 669.429,259.65 " fill="none" id="AuthenticationRepository-to-UserSession" style="stroke:#181818;stroke-width:0.9;"/><polygon fill="#181818" points="674.829,259.65,666.729,256.05,670.329,259.65,666.729,263.25,674.829,259.65" style="stroke:#181818;stroke-width:0.9;"/><text fill="#000000" font-family="sans-serif" font-size="11.7" lengthAdjust="spacing" textLength="63" x="595.35" y="253.3755">usersession</text><text fill="#000000" font-family="sans-serif" font-size="11.7" lengthAdjust="spacing" textLength="6.3" x="661.5215" y="256.2484">1</text></g><!--link Repositories to AuthenticationRepository--><g id="link_Repositories_AuthenticationRepository"><path codeLine="122" d="M799.056,130.491 C758.826,149.022 720.9,166.5 720.9,166.5 C720.9,166.5 637.2367,200.3909 570.5647,227.4089 " fill="none" id="Repositories-to-AuthenticationRepository" style="stroke:#181818;stroke-width:0.9;"/><polygon fill="#181818" points="565.56,229.437,574.4191,229.7313,569.7306,227.7469,571.715,223.0584,565.56,229.437" style="stroke:#181818;stroke-width:0.9;"/><text fill="#000000" font-family="sans-serif" font-size="11.7" lengthAdjust="spacing" textLength="6.3" x="572.8857" y="219.3676">1</text></g><!--link Repositories to TaskRepository--><g id="link_Repositories_TaskRepository"><path codeLine="123" d="M983.016,166.5 C1004.805,185.625 1023.0307,201.6286 1041.4447,217.7926 " fill="none" id="Repositories-to-TaskRepository" style="stroke:#181818;stroke-width:0.9;"/><polygon fill="#181818" points="1045.503,221.355,1041.7905,213.3059,1042.1211,218.3864,1037.0407,218.7169,1045.503,221.355" style="stroke:#181818;stroke-width:0.9;"/><text fill="#000000" font-family="sans-serif" font-size="11.7" lengthAdjust="spacing" textLength="6.3" x="1031.9121" y="211.3615">1</text></g><!--link Tasks to Task--><g id="link_Tasks_Task"><path codeLine="124" d="M1127.988,488.808 C1126.755,508.095 1125.4916,527.7532 1123.7726,554.4022 " fill="none" id="Tasks-to-Task" style="stroke:#181818;stroke-width:0.9;"/><polygon fill="#181818" points="1123.425,559.791,1127.5389,551.9395,1123.7147,555.3003,1120.3539,551.4761,1123.425,559.791" style="stroke:#181818;stroke-width:0.9;"/><text fill="#000000" font-family="sans-serif" font-size="11.7" lengthAdjust="spacing" textLength="28.8" x="1127.7" y="529.2255">tasks</text><text fill="#000000" font-family="sans-serif" font-size="11.7" lengthAdjust="spacing" textLength="4.5" x="1119.2952" y="549.5245">*</text></g><!--link TaskRepository to Tasks--><g id="link_TaskRepository_Tasks"><path codeLine="125" d="M1103.805,297.981 C1109.745,312.138 1115.1,324.9 1115.1,324.9 C1115.1,324.9 1120.6429,370.0753 1125.1519,406.7953 " fill="none" id="TaskRepository-to-Tasks" style="stroke:#181818;stroke-width:0.9;"/><polygon fill="#181818" points="1125.81,412.155,1128.3959,403.6766,1125.2615,407.6885,1121.2496,404.5541,1125.81,412.155" style="stroke:#181818;stroke-width:0.9;"/></g><!--reverse link Task to Team--><g id="link_Task_Team"><path codeLine="126" d="M1007.8299,909.4155 C992.8899,934.6245 981.117,954.468 968.679,975.447 " fill="none" id="Task-backto-Team" style="stroke:#181818;stroke-width:0.9;"/><polygon fill="#181818" points="1010.583,904.77,1003.3564,909.9028,1008.2887,908.6412,1009.5503,913.5736,1010.583,904.77" style="stroke:#181818;stroke-width:0.9;"/><text fill="#000000" font-family="sans-serif" font-size="11.7" lengthAdjust="spacing" textLength="40.5" x="991.8" y="945.0255">assigns</text><text fill="#000000" font-family="sans-serif" font-size="11.7" lengthAdjust="spacing" textLength="6.3" x="1000.1827" y="924.4392">1</text><text fill="#000000" font-family="sans-serif" font-size="11.7" lengthAdjust="spacing" textLength="6.3" x="965.8882" y="965.4331">1</text></g><!--link AssignTeamToTaskController to AuthenticationRepository--><g id="link_AssignTeamToTaskController_AuthenticationRepository"><path codeLine="127" d="M458.073,124.929 C466.326,156.366 476.5662,195.3596 484.1352,224.2226 " fill="none" id="AssignTeamToTaskController-to-AuthenticationRepository" style="stroke:#181818;stroke-width:0.9;stroke-dasharray:7.0,7.0;"/><polygon fill="#181818" points="485.505,229.446,486.9326,220.6977,484.3635,225.0932,479.9681,222.5241,485.505,229.446" style="stroke:#181818;stroke-width:0.9;"/></g><!--link NotificationService to Team--><g id="link_NotificationService_Team"><path codeLine="128" d="M695.394,1039.05 C717.966,1039.05 736.452,1039.05 760.014,1039.05 " fill="none" id="NotificationService-to-Team" style="stroke:#181818;stroke-width:0.9;stroke-dasharray:7.0,7.0;"/><polygon fill="#181818" points="765.414,1039.05,757.314,1035.45,760.914,1039.05,757.314,1042.65,765.414,1039.05" style="stroke:#181818;stroke-width:0.9;"/><text fill="#000000" font-family="sans-serif" font-size="11.7" lengthAdjust="spacing" textLength="36.9" x="711.9" y="1032.7755">notifies</text></g><!--SRC=[ZLPDRziu4BtpLn2zMDhOnVOg506IDcWDT5iWTj0p8qra8X9fa5HQjUX_to4fKQHaPTS7MPoFnyUPuOms-fcBCrEifQqKiZmfsG8rgWCoQSwiV6Or74pV05LG6YRg9ZRG9rR97rpKz8arEjOqN83fpq3FikdjWcmkAAKoaaHUPSEqlZ56ySVEmBwKui1_0VsRa4q3JuOQIHMlJuPMtDBXKX3YVEYDrhmMHs3jKHwPVdxOqz_apvhsWnH6oQO1XLOKVrUlc6JGdXlP0zp3MMfkfEgtrA19l1RIy2TUCilf0Eg5bv0Fo2mW1oJj0VA9OS3Ye0TEkqIOZN0rcBtGc8eIifmMYT5aShVW70CS4_QnvgOp9n1cECcADxJ_GFi8QatDsaGpfM45F2G1lJzqIg7DWmPr08oS51vXW8ZamOlhBxAkeTgBxzoSxcK3CHthiQzY6Yd105CgO0PSdbhk2g-WN9WjRTdFQ8NLsZIwe5-uDkyFTd6DsKGl7vDHSmoIwxnmMwO4GfBZlKPHjE4Wkh3he7brwqK9UdasENbk_Xs9laXUMQ8RptHPHiXxiwWoVTj_KpKJ_9VBR2QZHKus4rvijO8PczpsDdjtBUCDtXryheAD43jwmEw13Kcm5cQY5sQ-TlQSC_dv9CNSrkqsocwgIc7DOI_3UzSCgr7vmXfUOU6uf6GkJ_bud2Gebj5s8h6bF-3nm0tA786jttERxfAFsmoLVDileZ7KL7AbunjbDPbjD_iglWHB-oihk_k99OJvF7A3zyWzPrw-F-qiOgWuVBUrTZLiXzqgqIJ-WPknuCKGyP6l0X0773oe-1JU1sK5kbJyRACvSyE8cKvReVqVX9sgGPHzGH_youZ2UZrThIjwafrA1FOGxlJvd1oOYPFLBXYYnSU9v2K0pz1h8gvwLMCJx_bRLNeKknsUnYeI-f_jaLAfaPx9WjCJ5vNBsMt_4Slu7cSyP1XFPUooeFQ9jIcgQPdFqkwwfsnnXiDHPXARlBAgmgLxO15AuEjoKeQAS5Eqjmt9Z-CM9y75eJbhJ__dzaStsePRL36Hp5ybGf8vlBjEvx8zYP-yvCBtnjlhLpuYo2kV86yNswXufgUKaDERTszcCupCHfgp-ijR8Lo885cTm0DiF5uBsk5A-zLb5cjmAvoJbaDyBmbKRMSeN8OrcJKdQtCC2eVrVhSBSK0tF-3qVqHvbUwbcaJx0Tn_ss7qoBy0]--></g></svg>