<?xml version="1.0" encoding="us-ascii" standalone="no"?><svg xmlns="http://www.w3.org/2000/svg" xmlns:xlink="http://www.w3.org/1999/xlink" contentStyleType="text/css" height="488px" preserveAspectRatio="none" style="width:1133px;height:488px;background:#FFFFFF;" version="1.1" viewBox="0 0 1133 488" width="1133px" zoomAndPan="magnify"><defs/><g><!--class CreateVehicleUI--><g id="elem_CreateVehicleUI"><rect codeLine="11" fill="#F1F1F1" height="48" id="CreateVehicleUI" rx="2.5" ry="2.5" style="stroke:#181818;stroke-width:0.5;" width="133" x="7" y="246"/><ellipse cx="22" cy="262" fill="#ADD1B2" rx="11" ry="11" style="stroke:#181818;stroke-width:1.0;"/><path d="M24.7656,257.875 Q24.9219,257.6563 25.1094,257.5469 Q25.2969,257.4375 25.5156,257.4375 Q25.8906,257.4375 26.125,257.7031 Q26.3594,257.9531 26.3594,258.5625 L26.3594,260.0156 Q26.3594,260.625 26.125,260.8906 Q25.8906,261.1563 25.5156,261.1563 Q25.1719,261.1563 24.9688,260.9531 Q24.7656,260.7656 24.6563,260.25 Q24.6094,259.8906 24.4219,259.7031 Q24.0938,259.3281 23.4844,259.1094 Q22.875,258.8906 22.25,258.8906 Q21.4844,258.8906 20.8438,259.2188 Q20.2188,259.5469 19.7188,260.2969 Q19.2344,261.0469 19.2344,262.0781 L19.2344,263.1719 Q19.2344,264.4063 20.125,265.2344 Q21.0156,266.0469 22.6094,266.0469 Q23.5469,266.0469 24.2031,265.7969 Q24.5938,265.6406 25.0156,265.2031 Q25.2813,264.9375 25.4219,264.8594 Q25.5781,264.7813 25.7813,264.7813 Q26.1094,264.7813 26.3594,265.0469 Q26.625,265.2969 26.625,265.6406 Q26.625,265.9844 26.2813,266.3906 Q25.7813,266.9688 24.9844,267.2969 Q23.9063,267.75 22.6094,267.75 Q21.0938,267.75 19.8906,267.125 Q18.9063,266.625 18.2188,265.5625 Q17.5313,264.4844 17.5313,263.2031 L17.5313,262.0469 Q17.5313,260.7188 18.1406,259.5781 Q18.7656,258.4219 19.8594,257.8125 Q20.9531,257.1875 22.1875,257.1875 Q22.9219,257.1875 23.5625,257.3594 Q24.2188,257.5156 24.7656,257.875 Z " fill="#000000"/><text fill="#000000" font-family="sans-serif" font-size="14" lengthAdjust="spacing" textLength="101" x="36" y="267.7969">CreateVehicleUI</text><line style="stroke:#181818;stroke-width:0.5;" x1="8" x2="139" y1="278" y2="278"/><line style="stroke:#181818;stroke-width:0.5;" x1="8" x2="139" y1="286" y2="286"/></g><!--class Vehicle--><g id="elem_Vehicle"><rect codeLine="21" fill="#F1F1F1" height="271.4531" id="Vehicle" rx="2.5" ry="2.5" style="stroke:#181818;stroke-width:0.5;" width="200" x="926" y="210.5"/><ellipse cx="998.75" cy="226.5" fill="#ADD1B2" rx="11" ry="11" style="stroke:#181818;stroke-width:1.0;"/><path d="M1001.5156,222.375 Q1001.6719,222.1563 1001.8594,222.0469 Q1002.0469,221.9375 1002.2656,221.9375 Q1002.6406,221.9375 1002.875,222.2031 Q1003.1094,222.4531 1003.1094,223.0625 L1003.1094,224.5156 Q1003.1094,225.125 1002.875,225.3906 Q1002.6406,225.6563 1002.2656,225.6563 Q1001.9219,225.6563 1001.7188,225.4531 Q1001.5156,225.2656 1001.4063,224.75 Q1001.3594,224.3906 1001.1719,224.2031 Q1000.8438,223.8281 1000.2344,223.6094 Q999.625,223.3906 999,223.3906 Q998.2344,223.3906 997.5938,223.7188 Q996.9688,224.0469 996.4688,224.7969 Q995.9844,225.5469 995.9844,226.5781 L995.9844,227.6719 Q995.9844,228.9063 996.875,229.7344 Q997.7656,230.5469 999.3594,230.5469 Q1000.2969,230.5469 1000.9531,230.2969 Q1001.3438,230.1406 1001.7656,229.7031 Q1002.0313,229.4375 1002.1719,229.3594 Q1002.3281,229.2813 1002.5313,229.2813 Q1002.8594,229.2813 1003.1094,229.5469 Q1003.375,229.7969 1003.375,230.1406 Q1003.375,230.4844 1003.0313,230.8906 Q1002.5313,231.4688 1001.7344,231.7969 Q1000.6563,232.25 999.3594,232.25 Q997.8438,232.25 996.6406,231.625 Q995.6563,231.125 994.9688,230.0625 Q994.2813,228.9844 994.2813,227.7031 L994.2813,226.5469 Q994.2813,225.2188 994.8906,224.0781 Q995.5156,222.9219 996.6094,222.3125 Q997.7031,221.6875 998.9375,221.6875 Q999.6719,221.6875 1000.3125,221.8594 Q1000.9688,222.0156 1001.5156,222.375 Z " fill="#000000"/><text fill="#000000" font-family="sans-serif" font-size="14" lengthAdjust="spacing" textLength="46" x="1019.25" y="232.2969">Vehicle</text><line style="stroke:#181818;stroke-width:0.5;" x1="927" x2="1125" y1="242.5" y2="242.5"/><text fill="#000000" font-family="sans-serif" font-size="14" lengthAdjust="spacing" textLength="94" x="932" y="261.6074">-plateID: String</text><text fill="#000000" font-family="sans-serif" font-size="14" lengthAdjust="spacing" textLength="87" x="932" y="280.2285">-brand: String</text><text fill="#000000" font-family="sans-serif" font-size="14" lengthAdjust="spacing" textLength="88" x="932" y="298.8496">-model: String</text><text fill="#000000" font-family="sans-serif" font-size="14" lengthAdjust="spacing" textLength="94" x="932" y="317.4707">-plateID: String</text><text fill="#000000" font-family="sans-serif" font-size="14" lengthAdjust="spacing" textLength="77" x="932" y="336.0918">-type: String</text><text fill="#000000" font-family="sans-serif" font-size="14" lengthAdjust="spacing" textLength="53" x="932" y="354.7129">-tare: int</text><text fill="#000000" font-family="sans-serif" font-size="14" lengthAdjust="spacing" textLength="107" x="932" y="373.334">-grossWeight: int</text><text fill="#000000" font-family="sans-serif" font-size="14" lengthAdjust="spacing" textLength="76" x="932" y="391.9551">-current km:</text><text fill="#000000" font-family="sans-serif" font-size="14" lengthAdjust="spacing" textLength="132" x="932" y="410.5762">-register Date: String</text><text fill="#000000" font-family="sans-serif" font-size="14" lengthAdjust="spacing" textLength="151" x="932" y="429.1973">-acquisition Date: String</text><text fill="#000000" font-family="sans-serif" font-size="14" lengthAdjust="spacing" textLength="188" x="932" y="447.8184">-checkUpFrequencyInKms: int</text><line style="stroke:#181818;stroke-width:0.5;" x1="927" x2="1125" y1="455.332" y2="455.332"/><text fill="#000000" font-family="sans-serif" font-size="14" lengthAdjust="spacing" textLength="108" x="932" y="474.4395">+createVehicle ()</text></g><!--class Repositories--><g id="elem_Repositories"><rect codeLine="37" fill="#F1F1F1" height="122.4844" id="Repositories" rx="2.5" ry="2.5" style="stroke:#181818;stroke-width:0.5;" width="208" x="613" y="70"/><ellipse cx="673.25" cy="86" fill="#ADD1B2" rx="11" ry="11" style="stroke:#181818;stroke-width:1.0;"/><path d="M676.0156,81.875 Q676.1719,81.6563 676.3594,81.5469 Q676.5469,81.4375 676.7656,81.4375 Q677.1406,81.4375 677.375,81.7031 Q677.6094,81.9531 677.6094,82.5625 L677.6094,84.0156 Q677.6094,84.625 677.375,84.8906 Q677.1406,85.1563 676.7656,85.1563 Q676.4219,85.1563 676.2188,84.9531 Q676.0156,84.7656 675.9063,84.25 Q675.8594,83.8906 675.6719,83.7031 Q675.3438,83.3281 674.7344,83.1094 Q674.125,82.8906 673.5,82.8906 Q672.7344,82.8906 672.0938,83.2188 Q671.4688,83.5469 670.9688,84.2969 Q670.4844,85.0469 670.4844,86.0781 L670.4844,87.1719 Q670.4844,88.4063 671.375,89.2344 Q672.2656,90.0469 673.8594,90.0469 Q674.7969,90.0469 675.4531,89.7969 Q675.8438,89.6406 676.2656,89.2031 Q676.5313,88.9375 676.6719,88.8594 Q676.8281,88.7813 677.0313,88.7813 Q677.3594,88.7813 677.6094,89.0469 Q677.875,89.2969 677.875,89.6406 Q677.875,89.9844 677.5313,90.3906 Q677.0313,90.9688 676.2344,91.2969 Q675.1563,91.75 673.8594,91.75 Q672.3438,91.75 671.1406,91.125 Q670.1563,90.625 669.4688,89.5625 Q668.7813,88.4844 668.7813,87.2031 L668.7813,86.0469 Q668.7813,84.7188 669.3906,83.5781 Q670.0156,82.4219 671.1094,81.8125 Q672.2031,81.1875 673.4375,81.1875 Q674.1719,81.1875 674.8125,81.3594 Q675.4688,81.5156 676.0156,81.875 Z " fill="#000000"/><text fill="#000000" font-family="sans-serif" font-size="14" lengthAdjust="spacing" textLength="79" x="693.75" y="91.7969">Repositories</text><line style="stroke:#181818;stroke-width:0.5;" x1="614" x2="820" y1="102" y2="102"/><line style="stroke:#181818;stroke-width:0.5;" x1="614" x2="820" y1="110" y2="110"/><text fill="#000000" font-family="sans-serif" font-size="14" lengthAdjust="spacing" textLength="94" x="619" y="129.1074">-Repositories()</text><text fill="#000000" font-family="sans-serif" font-size="14" lengthAdjust="spacing" textLength="182" x="619" y="147.7285">+getInstance() : Repositories</text><text fill="#000000" font-family="sans-serif" font-size="14" lengthAdjust="spacing" textLength="152" x="619" y="166.3496">+getVehicleRepository()</text><text fill="#000000" font-family="sans-serif" font-size="14" lengthAdjust="spacing" textLength="196" x="619" y="184.9707">+getAuthenticationRepository()</text></g><!--class CreateVehicleController--><g id="elem_CreateVehicleController"><rect codeLine="45" fill="#F1F1F1" height="66.6211" id="CreateVehicleController" rx="2.5" ry="2.5" style="stroke:#181818;stroke-width:0.5;" width="183" x="201" y="236.5"/><ellipse cx="216" cy="252.5" fill="#ADD1B2" rx="11" ry="11" style="stroke:#181818;stroke-width:1.0;"/><path d="M218.7656,248.375 Q218.9219,248.1563 219.1094,248.0469 Q219.2969,247.9375 219.5156,247.9375 Q219.8906,247.9375 220.125,248.2031 Q220.3594,248.4531 220.3594,249.0625 L220.3594,250.5156 Q220.3594,251.125 220.125,251.3906 Q219.8906,251.6563 219.5156,251.6563 Q219.1719,251.6563 218.9688,251.4531 Q218.7656,251.2656 218.6563,250.75 Q218.6094,250.3906 218.4219,250.2031 Q218.0938,249.8281 217.4844,249.6094 Q216.875,249.3906 216.25,249.3906 Q215.4844,249.3906 214.8438,249.7188 Q214.2188,250.0469 213.7188,250.7969 Q213.2344,251.5469 213.2344,252.5781 L213.2344,253.6719 Q213.2344,254.9063 214.125,255.7344 Q215.0156,256.5469 216.6094,256.5469 Q217.5469,256.5469 218.2031,256.2969 Q218.5938,256.1406 219.0156,255.7031 Q219.2813,255.4375 219.4219,255.3594 Q219.5781,255.2813 219.7813,255.2813 Q220.1094,255.2813 220.3594,255.5469 Q220.625,255.7969 220.625,256.1406 Q220.625,256.4844 220.2813,256.8906 Q219.7813,257.4688 218.9844,257.7969 Q217.9063,258.25 216.6094,258.25 Q215.0938,258.25 213.8906,257.625 Q212.9063,257.125 212.2188,256.0625 Q211.5313,254.9844 211.5313,253.7031 L211.5313,252.5469 Q211.5313,251.2188 212.1406,250.0781 Q212.7656,248.9219 213.8594,248.3125 Q214.9531,247.6875 216.1875,247.6875 Q216.9219,247.6875 217.5625,247.8594 Q218.2188,248.0156 218.7656,248.375 Z " fill="#000000"/><text fill="#000000" font-family="sans-serif" font-size="14" lengthAdjust="spacing" textLength="151" x="230" y="258.2969">CreateVehicleController</text><line style="stroke:#181818;stroke-width:0.5;" x1="202" x2="383" y1="268.5" y2="268.5"/><line style="stroke:#181818;stroke-width:0.5;" x1="202" x2="383" y1="276.5" y2="276.5"/><text fill="#000000" font-family="sans-serif" font-size="14" lengthAdjust="spacing" textLength="166" x="207" y="295.6074">+createVehicleController()</text></g><!--class VehicleRepository--><g id="elem_VehicleRepository"><rect codeLine="49" fill="#F1F1F1" height="85.2422" id="VehicleRepository" rx="2.5" ry="2.5" style="stroke:#181818;stroke-width:0.5;" width="296" x="569" y="227.5"/><ellipse cx="655.75" cy="243.5" fill="#ADD1B2" rx="11" ry="11" style="stroke:#181818;stroke-width:1.0;"/><path d="M658.5156,239.375 Q658.6719,239.1563 658.8594,239.0469 Q659.0469,238.9375 659.2656,238.9375 Q659.6406,238.9375 659.875,239.2031 Q660.1094,239.4531 660.1094,240.0625 L660.1094,241.5156 Q660.1094,242.125 659.875,242.3906 Q659.6406,242.6563 659.2656,242.6563 Q658.9219,242.6563 658.7188,242.4531 Q658.5156,242.2656 658.4063,241.75 Q658.3594,241.3906 658.1719,241.2031 Q657.8438,240.8281 657.2344,240.6094 Q656.625,240.3906 656,240.3906 Q655.2344,240.3906 654.5938,240.7188 Q653.9688,241.0469 653.4688,241.7969 Q652.9844,242.5469 652.9844,243.5781 L652.9844,244.6719 Q652.9844,245.9063 653.875,246.7344 Q654.7656,247.5469 656.3594,247.5469 Q657.2969,247.5469 657.9531,247.2969 Q658.3438,247.1406 658.7656,246.7031 Q659.0313,246.4375 659.1719,246.3594 Q659.3281,246.2813 659.5313,246.2813 Q659.8594,246.2813 660.1094,246.5469 Q660.375,246.7969 660.375,247.1406 Q660.375,247.4844 660.0313,247.8906 Q659.5313,248.4688 658.7344,248.7969 Q657.6563,249.25 656.3594,249.25 Q654.8438,249.25 653.6406,248.625 Q652.6563,248.125 651.9688,247.0625 Q651.2813,245.9844 651.2813,244.7031 L651.2813,243.5469 Q651.2813,242.2188 651.8906,241.0781 Q652.5156,239.9219 653.6094,239.3125 Q654.7031,238.6875 655.9375,238.6875 Q656.6719,238.6875 657.3125,238.8594 Q657.9688,239.0156 658.5156,239.375 Z " fill="#000000"/><text fill="#000000" font-family="sans-serif" font-size="14" lengthAdjust="spacing" textLength="114" x="676.25" y="249.2969">VehicleRepository</text><line style="stroke:#181818;stroke-width:0.5;" x1="570" x2="864" y1="259.5" y2="259.5"/><text fill="#000000" font-family="sans-serif" font-size="14" lengthAdjust="spacing" textLength="148" x="575" y="278.6074">-vehicles: List&lt;Vehicle&gt;</text><line style="stroke:#181818;stroke-width:0.5;" x1="570" x2="864" y1="286.1211" y2="286.1211"/><text fill="#000000" font-family="sans-serif" font-size="14" lengthAdjust="spacing" textLength="284" x="575" y="305.2285">+getVehicleByIdPlate(plateId: String): Vehicle</text></g><!--link CreateVehicleUI to CreateVehicleController--><g id="link_CreateVehicleUI_CreateVehicleController"><path codeLine="58" d="M140.2,270 C159.28,270 174.47,270 194.8,270 " fill="none" id="CreateVehicleUI-to-CreateVehicleController" style="stroke:#181818;stroke-width:1.0;stroke-dasharray:7.0,7.0;"/><polygon fill="#181818" points="200.8,270,191.8,266,195.8,270,191.8,274,200.8,270" style="stroke:#181818;stroke-width:1.0;"/></g><!--link CreateVehicleController to Repositories--><g id="link_CreateVehicleController_Repositories"><path codeLine="59" d="M384.14,240.18 C451.3,218.08 537.2306,189.8154 607.1906,166.7954 " fill="none" id="CreateVehicleController-to-Repositories" style="stroke:#181818;stroke-width:1.0;stroke-dasharray:7.0,7.0;"/><polygon fill="#181818" points="612.89,164.92,603.0907,163.9334,608.1405,166.4828,605.5912,171.5326,612.89,164.92" style="stroke:#181818;stroke-width:1.0;"/></g><!--link CreateVehicleController to Vehicle--><g id="link_CreateVehicleController_Vehicle"><path codeLine="60" d="M346.49,303.58 C390.18,331.26 445,366 445,366 C445,366 445,366 718,366 C718,366 830.0727,358.6999 919.7627,352.8599 " fill="none" id="CreateVehicleController-to-Vehicle" style="stroke:#181818;stroke-width:1.0;stroke-dasharray:7.0,7.0;"/><polygon fill="#181818" points="925.75,352.47,916.5091,349.0632,920.7606,352.7949,917.0289,357.0463,925.75,352.47" style="stroke:#181818;stroke-width:1.0;"/></g><!--link Repositories to Repositories--><g id="link_Repositories_Repositories"><path codeLine="61" d="M683.64,69.6 C684.15,50.26 695.27,35 717,35 C738.73,35 749.6918,44.2621 750.2018,63.6021 " fill="none" id="Repositories-to-Repositories" style="stroke:#181818;stroke-width:1.0;"/><polygon fill="#181818" points="750.36,69.6,754.1214,60.4977,750.2282,64.6017,746.1241,60.7086,750.36,69.6" style="stroke:#181818;stroke-width:1.0;"/><text fill="#000000" font-family="sans-serif" font-size="13" lengthAdjust="spacing" textLength="49" x="692.5" y="26.0283">instance</text></g><!--link Repositories to VehicleRepository--><g id="link_Repositories_VehicleRepository"><path codeLine="62" d="M717,192.25 C717,205.79 717,223.67 717,223.67 C717,223.67 717,219.04 717,221.3 " fill="none" id="Repositories-to-VehicleRepository" style="stroke:#181818;stroke-width:1.0;"/><polygon fill="#181818" points="717,227.3,721,218.3,717,222.3,713,218.3,717,227.3" style="stroke:#181818;stroke-width:1.0;"/></g><!--link CreateVehicleController to VehicleRepository--><g id="link_CreateVehicleController_VehicleRepository"><path codeLine="63" d="M384.14,270 C437.84,270 501.19,270 562.6,270 " fill="none" id="CreateVehicleController-to-VehicleRepository" style="stroke:#181818;stroke-width:1.0;"/><polygon fill="#181818" points="568.6,270,559.6,266,563.6,270,559.6,274,568.6,270" style="stroke:#181818;stroke-width:1.0;"/></g><!--link VehicleRepository to Vehicle--><g id="link_VehicleRepository_Vehicle"><path codeLine="64" d="M865.21,306.44 C885.67,311.51 900.4658,315.1683 919.7758,319.9483 " fill="none" id="VehicleRepository-to-Vehicle" style="stroke:#181818;stroke-width:1.0;"/><polygon fill="#181818" points="925.6,321.39,917.8248,315.3446,920.7465,320.1886,915.9025,323.1102,925.6,321.39" style="stroke:#181818;stroke-width:1.0;"/></g><!--SRC=[VLHBRjim4Dtp5BEpZK91ra8H84rGG4ZG5ZNIhcbgGX6cI6L8jL2CdASdw0boiLBM_-DgfpTlVk-Dj757PGfEF8VS6YioiZc2fnBP42cuE7A9Urzf14BXkP5wJ70PJ-rlPIGyS-t64QqC-gf0AAokwXUsMGbQyfQDieJcpjrwJ-fGUao4DNlrYd3DcCPd3zu2APbvI5KzZRA6iNCAt15oZpymKqBZKt9YRunjcj1NajoeLrxJuSGs49u8VZLKznqBwvItLCNGfWzGHpOynnZsOImZEuodAQ5pSxZ8hC4lPNv06a9ltPXjXp16ozPXwkI-PpReWRX9PrXkKzGpR3sx5dOESGgGChvzbsIT-ucrb6DOb4HeF1ppk4K8fN8U2Uv3frbHBbvA5NIgPLq9Ymp5yQduJFXIeX5LOXvoDtJx069i6MntZFKozGueTBrMOp2mco8IVM9Sk4k1snt44z90MHWxphyjVHQsLk9y8HFECD7alkwiyMIr3hgSrfOPug76tFkXGRzPTuinF0QrFxR4cyNydwea_LPxlcsSxszarzzktIvS_gEI_FtF-zyW0fjz6d1rTNDf7NPfpIYAGjP4tFzG0xSRP-9aD2q1zJKqtYruoq_nOhyrybBhQE2T5Phy5Q9eMUCV]--></g></svg>