<?xml version="1.0" encoding="us-ascii" standalone="no"?><svg xmlns="http://www.w3.org/2000/svg" xmlns:xlink="http://www.w3.org/1999/xlink" contentStyleType="text/css" height="1618px" preserveAspectRatio="none" style="width:2155px;height:1618px;background:#FFFFFF;" version="1.1" viewBox="0 0 2155 1618" width="2155px" zoomAndPan="magnify"><defs/><g><!--class AuthenticationRepository--><g id="elem_AuthenticationRepository"><rect codeLine="11" fill="#F1F1F1" height="66.6211" id="AuthenticationRepository" rx="2.5" ry="2.5" style="stroke:#181818;stroke-width:0.5;" width="268" x="720" y="232"/><ellipse cx="770.75" cy="248" fill="#ADD1B2" rx="11" ry="11" style="stroke:#181818;stroke-width:1.0;"/><path d="M773.5156,243.875 Q773.6719,243.6563 773.8594,243.5469 Q774.0469,243.4375 774.2656,243.4375 Q774.6406,243.4375 774.875,243.7031 Q775.1094,243.9531 775.1094,244.5625 L775.1094,246.0156 Q775.1094,246.625 774.875,246.8906 Q774.6406,247.1563 774.2656,247.1563 Q773.9219,247.1563 773.7188,246.9531 Q773.5156,246.7656 773.4063,246.25 Q773.3594,245.8906 773.1719,245.7031 Q772.8438,245.3281 772.2344,245.1094 Q771.625,244.8906 771,244.8906 Q770.2344,244.8906 769.5938,245.2188 Q768.9688,245.5469 768.4688,246.2969 Q767.9844,247.0469 767.9844,248.0781 L767.9844,249.1719 Q767.9844,250.4063 768.875,251.2344 Q769.7656,252.0469 771.3594,252.0469 Q772.2969,252.0469 772.9531,251.7969 Q773.3438,251.6406 773.7656,251.2031 Q774.0313,250.9375 774.1719,250.8594 Q774.3281,250.7813 774.5313,250.7813 Q774.8594,250.7813 775.1094,251.0469 Q775.375,251.2969 775.375,251.6406 Q775.375,251.9844 775.0313,252.3906 Q774.5313,252.9688 773.7344,253.2969 Q772.6563,253.75 771.3594,253.75 Q769.8438,253.75 768.6406,253.125 Q767.6563,252.625 766.9688,251.5625 Q766.2813,250.4844 766.2813,249.2031 L766.2813,248.0469 Q766.2813,246.7188 766.8906,245.5781 Q767.5156,244.4219 768.6094,243.8125 Q769.7031,243.1875 770.9375,243.1875 Q771.6719,243.1875 772.3125,243.3594 Q772.9688,243.5156 773.5156,243.875 Z " fill="#000000"/><text fill="#000000" font-family="sans-serif" font-size="14" lengthAdjust="spacing" textLength="158" x="791.25" y="253.7969">AuthenticationRepository</text><line style="stroke:#181818;stroke-width:0.5;" x1="721" x2="987" y1="264" y2="264"/><line style="stroke:#181818;stroke-width:0.5;" x1="721" x2="987" y1="272" y2="272"/><text fill="#000000" font-family="sans-serif" font-size="14" lengthAdjust="spacing" textLength="256" x="726" y="291.1074">+getCurrentUserSession() : UserSession</text></g><!--class UserSession--><g id="elem_UserSession"><rect codeLine="15" fill="#F1F1F1" height="85.2422" id="UserSession" rx="2.5" ry="2.5" style="stroke:#181818;stroke-width:0.5;" width="289" x="1094.5" y="223"/><ellipse cx="1195.25" cy="239" fill="#ADD1B2" rx="11" ry="11" style="stroke:#181818;stroke-width:1.0;"/><path d="M1198.0156,234.875 Q1198.1719,234.6563 1198.3594,234.5469 Q1198.5469,234.4375 1198.7656,234.4375 Q1199.1406,234.4375 1199.375,234.7031 Q1199.6094,234.9531 1199.6094,235.5625 L1199.6094,237.0156 Q1199.6094,237.625 1199.375,237.8906 Q1199.1406,238.1563 1198.7656,238.1563 Q1198.4219,238.1563 1198.2188,237.9531 Q1198.0156,237.7656 1197.9063,237.25 Q1197.8594,236.8906 1197.6719,236.7031 Q1197.3438,236.3281 1196.7344,236.1094 Q1196.125,235.8906 1195.5,235.8906 Q1194.7344,235.8906 1194.0938,236.2188 Q1193.4688,236.5469 1192.9688,237.2969 Q1192.4844,238.0469 1192.4844,239.0781 L1192.4844,240.1719 Q1192.4844,241.4063 1193.375,242.2344 Q1194.2656,243.0469 1195.8594,243.0469 Q1196.7969,243.0469 1197.4531,242.7969 Q1197.8438,242.6406 1198.2656,242.2031 Q1198.5313,241.9375 1198.6719,241.8594 Q1198.8281,241.7813 1199.0313,241.7813 Q1199.3594,241.7813 1199.6094,242.0469 Q1199.875,242.2969 1199.875,242.6406 Q1199.875,242.9844 1199.5313,243.3906 Q1199.0313,243.9688 1198.2344,244.2969 Q1197.1563,244.75 1195.8594,244.75 Q1194.3438,244.75 1193.1406,244.125 Q1192.1563,243.625 1191.4688,242.5625 Q1190.7813,241.4844 1190.7813,240.2031 L1190.7813,239.0469 Q1190.7813,237.7188 1191.3906,236.5781 Q1192.0156,235.4219 1193.1094,234.8125 Q1194.2031,234.1875 1195.4375,234.1875 Q1196.1719,234.1875 1196.8125,234.3594 Q1197.4688,234.5156 1198.0156,234.875 Z " fill="#000000"/><text fill="#000000" font-family="sans-serif" font-size="14" lengthAdjust="spacing" textLength="79" x="1215.75" y="244.7969">UserSession</text><line style="stroke:#181818;stroke-width:0.5;" x1="1095.5" x2="1382.5" y1="255" y2="255"/><line style="stroke:#181818;stroke-width:0.5;" x1="1095.5" x2="1382.5" y1="263" y2="263"/><text fill="#000000" font-family="sans-serif" font-size="14" lengthAdjust="spacing" textLength="277" x="1100.5" y="282.1074">+isLoggedInWithRole(role: String) : Boolean</text><text fill="#000000" font-family="sans-serif" font-size="14" lengthAdjust="spacing" textLength="205" x="1100.5" y="300.7285">+getUserId(email: String) : String</text></g><!--class Repositories--><g id="elem_Repositories"><rect codeLine="20" fill="#F1F1F1" height="141.1055" id="Repositories" rx="2.5" ry="2.5" style="stroke:#181818;stroke-width:0.5;" width="378" x="1333" y="21"/><ellipse cx="1478.25" cy="37" fill="#ADD1B2" rx="11" ry="11" style="stroke:#181818;stroke-width:1.0;"/><path d="M1481.0156,32.875 Q1481.1719,32.6563 1481.3594,32.5469 Q1481.5469,32.4375 1481.7656,32.4375 Q1482.1406,32.4375 1482.375,32.7031 Q1482.6094,32.9531 1482.6094,33.5625 L1482.6094,35.0156 Q1482.6094,35.625 1482.375,35.8906 Q1482.1406,36.1563 1481.7656,36.1563 Q1481.4219,36.1563 1481.2188,35.9531 Q1481.0156,35.7656 1480.9063,35.25 Q1480.8594,34.8906 1480.6719,34.7031 Q1480.3438,34.3281 1479.7344,34.1094 Q1479.125,33.8906 1478.5,33.8906 Q1477.7344,33.8906 1477.0938,34.2188 Q1476.4688,34.5469 1475.9688,35.2969 Q1475.4844,36.0469 1475.4844,37.0781 L1475.4844,38.1719 Q1475.4844,39.4063 1476.375,40.2344 Q1477.2656,41.0469 1478.8594,41.0469 Q1479.7969,41.0469 1480.4531,40.7969 Q1480.8438,40.6406 1481.2656,40.2031 Q1481.5313,39.9375 1481.6719,39.8594 Q1481.8281,39.7813 1482.0313,39.7813 Q1482.3594,39.7813 1482.6094,40.0469 Q1482.875,40.2969 1482.875,40.6406 Q1482.875,40.9844 1482.5313,41.3906 Q1482.0313,41.9688 1481.2344,42.2969 Q1480.1563,42.75 1478.8594,42.75 Q1477.3438,42.75 1476.1406,42.125 Q1475.1563,41.625 1474.4688,40.5625 Q1473.7813,39.4844 1473.7813,38.2031 L1473.7813,37.0469 Q1473.7813,35.7188 1474.3906,34.5781 Q1475.0156,33.4219 1476.1094,32.8125 Q1477.2031,32.1875 1478.4375,32.1875 Q1479.1719,32.1875 1479.8125,32.3594 Q1480.4688,32.5156 1481.0156,32.875 Z " fill="#000000"/><text fill="#000000" font-family="sans-serif" font-size="14" lengthAdjust="spacing" textLength="79" x="1498.75" y="42.7969">Repositories</text><line style="stroke:#181818;stroke-width:0.5;" x1="1334" x2="1710" y1="53" y2="53"/><line style="stroke:#181818;stroke-width:0.5;" x1="1334" x2="1710" y1="61" y2="61"/><text fill="#000000" font-family="sans-serif" font-size="14" lengthAdjust="spacing" textLength="94" x="1339" y="80.1074">-Repositories()</text><text fill="#000000" font-family="sans-serif" font-size="14" lengthAdjust="spacing" textLength="182" x="1339" y="98.7285">+getInstance() : Repositories</text><text fill="#000000" font-family="sans-serif" font-size="14" lengthAdjust="spacing" textLength="366" x="1339" y="117.3496">+getAuthenticationRepository() : AuthenticationRepository</text><text fill="#000000" font-family="sans-serif" font-size="14" lengthAdjust="spacing" textLength="346" x="1339" y="135.9707">+getOrganizationRepository() : OrganizationRepository</text><text fill="#000000" font-family="sans-serif" font-size="14" lengthAdjust="spacing" textLength="310" x="1339" y="154.5918">+getEmployeeRepository() : EmployeeRepository</text></g><!--class OrganizationRepository--><g id="elem_OrganizationRepository"><rect codeLine="28" fill="#F1F1F1" height="66.6211" id="OrganizationRepository" rx="2.5" ry="2.5" style="stroke:#181818;stroke-width:0.5;" width="219" x="1418.5" y="232"/><ellipse cx="1451.05" cy="248" fill="#ADD1B2" rx="11" ry="11" style="stroke:#181818;stroke-width:1.0;"/><path d="M1453.8156,243.875 Q1453.9719,243.6563 1454.1594,243.5469 Q1454.3469,243.4375 1454.5656,243.4375 Q1454.9406,243.4375 1455.175,243.7031 Q1455.4094,243.9531 1455.4094,244.5625 L1455.4094,246.0156 Q1455.4094,246.625 1455.175,246.8906 Q1454.9406,247.1563 1454.5656,247.1563 Q1454.2219,247.1563 1454.0188,246.9531 Q1453.8156,246.7656 1453.7063,246.25 Q1453.6594,245.8906 1453.4719,245.7031 Q1453.1438,245.3281 1452.5344,245.1094 Q1451.925,244.8906 1451.3,244.8906 Q1450.5344,244.8906 1449.8938,245.2188 Q1449.2688,245.5469 1448.7688,246.2969 Q1448.2844,247.0469 1448.2844,248.0781 L1448.2844,249.1719 Q1448.2844,250.4063 1449.175,251.2344 Q1450.0656,252.0469 1451.6594,252.0469 Q1452.5969,252.0469 1453.2531,251.7969 Q1453.6438,251.6406 1454.0656,251.2031 Q1454.3313,250.9375 1454.4719,250.8594 Q1454.6281,250.7813 1454.8313,250.7813 Q1455.1594,250.7813 1455.4094,251.0469 Q1455.675,251.2969 1455.675,251.6406 Q1455.675,251.9844 1455.3313,252.3906 Q1454.8313,252.9688 1454.0344,253.2969 Q1452.9563,253.75 1451.6594,253.75 Q1450.1438,253.75 1448.9406,253.125 Q1447.9563,252.625 1447.2688,251.5625 Q1446.5813,250.4844 1446.5813,249.2031 L1446.5813,248.0469 Q1446.5813,246.7188 1447.1906,245.5781 Q1447.8156,244.4219 1448.9094,243.8125 Q1450.0031,243.1875 1451.2375,243.1875 Q1451.9719,243.1875 1452.6125,243.3594 Q1453.2688,243.5156 1453.8156,243.875 Z " fill="#000000"/><text fill="#000000" font-family="sans-serif" font-size="14" lengthAdjust="spacing" textLength="148" x="1468.95" y="253.7969">OrganizationRepository</text><line style="stroke:#181818;stroke-width:0.5;" x1="1419.5" x2="1636.5" y1="264" y2="264"/><line style="stroke:#181818;stroke-width:0.5;" x1="1419.5" x2="1636.5" y1="272" y2="272"/><text fill="#000000" font-family="sans-serif" font-size="14" lengthAdjust="spacing" textLength="207" x="1424.5" y="291.1074">+getOrganizationByUserId(email)</text></g><!--class Organization--><g id="elem_Organization"><rect codeLine="32" fill="#F1F1F1" height="178.3477" id="Organization" rx="2.5" ry="2.5" style="stroke:#181818;stroke-width:0.5;" width="465" x="1172.5" y="387"/><ellipse cx="1360.75" cy="403" fill="#ADD1B2" rx="11" ry="11" style="stroke:#181818;stroke-width:1.0;"/><path d="M1363.5156,398.875 Q1363.6719,398.6563 1363.8594,398.5469 Q1364.0469,398.4375 1364.2656,398.4375 Q1364.6406,398.4375 1364.875,398.7031 Q1365.1094,398.9531 1365.1094,399.5625 L1365.1094,401.0156 Q1365.1094,401.625 1364.875,401.8906 Q1364.6406,402.1563 1364.2656,402.1563 Q1363.9219,402.1563 1363.7188,401.9531 Q1363.5156,401.7656 1363.4063,401.25 Q1363.3594,400.8906 1363.1719,400.7031 Q1362.8438,400.3281 1362.2344,400.1094 Q1361.625,399.8906 1361,399.8906 Q1360.2344,399.8906 1359.5938,400.2188 Q1358.9688,400.5469 1358.4688,401.2969 Q1357.9844,402.0469 1357.9844,403.0781 L1357.9844,404.1719 Q1357.9844,405.4063 1358.875,406.2344 Q1359.7656,407.0469 1361.3594,407.0469 Q1362.2969,407.0469 1362.9531,406.7969 Q1363.3438,406.6406 1363.7656,406.2031 Q1364.0313,405.9375 1364.1719,405.8594 Q1364.3281,405.7813 1364.5313,405.7813 Q1364.8594,405.7813 1365.1094,406.0469 Q1365.375,406.2969 1365.375,406.6406 Q1365.375,406.9844 1365.0313,407.3906 Q1364.5313,407.9688 1363.7344,408.2969 Q1362.6563,408.75 1361.3594,408.75 Q1359.8438,408.75 1358.6406,408.125 Q1357.6563,407.625 1356.9688,406.5625 Q1356.2813,405.4844 1356.2813,404.2031 L1356.2813,403.0469 Q1356.2813,401.7188 1356.8906,400.5781 Q1357.5156,399.4219 1358.6094,398.8125 Q1359.7031,398.1875 1360.9375,398.1875 Q1361.6719,398.1875 1362.3125,398.3594 Q1362.9688,398.5156 1363.5156,398.875 Z " fill="#000000"/><text fill="#000000" font-family="sans-serif" font-size="14" lengthAdjust="spacing" textLength="80" x="1381.25" y="408.7969">Organization</text><line style="stroke:#181818;stroke-width:0.5;" x1="1173.5" x2="1636.5" y1="419" y2="419"/><text fill="#000000" font-family="sans-serif" font-size="14" lengthAdjust="spacing" textLength="81" x="1178.5" y="438.1074">-String name</text><text fill="#000000" font-family="sans-serif" font-size="14" lengthAdjust="spacing" textLength="114" x="1178.5" y="456.7285">-String vatNumber</text><text fill="#000000" font-family="sans-serif" font-size="14" lengthAdjust="spacing" textLength="86" x="1178.5" y="475.3496">-String phone</text><text fill="#000000" font-family="sans-serif" font-size="14" lengthAdjust="spacing" textLength="79" x="1178.5" y="493.9707">-String email</text><text fill="#000000" font-family="sans-serif" font-size="14" lengthAdjust="spacing" textLength="151" x="1178.5" y="512.5918">-Address postalAddress</text><line style="stroke:#181818;stroke-width:0.5;" x1="1173.5" x2="1636.5" y1="520.1055" y2="520.1055"/><text fill="#000000" font-family="sans-serif" font-size="14" lengthAdjust="spacing" textLength="453" x="1178.5" y="539.2129">+Organization(name, vatNumber, webSite, phone, email, postalAddress)</text><text fill="#000000" font-family="sans-serif" font-size="14" lengthAdjust="spacing" textLength="227" x="1178.5" y="557.834">+anyEmployeeHasThisUserId(email)</text></g><!--class Employee--><g id="elem_Employee"><rect codeLine="42" fill="#F1F1F1" height="364.5586" id="Employee" rx="2.5" ry="2.5" style="stroke:#181818;stroke-width:0.5;" width="406" x="1174" y="827"/><ellipse cx="1341.75" cy="843" fill="#ADD1B2" rx="11" ry="11" style="stroke:#181818;stroke-width:1.0;"/><path d="M1344.5156,838.875 Q1344.6719,838.6563 1344.8594,838.5469 Q1345.0469,838.4375 1345.2656,838.4375 Q1345.6406,838.4375 1345.875,838.7031 Q1346.1094,838.9531 1346.1094,839.5625 L1346.1094,841.0156 Q1346.1094,841.625 1345.875,841.8906 Q1345.6406,842.1563 1345.2656,842.1563 Q1344.9219,842.1563 1344.7188,841.9531 Q1344.5156,841.7656 1344.4063,841.25 Q1344.3594,840.8906 1344.1719,840.7031 Q1343.8438,840.3281 1343.2344,840.1094 Q1342.625,839.8906 1342,839.8906 Q1341.2344,839.8906 1340.5938,840.2188 Q1339.9688,840.5469 1339.4688,841.2969 Q1338.9844,842.0469 1338.9844,843.0781 L1338.9844,844.1719 Q1338.9844,845.4063 1339.875,846.2344 Q1340.7656,847.0469 1342.3594,847.0469 Q1343.2969,847.0469 1343.9531,846.7969 Q1344.3438,846.6406 1344.7656,846.2031 Q1345.0313,845.9375 1345.1719,845.8594 Q1345.3281,845.7813 1345.5313,845.7813 Q1345.8594,845.7813 1346.1094,846.0469 Q1346.375,846.2969 1346.375,846.6406 Q1346.375,846.9844 1346.0313,847.3906 Q1345.5313,847.9688 1344.7344,848.2969 Q1343.6563,848.75 1342.3594,848.75 Q1340.8438,848.75 1339.6406,848.125 Q1338.6563,847.625 1337.9688,846.5625 Q1337.2813,845.4844 1337.2813,844.2031 L1337.2813,843.0469 Q1337.2813,841.7188 1337.8906,840.5781 Q1338.5156,839.4219 1339.6094,838.8125 Q1340.7031,838.1875 1341.9375,838.1875 Q1342.6719,838.1875 1343.3125,838.3594 Q1343.9688,838.5156 1344.5156,838.875 Z " fill="#000000"/><text fill="#000000" font-family="sans-serif" font-size="14" lengthAdjust="spacing" textLength="62" x="1362.25" y="848.7969">Employee</text><line style="stroke:#181818;stroke-width:0.5;" x1="1175" x2="1579" y1="859" y2="859"/><text fill="#000000" font-family="sans-serif" font-size="14" lengthAdjust="spacing" textLength="81" x="1180" y="878.1074">-String name</text><text fill="#000000" font-family="sans-serif" font-size="14" lengthAdjust="spacing" textLength="95" x="1180" y="896.7285">-Date birthdate</text><text fill="#000000" font-family="sans-serif" font-size="14" lengthAdjust="spacing" textLength="132" x="1180" y="915.3496">-Date admissionDate</text><text fill="#000000" font-family="sans-serif" font-size="14" lengthAdjust="spacing" textLength="151" x="1180" y="933.9707">-Address postalAddress</text><text fill="#000000" font-family="sans-serif" font-size="14" lengthAdjust="spacing" textLength="86" x="1180" y="952.5918">-String phone</text><text fill="#000000" font-family="sans-serif" font-size="14" lengthAdjust="spacing" textLength="79" x="1180" y="971.2129">-String email</text><text fill="#000000" font-family="sans-serif" font-size="14" lengthAdjust="spacing" textLength="114" x="1180" y="989.834">-String idDocType</text><text fill="#000000" font-family="sans-serif" font-size="14" lengthAdjust="spacing" textLength="170" x="1180" y="1008.4551">-String idDocumentNumber</text><text fill="#000000" font-family="sans-serif" font-size="14" lengthAdjust="spacing" textLength="111" x="1180" y="1027.0762">-String taxpayerId</text><text fill="#000000" font-family="sans-serif" font-size="14" lengthAdjust="spacing" textLength="50" x="1180" y="1045.6973">-Job job</text><line style="stroke:#181818;stroke-width:0.5;" x1="1175" x2="1579" y1="1053.2109" y2="1053.2109"/><text fill="#000000" font-family="sans-serif" font-size="14" lengthAdjust="spacing" textLength="158" x="1180" y="1072.3184">+CompareTo(taxpayerId)</text><text fill="#000000" font-family="sans-serif" font-size="14" lengthAdjust="spacing" textLength="55" x="1180" y="1090.9395">+Clone()</text><text fill="#000000" font-family="sans-serif" font-size="14" lengthAdjust="spacing" textLength="67" x="1180" y="1109.5605">+toString()</text><text fill="#000000" font-family="sans-serif" font-size="14" lengthAdjust="spacing" textLength="135" x="1180" y="1128.1816">+hasThisEmail(email)</text><text fill="#000000" font-family="sans-serif" font-size="14" lengthAdjust="spacing" textLength="240" x="1180" y="1146.8027">+listThisGsmGreenSpaces(userEmail)</text><text fill="#000000" font-family="sans-serif" font-size="14" lengthAdjust="spacing" textLength="149" x="1180" y="1165.4238">+getSortingAlgorithms()</text><text fill="#000000" font-family="sans-serif" font-size="14" lengthAdjust="spacing" textLength="394" x="1180" y="1184.0449">+sortGreenSpaces(greenSpaces: List&lt;GreenSpace&gt;, method)</text></g><!--class EmployeeRepository--><g id="elem_EmployeeRepository"><rect codeLine="62" fill="#F1F1F1" height="122.4844" id="EmployeeRepository" rx="2.5" ry="2.5" style="stroke:#181818;stroke-width:0.5;" width="162" x="1221" y="626"/><ellipse cx="1236" cy="642" fill="#ADD1B2" rx="11" ry="11" style="stroke:#181818;stroke-width:1.0;"/><path d="M1238.7656,637.875 Q1238.9219,637.6563 1239.1094,637.5469 Q1239.2969,637.4375 1239.5156,637.4375 Q1239.8906,637.4375 1240.125,637.7031 Q1240.3594,637.9531 1240.3594,638.5625 L1240.3594,640.0156 Q1240.3594,640.625 1240.125,640.8906 Q1239.8906,641.1563 1239.5156,641.1563 Q1239.1719,641.1563 1238.9688,640.9531 Q1238.7656,640.7656 1238.6563,640.25 Q1238.6094,639.8906 1238.4219,639.7031 Q1238.0938,639.3281 1237.4844,639.1094 Q1236.875,638.8906 1236.25,638.8906 Q1235.4844,638.8906 1234.8438,639.2188 Q1234.2188,639.5469 1233.7188,640.2969 Q1233.2344,641.0469 1233.2344,642.0781 L1233.2344,643.1719 Q1233.2344,644.4063 1234.125,645.2344 Q1235.0156,646.0469 1236.6094,646.0469 Q1237.5469,646.0469 1238.2031,645.7969 Q1238.5938,645.6406 1239.0156,645.2031 Q1239.2813,644.9375 1239.4219,644.8594 Q1239.5781,644.7813 1239.7813,644.7813 Q1240.1094,644.7813 1240.3594,645.0469 Q1240.625,645.2969 1240.625,645.6406 Q1240.625,645.9844 1240.2813,646.3906 Q1239.7813,646.9688 1238.9844,647.2969 Q1237.9063,647.75 1236.6094,647.75 Q1235.0938,647.75 1233.8906,647.125 Q1232.9063,646.625 1232.2188,645.5625 Q1231.5313,644.4844 1231.5313,643.2031 L1231.5313,642.0469 Q1231.5313,640.7188 1232.1406,639.5781 Q1232.7656,638.4219 1233.8594,637.8125 Q1234.9531,637.1875 1236.1875,637.1875 Q1236.9219,637.1875 1237.5625,637.3594 Q1238.2188,637.5156 1238.7656,637.875 Z " fill="#000000"/><text fill="#000000" font-family="sans-serif" font-size="14" lengthAdjust="spacing" textLength="130" x="1250" y="647.7969">EmployeeRepository</text><line style="stroke:#181818;stroke-width:0.5;" x1="1222" x2="1382" y1="658" y2="658"/><line style="stroke:#181818;stroke-width:0.5;" x1="1222" x2="1382" y1="666" y2="666"/><text fill="#000000" font-family="sans-serif" font-size="14" lengthAdjust="spacing" textLength="145" x="1227" y="685.1074">-EmployeeRepository()</text><text fill="#000000" font-family="sans-serif" font-size="14" lengthAdjust="spacing" textLength="113" x="1227" y="703.7285">+addJob(job: Job)</text><text fill="#000000" font-family="sans-serif" font-size="14" lengthAdjust="spacing" textLength="104" x="1227" y="722.3496">+listEmployees()</text><text fill="#000000" font-family="sans-serif" font-size="14" lengthAdjust="spacing" textLength="120" x="1227" y="740.9707">+emailExists(email)</text></g><!--class GreenSpace--><g id="elem_GreenSpace"><rect codeLine="69" fill="#F1F1F1" height="48" id="GreenSpace" rx="2.5" ry="2.5" style="stroke:#181818;stroke-width:0.5;" width="112" x="2036" y="985.5"/><ellipse cx="2051" cy="1001.5" fill="#ADD1B2" rx="11" ry="11" style="stroke:#181818;stroke-width:1.0;"/><path d="M2053.7656,997.375 Q2053.9219,997.1563 2054.1094,997.0469 Q2054.2969,996.9375 2054.5156,996.9375 Q2054.8906,996.9375 2055.125,997.2031 Q2055.3594,997.4531 2055.3594,998.0625 L2055.3594,999.5156 Q2055.3594,1000.125 2055.125,1000.3906 Q2054.8906,1000.6563 2054.5156,1000.6563 Q2054.1719,1000.6563 2053.9688,1000.4531 Q2053.7656,1000.2656 2053.6563,999.75 Q2053.6094,999.3906 2053.4219,999.2031 Q2053.0938,998.8281 2052.4844,998.6094 Q2051.875,998.3906 2051.25,998.3906 Q2050.4844,998.3906 2049.8438,998.7188 Q2049.2188,999.0469 2048.7188,999.7969 Q2048.2344,1000.5469 2048.2344,1001.5781 L2048.2344,1002.6719 Q2048.2344,1003.9063 2049.125,1004.7344 Q2050.0156,1005.5469 2051.6094,1005.5469 Q2052.5469,1005.5469 2053.2031,1005.2969 Q2053.5938,1005.1406 2054.0156,1004.7031 Q2054.2813,1004.4375 2054.4219,1004.3594 Q2054.5781,1004.2813 2054.7813,1004.2813 Q2055.1094,1004.2813 2055.3594,1004.5469 Q2055.625,1004.7969 2055.625,1005.1406 Q2055.625,1005.4844 2055.2813,1005.8906 Q2054.7813,1006.4688 2053.9844,1006.7969 Q2052.9063,1007.25 2051.6094,1007.25 Q2050.0938,1007.25 2048.8906,1006.625 Q2047.9063,1006.125 2047.2188,1005.0625 Q2046.5313,1003.9844 2046.5313,1002.7031 L2046.5313,1001.5469 Q2046.5313,1000.2188 2047.1406,999.0781 Q2047.7656,997.9219 2048.8594,997.3125 Q2049.9531,996.6875 2051.1875,996.6875 Q2051.9219,996.6875 2052.5625,996.8594 Q2053.2188,997.0156 2053.7656,997.375 Z " fill="#000000"/><text fill="#000000" font-family="sans-serif" font-size="14" lengthAdjust="spacing" textLength="80" x="2065" y="1007.2969">GreenSpace</text><line style="stroke:#181818;stroke-width:0.5;" x1="2037" x2="2147" y1="1017.5" y2="1017.5"/><line style="stroke:#181818;stroke-width:0.5;" x1="2037" x2="2147" y1="1025.5" y2="1025.5"/></g><!--class SortingAlgorithms--><g id="elem_SortingAlgorithms"><rect codeLine="71" fill="#F1F1F1" height="66.6211" id="SortingAlgorithms" rx="2.5" ry="2.5" style="stroke:#181818;stroke-width:0.5;" width="161" x="1729.5" y="1271"/><ellipse cx="1752.6" cy="1287" fill="#B4A7E5" rx="11" ry="11" style="stroke:#181818;stroke-width:1.0;"/><path d="M1753.5531,1283.6406 L1753.5531,1290.2969 L1755.2719,1290.2969 Q1755.8813,1290.2969 1756.1469,1290.5313 Q1756.4125,1290.7656 1756.4125,1291.1563 Q1756.4125,1291.5313 1756.1469,1291.7656 Q1755.8813,1292 1755.2719,1292 L1750.1313,1292 Q1749.5219,1292 1749.2563,1291.7656 Q1748.9906,1291.5313 1748.9906,1291.1406 Q1748.9906,1290.7656 1749.2563,1290.5313 Q1749.5219,1290.2969 1750.1313,1290.2969 L1751.85,1290.2969 L1751.85,1283.6406 L1750.1313,1283.6406 Q1749.5219,1283.6406 1749.2563,1283.4063 Q1748.9906,1283.1719 1748.9906,1282.7813 Q1748.9906,1282.4063 1749.2563,1282.1719 Q1749.5219,1281.9375 1750.1313,1281.9375 L1755.2719,1281.9375 Q1755.8813,1281.9375 1756.1469,1282.1719 Q1756.4125,1282.4063 1756.4125,1282.7813 Q1756.4125,1283.1719 1756.1469,1283.4063 Q1755.8813,1283.6406 1755.2719,1283.6406 L1753.5531,1283.6406 Z " fill="#000000"/><text fill="#000000" font-family="sans-serif" font-size="14" font-style="italic" lengthAdjust="spacing" textLength="111" x="1768.4" y="1292.7969">SortingAlgorithms</text><line style="stroke:#181818;stroke-width:0.5;" x1="1730.5" x2="1889.5" y1="1303" y2="1303"/><line style="stroke:#181818;stroke-width:0.5;" x1="1730.5" x2="1889.5" y1="1311" y2="1311"/><text fill="#000000" font-family="sans-serif" font-size="14" lengthAdjust="spacing" textLength="149" x="1735.5" y="1330.1074">+getSortingAlgorithms()</text></g><!--class SortingConfigAdapter--><g id="elem_SortingConfigAdapter"><rect codeLine="75" fill="#F1F1F1" height="66.6211" id="SortingConfigAdapter" rx="2.5" ry="2.5" style="stroke:#181818;stroke-width:0.5;" width="168" x="1726" y="1399"/><ellipse cx="1741" cy="1415" fill="#ADD1B2" rx="11" ry="11" style="stroke:#181818;stroke-width:1.0;"/><path d="M1743.7656,1410.875 Q1743.9219,1410.6563 1744.1094,1410.5469 Q1744.2969,1410.4375 1744.5156,1410.4375 Q1744.8906,1410.4375 1745.125,1410.7031 Q1745.3594,1410.9531 1745.3594,1411.5625 L1745.3594,1413.0156 Q1745.3594,1413.625 1745.125,1413.8906 Q1744.8906,1414.1563 1744.5156,1414.1563 Q1744.1719,1414.1563 1743.9688,1413.9531 Q1743.7656,1413.7656 1743.6563,1413.25 Q1743.6094,1412.8906 1743.4219,1412.7031 Q1743.0938,1412.3281 1742.4844,1412.1094 Q1741.875,1411.8906 1741.25,1411.8906 Q1740.4844,1411.8906 1739.8438,1412.2188 Q1739.2188,1412.5469 1738.7188,1413.2969 Q1738.2344,1414.0469 1738.2344,1415.0781 L1738.2344,1416.1719 Q1738.2344,1417.4063 1739.125,1418.2344 Q1740.0156,1419.0469 1741.6094,1419.0469 Q1742.5469,1419.0469 1743.2031,1418.7969 Q1743.5938,1418.6406 1744.0156,1418.2031 Q1744.2813,1417.9375 1744.4219,1417.8594 Q1744.5781,1417.7813 1744.7813,1417.7813 Q1745.1094,1417.7813 1745.3594,1418.0469 Q1745.625,1418.2969 1745.625,1418.6406 Q1745.625,1418.9844 1745.2813,1419.3906 Q1744.7813,1419.9688 1743.9844,1420.2969 Q1742.9063,1420.75 1741.6094,1420.75 Q1740.0938,1420.75 1738.8906,1420.125 Q1737.9063,1419.625 1737.2188,1418.5625 Q1736.5313,1417.4844 1736.5313,1416.2031 L1736.5313,1415.0469 Q1736.5313,1413.7188 1737.1406,1412.5781 Q1737.7656,1411.4219 1738.8594,1410.8125 Q1739.9531,1410.1875 1741.1875,1410.1875 Q1741.9219,1410.1875 1742.5625,1410.3594 Q1743.2188,1410.5156 1743.7656,1410.875 Z " fill="#000000"/><text fill="#000000" font-family="sans-serif" font-size="14" lengthAdjust="spacing" textLength="136" x="1755" y="1420.7969">SortingConfigAdapter</text><line style="stroke:#181818;stroke-width:0.5;" x1="1727" x2="1893" y1="1431" y2="1431"/><line style="stroke:#181818;stroke-width:0.5;" x1="1727" x2="1893" y1="1439" y2="1439"/><text fill="#000000" font-family="sans-serif" font-size="14" lengthAdjust="spacing" textLength="149" x="1732" y="1458.1074">+getSortingAlgorithms()</text></g><!--class ConfigManager--><g id="elem_ConfigManager"><rect codeLine="81" fill="#F1F1F1" height="66.6211" id="ConfigManager" rx="2.5" ry="2.5" style="stroke:#181818;stroke-width:0.5;" width="145" x="1737.5" y="1545"/><ellipse cx="1759.7" cy="1561" fill="#ADD1B2" rx="11" ry="11" style="stroke:#181818;stroke-width:1.0;"/><path d="M1762.4656,1556.875 Q1762.6219,1556.6563 1762.8094,1556.5469 Q1762.9969,1556.4375 1763.2156,1556.4375 Q1763.5906,1556.4375 1763.825,1556.7031 Q1764.0594,1556.9531 1764.0594,1557.5625 L1764.0594,1559.0156 Q1764.0594,1559.625 1763.825,1559.8906 Q1763.5906,1560.1563 1763.2156,1560.1563 Q1762.8719,1560.1563 1762.6688,1559.9531 Q1762.4656,1559.7656 1762.3563,1559.25 Q1762.3094,1558.8906 1762.1219,1558.7031 Q1761.7938,1558.3281 1761.1844,1558.1094 Q1760.575,1557.8906 1759.95,1557.8906 Q1759.1844,1557.8906 1758.5438,1558.2188 Q1757.9188,1558.5469 1757.4188,1559.2969 Q1756.9344,1560.0469 1756.9344,1561.0781 L1756.9344,1562.1719 Q1756.9344,1563.4063 1757.825,1564.2344 Q1758.7156,1565.0469 1760.3094,1565.0469 Q1761.2469,1565.0469 1761.9031,1564.7969 Q1762.2938,1564.6406 1762.7156,1564.2031 Q1762.9813,1563.9375 1763.1219,1563.8594 Q1763.2781,1563.7813 1763.4813,1563.7813 Q1763.8094,1563.7813 1764.0594,1564.0469 Q1764.325,1564.2969 1764.325,1564.6406 Q1764.325,1564.9844 1763.9813,1565.3906 Q1763.4813,1565.9688 1762.6844,1566.2969 Q1761.6063,1566.75 1760.3094,1566.75 Q1758.7938,1566.75 1757.5906,1566.125 Q1756.6063,1565.625 1755.9188,1564.5625 Q1755.2313,1563.4844 1755.2313,1562.2031 L1755.2313,1561.0469 Q1755.2313,1559.7188 1755.8406,1558.5781 Q1756.4656,1557.4219 1757.5594,1556.8125 Q1758.6531,1556.1875 1759.8875,1556.1875 Q1760.6219,1556.1875 1761.2625,1556.3594 Q1761.9188,1556.5156 1762.4656,1556.875 Z " fill="#000000"/><text fill="#000000" font-family="sans-serif" font-size="14" lengthAdjust="spacing" textLength="97" x="1775.3" y="1566.7969">ConfigManager</text><line style="stroke:#181818;stroke-width:0.5;" x1="1738.5" x2="1881.5" y1="1577" y2="1577"/><line style="stroke:#181818;stroke-width:0.5;" x1="1738.5" x2="1881.5" y1="1585" y2="1585"/><text fill="#000000" font-family="sans-serif" font-size="14" lengthAdjust="spacing" textLength="133" x="1743.5" y="1604.1074">+readSortingConfig()</text></g><!--class GreenSpaces--><g id="elem_GreenSpaces"><rect codeLine="85" fill="#F1F1F1" height="85.2422" id="GreenSpaces" rx="2.5" ry="2.5" style="stroke:#181818;stroke-width:0.5;" width="280" x="1670" y="967"/><ellipse cx="1762.25" cy="983" fill="#ADD1B2" rx="11" ry="11" style="stroke:#181818;stroke-width:1.0;"/><path d="M1765.0156,978.875 Q1765.1719,978.6563 1765.3594,978.5469 Q1765.5469,978.4375 1765.7656,978.4375 Q1766.1406,978.4375 1766.375,978.7031 Q1766.6094,978.9531 1766.6094,979.5625 L1766.6094,981.0156 Q1766.6094,981.625 1766.375,981.8906 Q1766.1406,982.1563 1765.7656,982.1563 Q1765.4219,982.1563 1765.2188,981.9531 Q1765.0156,981.7656 1764.9063,981.25 Q1764.8594,980.8906 1764.6719,980.7031 Q1764.3438,980.3281 1763.7344,980.1094 Q1763.125,979.8906 1762.5,979.8906 Q1761.7344,979.8906 1761.0938,980.2188 Q1760.4688,980.5469 1759.9688,981.2969 Q1759.4844,982.0469 1759.4844,983.0781 L1759.4844,984.1719 Q1759.4844,985.4063 1760.375,986.2344 Q1761.2656,987.0469 1762.8594,987.0469 Q1763.7969,987.0469 1764.4531,986.7969 Q1764.8438,986.6406 1765.2656,986.2031 Q1765.5313,985.9375 1765.6719,985.8594 Q1765.8281,985.7813 1766.0313,985.7813 Q1766.3594,985.7813 1766.6094,986.0469 Q1766.875,986.2969 1766.875,986.6406 Q1766.875,986.9844 1766.5313,987.3906 Q1766.0313,987.9688 1765.2344,988.2969 Q1764.1563,988.75 1762.8594,988.75 Q1761.3438,988.75 1760.1406,988.125 Q1759.1563,987.625 1758.4688,986.5625 Q1757.7813,985.4844 1757.7813,984.2031 L1757.7813,983.0469 Q1757.7813,981.7188 1758.3906,980.5781 Q1759.0156,979.4219 1760.1094,978.8125 Q1761.2031,978.1875 1762.4375,978.1875 Q1763.1719,978.1875 1763.8125,978.3594 Q1764.4688,978.5156 1765.0156,978.875 Z " fill="#000000"/><text fill="#000000" font-family="sans-serif" font-size="14" lengthAdjust="spacing" textLength="87" x="1782.75" y="988.7969">GreenSpaces</text><line style="stroke:#181818;stroke-width:0.5;" x1="1671" x2="1949" y1="999" y2="999"/><line style="stroke:#181818;stroke-width:0.5;" x1="1671" x2="1949" y1="1007" y2="1007"/><text fill="#000000" font-family="sans-serif" font-size="14" lengthAdjust="spacing" textLength="210" x="1676" y="1026.1074">+filterGreenSpacesByUser(email)</text><text fill="#000000" font-family="sans-serif" font-size="14" lengthAdjust="spacing" textLength="268" x="1676" y="1044.7285">+sortGreenSpaces(greenSpaces, method)</text></g><!--class ListGSManagedByMeController--><g id="elem_ListGSManagedByMeController"><rect codeLine="90" fill="#F1F1F1" height="122.4844" id="ListGSManagedByMeController" rx="2.5" ry="2.5" style="stroke:#181818;stroke-width:0.5;" width="669" x="537.5" y="30.5"/><ellipse cx="768.75" cy="46.5" fill="#ADD1B2" rx="11" ry="11" style="stroke:#181818;stroke-width:1.0;"/><path d="M771.5156,42.375 Q771.6719,42.1563 771.8594,42.0469 Q772.0469,41.9375 772.2656,41.9375 Q772.6406,41.9375 772.875,42.2031 Q773.1094,42.4531 773.1094,43.0625 L773.1094,44.5156 Q773.1094,45.125 772.875,45.3906 Q772.6406,45.6563 772.2656,45.6563 Q771.9219,45.6563 771.7188,45.4531 Q771.5156,45.2656 771.4063,44.75 Q771.3594,44.3906 771.1719,44.2031 Q770.8438,43.8281 770.2344,43.6094 Q769.625,43.3906 769,43.3906 Q768.2344,43.3906 767.5938,43.7188 Q766.9688,44.0469 766.4688,44.7969 Q765.9844,45.5469 765.9844,46.5781 L765.9844,47.6719 Q765.9844,48.9063 766.875,49.7344 Q767.7656,50.5469 769.3594,50.5469 Q770.2969,50.5469 770.9531,50.2969 Q771.3438,50.1406 771.7656,49.7031 Q772.0313,49.4375 772.1719,49.3594 Q772.3281,49.2813 772.5313,49.2813 Q772.8594,49.2813 773.1094,49.5469 Q773.375,49.7969 773.375,50.1406 Q773.375,50.4844 773.0313,50.8906 Q772.5313,51.4688 771.7344,51.7969 Q770.6563,52.25 769.3594,52.25 Q767.8438,52.25 766.6406,51.625 Q765.6563,51.125 764.9688,50.0625 Q764.2813,48.9844 764.2813,47.7031 L764.2813,46.5469 Q764.2813,45.2188 764.8906,44.0781 Q765.5156,42.9219 766.6094,42.3125 Q767.7031,41.6875 768.9375,41.6875 Q769.6719,41.6875 770.3125,41.8594 Q770.9688,42.0156 771.5156,42.375 Z " fill="#000000"/><text fill="#000000" font-family="sans-serif" font-size="14" lengthAdjust="spacing" textLength="198" x="789.25" y="52.2969">ListGSManagedByMeController</text><line style="stroke:#181818;stroke-width:0.5;" x1="538.5" x2="1205.5" y1="62.5" y2="62.5"/><line style="stroke:#181818;stroke-width:0.5;" x1="538.5" x2="1205.5" y1="70.5" y2="70.5"/><text fill="#000000" font-family="sans-serif" font-size="14" lengthAdjust="spacing" textLength="657" x="543.5" y="89.6074">-ListGSManagedByMeController(AuthenticationRepository,OrganizationRepository,EmployeeRepository)</text><text fill="#000000" font-family="sans-serif" font-size="14" lengthAdjust="spacing" textLength="178" x="543.5" y="108.2285">+listThisGsmGreenSpaces()</text><text fill="#000000" font-family="sans-serif" font-size="14" lengthAdjust="spacing" textLength="149" x="543.5" y="126.8496">+getSortingAlgorithms()</text><text fill="#000000" font-family="sans-serif" font-size="14" lengthAdjust="spacing" textLength="268" x="543.5" y="145.4707">+sortGreenSpaces(greenSpaces, method)</text></g><g id="elem_GMN16"><path d="M6,69 L6,113.582 L248,113.582 L248,79 L238,69 L6,69 " fill="#FEFFDD" style="stroke:#181818;stroke-width:0.5;"/><path d="M238,69 L238,79 L248,79 L238,69 " fill="#FEFFDD" style="stroke:#181818;stroke-width:1.0;"/><text fill="#000000" font-family="sans-serif" font-size="13" lengthAdjust="spacing" textLength="221" x="12" y="88.0283">- userEmail and userRole are obtained</text><text fill="#000000" font-family="sans-serif" font-size="13" lengthAdjust="spacing" textLength="129" x="12" y="105.3193">from the user session.</text></g><!--class ListGSManagedByMeUI--><g id="elem_ListGSManagedByMeUI"><rect codeLine="102" fill="#F1F1F1" height="85.2422" id="ListGSManagedByMeUI" rx="2.5" ry="2.5" style="stroke:#181818;stroke-width:0.5;" width="190" x="283" y="49"/><ellipse cx="302.5" cy="65" fill="#ADD1B2" rx="11" ry="11" style="stroke:#181818;stroke-width:1.0;"/><path d="M305.2656,60.875 Q305.4219,60.6563 305.6094,60.5469 Q305.7969,60.4375 306.0156,60.4375 Q306.3906,60.4375 306.625,60.7031 Q306.8594,60.9531 306.8594,61.5625 L306.8594,63.0156 Q306.8594,63.625 306.625,63.8906 Q306.3906,64.1563 306.0156,64.1563 Q305.6719,64.1563 305.4688,63.9531 Q305.2656,63.7656 305.1563,63.25 Q305.1094,62.8906 304.9219,62.7031 Q304.5938,62.3281 303.9844,62.1094 Q303.375,61.8906 302.75,61.8906 Q301.9844,61.8906 301.3438,62.2188 Q300.7188,62.5469 300.2188,63.2969 Q299.7344,64.0469 299.7344,65.0781 L299.7344,66.1719 Q299.7344,67.4063 300.625,68.2344 Q301.5156,69.0469 303.1094,69.0469 Q304.0469,69.0469 304.7031,68.7969 Q305.0938,68.6406 305.5156,68.2031 Q305.7813,67.9375 305.9219,67.8594 Q306.0781,67.7813 306.2813,67.7813 Q306.6094,67.7813 306.8594,68.0469 Q307.125,68.2969 307.125,68.6406 Q307.125,68.9844 306.7813,69.3906 Q306.2813,69.9688 305.4844,70.2969 Q304.4063,70.75 303.1094,70.75 Q301.5938,70.75 300.3906,70.125 Q299.4063,69.625 298.7188,68.5625 Q298.0313,67.4844 298.0313,66.2031 L298.0313,65.0469 Q298.0313,63.7188 298.6406,62.5781 Q299.2656,61.4219 300.3594,60.8125 Q301.4531,60.1875 302.6875,60.1875 Q303.4219,60.1875 304.0625,60.3594 Q304.7188,60.5156 305.2656,60.875 Z " fill="#000000"/><text fill="#000000" font-family="sans-serif" font-size="14" lengthAdjust="spacing" textLength="148" x="317.5" y="70.7969">ListGSManagedByMeUI</text><line style="stroke:#181818;stroke-width:0.5;" x1="284" x2="472" y1="81" y2="81"/><line style="stroke:#181818;stroke-width:0.5;" x1="284" x2="472" y1="89" y2="89"/><text fill="#000000" font-family="sans-serif" font-size="14" lengthAdjust="spacing" textLength="178" x="289" y="108.1074">+listThisGsmGreenSpaces()</text><text fill="#000000" font-family="sans-serif" font-size="14" lengthAdjust="spacing" textLength="176" x="289" y="126.7285">+sortGreenSpaces(method)</text></g><!--reverse link SortingAlgorithms to SortingConfigAdapter--><g id="link_SortingAlgorithms_SortingConfigAdapter"><path codeLine="79" d="M1810,1356.28 C1810,1374.94 1810,1380.25 1810,1398.89 " fill="none" id="SortingAlgorithms-backto-SortingConfigAdapter" style="stroke:#181818;stroke-width:1.0;stroke-dasharray:7.0,7.0;"/><polygon fill="none" points="1810,1338.28,1804,1356.28,1816,1356.28,1810,1338.28" style="stroke:#181818;stroke-width:1.0;"/></g><!--link GMN16 to ListGSManagedByMeController--><g id="link_GMN16_ListGSManagedByMeController"><path d="M168.26,68.81 C214.33,43.48 282.5,6 282.5,6 C282.5,6 472.5,6 472.5,6 C472.5,6 522.29,16.66 586.71,30.44 " fill="none" id="GMN16-ListGSManagedByMeController" style="stroke:#181818;stroke-width:1.0;stroke-dasharray:7.0,7.0;"/></g><!--link ListGSManagedByMeUI to ListGSManagedByMeController--><g id="link_ListGSManagedByMeUI_ListGSManagedByMeController"><path codeLine="107" d="M473.25,91.5 C492.87,91.5 508.59,91.5 531.45,91.5 " fill="none" id="ListGSManagedByMeUI-to-ListGSManagedByMeController" style="stroke:#181818;stroke-width:1.0;stroke-dasharray:7.0,7.0;"/><polygon fill="#181818" points="537.45,91.5,528.45,87.5,532.45,91.5,528.45,95.5,537.45,91.5" style="stroke:#181818;stroke-width:1.0;"/><text fill="#000000" font-family="sans-serif" font-size="13" lengthAdjust="spacing" textLength="28" x="491.25" y="84.5283">uses</text></g><!--link ListGSManagedByMeController to Repositories--><g id="link_ListGSManagedByMeController_Repositories"><path codeLine="109" d="M1206.52,91.5 C1249.91,91.5 1287.08,91.5 1326.92,91.5 " fill="none" id="ListGSManagedByMeController-to-Repositories" style="stroke:#181818;stroke-width:1.0;stroke-dasharray:7.0,7.0;"/><polygon fill="#181818" points="1332.92,91.5,1323.92,87.5,1327.92,91.5,1323.92,95.5,1332.92,91.5" style="stroke:#181818;stroke-width:1.0;"/><text fill="#000000" font-family="sans-serif" font-size="13" lengthAdjust="spacing" textLength="67" x="1236.25" y="84.5283">repositories</text></g><!--link ListGSManagedByMeController to AuthenticationRepository--><g id="link_ListGSManagedByMeController_AuthenticationRepository"><path codeLine="110" d="M865.7,152.66 C862.93,179.2 860.3935,203.4025 858.0635,225.7025 " fill="none" id="ListGSManagedByMeController-to-AuthenticationRepository" style="stroke:#181818;stroke-width:1.0;stroke-dasharray:7.0,7.0;"/><polygon fill="#181818" points="857.44,231.67,862.3536,223.1344,857.9596,226.6971,854.3969,222.3031,857.44,231.67" style="stroke:#181818;stroke-width:1.0;"/></g><!--link ListGSManagedByMeController to OrganizationRepository--><g id="link_ListGSManagedByMeController_OrganizationRepository"><path codeLine="111" d="M1115.6,152.59 C1254.43,186.84 1401,223 1401,223 C1401,223 1406.6362,224.8482 1422.5362,230.0382 " fill="none" id="ListGSManagedByMeController-to-OrganizationRepository" style="stroke:#181818;stroke-width:1.0;stroke-dasharray:7.0,7.0;"/><polygon fill="#181818" points="1428.24,231.9,1420.9255,225.3047,1423.4868,230.3485,1418.443,232.9098,1428.24,231.9" style="stroke:#181818;stroke-width:1.0;"/></g><!--link ListGSManagedByMeController to EmployeeRepository--><g id="link_ListGSManagedByMeController_EmployeeRepository"><path codeLine="112" d="M793.47,152.78 C748.93,186.98 702,223 702,223 C702,223 702,308 702,308 C702,308 1051.7834,528.3618 1215.6934,631.6218 " fill="none" id="ListGSManagedByMeController-to-EmployeeRepository" style="stroke:#181818;stroke-width:1.0;stroke-dasharray:7.0,7.0;"/><polygon fill="#181818" points="1220.77,634.82,1215.2872,626.6384,1216.5395,632.1549,1211.023,633.4072,1220.77,634.82" style="stroke:#181818;stroke-width:1.0;"/></g><!--link Repositories to Repositories--><g id="link_Repositories_Repositories"><path codeLine="114" d="M1711.16,75.67 C1732.31,78.65 1746,83.93 1746,91.5 C1746,99.07 1738.2513,103.5129 1717.1013,106.4929 " fill="none" id="Repositories-to-Repositories" style="stroke:#181818;stroke-width:1.0;"/><polygon fill="#181818" points="1711.16,107.33,1720.6301,110.0352,1716.1111,106.6324,1719.5139,102.1134,1711.16,107.33" style="stroke:#181818;stroke-width:1.0;"/><text fill="#000000" font-family="sans-serif" font-size="13" lengthAdjust="spacing" textLength="49" x="1752" y="97.0283">instance</text></g><!--link Repositories to AuthenticationRepository--><g id="link_Repositories_AuthenticationRepository"><path codeLine="115" d="M1332.81,141.21 C1219.97,170.27 1085.6004,204.8637 986.1504,230.4737 " fill="none" id="Repositories-to-AuthenticationRepository" style="stroke:#181818;stroke-width:1.0;"/><polygon fill="#181818" points="980.34,231.97,990.0532,233.5992,985.182,230.7231,988.0581,225.852,980.34,231.97" style="stroke:#181818;stroke-width:1.0;"/><text fill="#000000" font-family="sans-serif" font-size="13" lengthAdjust="spacing" textLength="7" x="995.9886" y="221.3108">1</text></g><!--link Repositories to EmployeeRepository--><g id="link_Repositories_EmployeeRepository"><path codeLine="116" d="M1593.17,162.33 C1624.79,193.36 1655,223 1655,223 C1655,223 1655,565 1655,565 C1655,565 1393,626 1393,626 C1393,626 1394.2628,625.1828 1388.2728,629.1228 " fill="none" id="Repositories-to-EmployeeRepository" style="stroke:#181818;stroke-width:1.0;"/><polygon fill="#181818" points="1383.26,632.42,1392.9774,630.816,1387.4373,629.6723,1388.5811,624.1323,1383.26,632.42" style="stroke:#181818;stroke-width:1.0;"/><text fill="#000000" font-family="sans-serif" font-size="13" lengthAdjust="spacing" textLength="7" x="1391.0738" y="623.6242">1</text></g><!--link Repositories to OrganizationRepository--><g id="link_Repositories_OrganizationRepository"><path codeLine="117" d="M1524.44,162.46 C1525.28,186.45 1525.959,206.1837 1526.649,225.7937 " fill="none" id="Repositories-to-OrganizationRepository" style="stroke:#181818;stroke-width:1.0;"/><polygon fill="#181818" points="1526.86,231.79,1530.541,222.6549,1526.6842,226.7931,1522.546,222.9362,1526.86,231.79" style="stroke:#181818;stroke-width:1.0;"/><text fill="#000000" font-family="sans-serif" font-size="13" lengthAdjust="spacing" textLength="7" x="1518.9755" y="220.8359">1</text></g><!--link OrganizationRepository to Organization--><g id="link_OrganizationRepository_Organization"><path codeLine="119" d="M1508.78,299.08 C1494.86,322.67 1478.3888,350.5923 1460.0288,381.7123 " fill="none" id="OrganizationRepository-to-Organization" style="stroke:#181818;stroke-width:1.0;"/><polygon fill="#181818" points="1456.98,386.88,1464.9983,381.161,1459.5207,382.5736,1458.1081,377.096,1456.98,386.88" style="stroke:#181818;stroke-width:1.0;"/><text fill="#000000" font-family="sans-serif" font-size="13" lengthAdjust="spacing" textLength="77" x="1485" y="353.0283">organizations</text><text fill="#000000" font-family="sans-serif" font-size="13" lengthAdjust="spacing" textLength="5" x="1456.0776" y="375.8218">*</text></g><!--link Organization to EmployeeRepository--><g id="link_Organization_EmployeeRepository"><path codeLine="120" d="M1361.62,565.03 C1351.5,585.56 1343.6126,601.5682 1334.2526,620.5582 " fill="none" id="Organization-to-EmployeeRepository" style="stroke:#181818;stroke-width:1.0;"/><polygon fill="#181818" points="1331.6,625.94,1339.1668,619.6358,1333.8105,621.4552,1331.9911,616.0989,1331.6,625.94" style="stroke:#181818;stroke-width:1.0;"/><text fill="#000000" font-family="sans-serif" font-size="13" lengthAdjust="spacing" textLength="7" x="1350.5913" y="587.4374">1</text><text fill="#000000" font-family="sans-serif" font-size="13" lengthAdjust="spacing" textLength="7" x="1327.6178" y="614.9143">1</text></g><!--link Organization to Employee--><g id="link_Organization_Employee"><path codeLine="121" d="M1403.7,565.36 C1402.53,644.44 1401,748 1401,748 C1401,748 1400,797 1400,797 C1400,797 1399.3713,802.8455 1397.4013,820.8855 " fill="none" id="Organization-to-Employee" style="stroke:#181818;stroke-width:1.0;"/><polygon fill="#181818" points="1396.75,826.85,1401.7034,818.3374,1397.2928,821.8795,1393.7506,817.469,1396.75,826.85" style="stroke:#181818;stroke-width:1.0;"/><text fill="#000000" font-family="sans-serif" font-size="13" lengthAdjust="spacing" textLength="49" x="1403" y="692.5283">employs</text><text fill="#000000" font-family="sans-serif" font-size="13" lengthAdjust="spacing" textLength="7" x="1396.3025" y="587.49">1</text><text fill="#000000" font-family="sans-serif" font-size="13" lengthAdjust="spacing" textLength="5" x="1392.4777" y="815.8296">*</text></g><!--link AuthenticationRepository to UserSession--><g id="link_AuthenticationRepository_UserSession"><path codeLine="123" d="M988.11,265.5 C1022.4,265.5 1053.42,265.5 1088.22,265.5 " fill="none" id="AuthenticationRepository-to-UserSession" style="stroke:#181818;stroke-width:1.0;"/><polygon fill="#181818" points="1094.22,265.5,1085.22,261.5,1089.22,265.5,1085.22,269.5,1094.22,265.5" style="stroke:#181818;stroke-width:1.0;"/><text fill="#000000" font-family="sans-serif" font-size="13" lengthAdjust="spacing" textLength="70" x="1006.25" y="258.5283">usersession</text><text fill="#000000" font-family="sans-serif" font-size="13" lengthAdjust="spacing" textLength="7" x="1079.5743" y="262.0913">1</text></g><!--link EmployeeRepository to Employee--><g id="link_EmployeeRepository_Employee"><path codeLine="125" d="M1316.11,748.28 C1321.45,771.13 1326.4939,792.6476 1333.1039,820.9176 " fill="none" id="EmployeeRepository-to-Employee" style="stroke:#181818;stroke-width:1.0;"/><polygon fill="#181818" points="1334.47,826.76,1336.3159,817.0857,1333.3316,821.8913,1328.526,818.9071,1334.47,826.76" style="stroke:#181818;stroke-width:1.0;"/><text fill="#000000" font-family="sans-serif" font-size="13" lengthAdjust="spacing" textLength="64" x="1327" y="793.0283">aggregates</text><text fill="#000000" font-family="sans-serif" font-size="13" lengthAdjust="spacing" textLength="7" x="1310.3368" y="770.3655">1</text><text fill="#000000" font-family="sans-serif" font-size="13" lengthAdjust="spacing" textLength="5" x="1327.5703" y="815.7358">*</text></g><!--link Employee to GreenSpaces--><g id="link_Employee_GreenSpaces"><path codeLine="127" d="M1580.19,1009.5 C1610.51,1009.5 1635.18,1009.5 1663.81,1009.5 " fill="none" id="Employee-to-GreenSpaces" style="stroke:#181818;stroke-width:1.0;"/><polygon fill="#181818" points="1669.81,1009.5,1660.81,1005.5,1664.81,1009.5,1660.81,1013.5,1669.81,1009.5" style="stroke:#181818;stroke-width:1.0;"/><text fill="#000000" font-family="sans-serif" font-size="13" lengthAdjust="spacing" textLength="53" x="1598.5" y="1002.5283">manages</text><text fill="#000000" font-family="sans-serif" font-size="13" lengthAdjust="spacing" textLength="7" x="1588.2638" y="1006.2106">1</text><text fill="#000000" font-family="sans-serif" font-size="13" lengthAdjust="spacing" textLength="7" x="1654.952" y="1006.0648">1</text></g><!--link GreenSpaces to GreenSpace--><g id="link_GreenSpaces_GreenSpace"><path codeLine="128" d="M1950.17,1009.5 C1980.58,1009.5 2005.05,1009.5 2029.9,1009.5 " fill="none" id="GreenSpaces-to-GreenSpace" style="stroke:#181818;stroke-width:1.0;"/><polygon fill="#181818" points="2035.9,1009.5,2026.9,1005.5,2030.9,1009.5,2026.9,1013.5,2035.9,1009.5" style="stroke:#181818;stroke-width:1.0;"/><text fill="#000000" font-family="sans-serif" font-size="13" lengthAdjust="spacing" textLength="49" x="1968.5" y="1002.5283">contains</text><text fill="#000000" font-family="sans-serif" font-size="13" lengthAdjust="spacing" textLength="7" x="1958.027" y="1006.0648">1</text><text fill="#000000" font-family="sans-serif" font-size="13" lengthAdjust="spacing" textLength="5" x="2023.0256" y="1005.4057">*</text></g><!--link GreenSpaces to SortingAlgorithms--><g id="link_GreenSpaces_SortingAlgorithms"><path codeLine="130" d="M1810,1052.17 C1810,1110.94 1810,1210.99 1810,1264.59 " fill="none" id="GreenSpaces-to-SortingAlgorithms" style="stroke:#181818;stroke-width:1.0;"/><polygon fill="#181818" points="1810,1270.59,1814,1261.59,1810,1265.59,1806,1261.59,1810,1270.59" style="stroke:#181818;stroke-width:1.0;"/><text fill="#000000" font-family="sans-serif" font-size="13" lengthAdjust="spacing" textLength="28" x="1811" y="1237.0283">uses</text><text fill="#000000" font-family="sans-serif" font-size="13" lengthAdjust="spacing" textLength="7" x="1802.4422" y="1074.3574">1</text><text fill="#000000" font-family="sans-serif" font-size="13" lengthAdjust="spacing" textLength="7" x="1802.3547" y="1259.8607">1</text></g><!--link SortingConfigAdapter to ConfigManager--><g id="link_SortingConfigAdapter_ConfigManager"><path codeLine="131" d="M1810,1466.18 C1810,1489.74 1810,1515.42 1810,1538.95 " fill="none" id="SortingConfigAdapter-to-ConfigManager" style="stroke:#181818;stroke-width:1.0;"/><polygon fill="#181818" points="1810,1544.95,1814,1535.95,1810,1539.95,1806,1535.95,1810,1544.95" style="stroke:#181818;stroke-width:1.0;"/><text fill="#000000" font-family="sans-serif" font-size="13" lengthAdjust="spacing" textLength="28" x="1811" y="1511.0283">uses</text><text fill="#000000" font-family="sans-serif" font-size="13" lengthAdjust="spacing" textLength="7" x="1802.3766" y="1487.7813">1</text><text fill="#000000" font-family="sans-serif" font-size="13" lengthAdjust="spacing" textLength="7" x="1802.3109" y="1533.7657">1</text></g><!--SRC=[fLPRJzim57xFhx1u8R2ssbuhX5HAnJh19X7GdjtaDF58xCXs1u7jl-_aQgTn0jBwKCNdVEVgS_6fUc8yfv9c91DSX8aK6H0j3-0PJax39nf3e8iKY8HGKnwdDa0bD1BFZCTaJrDbSrB6GHSva5oaHNdmJXrC8RNmBAamfKgjj9PiTz2m3GKFs2kGpvvtci9U4os8P76YISHATvZWdbV9aDL19y0r2sb9lOTSAAQ5BCYRH_3tYSIWrmSf4VEeG0QW5EByCx8arjdxs-gpY9qAfcv574EqvJ-PJkv52hx4loK9q64Ubxgk118eDpPBFTl8Xuoor0RMNyPUvp43rHYSzuZ-cL6wvGgl8eJAVHja86Fvg4J6c4RyXumfPwykOJVBY6woF1K5m97Oa6o2Twkqhyv6N1LsKi_SQheSreacd6RGf_oc-liXsu7ia_D4y2DaPQSXhQ98ObbWMUCLfCsfyTEsxvS6PyR8Z3p3Bc0QQPM5MQrrrbVKtZ7bHPklhrGz94oDXDoY9iAzfXh8ZacTHFXb4scKiQh2hmrZFBwFPgWXiUXQX0_Ov0xo8SFgSoLVqvUS5cMa3VsRs95VOjUaPIqod1Fm87m3R5EsJj6hhacqg3LsXAHEuwPqjCrYpKcPqYNhHcKt4e07EFMmtGwOy8sDmoeCS5wXqbKQOxVf93DDgP1ZIyVcUqbkqSA5uLxEI0Ow4P7Z7WVLFoUkVchB98emGJucQ5bcoewebJ8kLa5lNf2d1cLad2DlI6HSWzoNfq74TbEwqj6fR9XhmVSiNaKqHvKV41uQlFYpM3YrjPPguXtbkAgC2GaqwadvpdXDG7kMebABKy-PVh5CtBFZLikBlmbgpwAhuWxG4uqh8-tyd4zX_B4vFNCFpDcmLDufyl-jxLxCNE1CgTQqs4-5rGJUDHXEkwWwbHkLO7yJiTCKdmZr4DZZouHW7Ye8KVLENdY0GgN5qLm_RhkhVIVwum2jc5nQ5vUJ5xii7LKEKGk3AdeBVudbQctn2L6K7DtUqs8ZUtjQoB6rlPxdyq4ah7cS7E4GUFBbPDnv9zfXteaRYSqRULXKOkTzCVHSM4VLawsCJ3ZbnfuRB6g7wXCBO_IfskYtdvvLCSccw3tFiIP6hD4OspJ6lQwCL8sjZTWJS4cowlgLPrDRyBaDHYm-oilkHBq3TADxECERdd3k15koFyfhgNy0]--></g></svg>