<?xml version="1.0" encoding="us-ascii" standalone="no"?><svg xmlns="http://www.w3.org/2000/svg" xmlns:xlink="http://www.w3.org/1999/xlink" contentStyleType="text/css" height="451px" preserveAspectRatio="none" style="width:415px;height:451px;background:#FFFFFF;" version="1.1" viewBox="0 0 415 451" width="415px" zoomAndPan="magnify"><defs/><g><text fill="#000000" font-family="sans-serif" font-size="14" font-weight="bold" lengthAdjust="spacing" textLength="276" x="68.5" y="30.1074">System Sequence Diagram (SSD) - US25</text><rect fill="#FFFFFF" height="188.7461" style="stroke:#181818;stroke-width:1.0;" width="10" x="77" y="151.8633"/><rect fill="#FFFFFF" height="31.291" style="stroke:#181818;stroke-width:1.0;" width="10" x="372" y="175.1543"/><rect fill="#FFFFFF" height="31.291" style="stroke:#181818;stroke-width:1.0;" width="10" x="372" y="237.7363"/><rect fill="#FFFFFF" height="31.291" style="stroke:#181818;stroke-width:1.0;" width="10" x="372" y="300.3184"/><line style="stroke:#181818;stroke-width:0.5;stroke-dasharray:5.0,5.0;" x1="82" x2="82" y1="141.8633" y2="349.6094"/><line style="stroke:#181818;stroke-width:0.5;stroke-dasharray:5.0,5.0;" x1="377" x2="377" y1="141.8633" y2="349.6094"/><text fill="#000000" font-family="sans-serif" font-size="14" lengthAdjust="spacing" textLength="144" x="5" y="119.7285">Green Space Manager</text><text fill="#000000" font-family="sans-serif" font-size="14" lengthAdjust="spacing" textLength="56" x="51" y="138.3496">Manager</text><ellipse cx="82" cy="53.1211" fill="#E2E2F0" rx="8" ry="8" style="stroke:#181818;stroke-width:0.5;"/><path d="M82,61.1211 L82,88.1211 M69,69.1211 L95,69.1211 M82,88.1211 L69,103.1211 M82,88.1211 L95,103.1211 " fill="none" style="stroke:#181818;stroke-width:0.5;"/><text fill="#000000" font-family="sans-serif" font-size="14" lengthAdjust="spacing" textLength="144" x="5" y="363.7168">Green Space Manager</text><text fill="#000000" font-family="sans-serif" font-size="14" lengthAdjust="spacing" textLength="56" x="51" y="382.3379">Manager</text><ellipse cx="82" cy="394.3516" fill="#E2E2F0" rx="8" ry="8" style="stroke:#181818;stroke-width:0.5;"/><path d="M82,402.3516 L82,429.3516 M69,410.3516 L95,410.3516 M82,429.3516 L69,444.3516 M82,429.3516 L95,444.3516 " fill="none" style="stroke:#181818;stroke-width:0.5;"/><rect fill="#E2E2F0" height="32.6211" rx="2.5" ry="2.5" style="stroke:#181818;stroke-width:0.5;" width="64" x="345" y="108.2422"/><text fill="#000000" font-family="sans-serif" font-size="14" lengthAdjust="spacing" textLength="50" x="352" y="130.3496">:System</text><rect fill="#E2E2F0" height="32.6211" rx="2.5" ry="2.5" style="stroke:#181818;stroke-width:0.5;" width="64" x="345" y="348.6094"/><text fill="#000000" font-family="sans-serif" font-size="14" lengthAdjust="spacing" textLength="50" x="352" y="370.7168">:System</text><rect fill="#FFFFFF" height="188.7461" style="stroke:#181818;stroke-width:1.0;" width="10" x="77" y="151.8633"/><rect fill="#FFFFFF" height="31.291" style="stroke:#181818;stroke-width:1.0;" width="10" x="372" y="175.1543"/><rect fill="#FFFFFF" height="31.291" style="stroke:#181818;stroke-width:1.0;" width="10" x="372" y="237.7363"/><rect fill="#FFFFFF" height="31.291" style="stroke:#181818;stroke-width:1.0;" width="10" x="372" y="300.3184"/><polygon fill="#181818" points="360,171.1543,370,175.1543,360,179.1543,364,175.1543" style="stroke:#181818;stroke-width:1.0;"/><line style="stroke:#181818;stroke-width:1.0;" x1="87" x2="366" y1="175.1543" y2="175.1543"/><text fill="#000000" font-family="sans-serif" font-size="13" font-weight="bold" lengthAdjust="spacing" textLength="7" x="94" y="169.8916">1</text><text fill="#000000" font-family="sans-serif" font-size="13" lengthAdjust="spacing" textLength="87" x="105" y="169.8916">list GSM tasks</text><polygon fill="#181818" points="98,202.4453,88,206.4453,98,210.4453,94,206.4453" style="stroke:#181818;stroke-width:1.0;"/><line style="stroke:#181818;stroke-width:1.0;stroke-dasharray:2.0,2.0;" x1="92" x2="376" y1="206.4453" y2="206.4453"/><text fill="#000000" font-family="sans-serif" font-size="13" font-weight="bold" lengthAdjust="spacing" textLength="7" x="104" y="201.1826">2</text><text fill="#000000" font-family="sans-serif" font-size="13" lengthAdjust="spacing" textLength="250" x="115" y="201.1826">list task, ask to select task to be cancelled</text><polygon fill="#181818" points="360,233.7363,370,237.7363,360,241.7363,364,237.7363" style="stroke:#181818;stroke-width:1.0;"/><line style="stroke:#181818;stroke-width:1.0;" x1="87" x2="366" y1="237.7363" y2="237.7363"/><text fill="#000000" font-family="sans-serif" font-size="13" font-weight="bold" lengthAdjust="spacing" textLength="7" x="94" y="232.4736">3</text><text fill="#000000" font-family="sans-serif" font-size="13" lengthAdjust="spacing" textLength="122" x="105" y="232.4736">types requested data</text><polygon fill="#181818" points="98,265.0273,88,269.0273,98,273.0273,94,269.0273" style="stroke:#181818;stroke-width:1.0;"/><line style="stroke:#181818;stroke-width:1.0;stroke-dasharray:2.0,2.0;" x1="92" x2="376" y1="269.0273" y2="269.0273"/><text fill="#000000" font-family="sans-serif" font-size="13" font-weight="bold" lengthAdjust="spacing" textLength="7" x="104" y="263.7646">4</text><text fill="#000000" font-family="sans-serif" font-size="13" lengthAdjust="spacing" textLength="236" x="115" y="263.7646">shows all data and requests confirmation</text><polygon fill="#181818" points="360,296.3184,370,300.3184,360,304.3184,364,300.3184" style="stroke:#181818;stroke-width:1.0;"/><line style="stroke:#181818;stroke-width:1.0;" x1="87" x2="366" y1="300.3184" y2="300.3184"/><text fill="#000000" font-family="sans-serif" font-size="13" font-weight="bold" lengthAdjust="spacing" textLength="7" x="94" y="295.0557">5</text><text fill="#000000" font-family="sans-serif" font-size="13" lengthAdjust="spacing" textLength="78" x="105" y="295.0557">confirms data</text><polygon fill="#181818" points="98,327.6094,88,331.6094,98,335.6094,94,331.6094" style="stroke:#181818;stroke-width:1.0;"/><line style="stroke:#181818;stroke-width:1.0;stroke-dasharray:2.0,2.0;" x1="92" x2="376" y1="331.6094" y2="331.6094"/><text fill="#000000" font-family="sans-serif" font-size="13" font-weight="bold" lengthAdjust="spacing" textLength="7" x="104" y="326.3467">6</text><text fill="#000000" font-family="sans-serif" font-size="13" lengthAdjust="spacing" textLength="158" x="115" y="326.3467">displays operation success</text><!--SRC=[dL2zJWCn3DxlAQnE8D45YQK3KwLEdI8s5ZTnhz7bd2FsKTtRuqkl5K8m54-E_Vt5qaKUi60FVURiJoNt14TCGetSLWFw3bjoEYM2GbwHs_GT82SC-HovNQYDHZMecqIf1qSV8x4ds4PiP_Y3Szj7MCERUtvf6XmryzWVg5ZlDHTOxGeHWpDVWZsoUHTuvwLR0GhitBunRuq-3iWAgyt5h2ulRLMBdwXKqGrOMGFhrskm3QGeMeUAqac5t4XN5LXg8QsDFpCMyanyCjCED8DGiklKsVmy47YqZwT4eSe4-bNzPogT1X8xj9tD9W42AjwPJKxvB80fLJ8WXwkUWCzyZAL7ZPdlYRNmv3zvGfGXuIIG1ohL6MJqdaJ-IF05]--></g></svg>