<?xml version="1.0" encoding="us-ascii" standalone="no"?><svg xmlns="http://www.w3.org/2000/svg" xmlns:xlink="http://www.w3.org/1999/xlink" contentStyleType="text/css" height="848px" preserveAspectRatio="none" style="width:749px;height:848px;background:#FFFFFF;" version="1.1" viewBox="0 0 749 848" width="749px" zoomAndPan="magnify"><defs/><g><!--class CreateVehicleUI--><g id="elem_CreateVehicleUI"><rect codeLine="11" fill="#F1F1F1" height="48" id="CreateVehicleUI" rx="2.5" ry="2.5" style="stroke:#181818;stroke-width:0.5;" width="133" x="410.5" y="7"/><ellipse cx="425.5" cy="23" fill="#ADD1B2" rx="11" ry="11" style="stroke:#181818;stroke-width:1.0;"/><path d="M428.2656,18.875 Q428.4219,18.6563 428.6094,18.5469 Q428.7969,18.4375 429.0156,18.4375 Q429.3906,18.4375 429.625,18.7031 Q429.8594,18.9531 429.8594,19.5625 L429.8594,21.0156 Q429.8594,21.625 429.625,21.8906 Q429.3906,22.1563 429.0156,22.1563 Q428.6719,22.1563 428.4688,21.9531 Q428.2656,21.7656 428.1563,21.25 Q428.1094,20.8906 427.9219,20.7031 Q427.5938,20.3281 426.9844,20.1094 Q426.375,19.8906 425.75,19.8906 Q424.9844,19.8906 424.3438,20.2188 Q423.7188,20.5469 423.2188,21.2969 Q422.7344,22.0469 422.7344,23.0781 L422.7344,24.1719 Q422.7344,25.4063 423.625,26.2344 Q424.5156,27.0469 426.1094,27.0469 Q427.0469,27.0469 427.7031,26.7969 Q428.0938,26.6406 428.5156,26.2031 Q428.7813,25.9375 428.9219,25.8594 Q429.0781,25.7813 429.2813,25.7813 Q429.6094,25.7813 429.8594,26.0469 Q430.125,26.2969 430.125,26.6406 Q430.125,26.9844 429.7813,27.3906 Q429.2813,27.9688 428.4844,28.2969 Q427.4063,28.75 426.1094,28.75 Q424.5938,28.75 423.3906,28.125 Q422.4063,27.625 421.7188,26.5625 Q421.0313,25.4844 421.0313,24.2031 L421.0313,23.0469 Q421.0313,21.7188 421.6406,20.5781 Q422.2656,19.4219 423.3594,18.8125 Q424.4531,18.1875 425.6875,18.1875 Q426.4219,18.1875 427.0625,18.3594 Q427.7188,18.5156 428.2656,18.875 Z " fill="#000000"/><text fill="#000000" font-family="sans-serif" font-size="14" lengthAdjust="spacing" textLength="101" x="439.5" y="28.7969">CreateVehicleUI</text><line style="stroke:#181818;stroke-width:0.5;" x1="411.5" x2="542.5" y1="39" y2="39"/><line style="stroke:#181818;stroke-width:0.5;" x1="411.5" x2="542.5" y1="47" y2="47"/></g><!--class Vehicle--><g id="elem_Vehicle"><rect codeLine="21" fill="#F1F1F1" height="290.0742" id="Vehicle" rx="2.5" ry="2.5" style="stroke:#181818;stroke-width:0.5;" width="250" x="492" y="551"/><ellipse cx="589.75" cy="567" fill="#ADD1B2" rx="11" ry="11" style="stroke:#181818;stroke-width:1.0;"/><path d="M592.5156,562.875 Q592.6719,562.6563 592.8594,562.5469 Q593.0469,562.4375 593.2656,562.4375 Q593.6406,562.4375 593.875,562.7031 Q594.1094,562.9531 594.1094,563.5625 L594.1094,565.0156 Q594.1094,565.625 593.875,565.8906 Q593.6406,566.1563 593.2656,566.1563 Q592.9219,566.1563 592.7188,565.9531 Q592.5156,565.7656 592.4063,565.25 Q592.3594,564.8906 592.1719,564.7031 Q591.8438,564.3281 591.2344,564.1094 Q590.625,563.8906 590,563.8906 Q589.2344,563.8906 588.5938,564.2188 Q587.9688,564.5469 587.4688,565.2969 Q586.9844,566.0469 586.9844,567.0781 L586.9844,568.1719 Q586.9844,569.4063 587.875,570.2344 Q588.7656,571.0469 590.3594,571.0469 Q591.2969,571.0469 591.9531,570.7969 Q592.3438,570.6406 592.7656,570.2031 Q593.0313,569.9375 593.1719,569.8594 Q593.3281,569.7813 593.5313,569.7813 Q593.8594,569.7813 594.1094,570.0469 Q594.375,570.2969 594.375,570.6406 Q594.375,570.9844 594.0313,571.3906 Q593.5313,571.9688 592.7344,572.2969 Q591.6563,572.75 590.3594,572.75 Q588.8438,572.75 587.6406,572.125 Q586.6563,571.625 585.9688,570.5625 Q585.2813,569.4844 585.2813,568.2031 L585.2813,567.0469 Q585.2813,565.7188 585.8906,564.5781 Q586.5156,563.4219 587.6094,562.8125 Q588.7031,562.1875 589.9375,562.1875 Q590.6719,562.1875 591.3125,562.3594 Q591.9688,562.5156 592.5156,562.875 Z " fill="#000000"/><text fill="#000000" font-family="sans-serif" font-size="14" lengthAdjust="spacing" textLength="46" x="610.25" y="572.7969">Vehicle</text><line style="stroke:#181818;stroke-width:0.5;" x1="493" x2="741" y1="583" y2="583"/><text fill="#000000" font-family="sans-serif" font-size="14" lengthAdjust="spacing" textLength="93" x="498" y="602.1074">-Plateid: String</text><text fill="#000000" font-family="sans-serif" font-size="14" lengthAdjust="spacing" textLength="87" x="498" y="620.7285">-brand: String</text><text fill="#000000" font-family="sans-serif" font-size="14" lengthAdjust="spacing" textLength="88" x="498" y="639.3496">-model: String</text><text fill="#000000" font-family="sans-serif" font-size="14" lengthAdjust="spacing" textLength="94" x="498" y="657.9707">-plateID: String</text><text fill="#000000" font-family="sans-serif" font-size="14" lengthAdjust="spacing" textLength="82" x="498" y="676.5918">-Type: String</text><text fill="#000000" font-family="sans-serif" font-size="14" lengthAdjust="spacing" textLength="58" x="498" y="695.2129">-Tare: int</text><text fill="#000000" font-family="sans-serif" font-size="14" lengthAdjust="spacing" textLength="114" x="498" y="713.834">-Gross Weight: int</text><text fill="#000000" font-family="sans-serif" font-size="14" lengthAdjust="spacing" textLength="79" x="498" y="732.4551">-Current km:</text><text fill="#000000" font-family="sans-serif" font-size="14" lengthAdjust="spacing" textLength="137" x="498" y="751.0762">-Register Date: String</text><text fill="#000000" font-family="sans-serif" font-size="14" lengthAdjust="spacing" textLength="152" x="498" y="769.6973">-Acquisition Date: String</text><line style="stroke:#181818;stroke-width:0.5;" x1="493" x2="741" y1="777.2109" y2="777.2109"/><text fill="#000000" font-family="sans-serif" font-size="14" lengthAdjust="spacing" textLength="238" x="498" y="796.3184">-Maintainance Frequency (in kms): int</text><text fill="#000000" font-family="sans-serif" font-size="14" lengthAdjust="spacing" textLength="210" x="498" y="814.9395">-Checkup Frequency (in kms): int</text><text fill="#000000" font-family="sans-serif" font-size="14" lengthAdjust="spacing" textLength="108" x="498" y="833.5605">+createVehicle ()</text></g><!--class Repositories--><g id="elem_Repositories"><rect codeLine="38" fill="#F1F1F1" height="122.4844" id="Repositories" rx="2.5" ry="2.5" style="stroke:#181818;stroke-width:0.5;" width="208" x="7" y="368"/><ellipse cx="67.25" cy="384" fill="#ADD1B2" rx="11" ry="11" style="stroke:#181818;stroke-width:1.0;"/><path d="M70.0156,379.875 Q70.1719,379.6563 70.3594,379.5469 Q70.5469,379.4375 70.7656,379.4375 Q71.1406,379.4375 71.375,379.7031 Q71.6094,379.9531 71.6094,380.5625 L71.6094,382.0156 Q71.6094,382.625 71.375,382.8906 Q71.1406,383.1563 70.7656,383.1563 Q70.4219,383.1563 70.2188,382.9531 Q70.0156,382.7656 69.9063,382.25 Q69.8594,381.8906 69.6719,381.7031 Q69.3438,381.3281 68.7344,381.1094 Q68.125,380.8906 67.5,380.8906 Q66.7344,380.8906 66.0938,381.2188 Q65.4688,381.5469 64.9688,382.2969 Q64.4844,383.0469 64.4844,384.0781 L64.4844,385.1719 Q64.4844,386.4063 65.375,387.2344 Q66.2656,388.0469 67.8594,388.0469 Q68.7969,388.0469 69.4531,387.7969 Q69.8438,387.6406 70.2656,387.2031 Q70.5313,386.9375 70.6719,386.8594 Q70.8281,386.7813 71.0313,386.7813 Q71.3594,386.7813 71.6094,387.0469 Q71.875,387.2969 71.875,387.6406 Q71.875,387.9844 71.5313,388.3906 Q71.0313,388.9688 70.2344,389.2969 Q69.1563,389.75 67.8594,389.75 Q66.3438,389.75 65.1406,389.125 Q64.1563,388.625 63.4688,387.5625 Q62.7813,386.4844 62.7813,385.2031 L62.7813,384.0469 Q62.7813,382.7188 63.3906,381.5781 Q64.0156,380.4219 65.1094,379.8125 Q66.2031,379.1875 67.4375,379.1875 Q68.1719,379.1875 68.8125,379.3594 Q69.4688,379.5156 70.0156,379.875 Z " fill="#000000"/><text fill="#000000" font-family="sans-serif" font-size="14" lengthAdjust="spacing" textLength="79" x="87.75" y="389.7969">Repositories</text><line style="stroke:#181818;stroke-width:0.5;" x1="8" x2="214" y1="400" y2="400"/><line style="stroke:#181818;stroke-width:0.5;" x1="8" x2="214" y1="408" y2="408"/><text fill="#000000" font-family="sans-serif" font-size="14" lengthAdjust="spacing" textLength="94" x="13" y="427.1074">-Repositories()</text><text fill="#000000" font-family="sans-serif" font-size="14" lengthAdjust="spacing" textLength="182" x="13" y="445.7285">+getInstance() : Repositories</text><text fill="#000000" font-family="sans-serif" font-size="14" lengthAdjust="spacing" textLength="152" x="13" y="464.3496">+getVehicleRepository()</text><text fill="#000000" font-family="sans-serif" font-size="14" lengthAdjust="spacing" textLength="196" x="13" y="482.9707">+getAuthenticationRepository()</text></g><!--class CreateVehicleController--><g id="elem_CreateVehicleController"><rect codeLine="46" fill="#F1F1F1" height="66.6211" id="CreateVehicleController" rx="2.5" ry="2.5" style="stroke:#181818;stroke-width:0.5;" width="183" x="385.5" y="116"/><ellipse cx="400.5" cy="132" fill="#ADD1B2" rx="11" ry="11" style="stroke:#181818;stroke-width:1.0;"/><path d="M403.2656,127.875 Q403.4219,127.6563 403.6094,127.5469 Q403.7969,127.4375 404.0156,127.4375 Q404.3906,127.4375 404.625,127.7031 Q404.8594,127.9531 404.8594,128.5625 L404.8594,130.0156 Q404.8594,130.625 404.625,130.8906 Q404.3906,131.1563 404.0156,131.1563 Q403.6719,131.1563 403.4688,130.9531 Q403.2656,130.7656 403.1563,130.25 Q403.1094,129.8906 402.9219,129.7031 Q402.5938,129.3281 401.9844,129.1094 Q401.375,128.8906 400.75,128.8906 Q399.9844,128.8906 399.3438,129.2188 Q398.7188,129.5469 398.2188,130.2969 Q397.7344,131.0469 397.7344,132.0781 L397.7344,133.1719 Q397.7344,134.4063 398.625,135.2344 Q399.5156,136.0469 401.1094,136.0469 Q402.0469,136.0469 402.7031,135.7969 Q403.0938,135.6406 403.5156,135.2031 Q403.7813,134.9375 403.9219,134.8594 Q404.0781,134.7813 404.2813,134.7813 Q404.6094,134.7813 404.8594,135.0469 Q405.125,135.2969 405.125,135.6406 Q405.125,135.9844 404.7813,136.3906 Q404.2813,136.9688 403.4844,137.2969 Q402.4063,137.75 401.1094,137.75 Q399.5938,137.75 398.3906,137.125 Q397.4063,136.625 396.7188,135.5625 Q396.0313,134.4844 396.0313,133.2031 L396.0313,132.0469 Q396.0313,130.7188 396.6406,129.5781 Q397.2656,128.4219 398.3594,127.8125 Q399.4531,127.1875 400.6875,127.1875 Q401.4219,127.1875 402.0625,127.3594 Q402.7188,127.5156 403.2656,127.875 Z " fill="#000000"/><text fill="#000000" font-family="sans-serif" font-size="14" lengthAdjust="spacing" textLength="151" x="414.5" y="137.7969">CreateVehicleController</text><line style="stroke:#181818;stroke-width:0.5;" x1="386.5" x2="567.5" y1="148" y2="148"/><line style="stroke:#181818;stroke-width:0.5;" x1="386.5" x2="567.5" y1="156" y2="156"/><text fill="#000000" font-family="sans-serif" font-size="14" lengthAdjust="spacing" textLength="166" x="391.5" y="175.1074">+createVehicleController()</text></g><!--class VehicleRepository--><g id="elem_VehicleRepository"><rect codeLine="50" fill="#F1F1F1" height="85.2422" id="VehicleRepository" rx="2.5" ry="2.5" style="stroke:#181818;stroke-width:0.5;" width="296" x="329" y="386.5"/><ellipse cx="415.75" cy="402.5" fill="#ADD1B2" rx="11" ry="11" style="stroke:#181818;stroke-width:1.0;"/><path d="M418.5156,398.375 Q418.6719,398.1563 418.8594,398.0469 Q419.0469,397.9375 419.2656,397.9375 Q419.6406,397.9375 419.875,398.2031 Q420.1094,398.4531 420.1094,399.0625 L420.1094,400.5156 Q420.1094,401.125 419.875,401.3906 Q419.6406,401.6563 419.2656,401.6563 Q418.9219,401.6563 418.7188,401.4531 Q418.5156,401.2656 418.4063,400.75 Q418.3594,400.3906 418.1719,400.2031 Q417.8438,399.8281 417.2344,399.6094 Q416.625,399.3906 416,399.3906 Q415.2344,399.3906 414.5938,399.7188 Q413.9688,400.0469 413.4688,400.7969 Q412.9844,401.5469 412.9844,402.5781 L412.9844,403.6719 Q412.9844,404.9063 413.875,405.7344 Q414.7656,406.5469 416.3594,406.5469 Q417.2969,406.5469 417.9531,406.2969 Q418.3438,406.1406 418.7656,405.7031 Q419.0313,405.4375 419.1719,405.3594 Q419.3281,405.2813 419.5313,405.2813 Q419.8594,405.2813 420.1094,405.5469 Q420.375,405.7969 420.375,406.1406 Q420.375,406.4844 420.0313,406.8906 Q419.5313,407.4688 418.7344,407.7969 Q417.6563,408.25 416.3594,408.25 Q414.8438,408.25 413.6406,407.625 Q412.6563,407.125 411.9688,406.0625 Q411.2813,404.9844 411.2813,403.7031 L411.2813,402.5469 Q411.2813,401.2188 411.8906,400.0781 Q412.5156,398.9219 413.6094,398.3125 Q414.7031,397.6875 415.9375,397.6875 Q416.6719,397.6875 417.3125,397.8594 Q417.9688,398.0156 418.5156,398.375 Z " fill="#000000"/><text fill="#000000" font-family="sans-serif" font-size="14" lengthAdjust="spacing" textLength="114" x="436.25" y="408.2969">VehicleRepository</text><line style="stroke:#181818;stroke-width:0.5;" x1="330" x2="624" y1="418.5" y2="418.5"/><text fill="#000000" font-family="sans-serif" font-size="14" lengthAdjust="spacing" textLength="148" x="335" y="437.6074">-vehicles: List&lt;Vehicle&gt;</text><line style="stroke:#181818;stroke-width:0.5;" x1="330" x2="624" y1="445.1211" y2="445.1211"/><text fill="#000000" font-family="sans-serif" font-size="14" lengthAdjust="spacing" textLength="284" x="335" y="464.2285">+getVehicleByIdPlate(plateId: String): Vehicle</text></g><!--link CreateVehicleUI to CreateVehicleController--><g id="link_CreateVehicleUI_CreateVehicleController"><path codeLine="59" d="M477,55.02 C477,72.39 477,90.46 477,109.83 " fill="none" id="CreateVehicleUI-to-CreateVehicleController" style="stroke:#181818;stroke-width:1.0;stroke-dasharray:7.0,7.0;"/><polygon fill="#181818" points="477,115.83,481,106.83,477,110.83,473,106.83,477,115.83" style="stroke:#181818;stroke-width:1.0;"/></g><!--link CreateVehicleController to Repositories--><g id="link_CreateVehicleController_Repositories"><path codeLine="60" d="M433.94,183.15 C374.13,228.49 269.6409,307.7147 194.9209,364.3747 " fill="none" id="CreateVehicleController-to-Repositories" style="stroke:#181818;stroke-width:1.0;stroke-dasharray:7.0,7.0;"/><polygon fill="#181818" points="190.14,368,199.7282,365.7493,194.1241,364.9789,194.8944,359.3747,190.14,368" style="stroke:#181818;stroke-width:1.0;"/></g><!--link CreateVehicleController to Vehicle--><g id="link_CreateVehicleController_Vehicle"><path codeLine="61" d="M547.02,183.07 C605.03,210.05 678,244 678,244 C678,244 678,244 678,430 C678,430 665.8252,482.8627 651.5252,545.0227 " fill="none" id="CreateVehicleController-to-Vehicle" style="stroke:#181818;stroke-width:1.0;stroke-dasharray:7.0,7.0;"/><polygon fill="#181818" points="650.18,550.87,656.0959,542.9959,651.301,545.9973,648.2996,541.2023,650.18,550.87" style="stroke:#181818;stroke-width:1.0;"/></g><!--link Repositories to Repositories--><g id="link_Repositories_Repositories"><path codeLine="62" d="M215.26,412.88 C235.58,414.75 250,420.12 250,429 C250,437.88 241.5548,442.7002 221.2348,444.5702 " fill="none" id="Repositories-to-Repositories" style="stroke:#181818;stroke-width:1.0;"/><polygon fill="#181818" points="215.26,445.12,224.5887,448.2784,220.239,444.6618,223.8556,440.3121,215.26,445.12" style="stroke:#181818;stroke-width:1.0;"/><text fill="#000000" font-family="sans-serif" font-size="13" lengthAdjust="spacing" textLength="49" x="256" y="434.5283">instance</text></g><!--link Repositories to VehicleRepository--><g id="link_Repositories_VehicleRepository"><path codeLine="63" d="M215.26,429 C225.96,429 233,429 233,429 C233,429 286.98,429 322.83,429 " fill="none" id="Repositories-to-VehicleRepository" style="stroke:#181818;stroke-width:1.0;"/><polygon fill="#181818" points="328.83,429,319.83,425,323.83,429,319.83,433,328.83,429" style="stroke:#181818;stroke-width:1.0;"/></g><!--link CreateVehicleController to VehicleRepository--><g id="link_CreateVehicleController_VehicleRepository"><path codeLine="64" d="M477,183.15 C477,233.72 477,324.95 477,380.46 " fill="none" id="CreateVehicleController-to-VehicleRepository" style="stroke:#181818;stroke-width:1.0;"/><polygon fill="#181818" points="477,386.46,481,377.46,477,381.46,473,377.46,477,386.46" style="stroke:#181818;stroke-width:1.0;"/></g><!--link VehicleRepository to Vehicle--><g id="link_VehicleRepository_Vehicle"><path codeLine="65" d="M499.03,471.7 C510.58,493.56 522.688,516.4745 537.988,545.4445 " fill="none" id="VehicleRepository-to-Vehicle" style="stroke:#181818;stroke-width:1.0;"/><polygon fill="#181818" points="540.79,550.75,540.124,540.9237,538.455,546.3287,533.0499,544.6597,540.79,550.75" style="stroke:#181818;stroke-width:1.0;"/></g><!--SRC=[VLHBRjim4Dtp5BEpZK91rqOHm7MGma2I5d4_QvgQI8GfKY57BHGZv-a9Ue9Sh2FB-jiHe8NUl9bvV3FKBEorpQMN6MJEEfLwbo6GBr1qaLoglKnmIwL1yAX8siJq2I6LiVkZRG9FqeH-n6YBLEO8kJDbzI5cPuBEanEzB6La22iYhtS5uKOvkzKl21-5c1by8Y07NYSfGQmhETfP8OuviFOe2NzYgfN17vk3UEMSElJL9zBg5rdHuI1cm4y4lsjgUCJS1KtEbqiufNTGGxOomoLiMPTD6ap6iSSGnd2UEeiFHRP3tuLU6vcd3YoZPdyph5h7BRD6TrxQCPQv6Cq8owlipSq8_SxEZY7f6TAMJjzVl6Cnlx3oie-l2-_H4kopvGbvn4G7GWytt6fKTQMU2yr6LRwU2TzBBiolj0hXrkDpWLQLCDUMwuV5e6-AQb_axx8-WEhF6EOB8LfVsv5f3AsvVP3PTP44QMC3LQBc2rWEI1rbiWdz_5L1ARkarN6b1fnEqM0XrywITyQmZuTpX-dYN6EyB5s3zcJDyYxXZgVpwKIydkZ_N6xYuuhDwrLfbshHBdlLZg_AdKxasz-tVso26DqbkBgwldGSSUcOKHHnri3STwZCRUGC9XaDIq2r3VNi9hpftRtOxnnvwdNKyOuE3NuZKJIjyHy0]--></g></svg>