<?xml version="1.0" encoding="us-ascii" standalone="no"?><svg xmlns="http://www.w3.org/2000/svg" xmlns:xlink="http://www.w3.org/1999/xlink" contentStyleType="text/css" height="1587px" preserveAspectRatio="none" style="width:1819px;height:1587px;background:#FFFFFF;" version="1.1" viewBox="0 0 1819 1587" width="1819px" zoomAndPan="magnify"><defs/><g><rect fill="#FFFFFF" height="1403.6563" style="stroke:#181818;stroke-width:1.0;" width="10" x="116" y="92.6094"/><rect fill="#FFFFFF" height="892.1953" style="stroke:#181818;stroke-width:1.0;" width="10" x="366" y="114.9609"/><rect fill="#FFFFFF" height="359.2188" style="stroke:#181818;stroke-width:1.0;" width="10" x="366" y="1037.5078"/><rect fill="#FFFFFF" height="30.3516" style="stroke:#181818;stroke-width:1.0;" width="10" x="527" y="352.7734"/><rect fill="#FFFFFF" height="30.3516" style="stroke:#181818;stroke-width:1.0;" width="10" x="680.5" y="170.6641"/><rect fill="#FFFFFF" height="91.0547" style="stroke:#181818;stroke-width:1.0;" width="10" x="680.5" y="482.1797"/><rect fill="#FFFFFF" height="366.2188" style="stroke:#181818;stroke-width:1.0;" width="10" x="680.5" y="610.5859"/><rect fill="#FFFFFF" height="298.5156" style="stroke:#181818;stroke-width:1.0;" width="10" x="680.5" y="1067.8594"/><rect fill="#FFFFFF" height="30.3516" style="stroke:#181818;stroke-width:1.0;" width="10" x="961.5" y="512.5313"/><rect fill="#FFFFFF" height="305.5156" style="stroke:#181818;stroke-width:1.0;" width="10" x="961.5" y="640.9375"/><rect fill="#FFFFFF" height="212.4609" style="stroke:#181818;stroke-width:1.0;" width="10" x="961.5" y="1123.5625"/><rect fill="#FFFFFF" height="30.3516" style="stroke:#181818;stroke-width:1.0;" width="10" x="1227.5" y="818.0469"/><rect fill="#FFFFFF" height="30.3516" style="stroke:#181818;stroke-width:1.0;" width="10" x="1560.5" y="1275.3203"/><rect fill="#FFFFFF" height="30.3516" style="stroke:#181818;stroke-width:1.0;" width="10" x="1658.5" y="878.75"/><rect fill="#FFFFFF" height="30.3516" style="stroke:#181818;stroke-width:1.0;" width="10" x="1742" y="231.3672"/><rect fill="#FFFFFF" height="30.3516" style="stroke:#181818;stroke-width:1.0;" width="10" x="1742" y="292.0703"/><rect fill="#FFFFFF" height="30.3516" style="stroke:#181818;stroke-width:1.0;" width="10" x="1742" y="696.6406"/><rect fill="#FFFFFF" height="30.3516" style="stroke:#181818;stroke-width:1.0;" width="10" x="1742" y="757.3438"/><rect fill="#FFFFFF" height="30.3516" style="stroke:#181818;stroke-width:1.0;" width="10" x="1742" y="1153.9141"/><rect fill="#FFFFFF" height="30.3516" style="stroke:#181818;stroke-width:1.0;" width="10" x="1742" y="1214.6172"/><rect fill="none" height="1358.3047" style="stroke:#000000;stroke-width:1.5;" width="1803.5" x="10" y="129.9609"/><rect fill="none" height="183.1094" style="stroke:#000000;stroke-width:1.5;" width="729" x="298" y="398.125"/><rect fill="none" height="261.1641" style="stroke:#000000;stroke-width:1.5;" width="897.5" x="906" y="655.9375"/><rect fill="none" height="398.4063" style="stroke:#000000;stroke-width:1.5;" width="1783.5" x="20" y="1082.8594"/><line style="stroke:#181818;stroke-width:0.5;stroke-dasharray:5.0,5.0;" x1="121" x2="121" y1="82.6094" y2="1505.2656"/><line style="stroke:#181818;stroke-width:0.5;stroke-dasharray:5.0,5.0;" x1="371" x2="371" y1="82.6094" y2="1505.2656"/><line style="stroke:#181818;stroke-width:0.5;stroke-dasharray:5.0,5.0;" x1="531.5" x2="531.5" y1="82.6094" y2="1505.2656"/><line style="stroke:#181818;stroke-width:0.5;stroke-dasharray:5.0,5.0;" x1="685.5" x2="685.5" y1="82.6094" y2="1505.2656"/><line style="stroke:#181818;stroke-width:0.5;stroke-dasharray:5.0,5.0;" x1="966" x2="966" y1="82.6094" y2="1505.2656"/><line style="stroke:#181818;stroke-width:0.5;stroke-dasharray:5.0,5.0;" x1="1232" x2="1232" y1="82.6094" y2="1505.2656"/><line style="stroke:#181818;stroke-width:0.5;stroke-dasharray:5.0,5.0;" x1="1565.5" x2="1565.5" y1="82.6094" y2="1505.2656"/><line style="stroke:#181818;stroke-width:0.5;stroke-dasharray:5.0,5.0;" x1="1663.5" x2="1663.5" y1="82.6094" y2="1505.2656"/><line style="stroke:#181818;stroke-width:0.5;stroke-dasharray:5.0,5.0;" x1="1746.5" x2="1746.5" y1="82.6094" y2="1505.2656"/><text fill="#000000" font-family="sans-serif" font-size="14" lengthAdjust="spacing" textLength="176" x="30" y="79.5332">Human Resources Manager</text><ellipse cx="121" cy="13.5" fill="#E3E3E3" rx="8" ry="8" style="stroke:#181818;stroke-width:0.5;"/><path d="M121,21.5 L121,48.5 M108,29.5 L134,29.5 M121,48.5 L108,63.5 M121,48.5 L134,63.5 " fill="none" style="stroke:#181818;stroke-width:0.5;"/><text fill="#000000" font-family="sans-serif" font-size="14" lengthAdjust="spacing" textLength="176" x="30" y="1518.7988">Human Resources Manager</text><ellipse cx="121" cy="1530.375" fill="#E3E3E3" rx="8" ry="8" style="stroke:#181818;stroke-width:0.5;"/><path d="M121,1538.375 L121,1565.375 M108,1546.375 L134,1546.375 M121,1565.375 L108,1580.375 M121,1565.375 L134,1580.375 " fill="none" style="stroke:#181818;stroke-width:0.5;"/><rect fill="#E3E3E3" height="31.6094" rx="2.5" ry="2.5" style="stroke:#181818;stroke-width:0.5;" width="126" x="308" y="50"/><text fill="#000000" font-family="sans-serif" font-size="14" lengthAdjust="spacing" textLength="112" x="315" y="71.5332">:GenerateTeamUI</text><rect fill="#E3E3E3" height="31.6094" rx="2.5" ry="2.5" style="stroke:#181818;stroke-width:0.5;" width="126" x="308" y="1504.2656"/><text fill="#000000" font-family="sans-serif" font-size="14" lengthAdjust="spacing" textLength="112" x="315" y="1525.7988">:GenerateTeamUI</text><rect fill="#E3E3E3" height="49.2188" rx="2.5" ry="2.5" style="stroke:#181818;stroke-width:0.5;" width="111" x="476.5" y="32.3906"/><text fill="#000000" font-family="sans-serif" font-size="14" lengthAdjust="spacing" textLength="97" x="483.5" y="53.9238">SkillRepository:</text><text fill="#000000" font-family="sans-serif" font-size="14" lengthAdjust="spacing" textLength="93" x="485.5" y="71.5332">SkillRepository</text><rect fill="#E3E3E3" height="49.2188" rx="2.5" ry="2.5" style="stroke:#181818;stroke-width:0.5;" width="111" x="476.5" y="1504.2656"/><text fill="#000000" font-family="sans-serif" font-size="14" lengthAdjust="spacing" textLength="97" x="483.5" y="1525.7988">SkillRepository:</text><text fill="#000000" font-family="sans-serif" font-size="14" lengthAdjust="spacing" textLength="93" x="485.5" y="1543.4082">SkillRepository</text><rect fill="#E3E3E3" height="31.6094" rx="2.5" ry="2.5" style="stroke:#181818;stroke-width:0.5;" width="176" x="597.5" y="50"/><text fill="#000000" font-family="sans-serif" font-size="14" lengthAdjust="spacing" textLength="162" x="604.5" y="71.5332">:GenerateTeamController</text><rect fill="#E3E3E3" height="31.6094" rx="2.5" ry="2.5" style="stroke:#181818;stroke-width:0.5;" width="176" x="597.5" y="1504.2656"/><text fill="#000000" font-family="sans-serif" font-size="14" lengthAdjust="spacing" textLength="162" x="604.5" y="1525.7988">:GenerateTeamController</text><rect fill="#E3E3E3" height="49.2188" rx="2.5" ry="2.5" style="stroke:#181818;stroke-width:0.5;" width="101" x="916" y="32.3906"/><text fill="#000000" font-family="sans-serif" font-size="14" lengthAdjust="spacing" textLength="87" x="923" y="53.9238">TeamService:</text><text fill="#000000" font-family="sans-serif" font-size="14" lengthAdjust="spacing" textLength="83" x="925" y="71.5332">TeamService</text><rect fill="#E3E3E3" height="49.2188" rx="2.5" ry="2.5" style="stroke:#181818;stroke-width:0.5;" width="101" x="916" y="1504.2656"/><text fill="#000000" font-family="sans-serif" font-size="14" lengthAdjust="spacing" textLength="87" x="923" y="1525.7988">TeamService:</text><text fill="#000000" font-family="sans-serif" font-size="14" lengthAdjust="spacing" textLength="83" x="925" y="1543.4082">TeamService</text><rect fill="#E3E3E3" height="49.2188" rx="2.5" ry="2.5" style="stroke:#181818;stroke-width:0.5;" width="173" x="1146" y="32.3906"/><text fill="#000000" font-family="sans-serif" font-size="14" lengthAdjust="spacing" textLength="159" x="1153" y="53.9238">TeamMemberRepository:</text><text fill="#000000" font-family="sans-serif" font-size="14" lengthAdjust="spacing" textLength="155" x="1155" y="71.5332">TeamMemberRepository</text><rect fill="#E3E3E3" height="49.2188" rx="2.5" ry="2.5" style="stroke:#181818;stroke-width:0.5;" width="173" x="1146" y="1504.2656"/><text fill="#000000" font-family="sans-serif" font-size="14" lengthAdjust="spacing" textLength="159" x="1153" y="1525.7988">TeamMemberRepository:</text><text fill="#000000" font-family="sans-serif" font-size="14" lengthAdjust="spacing" textLength="155" x="1155" y="1543.4082">TeamMemberRepository</text><rect fill="#E3E3E3" height="49.2188" rx="2.5" ry="2.5" style="stroke:#181818;stroke-width:0.5;" width="122" x="1504.5" y="32.3906"/><text fill="#000000" font-family="sans-serif" font-size="14" lengthAdjust="spacing" textLength="108" x="1511.5" y="53.9238">TeamRepository:</text><text fill="#000000" font-family="sans-serif" font-size="14" lengthAdjust="spacing" textLength="104" x="1513.5" y="71.5332">TeamRepository</text><rect fill="#E3E3E3" height="49.2188" rx="2.5" ry="2.5" style="stroke:#181818;stroke-width:0.5;" width="122" x="1504.5" y="1504.2656"/><text fill="#000000" font-family="sans-serif" font-size="14" lengthAdjust="spacing" textLength="108" x="1511.5" y="1525.7988">TeamRepository:</text><text fill="#000000" font-family="sans-serif" font-size="14" lengthAdjust="spacing" textLength="104" x="1513.5" y="1543.4082">TeamRepository</text><rect fill="#E3E3E3" height="49.2188" rx="2.5" ry="2.5" style="stroke:#181818;stroke-width:0.5;" width="54" x="1636.5" y="32.3906"/><text fill="#000000" font-family="sans-serif" font-size="14" lengthAdjust="spacing" textLength="31" x="1648" y="53.9238">team</text><text fill="#000000" font-family="sans-serif" font-size="14" lengthAdjust="spacing" textLength="40" x="1643.5" y="71.5332">:Team</text><rect fill="#E3E3E3" height="49.2188" rx="2.5" ry="2.5" style="stroke:#181818;stroke-width:0.5;" width="54" x="1636.5" y="1504.2656"/><text fill="#000000" font-family="sans-serif" font-size="14" lengthAdjust="spacing" textLength="31" x="1648" y="1525.7988">team</text><text fill="#000000" font-family="sans-serif" font-size="14" lengthAdjust="spacing" textLength="40" x="1643.5" y="1543.4082">:Team</text><rect fill="#E3E3E3" height="31.6094" rx="2.5" ry="2.5" style="stroke:#181818;stroke-width:0.5;" width="93" x="1700.5" y="50"/><text fill="#000000" font-family="sans-serif" font-size="14" lengthAdjust="spacing" textLength="79" x="1707.5" y="71.5332">Repositories</text><rect fill="#E3E3E3" height="31.6094" rx="2.5" ry="2.5" style="stroke:#181818;stroke-width:0.5;" width="93" x="1700.5" y="1504.2656"/><text fill="#000000" font-family="sans-serif" font-size="14" lengthAdjust="spacing" textLength="79" x="1707.5" y="1525.7988">Repositories</text><rect fill="#FFFFFF" height="1403.6563" style="stroke:#181818;stroke-width:1.0;" width="10" x="116" y="92.6094"/><rect fill="#FFFFFF" height="892.1953" style="stroke:#181818;stroke-width:1.0;" width="10" x="366" y="114.9609"/><rect fill="#FFFFFF" height="359.2188" style="stroke:#181818;stroke-width:1.0;" width="10" x="366" y="1037.5078"/><rect fill="#FFFFFF" height="30.3516" style="stroke:#181818;stroke-width:1.0;" width="10" x="527" y="352.7734"/><rect fill="#FFFFFF" height="30.3516" style="stroke:#181818;stroke-width:1.0;" width="10" x="680.5" y="170.6641"/><rect fill="#FFFFFF" height="91.0547" style="stroke:#181818;stroke-width:1.0;" width="10" x="680.5" y="482.1797"/><rect fill="#FFFFFF" height="366.2188" style="stroke:#181818;stroke-width:1.0;" width="10" x="680.5" y="610.5859"/><rect fill="#FFFFFF" height="298.5156" style="stroke:#181818;stroke-width:1.0;" width="10" x="680.5" y="1067.8594"/><rect fill="#FFFFFF" height="30.3516" style="stroke:#181818;stroke-width:1.0;" width="10" x="961.5" y="512.5313"/><rect fill="#FFFFFF" height="305.5156" style="stroke:#181818;stroke-width:1.0;" width="10" x="961.5" y="640.9375"/><rect fill="#FFFFFF" height="212.4609" style="stroke:#181818;stroke-width:1.0;" width="10" x="961.5" y="1123.5625"/><rect fill="#FFFFFF" height="30.3516" style="stroke:#181818;stroke-width:1.0;" width="10" x="1227.5" y="818.0469"/><rect fill="#FFFFFF" height="30.3516" style="stroke:#181818;stroke-width:1.0;" width="10" x="1560.5" y="1275.3203"/><rect fill="#FFFFFF" height="30.3516" style="stroke:#181818;stroke-width:1.0;" width="10" x="1658.5" y="878.75"/><rect fill="#FFFFFF" height="30.3516" style="stroke:#181818;stroke-width:1.0;" width="10" x="1742" y="231.3672"/><rect fill="#FFFFFF" height="30.3516" style="stroke:#181818;stroke-width:1.0;" width="10" x="1742" y="292.0703"/><rect fill="#FFFFFF" height="30.3516" style="stroke:#181818;stroke-width:1.0;" width="10" x="1742" y="696.6406"/><rect fill="#FFFFFF" height="30.3516" style="stroke:#181818;stroke-width:1.0;" width="10" x="1742" y="757.3438"/><rect fill="#FFFFFF" height="30.3516" style="stroke:#181818;stroke-width:1.0;" width="10" x="1742" y="1153.9141"/><rect fill="#FFFFFF" height="30.3516" style="stroke:#181818;stroke-width:1.0;" width="10" x="1742" y="1214.6172"/><polygon fill="#181818" points="354,110.9609,364,114.9609,354,118.9609,358,114.9609" style="stroke:#181818;stroke-width:1.0;"/><line style="stroke:#181818;stroke-width:1.0;" x1="126" x2="360" y1="114.9609" y2="114.9609"/><text fill="#000000" font-family="sans-serif" font-size="13" font-weight="bold" lengthAdjust="spacing" textLength="7" x="133" y="110.1045">1</text><text fill="#000000" font-family="sans-serif" font-size="13" lengthAdjust="spacing" textLength="135" x="144" y="110.1045">Initiate team generation</text><path d="M10,129.9609 L83,129.9609 L83,138.3125 L73,148.3125 L10,148.3125 L10,129.9609 " fill="#EEEEEE" style="stroke:#000000;stroke-width:1.5;"/><rect fill="none" height="1358.3047" style="stroke:#000000;stroke-width:1.5;" width="1803.5" x="10" y="129.9609"/><text fill="#000000" font-family="sans-serif" font-size="13" font-weight="bold" lengthAdjust="spacing" textLength="28" x="25" y="144.4561">loop</text><text fill="#000000" font-family="sans-serif" font-size="11" font-weight="bold" lengthAdjust="spacing" textLength="131" x="98" y="143.3799">[until team is approved]</text><polygon fill="#181818" points="668.5,166.6641,678.5,170.6641,668.5,174.6641,672.5,170.6641" style="stroke:#181818;stroke-width:1.0;"/><line style="stroke:#181818;stroke-width:1.0;" x1="376" x2="674.5" y1="170.6641" y2="170.6641"/><text fill="#000000" font-family="sans-serif" font-size="13" font-weight="bold" lengthAdjust="spacing" textLength="7" x="383" y="165.8076">2</text><text fill="#000000" font-family="sans-serif" font-size="13" lengthAdjust="spacing" textLength="148" x="394" y="165.8076">Request team size inputs</text><polygon fill="#181818" points="387,197.0156,377,201.0156,387,205.0156,383,201.0156" style="stroke:#181818;stroke-width:1.0;"/><line style="stroke:#181818;stroke-width:1.0;stroke-dasharray:2.0,2.0;" x1="381" x2="684.5" y1="201.0156" y2="201.0156"/><text fill="#000000" font-family="sans-serif" font-size="13" font-weight="bold" lengthAdjust="spacing" textLength="7" x="393" y="196.1592">3</text><text fill="#000000" font-family="sans-serif" font-size="13" lengthAdjust="spacing" textLength="138" x="404" y="196.1592">Returns min, max sizes</text><polygon fill="#181818" points="1730,227.3672,1740,231.3672,1730,235.3672,1734,231.3672" style="stroke:#181818;stroke-width:1.0;"/><line style="stroke:#181818;stroke-width:1.0;" x1="376" x2="1736" y1="231.3672" y2="231.3672"/><text fill="#000000" font-family="sans-serif" font-size="13" font-weight="bold" lengthAdjust="spacing" textLength="7" x="383" y="226.5107">4</text><text fill="#000000" font-family="sans-serif" font-size="13" lengthAdjust="spacing" textLength="75" x="394" y="226.5107">getInstance()</text><polygon fill="#181818" points="387,257.7188,377,261.7188,387,265.7188,383,261.7188" style="stroke:#181818;stroke-width:1.0;"/><line style="stroke:#181818;stroke-width:1.0;stroke-dasharray:2.0,2.0;" x1="381" x2="1746" y1="261.7188" y2="261.7188"/><text fill="#000000" font-family="sans-serif" font-size="13" font-weight="bold" lengthAdjust="spacing" textLength="7" x="393" y="256.8623">5</text><text fill="#000000" font-family="sans-serif" font-size="13" lengthAdjust="spacing" textLength="125" x="404" y="256.8623">Repositories instance</text><polygon fill="#181818" points="1730,288.0703,1740,292.0703,1730,296.0703,1734,292.0703" style="stroke:#181818;stroke-width:1.0;"/><line style="stroke:#181818;stroke-width:1.0;" x1="376" x2="1736" y1="292.0703" y2="292.0703"/><text fill="#000000" font-family="sans-serif" font-size="13" font-weight="bold" lengthAdjust="spacing" textLength="7" x="383" y="287.2139">6</text><text fill="#000000" font-family="sans-serif" font-size="13" lengthAdjust="spacing" textLength="113" x="394" y="287.2139">getSkillRepository()</text><polygon fill="#181818" points="387,318.4219,377,322.4219,387,326.4219,383,322.4219" style="stroke:#181818;stroke-width:1.0;"/><line style="stroke:#181818;stroke-width:1.0;stroke-dasharray:2.0,2.0;" x1="381" x2="1746" y1="322.4219" y2="322.4219"/><text fill="#000000" font-family="sans-serif" font-size="13" font-weight="bold" lengthAdjust="spacing" textLength="7" x="393" y="317.5654">7</text><text fill="#000000" font-family="sans-serif" font-size="13" lengthAdjust="spacing" textLength="140" x="404" y="317.5654">SkillRepository instance</text><polygon fill="#181818" points="515,348.7734,525,352.7734,515,356.7734,519,352.7734" style="stroke:#181818;stroke-width:1.0;"/><line style="stroke:#181818;stroke-width:1.0;" x1="376" x2="521" y1="352.7734" y2="352.7734"/><text fill="#000000" font-family="sans-serif" font-size="13" font-weight="bold" lengthAdjust="spacing" textLength="7" x="383" y="347.917">8</text><text fill="#000000" font-family="sans-serif" font-size="13" lengthAdjust="spacing" textLength="58" x="394" y="347.917">getSkills()</text><polygon fill="#181818" points="387,379.125,377,383.125,387,387.125,383,383.125" style="stroke:#181818;stroke-width:1.0;"/><line style="stroke:#181818;stroke-width:1.0;stroke-dasharray:2.0,2.0;" x1="381" x2="531" y1="383.125" y2="383.125"/><text fill="#000000" font-family="sans-serif" font-size="13" font-weight="bold" lengthAdjust="spacing" textLength="7" x="393" y="378.2686">9</text><text fill="#000000" font-family="sans-serif" font-size="13" lengthAdjust="spacing" textLength="116" x="404" y="378.2686">Returns list of Skills</text><path d="M298,398.125 L371,398.125 L371,406.4766 L361,416.4766 L298,416.4766 L298,398.125 " fill="#EEEEEE" style="stroke:#000000;stroke-width:1.5;"/><rect fill="none" height="183.1094" style="stroke:#000000;stroke-width:1.5;" width="729" x="298" y="398.125"/><text fill="#000000" font-family="sans-serif" font-size="13" font-weight="bold" lengthAdjust="spacing" textLength="28" x="313" y="412.6201">loop</text><text fill="#000000" font-family="sans-serif" font-size="11" font-weight="bold" lengthAdjust="spacing" textLength="130" x="386" y="411.5439">[for each required skill]</text><line style="stroke:#181818;stroke-width:1.0;" x1="376" x2="418" y1="438.8281" y2="438.8281"/><line style="stroke:#181818;stroke-width:1.0;" x1="418" x2="418" y1="438.8281" y2="451.8281"/><line style="stroke:#181818;stroke-width:1.0;" x1="377" x2="418" y1="451.8281" y2="451.8281"/><polygon fill="#181818" points="387,447.8281,377,451.8281,387,455.8281,383,451.8281" style="stroke:#181818;stroke-width:1.0;"/><text fill="#000000" font-family="sans-serif" font-size="13" font-weight="bold" lengthAdjust="spacing" textLength="14" x="383" y="433.9717">10</text><text fill="#000000" font-family="sans-serif" font-size="13" lengthAdjust="spacing" textLength="114" x="401" y="433.9717">Select skill from list</text><polygon fill="#181818" points="668.5,478.1797,678.5,482.1797,668.5,486.1797,672.5,482.1797" style="stroke:#181818;stroke-width:1.0;"/><line style="stroke:#181818;stroke-width:1.0;" x1="376" x2="674.5" y1="482.1797" y2="482.1797"/><text fill="#000000" font-family="sans-serif" font-size="13" font-weight="bold" lengthAdjust="spacing" textLength="14" x="383" y="477.3232">11</text><text fill="#000000" font-family="sans-serif" font-size="13" lengthAdjust="spacing" textLength="117" x="401" y="477.3232">skillSelected(option)</text><polygon fill="#181818" points="949.5,508.5313,959.5,512.5313,949.5,516.5313,953.5,512.5313" style="stroke:#181818;stroke-width:1.0;"/><line style="stroke:#181818;stroke-width:1.0;" x1="690.5" x2="955.5" y1="512.5313" y2="512.5313"/><text fill="#000000" font-family="sans-serif" font-size="13" font-weight="bold" lengthAdjust="spacing" textLength="14" x="697.5" y="507.6748">12</text><text fill="#000000" font-family="sans-serif" font-size="13" lengthAdjust="spacing" textLength="110" x="715.5" y="507.6748">chooseSkill(option)</text><polygon fill="#181818" points="701.5,538.8828,691.5,542.8828,701.5,546.8828,697.5,542.8828" style="stroke:#181818;stroke-width:1.0;"/><line style="stroke:#181818;stroke-width:1.0;stroke-dasharray:2.0,2.0;" x1="695.5" x2="965.5" y1="542.8828" y2="542.8828"/><text fill="#000000" font-family="sans-serif" font-size="13" font-weight="bold" lengthAdjust="spacing" textLength="14" x="707.5" y="538.0264">13</text><text fill="#000000" font-family="sans-serif" font-size="13" lengthAdjust="spacing" textLength="74" x="725.5" y="538.0264">Returns Skill</text><polygon fill="#181818" points="387,569.2344,377,573.2344,387,577.2344,383,573.2344" style="stroke:#181818;stroke-width:1.0;"/><line style="stroke:#181818;stroke-width:1.0;stroke-dasharray:2.0,2.0;" x1="381" x2="684.5" y1="573.2344" y2="573.2344"/><text fill="#000000" font-family="sans-serif" font-size="13" font-weight="bold" lengthAdjust="spacing" textLength="14" x="393" y="568.3779">14</text><text fill="#000000" font-family="sans-serif" font-size="13" lengthAdjust="spacing" textLength="74" x="411" y="568.3779">Returns Skill</text><polygon fill="#181818" points="668.5,606.5859,678.5,610.5859,668.5,614.5859,672.5,610.5859" style="stroke:#181818;stroke-width:1.0;"/><line style="stroke:#181818;stroke-width:1.0;" x1="376" x2="674.5" y1="610.5859" y2="610.5859"/><text fill="#000000" font-family="sans-serif" font-size="13" font-weight="bold" lengthAdjust="spacing" textLength="14" x="383" y="605.7295">15</text><text fill="#000000" font-family="sans-serif" font-size="13" lengthAdjust="spacing" textLength="203" x="401" y="605.7295">getGenerateTeam(min, max, skills)</text><polygon fill="#181818" points="949.5,636.9375,959.5,640.9375,949.5,644.9375,953.5,640.9375" style="stroke:#181818;stroke-width:1.0;"/><line style="stroke:#181818;stroke-width:1.0;" x1="690.5" x2="955.5" y1="640.9375" y2="640.9375"/><text fill="#000000" font-family="sans-serif" font-size="13" font-weight="bold" lengthAdjust="spacing" textLength="14" x="697.5" y="636.0811">16</text><text fill="#000000" font-family="sans-serif" font-size="13" lengthAdjust="spacing" textLength="234" x="715.5" y="636.0811">generateTeam(minSize, maxSize, skills)</text><path d="M906,655.9375 L979,655.9375 L979,664.2891 L969,674.2891 L906,674.2891 L906,655.9375 " fill="#EEEEEE" style="stroke:#000000;stroke-width:1.5;"/><rect fill="none" height="261.1641" style="stroke:#000000;stroke-width:1.5;" width="897.5" x="906" y="655.9375"/><text fill="#000000" font-family="sans-serif" font-size="13" font-weight="bold" lengthAdjust="spacing" textLength="28" x="921" y="670.4326">loop</text><text fill="#000000" font-family="sans-serif" font-size="11" font-weight="bold" lengthAdjust="spacing" textLength="125" x="994" y="669.3564">[for each skill in skills]</text><polygon fill="#181818" points="1730,692.6406,1740,696.6406,1730,700.6406,1734,696.6406" style="stroke:#181818;stroke-width:1.0;"/><line style="stroke:#181818;stroke-width:1.0;" x1="971.5" x2="1736" y1="696.6406" y2="696.6406"/><text fill="#000000" font-family="sans-serif" font-size="13" font-weight="bold" lengthAdjust="spacing" textLength="14" x="978.5" y="691.7842">17</text><text fill="#000000" font-family="sans-serif" font-size="13" lengthAdjust="spacing" textLength="75" x="996.5" y="691.7842">getInstance()</text><polygon fill="#181818" points="982.5,722.9922,972.5,726.9922,982.5,730.9922,978.5,726.9922" style="stroke:#181818;stroke-width:1.0;"/><line style="stroke:#181818;stroke-width:1.0;stroke-dasharray:2.0,2.0;" x1="976.5" x2="1746" y1="726.9922" y2="726.9922"/><text fill="#000000" font-family="sans-serif" font-size="13" font-weight="bold" lengthAdjust="spacing" textLength="14" x="988.5" y="722.1357">18</text><text fill="#000000" font-family="sans-serif" font-size="13" lengthAdjust="spacing" textLength="125" x="1006.5" y="722.1357">Repositories instance</text><polygon fill="#181818" points="1730,753.3438,1740,757.3438,1730,761.3438,1734,757.3438" style="stroke:#181818;stroke-width:1.0;"/><line style="stroke:#181818;stroke-width:1.0;" x1="971.5" x2="1736" y1="757.3438" y2="757.3438"/><text fill="#000000" font-family="sans-serif" font-size="13" font-weight="bold" lengthAdjust="spacing" textLength="14" x="978.5" y="752.4873">19</text><text fill="#000000" font-family="sans-serif" font-size="13" lengthAdjust="spacing" textLength="167" x="996.5" y="752.4873">getTeamMemberRepository()</text><polygon fill="#181818" points="982.5,783.6953,972.5,787.6953,982.5,791.6953,978.5,787.6953" style="stroke:#181818;stroke-width:1.0;"/><line style="stroke:#181818;stroke-width:1.0;stroke-dasharray:2.0,2.0;" x1="976.5" x2="1746" y1="787.6953" y2="787.6953"/><text fill="#000000" font-family="sans-serif" font-size="13" font-weight="bold" lengthAdjust="spacing" textLength="14" x="988.5" y="782.8389">20</text><text fill="#000000" font-family="sans-serif" font-size="13" lengthAdjust="spacing" textLength="194" x="1006.5" y="782.8389">TeamMemberRepository instance</text><polygon fill="#181818" points="1215.5,814.0469,1225.5,818.0469,1215.5,822.0469,1219.5,818.0469" style="stroke:#181818;stroke-width:1.0;"/><line style="stroke:#181818;stroke-width:1.0;" x1="971.5" x2="1221.5" y1="818.0469" y2="818.0469"/><text fill="#000000" font-family="sans-serif" font-size="13" font-weight="bold" lengthAdjust="spacing" textLength="14" x="978.5" y="813.1904">21</text><text fill="#000000" font-family="sans-serif" font-size="13" lengthAdjust="spacing" textLength="219" x="996.5" y="813.1904">findTeamMemberWithSkill(skill, team)</text><polygon fill="#181818" points="982.5,844.3984,972.5,848.3984,982.5,852.3984,978.5,848.3984" style="stroke:#181818;stroke-width:1.0;"/><line style="stroke:#181818;stroke-width:1.0;stroke-dasharray:2.0,2.0;" x1="976.5" x2="1231.5" y1="848.3984" y2="848.3984"/><text fill="#000000" font-family="sans-serif" font-size="13" font-weight="bold" lengthAdjust="spacing" textLength="14" x="988.5" y="843.542">22</text><text fill="#000000" font-family="sans-serif" font-size="13" lengthAdjust="spacing" textLength="167" x="1006.5" y="843.542">Returns TeamMember or null</text><polygon fill="#181818" points="1646.5,874.75,1656.5,878.75,1646.5,882.75,1650.5,878.75" style="stroke:#181818;stroke-width:1.0;"/><line style="stroke:#181818;stroke-width:1.0;" x1="971.5" x2="1652.5" y1="878.75" y2="878.75"/><text fill="#000000" font-family="sans-serif" font-size="13" font-weight="bold" lengthAdjust="spacing" textLength="14" x="978.5" y="873.8936">23</text><text fill="#000000" font-family="sans-serif" font-size="13" lengthAdjust="spacing" textLength="201" x="996.5" y="873.8936">assignTeamMember(teamMember)</text><polygon fill="#181818" points="982.5,905.1016,972.5,909.1016,982.5,913.1016,978.5,909.1016" style="stroke:#181818;stroke-width:1.0;"/><line style="stroke:#181818;stroke-width:1.0;stroke-dasharray:2.0,2.0;" x1="976.5" x2="1662.5" y1="909.1016" y2="909.1016"/><text fill="#000000" font-family="sans-serif" font-size="13" font-weight="bold" lengthAdjust="spacing" textLength="14" x="988.5" y="904.2451">24</text><text fill="#000000" font-family="sans-serif" font-size="13" lengthAdjust="spacing" textLength="84" x="1006.5" y="904.2451">Updated Team</text><polygon fill="#181818" points="701.5,942.4531,691.5,946.4531,701.5,950.4531,697.5,946.4531" style="stroke:#181818;stroke-width:1.0;"/><line style="stroke:#181818;stroke-width:1.0;stroke-dasharray:2.0,2.0;" x1="695.5" x2="965.5" y1="946.4531" y2="946.4531"/><text fill="#000000" font-family="sans-serif" font-size="13" font-weight="bold" lengthAdjust="spacing" textLength="14" x="707.5" y="941.5967">25</text><text fill="#000000" font-family="sans-serif" font-size="13" lengthAdjust="spacing" textLength="81" x="725.5" y="941.5967">Returns Team</text><polygon fill="#181818" points="387,972.8047,377,976.8047,387,980.8047,383,976.8047" style="stroke:#181818;stroke-width:1.0;"/><line style="stroke:#181818;stroke-width:1.0;stroke-dasharray:2.0,2.0;" x1="381" x2="684.5" y1="976.8047" y2="976.8047"/><text fill="#000000" font-family="sans-serif" font-size="13" font-weight="bold" lengthAdjust="spacing" textLength="14" x="393" y="971.9482">26</text><text fill="#000000" font-family="sans-serif" font-size="13" lengthAdjust="spacing" textLength="88" x="411" y="971.9482">Presents Team</text><polygon fill="#181818" points="137,1003.1563,127,1007.1563,137,1011.1563,133,1007.1563" style="stroke:#181818;stroke-width:1.0;"/><line style="stroke:#181818;stroke-width:1.0;stroke-dasharray:2.0,2.0;" x1="131" x2="370" y1="1007.1563" y2="1007.1563"/><text fill="#000000" font-family="sans-serif" font-size="13" font-weight="bold" lengthAdjust="spacing" textLength="14" x="143" y="1002.2998">27</text><text fill="#000000" font-family="sans-serif" font-size="13" lengthAdjust="spacing" textLength="86" x="161" y="1002.2998">Displays Team</text><polygon fill="#181818" points="354,1033.5078,364,1037.5078,354,1041.5078,358,1037.5078" style="stroke:#181818;stroke-width:1.0;"/><line style="stroke:#181818;stroke-width:1.0;" x1="126" x2="360" y1="1037.5078" y2="1037.5078"/><text fill="#000000" font-family="sans-serif" font-size="13" font-weight="bold" lengthAdjust="spacing" textLength="14" x="133" y="1032.6514">28</text><text fill="#000000" font-family="sans-serif" font-size="13" lengthAdjust="spacing" textLength="203" x="151" y="1032.6514">Submits selection (Approve/Reject)</text><polygon fill="#181818" points="668.5,1063.8594,678.5,1067.8594,668.5,1071.8594,672.5,1067.8594" style="stroke:#181818;stroke-width:1.0;"/><line style="stroke:#181818;stroke-width:1.0;" x1="376" x2="674.5" y1="1067.8594" y2="1067.8594"/><text fill="#000000" font-family="sans-serif" font-size="13" font-weight="bold" lengthAdjust="spacing" textLength="14" x="383" y="1063.0029">29</text><text fill="#000000" font-family="sans-serif" font-size="13" lengthAdjust="spacing" textLength="203" x="401" y="1063.0029">Submits selection (Approve/Reject)</text><path d="M20,1082.8594 L81,1082.8594 L81,1091.2109 L71,1101.2109 L20,1101.2109 L20,1082.8594 " fill="#EEEEEE" style="stroke:#000000;stroke-width:1.5;"/><rect fill="none" height="398.4063" style="stroke:#000000;stroke-width:1.5;" width="1783.5" x="20" y="1082.8594"/><text fill="#000000" font-family="sans-serif" font-size="13" font-weight="bold" lengthAdjust="spacing" textLength="16" x="35" y="1097.3545">alt</text><text fill="#000000" font-family="sans-serif" font-size="11" font-weight="bold" lengthAdjust="spacing" textLength="55" x="96" y="1096.2783">[Approve]</text><polygon fill="#181818" points="949.5,1119.5625,959.5,1123.5625,949.5,1127.5625,953.5,1123.5625" style="stroke:#181818;stroke-width:1.0;"/><line style="stroke:#181818;stroke-width:1.0;" x1="690.5" x2="955.5" y1="1123.5625" y2="1123.5625"/><text fill="#000000" font-family="sans-serif" font-size="13" font-weight="bold" lengthAdjust="spacing" textLength="14" x="697.5" y="1118.7061">30</text><text fill="#000000" font-family="sans-serif" font-size="13" lengthAdjust="spacing" textLength="119" x="715.5" y="1118.7061">teamApproved(team)</text><polygon fill="#181818" points="1730,1149.9141,1740,1153.9141,1730,1157.9141,1734,1153.9141" style="stroke:#181818;stroke-width:1.0;"/><line style="stroke:#181818;stroke-width:1.0;" x1="971.5" x2="1736" y1="1153.9141" y2="1153.9141"/><text fill="#000000" font-family="sans-serif" font-size="13" font-weight="bold" lengthAdjust="spacing" textLength="14" x="978.5" y="1149.0576">31</text><text fill="#000000" font-family="sans-serif" font-size="13" lengthAdjust="spacing" textLength="75" x="996.5" y="1149.0576">getInstance()</text><polygon fill="#181818" points="982.5,1180.2656,972.5,1184.2656,982.5,1188.2656,978.5,1184.2656" style="stroke:#181818;stroke-width:1.0;"/><line style="stroke:#181818;stroke-width:1.0;stroke-dasharray:2.0,2.0;" x1="976.5" x2="1746" y1="1184.2656" y2="1184.2656"/><text fill="#000000" font-family="sans-serif" font-size="13" font-weight="bold" lengthAdjust="spacing" textLength="14" x="988.5" y="1179.4092">32</text><text fill="#000000" font-family="sans-serif" font-size="13" lengthAdjust="spacing" textLength="125" x="1006.5" y="1179.4092">Repositories instance</text><polygon fill="#181818" points="1730,1210.6172,1740,1214.6172,1730,1218.6172,1734,1214.6172" style="stroke:#181818;stroke-width:1.0;"/><line style="stroke:#181818;stroke-width:1.0;" x1="971.5" x2="1736" y1="1214.6172" y2="1214.6172"/><text fill="#000000" font-family="sans-serif" font-size="13" font-weight="bold" lengthAdjust="spacing" textLength="14" x="978.5" y="1209.7607">33</text><text fill="#000000" font-family="sans-serif" font-size="13" lengthAdjust="spacing" textLength="120" x="996.5" y="1209.7607">getTeamRepository()</text><polygon fill="#181818" points="982.5,1240.9688,972.5,1244.9688,982.5,1248.9688,978.5,1244.9688" style="stroke:#181818;stroke-width:1.0;"/><line style="stroke:#181818;stroke-width:1.0;stroke-dasharray:2.0,2.0;" x1="976.5" x2="1746" y1="1244.9688" y2="1244.9688"/><text fill="#000000" font-family="sans-serif" font-size="13" font-weight="bold" lengthAdjust="spacing" textLength="14" x="988.5" y="1240.1123">34</text><text fill="#000000" font-family="sans-serif" font-size="13" lengthAdjust="spacing" textLength="147" x="1006.5" y="1240.1123">TeamRepository instance</text><polygon fill="#181818" points="1548.5,1271.3203,1558.5,1275.3203,1548.5,1279.3203,1552.5,1275.3203" style="stroke:#181818;stroke-width:1.0;"/><line style="stroke:#181818;stroke-width:1.0;" x1="971.5" x2="1554.5" y1="1275.3203" y2="1275.3203"/><text fill="#000000" font-family="sans-serif" font-size="13" font-weight="bold" lengthAdjust="spacing" textLength="14" x="978.5" y="1270.4639">35</text><text fill="#000000" font-family="sans-serif" font-size="13" lengthAdjust="spacing" textLength="552" x="996.5" y="1270.4639">createTeam(team.getMinSize(), team.getMaxSize(), team.getSkills(), team.getTeamMembers())</text><polygon fill="#181818" points="982.5,1301.6719,972.5,1305.6719,982.5,1309.6719,978.5,1305.6719" style="stroke:#181818;stroke-width:1.0;"/><line style="stroke:#181818;stroke-width:1.0;stroke-dasharray:2.0,2.0;" x1="976.5" x2="1564.5" y1="1305.6719" y2="1305.6719"/><text fill="#000000" font-family="sans-serif" font-size="13" font-weight="bold" lengthAdjust="spacing" textLength="14" x="988.5" y="1300.8154">36</text><text fill="#000000" font-family="sans-serif" font-size="13" lengthAdjust="spacing" textLength="144" x="1006.5" y="1300.8154">Team created and stored</text><polygon fill="#181818" points="701.5,1332.0234,691.5,1336.0234,701.5,1340.0234,697.5,1336.0234" style="stroke:#181818;stroke-width:1.0;"/><line style="stroke:#181818;stroke-width:1.0;stroke-dasharray:2.0,2.0;" x1="695.5" x2="965.5" y1="1336.0234" y2="1336.0234"/><text fill="#000000" font-family="sans-serif" font-size="13" font-weight="bold" lengthAdjust="spacing" textLength="14" x="707.5" y="1331.167">37</text><text fill="#000000" font-family="sans-serif" font-size="13" lengthAdjust="spacing" textLength="135" x="725.5" y="1331.167">Confirms team approval</text><polygon fill="#181818" points="387,1362.375,377,1366.375,387,1370.375,383,1366.375" style="stroke:#181818;stroke-width:1.0;"/><line style="stroke:#181818;stroke-width:1.0;stroke-dasharray:2.0,2.0;" x1="381" x2="684.5" y1="1366.375" y2="1366.375"/><text fill="#000000" font-family="sans-serif" font-size="13" font-weight="bold" lengthAdjust="spacing" textLength="14" x="393" y="1361.5186">38</text><text fill="#000000" font-family="sans-serif" font-size="13" lengthAdjust="spacing" textLength="135" x="411" y="1361.5186">Confirms team approval</text><polygon fill="#181818" points="137,1392.7266,127,1396.7266,137,1400.7266,133,1396.7266" style="stroke:#181818;stroke-width:1.0;"/><line style="stroke:#181818;stroke-width:1.0;stroke-dasharray:2.0,2.0;" x1="131" x2="370" y1="1396.7266" y2="1396.7266"/><text fill="#000000" font-family="sans-serif" font-size="13" font-weight="bold" lengthAdjust="spacing" textLength="14" x="143" y="1391.8701">39</text><text fill="#000000" font-family="sans-serif" font-size="13" lengthAdjust="spacing" textLength="135" x="161" y="1391.8701">Confirms team approval</text><line style="stroke:#000000;stroke-width:1.0;stroke-dasharray:2.0,2.0;" x1="20" x2="1803.5" y1="1405.7266" y2="1405.7266"/><text fill="#000000" font-family="sans-serif" font-size="11" font-weight="bold" lengthAdjust="spacing" textLength="42" x="25" y="1417.1455">[Reject]</text><polygon fill="#181818" points="382,1438.9141,372,1442.9141,382,1446.9141,378,1442.9141" style="stroke:#181818;stroke-width:1.0;"/><line style="stroke:#181818;stroke-width:1.0;stroke-dasharray:2.0,2.0;" x1="376" x2="684.5" y1="1442.9141" y2="1442.9141"/><text fill="#000000" font-family="sans-serif" font-size="13" font-weight="bold" lengthAdjust="spacing" textLength="14" x="388" y="1438.0576">40</text><text fill="#000000" font-family="sans-serif" font-size="13" lengthAdjust="spacing" textLength="170" x="406" y="1438.0576">Acknowledges team rejection</text><polygon fill="#181818" points="137,1469.2656,127,1473.2656,137,1477.2656,133,1473.2656" style="stroke:#181818;stroke-width:1.0;"/><line style="stroke:#181818;stroke-width:1.0;stroke-dasharray:2.0,2.0;" x1="131" x2="370" y1="1473.2656" y2="1473.2656"/><text fill="#000000" font-family="sans-serif" font-size="13" font-weight="bold" lengthAdjust="spacing" textLength="14" x="143" y="1468.4092">41</text><text fill="#000000" font-family="sans-serif" font-size="13" lengthAdjust="spacing" textLength="170" x="161" y="1468.4092">Acknowledges team rejection</text><!--SRC=[tLV1Rjim3BtxAuIU4g3TxZaKA3PWxI70aApOfHVDPX8jikHAShlkwqT9YMF9iXCtwMKv6B58Fb8Y-KJhBHCLLRGafHGotoXP0Z6gXamtaehcMxg6fNdZG1JaXeerRole3ItaAnDhig9SGvRHsaXHbxz0uV_SI4MkxkkI2h80BMkLWoPpAX1JNH6goVrYdY6IOJchg33aQlOD12Xgu0VGyl71AOLBeVvoopXVG2KrGsTlioSHhJY4Q6t0vHSfZ9ASx-9BYq9xArk2Uc4veFlMcqDelNVDvc1FAWW_jTm0nO8kOWShWT9dRr3s96PMfT5rMMGlU0GkLna-oCrjb18o8m-26MQrB0XPUp6Juc0UPJ7ZKbQa5ePnRyCqeLMbv0iK6S6VUqH-8i-7Z6042tYkGHiFfjbV85YajT4E9nb5Aw4TPoteczH-5s1g9JGfcRWc9VtZF7fV1OpsvhVMv8LXbypm4Cs3qDXoEKocuIxQcauIcFO4tD9WEzmutW3tv2YZxhf0i17YMV76M8UGTHnfJ1DM69iFLWDdM81ovOqwrH33ExbhWnNo9Efja6EVQwQW8DhgEeNZRU2F33ZoixSZAoHp5yo9244ZEGWF1yL4LhQDfmtGIRKzr4stRKf4T_b6IWtkRFgTjLcqaRPnReQfmQTd6HngApD9-FVGGQ-7djEoMY2AR2pPOGctPPCz3LtxxEdf-QmNvsaT-LiYuJcV_a_IR-TSmshtnSh4pZYTs1DuSPXkafGJxgsV78yIpadnfkxkIyMUmZv_3qdK6LanKHn4FvdP-CPr2RnsTszFztP6by1pnrKgHxx53ke4wqZK_Hqzx3BQB7gWMhDrQm2RcEPlpwP2n4JGZrM1keLNxWap987HfDP03F7P62xxha23C6daCHCDWjjnSKQ-Cbrn-dOSqSw5LjmtPIxhNoN3oBIxdV2g89CxFpD-Ni1lN1hWlJts29OznrryE9GRiZCUVKNQEjpP5fE17Xk-8VyN8lqO2hqqUGQqcIlOtvmsVPzm9tD_WqwcdZNTahzBsqlxEVMmSg0dNEwfWpxA6-HNns0-q89GWICeAkw-nHBqSfHMXneBNrPCbTf_hFdFFlenazdfhiOCj06zlSy5yf4ZVgvjLLasUTV-xlAjaAySYZNi0b0Ep7vxNtAJP_ZPxzHUSVZu1m00]--></g></svg>