<?xml version="1.0" encoding="us-ascii" standalone="no"?><svg xmlns="http://www.w3.org/2000/svg" xmlns:xlink="http://www.w3.org/1999/xlink" contentStyleType="text/css" height="1253px" preserveAspectRatio="none" style="width:1716px;height:1253px;background:#FFFFFF;" version="1.1" viewBox="0 0 1716 1253" width="1716px" zoomAndPan="magnify"><defs/><g><rect fill="#FFFFFF" height="1069.7891" style="stroke:#181818;stroke-width:1.0;" width="10" x="116" y="92.6094"/><rect fill="#FFFFFF" height="649.3828" style="stroke:#181818;stroke-width:1.0;" width="10" x="366" y="114.9609"/><rect fill="#FFFFFF" height="237.8125" style="stroke:#181818;stroke-width:1.0;" width="10" x="366" y="825.0469"/><rect fill="#FFFFFF" height="30.3516" style="stroke:#181818;stroke-width:1.0;" width="10" x="527" y="231.3672"/><rect fill="#FFFFFF" height="30.3516" style="stroke:#181818;stroke-width:1.0;" width="10" x="680.5" y="170.6641"/><rect fill="#FFFFFF" height="91.0547" style="stroke:#181818;stroke-width:1.0;" width="10" x="680.5" y="360.7734"/><rect fill="#FFFFFF" height="244.8125" style="stroke:#181818;stroke-width:1.0;" width="10" x="680.5" y="489.1797"/><rect fill="#FFFFFF" height="177.1094" style="stroke:#181818;stroke-width:1.0;" width="10" x="680.5" y="855.3984"/><rect fill="#FFFFFF" height="30.3516" style="stroke:#181818;stroke-width:1.0;" width="10" x="961.5" y="391.125"/><rect fill="#FFFFFF" height="184.1094" style="stroke:#181818;stroke-width:1.0;" width="10" x="961.5" y="519.5313"/><rect fill="#FFFFFF" height="91.0547" style="stroke:#181818;stroke-width:1.0;" width="10" x="961.5" y="911.1016"/><rect fill="#FFFFFF" height="30.3516" style="stroke:#181818;stroke-width:1.0;" width="10" x="1227.5" y="575.2344"/><rect fill="#FFFFFF" height="30.3516" style="stroke:#181818;stroke-width:1.0;" width="10" x="1560.5" y="941.4531"/><rect fill="#FFFFFF" height="30.3516" style="stroke:#181818;stroke-width:1.0;" width="10" x="1658.5" y="635.9375"/><rect fill="none" height="1024.4375" style="stroke:#000000;stroke-width:1.5;" width="1700.5" x="10" y="129.9609"/><rect fill="none" height="183.1094" style="stroke:#000000;stroke-width:1.5;" width="729" x="298" y="276.7188"/><rect fill="none" height="139.7578" style="stroke:#000000;stroke-width:1.5;" width="794.5" x="906" y="534.5313"/><rect fill="none" height="277" style="stroke:#000000;stroke-width:1.5;" width="1616.5" x="20" y="870.3984"/><line style="stroke:#181818;stroke-width:0.5;stroke-dasharray:5.0,5.0;" x1="121" x2="121" y1="82.6094" y2="1171.3984"/><line style="stroke:#181818;stroke-width:0.5;stroke-dasharray:5.0,5.0;" x1="371" x2="371" y1="82.6094" y2="1171.3984"/><line style="stroke:#181818;stroke-width:0.5;stroke-dasharray:5.0,5.0;" x1="531.5" x2="531.5" y1="82.6094" y2="1171.3984"/><line style="stroke:#181818;stroke-width:0.5;stroke-dasharray:5.0,5.0;" x1="685.5" x2="685.5" y1="82.6094" y2="1171.3984"/><line style="stroke:#181818;stroke-width:0.5;stroke-dasharray:5.0,5.0;" x1="966" x2="966" y1="82.6094" y2="1171.3984"/><line style="stroke:#181818;stroke-width:0.5;stroke-dasharray:5.0,5.0;" x1="1232" x2="1232" y1="82.6094" y2="1171.3984"/><line style="stroke:#181818;stroke-width:0.5;stroke-dasharray:5.0,5.0;" x1="1565.5" x2="1565.5" y1="82.6094" y2="1171.3984"/><line style="stroke:#181818;stroke-width:0.5;stroke-dasharray:5.0,5.0;" x1="1663.5" x2="1663.5" y1="82.6094" y2="1171.3984"/><text fill="#000000" font-family="sans-serif" font-size="14" lengthAdjust="spacing" textLength="176" x="30" y="79.5332">Human Resources Manager</text><ellipse cx="121" cy="13.5" fill="#E3E3E3" rx="8" ry="8" style="stroke:#181818;stroke-width:0.5;"/><path d="M121,21.5 L121,48.5 M108,29.5 L134,29.5 M121,48.5 L108,63.5 M121,48.5 L134,63.5 " fill="none" style="stroke:#181818;stroke-width:0.5;"/><text fill="#000000" font-family="sans-serif" font-size="14" lengthAdjust="spacing" textLength="176" x="30" y="1184.9316">Human Resources Manager</text><ellipse cx="121" cy="1196.5078" fill="#E3E3E3" rx="8" ry="8" style="stroke:#181818;stroke-width:0.5;"/><path d="M121,1204.5078 L121,1231.5078 M108,1212.5078 L134,1212.5078 M121,1231.5078 L108,1246.5078 M121,1231.5078 L134,1246.5078 " fill="none" style="stroke:#181818;stroke-width:0.5;"/><rect fill="#E3E3E3" height="31.6094" rx="2.5" ry="2.5" style="stroke:#181818;stroke-width:0.5;" width="126" x="308" y="50"/><text fill="#000000" font-family="sans-serif" font-size="14" lengthAdjust="spacing" textLength="112" x="315" y="71.5332">:GenerateTeamUI</text><rect fill="#E3E3E3" height="31.6094" rx="2.5" ry="2.5" style="stroke:#181818;stroke-width:0.5;" width="126" x="308" y="1170.3984"/><text fill="#000000" font-family="sans-serif" font-size="14" lengthAdjust="spacing" textLength="112" x="315" y="1191.9316">:GenerateTeamUI</text><rect fill="#E3E3E3" height="49.2188" rx="2.5" ry="2.5" style="stroke:#181818;stroke-width:0.5;" width="111" x="476.5" y="32.3906"/><text fill="#000000" font-family="sans-serif" font-size="14" lengthAdjust="spacing" textLength="97" x="483.5" y="53.9238">SkillRepository:</text><text fill="#000000" font-family="sans-serif" font-size="14" lengthAdjust="spacing" textLength="93" x="485.5" y="71.5332">SkillRepository</text><rect fill="#E3E3E3" height="49.2188" rx="2.5" ry="2.5" style="stroke:#181818;stroke-width:0.5;" width="111" x="476.5" y="1170.3984"/><text fill="#000000" font-family="sans-serif" font-size="14" lengthAdjust="spacing" textLength="97" x="483.5" y="1191.9316">SkillRepository:</text><text fill="#000000" font-family="sans-serif" font-size="14" lengthAdjust="spacing" textLength="93" x="485.5" y="1209.541">SkillRepository</text><rect fill="#E3E3E3" height="31.6094" rx="2.5" ry="2.5" style="stroke:#181818;stroke-width:0.5;" width="176" x="597.5" y="50"/><text fill="#000000" font-family="sans-serif" font-size="14" lengthAdjust="spacing" textLength="162" x="604.5" y="71.5332">:GenerateTeamController</text><rect fill="#E3E3E3" height="31.6094" rx="2.5" ry="2.5" style="stroke:#181818;stroke-width:0.5;" width="176" x="597.5" y="1170.3984"/><text fill="#000000" font-family="sans-serif" font-size="14" lengthAdjust="spacing" textLength="162" x="604.5" y="1191.9316">:GenerateTeamController</text><rect fill="#E3E3E3" height="49.2188" rx="2.5" ry="2.5" style="stroke:#181818;stroke-width:0.5;" width="101" x="916" y="32.3906"/><text fill="#000000" font-family="sans-serif" font-size="14" lengthAdjust="spacing" textLength="87" x="923" y="53.9238">TeamService:</text><text fill="#000000" font-family="sans-serif" font-size="14" lengthAdjust="spacing" textLength="83" x="925" y="71.5332">TeamService</text><rect fill="#E3E3E3" height="49.2188" rx="2.5" ry="2.5" style="stroke:#181818;stroke-width:0.5;" width="101" x="916" y="1170.3984"/><text fill="#000000" font-family="sans-serif" font-size="14" lengthAdjust="spacing" textLength="87" x="923" y="1191.9316">TeamService:</text><text fill="#000000" font-family="sans-serif" font-size="14" lengthAdjust="spacing" textLength="83" x="925" y="1209.541">TeamService</text><rect fill="#E3E3E3" height="49.2188" rx="2.5" ry="2.5" style="stroke:#181818;stroke-width:0.5;" width="173" x="1146" y="32.3906"/><text fill="#000000" font-family="sans-serif" font-size="14" lengthAdjust="spacing" textLength="159" x="1153" y="53.9238">TeamMemberRepository:</text><text fill="#000000" font-family="sans-serif" font-size="14" lengthAdjust="spacing" textLength="155" x="1155" y="71.5332">TeamMemberRepository</text><rect fill="#E3E3E3" height="49.2188" rx="2.5" ry="2.5" style="stroke:#181818;stroke-width:0.5;" width="173" x="1146" y="1170.3984"/><text fill="#000000" font-family="sans-serif" font-size="14" lengthAdjust="spacing" textLength="159" x="1153" y="1191.9316">TeamMemberRepository:</text><text fill="#000000" font-family="sans-serif" font-size="14" lengthAdjust="spacing" textLength="155" x="1155" y="1209.541">TeamMemberRepository</text><rect fill="#E3E3E3" height="49.2188" rx="2.5" ry="2.5" style="stroke:#181818;stroke-width:0.5;" width="122" x="1504.5" y="32.3906"/><text fill="#000000" font-family="sans-serif" font-size="14" lengthAdjust="spacing" textLength="108" x="1511.5" y="53.9238">TeamRepository:</text><text fill="#000000" font-family="sans-serif" font-size="14" lengthAdjust="spacing" textLength="104" x="1513.5" y="71.5332">TeamRepository</text><rect fill="#E3E3E3" height="49.2188" rx="2.5" ry="2.5" style="stroke:#181818;stroke-width:0.5;" width="122" x="1504.5" y="1170.3984"/><text fill="#000000" font-family="sans-serif" font-size="14" lengthAdjust="spacing" textLength="108" x="1511.5" y="1191.9316">TeamRepository:</text><text fill="#000000" font-family="sans-serif" font-size="14" lengthAdjust="spacing" textLength="104" x="1513.5" y="1209.541">TeamRepository</text><rect fill="#E3E3E3" height="49.2188" rx="2.5" ry="2.5" style="stroke:#181818;stroke-width:0.5;" width="54" x="1636.5" y="32.3906"/><text fill="#000000" font-family="sans-serif" font-size="14" lengthAdjust="spacing" textLength="31" x="1648" y="53.9238">team</text><text fill="#000000" font-family="sans-serif" font-size="14" lengthAdjust="spacing" textLength="40" x="1643.5" y="71.5332">:Team</text><rect fill="#E3E3E3" height="49.2188" rx="2.5" ry="2.5" style="stroke:#181818;stroke-width:0.5;" width="54" x="1636.5" y="1170.3984"/><text fill="#000000" font-family="sans-serif" font-size="14" lengthAdjust="spacing" textLength="31" x="1648" y="1191.9316">team</text><text fill="#000000" font-family="sans-serif" font-size="14" lengthAdjust="spacing" textLength="40" x="1643.5" y="1209.541">:Team</text><rect fill="#FFFFFF" height="1069.7891" style="stroke:#181818;stroke-width:1.0;" width="10" x="116" y="92.6094"/><rect fill="#FFFFFF" height="649.3828" style="stroke:#181818;stroke-width:1.0;" width="10" x="366" y="114.9609"/><rect fill="#FFFFFF" height="237.8125" style="stroke:#181818;stroke-width:1.0;" width="10" x="366" y="825.0469"/><rect fill="#FFFFFF" height="30.3516" style="stroke:#181818;stroke-width:1.0;" width="10" x="527" y="231.3672"/><rect fill="#FFFFFF" height="30.3516" style="stroke:#181818;stroke-width:1.0;" width="10" x="680.5" y="170.6641"/><rect fill="#FFFFFF" height="91.0547" style="stroke:#181818;stroke-width:1.0;" width="10" x="680.5" y="360.7734"/><rect fill="#FFFFFF" height="244.8125" style="stroke:#181818;stroke-width:1.0;" width="10" x="680.5" y="489.1797"/><rect fill="#FFFFFF" height="177.1094" style="stroke:#181818;stroke-width:1.0;" width="10" x="680.5" y="855.3984"/><rect fill="#FFFFFF" height="30.3516" style="stroke:#181818;stroke-width:1.0;" width="10" x="961.5" y="391.125"/><rect fill="#FFFFFF" height="184.1094" style="stroke:#181818;stroke-width:1.0;" width="10" x="961.5" y="519.5313"/><rect fill="#FFFFFF" height="91.0547" style="stroke:#181818;stroke-width:1.0;" width="10" x="961.5" y="911.1016"/><rect fill="#FFFFFF" height="30.3516" style="stroke:#181818;stroke-width:1.0;" width="10" x="1227.5" y="575.2344"/><rect fill="#FFFFFF" height="30.3516" style="stroke:#181818;stroke-width:1.0;" width="10" x="1560.5" y="941.4531"/><rect fill="#FFFFFF" height="30.3516" style="stroke:#181818;stroke-width:1.0;" width="10" x="1658.5" y="635.9375"/><polygon fill="#181818" points="354,110.9609,364,114.9609,354,118.9609,358,114.9609" style="stroke:#181818;stroke-width:1.0;"/><line style="stroke:#181818;stroke-width:1.0;" x1="126" x2="360" y1="114.9609" y2="114.9609"/><text fill="#000000" font-family="sans-serif" font-size="13" font-weight="bold" lengthAdjust="spacing" textLength="7" x="133" y="110.1045">1</text><text fill="#000000" font-family="sans-serif" font-size="13" lengthAdjust="spacing" textLength="135" x="144" y="110.1045">Initiate team generation</text><path d="M10,129.9609 L83,129.9609 L83,138.3125 L73,148.3125 L10,148.3125 L10,129.9609 " fill="#EEEEEE" style="stroke:#000000;stroke-width:1.5;"/><rect fill="none" height="1024.4375" style="stroke:#000000;stroke-width:1.5;" width="1700.5" x="10" y="129.9609"/><text fill="#000000" font-family="sans-serif" font-size="13" font-weight="bold" lengthAdjust="spacing" textLength="28" x="25" y="144.4561">loop</text><text fill="#000000" font-family="sans-serif" font-size="11" font-weight="bold" lengthAdjust="spacing" textLength="131" x="98" y="143.3799">[until team is approved]</text><polygon fill="#181818" points="668.5,166.6641,678.5,170.6641,668.5,174.6641,672.5,170.6641" style="stroke:#181818;stroke-width:1.0;"/><line style="stroke:#181818;stroke-width:1.0;" x1="376" x2="674.5" y1="170.6641" y2="170.6641"/><text fill="#000000" font-family="sans-serif" font-size="13" font-weight="bold" lengthAdjust="spacing" textLength="7" x="383" y="165.8076">2</text><text fill="#000000" font-family="sans-serif" font-size="13" lengthAdjust="spacing" textLength="148" x="394" y="165.8076">Request team size inputs</text><polygon fill="#181818" points="387,197.0156,377,201.0156,387,205.0156,383,201.0156" style="stroke:#181818;stroke-width:1.0;"/><line style="stroke:#181818;stroke-width:1.0;stroke-dasharray:2.0,2.0;" x1="381" x2="684.5" y1="201.0156" y2="201.0156"/><text fill="#000000" font-family="sans-serif" font-size="13" font-weight="bold" lengthAdjust="spacing" textLength="7" x="393" y="196.1592">3</text><text fill="#000000" font-family="sans-serif" font-size="13" lengthAdjust="spacing" textLength="138" x="404" y="196.1592">Returns min, max sizes</text><polygon fill="#181818" points="515,227.3672,525,231.3672,515,235.3672,519,231.3672" style="stroke:#181818;stroke-width:1.0;"/><line style="stroke:#181818;stroke-width:1.0;" x1="376" x2="521" y1="231.3672" y2="231.3672"/><text fill="#000000" font-family="sans-serif" font-size="13" font-weight="bold" lengthAdjust="spacing" textLength="7" x="383" y="226.5107">4</text><text fill="#000000" font-family="sans-serif" font-size="13" lengthAdjust="spacing" textLength="50" x="394" y="226.5107">getSkills</text><polygon fill="#181818" points="387,257.7188,377,261.7188,387,265.7188,383,261.7188" style="stroke:#181818;stroke-width:1.0;"/><line style="stroke:#181818;stroke-width:1.0;stroke-dasharray:2.0,2.0;" x1="381" x2="531" y1="261.7188" y2="261.7188"/><text fill="#000000" font-family="sans-serif" font-size="13" font-weight="bold" lengthAdjust="spacing" textLength="7" x="393" y="256.8623">5</text><text fill="#000000" font-family="sans-serif" font-size="13" lengthAdjust="spacing" textLength="116" x="404" y="256.8623">Returns list of Skills</text><path d="M298,276.7188 L371,276.7188 L371,285.0703 L361,295.0703 L298,295.0703 L298,276.7188 " fill="#EEEEEE" style="stroke:#000000;stroke-width:1.5;"/><rect fill="none" height="183.1094" style="stroke:#000000;stroke-width:1.5;" width="729" x="298" y="276.7188"/><text fill="#000000" font-family="sans-serif" font-size="13" font-weight="bold" lengthAdjust="spacing" textLength="28" x="313" y="291.2139">loop</text><text fill="#000000" font-family="sans-serif" font-size="11" font-weight="bold" lengthAdjust="spacing" textLength="130" x="386" y="290.1377">[for each required skill]</text><line style="stroke:#181818;stroke-width:1.0;" x1="376" x2="418" y1="317.4219" y2="317.4219"/><line style="stroke:#181818;stroke-width:1.0;" x1="418" x2="418" y1="317.4219" y2="330.4219"/><line style="stroke:#181818;stroke-width:1.0;" x1="377" x2="418" y1="330.4219" y2="330.4219"/><polygon fill="#181818" points="387,326.4219,377,330.4219,387,334.4219,383,330.4219" style="stroke:#181818;stroke-width:1.0;"/><text fill="#000000" font-family="sans-serif" font-size="13" font-weight="bold" lengthAdjust="spacing" textLength="7" x="383" y="312.5654">6</text><text fill="#000000" font-family="sans-serif" font-size="13" lengthAdjust="spacing" textLength="114" x="394" y="312.5654">Select skill from list</text><polygon fill="#181818" points="668.5,356.7734,678.5,360.7734,668.5,364.7734,672.5,360.7734" style="stroke:#181818;stroke-width:1.0;"/><line style="stroke:#181818;stroke-width:1.0;" x1="376" x2="674.5" y1="360.7734" y2="360.7734"/><text fill="#000000" font-family="sans-serif" font-size="13" font-weight="bold" lengthAdjust="spacing" textLength="7" x="383" y="355.917">7</text><text fill="#000000" font-family="sans-serif" font-size="13" lengthAdjust="spacing" textLength="117" x="394" y="355.917">skillSelected(option)</text><polygon fill="#181818" points="949.5,387.125,959.5,391.125,949.5,395.125,953.5,391.125" style="stroke:#181818;stroke-width:1.0;"/><line style="stroke:#181818;stroke-width:1.0;" x1="690.5" x2="955.5" y1="391.125" y2="391.125"/><text fill="#000000" font-family="sans-serif" font-size="13" font-weight="bold" lengthAdjust="spacing" textLength="7" x="697.5" y="386.2686">8</text><text fill="#000000" font-family="sans-serif" font-size="13" lengthAdjust="spacing" textLength="110" x="708.5" y="386.2686">chooseSkill(option)</text><polygon fill="#181818" points="701.5,417.4766,691.5,421.4766,701.5,425.4766,697.5,421.4766" style="stroke:#181818;stroke-width:1.0;"/><line style="stroke:#181818;stroke-width:1.0;stroke-dasharray:2.0,2.0;" x1="695.5" x2="965.5" y1="421.4766" y2="421.4766"/><text fill="#000000" font-family="sans-serif" font-size="13" font-weight="bold" lengthAdjust="spacing" textLength="7" x="707.5" y="416.6201">9</text><text fill="#000000" font-family="sans-serif" font-size="13" lengthAdjust="spacing" textLength="74" x="718.5" y="416.6201">Returns Skill</text><polygon fill="#181818" points="387,447.8281,377,451.8281,387,455.8281,383,451.8281" style="stroke:#181818;stroke-width:1.0;"/><line style="stroke:#181818;stroke-width:1.0;stroke-dasharray:2.0,2.0;" x1="381" x2="684.5" y1="451.8281" y2="451.8281"/><text fill="#000000" font-family="sans-serif" font-size="13" font-weight="bold" lengthAdjust="spacing" textLength="14" x="393" y="446.9717">10</text><text fill="#000000" font-family="sans-serif" font-size="13" lengthAdjust="spacing" textLength="74" x="411" y="446.9717">Returns Skill</text><polygon fill="#181818" points="668.5,485.1797,678.5,489.1797,668.5,493.1797,672.5,489.1797" style="stroke:#181818;stroke-width:1.0;"/><line style="stroke:#181818;stroke-width:1.0;" x1="376" x2="674.5" y1="489.1797" y2="489.1797"/><text fill="#000000" font-family="sans-serif" font-size="13" font-weight="bold" lengthAdjust="spacing" textLength="14" x="383" y="484.3232">11</text><text fill="#000000" font-family="sans-serif" font-size="13" lengthAdjust="spacing" textLength="203" x="401" y="484.3232">getGenerateTeam(min, max, skills)</text><polygon fill="#181818" points="949.5,515.5313,959.5,519.5313,949.5,523.5313,953.5,519.5313" style="stroke:#181818;stroke-width:1.0;"/><line style="stroke:#181818;stroke-width:1.0;" x1="690.5" x2="955.5" y1="519.5313" y2="519.5313"/><text fill="#000000" font-family="sans-serif" font-size="13" font-weight="bold" lengthAdjust="spacing" textLength="14" x="697.5" y="514.6748">12</text><text fill="#000000" font-family="sans-serif" font-size="13" lengthAdjust="spacing" textLength="234" x="715.5" y="514.6748">generateTeam(minSize, maxSize, skills)</text><path d="M906,534.5313 L979,534.5313 L979,542.8828 L969,552.8828 L906,552.8828 L906,534.5313 " fill="#EEEEEE" style="stroke:#000000;stroke-width:1.5;"/><rect fill="none" height="139.7578" style="stroke:#000000;stroke-width:1.5;" width="794.5" x="906" y="534.5313"/><text fill="#000000" font-family="sans-serif" font-size="13" font-weight="bold" lengthAdjust="spacing" textLength="28" x="921" y="549.0264">loop</text><text fill="#000000" font-family="sans-serif" font-size="11" font-weight="bold" lengthAdjust="spacing" textLength="125" x="994" y="547.9502">[for each skill in skills]</text><polygon fill="#181818" points="1215.5,571.2344,1225.5,575.2344,1215.5,579.2344,1219.5,575.2344" style="stroke:#181818;stroke-width:1.0;"/><line style="stroke:#181818;stroke-width:1.0;" x1="971.5" x2="1221.5" y1="575.2344" y2="575.2344"/><text fill="#000000" font-family="sans-serif" font-size="13" font-weight="bold" lengthAdjust="spacing" textLength="14" x="978.5" y="570.3779">13</text><text fill="#000000" font-family="sans-serif" font-size="13" lengthAdjust="spacing" textLength="219" x="996.5" y="570.3779">findTeamMemberWithSkill(skill, team)</text><polygon fill="#181818" points="982.5,601.5859,972.5,605.5859,982.5,609.5859,978.5,605.5859" style="stroke:#181818;stroke-width:1.0;"/><line style="stroke:#181818;stroke-width:1.0;stroke-dasharray:2.0,2.0;" x1="976.5" x2="1231.5" y1="605.5859" y2="605.5859"/><text fill="#000000" font-family="sans-serif" font-size="13" font-weight="bold" lengthAdjust="spacing" textLength="14" x="988.5" y="600.7295">14</text><text fill="#000000" font-family="sans-serif" font-size="13" lengthAdjust="spacing" textLength="167" x="1006.5" y="600.7295">Returns TeamMember or null</text><polygon fill="#181818" points="1646.5,631.9375,1656.5,635.9375,1646.5,639.9375,1650.5,635.9375" style="stroke:#181818;stroke-width:1.0;"/><line style="stroke:#181818;stroke-width:1.0;" x1="971.5" x2="1652.5" y1="635.9375" y2="635.9375"/><text fill="#000000" font-family="sans-serif" font-size="13" font-weight="bold" lengthAdjust="spacing" textLength="14" x="978.5" y="631.0811">15</text><text fill="#000000" font-family="sans-serif" font-size="13" lengthAdjust="spacing" textLength="117" x="996.5" y="631.0811">assignTeamMember</text><polygon fill="#181818" points="982.5,662.2891,972.5,666.2891,982.5,670.2891,978.5,666.2891" style="stroke:#181818;stroke-width:1.0;"/><line style="stroke:#181818;stroke-width:1.0;stroke-dasharray:2.0,2.0;" x1="976.5" x2="1662.5" y1="666.2891" y2="666.2891"/><text fill="#000000" font-family="sans-serif" font-size="13" font-weight="bold" lengthAdjust="spacing" textLength="14" x="988.5" y="661.4326">16</text><text fill="#000000" font-family="sans-serif" font-size="13" lengthAdjust="spacing" textLength="84" x="1006.5" y="661.4326">Updated Team</text><polygon fill="#181818" points="701.5,699.6406,691.5,703.6406,701.5,707.6406,697.5,703.6406" style="stroke:#181818;stroke-width:1.0;"/><line style="stroke:#181818;stroke-width:1.0;stroke-dasharray:2.0,2.0;" x1="695.5" x2="965.5" y1="703.6406" y2="703.6406"/><text fill="#000000" font-family="sans-serif" font-size="13" font-weight="bold" lengthAdjust="spacing" textLength="14" x="707.5" y="698.7842">17</text><text fill="#000000" font-family="sans-serif" font-size="13" lengthAdjust="spacing" textLength="81" x="725.5" y="698.7842">Returns Team</text><polygon fill="#181818" points="387,729.9922,377,733.9922,387,737.9922,383,733.9922" style="stroke:#181818;stroke-width:1.0;"/><line style="stroke:#181818;stroke-width:1.0;stroke-dasharray:2.0,2.0;" x1="381" x2="684.5" y1="733.9922" y2="733.9922"/><text fill="#000000" font-family="sans-serif" font-size="13" font-weight="bold" lengthAdjust="spacing" textLength="14" x="393" y="729.1357">18</text><text fill="#000000" font-family="sans-serif" font-size="13" lengthAdjust="spacing" textLength="88" x="411" y="729.1357">Presents Team</text><polygon fill="#181818" points="137,760.3438,127,764.3438,137,768.3438,133,764.3438" style="stroke:#181818;stroke-width:1.0;"/><line style="stroke:#181818;stroke-width:1.0;stroke-dasharray:2.0,2.0;" x1="131" x2="370" y1="764.3438" y2="764.3438"/><text fill="#000000" font-family="sans-serif" font-size="13" font-weight="bold" lengthAdjust="spacing" textLength="14" x="143" y="759.4873">19</text><text fill="#000000" font-family="sans-serif" font-size="13" lengthAdjust="spacing" textLength="86" x="161" y="759.4873">Displays Team</text><polygon fill="#181818" points="359,790.6953,369,794.6953,359,798.6953,363,794.6953" style="stroke:#181818;stroke-width:1.0;"/><line style="stroke:#181818;stroke-width:1.0;" x1="126" x2="365" y1="794.6953" y2="794.6953"/><text fill="#000000" font-family="sans-serif" font-size="13" font-weight="bold" lengthAdjust="spacing" textLength="14" x="133" y="789.8389">20</text><text fill="#000000" font-family="sans-serif" font-size="13" lengthAdjust="spacing" textLength="162" x="151" y="789.8389">Submits selection (Approve/</text><polygon fill="#181818" points="354,821.0469,364,825.0469,354,829.0469,358,825.0469" style="stroke:#181818;stroke-width:1.0;"/><line style="stroke:#181818;stroke-width:1.0;" x1="126" x2="360" y1="825.0469" y2="825.0469"/><text fill="#000000" font-family="sans-serif" font-size="13" font-weight="bold" lengthAdjust="spacing" textLength="14" x="133" y="820.1904">21</text><text fill="#000000" font-family="sans-serif" font-size="13" lengthAdjust="spacing" textLength="203" x="151" y="820.1904">Submits selection (Approve/Reject)</text><polygon fill="#181818" points="668.5,851.3984,678.5,855.3984,668.5,859.3984,672.5,855.3984" style="stroke:#181818;stroke-width:1.0;"/><line style="stroke:#181818;stroke-width:1.0;" x1="376" x2="674.5" y1="855.3984" y2="855.3984"/><text fill="#000000" font-family="sans-serif" font-size="13" font-weight="bold" lengthAdjust="spacing" textLength="14" x="383" y="850.542">22</text><text fill="#000000" font-family="sans-serif" font-size="13" lengthAdjust="spacing" textLength="203" x="401" y="850.542">Submits selection (Approve/Reject)</text><path d="M20,870.3984 L81,870.3984 L81,878.75 L71,888.75 L20,888.75 L20,870.3984 " fill="#EEEEEE" style="stroke:#000000;stroke-width:1.5;"/><rect fill="none" height="277" style="stroke:#000000;stroke-width:1.5;" width="1616.5" x="20" y="870.3984"/><text fill="#000000" font-family="sans-serif" font-size="13" font-weight="bold" lengthAdjust="spacing" textLength="16" x="35" y="884.8936">alt</text><text fill="#000000" font-family="sans-serif" font-size="11" font-weight="bold" lengthAdjust="spacing" textLength="55" x="96" y="883.8174">[Approve]</text><polygon fill="#181818" points="949.5,907.1016,959.5,911.1016,949.5,915.1016,953.5,911.1016" style="stroke:#181818;stroke-width:1.0;"/><line style="stroke:#181818;stroke-width:1.0;" x1="690.5" x2="955.5" y1="911.1016" y2="911.1016"/><text fill="#000000" font-family="sans-serif" font-size="13" font-weight="bold" lengthAdjust="spacing" textLength="14" x="697.5" y="906.2451">23</text><text fill="#000000" font-family="sans-serif" font-size="13" lengthAdjust="spacing" textLength="119" x="715.5" y="906.2451">teamApproved(team)</text><polygon fill="#181818" points="1548.5,937.4531,1558.5,941.4531,1548.5,945.4531,1552.5,941.4531" style="stroke:#181818;stroke-width:1.0;"/><line style="stroke:#181818;stroke-width:1.0;" x1="971.5" x2="1554.5" y1="941.4531" y2="941.4531"/><text fill="#000000" font-family="sans-serif" font-size="13" font-weight="bold" lengthAdjust="spacing" textLength="14" x="978.5" y="936.5967">24</text><text fill="#000000" font-family="sans-serif" font-size="13" lengthAdjust="spacing" textLength="552" x="996.5" y="936.5967">createTeam(team.getMinSize(), team.getMaxSize(), team.getSkills(), team.getTeamMembers())</text><polygon fill="#181818" points="982.5,967.8047,972.5,971.8047,982.5,975.8047,978.5,971.8047" style="stroke:#181818;stroke-width:1.0;"/><line style="stroke:#181818;stroke-width:1.0;stroke-dasharray:2.0,2.0;" x1="976.5" x2="1564.5" y1="971.8047" y2="971.8047"/><text fill="#000000" font-family="sans-serif" font-size="13" font-weight="bold" lengthAdjust="spacing" textLength="14" x="988.5" y="966.9482">25</text><text fill="#000000" font-family="sans-serif" font-size="13" lengthAdjust="spacing" textLength="144" x="1006.5" y="966.9482">Team created and stored</text><polygon fill="#181818" points="701.5,998.1563,691.5,1002.1563,701.5,1006.1563,697.5,1002.1563" style="stroke:#181818;stroke-width:1.0;"/><line style="stroke:#181818;stroke-width:1.0;stroke-dasharray:2.0,2.0;" x1="695.5" x2="965.5" y1="1002.1563" y2="1002.1563"/><text fill="#000000" font-family="sans-serif" font-size="13" font-weight="bold" lengthAdjust="spacing" textLength="14" x="707.5" y="997.2998">26</text><text fill="#000000" font-family="sans-serif" font-size="13" lengthAdjust="spacing" textLength="135" x="725.5" y="997.2998">Confirms team approval</text><polygon fill="#181818" points="387,1028.5078,377,1032.5078,387,1036.5078,383,1032.5078" style="stroke:#181818;stroke-width:1.0;"/><line style="stroke:#181818;stroke-width:1.0;stroke-dasharray:2.0,2.0;" x1="381" x2="684.5" y1="1032.5078" y2="1032.5078"/><text fill="#000000" font-family="sans-serif" font-size="13" font-weight="bold" lengthAdjust="spacing" textLength="14" x="393" y="1027.6514">27</text><text fill="#000000" font-family="sans-serif" font-size="13" lengthAdjust="spacing" textLength="135" x="411" y="1027.6514">Confirms team approval</text><polygon fill="#181818" points="137,1058.8594,127,1062.8594,137,1066.8594,133,1062.8594" style="stroke:#181818;stroke-width:1.0;"/><line style="stroke:#181818;stroke-width:1.0;stroke-dasharray:2.0,2.0;" x1="131" x2="370" y1="1062.8594" y2="1062.8594"/><text fill="#000000" font-family="sans-serif" font-size="13" font-weight="bold" lengthAdjust="spacing" textLength="14" x="143" y="1058.0029">28</text><text fill="#000000" font-family="sans-serif" font-size="13" lengthAdjust="spacing" textLength="135" x="161" y="1058.0029">Confirms team approval</text><line style="stroke:#000000;stroke-width:1.0;stroke-dasharray:2.0,2.0;" x1="20" x2="1636.5" y1="1071.8594" y2="1071.8594"/><text fill="#000000" font-family="sans-serif" font-size="11" font-weight="bold" lengthAdjust="spacing" textLength="42" x="25" y="1083.2783">[Reject]</text><polygon fill="#181818" points="382,1105.0469,372,1109.0469,382,1113.0469,378,1109.0469" style="stroke:#181818;stroke-width:1.0;"/><line style="stroke:#181818;stroke-width:1.0;stroke-dasharray:2.0,2.0;" x1="376" x2="684.5" y1="1109.0469" y2="1109.0469"/><text fill="#000000" font-family="sans-serif" font-size="13" font-weight="bold" lengthAdjust="spacing" textLength="14" x="388" y="1104.1904">29</text><text fill="#000000" font-family="sans-serif" font-size="13" lengthAdjust="spacing" textLength="170" x="406" y="1104.1904">Acknowledges team rejection</text><polygon fill="#181818" points="137,1135.3984,127,1139.3984,137,1143.3984,133,1139.3984" style="stroke:#181818;stroke-width:1.0;"/><line style="stroke:#181818;stroke-width:1.0;stroke-dasharray:2.0,2.0;" x1="131" x2="370" y1="1139.3984" y2="1139.3984"/><text fill="#000000" font-family="sans-serif" font-size="13" font-weight="bold" lengthAdjust="spacing" textLength="14" x="143" y="1134.542">30</text><text fill="#000000" font-family="sans-serif" font-size="13" lengthAdjust="spacing" textLength="170" x="161" y="1134.542">Acknowledges team rejection</text><!--SRC=[jLV1Rjim3BtxAuYUKg3PxZaKA3PWxI704A_OfHVLPXmjjkHAShlkwqTBYIFBikkqMu0OiKI-HudaawBtNDHCiGegAMIsKx92CAh1H7SpDSlshC3Kl9O82ZF3H57w1dh7Sld2HG5RLcfC4jOOAPhg4HNzpenKS77RL4p01hLiL8OQramGfhe0fk5siqu8oV2CrqmOk5XzGu6A6Vo1hBg_iqRzeRvzkkTbkS5QQavahwi74OnOX61iWlAB54R9iZp45v_g-xTpAQfddY7HUsyMmNiVkgsntQbU-B7X3YYS628Ei28eO_w6vXx4gZNfR6qM-JDjWSrLGWzONWSfWHNS2MvuQzM2GE6ckHGdzo2BIIbb3Oqml7G-N0EhQoMVCK-0FlOHy0JCfunG11jyQb0R1wRv7mGgqiPeYnEDmajebD23NyRMl47JAA6Xuk8AAlRRiZg-7DzYd5fZKAv4LQ2nWy5gmhgsiw7tPEmbfosJM_3GlTYZ-FPXixUbzYRZ7Kd3KyCLvg1R1slmTlPi72cM92lE3xQaGJQYcGYz_5i81uVvGjPjzLrsGBFICLK0rtud4rssarAZtQ1nCh_vkraVPpbTqIv7QMzJlVH4uTzJmQCC4-s28a_UrQXKo_xSujW-Low5-ZAPdR2voIe2lfGQrNAw7r7UmUP6wjwLBHS7X7YAhwFIJL5jkSXFKp-vsRboic1NLiX6Qcfm3lIO1rJBmOOS4tyo1rgJQCRhR9noQjL4nRJcXNUinLVKNq4auliw9zlS6O_4sA_Bi_kiWvXgiNFQwxj2ZSB4aUVMTTjD1DuUl2luodLTijUt4TiJjalEsA6TDeyLf_2qLKsIC5ZSk2FuS_8nzmt-eg69JZx6TuPkV8Gkt61M6ZWudwtyRLyUVFF5H9E6oZpL9prTo1GUjQg5_qI2kNQQjRXqic27d7hvG-uGzqTERKV38t6EoSYaWDWkTO7cm0IT_6HukBb5McYCOrP_qikMgqgxgvsx9BB_So3Efphd7j5huVTHKBzOSQC_MU2gVQY_vopq9jiB-L9YNk0X4cLHsolxlrpj1tYEIoOzf-zV]--></g></svg>