<?xml version="1.0" encoding="us-ascii" standalone="no"?><svg xmlns="http://www.w3.org/2000/svg" xmlns:xlink="http://www.w3.org/1999/xlink" contentStyleType="text/css" height="949px" preserveAspectRatio="none" style="width:1235px;height:949px;background:#FFFFFF;" version="1.1" viewBox="0 0 1235 949" width="1235px" zoomAndPan="magnify"><defs/><g><!--class AssignSkillUI--><g id="elem_AssignSkillUI"><rect codeLine="11" fill="#F1F1F1" height="48" id="AssignSkillUI" rx="2.5" ry="2.5" style="stroke:#181818;stroke-width:0.5;" width="111" x="7" y="100"/><ellipse cx="22" cy="116" fill="#ADD1B2" rx="11" ry="11" style="stroke:#181818;stroke-width:1.0;"/><path d="M24.7656,111.875 Q24.9219,111.6563 25.1094,111.5469 Q25.2969,111.4375 25.5156,111.4375 Q25.8906,111.4375 26.125,111.7031 Q26.3594,111.9531 26.3594,112.5625 L26.3594,114.0156 Q26.3594,114.625 26.125,114.8906 Q25.8906,115.1563 25.5156,115.1563 Q25.1719,115.1563 24.9688,114.9531 Q24.7656,114.7656 24.6563,114.25 Q24.6094,113.8906 24.4219,113.7031 Q24.0938,113.3281 23.4844,113.1094 Q22.875,112.8906 22.25,112.8906 Q21.4844,112.8906 20.8438,113.2188 Q20.2188,113.5469 19.7188,114.2969 Q19.2344,115.0469 19.2344,116.0781 L19.2344,117.1719 Q19.2344,118.4063 20.125,119.2344 Q21.0156,120.0469 22.6094,120.0469 Q23.5469,120.0469 24.2031,119.7969 Q24.5938,119.6406 25.0156,119.2031 Q25.2813,118.9375 25.4219,118.8594 Q25.5781,118.7813 25.7813,118.7813 Q26.1094,118.7813 26.3594,119.0469 Q26.625,119.2969 26.625,119.6406 Q26.625,119.9844 26.2813,120.3906 Q25.7813,120.9688 24.9844,121.2969 Q23.9063,121.75 22.6094,121.75 Q21.0938,121.75 19.8906,121.125 Q18.9063,120.625 18.2188,119.5625 Q17.5313,118.4844 17.5313,117.2031 L17.5313,116.0469 Q17.5313,114.7188 18.1406,113.5781 Q18.7656,112.4219 19.8594,111.8125 Q20.9531,111.1875 22.1875,111.1875 Q22.9219,111.1875 23.5625,111.3594 Q24.2188,111.5156 24.7656,111.875 Z " fill="#000000"/><text fill="#000000" font-family="sans-serif" font-size="14" lengthAdjust="spacing" textLength="79" x="36" y="121.7969">AssignSkillUI</text><line style="stroke:#181818;stroke-width:0.5;" x1="8" x2="117" y1="132" y2="132"/><line style="stroke:#181818;stroke-width:0.5;" x1="8" x2="117" y1="140" y2="140"/></g><!--class AssignSkillController--><g id="elem_AssignSkillController"><rect codeLine="14" fill="#F1F1F1" height="141.1055" id="AssignSkillController" rx="2.5" ry="2.5" style="stroke:#181818;stroke-width:0.5;" width="672" x="153.5" y="53.5"/><ellipse cx="420.75" cy="69.5" fill="#ADD1B2" rx="11" ry="11" style="stroke:#181818;stroke-width:1.0;"/><path d="M423.5156,65.375 Q423.6719,65.1563 423.8594,65.0469 Q424.0469,64.9375 424.2656,64.9375 Q424.6406,64.9375 424.875,65.2031 Q425.1094,65.4531 425.1094,66.0625 L425.1094,67.5156 Q425.1094,68.125 424.875,68.3906 Q424.6406,68.6563 424.2656,68.6563 Q423.9219,68.6563 423.7188,68.4531 Q423.5156,68.2656 423.4063,67.75 Q423.3594,67.3906 423.1719,67.2031 Q422.8438,66.8281 422.2344,66.6094 Q421.625,66.3906 421,66.3906 Q420.2344,66.3906 419.5938,66.7188 Q418.9688,67.0469 418.4688,67.7969 Q417.9844,68.5469 417.9844,69.5781 L417.9844,70.6719 Q417.9844,71.9063 418.875,72.7344 Q419.7656,73.5469 421.3594,73.5469 Q422.2969,73.5469 422.9531,73.2969 Q423.3438,73.1406 423.7656,72.7031 Q424.0313,72.4375 424.1719,72.3594 Q424.3281,72.2813 424.5313,72.2813 Q424.8594,72.2813 425.1094,72.5469 Q425.375,72.7969 425.375,73.1406 Q425.375,73.4844 425.0313,73.8906 Q424.5313,74.4688 423.7344,74.7969 Q422.6563,75.25 421.3594,75.25 Q419.8438,75.25 418.6406,74.625 Q417.6563,74.125 416.9688,73.0625 Q416.2813,71.9844 416.2813,70.7031 L416.2813,69.5469 Q416.2813,68.2188 416.8906,67.0781 Q417.5156,65.9219 418.6094,65.3125 Q419.7031,64.6875 420.9375,64.6875 Q421.6719,64.6875 422.3125,64.8594 Q422.9688,65.0156 423.5156,65.375 Z " fill="#000000"/><text fill="#000000" font-family="sans-serif" font-size="14" lengthAdjust="spacing" textLength="129" x="441.25" y="75.2969">AssignSkillController</text><line style="stroke:#181818;stroke-width:0.5;" x1="154.5" x2="824.5" y1="85.5" y2="85.5"/><text fill="#000000" font-family="sans-serif" font-size="14" lengthAdjust="spacing" textLength="193" x="159.5" y="104.6074">-SkillRepository skillRepository</text><text fill="#000000" font-family="sans-serif" font-size="14" lengthAdjust="spacing" textLength="314" x="159.5" y="123.2285">-TeamMemberRepository teamMemberRepository</text><line style="stroke:#181818;stroke-width:0.5;" x1="154.5" x2="824.5" y1="130.7422" y2="130.7422"/><text fill="#000000" font-family="sans-serif" font-size="14" lengthAdjust="spacing" textLength="660" x="159.5" y="149.8496">+AssignSkillController(skillRepository: SkillRepository, teamMemberRepository: TeamMemberRepository)</text><text fill="#000000" font-family="sans-serif" font-size="14" lengthAdjust="spacing" textLength="4" x="159.5" y="168.4707">&#160;</text><text fill="#000000" font-family="sans-serif" font-size="14" lengthAdjust="spacing" textLength="447" x="159.5" y="187.0918">+assignSkillToTeamMember(teamMemberId: String, skillId: String): void</text></g><!--class Repositories--><g id="elem_Repositories"><rect codeLine="25" fill="#F1F1F1" height="234.2109" id="Repositories" rx="2.5" ry="2.5" style="stroke:#181818;stroke-width:0.5;" width="368" x="860.5" y="7"/><ellipse cx="1000.75" cy="23" fill="#ADD1B2" rx="11" ry="11" style="stroke:#181818;stroke-width:1.0;"/><path d="M1003.5156,18.875 Q1003.6719,18.6563 1003.8594,18.5469 Q1004.0469,18.4375 1004.2656,18.4375 Q1004.6406,18.4375 1004.875,18.7031 Q1005.1094,18.9531 1005.1094,19.5625 L1005.1094,21.0156 Q1005.1094,21.625 1004.875,21.8906 Q1004.6406,22.1563 1004.2656,22.1563 Q1003.9219,22.1563 1003.7188,21.9531 Q1003.5156,21.7656 1003.4063,21.25 Q1003.3594,20.8906 1003.1719,20.7031 Q1002.8438,20.3281 1002.2344,20.1094 Q1001.625,19.8906 1001,19.8906 Q1000.2344,19.8906 999.5938,20.2188 Q998.9688,20.5469 998.4688,21.2969 Q997.9844,22.0469 997.9844,23.0781 L997.9844,24.1719 Q997.9844,25.4063 998.875,26.2344 Q999.7656,27.0469 1001.3594,27.0469 Q1002.2969,27.0469 1002.9531,26.7969 Q1003.3438,26.6406 1003.7656,26.2031 Q1004.0313,25.9375 1004.1719,25.8594 Q1004.3281,25.7813 1004.5313,25.7813 Q1004.8594,25.7813 1005.1094,26.0469 Q1005.375,26.2969 1005.375,26.6406 Q1005.375,26.9844 1005.0313,27.3906 Q1004.5313,27.9688 1003.7344,28.2969 Q1002.6563,28.75 1001.3594,28.75 Q999.8438,28.75 998.6406,28.125 Q997.6563,27.625 996.9688,26.5625 Q996.2813,25.4844 996.2813,24.2031 L996.2813,23.0469 Q996.2813,21.7188 996.8906,20.5781 Q997.5156,19.4219 998.6094,18.8125 Q999.7031,18.1875 1000.9375,18.1875 Q1001.6719,18.1875 1002.3125,18.3594 Q1002.9688,18.5156 1003.5156,18.875 Z " fill="#000000"/><text fill="#000000" font-family="sans-serif" font-size="14" lengthAdjust="spacing" textLength="79" x="1021.25" y="28.7969">Repositories</text><line style="stroke:#181818;stroke-width:0.5;" x1="861.5" x2="1227.5" y1="39" y2="39"/><text fill="#000000" font-family="sans-serif" font-size="14" lengthAdjust="spacing" textLength="178" x="866.5" y="58.1074">-static Repositories instance</text><text fill="#000000" font-family="sans-serif" font-size="14" lengthAdjust="spacing" textLength="193" x="866.5" y="76.7285">-SkillRepository skillRepository</text><text fill="#000000" font-family="sans-serif" font-size="14" lengthAdjust="spacing" textLength="314" x="866.5" y="95.3496">-TeamMemberRepository teamMemberRepository</text><line style="stroke:#181818;stroke-width:0.5;" x1="861.5" x2="1227.5" y1="102.8633" y2="102.8633"/><text fill="#000000" font-family="sans-serif" font-size="14" lengthAdjust="spacing" textLength="94" x="866.5" y="121.9707">-Repositories()</text><text fill="#000000" font-family="sans-serif" font-size="14" lengthAdjust="spacing" textLength="4" x="866.5" y="140.5918">&#160;</text><text fill="#000000" font-family="sans-serif" font-size="14" lengthAdjust="spacing" textLength="215" x="866.5" y="159.2129">+static getInstance(): Repositories</text><text fill="#000000" font-family="sans-serif" font-size="14" lengthAdjust="spacing" textLength="4" x="866.5" y="177.834">&#160;</text><text fill="#000000" font-family="sans-serif" font-size="14" lengthAdjust="spacing" textLength="232" x="866.5" y="196.4551">+getSkillRepository(): SkillRepository</text><text fill="#000000" font-family="sans-serif" font-size="14" lengthAdjust="spacing" textLength="4" x="866.5" y="215.0762">&#160;</text><text fill="#000000" font-family="sans-serif" font-size="14" lengthAdjust="spacing" textLength="356" x="866.5" y="233.6973">+getTeamMemberRepository(): TeamMemberRepository</text></g><!--class SkillRepository--><g id="elem_SkillRepository"><rect codeLine="43" fill="#F1F1F1" height="159.7266" id="SkillRepository" rx="2.5" ry="2.5" style="stroke:#181818;stroke-width:0.5;" width="214" x="505.5" y="319.5"/><ellipse cx="561.75" cy="335.5" fill="#ADD1B2" rx="11" ry="11" style="stroke:#181818;stroke-width:1.0;"/><path d="M564.5156,331.375 Q564.6719,331.1563 564.8594,331.0469 Q565.0469,330.9375 565.2656,330.9375 Q565.6406,330.9375 565.875,331.2031 Q566.1094,331.4531 566.1094,332.0625 L566.1094,333.5156 Q566.1094,334.125 565.875,334.3906 Q565.6406,334.6563 565.2656,334.6563 Q564.9219,334.6563 564.7188,334.4531 Q564.5156,334.2656 564.4063,333.75 Q564.3594,333.3906 564.1719,333.2031 Q563.8438,332.8281 563.2344,332.6094 Q562.625,332.3906 562,332.3906 Q561.2344,332.3906 560.5938,332.7188 Q559.9688,333.0469 559.4688,333.7969 Q558.9844,334.5469 558.9844,335.5781 L558.9844,336.6719 Q558.9844,337.9063 559.875,338.7344 Q560.7656,339.5469 562.3594,339.5469 Q563.2969,339.5469 563.9531,339.2969 Q564.3438,339.1406 564.7656,338.7031 Q565.0313,338.4375 565.1719,338.3594 Q565.3281,338.2813 565.5313,338.2813 Q565.8594,338.2813 566.1094,338.5469 Q566.375,338.7969 566.375,339.1406 Q566.375,339.4844 566.0313,339.8906 Q565.5313,340.4688 564.7344,340.7969 Q563.6563,341.25 562.3594,341.25 Q560.8438,341.25 559.6406,340.625 Q558.6563,340.125 557.9688,339.0625 Q557.2813,337.9844 557.2813,336.7031 L557.2813,335.5469 Q557.2813,334.2188 557.8906,333.0781 Q558.5156,331.9219 559.6094,331.3125 Q560.7031,330.6875 561.9375,330.6875 Q562.6719,330.6875 563.3125,330.8594 Q563.9688,331.0156 564.5156,331.375 Z " fill="#000000"/><text fill="#000000" font-family="sans-serif" font-size="14" lengthAdjust="spacing" textLength="93" x="582.25" y="341.2969">SkillRepository</text><line style="stroke:#181818;stroke-width:0.5;" x1="506.5" x2="718.5" y1="351.5" y2="351.5"/><text fill="#000000" font-family="sans-serif" font-size="14" lengthAdjust="spacing" textLength="102" x="511.5" y="370.6074">-List&lt;Skill&gt; skills</text><line style="stroke:#181818;stroke-width:0.5;" x1="506.5" x2="718.5" y1="378.1211" y2="378.1211"/><text fill="#000000" font-family="sans-serif" font-size="14" lengthAdjust="spacing" textLength="111" x="511.5" y="397.2285">+SkillRepository()</text><text fill="#000000" font-family="sans-serif" font-size="14" lengthAdjust="spacing" textLength="4" x="511.5" y="415.8496">&#160;</text><text fill="#000000" font-family="sans-serif" font-size="14" lengthAdjust="spacing" textLength="202" x="511.5" y="434.4707">+getSkillById(skillId: String): Skill</text><text fill="#000000" font-family="sans-serif" font-size="14" lengthAdjust="spacing" textLength="4" x="511.5" y="453.0918">&#160;</text><text fill="#000000" font-family="sans-serif" font-size="14" lengthAdjust="spacing" textLength="157" x="511.5" y="471.7129">+addSkill(skill: Skill): void</text></g><!--class TeamMemberRepository--><g id="elem_TeamMemberRepository"><rect codeLine="56" fill="#F1F1F1" height="196.9688" id="TeamMemberRepository" rx="2.5" ry="2.5" style="stroke:#181818;stroke-width:0.5;" width="332" x="754.5" y="301"/><ellipse cx="838.75" cy="317" fill="#ADD1B2" rx="11" ry="11" style="stroke:#181818;stroke-width:1.0;"/><path d="M841.5156,312.875 Q841.6719,312.6563 841.8594,312.5469 Q842.0469,312.4375 842.2656,312.4375 Q842.6406,312.4375 842.875,312.7031 Q843.1094,312.9531 843.1094,313.5625 L843.1094,315.0156 Q843.1094,315.625 842.875,315.8906 Q842.6406,316.1563 842.2656,316.1563 Q841.9219,316.1563 841.7188,315.9531 Q841.5156,315.7656 841.4063,315.25 Q841.3594,314.8906 841.1719,314.7031 Q840.8438,314.3281 840.2344,314.1094 Q839.625,313.8906 839,313.8906 Q838.2344,313.8906 837.5938,314.2188 Q836.9688,314.5469 836.4688,315.2969 Q835.9844,316.0469 835.9844,317.0781 L835.9844,318.1719 Q835.9844,319.4063 836.875,320.2344 Q837.7656,321.0469 839.3594,321.0469 Q840.2969,321.0469 840.9531,320.7969 Q841.3438,320.6406 841.7656,320.2031 Q842.0313,319.9375 842.1719,319.8594 Q842.3281,319.7813 842.5313,319.7813 Q842.8594,319.7813 843.1094,320.0469 Q843.375,320.2969 843.375,320.6406 Q843.375,320.9844 843.0313,321.3906 Q842.5313,321.9688 841.7344,322.2969 Q840.6563,322.75 839.3594,322.75 Q837.8438,322.75 836.6406,322.125 Q835.6563,321.625 834.9688,320.5625 Q834.2813,319.4844 834.2813,318.2031 L834.2813,317.0469 Q834.2813,315.7188 834.8906,314.5781 Q835.5156,313.4219 836.6094,312.8125 Q837.7031,312.1875 838.9375,312.1875 Q839.6719,312.1875 840.3125,312.3594 Q840.9688,312.5156 841.5156,312.875 Z " fill="#000000"/><text fill="#000000" font-family="sans-serif" font-size="14" lengthAdjust="spacing" textLength="155" x="859.25" y="322.7969">TeamMemberRepository</text><line style="stroke:#181818;stroke-width:0.5;" x1="755.5" x2="1085.5" y1="333" y2="333"/><text fill="#000000" font-family="sans-serif" font-size="14" lengthAdjust="spacing" textLength="223" x="760.5" y="352.1074">-List&lt;TeamMember&gt; teamMembers</text><line style="stroke:#181818;stroke-width:0.5;" x1="755.5" x2="1085.5" y1="359.6211" y2="359.6211"/><text fill="#000000" font-family="sans-serif" font-size="14" lengthAdjust="spacing" textLength="173" x="760.5" y="378.7285">+TeamMemberRepository()</text><text fill="#000000" font-family="sans-serif" font-size="14" lengthAdjust="spacing" textLength="4" x="760.5" y="397.3496">&#160;</text><text fill="#000000" font-family="sans-serif" font-size="14" lengthAdjust="spacing" textLength="303" x="760.5" y="415.9707">+getTeamMemberById(id: String): TeamMember</text><text fill="#000000" font-family="sans-serif" font-size="14" lengthAdjust="spacing" textLength="4" x="760.5" y="434.5918">&#160;</text><text fill="#000000" font-family="sans-serif" font-size="14" lengthAdjust="spacing" textLength="320" x="760.5" y="453.2129">+createTeamMember(name: String): TeamMember</text><text fill="#000000" font-family="sans-serif" font-size="14" lengthAdjust="spacing" textLength="4" x="760.5" y="471.834">&#160;</text><text fill="#000000" font-family="sans-serif" font-size="14" lengthAdjust="spacing" textLength="234" x="760.5" y="490.4551">+deleteTeamMember(id: String): void</text></g><!--class TeamMember--><g id="elem_TeamMember"><rect codeLine="72" fill="#F1F1F1" height="159.7266" id="TeamMember" rx="2.5" ry="2.5" style="stroke:#181818;stroke-width:0.5;" width="197" x="783" y="558"/><ellipse cx="833.75" cy="574" fill="#ADD1B2" rx="11" ry="11" style="stroke:#181818;stroke-width:1.0;"/><path d="M836.5156,569.875 Q836.6719,569.6563 836.8594,569.5469 Q837.0469,569.4375 837.2656,569.4375 Q837.6406,569.4375 837.875,569.7031 Q838.1094,569.9531 838.1094,570.5625 L838.1094,572.0156 Q838.1094,572.625 837.875,572.8906 Q837.6406,573.1563 837.2656,573.1563 Q836.9219,573.1563 836.7188,572.9531 Q836.5156,572.7656 836.4063,572.25 Q836.3594,571.8906 836.1719,571.7031 Q835.8438,571.3281 835.2344,571.1094 Q834.625,570.8906 834,570.8906 Q833.2344,570.8906 832.5938,571.2188 Q831.9688,571.5469 831.4688,572.2969 Q830.9844,573.0469 830.9844,574.0781 L830.9844,575.1719 Q830.9844,576.4063 831.875,577.2344 Q832.7656,578.0469 834.3594,578.0469 Q835.2969,578.0469 835.9531,577.7969 Q836.3438,577.6406 836.7656,577.2031 Q837.0313,576.9375 837.1719,576.8594 Q837.3281,576.7813 837.5313,576.7813 Q837.8594,576.7813 838.1094,577.0469 Q838.375,577.2969 838.375,577.6406 Q838.375,577.9844 838.0313,578.3906 Q837.5313,578.9688 836.7344,579.2969 Q835.6563,579.75 834.3594,579.75 Q832.8438,579.75 831.6406,579.125 Q830.6563,578.625 829.9688,577.5625 Q829.2813,576.4844 829.2813,575.2031 L829.2813,574.0469 Q829.2813,572.7188 829.8906,571.5781 Q830.5156,570.4219 831.6094,569.8125 Q832.7031,569.1875 833.9375,569.1875 Q834.6719,569.1875 835.3125,569.3594 Q835.9688,569.5156 836.5156,569.875 Z " fill="#000000"/><text fill="#000000" font-family="sans-serif" font-size="14" lengthAdjust="spacing" textLength="87" x="854.25" y="579.7969">TeamMember</text><line style="stroke:#181818;stroke-width:0.5;" x1="784" x2="979" y1="590" y2="590"/><text fill="#000000" font-family="sans-serif" font-size="14" lengthAdjust="spacing" textLength="61" x="789" y="609.1074">-id: String</text><text fill="#000000" font-family="sans-serif" font-size="14" lengthAdjust="spacing" textLength="85" x="789" y="627.7285">-name: String</text><text fill="#000000" font-family="sans-serif" font-size="14" lengthAdjust="spacing" textLength="102" x="789" y="646.3496">-List&lt;Skill&gt; skills</text><line style="stroke:#181818;stroke-width:0.5;" x1="784" x2="979" y1="653.8633" y2="653.8633"/><text fill="#000000" font-family="sans-serif" font-size="14" lengthAdjust="spacing" textLength="185" x="789" y="672.9707">+TeamMember(name: String)</text><text fill="#000000" font-family="sans-serif" font-size="14" lengthAdjust="spacing" textLength="4" x="789" y="691.5918">&#160;</text><text fill="#000000" font-family="sans-serif" font-size="14" lengthAdjust="spacing" textLength="157" x="789" y="710.2129">+addSkill(skill: Skill): void</text></g><!--class Skill--><g id="elem_Skill"><rect codeLine="84" fill="#F1F1F1" height="103.8633" id="Skill" rx="2.5" ry="2.5" style="stroke:#181818;stroke-width:0.5;" width="135" x="658" y="839"/><ellipse cx="708.75" cy="855" fill="#ADD1B2" rx="11" ry="11" style="stroke:#181818;stroke-width:1.0;"/><path d="M711.5156,850.875 Q711.6719,850.6563 711.8594,850.5469 Q712.0469,850.4375 712.2656,850.4375 Q712.6406,850.4375 712.875,850.7031 Q713.1094,850.9531 713.1094,851.5625 L713.1094,853.0156 Q713.1094,853.625 712.875,853.8906 Q712.6406,854.1563 712.2656,854.1563 Q711.9219,854.1563 711.7188,853.9531 Q711.5156,853.7656 711.4063,853.25 Q711.3594,852.8906 711.1719,852.7031 Q710.8438,852.3281 710.2344,852.1094 Q709.625,851.8906 709,851.8906 Q708.2344,851.8906 707.5938,852.2188 Q706.9688,852.5469 706.4688,853.2969 Q705.9844,854.0469 705.9844,855.0781 L705.9844,856.1719 Q705.9844,857.4063 706.875,858.2344 Q707.7656,859.0469 709.3594,859.0469 Q710.2969,859.0469 710.9531,858.7969 Q711.3438,858.6406 711.7656,858.2031 Q712.0313,857.9375 712.1719,857.8594 Q712.3281,857.7813 712.5313,857.7813 Q712.8594,857.7813 713.1094,858.0469 Q713.375,858.2969 713.375,858.6406 Q713.375,858.9844 713.0313,859.3906 Q712.5313,859.9688 711.7344,860.2969 Q710.6563,860.75 709.3594,860.75 Q707.8438,860.75 706.6406,860.125 Q705.6563,859.625 704.9688,858.5625 Q704.2813,857.4844 704.2813,856.2031 L704.2813,855.0469 Q704.2813,853.7188 704.8906,852.5781 Q705.5156,851.4219 706.6094,850.8125 Q707.7031,850.1875 708.9375,850.1875 Q709.6719,850.1875 710.3125,850.3594 Q710.9688,850.5156 711.5156,850.875 Z " fill="#000000"/><text fill="#000000" font-family="sans-serif" font-size="14" lengthAdjust="spacing" textLength="25" x="729.25" y="860.7969">Skill</text><line style="stroke:#181818;stroke-width:0.5;" x1="659" x2="792" y1="871" y2="871"/><text fill="#000000" font-family="sans-serif" font-size="14" lengthAdjust="spacing" textLength="61" x="664" y="890.1074">-id: String</text><text fill="#000000" font-family="sans-serif" font-size="14" lengthAdjust="spacing" textLength="85" x="664" y="908.7285">-name: String</text><line style="stroke:#181818;stroke-width:0.5;" x1="659" x2="792" y1="916.2422" y2="916.2422"/><text fill="#000000" font-family="sans-serif" font-size="14" lengthAdjust="spacing" textLength="123" x="664" y="935.3496">+Skill(name: String)</text></g><!--link AssignSkillUI to AssignSkillController--><g id="link_AssignSkillUI_AssignSkillController"><path codeLine="92" d="M118.35,124 C129.87,124 135.96,124 147.33,124 " fill="none" id="AssignSkillUI-to-AssignSkillController" style="stroke:#181818;stroke-width:1.0;stroke-dasharray:7.0,7.0;"/><polygon fill="#181818" points="153.33,124,144.33,120,148.33,124,144.33,128,153.33,124" style="stroke:#181818;stroke-width:1.0;"/></g><!--link AssignSkillController to Repositories--><g id="link_AssignSkillController_Repositories"><path codeLine="93" d="M825.57,124 C845.67,124 859.5,124 859.5,124 C859.5,124 853.78,124 854.32,124 " fill="none" id="AssignSkillController-to-Repositories" style="stroke:#181818;stroke-width:1.0;stroke-dasharray:7.0,7.0;"/><polygon fill="#181818" points="860.32,124,851.32,120,855.32,124,851.32,128,860.32,124" style="stroke:#181818;stroke-width:1.0;"/></g><!--link AssignSkillController to SkillRepository--><g id="link_AssignSkillController_SkillRepository"><path codeLine="94" d="M520.86,194.72 C537.94,232.71 556.6786,274.3881 574.3886,313.7581 " fill="none" id="AssignSkillController-to-SkillRepository" style="stroke:#181818;stroke-width:1.0;stroke-dasharray:7.0,7.0;"/><polygon fill="#181818" points="576.85,319.23,576.8058,309.3812,574.7988,314.6701,569.5099,312.6632,576.85,319.23" style="stroke:#181818;stroke-width:1.0;"/></g><!--link AssignSkillController to TeamMemberRepository--><g id="link_AssignSkillController_TeamMemberRepository"><path codeLine="95" d="M599.1,194.55 C649.97,226.83 706.2639,262.5553 761.6739,297.7153 " fill="none" id="AssignSkillController-to-TeamMemberRepository" style="stroke:#181818;stroke-width:1.0;stroke-dasharray:7.0,7.0;"/><polygon fill="#181818" points="766.74,300.93,761.2839,292.7305,762.5182,298.2511,756.9977,299.4854,766.74,300.93" style="stroke:#181818;stroke-width:1.0;"/></g><!--link Repositories to SkillRepository--><g id="link_Repositories_SkillRepository"><path codeLine="96" d="M860.29,231.31 C849.85,237.34 843.5,241 843.5,241 C843.5,241 737.5,301 737.5,301 C737.5,301 732.6213,304.8102 718.7213,315.6502 " fill="none" id="Repositories-to-SkillRepository" style="stroke:#181818;stroke-width:1.0;"/><polygon fill="#181818" points="713.99,319.34,723.5469,316.9596,717.9328,316.2652,718.6272,310.6511,713.99,319.34" style="stroke:#181818;stroke-width:1.0;"/></g><!--link Repositories to TeamMemberRepository--><g id="link_Repositories_TeamMemberRepository"><path codeLine="97" d="M991.73,241.39 C982.77,261.16 976.0179,276.0456 967.2979,295.2756 " fill="none" id="Repositories-to-TeamMemberRepository" style="stroke:#181818;stroke-width:1.0;"/><polygon fill="#181818" points="964.82,300.74,972.1798,294.1953,966.8849,296.1863,964.8939,290.8914,964.82,300.74" style="stroke:#181818;stroke-width:1.0;"/></g><!--link SkillRepository to Skill--><g id="link_SkillRepository_Skill"><path codeLine="98" d="M630.78,479.69 C654.14,580.89 692.5599,747.3339 712.3099,832.8539 " fill="none" id="SkillRepository-to-Skill" style="stroke:#181818;stroke-width:1.0;"/><polygon fill="#181818" points="713.66,838.7,715.5323,829.0307,712.5349,833.8282,707.7374,830.8309,713.66,838.7" style="stroke:#181818;stroke-width:1.0;"/></g><!--link TeamMemberRepository to TeamMember--><g id="link_TeamMemberRepository_TeamMember"><path codeLine="99" d="M904.41,498.06 C901.14,517.91 898.7053,532.6398 895.5553,551.7598 " fill="none" id="TeamMemberRepository-to-TeamMember" style="stroke:#181818;stroke-width:1.0;"/><polygon fill="#181818" points="894.58,557.68,899.9898,549.4499,895.3928,552.7465,892.0962,548.1495,894.58,557.68" style="stroke:#181818;stroke-width:1.0;"/></g><!--link TeamMember to Skill--><g id="link_TeamMember_Skill"><path codeLine="100" d="M832.35,718.07 C807.79,757.59 781.9577,799.1644 760.3677,833.8944 " fill="none" id="TeamMember-to-Skill" style="stroke:#181818;stroke-width:1.0;"/><polygon fill="#181818" points="757.2,838.99,765.3487,833.4584,759.8398,834.7436,758.5545,829.2347,757.2,838.99" style="stroke:#181818;stroke-width:1.0;"/></g><!--SRC=[jLR1Rjim3BthAtHBYZN3piLGeDik0LPWIBiFK2p68IfBWSGso8Rz-sX5YMHRsRB3Sej8FZu-af9duGNjJddLoSvPrsozwq2IVmMHBJlLlAWMdkXWG7feIDdMb0vXgxJRestbHfbGMWnQeCCEvCwPG_z7p2f6vyc98genAeG78e_hLu9bu-mJ_W3vGOYPWGr9Sj9ZkoMfiQU3pWeHO-H32DZQfnSqvljI_XI_AeRFpf9tne1d1yc_XOpdAzYvWEJyGORX_-Jr3AfxX6uDld2bog680JDE55ZAXezwocYHK9c-4jg2R3ADFT8sdervAAkhMMSnmRjwLVCH-xinx6sLz5qrqqsgvH5ewxJSS2ag9ksx7HE5lZOL8MKNeq_iL6Rtx3BuF6TVQYR7RRRjxH4i7zpSoJU7EdVmp0aXd1iNI14sGnkowiesy5zx-ytZcwBOnK6Fkvs13YmTsudzef2pl494uEqiPIlvpaSICqeBLCIUwf4RNiv1w4def0A7BPFldEKhFISft9eKsiWoTT5FfelnHkBriAEZAlbY62u0r_JkqMldUGR6lJoDmLSCz34QxrCvLwtWnSedPIUu5T2hju77FORAjGgWPTyZ2dBvPIpSfyDIpwTp7Mq9yK5hHhEmJuXCicSsfQIqZd57l0GoMPBg60zKoXxtnNnVfrVHrWh3UaidofKWP_qO7VrGmGmNPSHImMmxyVR0snYIb6MA_WfbxVXQeClYDZ6ykAAiwk1F-LRGkJSOLHFtivv00-zocG0lNtJPwzovx9qEIdx_k0F7MgTAJTiuLA7o46ZTlm8gZsxz6RXgSkFfbGN_lQwOQh3Des8ux_1RuVrz_JKLzIy7TX_ShnUznjVbHSVgpJTus1QBATp4eGeplZVFIA9wOGnn2X-sd2E5-0q0]--></g></svg>