<?xml version="1.0" encoding="us-ascii" standalone="no"?><svg xmlns="http://www.w3.org/2000/svg" xmlns:xlink="http://www.w3.org/1999/xlink" contentStyleType="text/css" height="1325px" preserveAspectRatio="none" style="width:1353px;height:1325px;background:#FFFFFF;" version="1.1" viewBox="0 0 1353 1325" width="1353px" zoomAndPan="magnify"><defs/><g><!--class AuthenticationRepository--><g id="elem_AuthenticationRepository"><rect codeLine="11" fill="#F1F1F1" height="66.6211" id="AuthenticationRepository" rx="2.5" ry="2.5" style="stroke:#181818;stroke-width:0.5;" width="190" x="543" y="213"/><ellipse cx="558" cy="229" fill="#ADD1B2" rx="11" ry="11" style="stroke:#181818;stroke-width:1.0;"/><path d="M560.7656,224.875 Q560.9219,224.6563 561.1094,224.5469 Q561.2969,224.4375 561.5156,224.4375 Q561.8906,224.4375 562.125,224.7031 Q562.3594,224.9531 562.3594,225.5625 L562.3594,227.0156 Q562.3594,227.625 562.125,227.8906 Q561.8906,228.1563 561.5156,228.1563 Q561.1719,228.1563 560.9688,227.9531 Q560.7656,227.7656 560.6563,227.25 Q560.6094,226.8906 560.4219,226.7031 Q560.0938,226.3281 559.4844,226.1094 Q558.875,225.8906 558.25,225.8906 Q557.4844,225.8906 556.8438,226.2188 Q556.2188,226.5469 555.7188,227.2969 Q555.2344,228.0469 555.2344,229.0781 L555.2344,230.1719 Q555.2344,231.4063 556.125,232.2344 Q557.0156,233.0469 558.6094,233.0469 Q559.5469,233.0469 560.2031,232.7969 Q560.5938,232.6406 561.0156,232.2031 Q561.2813,231.9375 561.4219,231.8594 Q561.5781,231.7813 561.7813,231.7813 Q562.1094,231.7813 562.3594,232.0469 Q562.625,232.2969 562.625,232.6406 Q562.625,232.9844 562.2813,233.3906 Q561.7813,233.9688 560.9844,234.2969 Q559.9063,234.75 558.6094,234.75 Q557.0938,234.75 555.8906,234.125 Q554.9063,233.625 554.2188,232.5625 Q553.5313,231.4844 553.5313,230.2031 L553.5313,229.0469 Q553.5313,227.7188 554.1406,226.5781 Q554.7656,225.4219 555.8594,224.8125 Q556.9531,224.1875 558.1875,224.1875 Q558.9219,224.1875 559.5625,224.3594 Q560.2188,224.5156 560.7656,224.875 Z " fill="#000000"/><text fill="#000000" font-family="sans-serif" font-size="14" lengthAdjust="spacing" textLength="158" x="572" y="234.7969">AuthenticationRepository</text><line style="stroke:#181818;stroke-width:0.5;" x1="544" x2="732" y1="245" y2="245"/><line style="stroke:#181818;stroke-width:0.5;" x1="544" x2="732" y1="253" y2="253"/><text fill="#000000" font-family="sans-serif" font-size="14" lengthAdjust="spacing" textLength="165" x="549" y="272.1074">+getCurrentUserSession()</text></g><!--class UserSession--><g id="elem_UserSession"><rect codeLine="16" fill="#F1F1F1" height="85.2422" id="UserSession" rx="2.5" ry="2.5" style="stroke:#181818;stroke-width:0.5;" width="156" x="840" y="204"/><ellipse cx="875.25" cy="220" fill="#ADD1B2" rx="11" ry="11" style="stroke:#181818;stroke-width:1.0;"/><path d="M878.0156,215.875 Q878.1719,215.6563 878.3594,215.5469 Q878.5469,215.4375 878.7656,215.4375 Q879.1406,215.4375 879.375,215.7031 Q879.6094,215.9531 879.6094,216.5625 L879.6094,218.0156 Q879.6094,218.625 879.375,218.8906 Q879.1406,219.1563 878.7656,219.1563 Q878.4219,219.1563 878.2188,218.9531 Q878.0156,218.7656 877.9063,218.25 Q877.8594,217.8906 877.6719,217.7031 Q877.3438,217.3281 876.7344,217.1094 Q876.125,216.8906 875.5,216.8906 Q874.7344,216.8906 874.0938,217.2188 Q873.4688,217.5469 872.9688,218.2969 Q872.4844,219.0469 872.4844,220.0781 L872.4844,221.1719 Q872.4844,222.4063 873.375,223.2344 Q874.2656,224.0469 875.8594,224.0469 Q876.7969,224.0469 877.4531,223.7969 Q877.8438,223.6406 878.2656,223.2031 Q878.5313,222.9375 878.6719,222.8594 Q878.8281,222.7813 879.0313,222.7813 Q879.3594,222.7813 879.6094,223.0469 Q879.875,223.2969 879.875,223.6406 Q879.875,223.9844 879.5313,224.3906 Q879.0313,224.9688 878.2344,225.2969 Q877.1563,225.75 875.8594,225.75 Q874.3438,225.75 873.1406,225.125 Q872.1563,224.625 871.4688,223.5625 Q870.7813,222.4844 870.7813,221.2031 L870.7813,220.0469 Q870.7813,218.7188 871.3906,217.5781 Q872.0156,216.4219 873.1094,215.8125 Q874.2031,215.1875 875.4375,215.1875 Q876.1719,215.1875 876.8125,215.3594 Q877.4688,215.5156 878.0156,215.875 Z " fill="#000000"/><text fill="#000000" font-family="sans-serif" font-size="14" lengthAdjust="spacing" textLength="79" x="893.75" y="225.7969">UserSession</text><line style="stroke:#181818;stroke-width:0.5;" x1="841" x2="995" y1="236" y2="236"/><line style="stroke:#181818;stroke-width:0.5;" x1="841" x2="995" y1="244" y2="244"/><text fill="#000000" font-family="sans-serif" font-size="14" lengthAdjust="spacing" textLength="144" x="846" y="263.1074">+isLoggedInWithRole()</text><text fill="#000000" font-family="sans-serif" font-size="14" lengthAdjust="spacing" textLength="78" x="846" y="281.7285">+getUserId()</text></g><!--class Job--><g id="elem_Job"><rect codeLine="24" fill="#F1F1F1" height="66.6211" id="Job" rx="2.5" ry="2.5" style="stroke:#181818;stroke-width:0.5;" width="113" x="1068.5" y="1252"/><ellipse cx="1110.05" cy="1268" fill="#ADD1B2" rx="11" ry="11" style="stroke:#181818;stroke-width:1.0;"/><path d="M1112.8156,1263.875 Q1112.9719,1263.6563 1113.1594,1263.5469 Q1113.3469,1263.4375 1113.5656,1263.4375 Q1113.9406,1263.4375 1114.175,1263.7031 Q1114.4094,1263.9531 1114.4094,1264.5625 L1114.4094,1266.0156 Q1114.4094,1266.625 1114.175,1266.8906 Q1113.9406,1267.1563 1113.5656,1267.1563 Q1113.2219,1267.1563 1113.0188,1266.9531 Q1112.8156,1266.7656 1112.7063,1266.25 Q1112.6594,1265.8906 1112.4719,1265.7031 Q1112.1438,1265.3281 1111.5344,1265.1094 Q1110.925,1264.8906 1110.3,1264.8906 Q1109.5344,1264.8906 1108.8938,1265.2188 Q1108.2688,1265.5469 1107.7688,1266.2969 Q1107.2844,1267.0469 1107.2844,1268.0781 L1107.2844,1269.1719 Q1107.2844,1270.4063 1108.175,1271.2344 Q1109.0656,1272.0469 1110.6594,1272.0469 Q1111.5969,1272.0469 1112.2531,1271.7969 Q1112.6438,1271.6406 1113.0656,1271.2031 Q1113.3313,1270.9375 1113.4719,1270.8594 Q1113.6281,1270.7813 1113.8313,1270.7813 Q1114.1594,1270.7813 1114.4094,1271.0469 Q1114.675,1271.2969 1114.675,1271.6406 Q1114.675,1271.9844 1114.3313,1272.3906 Q1113.8313,1272.9688 1113.0344,1273.2969 Q1111.9563,1273.75 1110.6594,1273.75 Q1109.1438,1273.75 1107.9406,1273.125 Q1106.9563,1272.625 1106.2688,1271.5625 Q1105.5813,1270.4844 1105.5813,1269.2031 L1105.5813,1268.0469 Q1105.5813,1266.7188 1106.1906,1265.5781 Q1106.8156,1264.4219 1107.9094,1263.8125 Q1109.0031,1263.1875 1110.2375,1263.1875 Q1110.9719,1263.1875 1111.6125,1263.3594 Q1112.2688,1263.5156 1112.8156,1263.875 Z " fill="#000000"/><text fill="#000000" font-family="sans-serif" font-size="14" lengthAdjust="spacing" textLength="22" x="1129.95" y="1273.7969">Job</text><line style="stroke:#181818;stroke-width:0.5;" x1="1069.5" x2="1180.5" y1="1284" y2="1284"/><text fill="#000000" font-family="sans-serif" font-size="14" lengthAdjust="spacing" textLength="101" x="1074.5" y="1303.1074">-String jobName</text><line style="stroke:#181818;stroke-width:0.5;" x1="1069.5" x2="1180.5" y1="1310.6211" y2="1310.6211"/></g><!--class Organization--><g id="elem_Organization"><rect codeLine="30" fill="#F1F1F1" height="234.2109" id="Organization" rx="2.5" ry="2.5" style="stroke:#181818;stroke-width:0.5;" width="465" x="863.5" y="368"/><ellipse cx="1051.75" cy="384" fill="#ADD1B2" rx="11" ry="11" style="stroke:#181818;stroke-width:1.0;"/><path d="M1054.5156,379.875 Q1054.6719,379.6563 1054.8594,379.5469 Q1055.0469,379.4375 1055.2656,379.4375 Q1055.6406,379.4375 1055.875,379.7031 Q1056.1094,379.9531 1056.1094,380.5625 L1056.1094,382.0156 Q1056.1094,382.625 1055.875,382.8906 Q1055.6406,383.1563 1055.2656,383.1563 Q1054.9219,383.1563 1054.7188,382.9531 Q1054.5156,382.7656 1054.4063,382.25 Q1054.3594,381.8906 1054.1719,381.7031 Q1053.8438,381.3281 1053.2344,381.1094 Q1052.625,380.8906 1052,380.8906 Q1051.2344,380.8906 1050.5938,381.2188 Q1049.9688,381.5469 1049.4688,382.2969 Q1048.9844,383.0469 1048.9844,384.0781 L1048.9844,385.1719 Q1048.9844,386.4063 1049.875,387.2344 Q1050.7656,388.0469 1052.3594,388.0469 Q1053.2969,388.0469 1053.9531,387.7969 Q1054.3438,387.6406 1054.7656,387.2031 Q1055.0313,386.9375 1055.1719,386.8594 Q1055.3281,386.7813 1055.5313,386.7813 Q1055.8594,386.7813 1056.1094,387.0469 Q1056.375,387.2969 1056.375,387.6406 Q1056.375,387.9844 1056.0313,388.3906 Q1055.5313,388.9688 1054.7344,389.2969 Q1053.6563,389.75 1052.3594,389.75 Q1050.8438,389.75 1049.6406,389.125 Q1048.6563,388.625 1047.9688,387.5625 Q1047.2813,386.4844 1047.2813,385.2031 L1047.2813,384.0469 Q1047.2813,382.7188 1047.8906,381.5781 Q1048.5156,380.4219 1049.6094,379.8125 Q1050.7031,379.1875 1051.9375,379.1875 Q1052.6719,379.1875 1053.3125,379.3594 Q1053.9688,379.5156 1054.5156,379.875 Z " fill="#000000"/><text fill="#000000" font-family="sans-serif" font-size="14" lengthAdjust="spacing" textLength="80" x="1072.25" y="389.7969">Organization</text><line style="stroke:#181818;stroke-width:0.5;" x1="864.5" x2="1327.5" y1="400" y2="400"/><text fill="#000000" font-family="sans-serif" font-size="14" lengthAdjust="spacing" textLength="81" x="869.5" y="419.1074">-String name</text><text fill="#000000" font-family="sans-serif" font-size="14" lengthAdjust="spacing" textLength="114" x="869.5" y="437.7285">-String vatNumber</text><text fill="#000000" font-family="sans-serif" font-size="14" lengthAdjust="spacing" textLength="86" x="869.5" y="456.3496">-String phone</text><text fill="#000000" font-family="sans-serif" font-size="14" lengthAdjust="spacing" textLength="79" x="869.5" y="474.9707">-String email</text><text fill="#000000" font-family="sans-serif" font-size="14" lengthAdjust="spacing" textLength="151" x="869.5" y="493.5918">-Address postalAddress</text><line style="stroke:#181818;stroke-width:0.5;" x1="864.5" x2="1327.5" y1="501.1055" y2="501.1055"/><text fill="#000000" font-family="sans-serif" font-size="14" lengthAdjust="spacing" textLength="80" x="869.5" y="520.2129">-addJob(job)</text><text fill="#000000" font-family="sans-serif" font-size="14" lengthAdjust="spacing" textLength="105" x="869.5" y="538.834">-validateJob(job)</text><text fill="#000000" font-family="sans-serif" font-size="14" lengthAdjust="spacing" textLength="453" x="869.5" y="557.4551">+Organization(name, vatNumber, webSite, phone, email, postalAddress)</text><text fill="#000000" font-family="sans-serif" font-size="14" lengthAdjust="spacing" textLength="99" x="869.5" y="576.0762">+createJob(job)</text><text fill="#000000" font-family="sans-serif" font-size="14" lengthAdjust="spacing" textLength="147" x="869.5" y="594.6973">-getUserByEmail(email)</text></g><!--class OrganizationRepository--><g id="elem_OrganizationRepository"><rect codeLine="45" fill="#F1F1F1" height="66.6211" id="OrganizationRepository" rx="2.5" ry="2.5" style="stroke:#181818;stroke-width:0.5;" width="242" x="1031" y="213"/><ellipse cx="1073.9" cy="229" fill="#ADD1B2" rx="11" ry="11" style="stroke:#181818;stroke-width:1.0;"/><path d="M1076.6656,224.875 Q1076.8219,224.6563 1077.0094,224.5469 Q1077.1969,224.4375 1077.4156,224.4375 Q1077.7906,224.4375 1078.025,224.7031 Q1078.2594,224.9531 1078.2594,225.5625 L1078.2594,227.0156 Q1078.2594,227.625 1078.025,227.8906 Q1077.7906,228.1563 1077.4156,228.1563 Q1077.0719,228.1563 1076.8688,227.9531 Q1076.6656,227.7656 1076.5563,227.25 Q1076.5094,226.8906 1076.3219,226.7031 Q1075.9938,226.3281 1075.3844,226.1094 Q1074.775,225.8906 1074.15,225.8906 Q1073.3844,225.8906 1072.7438,226.2188 Q1072.1188,226.5469 1071.6188,227.2969 Q1071.1344,228.0469 1071.1344,229.0781 L1071.1344,230.1719 Q1071.1344,231.4063 1072.025,232.2344 Q1072.9156,233.0469 1074.5094,233.0469 Q1075.4469,233.0469 1076.1031,232.7969 Q1076.4938,232.6406 1076.9156,232.2031 Q1077.1813,231.9375 1077.3219,231.8594 Q1077.4781,231.7813 1077.6813,231.7813 Q1078.0094,231.7813 1078.2594,232.0469 Q1078.525,232.2969 1078.525,232.6406 Q1078.525,232.9844 1078.1813,233.3906 Q1077.6813,233.9688 1076.8844,234.2969 Q1075.8063,234.75 1074.5094,234.75 Q1072.9938,234.75 1071.7906,234.125 Q1070.8063,233.625 1070.1188,232.5625 Q1069.4313,231.4844 1069.4313,230.2031 L1069.4313,229.0469 Q1069.4313,227.7188 1070.0406,226.5781 Q1070.6656,225.4219 1071.7594,224.8125 Q1072.8531,224.1875 1074.0875,224.1875 Q1074.8219,224.1875 1075.4625,224.3594 Q1076.1188,224.5156 1076.6656,224.875 Z " fill="#000000"/><text fill="#000000" font-family="sans-serif" font-size="14" lengthAdjust="spacing" textLength="148" x="1094.1" y="234.7969">OrganizationRepository</text><line style="stroke:#181818;stroke-width:0.5;" x1="1032" x2="1272" y1="245" y2="245"/><line style="stroke:#181818;stroke-width:0.5;" x1="1032" x2="1272" y1="253" y2="253"/><text fill="#000000" font-family="sans-serif" font-size="14" lengthAdjust="spacing" textLength="230" x="1037" y="272.1074">+getOrganizationByUserEmail(email)</text></g><!--class Repositories--><g id="elem_Repositories"><rect codeLine="49" fill="#F1F1F1" height="122.4844" id="Repositories" rx="2.5" ry="2.5" style="stroke:#181818;stroke-width:0.5;" width="208" x="1006" y="21"/><ellipse cx="1066.25" cy="37" fill="#ADD1B2" rx="11" ry="11" style="stroke:#181818;stroke-width:1.0;"/><path d="M1069.0156,32.875 Q1069.1719,32.6563 1069.3594,32.5469 Q1069.5469,32.4375 1069.7656,32.4375 Q1070.1406,32.4375 1070.375,32.7031 Q1070.6094,32.9531 1070.6094,33.5625 L1070.6094,35.0156 Q1070.6094,35.625 1070.375,35.8906 Q1070.1406,36.1563 1069.7656,36.1563 Q1069.4219,36.1563 1069.2188,35.9531 Q1069.0156,35.7656 1068.9063,35.25 Q1068.8594,34.8906 1068.6719,34.7031 Q1068.3438,34.3281 1067.7344,34.1094 Q1067.125,33.8906 1066.5,33.8906 Q1065.7344,33.8906 1065.0938,34.2188 Q1064.4688,34.5469 1063.9688,35.2969 Q1063.4844,36.0469 1063.4844,37.0781 L1063.4844,38.1719 Q1063.4844,39.4063 1064.375,40.2344 Q1065.2656,41.0469 1066.8594,41.0469 Q1067.7969,41.0469 1068.4531,40.7969 Q1068.8438,40.6406 1069.2656,40.2031 Q1069.5313,39.9375 1069.6719,39.8594 Q1069.8281,39.7813 1070.0313,39.7813 Q1070.3594,39.7813 1070.6094,40.0469 Q1070.875,40.2969 1070.875,40.6406 Q1070.875,40.9844 1070.5313,41.3906 Q1070.0313,41.9688 1069.2344,42.2969 Q1068.1563,42.75 1066.8594,42.75 Q1065.3438,42.75 1064.1406,42.125 Q1063.1563,41.625 1062.4688,40.5625 Q1061.7813,39.4844 1061.7813,38.2031 L1061.7813,37.0469 Q1061.7813,35.7188 1062.3906,34.5781 Q1063.0156,33.4219 1064.1094,32.8125 Q1065.2031,32.1875 1066.4375,32.1875 Q1067.1719,32.1875 1067.8125,32.3594 Q1068.4688,32.5156 1069.0156,32.875 Z " fill="#000000"/><text fill="#000000" font-family="sans-serif" font-size="14" lengthAdjust="spacing" textLength="79" x="1086.75" y="42.7969">Repositories</text><line style="stroke:#181818;stroke-width:0.5;" x1="1007" x2="1213" y1="53" y2="53"/><line style="stroke:#181818;stroke-width:0.5;" x1="1007" x2="1213" y1="61" y2="61"/><text fill="#000000" font-family="sans-serif" font-size="14" lengthAdjust="spacing" textLength="94" x="1012" y="80.1074">-Repositories()</text><text fill="#000000" font-family="sans-serif" font-size="14" lengthAdjust="spacing" textLength="182" x="1012" y="98.7285">+getInstance() : Repositories</text><text fill="#000000" font-family="sans-serif" font-size="14" lengthAdjust="spacing" textLength="186" x="1012" y="117.3496">+getOrganizationRepository()</text><text fill="#000000" font-family="sans-serif" font-size="14" lengthAdjust="spacing" textLength="196" x="1012" y="135.9707">+getAuthenticationRepository()</text></g><!--class Employee--><g id="elem_Employee"><rect codeLine="55" fill="#F1F1F1" height="308.6953" id="Employee" rx="2.5" ry="2.5" style="stroke:#181818;stroke-width:0.5;" width="189" x="1030.5" y="864"/><ellipse cx="1089.75" cy="880" fill="#ADD1B2" rx="11" ry="11" style="stroke:#181818;stroke-width:1.0;"/><path d="M1092.5156,875.875 Q1092.6719,875.6563 1092.8594,875.5469 Q1093.0469,875.4375 1093.2656,875.4375 Q1093.6406,875.4375 1093.875,875.7031 Q1094.1094,875.9531 1094.1094,876.5625 L1094.1094,878.0156 Q1094.1094,878.625 1093.875,878.8906 Q1093.6406,879.1563 1093.2656,879.1563 Q1092.9219,879.1563 1092.7188,878.9531 Q1092.5156,878.7656 1092.4063,878.25 Q1092.3594,877.8906 1092.1719,877.7031 Q1091.8438,877.3281 1091.2344,877.1094 Q1090.625,876.8906 1090,876.8906 Q1089.2344,876.8906 1088.5938,877.2188 Q1087.9688,877.5469 1087.4688,878.2969 Q1086.9844,879.0469 1086.9844,880.0781 L1086.9844,881.1719 Q1086.9844,882.4063 1087.875,883.2344 Q1088.7656,884.0469 1090.3594,884.0469 Q1091.2969,884.0469 1091.9531,883.7969 Q1092.3438,883.6406 1092.7656,883.2031 Q1093.0313,882.9375 1093.1719,882.8594 Q1093.3281,882.7813 1093.5313,882.7813 Q1093.8594,882.7813 1094.1094,883.0469 Q1094.375,883.2969 1094.375,883.6406 Q1094.375,883.9844 1094.0313,884.3906 Q1093.5313,884.9688 1092.7344,885.2969 Q1091.6563,885.75 1090.3594,885.75 Q1088.8438,885.75 1087.6406,885.125 Q1086.6563,884.625 1085.9688,883.5625 Q1085.2813,882.4844 1085.2813,881.2031 L1085.2813,880.0469 Q1085.2813,878.7188 1085.8906,877.5781 Q1086.5156,876.4219 1087.6094,875.8125 Q1088.7031,875.1875 1089.9375,875.1875 Q1090.6719,875.1875 1091.3125,875.3594 Q1091.9688,875.5156 1092.5156,875.875 Z " fill="#000000"/><text fill="#000000" font-family="sans-serif" font-size="14" lengthAdjust="spacing" textLength="62" x="1110.25" y="885.7969">Employee</text><line style="stroke:#181818;stroke-width:0.5;" x1="1031.5" x2="1218.5" y1="896" y2="896"/><text fill="#000000" font-family="sans-serif" font-size="14" lengthAdjust="spacing" textLength="81" x="1036.5" y="915.1074">-String name</text><text fill="#000000" font-family="sans-serif" font-size="14" lengthAdjust="spacing" textLength="95" x="1036.5" y="933.7285">-Date birthdate</text><text fill="#000000" font-family="sans-serif" font-size="14" lengthAdjust="spacing" textLength="134" x="1036.5" y="952.3496">-Date admission date</text><text fill="#000000" font-family="sans-serif" font-size="14" lengthAdjust="spacing" textLength="151" x="1036.5" y="970.9707">-Address postalAddress</text><text fill="#000000" font-family="sans-serif" font-size="14" lengthAdjust="spacing" textLength="86" x="1036.5" y="989.5918">-String phone</text><text fill="#000000" font-family="sans-serif" font-size="14" lengthAdjust="spacing" textLength="79" x="1036.5" y="1008.2129">-String email</text><text fill="#000000" font-family="sans-serif" font-size="14" lengthAdjust="spacing" textLength="117" x="1036.5" y="1026.834">-String ID doc type</text><text fill="#000000" font-family="sans-serif" font-size="14" lengthAdjust="spacing" textLength="177" x="1036.5" y="1045.4551">-String ID document number</text><text fill="#000000" font-family="sans-serif" font-size="14" lengthAdjust="spacing" textLength="122" x="1036.5" y="1064.0762">-String Taxpayer ID</text><text fill="#000000" font-family="sans-serif" font-size="14" lengthAdjust="spacing" textLength="50" x="1036.5" y="1082.6973">-Job job</text><line style="stroke:#181818;stroke-width:0.5;" x1="1031.5" x2="1218.5" y1="1090.2109" y2="1090.2109"/><text fill="#000000" font-family="sans-serif" font-size="14" lengthAdjust="spacing" textLength="166" x="1036.5" y="1109.3184">+CompareTo(TaxPayerID)</text><text fill="#000000" font-family="sans-serif" font-size="14" lengthAdjust="spacing" textLength="55" x="1036.5" y="1127.9395">+Clone()</text><text fill="#000000" font-family="sans-serif" font-size="14" lengthAdjust="spacing" textLength="67" x="1036.5" y="1146.5605">+toString()</text><text fill="#000000" font-family="sans-serif" font-size="14" lengthAdjust="spacing" textLength="127" x="1036.5" y="1165.1816">+hasThisEmail(mail)</text></g><!--class EmployeeRepository--><g id="elem_EmployeeRepository"><rect codeLine="72" fill="#F1F1F1" height="122.4844" id="EmployeeRepository" rx="2.5" ry="2.5" style="stroke:#181818;stroke-width:0.5;" width="162" x="1182" y="663"/><ellipse cx="1197" cy="679" fill="#ADD1B2" rx="11" ry="11" style="stroke:#181818;stroke-width:1.0;"/><path d="M1199.7656,674.875 Q1199.9219,674.6563 1200.1094,674.5469 Q1200.2969,674.4375 1200.5156,674.4375 Q1200.8906,674.4375 1201.125,674.7031 Q1201.3594,674.9531 1201.3594,675.5625 L1201.3594,677.0156 Q1201.3594,677.625 1201.125,677.8906 Q1200.8906,678.1563 1200.5156,678.1563 Q1200.1719,678.1563 1199.9688,677.9531 Q1199.7656,677.7656 1199.6563,677.25 Q1199.6094,676.8906 1199.4219,676.7031 Q1199.0938,676.3281 1198.4844,676.1094 Q1197.875,675.8906 1197.25,675.8906 Q1196.4844,675.8906 1195.8438,676.2188 Q1195.2188,676.5469 1194.7188,677.2969 Q1194.2344,678.0469 1194.2344,679.0781 L1194.2344,680.1719 Q1194.2344,681.4063 1195.125,682.2344 Q1196.0156,683.0469 1197.6094,683.0469 Q1198.5469,683.0469 1199.2031,682.7969 Q1199.5938,682.6406 1200.0156,682.2031 Q1200.2813,681.9375 1200.4219,681.8594 Q1200.5781,681.7813 1200.7813,681.7813 Q1201.1094,681.7813 1201.3594,682.0469 Q1201.625,682.2969 1201.625,682.6406 Q1201.625,682.9844 1201.2813,683.3906 Q1200.7813,683.9688 1199.9844,684.2969 Q1198.9063,684.75 1197.6094,684.75 Q1196.0938,684.75 1194.8906,684.125 Q1193.9063,683.625 1193.2188,682.5625 Q1192.5313,681.4844 1192.5313,680.2031 L1192.5313,679.0469 Q1192.5313,677.7188 1193.1406,676.5781 Q1193.7656,675.4219 1194.8594,674.8125 Q1195.9531,674.1875 1197.1875,674.1875 Q1197.9219,674.1875 1198.5625,674.3594 Q1199.2188,674.5156 1199.7656,674.875 Z " fill="#000000"/><text fill="#000000" font-family="sans-serif" font-size="14" lengthAdjust="spacing" textLength="130" x="1211" y="684.7969">EmployeeRepository</text><line style="stroke:#181818;stroke-width:0.5;" x1="1183" x2="1343" y1="695" y2="695"/><line style="stroke:#181818;stroke-width:0.5;" x1="1183" x2="1343" y1="703" y2="703"/><text fill="#000000" font-family="sans-serif" font-size="14" lengthAdjust="spacing" textLength="145" x="1188" y="722.1074">-EmployeeRepository()</text><text fill="#000000" font-family="sans-serif" font-size="14" lengthAdjust="spacing" textLength="109" x="1188" y="740.7285">+addJob(Job job)</text><text fill="#000000" font-family="sans-serif" font-size="14" lengthAdjust="spacing" textLength="104" x="1188" y="759.3496">+listEmployees()</text><text fill="#000000" font-family="sans-serif" font-size="14" lengthAdjust="spacing" textLength="112" x="1188" y="777.9707">+emailExists(mail)</text></g><!--class CreateJobController--><g id="elem_CreateJobController"><rect codeLine="79" fill="#F1F1F1" height="85.2422" id="CreateJobController" rx="2.5" ry="2.5" style="stroke:#181818;stroke-width:0.5;" width="464" x="420" y="39.5"/><ellipse cx="584.25" cy="55.5" fill="#ADD1B2" rx="11" ry="11" style="stroke:#181818;stroke-width:1.0;"/><path d="M587.0156,51.375 Q587.1719,51.1563 587.3594,51.0469 Q587.5469,50.9375 587.7656,50.9375 Q588.1406,50.9375 588.375,51.2031 Q588.6094,51.4531 588.6094,52.0625 L588.6094,53.5156 Q588.6094,54.125 588.375,54.3906 Q588.1406,54.6563 587.7656,54.6563 Q587.4219,54.6563 587.2188,54.4531 Q587.0156,54.2656 586.9063,53.75 Q586.8594,53.3906 586.6719,53.2031 Q586.3438,52.8281 585.7344,52.6094 Q585.125,52.3906 584.5,52.3906 Q583.7344,52.3906 583.0938,52.7188 Q582.4688,53.0469 581.9688,53.7969 Q581.4844,54.5469 581.4844,55.5781 L581.4844,56.6719 Q581.4844,57.9063 582.375,58.7344 Q583.2656,59.5469 584.8594,59.5469 Q585.7969,59.5469 586.4531,59.2969 Q586.8438,59.1406 587.2656,58.7031 Q587.5313,58.4375 587.6719,58.3594 Q587.8281,58.2813 588.0313,58.2813 Q588.3594,58.2813 588.6094,58.5469 Q588.875,58.7969 588.875,59.1406 Q588.875,59.4844 588.5313,59.8906 Q588.0313,60.4688 587.2344,60.7969 Q586.1563,61.25 584.8594,61.25 Q583.3438,61.25 582.1406,60.625 Q581.1563,60.125 580.4688,59.0625 Q579.7813,57.9844 579.7813,56.7031 L579.7813,55.5469 Q579.7813,54.2188 580.3906,53.0781 Q581.0156,51.9219 582.1094,51.3125 Q583.2031,50.6875 584.4375,50.6875 Q585.1719,50.6875 585.8125,50.8594 Q586.4688,51.0156 587.0156,51.375 Z " fill="#000000"/><text fill="#000000" font-family="sans-serif" font-size="14" lengthAdjust="spacing" textLength="127" x="604.75" y="61.2969">CreateJobController</text><line style="stroke:#181818;stroke-width:0.5;" x1="421" x2="883" y1="71.5" y2="71.5"/><line style="stroke:#181818;stroke-width:0.5;" x1="421" x2="883" y1="79.5" y2="79.5"/><text fill="#000000" font-family="sans-serif" font-size="14" lengthAdjust="spacing" textLength="452" x="426" y="98.6074">+CreateJobController(organizationRepository,AuthenticationRepository)</text><text fill="#000000" font-family="sans-serif" font-size="14" lengthAdjust="spacing" textLength="99" x="426" y="117.2285">+createJob(job)</text></g><g id="elem_GMN11"><path d="M6,59.5 L6,104.082 L240,104.082 L240,69.5 L230,59.5 L6,59.5 " fill="#FEFFDD" style="stroke:#181818;stroke-width:0.5;"/><path d="M230,59.5 L230,69.5 L240,69.5 L230,59.5 " fill="#FEFFDD" style="stroke:#181818;stroke-width:1.0;"/><text fill="#000000" font-family="sans-serif" font-size="13" lengthAdjust="spacing" textLength="213" x="12" y="78.5283">- userEmail and userRole is obtained</text><text fill="#000000" font-family="sans-serif" font-size="13" lengthAdjust="spacing" textLength="129" x="12" y="95.8193">from the user session.</text></g><!--class CreateJobUI--><g id="elem_CreateJobUI"><rect codeLine="91" fill="#F1F1F1" height="48" id="CreateJobUI" rx="2.5" ry="2.5" style="stroke:#181818;stroke-width:0.5;" width="109" x="275.5" y="58"/><ellipse cx="290.5" cy="74" fill="#ADD1B2" rx="11" ry="11" style="stroke:#181818;stroke-width:1.0;"/><path d="M293.2656,69.875 Q293.4219,69.6563 293.6094,69.5469 Q293.7969,69.4375 294.0156,69.4375 Q294.3906,69.4375 294.625,69.7031 Q294.8594,69.9531 294.8594,70.5625 L294.8594,72.0156 Q294.8594,72.625 294.625,72.8906 Q294.3906,73.1563 294.0156,73.1563 Q293.6719,73.1563 293.4688,72.9531 Q293.2656,72.7656 293.1563,72.25 Q293.1094,71.8906 292.9219,71.7031 Q292.5938,71.3281 291.9844,71.1094 Q291.375,70.8906 290.75,70.8906 Q289.9844,70.8906 289.3438,71.2188 Q288.7188,71.5469 288.2188,72.2969 Q287.7344,73.0469 287.7344,74.0781 L287.7344,75.1719 Q287.7344,76.4063 288.625,77.2344 Q289.5156,78.0469 291.1094,78.0469 Q292.0469,78.0469 292.7031,77.7969 Q293.0938,77.6406 293.5156,77.2031 Q293.7813,76.9375 293.9219,76.8594 Q294.0781,76.7813 294.2813,76.7813 Q294.6094,76.7813 294.8594,77.0469 Q295.125,77.2969 295.125,77.6406 Q295.125,77.9844 294.7813,78.3906 Q294.2813,78.9688 293.4844,79.2969 Q292.4063,79.75 291.1094,79.75 Q289.5938,79.75 288.3906,79.125 Q287.4063,78.625 286.7188,77.5625 Q286.0313,76.4844 286.0313,75.2031 L286.0313,74.0469 Q286.0313,72.7188 286.6406,71.5781 Q287.2656,70.4219 288.3594,69.8125 Q289.4531,69.1875 290.6875,69.1875 Q291.4219,69.1875 292.0625,69.3594 Q292.7188,69.5156 293.2656,69.875 Z " fill="#000000"/><text fill="#000000" font-family="sans-serif" font-size="14" lengthAdjust="spacing" textLength="77" x="304.5" y="79.7969">CreateJobUI</text><line style="stroke:#181818;stroke-width:0.5;" x1="276.5" x2="383.5" y1="90" y2="90"/><line style="stroke:#181818;stroke-width:0.5;" x1="276.5" x2="383.5" y1="98" y2="98"/></g><!--link GMN11 to CreateJobController--><g id="link_GMN11_CreateJobController"><path d="M168.34,59.4 C213.29,37 275.5,6 275.5,6 C275.5,6 384.5,6 384.5,6 C384.5,6 441.09,22.08 502.22,39.45 " fill="none" id="GMN11-CreateJobController" style="stroke:#181818;stroke-width:1.0;stroke-dasharray:7.0,7.0;"/></g><!--link Repositories to Repositories--><g id="link_Repositories_Repositories"><path codeLine="94" d="M1214.26,65.88 C1234.58,67.75 1249,73.12 1249,82 C1249,90.88 1240.5548,95.7002 1220.2348,97.5702 " fill="none" id="Repositories-to-Repositories" style="stroke:#181818;stroke-width:1.0;"/><polygon fill="#181818" points="1214.26,98.12,1223.5887,101.2784,1219.239,97.6618,1222.8556,93.3121,1214.26,98.12" style="stroke:#181818;stroke-width:1.0;"/><text fill="#000000" font-family="sans-serif" font-size="13" lengthAdjust="spacing" textLength="49" x="1255" y="87.5283">instance</text></g><!--link CreateJobUI to CreateJobController--><g id="link_CreateJobUI_CreateJobController"><path codeLine="95" d="M384.61,82 C397.45,82 404.22,82 413.98,82 " fill="none" id="CreateJobUI-to-CreateJobController" style="stroke:#181818;stroke-width:1.0;stroke-dasharray:7.0,7.0;"/><polygon fill="#181818" points="419.98,82,410.98,78,414.98,82,410.98,86,419.98,82" style="stroke:#181818;stroke-width:1.0;"/></g><!--link CreateJobController to Repositories--><g id="link_CreateJobController_Repositories"><path codeLine="96" d="M884.02,82 C926.8,82 963.44,82 999.96,82 " fill="none" id="CreateJobController-to-Repositories" style="stroke:#181818;stroke-width:1.0;stroke-dasharray:7.0,7.0;"/><polygon fill="#181818" points="1005.96,82,996.96,78,1000.96,82,996.96,86,1005.96,82" style="stroke:#181818;stroke-width:1.0;"/><text fill="#000000" font-family="sans-serif" font-size="13" lengthAdjust="spacing" textLength="67" x="911.5" y="75.0283">repositories</text></g><!--link Repositories to OrganizationRepository--><g id="link_Repositories_OrganizationRepository"><path codeLine="97" d="M1125.52,143.05 C1131.6,166.55 1136.8276,186.8012 1141.9876,206.7512 " fill="none" id="Repositories-to-OrganizationRepository" style="stroke:#181818;stroke-width:1.0;"/><polygon fill="#181818" points="1143.49,212.56,1145.1089,202.8451,1142.238,207.7193,1137.3638,204.8484,1143.49,212.56" style="stroke:#181818;stroke-width:1.0;"/><text fill="#000000" font-family="sans-serif" font-size="13" lengthAdjust="spacing" textLength="7" x="1134.2757" y="201.8252">1</text></g><!--link OrganizationRepository to Organization--><g id="link_OrganizationRepository_Organization"><path codeLine="98" d="M1144.21,280.38 C1138.76,303.42 1132.4928,329.8715 1124.8928,361.9615 " fill="none" id="OrganizationRepository-to-Organization" style="stroke:#181818;stroke-width:1.0;"/><polygon fill="#181818" points="1123.51,367.8,1129.4765,359.9641,1124.6623,362.9346,1121.6918,358.1204,1123.51,367.8" style="stroke:#181818;stroke-width:1.0;"/><text fill="#000000" font-family="sans-serif" font-size="13" lengthAdjust="spacing" textLength="77" x="1134" y="334.0283">organizations</text><text fill="#000000" font-family="sans-serif" font-size="13" lengthAdjust="spacing" textLength="5" x="1120.1122" y="356.7782">*</text></g><!--link AuthenticationRepository to UserSession--><g id="link_AuthenticationRepository_UserSession"><path codeLine="99" d="M733.19,246.5 C767.91,246.5 800.74,246.5 833.81,246.5 " fill="none" id="AuthenticationRepository-to-UserSession" style="stroke:#181818;stroke-width:1.0;"/><polygon fill="#181818" points="839.81,246.5,830.81,242.5,834.81,246.5,830.81,250.5,839.81,246.5" style="stroke:#181818;stroke-width:1.0;"/><text fill="#000000" font-family="sans-serif" font-size="13" lengthAdjust="spacing" textLength="70" x="751.5" y="239.5283">usersession</text><text fill="#000000" font-family="sans-serif" font-size="13" lengthAdjust="spacing" textLength="7" x="825.0239" y="242.7205">1</text></g><!--link Repositories to AuthenticationRepository--><g id="link_Repositories_AuthenticationRepository"><path codeLine="100" d="M1005.83,118.86 C924.25,146.95 817.4033,183.7372 738.3533,210.9472 " fill="none" id="Repositories-to-AuthenticationRepository" style="stroke:#181818;stroke-width:1.0;"/><polygon fill="#181818" points="732.68,212.9,742.4919,213.753,737.4078,211.2726,739.8881,206.1886,732.68,212.9" style="stroke:#181818;stroke-width:1.0;"/><text fill="#000000" font-family="sans-serif" font-size="13" lengthAdjust="spacing" textLength="7" x="740.7817" y="203.011">1</text></g><!--link Employee to Job--><g id="link_Employee_Job"><path codeLine="101" d="M1125,1173.27 C1125,1202.95 1125,1225.17 1125,1245.76 " fill="none" id="Employee-to-Job" style="stroke:#181818;stroke-width:1.0;"/><polygon fill="#181818" points="1125,1251.76,1129,1242.76,1125,1246.76,1121,1242.76,1125,1251.76" style="stroke:#181818;stroke-width:1.0;"/><text fill="#000000" font-family="sans-serif" font-size="13" lengthAdjust="spacing" textLength="43" x="1126" y="1218.0283">creates</text><text fill="#000000" font-family="sans-serif" font-size="13" lengthAdjust="spacing" textLength="7" x="1117.8414" y="1194.71">1</text><text fill="#000000" font-family="sans-serif" font-size="13" lengthAdjust="spacing" textLength="5" x="1119.5234" y="1240.8002">*</text></g><!--link Repositories to EmployeeRepository--><g id="link_Repositories_EmployeeRepository"><path codeLine="102" d="M1199.97,143.15 C1245.4,173.51 1291,204 1291,204 C1291,204 1346,368 1346,368 C1346,368 1346,602 1346,602 C1346,602 1328.4845,627.5425 1307.6545,657.9025 " fill="none" id="Repositories-to-EmployeeRepository" style="stroke:#181818;stroke-width:1.0;"/><polygon fill="#181818" points="1304.26,662.85,1312.65,657.6918,1307.0887,658.7271,1306.0534,653.1658,1304.26,662.85" style="stroke:#181818;stroke-width:1.0;"/><text fill="#000000" font-family="sans-serif" font-size="13" lengthAdjust="spacing" textLength="7" x="1203.5085" y="165.6551">1</text><text fill="#000000" font-family="sans-serif" font-size="13" lengthAdjust="spacing" textLength="7" x="1301.626" y="651.8139">1</text></g><!--link Organization to Employee--><g id="link_Organization_Employee"><path codeLine="103" d="M1102.35,602.31 C1106.53,678.99 1111.7336,774.2789 1116.2736,857.6189 " fill="none" id="Organization-to-Employee" style="stroke:#181818;stroke-width:1.0;"/><polygon fill="#181818" points="1116.6,863.61,1120.1045,854.4057,1116.328,858.6174,1112.1164,854.8409,1116.6,863.61" style="stroke:#181818;stroke-width:1.0;"/><text fill="#000000" font-family="sans-serif" font-size="13" lengthAdjust="spacing" textLength="49" x="1113" y="729.5283">employs</text><text fill="#000000" font-family="sans-serif" font-size="13" lengthAdjust="spacing" textLength="7" x="1095.5326" y="624.4006">1</text><text fill="#000000" font-family="sans-serif" font-size="13" lengthAdjust="spacing" textLength="5" x="1111.072" y="852.7385">*</text></g><!--link EmployeeRepository to Employee--><g id="link_EmployeeRepository_Employee"><path codeLine="104" d="M1234.57,785.25 C1223.69,808.33 1213.2712,830.4141 1200.1112,858.2941 " fill="none" id="EmployeeRepository-to-Employee" style="stroke:#181818;stroke-width:1.0;"/><polygon fill="#181818" points="1197.55,863.72,1205.009,857.2886,1199.6843,859.1984,1197.7745,853.8737,1197.55,863.72" style="stroke:#181818;stroke-width:1.0;"/><text fill="#000000" font-family="sans-serif" font-size="13" lengthAdjust="spacing" textLength="64" x="1219" y="830.0283">agreggates</text><text fill="#000000" font-family="sans-serif" font-size="13" lengthAdjust="spacing" textLength="7" x="1223.8781" y="807.332">1</text><text fill="#000000" font-family="sans-serif" font-size="13" lengthAdjust="spacing" textLength="5" x="1195.943" y="852.8539">*</text></g><!--link CreateJobController to AuthenticationRepository--><g id="link_CreateJobController_AuthenticationRepository"><path codeLine="105" d="M648.39,124.85 C646.04,152.21 643.5149,181.4721 641.3349,206.7821 " fill="none" id="CreateJobController-to-AuthenticationRepository" style="stroke:#181818;stroke-width:1.0;stroke-dasharray:7.0,7.0;"/><polygon fill="#181818" points="640.82,212.76,645.5776,204.1365,641.2491,207.7784,637.6071,203.4499,640.82,212.76" style="stroke:#181818;stroke-width:1.0;"/></g><!--link Organization to EmployeeRepository--><g id="link_Organization_EmployeeRepository"><path codeLine="106" d="M1177.79,602.07 C1192.58,623.06 1203.9954,639.2543 1217.0654,657.8143 " fill="none" id="Organization-to-EmployeeRepository" style="stroke:#181818;stroke-width:1.0;"/><polygon fill="#181818" points="1220.52,662.72,1218.6086,653.0584,1217.6412,658.6319,1212.0676,657.6645,1220.52,662.72" style="stroke:#181818;stroke-width:1.0;"/><text fill="#000000" font-family="sans-serif" font-size="13" lengthAdjust="spacing" textLength="7" x="1175.8055" y="624.1452">1</text><text fill="#000000" font-family="sans-serif" font-size="13" lengthAdjust="spacing" textLength="7" x="1208.2036" y="651.6688">1</text></g><!--SRC=[ZLLDKzim4BthL-nm8PJ0jDSSc870mPqExH2OdcLxOwl8aaUI0TFfV-_AaHqviHboSRoxR_Vjfq_jir0rDxo2IYkTbKPN2CuqoFQQccVFlC2DQoM2mSnnLSZOm9Oyrwz25R3bqiOQAHIwjaQejMpz2pkTK6hZD8jGcUJMNZjdHDeuJ3AjDk8TuIjZfnAt3fm68uhIGIuy7Q4LOnq6hXjNed8YurxwWBMsmcdJihyCw7SE1RfrOmpPF5aq6xIMx1Pdx5_l8H8F865_wAB0F56_XIiVj4H23Fuy8ibtFdelttKAE_G5R2WFAiqVdTxp2cEhdwRWIhntN0_DbRSTILwuks-g5CrON9TQ7LXYnOKCekiyDvGEDS0wBiDRqF4y9w8BOdOM92zSYfmx78dFHqGNdjbopsO9hvXkX2DPHsMv2xySH-mzPGOFtL_qHRnfxpnoqU7FM5UfuqBjcmfHKsEBczPx6_aQsZkW1TgXvB4mxcoYA0ELKRTXDJAQZhjd5ZkP6ybkO7QaxgfQwXRnWncufQf1AemhVNjY8SyhqOqhH9gFklwvkGcYv1PodO5Vqob5Kr5ge2R6yf6_rRn5GuP1uNU2cXugizOLBJi-wWLP_lAMoMrVjRKaQaCDdTwv70Gbju-biBi67_ItB-M-pg6cnuhUNzY2G2y8fR2kXmmpqTNdxerKzZ3kkf_hjLREQ2afytuy9tGBFJatoxbXcLaV7rzf6eBkBEhjLAXG_QPV2U0gxzxy7QFJ1Zfrd2vntXbkwGC0nA6p0BixX9SC2UC3iQDydnBAasYC5klYQhneAn1XbLWClBoQ93nLoyiZZoRUnt5q2d_oxMJcQh2POzAXlenH52Pkb6Lp_O4GClfw4DRNC9Hmck7ivsgu2DwgP-OdT1L6u23bmOoUnvC-IddaSeYpekNtVoqxXiyXU66mA3eoCosRpM-Qq3Hvnlu3]--></g></svg>