<?xml version="1.0" encoding="us-ascii" standalone="no"?><svg xmlns="http://www.w3.org/2000/svg" xmlns:xlink="http://www.w3.org/1999/xlink" contentStyleType="text/css" height="1987px" preserveAspectRatio="none" style="width:2299px;height:1987px;background:#FFFFFF;" version="1.1" viewBox="0 0 2299 1987" width="2299px" zoomAndPan="magnify"><defs/><g><rect fill="#FFFFFF" height="1792.666" style="stroke:#181818;stroke-width:1.0;" width="10" x="18" y="93.6211"/><rect fill="#FFFFFF" height="966.7305" style="stroke:#181818;stroke-width:1.0;" width="10" x="347" y="116.9121"/><rect fill="#FFFFFF" height="281.6191" style="stroke:#181818;stroke-width:1.0;" width="10" x="347" y="1114.9336"/><rect fill="#FFFFFF" height="31.291" style="stroke:#181818;stroke-width:1.0;" width="10" x="347" y="1427.8438"/><rect fill="#FFFFFF" height="395.8613" style="stroke:#181818;stroke-width:1.0;" width="10" x="347" y="1490.4258"/><rect fill="#FFFFFF" height="904.1484" style="stroke:#181818;stroke-width:1.0;" width="10" x="634" y="148.2031"/><rect fill="#FFFFFF" height="219.0371" style="stroke:#181818;stroke-width:1.0;" width="10" x="634" y="1146.2246"/><rect fill="#FFFFFF" height="333.2793" style="stroke:#181818;stroke-width:1.0;" width="10" x="634" y="1521.7168"/><rect fill="#FFFFFF" height="31.291" style="stroke:#181818;stroke-width:1.0;" width="10" x="913" y="223.7852"/><rect fill="#FFFFFF" height="31.291" style="stroke:#181818;stroke-width:1.0;" width="10" x="913" y="580.9863"/><rect fill="#FFFFFF" height="31.291" style="stroke:#181818;stroke-width:1.0;" width="10" x="913" y="864.6055"/><rect fill="#FFFFFF" height="31.291" style="stroke:#181818;stroke-width:1.0;" width="10" x="913" y="1177.5156"/><rect fill="#FFFFFF" height="31.291" style="stroke:#181818;stroke-width:1.0;" width="10" x="1020" y="286.3672"/><rect fill="#FFFFFF" height="31.291" style="stroke:#181818;stroke-width:1.0;" width="10" x="1020" y="643.5684"/><rect fill="#FFFFFF" height="31.291" style="stroke:#181818;stroke-width:1.0;" width="10" x="1020" y="927.1875"/><rect fill="#FFFFFF" height="31.291" style="stroke:#181818;stroke-width:1.0;" width="10" x="1020" y="1240.0977"/><rect fill="#FFFFFF" height="156.4551" style="stroke:#181818;stroke-width:1.0;" width="10" x="1166.5" y="348.9492"/><rect fill="#FFFFFF" height="93.873" style="stroke:#181818;stroke-width:1.0;" width="10" x="1349.5" y="380.2402"/><rect fill="#FFFFFF" height="127.1641" style="stroke:#181818;stroke-width:1.0;" width="10" x="1489.5" y="706.1504"/><rect fill="#FFFFFF" height="31.291" style="stroke:#181818;stroke-width:1.0;" width="10" x="1656.5" y="763.7324"/><rect fill="#FFFFFF" height="342.2793" style="stroke:#181818;stroke-width:1.0;" width="10" x="1755.5" y="1553.0078"/><rect fill="#FFFFFF" height="300.9883" style="stroke:#181818;stroke-width:1.0;" width="10" x="1760.5" y="1594.2988"/><rect fill="#FFFFFF" height="31.291" style="stroke:#181818;stroke-width:1.0;" width="10" x="2036.5" y="989.7695"/><rect fill="#FFFFFF" height="31.291" style="stroke:#181818;stroke-width:1.0;" width="10" x="2168" y="1302.6797"/><rect fill="none" height="81.873" style="stroke:#000000;stroke-width:1.5;" width="317.5" x="1403" y="721.1504"/><line style="stroke:#181818;stroke-width:0.5;stroke-dasharray:5.0,5.0;" x1="23" x2="23" y1="83.6211" y2="1904.2871"/><line style="stroke:#181818;stroke-width:0.5;stroke-dasharray:5.0,5.0;" x1="352" x2="352" y1="83.6211" y2="1904.2871"/><line style="stroke:#181818;stroke-width:0.5;stroke-dasharray:5.0,5.0;" x1="639" x2="639" y1="83.6211" y2="1904.2871"/><line style="stroke:#181818;stroke-width:0.5;stroke-dasharray:5.0,5.0;" x1="917.5" x2="917.5" y1="83.6211" y2="1904.2871"/><line style="stroke:#181818;stroke-width:0.5;stroke-dasharray:5.0,5.0;" x1="1024.5" x2="1024.5" y1="83.6211" y2="1904.2871"/><line style="stroke:#181818;stroke-width:0.5;stroke-dasharray:5.0,5.0;" x1="1171.5" x2="1171.5" y1="83.6211" y2="1904.2871"/><line style="stroke:#181818;stroke-width:0.5;stroke-dasharray:5.0,5.0;" x1="1354" x2="1354" y1="83.6211" y2="1904.2871"/><line style="stroke:#181818;stroke-width:0.5;stroke-dasharray:5.0,5.0;" x1="1494" x2="1494" y1="83.6211" y2="1904.2871"/><line style="stroke:#181818;stroke-width:0.5;stroke-dasharray:5.0,5.0;" x1="1661.5" x2="1661.5" y1="83.6211" y2="1904.2871"/><line style="stroke:#181818;stroke-width:0.5;stroke-dasharray:5.0,5.0;" x1="1760.5" x2="1760.5" y1="83.6211" y2="1904.2871"/><line style="stroke:#181818;stroke-width:0.5;stroke-dasharray:5.0,5.0;" x1="2041" x2="2041" y1="83.6211" y2="1904.2871"/><line style="stroke:#181818;stroke-width:0.5;stroke-dasharray:5.0,5.0;" x1="2173" x2="2173" y1="83.6211" y2="1904.2871"/><line style="stroke:#181818;stroke-width:0.5;stroke-dasharray:5.0,5.0;" x1="2270" x2="2270" y1="1602.1289" y2="1904.2871"/><text fill="#000000" font-family="sans-serif" font-size="14" lengthAdjust="spacing" textLength="30" x="5" y="80.1074">HRM</text><ellipse cx="23" cy="13.5" fill="#E3E3E3" rx="8" ry="8" style="stroke:#181818;stroke-width:0.5;"/><path d="M23,21.5 L23,48.5 M10,29.5 L36,29.5 M23,48.5 L10,63.5 M23,48.5 L36,63.5 " fill="none" style="stroke:#181818;stroke-width:0.5;"/><text fill="#000000" font-family="sans-serif" font-size="14" lengthAdjust="spacing" textLength="30" x="5" y="1918.3945">HRM</text><ellipse cx="23" cy="1930.4082" fill="#E3E3E3" rx="8" ry="8" style="stroke:#181818;stroke-width:0.5;"/><path d="M23,1938.4082 L23,1965.4082 M10,1946.4082 L36,1946.4082 M23,1965.4082 L10,1980.4082 M23,1965.4082 L36,1980.4082 " fill="none" style="stroke:#181818;stroke-width:0.5;"/><rect fill="#E3E3E3" height="32.6211" rx="2.5" ry="2.5" style="stroke:#181818;stroke-width:0.5;" width="156" x="274" y="50"/><text fill="#000000" font-family="sans-serif" font-size="14" lengthAdjust="spacing" textLength="142" x="281" y="72.1074">:AddVehiclesToTaskUI</text><rect fill="#E3E3E3" height="32.6211" rx="2.5" ry="2.5" style="stroke:#181818;stroke-width:0.5;" width="156" x="274" y="1903.2871"/><text fill="#000000" font-family="sans-serif" font-size="14" lengthAdjust="spacing" textLength="142" x="281" y="1925.3945">:AddVehiclesToTaskUI</text><rect fill="#E3E3E3" height="32.6211" rx="2.5" ry="2.5" style="stroke:#181818;stroke-width:0.5;" width="206" x="536" y="50"/><text fill="#000000" font-family="sans-serif" font-size="14" lengthAdjust="spacing" textLength="192" x="543" y="72.1074">:AddVehiclesToTaskController</text><rect fill="#E3E3E3" height="32.6211" rx="2.5" ry="2.5" style="stroke:#181818;stroke-width:0.5;" width="206" x="536" y="1903.2871"/><text fill="#000000" font-family="sans-serif" font-size="14" lengthAdjust="spacing" textLength="192" x="543" y="1925.3945">:AddVehiclesToTaskController</text><rect fill="#E3E3E3" height="32.6211" rx="2.5" ry="2.5" style="stroke:#181818;stroke-width:0.5;" width="97" x="869.5" y="50"/><text fill="#000000" font-family="sans-serif" font-size="14" lengthAdjust="spacing" textLength="83" x="876.5" y="72.1074">:Repositories</text><rect fill="#E3E3E3" height="32.6211" rx="2.5" ry="2.5" style="stroke:#181818;stroke-width:0.5;" width="97" x="869.5" y="1903.2871"/><text fill="#000000" font-family="sans-serif" font-size="14" lengthAdjust="spacing" textLength="83" x="876.5" y="1925.3945">:Repositories</text><rect fill="#E3E3E3" height="51.2422" rx="2.5" ry="2.5" style="stroke:#181818;stroke-width:0.5;" width="97" x="976.5" y="31.3789"/><text fill="#000000" font-family="sans-serif" font-size="14" lengthAdjust="spacing" textLength="74" x="988" y="53.4863">repositories</text><text fill="#000000" font-family="sans-serif" font-size="14" lengthAdjust="spacing" textLength="83" x="983.5" y="72.1074">:Repositories</text><rect fill="#E3E3E3" height="51.2422" rx="2.5" ry="2.5" style="stroke:#181818;stroke-width:0.5;" width="97" x="976.5" y="1903.2871"/><text fill="#000000" font-family="sans-serif" font-size="14" lengthAdjust="spacing" textLength="74" x="988" y="1925.3945">repositories</text><text fill="#000000" font-family="sans-serif" font-size="14" lengthAdjust="spacing" textLength="83" x="983.5" y="1944.0156">:Repositories</text><rect fill="#E3E3E3" height="51.2422" rx="2.5" ry="2.5" style="stroke:#181818;stroke-width:0.5;" width="176" x="1083.5" y="31.3789"/><text fill="#000000" font-family="sans-serif" font-size="14" lengthAdjust="spacing" textLength="77" x="1133" y="53.4863">AuthFacade</text><text fill="#000000" font-family="sans-serif" font-size="14" lengthAdjust="spacing" textLength="162" x="1090.5" y="72.1074">:AuthenticationRepository</text><rect fill="#E3E3E3" height="51.2422" rx="2.5" ry="2.5" style="stroke:#181818;stroke-width:0.5;" width="176" x="1083.5" y="1903.2871"/><text fill="#000000" font-family="sans-serif" font-size="14" lengthAdjust="spacing" textLength="77" x="1133" y="1925.3945">AuthFacade</text><text fill="#000000" font-family="sans-serif" font-size="14" lengthAdjust="spacing" textLength="162" x="1090.5" y="1944.0156">:AuthenticationRepository</text><rect fill="#E3E3E3" height="51.2422" rx="2.5" ry="2.5" style="stroke:#181818;stroke-width:0.5;" width="97" x="1306" y="31.3789"/><text fill="#000000" font-family="sans-serif" font-size="14" lengthAdjust="spacing" textLength="78" x="1315.5" y="53.4863">userSession</text><text fill="#000000" font-family="sans-serif" font-size="14" lengthAdjust="spacing" textLength="83" x="1313" y="72.1074">:UserSession</text><rect fill="#E3E3E3" height="51.2422" rx="2.5" ry="2.5" style="stroke:#181818;stroke-width:0.5;" width="97" x="1306" y="1903.2871"/><text fill="#000000" font-family="sans-serif" font-size="14" lengthAdjust="spacing" textLength="78" x="1315.5" y="1925.3945">userSession</text><text fill="#000000" font-family="sans-serif" font-size="14" lengthAdjust="spacing" textLength="83" x="1313" y="1944.0156">:UserSession</text><rect fill="#E3E3E3" height="51.2422" rx="2.5" ry="2.5" style="stroke:#181818;stroke-width:0.5;" width="163" x="1413" y="31.3789"/><text fill="#000000" font-family="sans-serif" font-size="14" lengthAdjust="spacing" textLength="149" x="1420" y="53.4863">organizationRepository:</text><text fill="#000000" font-family="sans-serif" font-size="14" lengthAdjust="spacing" textLength="148" x="1420.5" y="72.1074">OrganizationRepository</text><rect fill="#E3E3E3" height="51.2422" rx="2.5" ry="2.5" style="stroke:#181818;stroke-width:0.5;" width="163" x="1413" y="1903.2871"/><text fill="#000000" font-family="sans-serif" font-size="14" lengthAdjust="spacing" textLength="149" x="1420" y="1925.3945">organizationRepository:</text><text fill="#000000" font-family="sans-serif" font-size="14" lengthAdjust="spacing" textLength="148" x="1420.5" y="1944.0156">OrganizationRepository</text><rect fill="#E3E3E3" height="51.2422" rx="2.5" ry="2.5" style="stroke:#181818;stroke-width:0.5;" width="98" x="1612.5" y="31.3789"/><text fill="#000000" font-family="sans-serif" font-size="14" lengthAdjust="spacing" textLength="77" x="1623" y="53.4863">organization</text><text fill="#000000" font-family="sans-serif" font-size="14" lengthAdjust="spacing" textLength="84" x="1619.5" y="72.1074">:Organization</text><rect fill="#E3E3E3" height="51.2422" rx="2.5" ry="2.5" style="stroke:#181818;stroke-width:0.5;" width="98" x="1612.5" y="1903.2871"/><text fill="#000000" font-family="sans-serif" font-size="14" lengthAdjust="spacing" textLength="77" x="1623" y="1925.3945">organization</text><text fill="#000000" font-family="sans-serif" font-size="14" lengthAdjust="spacing" textLength="84" x="1619.5" y="1944.0156">:Organization</text><rect fill="#E3E3E3" height="51.2422" rx="2.5" ry="2.5" style="stroke:#181818;stroke-width:0.5;" width="80" x="1720.5" y="31.3789"/><text fill="#000000" font-family="sans-serif" font-size="14" lengthAdjust="spacing" textLength="61" x="1730" y="53.4863">employee</text><text fill="#000000" font-family="sans-serif" font-size="14" lengthAdjust="spacing" textLength="66" x="1727.5" y="72.1074">:Employee</text><rect fill="#E3E3E3" height="51.2422" rx="2.5" ry="2.5" style="stroke:#181818;stroke-width:0.5;" width="80" x="1720.5" y="1903.2871"/><text fill="#000000" font-family="sans-serif" font-size="14" lengthAdjust="spacing" textLength="61" x="1730" y="1925.3945">employee</text><text fill="#000000" font-family="sans-serif" font-size="14" lengthAdjust="spacing" textLength="66" x="1727.5" y="1944.0156">:Employee</text><rect fill="#E3E3E3" height="51.2422" rx="2.5" ry="2.5" style="stroke:#181818;stroke-width:0.5;" width="113" x="1985" y="31.3789"/><text fill="#000000" font-family="sans-serif" font-size="14" lengthAdjust="spacing" textLength="98" x="1992.5" y="53.4863">taskRepository:</text><text fill="#000000" font-family="sans-serif" font-size="14" lengthAdjust="spacing" textLength="99" x="1992" y="72.1074">TaskRepository</text><rect fill="#E3E3E3" height="51.2422" rx="2.5" ry="2.5" style="stroke:#181818;stroke-width:0.5;" width="113" x="1985" y="1903.2871"/><text fill="#000000" font-family="sans-serif" font-size="14" lengthAdjust="spacing" textLength="98" x="1992.5" y="1925.3945">taskRepository:</text><text fill="#000000" font-family="sans-serif" font-size="14" lengthAdjust="spacing" textLength="99" x="1992" y="1944.0156">TaskRepository</text><rect fill="#E3E3E3" height="51.2422" rx="2.5" ry="2.5" style="stroke:#181818;stroke-width:0.5;" width="130" x="2108" y="31.3789"/><text fill="#000000" font-family="sans-serif" font-size="14" lengthAdjust="spacing" textLength="116" x="2115" y="53.4863">vehicleRepository:</text><text fill="#000000" font-family="sans-serif" font-size="14" lengthAdjust="spacing" textLength="114" x="2116" y="72.1074">VehicleRepository</text><rect fill="#E3E3E3" height="51.2422" rx="2.5" ry="2.5" style="stroke:#181818;stroke-width:0.5;" width="130" x="2108" y="1903.2871"/><text fill="#000000" font-family="sans-serif" font-size="14" lengthAdjust="spacing" textLength="116" x="2115" y="1925.3945">vehicleRepository:</text><text fill="#000000" font-family="sans-serif" font-size="14" lengthAdjust="spacing" textLength="114" x="2116" y="1944.0156">VehicleRepository</text><rect fill="#E3E3E3" height="51.2422" rx="2.5" ry="2.5" style="stroke:#181818;stroke-width:0.5;" width="45" x="2248" y="1903.2871"/><text fill="#000000" font-family="sans-serif" font-size="14" lengthAdjust="spacing" textLength="30" x="2255.5" y="1925.3945">task:</text><text fill="#000000" font-family="sans-serif" font-size="14" lengthAdjust="spacing" textLength="31" x="2255" y="1944.0156">Task</text><rect fill="#FFFFFF" height="1792.666" style="stroke:#181818;stroke-width:1.0;" width="10" x="18" y="93.6211"/><rect fill="#FFFFFF" height="966.7305" style="stroke:#181818;stroke-width:1.0;" width="10" x="347" y="116.9121"/><rect fill="#FFFFFF" height="281.6191" style="stroke:#181818;stroke-width:1.0;" width="10" x="347" y="1114.9336"/><rect fill="#FFFFFF" height="31.291" style="stroke:#181818;stroke-width:1.0;" width="10" x="347" y="1427.8438"/><rect fill="#FFFFFF" height="395.8613" style="stroke:#181818;stroke-width:1.0;" width="10" x="347" y="1490.4258"/><rect fill="#FFFFFF" height="904.1484" style="stroke:#181818;stroke-width:1.0;" width="10" x="634" y="148.2031"/><rect fill="#FFFFFF" height="219.0371" style="stroke:#181818;stroke-width:1.0;" width="10" x="634" y="1146.2246"/><rect fill="#FFFFFF" height="333.2793" style="stroke:#181818;stroke-width:1.0;" width="10" x="634" y="1521.7168"/><rect fill="#FFFFFF" height="31.291" style="stroke:#181818;stroke-width:1.0;" width="10" x="913" y="223.7852"/><rect fill="#FFFFFF" height="31.291" style="stroke:#181818;stroke-width:1.0;" width="10" x="913" y="580.9863"/><rect fill="#FFFFFF" height="31.291" style="stroke:#181818;stroke-width:1.0;" width="10" x="913" y="864.6055"/><rect fill="#FFFFFF" height="31.291" style="stroke:#181818;stroke-width:1.0;" width="10" x="913" y="1177.5156"/><rect fill="#FFFFFF" height="31.291" style="stroke:#181818;stroke-width:1.0;" width="10" x="1020" y="286.3672"/><rect fill="#FFFFFF" height="31.291" style="stroke:#181818;stroke-width:1.0;" width="10" x="1020" y="643.5684"/><rect fill="#FFFFFF" height="31.291" style="stroke:#181818;stroke-width:1.0;" width="10" x="1020" y="927.1875"/><rect fill="#FFFFFF" height="31.291" style="stroke:#181818;stroke-width:1.0;" width="10" x="1020" y="1240.0977"/><rect fill="#FFFFFF" height="156.4551" style="stroke:#181818;stroke-width:1.0;" width="10" x="1166.5" y="348.9492"/><rect fill="#FFFFFF" height="93.873" style="stroke:#181818;stroke-width:1.0;" width="10" x="1349.5" y="380.2402"/><rect fill="#FFFFFF" height="127.1641" style="stroke:#181818;stroke-width:1.0;" width="10" x="1489.5" y="706.1504"/><rect fill="#FFFFFF" height="31.291" style="stroke:#181818;stroke-width:1.0;" width="10" x="1656.5" y="763.7324"/><rect fill="#FFFFFF" height="342.2793" style="stroke:#181818;stroke-width:1.0;" width="10" x="1755.5" y="1553.0078"/><rect fill="#FFFFFF" height="300.9883" style="stroke:#181818;stroke-width:1.0;" width="10" x="1760.5" y="1594.2988"/><rect fill="#FFFFFF" height="31.291" style="stroke:#181818;stroke-width:1.0;" width="10" x="2036.5" y="989.7695"/><rect fill="#FFFFFF" height="31.291" style="stroke:#181818;stroke-width:1.0;" width="10" x="2168" y="1302.6797"/><polygon fill="#181818" points="335,112.9121,345,116.9121,335,120.9121,339,116.9121" style="stroke:#181818;stroke-width:1.0;"/><line style="stroke:#181818;stroke-width:1.0;" x1="28" x2="341" y1="116.9121" y2="116.9121"/><text fill="#000000" font-family="sans-serif" font-size="13" font-weight="bold" lengthAdjust="spacing" textLength="7" x="35" y="111.6494">1</text><text fill="#000000" font-family="sans-serif" font-size="13" lengthAdjust="spacing" textLength="289" x="46" y="111.6494">asks to assign vehicles to an entry in the Agenda.</text><polygon fill="#181818" points="622,144.2031,632,148.2031,622,152.2031,626,148.2031" style="stroke:#181818;stroke-width:1.0;"/><line style="stroke:#181818;stroke-width:1.0;" x1="357" x2="628" y1="148.2031" y2="148.2031"/><text fill="#000000" font-family="sans-serif" font-size="13" font-weight="bold" lengthAdjust="spacing" textLength="7" x="364" y="142.9404">2</text><text fill="#000000" font-family="sans-serif" font-size="13" lengthAdjust="spacing" textLength="167" x="375" y="142.9404">getThisGsmTasksInAgenda()</text><line style="stroke:#181818;stroke-width:1.0;" x1="644" x2="686" y1="179.4941" y2="179.4941"/><line style="stroke:#181818;stroke-width:1.0;" x1="686" x2="686" y1="179.4941" y2="192.4941"/><line style="stroke:#181818;stroke-width:1.0;" x1="645" x2="686" y1="192.4941" y2="192.4941"/><polygon fill="#181818" points="655,188.4941,645,192.4941,655,196.4941,651,192.4941" style="stroke:#181818;stroke-width:1.0;"/><text fill="#000000" font-family="sans-serif" font-size="13" font-weight="bold" lengthAdjust="spacing" textLength="7" x="651" y="174.2314">3</text><text fill="#000000" font-family="sans-serif" font-size="13" lengthAdjust="spacing" textLength="130" x="662" y="174.2314">getUserFromSession()</text><polygon fill="#181818" points="901,219.7852,911,223.7852,901,227.7852,905,223.7852" style="stroke:#181818;stroke-width:1.0;"/><line style="stroke:#181818;stroke-width:1.0;" x1="644" x2="907" y1="223.7852" y2="223.7852"/><text fill="#000000" font-family="sans-serif" font-size="13" font-weight="bold" lengthAdjust="spacing" textLength="7" x="651" y="218.5225">4</text><text fill="#000000" font-family="sans-serif" font-size="13" lengthAdjust="spacing" textLength="75" x="662" y="218.5225">getInstance()</text><polygon fill="#181818" points="655,251.0762,645,255.0762,655,259.0762,651,255.0762" style="stroke:#181818;stroke-width:1.0;"/><line style="stroke:#181818;stroke-width:1.0;stroke-dasharray:2.0,2.0;" x1="649" x2="917" y1="255.0762" y2="255.0762"/><text fill="#000000" font-family="sans-serif" font-size="13" font-weight="bold" lengthAdjust="spacing" textLength="7" x="661" y="249.8135">5</text><text fill="#000000" font-family="sans-serif" font-size="13" lengthAdjust="spacing" textLength="72" x="672" y="249.8135">Repositories</text><polygon fill="#181818" points="1008,282.3672,1018,286.3672,1008,290.3672,1012,286.3672" style="stroke:#181818;stroke-width:1.0;"/><line style="stroke:#181818;stroke-width:1.0;" x1="644" x2="1014" y1="286.3672" y2="286.3672"/><text fill="#000000" font-family="sans-serif" font-size="13" font-weight="bold" lengthAdjust="spacing" textLength="7" x="651" y="281.1045">6</text><text fill="#000000" font-family="sans-serif" font-size="13" lengthAdjust="spacing" textLength="171" x="662" y="281.1045">getAuthenticationRepository()</text><polygon fill="#181818" points="655,313.6582,645,317.6582,655,321.6582,651,317.6582" style="stroke:#181818;stroke-width:1.0;"/><line style="stroke:#181818;stroke-width:1.0;stroke-dasharray:2.0,2.0;" x1="649" x2="1024" y1="317.6582" y2="317.6582"/><text fill="#000000" font-family="sans-serif" font-size="13" font-weight="bold" lengthAdjust="spacing" textLength="7" x="661" y="312.3955">7</text><text fill="#000000" font-family="sans-serif" font-size="13" lengthAdjust="spacing" textLength="153" x="672" y="312.3955">AuthenticationRepository()</text><polygon fill="#181818" points="1154.5,344.9492,1164.5,348.9492,1154.5,352.9492,1158.5,348.9492" style="stroke:#181818;stroke-width:1.0;"/><line style="stroke:#181818;stroke-width:1.0;" x1="644" x2="1160.5" y1="348.9492" y2="348.9492"/><text fill="#000000" font-family="sans-serif" font-size="13" font-weight="bold" lengthAdjust="spacing" textLength="7" x="651" y="343.6865">8</text><text fill="#000000" font-family="sans-serif" font-size="13" lengthAdjust="spacing" textLength="142" x="662" y="343.6865">getCurrentUserSession()</text><polygon fill="#181818" points="1337.5,376.2402,1347.5,380.2402,1337.5,384.2402,1341.5,380.2402" style="stroke:#181818;stroke-width:1.0;"/><line style="stroke:#181818;stroke-width:1.0;" x1="1176.5" x2="1343.5" y1="380.2402" y2="380.2402"/><text fill="#000000" font-family="sans-serif" font-size="13" font-weight="bold" lengthAdjust="spacing" textLength="7" x="1183.5" y="374.9775">9</text><text fill="#000000" font-family="sans-serif" font-size="13" lengthAdjust="spacing" textLength="143" x="1194.5" y="374.9775">isLoggedWithRule(GSM)</text><polygon fill="#181818" points="1187.5,407.5313,1177.5,411.5313,1187.5,415.5313,1183.5,411.5313" style="stroke:#181818;stroke-width:1.0;"/><line style="stroke:#181818;stroke-width:1.0;stroke-dasharray:2.0,2.0;" x1="1181.5" x2="1348.5" y1="411.5313" y2="411.5313"/><text fill="#000000" font-family="sans-serif" font-size="13" font-weight="bold" lengthAdjust="spacing" textLength="14" x="1193.5" y="406.2686">10</text><text fill="#000000" font-family="sans-serif" font-size="13" lengthAdjust="spacing" textLength="71" x="1211.5" y="406.2686">"True/False"</text><polygon fill="#181818" points="1337.5,438.8223,1347.5,442.8223,1337.5,446.8223,1341.5,442.8223" style="stroke:#181818;stroke-width:1.0;"/><line style="stroke:#181818;stroke-width:1.0;stroke-dasharray:2.0,2.0;" x1="1176.5" x2="1343.5" y1="442.8223" y2="442.8223"/><text fill="#000000" font-family="sans-serif" font-size="13" font-weight="bold" lengthAdjust="spacing" textLength="14" x="1183.5" y="437.5596">11</text><text fill="#000000" font-family="sans-serif" font-size="13" lengthAdjust="spacing" textLength="94" x="1201.5" y="437.5596">getUserId(email)</text><polygon fill="#181818" points="1187.5,470.1133,1177.5,474.1133,1187.5,478.1133,1183.5,474.1133" style="stroke:#181818;stroke-width:1.0;"/><line style="stroke:#181818;stroke-width:1.0;stroke-dasharray:2.0,2.0;" x1="1181.5" x2="1353.5" y1="474.1133" y2="474.1133"/><text fill="#000000" font-family="sans-serif" font-size="13" font-weight="bold" lengthAdjust="spacing" textLength="14" x="1193.5" y="468.8506">12</text><text fill="#000000" font-family="sans-serif" font-size="13" lengthAdjust="spacing" textLength="74" x="1211.5" y="468.8506">userId(email)</text><polygon fill="#181818" points="655,501.4043,645,505.4043,655,509.4043,651,505.4043" style="stroke:#181818;stroke-width:1.0;"/><line style="stroke:#181818;stroke-width:1.0;stroke-dasharray:2.0,2.0;" x1="649" x2="1170.5" y1="505.4043" y2="505.4043"/><text fill="#000000" font-family="sans-serif" font-size="13" font-weight="bold" lengthAdjust="spacing" textLength="14" x="661" y="500.1416">13</text><text fill="#000000" font-family="sans-serif" font-size="13" lengthAdjust="spacing" textLength="74" x="679" y="500.1416">userId(email)</text><line style="stroke:#181818;stroke-width:1.0;" x1="644" x2="686" y1="536.6953" y2="536.6953"/><line style="stroke:#181818;stroke-width:1.0;" x1="686" x2="686" y1="536.6953" y2="549.6953"/><line style="stroke:#181818;stroke-width:1.0;" x1="645" x2="686" y1="549.6953" y2="549.6953"/><polygon fill="#181818" points="655,545.6953,645,549.6953,655,553.6953,651,549.6953" style="stroke:#181818;stroke-width:1.0;"/><text fill="#000000" font-family="sans-serif" font-size="13" font-weight="bold" lengthAdjust="spacing" textLength="14" x="651" y="531.4326">14</text><text fill="#000000" font-family="sans-serif" font-size="13" lengthAdjust="spacing" textLength="237" x="669" y="531.4326">getOrganizationByEmployeeEmail(email)</text><polygon fill="#181818" points="901,576.9863,911,580.9863,901,584.9863,905,580.9863" style="stroke:#181818;stroke-width:1.0;"/><line style="stroke:#181818;stroke-width:1.0;" x1="644" x2="907" y1="580.9863" y2="580.9863"/><text fill="#000000" font-family="sans-serif" font-size="13" font-weight="bold" lengthAdjust="spacing" textLength="14" x="651" y="575.7236">15</text><text fill="#000000" font-family="sans-serif" font-size="13" lengthAdjust="spacing" textLength="75" x="669" y="575.7236">getInstance()</text><polygon fill="#181818" points="655,608.2773,645,612.2773,655,616.2773,651,612.2773" style="stroke:#181818;stroke-width:1.0;"/><line style="stroke:#181818;stroke-width:1.0;stroke-dasharray:2.0,2.0;" x1="649" x2="917" y1="612.2773" y2="612.2773"/><text fill="#000000" font-family="sans-serif" font-size="13" font-weight="bold" lengthAdjust="spacing" textLength="14" x="661" y="607.0146">16</text><text fill="#000000" font-family="sans-serif" font-size="13" lengthAdjust="spacing" textLength="72" x="679" y="607.0146">Repositories</text><polygon fill="#181818" points="1008,639.5684,1018,643.5684,1008,647.5684,1012,643.5684" style="stroke:#181818;stroke-width:1.0;"/><line style="stroke:#181818;stroke-width:1.0;" x1="644" x2="1014" y1="643.5684" y2="643.5684"/><text fill="#000000" font-family="sans-serif" font-size="13" font-weight="bold" lengthAdjust="spacing" textLength="14" x="651" y="638.3057">17</text><text fill="#000000" font-family="sans-serif" font-size="13" lengthAdjust="spacing" textLength="161" x="669" y="638.3057">getOrganizationRepository()</text><polygon fill="#181818" points="655,670.8594,645,674.8594,655,678.8594,651,674.8594" style="stroke:#181818;stroke-width:1.0;"/><line style="stroke:#181818;stroke-width:1.0;stroke-dasharray:2.0,2.0;" x1="649" x2="1024" y1="674.8594" y2="674.8594"/><text fill="#000000" font-family="sans-serif" font-size="13" font-weight="bold" lengthAdjust="spacing" textLength="14" x="661" y="669.5967">18</text><text fill="#000000" font-family="sans-serif" font-size="13" lengthAdjust="spacing" textLength="143" x="679" y="669.5967">OrganizationRepository()</text><polygon fill="#181818" points="1477.5,702.1504,1487.5,706.1504,1477.5,710.1504,1481.5,706.1504" style="stroke:#181818;stroke-width:1.0;"/><line style="stroke:#181818;stroke-width:1.0;" x1="644" x2="1483.5" y1="706.1504" y2="706.1504"/><text fill="#000000" font-family="sans-serif" font-size="13" font-weight="bold" lengthAdjust="spacing" textLength="14" x="651" y="700.8877">19</text><text fill="#000000" font-family="sans-serif" font-size="13" lengthAdjust="spacing" textLength="183" x="669" y="700.8877">getOrganizationByUserId(email)</text><path d="M1403,721.1504 L1476,721.1504 L1476,730.4414 L1466,740.4414 L1403,740.4414 L1403,721.1504 " fill="#EEEEEE" style="stroke:#000000;stroke-width:1.5;"/><rect fill="none" height="81.873" style="stroke:#000000;stroke-width:1.5;" width="317.5" x="1403" y="721.1504"/><text fill="#000000" font-family="sans-serif" font-size="13" font-weight="bold" lengthAdjust="spacing" textLength="28" x="1418" y="736.1787">loop</text><text fill="#000000" font-family="sans-serif" font-size="11" font-weight="bold" lengthAdjust="spacing" textLength="124" x="1491" y="735.0205">[for each organization]</text><polygon fill="#181818" points="1644.5,759.7324,1654.5,763.7324,1644.5,767.7324,1648.5,763.7324" style="stroke:#181818;stroke-width:1.0;"/><line style="stroke:#181818;stroke-width:1.0;" x1="1499.5" x2="1650.5" y1="763.7324" y2="763.7324"/><text fill="#000000" font-family="sans-serif" font-size="13" font-weight="bold" lengthAdjust="spacing" textLength="14" x="1506.5" y="758.4697">20</text><text fill="#000000" font-family="sans-serif" font-size="13" lengthAdjust="spacing" textLength="120" x="1524.5" y="758.4697">anyUserHasId(email)</text><polygon fill="#181818" points="1510.5,791.0234,1500.5,795.0234,1510.5,799.0234,1506.5,795.0234" style="stroke:#181818;stroke-width:1.0;"/><line style="stroke:#181818;stroke-width:1.0;stroke-dasharray:2.0,2.0;" x1="1504.5" x2="1660.5" y1="795.0234" y2="795.0234"/><text fill="#000000" font-family="sans-serif" font-size="13" font-weight="bold" lengthAdjust="spacing" textLength="14" x="1516.5" y="789.7607">21</text><text fill="#000000" font-family="sans-serif" font-size="13" lengthAdjust="spacing" textLength="61" x="1534.5" y="789.7607">True/False</text><polygon fill="#181818" points="655,829.3145,645,833.3145,655,837.3145,651,833.3145" style="stroke:#181818;stroke-width:1.0;"/><line style="stroke:#181818;stroke-width:1.0;stroke-dasharray:2.0,2.0;" x1="649" x2="1493.5" y1="833.3145" y2="833.3145"/><text fill="#000000" font-family="sans-serif" font-size="13" font-weight="bold" lengthAdjust="spacing" textLength="14" x="661" y="828.0518">22</text><text fill="#000000" font-family="sans-serif" font-size="13" lengthAdjust="spacing" textLength="70" x="679" y="828.0518">organitazion</text><polygon fill="#181818" points="901,860.6055,911,864.6055,901,868.6055,905,864.6055" style="stroke:#181818;stroke-width:1.0;"/><line style="stroke:#181818;stroke-width:1.0;" x1="644" x2="907" y1="864.6055" y2="864.6055"/><text fill="#000000" font-family="sans-serif" font-size="13" font-weight="bold" lengthAdjust="spacing" textLength="14" x="651" y="859.3428">23</text><text fill="#000000" font-family="sans-serif" font-size="13" lengthAdjust="spacing" textLength="75" x="669" y="859.3428">getInstance()</text><polygon fill="#181818" points="655,891.8965,645,895.8965,655,899.8965,651,895.8965" style="stroke:#181818;stroke-width:1.0;"/><line style="stroke:#181818;stroke-width:1.0;stroke-dasharray:2.0,2.0;" x1="649" x2="917" y1="895.8965" y2="895.8965"/><text fill="#000000" font-family="sans-serif" font-size="13" font-weight="bold" lengthAdjust="spacing" textLength="14" x="661" y="890.6338">24</text><text fill="#000000" font-family="sans-serif" font-size="13" lengthAdjust="spacing" textLength="67" x="679" y="890.6338">repositories</text><polygon fill="#181818" points="1008,923.1875,1018,927.1875,1008,931.1875,1012,927.1875" style="stroke:#181818;stroke-width:1.0;"/><line style="stroke:#181818;stroke-width:1.0;" x1="644" x2="1014" y1="927.1875" y2="927.1875"/><text fill="#000000" font-family="sans-serif" font-size="13" font-weight="bold" lengthAdjust="spacing" textLength="14" x="651" y="921.9248">25</text><text fill="#000000" font-family="sans-serif" font-size="13" lengthAdjust="spacing" textLength="116" x="669" y="921.9248">getTaskRepository()</text><polygon fill="#181818" points="655,954.4785,645,958.4785,655,962.4785,651,958.4785" style="stroke:#181818;stroke-width:1.0;"/><line style="stroke:#181818;stroke-width:1.0;stroke-dasharray:2.0,2.0;" x1="649" x2="1024" y1="958.4785" y2="958.4785"/><text fill="#000000" font-family="sans-serif" font-size="13" font-weight="bold" lengthAdjust="spacing" textLength="14" x="661" y="953.2158">26</text><text fill="#000000" font-family="sans-serif" font-size="13" lengthAdjust="spacing" textLength="87" x="679" y="953.2158">taskRepository</text><polygon fill="#181818" points="2024.5,985.7695,2034.5,989.7695,2024.5,993.7695,2028.5,989.7695" style="stroke:#181818;stroke-width:1.0;"/><line style="stroke:#181818;stroke-width:1.0;" x1="644" x2="2030.5" y1="989.7695" y2="989.7695"/><text fill="#000000" font-family="sans-serif" font-size="13" font-weight="bold" lengthAdjust="spacing" textLength="14" x="651" y="984.5068">27</text><text fill="#000000" font-family="sans-serif" font-size="13" lengthAdjust="spacing" textLength="167" x="669" y="984.5068">getThisGsmTasksInAgenda()</text><polygon fill="#181818" points="655,1017.0605,645,1021.0605,655,1025.0605,651,1021.0605" style="stroke:#181818;stroke-width:1.0;"/><line style="stroke:#181818;stroke-width:1.0;stroke-dasharray:2.0,2.0;" x1="649" x2="2040.5" y1="1021.0605" y2="1021.0605"/><text fill="#000000" font-family="sans-serif" font-size="13" font-weight="bold" lengthAdjust="spacing" textLength="14" x="661" y="1015.7979">28</text><text fill="#000000" font-family="sans-serif" font-size="13" lengthAdjust="spacing" textLength="158" x="679" y="1015.7979">listThisGsmTasksInAgenda</text><polygon fill="#181818" points="368,1048.3516,358,1052.3516,368,1056.3516,364,1052.3516" style="stroke:#181818;stroke-width:1.0;"/><line style="stroke:#181818;stroke-width:1.0;stroke-dasharray:2.0,2.0;" x1="362" x2="638" y1="1052.3516" y2="1052.3516"/><text fill="#000000" font-family="sans-serif" font-size="13" font-weight="bold" lengthAdjust="spacing" textLength="14" x="374" y="1047.0889">29</text><text fill="#000000" font-family="sans-serif" font-size="13" lengthAdjust="spacing" textLength="158" x="392" y="1047.0889">listThisGsmTasksInAgenda</text><polygon fill="#181818" points="39,1079.6426,29,1083.6426,39,1087.6426,35,1083.6426" style="stroke:#181818;stroke-width:1.0;"/><line style="stroke:#181818;stroke-width:1.0;stroke-dasharray:2.0,2.0;" x1="33" x2="351" y1="1083.6426" y2="1083.6426"/><text fill="#000000" font-family="sans-serif" font-size="13" font-weight="bold" lengthAdjust="spacing" textLength="14" x="45" y="1078.3799">30</text><text fill="#000000" font-family="sans-serif" font-size="13" lengthAdjust="spacing" textLength="270" x="63" y="1078.3799">List tasks in the Agenda and ask to select one</text><polygon fill="#181818" points="335,1110.9336,345,1114.9336,335,1118.9336,339,1114.9336" style="stroke:#181818;stroke-width:1.0;"/><line style="stroke:#181818;stroke-width:1.0;" x1="28" x2="341" y1="1114.9336" y2="1114.9336"/><text fill="#000000" font-family="sans-serif" font-size="13" font-weight="bold" lengthAdjust="spacing" textLength="14" x="35" y="1109.6709">31</text><text fill="#000000" font-family="sans-serif" font-size="13" lengthAdjust="spacing" textLength="73" x="53" y="1109.6709">Selects task</text><polygon fill="#181818" points="622,1142.2246,632,1146.2246,622,1150.2246,626,1146.2246" style="stroke:#181818;stroke-width:1.0;"/><line style="stroke:#181818;stroke-width:1.0;" x1="357" x2="628" y1="1146.2246" y2="1146.2246"/><text fill="#000000" font-family="sans-serif" font-size="13" font-weight="bold" lengthAdjust="spacing" textLength="14" x="364" y="1140.9619">32</text><text fill="#000000" font-family="sans-serif" font-size="13" lengthAdjust="spacing" textLength="240" x="382" y="1140.9619">listVehiclesNotAssignedByDateOfTasks()</text><polygon fill="#181818" points="901,1173.5156,911,1177.5156,901,1181.5156,905,1177.5156" style="stroke:#181818;stroke-width:1.0;"/><line style="stroke:#181818;stroke-width:1.0;" x1="644" x2="907" y1="1177.5156" y2="1177.5156"/><text fill="#000000" font-family="sans-serif" font-size="13" font-weight="bold" lengthAdjust="spacing" textLength="14" x="651" y="1172.2529">33</text><text fill="#000000" font-family="sans-serif" font-size="13" lengthAdjust="spacing" textLength="75" x="669" y="1172.2529">getInstance()</text><polygon fill="#181818" points="655,1204.8066,645,1208.8066,655,1212.8066,651,1208.8066" style="stroke:#181818;stroke-width:1.0;"/><line style="stroke:#181818;stroke-width:1.0;stroke-dasharray:2.0,2.0;" x1="649" x2="917" y1="1208.8066" y2="1208.8066"/><text fill="#000000" font-family="sans-serif" font-size="13" font-weight="bold" lengthAdjust="spacing" textLength="14" x="661" y="1203.5439">34</text><text fill="#000000" font-family="sans-serif" font-size="13" lengthAdjust="spacing" textLength="67" x="679" y="1203.5439">repositories</text><polygon fill="#181818" points="1008,1236.0977,1018,1240.0977,1008,1244.0977,1012,1240.0977" style="stroke:#181818;stroke-width:1.0;"/><line style="stroke:#181818;stroke-width:1.0;" x1="644" x2="1014" y1="1240.0977" y2="1240.0977"/><text fill="#000000" font-family="sans-serif" font-size="13" font-weight="bold" lengthAdjust="spacing" textLength="14" x="651" y="1234.835">35</text><text fill="#000000" font-family="sans-serif" font-size="13" lengthAdjust="spacing" textLength="138" x="669" y="1234.835">getVehiclesRepository()</text><polygon fill="#181818" points="655,1267.3887,645,1271.3887,655,1275.3887,651,1271.3887" style="stroke:#181818;stroke-width:1.0;"/><line style="stroke:#181818;stroke-width:1.0;stroke-dasharray:2.0,2.0;" x1="649" x2="1024" y1="1271.3887" y2="1271.3887"/><text fill="#000000" font-family="sans-serif" font-size="13" font-weight="bold" lengthAdjust="spacing" textLength="14" x="661" y="1266.126">36</text><text fill="#000000" font-family="sans-serif" font-size="13" lengthAdjust="spacing" textLength="108" x="679" y="1266.126">vehiclesRepository</text><polygon fill="#181818" points="2156,1298.6797,2166,1302.6797,2156,1306.6797,2160,1302.6797" style="stroke:#181818;stroke-width:1.0;"/><line style="stroke:#181818;stroke-width:1.0;" x1="644" x2="2162" y1="1302.6797" y2="1302.6797"/><text fill="#000000" font-family="sans-serif" font-size="13" font-weight="bold" lengthAdjust="spacing" textLength="14" x="651" y="1297.417">37</text><text fill="#000000" font-family="sans-serif" font-size="13" lengthAdjust="spacing" textLength="247" x="669" y="1297.417">filterVehiclesNotAssignedByDateOfTasks()</text><polygon fill="#181818" points="655,1329.9707,645,1333.9707,655,1337.9707,651,1333.9707" style="stroke:#181818;stroke-width:1.0;"/><line style="stroke:#181818;stroke-width:1.0;stroke-dasharray:2.0,2.0;" x1="649" x2="2172" y1="1333.9707" y2="1333.9707"/><text fill="#000000" font-family="sans-serif" font-size="13" font-weight="bold" lengthAdjust="spacing" textLength="14" x="661" y="1328.708">38</text><text fill="#000000" font-family="sans-serif" font-size="13" lengthAdjust="spacing" textLength="240" x="679" y="1328.708">listVehiclesNotAssignedByDateOfTasks()</text><polygon fill="#181818" points="368,1361.2617,358,1365.2617,368,1369.2617,364,1365.2617" style="stroke:#181818;stroke-width:1.0;"/><line style="stroke:#181818;stroke-width:1.0;stroke-dasharray:2.0,2.0;" x1="362" x2="638" y1="1365.2617" y2="1365.2617"/><text fill="#000000" font-family="sans-serif" font-size="13" font-weight="bold" lengthAdjust="spacing" textLength="14" x="374" y="1359.999">39</text><text fill="#000000" font-family="sans-serif" font-size="13" lengthAdjust="spacing" textLength="215" x="392" y="1359.999">VehiclesNotAssignedByDateOfTasks</text><polygon fill="#181818" points="39,1392.5527,29,1396.5527,39,1400.5527,35,1396.5527" style="stroke:#181818;stroke-width:1.0;"/><line style="stroke:#181818;stroke-width:1.0;stroke-dasharray:2.0,2.0;" x1="33" x2="351" y1="1396.5527" y2="1396.5527"/><text fill="#000000" font-family="sans-serif" font-size="13" font-weight="bold" lengthAdjust="spacing" textLength="14" x="45" y="1391.29">40</text><text fill="#000000" font-family="sans-serif" font-size="13" lengthAdjust="spacing" textLength="263" x="63" y="1391.29">List all available vehicles that can be selected</text><polygon fill="#181818" points="335,1423.8438,345,1427.8438,335,1431.8438,339,1427.8438" style="stroke:#181818;stroke-width:1.0;"/><line style="stroke:#181818;stroke-width:1.0;" x1="28" x2="341" y1="1427.8438" y2="1427.8438"/><text fill="#000000" font-family="sans-serif" font-size="13" font-weight="bold" lengthAdjust="spacing" textLength="14" x="35" y="1422.5811">41</text><text fill="#000000" font-family="sans-serif" font-size="13" lengthAdjust="spacing" textLength="167" x="53" y="1422.5811">Selects one or more vehicles</text><polygon fill="#181818" points="39,1455.1348,29,1459.1348,39,1463.1348,35,1459.1348" style="stroke:#181818;stroke-width:1.0;"/><line style="stroke:#181818;stroke-width:1.0;stroke-dasharray:2.0,2.0;" x1="33" x2="351" y1="1459.1348" y2="1459.1348"/><text fill="#000000" font-family="sans-serif" font-size="13" font-weight="bold" lengthAdjust="spacing" textLength="14" x="45" y="1453.8721">42</text><text fill="#000000" font-family="sans-serif" font-size="13" lengthAdjust="spacing" textLength="207" x="63" y="1453.8721">Show data and request confirmation</text><polygon fill="#181818" points="335,1486.4258,345,1490.4258,335,1494.4258,339,1490.4258" style="stroke:#181818;stroke-width:1.0;"/><line style="stroke:#181818;stroke-width:1.0;" x1="28" x2="341" y1="1490.4258" y2="1490.4258"/><text fill="#000000" font-family="sans-serif" font-size="13" font-weight="bold" lengthAdjust="spacing" textLength="14" x="35" y="1485.1631">43</text><text fill="#000000" font-family="sans-serif" font-size="13" lengthAdjust="spacing" textLength="75" x="53" y="1485.1631">submits data</text><polygon fill="#181818" points="622,1517.7168,632,1521.7168,622,1525.7168,626,1521.7168" style="stroke:#181818;stroke-width:1.0;"/><line style="stroke:#181818;stroke-width:1.0;" x1="357" x2="628" y1="1521.7168" y2="1521.7168"/><text fill="#000000" font-family="sans-serif" font-size="13" font-weight="bold" lengthAdjust="spacing" textLength="14" x="364" y="1516.4541">44</text><text fill="#000000" font-family="sans-serif" font-size="13" lengthAdjust="spacing" textLength="204" x="382" y="1516.4541">updateTaskVehicles(task, vehicles)</text><polygon fill="#181818" points="1743.5,1549.0078,1753.5,1553.0078,1743.5,1557.0078,1747.5,1553.0078" style="stroke:#181818;stroke-width:1.0;"/><line style="stroke:#181818;stroke-width:1.0;" x1="644" x2="1749.5" y1="1553.0078" y2="1553.0078"/><text fill="#000000" font-family="sans-serif" font-size="13" font-weight="bold" lengthAdjust="spacing" textLength="14" x="651" y="1547.7451">45</text><text fill="#000000" font-family="sans-serif" font-size="13" lengthAdjust="spacing" textLength="204" x="669" y="1547.7451">updateTaskVehicles(task, vehicles)</text><polygon fill="#181818" points="2236,1580.2988,2246,1584.2988,2236,1588.2988,2240,1584.2988" style="stroke:#181818;stroke-width:1.0;"/><line style="stroke:#181818;stroke-width:1.0;" x1="1765.5" x2="2242" y1="1584.2988" y2="1584.2988"/><text fill="#000000" font-family="sans-serif" font-size="13" font-weight="bold" lengthAdjust="spacing" textLength="14" x="1772.5" y="1579.0361">46</text><text fill="#000000" font-family="sans-serif" font-size="13" lengthAdjust="spacing" textLength="204" x="1790.5" y="1579.0361">updateTaskVehicles(task, vehicles)</text><rect fill="#E3E3E3" height="51.2422" rx="2.5" ry="2.5" style="stroke:#181818;stroke-width:0.5;" width="45" x="2248" y="1561.0078"/><text fill="#000000" font-family="sans-serif" font-size="14" lengthAdjust="spacing" textLength="30" x="2255.5" y="1583.1152">task:</text><text fill="#000000" font-family="sans-serif" font-size="14" lengthAdjust="spacing" textLength="31" x="2255" y="1601.7363">Task</text><line style="stroke:#181818;stroke-width:1.0;" x1="1770.5" x2="1812.5" y1="1646.541" y2="1646.541"/><line style="stroke:#181818;stroke-width:1.0;" x1="1812.5" x2="1812.5" y1="1646.541" y2="1659.541"/><line style="stroke:#181818;stroke-width:1.0;" x1="1771.5" x2="1812.5" y1="1659.541" y2="1659.541"/><polygon fill="#181818" points="1781.5,1655.541,1771.5,1659.541,1781.5,1663.541,1777.5,1659.541" style="stroke:#181818;stroke-width:1.0;"/><text fill="#000000" font-family="sans-serif" font-size="13" font-weight="bold" lengthAdjust="spacing" textLength="14" x="1777.5" y="1641.2783">47</text><text fill="#000000" font-family="sans-serif" font-size="13" lengthAdjust="spacing" textLength="234" x="1795.5" y="1641.2783">addUpdatedTaskVehicles(task, vehicles)</text><line style="stroke:#181818;stroke-width:1.0;" x1="1770.5" x2="1812.5" y1="1690.832" y2="1690.832"/><line style="stroke:#181818;stroke-width:1.0;" x1="1812.5" x2="1812.5" y1="1690.832" y2="1703.832"/><line style="stroke:#181818;stroke-width:1.0;" x1="1771.5" x2="1812.5" y1="1703.832" y2="1703.832"/><polygon fill="#181818" points="1781.5,1699.832,1771.5,1703.832,1781.5,1707.832,1777.5,1703.832" style="stroke:#181818;stroke-width:1.0;"/><text fill="#000000" font-family="sans-serif" font-size="13" font-weight="bold" lengthAdjust="spacing" textLength="14" x="1777.5" y="1685.5693">48</text><text fill="#000000" font-family="sans-serif" font-size="13" lengthAdjust="spacing" textLength="158" x="1795.5" y="1685.5693">validateTask(task, vehicles)</text><line style="stroke:#181818;stroke-width:1.0;stroke-dasharray:2.0,2.0;" x1="1770.5" x2="1812.5" y1="1735.123" y2="1735.123"/><line style="stroke:#181818;stroke-width:1.0;stroke-dasharray:2.0,2.0;" x1="1812.5" x2="1812.5" y1="1735.123" y2="1748.123"/><line style="stroke:#181818;stroke-width:1.0;stroke-dasharray:2.0,2.0;" x1="1771.5" x2="1812.5" y1="1748.123" y2="1748.123"/><polygon fill="#181818" points="1781.5,1744.123,1771.5,1748.123,1781.5,1752.123,1777.5,1748.123" style="stroke:#181818;stroke-width:1.0;"/><text fill="#000000" font-family="sans-serif" font-size="13" font-weight="bold" lengthAdjust="spacing" textLength="14" x="1777.5" y="1729.8604">49</text><text fill="#000000" font-family="sans-serif" font-size="13" lengthAdjust="spacing" textLength="4" x="1795.5" y="1729.8604">&#160;</text><line style="stroke:#181818;stroke-width:1.0;stroke-dasharray:2.0,2.0;" x1="1770.5" x2="1812.5" y1="1779.4141" y2="1779.4141"/><line style="stroke:#181818;stroke-width:1.0;stroke-dasharray:2.0,2.0;" x1="1812.5" x2="1812.5" y1="1779.4141" y2="1792.4141"/><line style="stroke:#181818;stroke-width:1.0;stroke-dasharray:2.0,2.0;" x1="1771.5" x2="1812.5" y1="1792.4141" y2="1792.4141"/><polygon fill="#181818" points="1781.5,1788.4141,1771.5,1792.4141,1781.5,1796.4141,1777.5,1792.4141" style="stroke:#181818;stroke-width:1.0;"/><text fill="#000000" font-family="sans-serif" font-size="13" font-weight="bold" lengthAdjust="spacing" textLength="14" x="1777.5" y="1774.1514">50</text><text fill="#000000" font-family="sans-serif" font-size="13" lengthAdjust="spacing" textLength="4" x="1795.5" y="1774.1514">&#160;</text><polygon fill="#181818" points="655,1819.7051,645,1823.7051,655,1827.7051,651,1823.7051" style="stroke:#181818;stroke-width:1.0;"/><line style="stroke:#181818;stroke-width:1.0;stroke-dasharray:2.0,2.0;" x1="649" x2="1759.5" y1="1823.7051" y2="1823.7051"/><text fill="#000000" font-family="sans-serif" font-size="13" font-weight="bold" lengthAdjust="spacing" textLength="14" x="661" y="1818.4424">51</text><text fill="#000000" font-family="sans-serif" font-size="13" lengthAdjust="spacing" textLength="76" x="679" y="1818.4424">UpdatedTask</text><polygon fill="#181818" points="368,1850.9961,358,1854.9961,368,1858.9961,364,1854.9961" style="stroke:#181818;stroke-width:1.0;"/><line style="stroke:#181818;stroke-width:1.0;stroke-dasharray:2.0,2.0;" x1="362" x2="638" y1="1854.9961" y2="1854.9961"/><text fill="#000000" font-family="sans-serif" font-size="13" font-weight="bold" lengthAdjust="spacing" textLength="14" x="374" y="1849.7334">52</text><text fill="#000000" font-family="sans-serif" font-size="13" lengthAdjust="spacing" textLength="76" x="392" y="1849.7334">UpdatedTask</text><polygon fill="#181818" points="34,1882.2871,24,1886.2871,34,1890.2871,30,1886.2871" style="stroke:#181818;stroke-width:1.0;"/><line style="stroke:#181818;stroke-width:1.0;stroke-dasharray:2.0,2.0;" x1="28" x2="351" y1="1886.2871" y2="1886.2871"/><text fill="#000000" font-family="sans-serif" font-size="13" font-weight="bold" lengthAdjust="spacing" textLength="14" x="40" y="1881.0244">53</text><text fill="#000000" font-family="sans-serif" font-size="13" lengthAdjust="spacing" textLength="158" x="58" y="1881.0244">displays operation success</text><!--SRC=[rLXBRziu4BxhLn2-D2dgzcui0hYfanYRR0i_qailj4HRH2HIIrBkkhz-XzIBbAX7ZRsiBx4bpZVV3ESR3YFVACkmm2bAEUDXB7XAa18v2MJz9iFX6pwHhRea10aIAinEYRr0nZZYFoaxeIDE90a2d2lEylH0H12yYsb4q95pTU3_13XKNA3Pq-PbXh14ooyl0M0e6j8CCuLcYsKKlPAOXWcHExx3ycs_DYltwx65zvmfmPE426Dmlziyjqms9EEI0W5Af5bJFxXigOu9MBicmhBumRe0tvwNEzTYcQlu0OSu8h1U_o0CNc95EMky5R7lTq-RrJVNF9T4R8cKi1pizysl8WdRrSPTpyK9C_ghXR_umRvwNnWK_wj-N21YcnGOcqVNWAHPmYz4Hxqglvg5gvTMX0gsoc6wSnuOezro-sSdDUTYjntRr_OpO_wwwYPMkosTrIw2GDSZFMD5J2K623xm1StleDxG0jQzIQGu_9Nqn539e7Z44Eoik23A46moMfu8Y_170r63Gj6Q1_e3W02hgnA0JqJjOYeVPQe9oJKhp6zkw-NLfyOozTp06I07K1VB0-YtB1Z0wYpsr7jXksOIL1qIYq3js2SI1_YF-Rm7sTPBRHEHGUWEQQsnWcMVdEnGQsmZpGxF4cm0oKFJG7LubVejgDtdGW2W9LWlgKhpzPiAH5SSY1l0g7pcfnE9lbCLR_A4t3nkNtnGfXTqS7IC9T1i1styquFkoBEklyPXMJhhw8Qac2QtGvYvTw6LAfTLdVOcLwC8LOhw2zrkHfylLRTPQSGsxl-fyFlhtj-mVPG7YtuKfbtoRKP-0BJex8c_dchmdWF8Rdi9vnaC3G81fHZPfv6ph8UHvhfvr0sS6IvFM7Rfk9JWF9i0hBDP83VYSkoi5BOXeS6RiBhxqvVNCcw5VzbnsoxyYRIEYMj5C5a84yGWV6Bu3K7uHU6E3NtKdJhsYS8TH_heUM7cT-MSClb0h_6g0QSDgOare0cLNjG-bZvK63iqQDazVnVH31tsEpqTcVD0ZqVFW6OIADqf26GNwTb9pqcI971ZG9prwWI6fBQ7QlxQ6cDfVFWJQKzOHRZDKQ63hQu8Vt6rD4CSYJvVle3brwD9W7rAUyOjrFEvLb9NoUk_aDgLiXkMO9NSNXbEa-IGFCyT5rF26dKnlolk2E3XI1D5n8Gw6Gsil7OC-TMHrPudrkU4U4SykprWpEKKXvs-CDmZS98WV8RJ5nyIObsZOgnG23Uf0odx18ccU6zrZB7k0Rq7JbAKSj7u7j_DRcSnGxDs0D0n_uaYh8fM9yZVEO4mGywELAJTCSNbtjlkP7v8AH3MmC5aKdM_opCm97eFgos-qOtpGntqxTHMLqaTBk_Nm-gRVoVDy503wvFg_Vj9sFqtOkt0juMb3qCUHz7U-8Wc1-23EUE4Laod6nVMe- -3lfVblbe114F3fcSBJMMv25CLtTJx0aLKPWc-W9Go8anvGws68Lnq0qzvsvSv_L-LVm40]--></g></svg>