<?xml version="1.0" encoding="us-ascii" standalone="no"?><svg xmlns="http://www.w3.org/2000/svg" xmlns:xlink="http://www.w3.org/1999/xlink" contentStyleType="text/css" height="1345px" preserveAspectRatio="none" style="width:2013px;height:1345px;background:#FFFFFF;" version="1.1" viewBox="0 0 2013 1345" width="2013px" zoomAndPan="magnify"><defs/><g><!--class AuthenticationRepository--><g id="elem_AuthenticationRepository"><rect codeLine="11" fill="#F1F1F1" height="66.6211" id="AuthenticationRepository" rx="2.5" ry="2.5" style="stroke:#181818;stroke-width:0.5;" width="190" x="780" y="213"/><ellipse cx="795" cy="229" fill="#ADD1B2" rx="11" ry="11" style="stroke:#181818;stroke-width:1.0;"/><path d="M797.7656,224.875 Q797.9219,224.6563 798.1094,224.5469 Q798.2969,224.4375 798.5156,224.4375 Q798.8906,224.4375 799.125,224.7031 Q799.3594,224.9531 799.3594,225.5625 L799.3594,227.0156 Q799.3594,227.625 799.125,227.8906 Q798.8906,228.1563 798.5156,228.1563 Q798.1719,228.1563 797.9688,227.9531 Q797.7656,227.7656 797.6563,227.25 Q797.6094,226.8906 797.4219,226.7031 Q797.0938,226.3281 796.4844,226.1094 Q795.875,225.8906 795.25,225.8906 Q794.4844,225.8906 793.8438,226.2188 Q793.2188,226.5469 792.7188,227.2969 Q792.2344,228.0469 792.2344,229.0781 L792.2344,230.1719 Q792.2344,231.4063 793.125,232.2344 Q794.0156,233.0469 795.6094,233.0469 Q796.5469,233.0469 797.2031,232.7969 Q797.5938,232.6406 798.0156,232.2031 Q798.2813,231.9375 798.4219,231.8594 Q798.5781,231.7813 798.7813,231.7813 Q799.1094,231.7813 799.3594,232.0469 Q799.625,232.2969 799.625,232.6406 Q799.625,232.9844 799.2813,233.3906 Q798.7813,233.9688 797.9844,234.2969 Q796.9063,234.75 795.6094,234.75 Q794.0938,234.75 792.8906,234.125 Q791.9063,233.625 791.2188,232.5625 Q790.5313,231.4844 790.5313,230.2031 L790.5313,229.0469 Q790.5313,227.7188 791.1406,226.5781 Q791.7656,225.4219 792.8594,224.8125 Q793.9531,224.1875 795.1875,224.1875 Q795.9219,224.1875 796.5625,224.3594 Q797.2188,224.5156 797.7656,224.875 Z " fill="#000000"/><text fill="#000000" font-family="sans-serif" font-size="14" lengthAdjust="spacing" textLength="158" x="809" y="234.7969">AuthenticationRepository</text><line style="stroke:#181818;stroke-width:0.5;" x1="781" x2="969" y1="245" y2="245"/><line style="stroke:#181818;stroke-width:0.5;" x1="781" x2="969" y1="253" y2="253"/><text fill="#000000" font-family="sans-serif" font-size="14" lengthAdjust="spacing" textLength="165" x="786" y="272.1074">+getCurrentUserSession()</text></g><!--class UserSession--><g id="elem_UserSession"><rect codeLine="16" fill="#F1F1F1" height="85.2422" id="UserSession" rx="2.5" ry="2.5" style="stroke:#181818;stroke-width:0.5;" width="156" x="1077" y="204"/><ellipse cx="1112.25" cy="220" fill="#ADD1B2" rx="11" ry="11" style="stroke:#181818;stroke-width:1.0;"/><path d="M1115.0156,215.875 Q1115.1719,215.6563 1115.3594,215.5469 Q1115.5469,215.4375 1115.7656,215.4375 Q1116.1406,215.4375 1116.375,215.7031 Q1116.6094,215.9531 1116.6094,216.5625 L1116.6094,218.0156 Q1116.6094,218.625 1116.375,218.8906 Q1116.1406,219.1563 1115.7656,219.1563 Q1115.4219,219.1563 1115.2188,218.9531 Q1115.0156,218.7656 1114.9063,218.25 Q1114.8594,217.8906 1114.6719,217.7031 Q1114.3438,217.3281 1113.7344,217.1094 Q1113.125,216.8906 1112.5,216.8906 Q1111.7344,216.8906 1111.0938,217.2188 Q1110.4688,217.5469 1109.9688,218.2969 Q1109.4844,219.0469 1109.4844,220.0781 L1109.4844,221.1719 Q1109.4844,222.4063 1110.375,223.2344 Q1111.2656,224.0469 1112.8594,224.0469 Q1113.7969,224.0469 1114.4531,223.7969 Q1114.8438,223.6406 1115.2656,223.2031 Q1115.5313,222.9375 1115.6719,222.8594 Q1115.8281,222.7813 1116.0313,222.7813 Q1116.3594,222.7813 1116.6094,223.0469 Q1116.875,223.2969 1116.875,223.6406 Q1116.875,223.9844 1116.5313,224.3906 Q1116.0313,224.9688 1115.2344,225.2969 Q1114.1563,225.75 1112.8594,225.75 Q1111.3438,225.75 1110.1406,225.125 Q1109.1563,224.625 1108.4688,223.5625 Q1107.7813,222.4844 1107.7813,221.2031 L1107.7813,220.0469 Q1107.7813,218.7188 1108.3906,217.5781 Q1109.0156,216.4219 1110.1094,215.8125 Q1111.2031,215.1875 1112.4375,215.1875 Q1113.1719,215.1875 1113.8125,215.3594 Q1114.4688,215.5156 1115.0156,215.875 Z " fill="#000000"/><text fill="#000000" font-family="sans-serif" font-size="14" lengthAdjust="spacing" textLength="79" x="1130.75" y="225.7969">UserSession</text><line style="stroke:#181818;stroke-width:0.5;" x1="1078" x2="1232" y1="236" y2="236"/><line style="stroke:#181818;stroke-width:0.5;" x1="1078" x2="1232" y1="244" y2="244"/><text fill="#000000" font-family="sans-serif" font-size="14" lengthAdjust="spacing" textLength="144" x="1083" y="263.1074">+isLoggedInWithRole()</text><text fill="#000000" font-family="sans-serif" font-size="14" lengthAdjust="spacing" textLength="78" x="1083" y="281.7285">+getUserId()</text></g><!--class Repositories--><g id="elem_Repositories"><rect codeLine="23" fill="#F1F1F1" height="122.4844" id="Repositories" rx="2.5" ry="2.5" style="stroke:#181818;stroke-width:0.5;" width="208" x="1373" y="21"/><ellipse cx="1433.25" cy="37" fill="#ADD1B2" rx="11" ry="11" style="stroke:#181818;stroke-width:1.0;"/><path d="M1436.0156,32.875 Q1436.1719,32.6563 1436.3594,32.5469 Q1436.5469,32.4375 1436.7656,32.4375 Q1437.1406,32.4375 1437.375,32.7031 Q1437.6094,32.9531 1437.6094,33.5625 L1437.6094,35.0156 Q1437.6094,35.625 1437.375,35.8906 Q1437.1406,36.1563 1436.7656,36.1563 Q1436.4219,36.1563 1436.2188,35.9531 Q1436.0156,35.7656 1435.9063,35.25 Q1435.8594,34.8906 1435.6719,34.7031 Q1435.3438,34.3281 1434.7344,34.1094 Q1434.125,33.8906 1433.5,33.8906 Q1432.7344,33.8906 1432.0938,34.2188 Q1431.4688,34.5469 1430.9688,35.2969 Q1430.4844,36.0469 1430.4844,37.0781 L1430.4844,38.1719 Q1430.4844,39.4063 1431.375,40.2344 Q1432.2656,41.0469 1433.8594,41.0469 Q1434.7969,41.0469 1435.4531,40.7969 Q1435.8438,40.6406 1436.2656,40.2031 Q1436.5313,39.9375 1436.6719,39.8594 Q1436.8281,39.7813 1437.0313,39.7813 Q1437.3594,39.7813 1437.6094,40.0469 Q1437.875,40.2969 1437.875,40.6406 Q1437.875,40.9844 1437.5313,41.3906 Q1437.0313,41.9688 1436.2344,42.2969 Q1435.1563,42.75 1433.8594,42.75 Q1432.3438,42.75 1431.1406,42.125 Q1430.1563,41.625 1429.4688,40.5625 Q1428.7813,39.4844 1428.7813,38.2031 L1428.7813,37.0469 Q1428.7813,35.7188 1429.3906,34.5781 Q1430.0156,33.4219 1431.1094,32.8125 Q1432.2031,32.1875 1433.4375,32.1875 Q1434.1719,32.1875 1434.8125,32.3594 Q1435.4688,32.5156 1436.0156,32.875 Z " fill="#000000"/><text fill="#000000" font-family="sans-serif" font-size="14" lengthAdjust="spacing" textLength="79" x="1453.75" y="42.7969">Repositories</text><line style="stroke:#181818;stroke-width:0.5;" x1="1374" x2="1580" y1="53" y2="53"/><line style="stroke:#181818;stroke-width:0.5;" x1="1374" x2="1580" y1="61" y2="61"/><text fill="#000000" font-family="sans-serif" font-size="14" lengthAdjust="spacing" textLength="94" x="1379" y="80.1074">-Repositories()</text><text fill="#000000" font-family="sans-serif" font-size="14" lengthAdjust="spacing" textLength="182" x="1379" y="98.7285">+getInstance() : Repositories</text><text fill="#000000" font-family="sans-serif" font-size="14" lengthAdjust="spacing" textLength="196" x="1379" y="117.3496">+getAuthenticationRepository()</text><text fill="#000000" font-family="sans-serif" font-size="14" lengthAdjust="spacing" textLength="159" x="1379" y="135.9707">+getVehiclesRepository()</text></g><!--class OrganizationRepository--><g id="elem_OrganizationRepository"><rect codeLine="30" fill="#F1F1F1" height="66.6211" id="OrganizationRepository" rx="2.5" ry="2.5" style="stroke:#181818;stroke-width:0.5;" width="242" x="1268" y="213"/><ellipse cx="1310.9" cy="229" fill="#ADD1B2" rx="11" ry="11" style="stroke:#181818;stroke-width:1.0;"/><path d="M1313.6656,224.875 Q1313.8219,224.6563 1314.0094,224.5469 Q1314.1969,224.4375 1314.4156,224.4375 Q1314.7906,224.4375 1315.025,224.7031 Q1315.2594,224.9531 1315.2594,225.5625 L1315.2594,227.0156 Q1315.2594,227.625 1315.025,227.8906 Q1314.7906,228.1563 1314.4156,228.1563 Q1314.0719,228.1563 1313.8688,227.9531 Q1313.6656,227.7656 1313.5563,227.25 Q1313.5094,226.8906 1313.3219,226.7031 Q1312.9938,226.3281 1312.3844,226.1094 Q1311.775,225.8906 1311.15,225.8906 Q1310.3844,225.8906 1309.7438,226.2188 Q1309.1188,226.5469 1308.6188,227.2969 Q1308.1344,228.0469 1308.1344,229.0781 L1308.1344,230.1719 Q1308.1344,231.4063 1309.025,232.2344 Q1309.9156,233.0469 1311.5094,233.0469 Q1312.4469,233.0469 1313.1031,232.7969 Q1313.4938,232.6406 1313.9156,232.2031 Q1314.1813,231.9375 1314.3219,231.8594 Q1314.4781,231.7813 1314.6813,231.7813 Q1315.0094,231.7813 1315.2594,232.0469 Q1315.525,232.2969 1315.525,232.6406 Q1315.525,232.9844 1315.1813,233.3906 Q1314.6813,233.9688 1313.8844,234.2969 Q1312.8063,234.75 1311.5094,234.75 Q1309.9938,234.75 1308.7906,234.125 Q1307.8063,233.625 1307.1188,232.5625 Q1306.4313,231.4844 1306.4313,230.2031 L1306.4313,229.0469 Q1306.4313,227.7188 1307.0406,226.5781 Q1307.6656,225.4219 1308.7594,224.8125 Q1309.8531,224.1875 1311.0875,224.1875 Q1311.8219,224.1875 1312.4625,224.3594 Q1313.1188,224.5156 1313.6656,224.875 Z " fill="#000000"/><text fill="#000000" font-family="sans-serif" font-size="14" lengthAdjust="spacing" textLength="148" x="1331.1" y="234.7969">OrganizationRepository</text><line style="stroke:#181818;stroke-width:0.5;" x1="1269" x2="1509" y1="245" y2="245"/><line style="stroke:#181818;stroke-width:0.5;" x1="1269" x2="1509" y1="253" y2="253"/><text fill="#000000" font-family="sans-serif" font-size="14" lengthAdjust="spacing" textLength="230" x="1274" y="272.1074">+getOrganizationByUserEmail(email)</text></g><!--class Organization--><g id="elem_Organization"><rect codeLine="34" fill="#F1F1F1" height="215.5898" id="Organization" rx="2.5" ry="2.5" style="stroke:#181818;stroke-width:0.5;" width="465" x="1044.5" y="368"/><ellipse cx="1232.75" cy="384" fill="#ADD1B2" rx="11" ry="11" style="stroke:#181818;stroke-width:1.0;"/><path d="M1235.5156,379.875 Q1235.6719,379.6563 1235.8594,379.5469 Q1236.0469,379.4375 1236.2656,379.4375 Q1236.6406,379.4375 1236.875,379.7031 Q1237.1094,379.9531 1237.1094,380.5625 L1237.1094,382.0156 Q1237.1094,382.625 1236.875,382.8906 Q1236.6406,383.1563 1236.2656,383.1563 Q1235.9219,383.1563 1235.7188,382.9531 Q1235.5156,382.7656 1235.4063,382.25 Q1235.3594,381.8906 1235.1719,381.7031 Q1234.8438,381.3281 1234.2344,381.1094 Q1233.625,380.8906 1233,380.8906 Q1232.2344,380.8906 1231.5938,381.2188 Q1230.9688,381.5469 1230.4688,382.2969 Q1229.9844,383.0469 1229.9844,384.0781 L1229.9844,385.1719 Q1229.9844,386.4063 1230.875,387.2344 Q1231.7656,388.0469 1233.3594,388.0469 Q1234.2969,388.0469 1234.9531,387.7969 Q1235.3438,387.6406 1235.7656,387.2031 Q1236.0313,386.9375 1236.1719,386.8594 Q1236.3281,386.7813 1236.5313,386.7813 Q1236.8594,386.7813 1237.1094,387.0469 Q1237.375,387.2969 1237.375,387.6406 Q1237.375,387.9844 1237.0313,388.3906 Q1236.5313,388.9688 1235.7344,389.2969 Q1234.6563,389.75 1233.3594,389.75 Q1231.8438,389.75 1230.6406,389.125 Q1229.6563,388.625 1228.9688,387.5625 Q1228.2813,386.4844 1228.2813,385.2031 L1228.2813,384.0469 Q1228.2813,382.7188 1228.8906,381.5781 Q1229.5156,380.4219 1230.6094,379.8125 Q1231.7031,379.1875 1232.9375,379.1875 Q1233.6719,379.1875 1234.3125,379.3594 Q1234.9688,379.5156 1235.5156,379.875 Z " fill="#000000"/><text fill="#000000" font-family="sans-serif" font-size="14" lengthAdjust="spacing" textLength="80" x="1253.25" y="389.7969">Organization</text><line style="stroke:#181818;stroke-width:0.5;" x1="1045.5" x2="1508.5" y1="400" y2="400"/><text fill="#000000" font-family="sans-serif" font-size="14" lengthAdjust="spacing" textLength="81" x="1050.5" y="419.1074">-String name</text><text fill="#000000" font-family="sans-serif" font-size="14" lengthAdjust="spacing" textLength="114" x="1050.5" y="437.7285">-String vatNumber</text><text fill="#000000" font-family="sans-serif" font-size="14" lengthAdjust="spacing" textLength="86" x="1050.5" y="456.3496">-String phone</text><text fill="#000000" font-family="sans-serif" font-size="14" lengthAdjust="spacing" textLength="79" x="1050.5" y="474.9707">-String email</text><text fill="#000000" font-family="sans-serif" font-size="14" lengthAdjust="spacing" textLength="151" x="1050.5" y="493.5918">-Address postalAddress</text><line style="stroke:#181818;stroke-width:0.5;" x1="1045.5" x2="1508.5" y1="501.1055" y2="501.1055"/><text fill="#000000" font-family="sans-serif" font-size="14" lengthAdjust="spacing" textLength="87" x="1050.5" y="520.2129">-addSkill(skill)</text><text fill="#000000" font-family="sans-serif" font-size="14" lengthAdjust="spacing" textLength="112" x="1050.5" y="538.834">-validateSkill(skill)</text><text fill="#000000" font-family="sans-serif" font-size="14" lengthAdjust="spacing" textLength="453" x="1050.5" y="557.4551">+Organization(name, vatNumber, webSite, phone, email, postalAddress)</text><text fill="#000000" font-family="sans-serif" font-size="14" lengthAdjust="spacing" textLength="147" x="1050.5" y="576.0762">-getUserByEmail(email)</text></g><!--class Employee--><g id="elem_Employee"><rect codeLine="47" fill="#F1F1F1" height="345.9375" id="Employee" rx="2.5" ry="2.5" style="stroke:#181818;stroke-width:0.5;" width="276" x="1097" y="846"/><ellipse cx="1199.75" cy="862" fill="#ADD1B2" rx="11" ry="11" style="stroke:#181818;stroke-width:1.0;"/><path d="M1202.5156,857.875 Q1202.6719,857.6563 1202.8594,857.5469 Q1203.0469,857.4375 1203.2656,857.4375 Q1203.6406,857.4375 1203.875,857.7031 Q1204.1094,857.9531 1204.1094,858.5625 L1204.1094,860.0156 Q1204.1094,860.625 1203.875,860.8906 Q1203.6406,861.1563 1203.2656,861.1563 Q1202.9219,861.1563 1202.7188,860.9531 Q1202.5156,860.7656 1202.4063,860.25 Q1202.3594,859.8906 1202.1719,859.7031 Q1201.8438,859.3281 1201.2344,859.1094 Q1200.625,858.8906 1200,858.8906 Q1199.2344,858.8906 1198.5938,859.2188 Q1197.9688,859.5469 1197.4688,860.2969 Q1196.9844,861.0469 1196.9844,862.0781 L1196.9844,863.1719 Q1196.9844,864.4063 1197.875,865.2344 Q1198.7656,866.0469 1200.3594,866.0469 Q1201.2969,866.0469 1201.9531,865.7969 Q1202.3438,865.6406 1202.7656,865.2031 Q1203.0313,864.9375 1203.1719,864.8594 Q1203.3281,864.7813 1203.5313,864.7813 Q1203.8594,864.7813 1204.1094,865.0469 Q1204.375,865.2969 1204.375,865.6406 Q1204.375,865.9844 1204.0313,866.3906 Q1203.5313,866.9688 1202.7344,867.2969 Q1201.6563,867.75 1200.3594,867.75 Q1198.8438,867.75 1197.6406,867.125 Q1196.6563,866.625 1195.9688,865.5625 Q1195.2813,864.4844 1195.2813,863.2031 L1195.2813,862.0469 Q1195.2813,860.7188 1195.8906,859.5781 Q1196.5156,858.4219 1197.6094,857.8125 Q1198.7031,857.1875 1199.9375,857.1875 Q1200.6719,857.1875 1201.3125,857.3594 Q1201.9688,857.5156 1202.5156,857.875 Z " fill="#000000"/><text fill="#000000" font-family="sans-serif" font-size="14" lengthAdjust="spacing" textLength="62" x="1220.25" y="867.7969">Employee</text><line style="stroke:#181818;stroke-width:0.5;" x1="1098" x2="1372" y1="878" y2="878"/><text fill="#000000" font-family="sans-serif" font-size="14" lengthAdjust="spacing" textLength="81" x="1103" y="897.1074">-String name</text><text fill="#000000" font-family="sans-serif" font-size="14" lengthAdjust="spacing" textLength="95" x="1103" y="915.7285">-Date birthdate</text><text fill="#000000" font-family="sans-serif" font-size="14" lengthAdjust="spacing" textLength="134" x="1103" y="934.3496">-Date admission date</text><text fill="#000000" font-family="sans-serif" font-size="14" lengthAdjust="spacing" textLength="151" x="1103" y="952.9707">-Address postalAddress</text><text fill="#000000" font-family="sans-serif" font-size="14" lengthAdjust="spacing" textLength="86" x="1103" y="971.5918">-String phone</text><text fill="#000000" font-family="sans-serif" font-size="14" lengthAdjust="spacing" textLength="79" x="1103" y="990.2129">-String email</text><text fill="#000000" font-family="sans-serif" font-size="14" lengthAdjust="spacing" textLength="117" x="1103" y="1008.834">-String ID doc type</text><text fill="#000000" font-family="sans-serif" font-size="14" lengthAdjust="spacing" textLength="177" x="1103" y="1027.4551">-String ID document number</text><text fill="#000000" font-family="sans-serif" font-size="14" lengthAdjust="spacing" textLength="122" x="1103" y="1046.0762">-String Taxpayer ID</text><text fill="#000000" font-family="sans-serif" font-size="14" lengthAdjust="spacing" textLength="50" x="1103" y="1064.6973">-Job job</text><line style="stroke:#181818;stroke-width:0.5;" x1="1098" x2="1372" y1="1072.2109" y2="1072.2109"/><text fill="#000000" font-family="sans-serif" font-size="14" lengthAdjust="spacing" textLength="166" x="1103" y="1091.3184">+CompareTo(TaxPayerID)</text><text fill="#000000" font-family="sans-serif" font-size="14" lengthAdjust="spacing" textLength="55" x="1103" y="1109.9395">+Clone()</text><text fill="#000000" font-family="sans-serif" font-size="14" lengthAdjust="spacing" textLength="67" x="1103" y="1128.5605">+toString()</text><text fill="#000000" font-family="sans-serif" font-size="14" lengthAdjust="spacing" textLength="127" x="1103" y="1147.1816">+hasThisEmail(mail)</text><text fill="#000000" font-family="sans-serif" font-size="14" lengthAdjust="spacing" textLength="264" x="1103" y="1165.8027">+addUpdatedTaskVehicles(task, vehicles)</text><text fill="#000000" font-family="sans-serif" font-size="14" lengthAdjust="spacing" textLength="183" x="1103" y="1184.4238">+validateTask(task, vehicles)</text></g><!--class EmployeeRepository--><g id="elem_EmployeeRepository"><rect codeLine="66" fill="#F1F1F1" height="122.4844" id="EmployeeRepository" rx="2.5" ry="2.5" style="stroke:#181818;stroke-width:0.5;" width="162" x="1321" y="645"/><ellipse cx="1336" cy="661" fill="#ADD1B2" rx="11" ry="11" style="stroke:#181818;stroke-width:1.0;"/><path d="M1338.7656,656.875 Q1338.9219,656.6563 1339.1094,656.5469 Q1339.2969,656.4375 1339.5156,656.4375 Q1339.8906,656.4375 1340.125,656.7031 Q1340.3594,656.9531 1340.3594,657.5625 L1340.3594,659.0156 Q1340.3594,659.625 1340.125,659.8906 Q1339.8906,660.1563 1339.5156,660.1563 Q1339.1719,660.1563 1338.9688,659.9531 Q1338.7656,659.7656 1338.6563,659.25 Q1338.6094,658.8906 1338.4219,658.7031 Q1338.0938,658.3281 1337.4844,658.1094 Q1336.875,657.8906 1336.25,657.8906 Q1335.4844,657.8906 1334.8438,658.2188 Q1334.2188,658.5469 1333.7188,659.2969 Q1333.2344,660.0469 1333.2344,661.0781 L1333.2344,662.1719 Q1333.2344,663.4063 1334.125,664.2344 Q1335.0156,665.0469 1336.6094,665.0469 Q1337.5469,665.0469 1338.2031,664.7969 Q1338.5938,664.6406 1339.0156,664.2031 Q1339.2813,663.9375 1339.4219,663.8594 Q1339.5781,663.7813 1339.7813,663.7813 Q1340.1094,663.7813 1340.3594,664.0469 Q1340.625,664.2969 1340.625,664.6406 Q1340.625,664.9844 1340.2813,665.3906 Q1339.7813,665.9688 1338.9844,666.2969 Q1337.9063,666.75 1336.6094,666.75 Q1335.0938,666.75 1333.8906,666.125 Q1332.9063,665.625 1332.2188,664.5625 Q1331.5313,663.4844 1331.5313,662.2031 L1331.5313,661.0469 Q1331.5313,659.7188 1332.1406,658.5781 Q1332.7656,657.4219 1333.8594,656.8125 Q1334.9531,656.1875 1336.1875,656.1875 Q1336.9219,656.1875 1337.5625,656.3594 Q1338.2188,656.5156 1338.7656,656.875 Z " fill="#000000"/><text fill="#000000" font-family="sans-serif" font-size="14" lengthAdjust="spacing" textLength="130" x="1350" y="666.7969">EmployeeRepository</text><line style="stroke:#181818;stroke-width:0.5;" x1="1322" x2="1482" y1="677" y2="677"/><line style="stroke:#181818;stroke-width:0.5;" x1="1322" x2="1482" y1="685" y2="685"/><text fill="#000000" font-family="sans-serif" font-size="14" lengthAdjust="spacing" textLength="145" x="1327" y="704.1074">-EmployeeRepository()</text><text fill="#000000" font-family="sans-serif" font-size="14" lengthAdjust="spacing" textLength="109" x="1327" y="722.7285">+addJob(Job job)</text><text fill="#000000" font-family="sans-serif" font-size="14" lengthAdjust="spacing" textLength="104" x="1327" y="741.3496">+listEmployees()</text><text fill="#000000" font-family="sans-serif" font-size="14" lengthAdjust="spacing" textLength="112" x="1327" y="759.9707">+emailExists(mail)</text></g><!--class VehicleRepository--><g id="elem_VehicleRepository"><rect codeLine="73" fill="#F1F1F1" height="85.2422" id="VehicleRepository" rx="2.5" ry="2.5" style="stroke:#181818;stroke-width:0.5;" width="146" x="1547" y="1253"/><ellipse cx="1562" cy="1269" fill="#ADD1B2" rx="11" ry="11" style="stroke:#181818;stroke-width:1.0;"/><path d="M1564.7656,1264.875 Q1564.9219,1264.6563 1565.1094,1264.5469 Q1565.2969,1264.4375 1565.5156,1264.4375 Q1565.8906,1264.4375 1566.125,1264.7031 Q1566.3594,1264.9531 1566.3594,1265.5625 L1566.3594,1267.0156 Q1566.3594,1267.625 1566.125,1267.8906 Q1565.8906,1268.1563 1565.5156,1268.1563 Q1565.1719,1268.1563 1564.9688,1267.9531 Q1564.7656,1267.7656 1564.6563,1267.25 Q1564.6094,1266.8906 1564.4219,1266.7031 Q1564.0938,1266.3281 1563.4844,1266.1094 Q1562.875,1265.8906 1562.25,1265.8906 Q1561.4844,1265.8906 1560.8438,1266.2188 Q1560.2188,1266.5469 1559.7188,1267.2969 Q1559.2344,1268.0469 1559.2344,1269.0781 L1559.2344,1270.1719 Q1559.2344,1271.4063 1560.125,1272.2344 Q1561.0156,1273.0469 1562.6094,1273.0469 Q1563.5469,1273.0469 1564.2031,1272.7969 Q1564.5938,1272.6406 1565.0156,1272.2031 Q1565.2813,1271.9375 1565.4219,1271.8594 Q1565.5781,1271.7813 1565.7813,1271.7813 Q1566.1094,1271.7813 1566.3594,1272.0469 Q1566.625,1272.2969 1566.625,1272.6406 Q1566.625,1272.9844 1566.2813,1273.3906 Q1565.7813,1273.9688 1564.9844,1274.2969 Q1563.9063,1274.75 1562.6094,1274.75 Q1561.0938,1274.75 1559.8906,1274.125 Q1558.9063,1273.625 1558.2188,1272.5625 Q1557.5313,1271.4844 1557.5313,1270.2031 L1557.5313,1269.0469 Q1557.5313,1267.7188 1558.1406,1266.5781 Q1558.7656,1265.4219 1559.8594,1264.8125 Q1560.9531,1264.1875 1562.1875,1264.1875 Q1562.9219,1264.1875 1563.5625,1264.3594 Q1564.2188,1264.5156 1564.7656,1264.875 Z " fill="#000000"/><text fill="#000000" font-family="sans-serif" font-size="14" lengthAdjust="spacing" textLength="114" x="1576" y="1274.7969">VehicleRepository</text><line style="stroke:#181818;stroke-width:0.5;" x1="1548" x2="1692" y1="1285" y2="1285"/><line style="stroke:#181818;stroke-width:0.5;" x1="1548" x2="1692" y1="1293" y2="1293"/><text fill="#000000" font-family="sans-serif" font-size="14" lengthAdjust="spacing" textLength="129" x="1553" y="1312.1074">-VehicleRepository()</text><text fill="#000000" font-family="sans-serif" font-size="14" lengthAdjust="spacing" textLength="88" x="1553" y="1330.7285">+listVehicles()</text></g><!--class Task--><g id="elem_Task"><rect codeLine="79" fill="#F1F1F1" height="48" id="Task" rx="2.5" ry="2.5" style="stroke:#181818;stroke-width:0.5;" width="63" x="1889.5" y="995"/><ellipse cx="1904.5" cy="1011" fill="#ADD1B2" rx="11" ry="11" style="stroke:#181818;stroke-width:1.0;"/><path d="M1907.2656,1006.875 Q1907.4219,1006.6563 1907.6094,1006.5469 Q1907.7969,1006.4375 1908.0156,1006.4375 Q1908.3906,1006.4375 1908.625,1006.7031 Q1908.8594,1006.9531 1908.8594,1007.5625 L1908.8594,1009.0156 Q1908.8594,1009.625 1908.625,1009.8906 Q1908.3906,1010.1563 1908.0156,1010.1563 Q1907.6719,1010.1563 1907.4688,1009.9531 Q1907.2656,1009.7656 1907.1563,1009.25 Q1907.1094,1008.8906 1906.9219,1008.7031 Q1906.5938,1008.3281 1905.9844,1008.1094 Q1905.375,1007.8906 1904.75,1007.8906 Q1903.9844,1007.8906 1903.3438,1008.2188 Q1902.7188,1008.5469 1902.2188,1009.2969 Q1901.7344,1010.0469 1901.7344,1011.0781 L1901.7344,1012.1719 Q1901.7344,1013.4063 1902.625,1014.2344 Q1903.5156,1015.0469 1905.1094,1015.0469 Q1906.0469,1015.0469 1906.7031,1014.7969 Q1907.0938,1014.6406 1907.5156,1014.2031 Q1907.7813,1013.9375 1907.9219,1013.8594 Q1908.0781,1013.7813 1908.2813,1013.7813 Q1908.6094,1013.7813 1908.8594,1014.0469 Q1909.125,1014.2969 1909.125,1014.6406 Q1909.125,1014.9844 1908.7813,1015.3906 Q1908.2813,1015.9688 1907.4844,1016.2969 Q1906.4063,1016.75 1905.1094,1016.75 Q1903.5938,1016.75 1902.3906,1016.125 Q1901.4063,1015.625 1900.7188,1014.5625 Q1900.0313,1013.4844 1900.0313,1012.2031 L1900.0313,1011.0469 Q1900.0313,1009.7188 1900.6406,1008.5781 Q1901.2656,1007.4219 1902.3594,1006.8125 Q1903.4531,1006.1875 1904.6875,1006.1875 Q1905.4219,1006.1875 1906.0625,1006.3594 Q1906.7188,1006.5156 1907.2656,1006.875 Z " fill="#000000"/><text fill="#000000" font-family="sans-serif" font-size="14" lengthAdjust="spacing" textLength="31" x="1918.5" y="1016.7969">Task</text><line style="stroke:#181818;stroke-width:0.5;" x1="1890.5" x2="1951.5" y1="1027" y2="1027"/><line style="stroke:#181818;stroke-width:0.5;" x1="1890.5" x2="1951.5" y1="1035" y2="1035"/></g><!--class Tasks--><g id="elem_Tasks"><rect codeLine="81" fill="#F1F1F1" height="85.2422" id="Tasks" rx="2.5" ry="2.5" style="stroke:#181818;stroke-width:0.5;" width="446" x="1408" y="976.5"/><ellipse cx="1607.75" cy="992.5" fill="#ADD1B2" rx="11" ry="11" style="stroke:#181818;stroke-width:1.0;"/><path d="M1610.5156,988.375 Q1610.6719,988.1563 1610.8594,988.0469 Q1611.0469,987.9375 1611.2656,987.9375 Q1611.6406,987.9375 1611.875,988.2031 Q1612.1094,988.4531 1612.1094,989.0625 L1612.1094,990.5156 Q1612.1094,991.125 1611.875,991.3906 Q1611.6406,991.6563 1611.2656,991.6563 Q1610.9219,991.6563 1610.7188,991.4531 Q1610.5156,991.2656 1610.4063,990.75 Q1610.3594,990.3906 1610.1719,990.2031 Q1609.8438,989.8281 1609.2344,989.6094 Q1608.625,989.3906 1608,989.3906 Q1607.2344,989.3906 1606.5938,989.7188 Q1605.9688,990.0469 1605.4688,990.7969 Q1604.9844,991.5469 1604.9844,992.5781 L1604.9844,993.6719 Q1604.9844,994.9063 1605.875,995.7344 Q1606.7656,996.5469 1608.3594,996.5469 Q1609.2969,996.5469 1609.9531,996.2969 Q1610.3438,996.1406 1610.7656,995.7031 Q1611.0313,995.4375 1611.1719,995.3594 Q1611.3281,995.2813 1611.5313,995.2813 Q1611.8594,995.2813 1612.1094,995.5469 Q1612.375,995.7969 1612.375,996.1406 Q1612.375,996.4844 1612.0313,996.8906 Q1611.5313,997.4688 1610.7344,997.7969 Q1609.6563,998.25 1608.3594,998.25 Q1606.8438,998.25 1605.6406,997.625 Q1604.6563,997.125 1603.9688,996.0625 Q1603.2813,994.9844 1603.2813,993.7031 L1603.2813,992.5469 Q1603.2813,991.2188 1603.8906,990.0781 Q1604.5156,988.9219 1605.6094,988.3125 Q1606.7031,987.6875 1607.9375,987.6875 Q1608.6719,987.6875 1609.3125,987.8594 Q1609.9688,988.0156 1610.5156,988.375 Z " fill="#000000"/><text fill="#000000" font-family="sans-serif" font-size="14" lengthAdjust="spacing" textLength="38" x="1628.25" y="998.2969">Tasks</text><line style="stroke:#181818;stroke-width:0.5;" x1="1409" x2="1853" y1="1008.5" y2="1008.5"/><line style="stroke:#181818;stroke-width:0.5;" x1="1409" x2="1853" y1="1016.5" y2="1016.5"/><text fill="#000000" font-family="sans-serif" font-size="14" lengthAdjust="spacing" textLength="341" x="1414" y="1035.6074">+filterThisGsmTasksInAgenda(userEmail):List&lt;Tasks&gt;</text><text fill="#000000" font-family="sans-serif" font-size="14" lengthAdjust="spacing" textLength="434" x="1414" y="1054.2285">+filterVehiclesNotAssignedByDateOfTask(task, vehicles):List&lt;Tasks&gt;</text></g><!--class AddVehiclesToTaskController--><g id="elem_AddVehiclesToTaskController"><rect codeLine="88" fill="#F1F1F1" height="122.4844" id="AddVehiclesToTaskController" rx="2.5" ry="2.5" style="stroke:#181818;stroke-width:0.5;" width="789" x="480.5" y="21"/><ellipse cx="776.75" cy="37" fill="#ADD1B2" rx="11" ry="11" style="stroke:#181818;stroke-width:1.0;"/><path d="M779.5156,32.875 Q779.6719,32.6563 779.8594,32.5469 Q780.0469,32.4375 780.2656,32.4375 Q780.6406,32.4375 780.875,32.7031 Q781.1094,32.9531 781.1094,33.5625 L781.1094,35.0156 Q781.1094,35.625 780.875,35.8906 Q780.6406,36.1563 780.2656,36.1563 Q779.9219,36.1563 779.7188,35.9531 Q779.5156,35.7656 779.4063,35.25 Q779.3594,34.8906 779.1719,34.7031 Q778.8438,34.3281 778.2344,34.1094 Q777.625,33.8906 777,33.8906 Q776.2344,33.8906 775.5938,34.2188 Q774.9688,34.5469 774.4688,35.2969 Q773.9844,36.0469 773.9844,37.0781 L773.9844,38.1719 Q773.9844,39.4063 774.875,40.2344 Q775.7656,41.0469 777.3594,41.0469 Q778.2969,41.0469 778.9531,40.7969 Q779.3438,40.6406 779.7656,40.2031 Q780.0313,39.9375 780.1719,39.8594 Q780.3281,39.7813 780.5313,39.7813 Q780.8594,39.7813 781.1094,40.0469 Q781.375,40.2969 781.375,40.6406 Q781.375,40.9844 781.0313,41.3906 Q780.5313,41.9688 779.7344,42.2969 Q778.6563,42.75 777.3594,42.75 Q775.8438,42.75 774.6406,42.125 Q773.6563,41.625 772.9688,40.5625 Q772.2813,39.4844 772.2813,38.2031 L772.2813,37.0469 Q772.2813,35.7188 772.8906,34.5781 Q773.5156,33.4219 774.6094,32.8125 Q775.7031,32.1875 776.9375,32.1875 Q777.6719,32.1875 778.3125,32.3594 Q778.9688,32.5156 779.5156,32.875 Z " fill="#000000"/><text fill="#000000" font-family="sans-serif" font-size="14" lengthAdjust="spacing" textLength="188" x="797.25" y="42.7969">AddVehiclesToTaskController</text><line style="stroke:#181818;stroke-width:0.5;" x1="481.5" x2="1268.5" y1="53" y2="53"/><line style="stroke:#181818;stroke-width:0.5;" x1="481.5" x2="1268.5" y1="61" y2="61"/><text fill="#000000" font-family="sans-serif" font-size="14" lengthAdjust="spacing" textLength="777" x="486.5" y="80.1074">-AddVehiclesToTaskController(AuthenticationRepository, OrganizationRepository, EmployeeRepository, VehicleRepository)</text><text fill="#000000" font-family="sans-serif" font-size="14" lengthAdjust="spacing" textLength="189" x="486.5" y="98.7285">+listThisGsmTasksInAgenda()</text><text fill="#000000" font-family="sans-serif" font-size="14" lengthAdjust="spacing" textLength="266" x="486.5" y="117.3496">+listVehiclesNotAssignedByDateOfTasks()</text><text fill="#000000" font-family="sans-serif" font-size="14" lengthAdjust="spacing" textLength="231" x="486.5" y="135.9707">+updateTaskVehicles(task, vehicles)</text></g><g id="elem_GMN13"><path d="M6,59.5 L6,104.082 L240,104.082 L240,69.5 L230,59.5 L6,59.5 " fill="#FEFFDD" style="stroke:#181818;stroke-width:0.5;"/><path d="M230,59.5 L230,69.5 L240,69.5 L230,59.5 " fill="#FEFFDD" style="stroke:#181818;stroke-width:1.0;"/><text fill="#000000" font-family="sans-serif" font-size="13" lengthAdjust="spacing" textLength="213" x="12" y="78.5283">- userEmail and userRole is obtained</text><text fill="#000000" font-family="sans-serif" font-size="13" lengthAdjust="spacing" textLength="129" x="12" y="95.8193">from the user session.</text></g><!--class AddVehiclesToTaskUI--><g id="elem_AddVehiclesToTaskUI"><rect codeLine="101" fill="#F1F1F1" height="48" id="AddVehiclesToTaskUI" rx="2.5" ry="2.5" style="stroke:#181818;stroke-width:0.5;" width="170" x="275" y="58"/><ellipse cx="290" cy="74" fill="#ADD1B2" rx="11" ry="11" style="stroke:#181818;stroke-width:1.0;"/><path d="M292.7656,69.875 Q292.9219,69.6563 293.1094,69.5469 Q293.2969,69.4375 293.5156,69.4375 Q293.8906,69.4375 294.125,69.7031 Q294.3594,69.9531 294.3594,70.5625 L294.3594,72.0156 Q294.3594,72.625 294.125,72.8906 Q293.8906,73.1563 293.5156,73.1563 Q293.1719,73.1563 292.9688,72.9531 Q292.7656,72.7656 292.6563,72.25 Q292.6094,71.8906 292.4219,71.7031 Q292.0938,71.3281 291.4844,71.1094 Q290.875,70.8906 290.25,70.8906 Q289.4844,70.8906 288.8438,71.2188 Q288.2188,71.5469 287.7188,72.2969 Q287.2344,73.0469 287.2344,74.0781 L287.2344,75.1719 Q287.2344,76.4063 288.125,77.2344 Q289.0156,78.0469 290.6094,78.0469 Q291.5469,78.0469 292.2031,77.7969 Q292.5938,77.6406 293.0156,77.2031 Q293.2813,76.9375 293.4219,76.8594 Q293.5781,76.7813 293.7813,76.7813 Q294.1094,76.7813 294.3594,77.0469 Q294.625,77.2969 294.625,77.6406 Q294.625,77.9844 294.2813,78.3906 Q293.7813,78.9688 292.9844,79.2969 Q291.9063,79.75 290.6094,79.75 Q289.0938,79.75 287.8906,79.125 Q286.9063,78.625 286.2188,77.5625 Q285.5313,76.4844 285.5313,75.2031 L285.5313,74.0469 Q285.5313,72.7188 286.1406,71.5781 Q286.7656,70.4219 287.8594,69.8125 Q288.9531,69.1875 290.1875,69.1875 Q290.9219,69.1875 291.5625,69.3594 Q292.2188,69.5156 292.7656,69.875 Z " fill="#000000"/><text fill="#000000" font-family="sans-serif" font-size="14" lengthAdjust="spacing" textLength="138" x="304" y="79.7969">AddVehiclesToTaskUI</text><line style="stroke:#181818;stroke-width:0.5;" x1="276" x2="444" y1="90" y2="90"/><line style="stroke:#181818;stroke-width:0.5;" x1="276" x2="444" y1="98" y2="98"/></g><!--link GMN13 to AddVehiclesToTaskController--><g id="link_GMN13_AddVehiclesToTaskController"><path d="M168.04,59.4 C212.7,37 274.5,6 274.5,6 C274.5,6 444.5,6 444.5,6 C444.5,6 479.39,12.16 529.3,20.97 " fill="none" id="GMN13-AddVehiclesToTaskController" style="stroke:#181818;stroke-width:1.0;stroke-dasharray:7.0,7.0;"/></g><!--link AddVehiclesToTaskUI to AddVehiclesToTaskController--><g id="link_AddVehiclesToTaskUI_AddVehiclesToTaskController"><path codeLine="104" d="M445.08,82 C457.05,82 463.04,82 474.12,82 " fill="none" id="AddVehiclesToTaskUI-to-AddVehiclesToTaskController" style="stroke:#181818;stroke-width:1.0;stroke-dasharray:7.0,7.0;"/><polygon fill="#181818" points="480.12,82,471.12,78,475.12,82,471.12,86,480.12,82" style="stroke:#181818;stroke-width:1.0;"/></g><!--link AddVehiclesToTaskController to Repositories--><g id="link_AddVehiclesToTaskController_Repositories"><path codeLine="106" d="M1269.83,82 C1307.17,82 1336.37,82 1366.8,82 " fill="none" id="AddVehiclesToTaskController-to-Repositories" style="stroke:#181818;stroke-width:1.0;stroke-dasharray:7.0,7.0;"/><polygon fill="#181818" points="1372.8,82,1363.8,78,1367.8,82,1363.8,86,1372.8,82" style="stroke:#181818;stroke-width:1.0;"/><text fill="#000000" font-family="sans-serif" font-size="13" lengthAdjust="spacing" textLength="67" x="1287.75" y="75.0283">repositories</text></g><!--link AddVehiclesToTaskController to AuthenticationRepository--><g id="link_AddVehiclesToTaskController_AuthenticationRepository"><path codeLine="107" d="M875,143.05 C875,166.55 875,186.61 875,206.56 " fill="none" id="AddVehiclesToTaskController-to-AuthenticationRepository" style="stroke:#181818;stroke-width:1.0;stroke-dasharray:7.0,7.0;"/><polygon fill="#181818" points="875,212.56,879,203.56,875,207.56,871,203.56,875,212.56" style="stroke:#181818;stroke-width:1.0;"/></g><!--link Repositories to Repositories--><g id="link_Repositories_Repositories"><path codeLine="109" d="M1581.26,65.88 C1601.58,67.75 1616,73.12 1616,82 C1616,90.88 1607.5548,95.7002 1587.2348,97.5702 " fill="none" id="Repositories-to-Repositories" style="stroke:#181818;stroke-width:1.0;"/><polygon fill="#181818" points="1581.26,98.12,1590.5887,101.2784,1586.239,97.6618,1589.8556,93.3121,1581.26,98.12" style="stroke:#181818;stroke-width:1.0;"/><text fill="#000000" font-family="sans-serif" font-size="13" lengthAdjust="spacing" textLength="49" x="1622" y="87.5283">instance</text></g><!--link Repositories to AuthenticationRepository--><g id="link_Repositories_AuthenticationRepository"><path codeLine="110" d="M1372.83,115.9 C1328.57,129.87 1287,143 1287,143 C1287,143 1097.5324,190.131 975.8624,220.411 " fill="none" id="Repositories-to-AuthenticationRepository" style="stroke:#181818;stroke-width:1.0;"/><polygon fill="#181818" points="970.04,221.86,979.7396,223.5681,974.892,220.6525,977.8076,215.8049,970.04,221.86" style="stroke:#181818;stroke-width:1.0;"/><text fill="#000000" font-family="sans-serif" font-size="13" lengthAdjust="spacing" textLength="7" x="977.8924" y="216.2742">1</text></g><!--link Repositories to EmployeeRepository--><g id="link_Repositories_EmployeeRepository"><path codeLine="111" d="M1502.35,143.15 C1515.15,173.51 1528,204 1528,204 C1528,204 1528,289 1528,289 C1528,289 1527,584 1527,584 C1527,584 1499.8221,610.318 1468.4421,640.678 " fill="none" id="Repositories-to-EmployeeRepository" style="stroke:#181818;stroke-width:1.0;"/><polygon fill="#181818" points="1464.13,644.85,1473.3795,641.4668,1467.7235,641.3734,1467.8169,635.7173,1464.13,644.85" style="stroke:#181818;stroke-width:1.0;"/><text fill="#000000" font-family="sans-serif" font-size="13" lengthAdjust="spacing" textLength="7" x="1463.9091" y="633.8139">1</text></g><!--link Repositories to VehicleRepository--><g id="link_Repositories_VehicleRepository"><path codeLine="112" d="M1581.2,115.01 C1735.31,162.35 2006,245.5 2006,245.5 C2006,245.5 2006,245.5 2006,1020 C2006,1020 1970,1192 1970,1192 C1970,1192 1801.7582,1241.274 1699.1282,1271.324 " fill="none" id="Repositories-to-VehicleRepository" style="stroke:#181818;stroke-width:1.0;"/><polygon fill="#181818" points="1693.37,1273.01,1703.1314,1274.3198,1698.1685,1271.605,1700.8834,1266.6422,1693.37,1273.01" style="stroke:#181818;stroke-width:1.0;"/><text fill="#000000" font-family="sans-serif" font-size="13" lengthAdjust="spacing" textLength="7" x="1700.9369" y="1266.9901">1</text></g><!--link Repositories to OrganizationRepository--><g id="link_Repositories_OrganizationRepository"><path codeLine="113" d="M1444.48,143.05 C1431.75,166.55 1420.4964,187.3336 1409.6964,207.2836 " fill="none" id="Repositories-to-OrganizationRepository" style="stroke:#181818;stroke-width:1.0;"/><polygon fill="#181818" points="1406.84,212.56,1414.6423,206.5496,1409.2204,208.163,1407.607,202.7411,1406.84,212.56" style="stroke:#181818;stroke-width:1.0;"/><text fill="#000000" font-family="sans-serif" font-size="13" lengthAdjust="spacing" textLength="7" x="1402.4839" y="201.8252">1</text></g><!--link OrganizationRepository to Organization--><g id="link_OrganizationRepository_Organization"><path codeLine="114" d="M1372.95,280.1 C1361.52,303.32 1348.0995,330.5667 1332.3795,362.5067 " fill="none" id="OrganizationRepository-to-Organization" style="stroke:#181818;stroke-width:1.0;"/><polygon fill="#181818" points="1329.73,367.89,1337.2932,361.5814,1331.9379,363.4039,1330.1154,358.0487,1329.73,367.89" style="stroke:#181818;stroke-width:1.0;"/><text fill="#000000" font-family="sans-serif" font-size="13" lengthAdjust="spacing" textLength="77" x="1353" y="334.0283">organizations</text><text fill="#000000" font-family="sans-serif" font-size="13" lengthAdjust="spacing" textLength="5" x="1328.2618" y="356.7438">*</text></g><!--link Organization to EmployeeRepository--><g id="link_Organization_EmployeeRepository"><path codeLine="115" d="M1335.84,584.32 C1347.24,605.11 1355.9162,620.9385 1366.1162,639.5485 " fill="none" id="Organization-to-EmployeeRepository" style="stroke:#181818;stroke-width:1.0;"/><polygon fill="#181818" points="1369,644.81,1368.182,634.9952,1366.5968,640.4254,1361.1666,638.8402,1369,644.81" style="stroke:#181818;stroke-width:1.0;"/><text fill="#000000" font-family="sans-serif" font-size="13" lengthAdjust="spacing" textLength="7" x="1332.2123" y="605.4884">1</text><text fill="#000000" font-family="sans-serif" font-size="13" lengthAdjust="spacing" textLength="7" x="1357.7797" y="633.7692">1</text></g><!--link Organization to Employee--><g id="link_Organization_Employee"><path codeLine="116" d="M1261.66,584.35 C1256.96,617.27 1253,645 1253,645 C1253,645 1248.3092,742.157 1243.5892,839.977 " fill="none" id="Organization-to-Employee" style="stroke:#181818;stroke-width:1.0;"/><polygon fill="#181818" points="1243.3,845.97,1247.7291,837.1732,1243.541,840.9758,1239.7384,836.7877,1243.3,845.97" style="stroke:#181818;stroke-width:1.0;"/><text fill="#000000" font-family="sans-serif" font-size="13" lengthAdjust="spacing" textLength="49" x="1254" y="711.5283">employs</text><text fill="#000000" font-family="sans-serif" font-size="13" lengthAdjust="spacing" textLength="7" x="1253.5119" y="605.5202">1</text><text fill="#000000" font-family="sans-serif" font-size="13" lengthAdjust="spacing" textLength="5" x="1238.5628" y="834.7808">*</text></g><!--link AuthenticationRepository to UserSession--><g id="link_AuthenticationRepository_UserSession"><path codeLine="118" d="M970.19,246.5 C1004.91,246.5 1037.74,246.5 1070.81,246.5 " fill="none" id="AuthenticationRepository-to-UserSession" style="stroke:#181818;stroke-width:1.0;"/><polygon fill="#181818" points="1076.81,246.5,1067.81,242.5,1071.81,246.5,1067.81,250.5,1076.81,246.5" style="stroke:#181818;stroke-width:1.0;"/><text fill="#000000" font-family="sans-serif" font-size="13" lengthAdjust="spacing" textLength="70" x="988.5" y="239.5283">usersession</text><text fill="#000000" font-family="sans-serif" font-size="13" lengthAdjust="spacing" textLength="7" x="1062.0239" y="242.7205">1</text></g><!--link EmployeeRepository to Employee--><g id="link_EmployeeRepository_Employee"><path codeLine="122" d="M1369.6,767.33 C1357.27,790.3 1345.3703,812.4749 1330.2203,840.6649 " fill="none" id="EmployeeRepository-to-Employee" style="stroke:#181818;stroke-width:1.0;"/><polygon fill="#181818" points="1327.38,845.95,1335.1639,839.9159,1329.747,841.5457,1328.1171,836.1288,1327.38,845.95" style="stroke:#181818;stroke-width:1.0;"/><text fill="#000000" font-family="sans-serif" font-size="13" lengthAdjust="spacing" textLength="64" x="1353" y="812.0283">aggregates</text><text fill="#000000" font-family="sans-serif" font-size="13" lengthAdjust="spacing" textLength="7" x="1358.4491" y="789.4212">1</text><text fill="#000000" font-family="sans-serif" font-size="13" lengthAdjust="spacing" textLength="5" x="1326.4527" y="834.7598">*</text></g><!--link Employee to VehicleRepository--><g id="link_Employee_VehicleRepository"><path codeLine="124" d="M1373.1,1172.27 C1384.06,1184.35 1391,1192 1391,1192 C1391,1192 1474.4136,1229.3386 1541.4336,1259.3386 " fill="none" id="Employee-to-VehicleRepository" style="stroke:#181818;stroke-width:1.0;"/><polygon fill="#181818" points="1546.91,1261.79,1540.3297,1254.462,1542.3463,1259.7472,1537.0612,1261.7639,1546.91,1261.79" style="stroke:#181818;stroke-width:1.0;"/><text fill="#000000" font-family="sans-serif" font-size="13" lengthAdjust="spacing" textLength="7" x="1380.8438" y="1177.2251">1</text><text fill="#000000" font-family="sans-serif" font-size="13" lengthAdjust="spacing" textLength="7" x="1532.0117" y="1254.4679">1</text></g><!--link Employee to Tasks--><g id="link_Employee_Tasks"><path codeLine="126" d="M1373.01,1019 C1380.18,1019 1387.06,1019 1401.93,1019 " fill="none" id="Employee-to-Tasks" style="stroke:#181818;stroke-width:1.0;"/><polygon fill="#181818" points="1407.93,1019,1398.93,1015,1402.93,1019,1398.93,1023,1407.93,1019" style="stroke:#181818;stroke-width:1.0;"/><text fill="#000000" font-family="sans-serif" font-size="13" lengthAdjust="spacing" textLength="7" x="1381.191" y="1015.5471">1</text><text fill="#000000" font-family="sans-serif" font-size="13" lengthAdjust="spacing" textLength="7" x="1392.7876" y="1015.7237">1</text></g><!--link Tasks to Task--><g id="link_Tasks_Task"><path codeLine="127" d="M1854.13,1019 C1865.33,1019 1872.1,1019 1883.46,1019 " fill="none" id="Tasks-to-Task" style="stroke:#181818;stroke-width:1.0;"/><polygon fill="#181818" points="1889.46,1019,1880.46,1015,1884.46,1019,1880.46,1023,1889.46,1019" style="stroke:#181818;stroke-width:1.0;"/><text fill="#000000" font-family="sans-serif" font-size="13" lengthAdjust="spacing" textLength="7" x="1862.2745" y="1015.7237">1</text><text fill="#000000" font-family="sans-serif" font-size="13" lengthAdjust="spacing" textLength="5" x="1876.5883" y="1014.0963">*</text></g><!--SRC=[ZLRVJzim47xFNs7jXG05RQzeGYe5JPqGJBHipsvyJRmwTcIxG43xttTEdCHfacuyHFZkkr_VdNqzCJik2wffJd8bLP9fbGEnUWzHfobeigCfh6mfW6X8B9Mf204ceqozSfcIBHKcr0WkmPO5a4A9qXsYan6bqbP5WLKYg35pQpNVx2qi4oLN_1t8voWw4R2rn2gYUPfPmhXBXoiPHPKDcUzj1jBoX3hf4nJASAjq6Nr41F_EIGfsiTSQCSy6z0gCGLny6lrfF0JYreYRUvMcm9Ro5xVPanA05gq_Px5ajG_lf0tCmP3QoqLF6DelfK564_H9hdgW3Z9LLkZc9sGy4M1wshQiHvrIoTyFx4b0IuYuALrHTpdb8WRtdV3KrhR2Nc7x9SsXBtcXzc6VRq3tnKMcv06oYkD5SyOqzW2d1gaH_kHrbB7LZWiH6_SzzT8NAZYZ5WQgyrx2iSjmrcKr8w-mMN6BiYgbMPt6h1-v2UARVLFscEcekSiBeKg08xJSOevamxNDNBQXaBASLsD70iqn8lwFIYzQtXAc4kAksvXYd-Du4JdIgJLzAsW96e5UyLrjo6-ryUmkL8wN5jOgHkGFXrpUDiml1ARMpgXLjSjMa56pphYfoQovh1NOukV2iS3MrEoQmOuj7h1t_jY0cyuxw00oQ4qt-xv7GqMJ7sQ1fSQ-N2yKtDZ6fBt55TztRwWoyS5jySaFmWxaSH2WhJWSBbVVH-za_EtTSc51Eog_cRnIBEKy1Sbel6-kyUdLFJh-McclGxCcreEoSno_L0AxATr0Fcx76EsvSGzUy_0ordXQAwTUA6cr4W8dvwCRvYbCFFN2pIPUhjb8HsT3jfiXSQoE4XG2_a55zsZlYsRW9cSJgP4ARtMrhzJsMEsUdRPLX4fMdToYmTr3rCPIN9Mi0cvnGnFaga8GKs-gomYB8IxWT4EUbzW8J6jCSNbzDC7eM7VHjhVkhl0dGh33ZfYwg5FxEkhvl1Z4u7vf7k0G-EdBfscte-ZX98tZ1jCr3XiVs6XY0rTMPtqhh4y5HzEphM8SINqSUzPXqJjK_nfix0HHnFiFVWsXcHivFt7kvW-3JyMZQQeXnJjZEgjU7KDg3t0rhBg6KVLjnMUrs2Nq5m00]--></g></svg>