<?xml version="1.0" encoding="us-ascii" standalone="no"?><svg xmlns="http://www.w3.org/2000/svg" xmlns:xlink="http://www.w3.org/1999/xlink" contentStyleType="text/css" height="735px" preserveAspectRatio="none" style="width:1530px;height:735px;background:#FFFFFF;" version="1.1" viewBox="0 0 1530 735" width="1530px" zoomAndPan="magnify"><defs/><g><!--class AuthenticationRepository--><g id="elem_AuthenticationRepository"><rect codeLine="11" fill="#F1F1F1" height="65.6094" id="AuthenticationRepository" rx="2.5" ry="2.5" style="stroke:#181818;stroke-width:0.5;" width="190" x="682" y="208.5"/><ellipse cx="697" cy="224.5" fill="#ADD1B2" rx="11" ry="11" style="stroke:#181818;stroke-width:1.0;"/><path d="M699.7656,220.375 Q699.9219,220.1563 700.1094,220.0469 Q700.2969,219.9375 700.5156,219.9375 Q700.8906,219.9375 701.125,220.2031 Q701.3594,220.4531 701.3594,221.0625 L701.3594,222.5156 Q701.3594,223.125 701.125,223.3906 Q700.8906,223.6563 700.5156,223.6563 Q700.1719,223.6563 699.9688,223.4531 Q699.7656,223.2656 699.6563,222.75 Q699.6094,222.3906 699.4219,222.2031 Q699.0938,221.8281 698.4844,221.6094 Q697.875,221.3906 697.25,221.3906 Q696.4844,221.3906 695.8438,221.7188 Q695.2188,222.0469 694.7188,222.7969 Q694.2344,223.5469 694.2344,224.5781 L694.2344,225.6719 Q694.2344,226.9063 695.125,227.7344 Q696.0156,228.5469 697.6094,228.5469 Q698.5469,228.5469 699.2031,228.2969 Q699.5938,228.1406 700.0156,227.7031 Q700.2813,227.4375 700.4219,227.3594 Q700.5781,227.2813 700.7813,227.2813 Q701.1094,227.2813 701.3594,227.5469 Q701.625,227.7969 701.625,228.1406 Q701.625,228.4844 701.2813,228.8906 Q700.7813,229.4688 699.9844,229.7969 Q698.9063,230.25 697.6094,230.25 Q696.0938,230.25 694.8906,229.625 Q693.9063,229.125 693.2188,228.0625 Q692.5313,226.9844 692.5313,225.7031 L692.5313,224.5469 Q692.5313,223.2188 693.1406,222.0781 Q693.7656,220.9219 694.8594,220.3125 Q695.9531,219.6875 697.1875,219.6875 Q697.9219,219.6875 698.5625,219.8594 Q699.2188,220.0156 699.7656,220.375 Z " fill="#000000"/><text fill="#000000" font-family="sans-serif" font-size="14" lengthAdjust="spacing" textLength="158" x="711" y="230.2285">AuthenticationRepository</text><line style="stroke:#181818;stroke-width:0.5;" x1="683" x2="871" y1="240.5" y2="240.5"/><line style="stroke:#181818;stroke-width:0.5;" x1="683" x2="871" y1="248.5" y2="248.5"/><text fill="#000000" font-family="sans-serif" font-size="14" lengthAdjust="spacing" textLength="165" x="688" y="267.0332">+getCurrentUserSession()</text></g><!--class UserSession--><g id="elem_UserSession"><rect codeLine="16" fill="#F1F1F1" height="83.2188" id="UserSession" rx="2.5" ry="2.5" style="stroke:#181818;stroke-width:0.5;" width="156" x="979" y="200"/><ellipse cx="1014.25" cy="216" fill="#ADD1B2" rx="11" ry="11" style="stroke:#181818;stroke-width:1.0;"/><path d="M1017.0156,211.875 Q1017.1719,211.6563 1017.3594,211.5469 Q1017.5469,211.4375 1017.7656,211.4375 Q1018.1406,211.4375 1018.375,211.7031 Q1018.6094,211.9531 1018.6094,212.5625 L1018.6094,214.0156 Q1018.6094,214.625 1018.375,214.8906 Q1018.1406,215.1563 1017.7656,215.1563 Q1017.4219,215.1563 1017.2188,214.9531 Q1017.0156,214.7656 1016.9063,214.25 Q1016.8594,213.8906 1016.6719,213.7031 Q1016.3438,213.3281 1015.7344,213.1094 Q1015.125,212.8906 1014.5,212.8906 Q1013.7344,212.8906 1013.0938,213.2188 Q1012.4688,213.5469 1011.9688,214.2969 Q1011.4844,215.0469 1011.4844,216.0781 L1011.4844,217.1719 Q1011.4844,218.4063 1012.375,219.2344 Q1013.2656,220.0469 1014.8594,220.0469 Q1015.7969,220.0469 1016.4531,219.7969 Q1016.8438,219.6406 1017.2656,219.2031 Q1017.5313,218.9375 1017.6719,218.8594 Q1017.8281,218.7813 1018.0313,218.7813 Q1018.3594,218.7813 1018.6094,219.0469 Q1018.875,219.2969 1018.875,219.6406 Q1018.875,219.9844 1018.5313,220.3906 Q1018.0313,220.9688 1017.2344,221.2969 Q1016.1563,221.75 1014.8594,221.75 Q1013.3438,221.75 1012.1406,221.125 Q1011.1563,220.625 1010.4688,219.5625 Q1009.7813,218.4844 1009.7813,217.2031 L1009.7813,216.0469 Q1009.7813,214.7188 1010.3906,213.5781 Q1011.0156,212.4219 1012.1094,211.8125 Q1013.2031,211.1875 1014.4375,211.1875 Q1015.1719,211.1875 1015.8125,211.3594 Q1016.4688,211.5156 1017.0156,211.875 Z " fill="#000000"/><text fill="#000000" font-family="sans-serif" font-size="14" lengthAdjust="spacing" textLength="79" x="1032.75" y="221.7285">UserSession</text><line style="stroke:#181818;stroke-width:0.5;" x1="980" x2="1134" y1="232" y2="232"/><line style="stroke:#181818;stroke-width:0.5;" x1="980" x2="1134" y1="240" y2="240"/><text fill="#000000" font-family="sans-serif" font-size="14" lengthAdjust="spacing" textLength="144" x="985" y="258.5332">+isLoggedInWithRole()</text><text fill="#000000" font-family="sans-serif" font-size="14" lengthAdjust="spacing" textLength="78" x="985" y="276.1426">+getUserId()</text></g><!--class Job--><g id="elem_Job"><rect codeLine="24" fill="#F1F1F1" height="65.6094" id="Job" rx="2.5" ry="2.5" style="stroke:#181818;stroke-width:0.5;" width="113" x="1234.5" y="663"/><ellipse cx="1276.05" cy="679" fill="#ADD1B2" rx="11" ry="11" style="stroke:#181818;stroke-width:1.0;"/><path d="M1278.8156,674.875 Q1278.9719,674.6563 1279.1594,674.5469 Q1279.3469,674.4375 1279.5656,674.4375 Q1279.9406,674.4375 1280.175,674.7031 Q1280.4094,674.9531 1280.4094,675.5625 L1280.4094,677.0156 Q1280.4094,677.625 1280.175,677.8906 Q1279.9406,678.1563 1279.5656,678.1563 Q1279.2219,678.1563 1279.0188,677.9531 Q1278.8156,677.7656 1278.7063,677.25 Q1278.6594,676.8906 1278.4719,676.7031 Q1278.1438,676.3281 1277.5344,676.1094 Q1276.925,675.8906 1276.3,675.8906 Q1275.5344,675.8906 1274.8938,676.2188 Q1274.2688,676.5469 1273.7688,677.2969 Q1273.2844,678.0469 1273.2844,679.0781 L1273.2844,680.1719 Q1273.2844,681.4063 1274.175,682.2344 Q1275.0656,683.0469 1276.6594,683.0469 Q1277.5969,683.0469 1278.2531,682.7969 Q1278.6438,682.6406 1279.0656,682.2031 Q1279.3313,681.9375 1279.4719,681.8594 Q1279.6281,681.7813 1279.8313,681.7813 Q1280.1594,681.7813 1280.4094,682.0469 Q1280.675,682.2969 1280.675,682.6406 Q1280.675,682.9844 1280.3313,683.3906 Q1279.8313,683.9688 1279.0344,684.2969 Q1277.9563,684.75 1276.6594,684.75 Q1275.1438,684.75 1273.9406,684.125 Q1272.9563,683.625 1272.2688,682.5625 Q1271.5813,681.4844 1271.5813,680.2031 L1271.5813,679.0469 Q1271.5813,677.7188 1272.1906,676.5781 Q1272.8156,675.4219 1273.9094,674.8125 Q1275.0031,674.1875 1276.2375,674.1875 Q1276.9719,674.1875 1277.6125,674.3594 Q1278.2688,674.5156 1278.8156,674.875 Z " fill="#000000"/><text fill="#000000" font-family="sans-serif" font-size="14" lengthAdjust="spacing" textLength="22" x="1295.95" y="684.7285">Job</text><line style="stroke:#181818;stroke-width:0.5;" x1="1235.5" x2="1346.5" y1="695" y2="695"/><text fill="#000000" font-family="sans-serif" font-size="14" lengthAdjust="spacing" textLength="101" x="1240.5" y="713.5332">-String jobName</text><line style="stroke:#181818;stroke-width:0.5;" x1="1235.5" x2="1346.5" y1="720.6094" y2="720.6094"/></g><!--class Organization--><g id="elem_Organization"><rect codeLine="30" fill="#F1F1F1" height="224.0938" id="Organization" rx="2.5" ry="2.5" style="stroke:#181818;stroke-width:0.5;" width="465" x="1058.5" y="361"/><ellipse cx="1246.75" cy="377" fill="#ADD1B2" rx="11" ry="11" style="stroke:#181818;stroke-width:1.0;"/><path d="M1249.5156,372.875 Q1249.6719,372.6563 1249.8594,372.5469 Q1250.0469,372.4375 1250.2656,372.4375 Q1250.6406,372.4375 1250.875,372.7031 Q1251.1094,372.9531 1251.1094,373.5625 L1251.1094,375.0156 Q1251.1094,375.625 1250.875,375.8906 Q1250.6406,376.1563 1250.2656,376.1563 Q1249.9219,376.1563 1249.7188,375.9531 Q1249.5156,375.7656 1249.4063,375.25 Q1249.3594,374.8906 1249.1719,374.7031 Q1248.8438,374.3281 1248.2344,374.1094 Q1247.625,373.8906 1247,373.8906 Q1246.2344,373.8906 1245.5938,374.2188 Q1244.9688,374.5469 1244.4688,375.2969 Q1243.9844,376.0469 1243.9844,377.0781 L1243.9844,378.1719 Q1243.9844,379.4063 1244.875,380.2344 Q1245.7656,381.0469 1247.3594,381.0469 Q1248.2969,381.0469 1248.9531,380.7969 Q1249.3438,380.6406 1249.7656,380.2031 Q1250.0313,379.9375 1250.1719,379.8594 Q1250.3281,379.7813 1250.5313,379.7813 Q1250.8594,379.7813 1251.1094,380.0469 Q1251.375,380.2969 1251.375,380.6406 Q1251.375,380.9844 1251.0313,381.3906 Q1250.5313,381.9688 1249.7344,382.2969 Q1248.6563,382.75 1247.3594,382.75 Q1245.8438,382.75 1244.6406,382.125 Q1243.6563,381.625 1242.9688,380.5625 Q1242.2813,379.4844 1242.2813,378.2031 L1242.2813,377.0469 Q1242.2813,375.7188 1242.8906,374.5781 Q1243.5156,373.4219 1244.6094,372.8125 Q1245.7031,372.1875 1246.9375,372.1875 Q1247.6719,372.1875 1248.3125,372.3594 Q1248.9688,372.5156 1249.5156,372.875 Z " fill="#000000"/><text fill="#000000" font-family="sans-serif" font-size="14" lengthAdjust="spacing" textLength="80" x="1267.25" y="382.7285">Organization</text><line style="stroke:#181818;stroke-width:0.5;" x1="1059.5" x2="1522.5" y1="393" y2="393"/><text fill="#000000" font-family="sans-serif" font-size="14" lengthAdjust="spacing" textLength="81" x="1064.5" y="411.5332">-String name</text><text fill="#000000" font-family="sans-serif" font-size="14" lengthAdjust="spacing" textLength="114" x="1064.5" y="429.1426">-String vatNumber</text><text fill="#000000" font-family="sans-serif" font-size="14" lengthAdjust="spacing" textLength="86" x="1064.5" y="446.752">-String phone</text><text fill="#000000" font-family="sans-serif" font-size="14" lengthAdjust="spacing" textLength="79" x="1064.5" y="464.3613">-String email</text><text fill="#000000" font-family="sans-serif" font-size="14" lengthAdjust="spacing" textLength="151" x="1064.5" y="481.9707">-Address postalAddress</text><line style="stroke:#181818;stroke-width:0.5;" x1="1059.5" x2="1522.5" y1="489.0469" y2="489.0469"/><text fill="#000000" font-family="sans-serif" font-size="14" lengthAdjust="spacing" textLength="80" x="1064.5" y="507.5801">-addJob(job)</text><text fill="#000000" font-family="sans-serif" font-size="14" lengthAdjust="spacing" textLength="105" x="1064.5" y="525.1895">-validateJob(job)</text><text fill="#000000" font-family="sans-serif" font-size="14" lengthAdjust="spacing" textLength="453" x="1064.5" y="542.7988">+Organization(name, vatNumber, webSite, phone, email, postalAddress)</text><text fill="#000000" font-family="sans-serif" font-size="14" lengthAdjust="spacing" textLength="99" x="1064.5" y="560.4082">+createJob(job)</text><text fill="#000000" font-family="sans-serif" font-size="14" lengthAdjust="spacing" textLength="147" x="1064.5" y="578.0176">-getUserByEmail(email)</text></g><!--class OrganizationRepository--><g id="elem_OrganizationRepository"><rect codeLine="45" fill="#F1F1F1" height="65.6094" id="OrganizationRepository" rx="2.5" ry="2.5" style="stroke:#181818;stroke-width:0.5;" width="242" x="1170" y="208.5"/><ellipse cx="1212.9" cy="224.5" fill="#ADD1B2" rx="11" ry="11" style="stroke:#181818;stroke-width:1.0;"/><path d="M1215.6656,220.375 Q1215.8219,220.1563 1216.0094,220.0469 Q1216.1969,219.9375 1216.4156,219.9375 Q1216.7906,219.9375 1217.025,220.2031 Q1217.2594,220.4531 1217.2594,221.0625 L1217.2594,222.5156 Q1217.2594,223.125 1217.025,223.3906 Q1216.7906,223.6563 1216.4156,223.6563 Q1216.0719,223.6563 1215.8688,223.4531 Q1215.6656,223.2656 1215.5563,222.75 Q1215.5094,222.3906 1215.3219,222.2031 Q1214.9938,221.8281 1214.3844,221.6094 Q1213.775,221.3906 1213.15,221.3906 Q1212.3844,221.3906 1211.7438,221.7188 Q1211.1188,222.0469 1210.6188,222.7969 Q1210.1344,223.5469 1210.1344,224.5781 L1210.1344,225.6719 Q1210.1344,226.9063 1211.025,227.7344 Q1211.9156,228.5469 1213.5094,228.5469 Q1214.4469,228.5469 1215.1031,228.2969 Q1215.4938,228.1406 1215.9156,227.7031 Q1216.1813,227.4375 1216.3219,227.3594 Q1216.4781,227.2813 1216.6813,227.2813 Q1217.0094,227.2813 1217.2594,227.5469 Q1217.525,227.7969 1217.525,228.1406 Q1217.525,228.4844 1217.1813,228.8906 Q1216.6813,229.4688 1215.8844,229.7969 Q1214.8063,230.25 1213.5094,230.25 Q1211.9938,230.25 1210.7906,229.625 Q1209.8063,229.125 1209.1188,228.0625 Q1208.4313,226.9844 1208.4313,225.7031 L1208.4313,224.5469 Q1208.4313,223.2188 1209.0406,222.0781 Q1209.6656,220.9219 1210.7594,220.3125 Q1211.8531,219.6875 1213.0875,219.6875 Q1213.8219,219.6875 1214.4625,219.8594 Q1215.1188,220.0156 1215.6656,220.375 Z " fill="#000000"/><text fill="#000000" font-family="sans-serif" font-size="14" lengthAdjust="spacing" textLength="148" x="1233.1" y="230.2285">OrganizationRepository</text><line style="stroke:#181818;stroke-width:0.5;" x1="1171" x2="1411" y1="240.5" y2="240.5"/><line style="stroke:#181818;stroke-width:0.5;" x1="1171" x2="1411" y1="248.5" y2="248.5"/><text fill="#000000" font-family="sans-serif" font-size="14" lengthAdjust="spacing" textLength="230" x="1176" y="267.0332">+getOrganizationByUserEmail(email)</text></g><!--class Repositories--><g id="elem_Repositories"><rect codeLine="49" fill="#F1F1F1" height="118.4375" id="Repositories" rx="2.5" ry="2.5" style="stroke:#181818;stroke-width:0.5;" width="208" x="988" y="21"/><ellipse cx="1048.25" cy="37" fill="#ADD1B2" rx="11" ry="11" style="stroke:#181818;stroke-width:1.0;"/><path d="M1051.0156,32.875 Q1051.1719,32.6563 1051.3594,32.5469 Q1051.5469,32.4375 1051.7656,32.4375 Q1052.1406,32.4375 1052.375,32.7031 Q1052.6094,32.9531 1052.6094,33.5625 L1052.6094,35.0156 Q1052.6094,35.625 1052.375,35.8906 Q1052.1406,36.1563 1051.7656,36.1563 Q1051.4219,36.1563 1051.2188,35.9531 Q1051.0156,35.7656 1050.9063,35.25 Q1050.8594,34.8906 1050.6719,34.7031 Q1050.3438,34.3281 1049.7344,34.1094 Q1049.125,33.8906 1048.5,33.8906 Q1047.7344,33.8906 1047.0938,34.2188 Q1046.4688,34.5469 1045.9688,35.2969 Q1045.4844,36.0469 1045.4844,37.0781 L1045.4844,38.1719 Q1045.4844,39.4063 1046.375,40.2344 Q1047.2656,41.0469 1048.8594,41.0469 Q1049.7969,41.0469 1050.4531,40.7969 Q1050.8438,40.6406 1051.2656,40.2031 Q1051.5313,39.9375 1051.6719,39.8594 Q1051.8281,39.7813 1052.0313,39.7813 Q1052.3594,39.7813 1052.6094,40.0469 Q1052.875,40.2969 1052.875,40.6406 Q1052.875,40.9844 1052.5313,41.3906 Q1052.0313,41.9688 1051.2344,42.2969 Q1050.1563,42.75 1048.8594,42.75 Q1047.3438,42.75 1046.1406,42.125 Q1045.1563,41.625 1044.4688,40.5625 Q1043.7813,39.4844 1043.7813,38.2031 L1043.7813,37.0469 Q1043.7813,35.7188 1044.3906,34.5781 Q1045.0156,33.4219 1046.1094,32.8125 Q1047.2031,32.1875 1048.4375,32.1875 Q1049.1719,32.1875 1049.8125,32.3594 Q1050.4688,32.5156 1051.0156,32.875 Z " fill="#000000"/><text fill="#000000" font-family="sans-serif" font-size="14" lengthAdjust="spacing" textLength="79" x="1068.75" y="42.7285">Repositories</text><line style="stroke:#181818;stroke-width:0.5;" x1="989" x2="1195" y1="53" y2="53"/><line style="stroke:#181818;stroke-width:0.5;" x1="989" x2="1195" y1="61" y2="61"/><text fill="#000000" font-family="sans-serif" font-size="14" lengthAdjust="spacing" textLength="94" x="994" y="79.5332">-Repositories()</text><text fill="#000000" font-family="sans-serif" font-size="14" lengthAdjust="spacing" textLength="182" x="994" y="97.1426">+getInstance() : Repositories</text><text fill="#000000" font-family="sans-serif" font-size="14" lengthAdjust="spacing" textLength="186" x="994" y="114.752">+getOrganizationRepository()</text><text fill="#000000" font-family="sans-serif" font-size="14" lengthAdjust="spacing" textLength="196" x="994" y="132.3613">+getAuthenticationRepository()</text></g><!--class CreateJobController--><g id="elem_CreateJobController"><rect codeLine="56" fill="#F1F1F1" height="83.2188" id="CreateJobController" rx="2.5" ry="2.5" style="stroke:#181818;stroke-width:0.5;" width="464" x="420" y="38.5"/><ellipse cx="584.25" cy="54.5" fill="#ADD1B2" rx="11" ry="11" style="stroke:#181818;stroke-width:1.0;"/><path d="M587.0156,50.375 Q587.1719,50.1563 587.3594,50.0469 Q587.5469,49.9375 587.7656,49.9375 Q588.1406,49.9375 588.375,50.2031 Q588.6094,50.4531 588.6094,51.0625 L588.6094,52.5156 Q588.6094,53.125 588.375,53.3906 Q588.1406,53.6563 587.7656,53.6563 Q587.4219,53.6563 587.2188,53.4531 Q587.0156,53.2656 586.9063,52.75 Q586.8594,52.3906 586.6719,52.2031 Q586.3438,51.8281 585.7344,51.6094 Q585.125,51.3906 584.5,51.3906 Q583.7344,51.3906 583.0938,51.7188 Q582.4688,52.0469 581.9688,52.7969 Q581.4844,53.5469 581.4844,54.5781 L581.4844,55.6719 Q581.4844,56.9063 582.375,57.7344 Q583.2656,58.5469 584.8594,58.5469 Q585.7969,58.5469 586.4531,58.2969 Q586.8438,58.1406 587.2656,57.7031 Q587.5313,57.4375 587.6719,57.3594 Q587.8281,57.2813 588.0313,57.2813 Q588.3594,57.2813 588.6094,57.5469 Q588.875,57.7969 588.875,58.1406 Q588.875,58.4844 588.5313,58.8906 Q588.0313,59.4688 587.2344,59.7969 Q586.1563,60.25 584.8594,60.25 Q583.3438,60.25 582.1406,59.625 Q581.1563,59.125 580.4688,58.0625 Q579.7813,56.9844 579.7813,55.7031 L579.7813,54.5469 Q579.7813,53.2188 580.3906,52.0781 Q581.0156,50.9219 582.1094,50.3125 Q583.2031,49.6875 584.4375,49.6875 Q585.1719,49.6875 585.8125,49.8594 Q586.4688,50.0156 587.0156,50.375 Z " fill="#000000"/><text fill="#000000" font-family="sans-serif" font-size="14" lengthAdjust="spacing" textLength="127" x="604.75" y="60.2285">CreateJobController</text><line style="stroke:#181818;stroke-width:0.5;" x1="421" x2="883" y1="70.5" y2="70.5"/><line style="stroke:#181818;stroke-width:0.5;" x1="421" x2="883" y1="78.5" y2="78.5"/><text fill="#000000" font-family="sans-serif" font-size="14" lengthAdjust="spacing" textLength="452" x="426" y="97.0332">+CreateJobController(organizationRepository,AuthenticationRepository)</text><text fill="#000000" font-family="sans-serif" font-size="14" lengthAdjust="spacing" textLength="99" x="426" y="114.6426">+createJob(job)</text></g><g id="elem_GMN9"><path d="M6,58.5 L6,101.2031 L240,101.2031 L240,68.5 L230,58.5 L6,58.5 " fill="#FEFFDD" style="stroke:#181818;stroke-width:0.5;"/><path d="M230,58.5 L230,68.5 L240,68.5 L230,58.5 " fill="#FEFFDD" style="stroke:#181818;stroke-width:1.0;"/><text fill="#000000" font-family="sans-serif" font-size="13" lengthAdjust="spacing" textLength="213" x="12" y="76.9951">- userEmail and userRole is obtained</text><text fill="#000000" font-family="sans-serif" font-size="13" lengthAdjust="spacing" textLength="129" x="12" y="93.3467">from the user session.</text></g><!--class CreateJobUI--><g id="elem_CreateJobUI"><rect codeLine="68" fill="#F1F1F1" height="48" id="CreateJobUI" rx="2.5" ry="2.5" style="stroke:#181818;stroke-width:0.5;" width="109" x="275.5" y="56"/><ellipse cx="290.5" cy="72" fill="#ADD1B2" rx="11" ry="11" style="stroke:#181818;stroke-width:1.0;"/><path d="M293.2656,67.875 Q293.4219,67.6563 293.6094,67.5469 Q293.7969,67.4375 294.0156,67.4375 Q294.3906,67.4375 294.625,67.7031 Q294.8594,67.9531 294.8594,68.5625 L294.8594,70.0156 Q294.8594,70.625 294.625,70.8906 Q294.3906,71.1563 294.0156,71.1563 Q293.6719,71.1563 293.4688,70.9531 Q293.2656,70.7656 293.1563,70.25 Q293.1094,69.8906 292.9219,69.7031 Q292.5938,69.3281 291.9844,69.1094 Q291.375,68.8906 290.75,68.8906 Q289.9844,68.8906 289.3438,69.2188 Q288.7188,69.5469 288.2188,70.2969 Q287.7344,71.0469 287.7344,72.0781 L287.7344,73.1719 Q287.7344,74.4063 288.625,75.2344 Q289.5156,76.0469 291.1094,76.0469 Q292.0469,76.0469 292.7031,75.7969 Q293.0938,75.6406 293.5156,75.2031 Q293.7813,74.9375 293.9219,74.8594 Q294.0781,74.7813 294.2813,74.7813 Q294.6094,74.7813 294.8594,75.0469 Q295.125,75.2969 295.125,75.6406 Q295.125,75.9844 294.7813,76.3906 Q294.2813,76.9688 293.4844,77.2969 Q292.4063,77.75 291.1094,77.75 Q289.5938,77.75 288.3906,77.125 Q287.4063,76.625 286.7188,75.5625 Q286.0313,74.4844 286.0313,73.2031 L286.0313,72.0469 Q286.0313,70.7188 286.6406,69.5781 Q287.2656,68.4219 288.3594,67.8125 Q289.4531,67.1875 290.6875,67.1875 Q291.4219,67.1875 292.0625,67.3594 Q292.7188,67.5156 293.2656,67.875 Z " fill="#000000"/><text fill="#000000" font-family="sans-serif" font-size="14" lengthAdjust="spacing" textLength="77" x="304.5" y="77.7285">CreateJobUI</text><line style="stroke:#181818;stroke-width:0.5;" x1="276.5" x2="383.5" y1="88" y2="88"/><line style="stroke:#181818;stroke-width:0.5;" x1="276.5" x2="383.5" y1="96" y2="96"/></g><!--link GMN9 to CreateJobController--><g id="link_GMN9_CreateJobController"><path d="M167.52,58.4 C212.53,36.56 275.5,6 275.5,6 C275.5,6 384.5,6 384.5,6 C384.5,6 440.85,21.59 501.83,38.46 " fill="none" id="GMN9-CreateJobController" style="stroke:#181818;stroke-width:1.0;stroke-dasharray:7.0,7.0;"/></g><!--link Repositories to Repositories--><g id="link_Repositories_Repositories"><path codeLine="71" d="M1196.26,64.23 C1216.58,66.07 1231,71.32 1231,80 C1231,88.68 1222.5556,93.3889 1202.2356,95.2289 " fill="none" id="Repositories-to-Repositories" style="stroke:#181818;stroke-width:1.0;"/><polygon fill="#181818" points="1196.26,95.77,1205.5841,98.9421,1201.2396,95.3191,1204.8626,90.9747,1196.26,95.77" style="stroke:#181818;stroke-width:1.0;"/><text fill="#000000" font-family="sans-serif" font-size="13" lengthAdjust="spacing" textLength="49" x="1237" y="85.4951">instance</text></g><!--link CreateJobUI to CreateJobController--><g id="link_CreateJobUI_CreateJobController"><path codeLine="72" d="M384.61,80 C397.45,80 404.22,80 413.98,80 " fill="none" id="CreateJobUI-to-CreateJobController" style="stroke:#181818;stroke-width:1.0;stroke-dasharray:7.0,7.0;"/><polygon fill="#181818" points="419.98,80,410.98,76,414.98,80,410.98,84,419.98,80" style="stroke:#181818;stroke-width:1.0;"/></g><!--link CreateJobController to Repositories--><g id="link_CreateJobController_Repositories"><path codeLine="73" d="M884.24,80 C920.6,80 950.51,80 981.99,80 " fill="none" id="CreateJobController-to-Repositories" style="stroke:#181818;stroke-width:1.0;stroke-dasharray:7.0,7.0;"/><polygon fill="#181818" points="987.99,80,978.99,76,982.99,80,978.99,84,987.99,80" style="stroke:#181818;stroke-width:1.0;"/><text fill="#000000" font-family="sans-serif" font-size="13" lengthAdjust="spacing" textLength="67" x="902.5" y="73.4951">repositories</text></g><!--link Repositories to OrganizationRepository--><g id="link_Repositories_OrganizationRepository"><path codeLine="74" d="M1164.41,139.03 C1193.63,162.46 1221.5585,184.8372 1246.3585,204.7172 " fill="none" id="Repositories-to-OrganizationRepository" style="stroke:#181818;stroke-width:1.0;"/><polygon fill="#181818" points="1251.04,208.47,1246.5196,199.7198,1247.1387,205.3427,1241.5159,205.9619,1251.04,208.47" style="stroke:#181818;stroke-width:1.0;"/><text fill="#000000" font-family="sans-serif" font-size="13" lengthAdjust="spacing" textLength="7" x="1235.0764" y="197.5792">1</text></g><!--link OrganizationRepository to Organization--><g id="link_OrganizationRepository_Organization"><path codeLine="75" d="M1291,274.89 C1291,297.63 1291,323.48 1291,354.96 " fill="none" id="OrganizationRepository-to-Organization" style="stroke:#181818;stroke-width:1.0;"/><polygon fill="#181818" points="1291,360.96,1295,351.96,1291,355.96,1287,351.96,1291,360.96" style="stroke:#181818;stroke-width:1.0;"/><text fill="#000000" font-family="sans-serif" font-size="13" lengthAdjust="spacing" textLength="77" x="1292" y="327.4951">organizations</text><text fill="#000000" font-family="sans-serif" font-size="13" lengthAdjust="spacing" textLength="5" x="1285.8242" y="350.0239">*</text></g><!--link AuthenticationRepository to UserSession--><g id="link_AuthenticationRepository_UserSession"><path codeLine="76" d="M872.19,241.5 C906.91,241.5 939.74,241.5 972.81,241.5 " fill="none" id="AuthenticationRepository-to-UserSession" style="stroke:#181818;stroke-width:1.0;"/><polygon fill="#181818" points="978.81,241.5,969.81,237.5,973.81,241.5,969.81,245.5,978.81,241.5" style="stroke:#181818;stroke-width:1.0;"/><text fill="#000000" font-family="sans-serif" font-size="13" lengthAdjust="spacing" textLength="70" x="890.5" y="234.9951">usersession</text><text fill="#000000" font-family="sans-serif" font-size="13" lengthAdjust="spacing" textLength="7" x="964.0239" y="238.2389">1</text></g><!--link Repositories to AuthenticationRepository--><g id="link_Repositories_AuthenticationRepository"><path codeLine="77" d="M987.98,133.67 C939.24,158.35 888.0933,184.2504 845.8333,205.6404 " fill="none" id="Repositories-to-AuthenticationRepository" style="stroke:#181818;stroke-width:1.0;"/><polygon fill="#181818" points="840.48,208.35,850.3164,207.8545,844.9411,206.092,846.7036,200.7167,840.48,208.35" style="stroke:#181818;stroke-width:1.0;"/><text fill="#000000" font-family="sans-serif" font-size="13" lengthAdjust="spacing" textLength="7" x="845.8509" y="197.4345">1</text></g><!--link Organization to Job--><g id="link_Organization_Job"><path codeLine="78" d="M1291,585.15 C1291,613.52 1291,635.84 1291,656.62 " fill="none" id="Organization-to-Job" style="stroke:#181818;stroke-width:1.0;"/><polygon fill="#181818" points="1291,662.62,1295,653.62,1291,657.62,1287,653.62,1291,662.62" style="stroke:#181818;stroke-width:1.0;"/><text fill="#000000" font-family="sans-serif" font-size="13" lengthAdjust="spacing" textLength="41" x="1292" y="629.4951">identify</text><text fill="#000000" font-family="sans-serif" font-size="13" lengthAdjust="spacing" textLength="7" x="1283.7648" y="606.7264">1</text><text fill="#000000" font-family="sans-serif" font-size="13" lengthAdjust="spacing" textLength="5" x="1285.5078" y="652.0415">*</text></g><!--SRC=[TLH1Rjim4Bpp5OjSR3UsqLvp2E0OFRWeKY16q3CbhYKs52cGL0AbwD-xb2MPj2NTjDpP6SwGNBWtgMjkUGMLqIOlhQaGl6sGNLPgdh_n0e- -LGWMSyzreU86Lt9XFgGkuCILYrUKrEZR6g4sgWq_R36nQAmtB4BbYZktyzxAhF5uo8q-oa-4humj59uyU0DM5gK78OCSQJHZ7GPsZIzHUvdpK7t1sZZfZMtPNmRqtKE1VjzOIpsl3kqHdQE-vOhz6oP4vH4atKzJ52WE-hVqvOjHI8XnNa0Sn7d6CEM7oU2Cti2Hza7M_37PCwymxlfb2wxbPwVrkbs7tgJoplrpKsLeqt9T6dtLYHMNgY_jXB2q7Gh0UQxwltwD2q52bwHirLVUkPA2UqpAzudGPL2slgXPmmTcH-cfrabPd-dNAUCmARTuFNupcFZKVW_8POTViSwfMwCkeK8KQjpnr8PfoQmntX4jqOsMnyKusOEc7UYSqeQ7f6cQzw8i7Z9t9ED3jnzSsHljhL4AxRYvYRMbcMHTpr7Dc1_ujV48tQKofocgtg5cC1Iu5jrVk0LqCS1adjCz5btZYPuF80rT1xZpDTeo94mWOZVxVJtGFab64ilcCOtf0MGV18k1syT9mLDURcycsZZDb9texxxTpPmvDdCKEzIN54KqSL2EpUK3FMNqzX0sUDXREArmzh5BH8JEGLrubiXD4L2dbkBu3m00]--></g></svg>