<?xml version="1.0" encoding="us-ascii" standalone="no"?><svg xmlns="http://www.w3.org/2000/svg" xmlns:xlink="http://www.w3.org/1999/xlink" contentStyleType="text/css" height="1423px" preserveAspectRatio="none" style="width:1758px;height:1423px;background:#FFFFFF;" version="1.1" viewBox="0 0 1758 1423" width="1758px" zoomAndPan="magnify"><defs/><g><rect fill="#FFFFFF" height="1230.875" style="stroke:#181818;stroke-width:1.0;" width="10" x="18" y="92.6094"/><rect fill="#FFFFFF" height="30.3516" style="stroke:#181818;stroke-width:1.0;" width="10" x="248" y="114.9609"/><rect fill="#FFFFFF" height="30.3516" style="stroke:#181818;stroke-width:1.0;" width="10" x="248" y="175.6641"/><rect fill="#FFFFFF" height="1087.1172" style="stroke:#181818;stroke-width:1.0;" width="10" x="248" y="236.3672"/><rect fill="#FFFFFF" height="1026.4141" style="stroke:#181818;stroke-width:1.0;" width="10" x="408" y="266.7188"/><rect fill="#FFFFFF" height="30.3516" style="stroke:#181818;stroke-width:1.0;" width="10" x="633" y="340.4219"/><rect fill="#FFFFFF" height="30.3516" style="stroke:#181818;stroke-width:1.0;" width="10" x="633" y="687.2891"/><rect fill="#FFFFFF" height="30.3516" style="stroke:#181818;stroke-width:1.0;" width="10" x="740" y="401.125"/><rect fill="#FFFFFF" height="30.3516" style="stroke:#181818;stroke-width:1.0;" width="10" x="740" y="747.9922"/><rect fill="#FFFFFF" height="151.7578" style="stroke:#181818;stroke-width:1.0;" width="10" x="886.5" y="461.8281"/><rect fill="#FFFFFF" height="91.0547" style="stroke:#181818;stroke-width:1.0;" width="10" x="1075.5" y="492.1797"/><rect fill="#FFFFFF" height="523.7891" style="stroke:#181818;stroke-width:1.0;" width="10" x="1215.5" y="808.6953"/><rect fill="#FFFFFF" height="30.3516" style="stroke:#181818;stroke-width:1.0;" width="10" x="1382.5" y="864.3984"/><rect fill="#FFFFFF" height="262.9766" style="stroke:#181818;stroke-width:1.0;" width="10" x="1382.5" y="962.4531"/><rect fill="#FFFFFF" height="135.9219" style="stroke:#181818;stroke-width:1.0;" width="10" x="1387.5" y="1002.8047"/><rect fill="none" height="79.0547" style="stroke:#000000;stroke-width:1.5;" width="317.5" x="1129" y="823.6953"/><line style="stroke:#181818;stroke-width:0.5;stroke-dasharray:5.0,5.0;" x1="23" x2="23" y1="82.6094" y2="1341.4844"/><line style="stroke:#181818;stroke-width:0.5;stroke-dasharray:5.0,5.0;" x1="252.5" x2="252.5" y1="82.6094" y2="1341.4844"/><line style="stroke:#181818;stroke-width:0.5;stroke-dasharray:5.0,5.0;" x1="412.5" x2="412.5" y1="82.6094" y2="1341.4844"/><line style="stroke:#181818;stroke-width:0.5;stroke-dasharray:5.0,5.0;" x1="637.5" x2="637.5" y1="82.6094" y2="1341.4844"/><line style="stroke:#181818;stroke-width:0.5;stroke-dasharray:5.0,5.0;" x1="744.5" x2="744.5" y1="82.6094" y2="1341.4844"/><line style="stroke:#181818;stroke-width:0.5;stroke-dasharray:5.0,5.0;" x1="891.5" x2="891.5" y1="82.6094" y2="1341.4844"/><line style="stroke:#181818;stroke-width:0.5;stroke-dasharray:5.0,5.0;" x1="1080" x2="1080" y1="82.6094" y2="1341.4844"/><line style="stroke:#181818;stroke-width:0.5;stroke-dasharray:5.0,5.0;" x1="1220" x2="1220" y1="82.6094" y2="1341.4844"/><line style="stroke:#181818;stroke-width:0.5;stroke-dasharray:5.0,5.0;" x1="1387.5" x2="1387.5" y1="82.6094" y2="1341.4844"/><line style="stroke:#181818;stroke-width:0.5;stroke-dasharray:5.0,5.0;" x1="1522.5" x2="1522.5" y1="1010.5625" y2="1341.4844"/><text fill="#000000" font-family="sans-serif" font-size="14" lengthAdjust="spacing" textLength="30" x="5" y="79.5332">HRM</text><ellipse cx="23" cy="13.5" fill="#E3E3E3" rx="8" ry="8" style="stroke:#181818;stroke-width:0.5;"/><path d="M23,21.5 L23,48.5 M10,29.5 L36,29.5 M23,48.5 L10,63.5 M23,48.5 L36,63.5 " fill="none" style="stroke:#181818;stroke-width:0.5;"/><text fill="#000000" font-family="sans-serif" font-size="14" lengthAdjust="spacing" textLength="30" x="5" y="1355.0176">HRM</text><ellipse cx="23" cy="1366.5938" fill="#E3E3E3" rx="8" ry="8" style="stroke:#181818;stroke-width:0.5;"/><path d="M23,1374.5938 L23,1401.5938 M10,1382.5938 L36,1382.5938 M23,1401.5938 L10,1416.5938 M23,1401.5938 L36,1416.5938 " fill="none" style="stroke:#181818;stroke-width:0.5;"/><rect fill="#E3E3E3" height="31.6094" rx="2.5" ry="2.5" style="stroke:#181818;stroke-width:0.5;" width="95" x="205.5" y="50"/><text fill="#000000" font-family="sans-serif" font-size="14" lengthAdjust="spacing" textLength="81" x="212.5" y="71.5332">:CreateJobUI</text><rect fill="#E3E3E3" height="31.6094" rx="2.5" ry="2.5" style="stroke:#181818;stroke-width:0.5;" width="95" x="205.5" y="1340.4844"/><text fill="#000000" font-family="sans-serif" font-size="14" lengthAdjust="spacing" textLength="81" x="212.5" y="1362.0176">:CreateJobUI</text><rect fill="#E3E3E3" height="31.6094" rx="2.5" ry="2.5" style="stroke:#181818;stroke-width:0.5;" width="145" x="340.5" y="50"/><text fill="#000000" font-family="sans-serif" font-size="14" lengthAdjust="spacing" textLength="131" x="347.5" y="71.5332">:CreateJobController</text><rect fill="#E3E3E3" height="31.6094" rx="2.5" ry="2.5" style="stroke:#181818;stroke-width:0.5;" width="145" x="340.5" y="1340.4844"/><text fill="#000000" font-family="sans-serif" font-size="14" lengthAdjust="spacing" textLength="131" x="347.5" y="1362.0176">:CreateJobController</text><rect fill="#E3E3E3" height="31.6094" rx="2.5" ry="2.5" style="stroke:#181818;stroke-width:0.5;" width="97" x="589.5" y="50"/><text fill="#000000" font-family="sans-serif" font-size="14" lengthAdjust="spacing" textLength="83" x="596.5" y="71.5332">:Repositories</text><rect fill="#E3E3E3" height="31.6094" rx="2.5" ry="2.5" style="stroke:#181818;stroke-width:0.5;" width="97" x="589.5" y="1340.4844"/><text fill="#000000" font-family="sans-serif" font-size="14" lengthAdjust="spacing" textLength="83" x="596.5" y="1362.0176">:Repositories</text><rect fill="#E3E3E3" height="49.2188" rx="2.5" ry="2.5" style="stroke:#181818;stroke-width:0.5;" width="97" x="696.5" y="32.3906"/><text fill="#000000" font-family="sans-serif" font-size="14" lengthAdjust="spacing" textLength="74" x="708" y="53.9238">repositories</text><text fill="#000000" font-family="sans-serif" font-size="14" lengthAdjust="spacing" textLength="83" x="703.5" y="71.5332">:Repositories</text><rect fill="#E3E3E3" height="49.2188" rx="2.5" ry="2.5" style="stroke:#181818;stroke-width:0.5;" width="97" x="696.5" y="1340.4844"/><text fill="#000000" font-family="sans-serif" font-size="14" lengthAdjust="spacing" textLength="74" x="708" y="1362.0176">repositories</text><text fill="#000000" font-family="sans-serif" font-size="14" lengthAdjust="spacing" textLength="83" x="703.5" y="1379.627">:Repositories</text><rect fill="#E3E3E3" height="49.2188" rx="2.5" ry="2.5" style="stroke:#181818;stroke-width:0.5;" width="176" x="803.5" y="32.3906"/><text fill="#000000" font-family="sans-serif" font-size="14" lengthAdjust="spacing" textLength="77" x="853" y="53.9238">AuthFacade</text><text fill="#000000" font-family="sans-serif" font-size="14" lengthAdjust="spacing" textLength="162" x="810.5" y="71.5332">:AuthenticationRepository</text><rect fill="#E3E3E3" height="49.2188" rx="2.5" ry="2.5" style="stroke:#181818;stroke-width:0.5;" width="176" x="803.5" y="1340.4844"/><text fill="#000000" font-family="sans-serif" font-size="14" lengthAdjust="spacing" textLength="77" x="853" y="1362.0176">AuthFacade</text><text fill="#000000" font-family="sans-serif" font-size="14" lengthAdjust="spacing" textLength="162" x="810.5" y="1379.627">:AuthenticationRepository</text><rect fill="#E3E3E3" height="49.2188" rx="2.5" ry="2.5" style="stroke:#181818;stroke-width:0.5;" width="97" x="1032" y="32.3906"/><text fill="#000000" font-family="sans-serif" font-size="14" lengthAdjust="spacing" textLength="78" x="1041.5" y="53.9238">userSession</text><text fill="#000000" font-family="sans-serif" font-size="14" lengthAdjust="spacing" textLength="83" x="1039" y="71.5332">:UserSession</text><rect fill="#E3E3E3" height="49.2188" rx="2.5" ry="2.5" style="stroke:#181818;stroke-width:0.5;" width="97" x="1032" y="1340.4844"/><text fill="#000000" font-family="sans-serif" font-size="14" lengthAdjust="spacing" textLength="78" x="1041.5" y="1362.0176">userSession</text><text fill="#000000" font-family="sans-serif" font-size="14" lengthAdjust="spacing" textLength="83" x="1039" y="1379.627">:UserSession</text><rect fill="#E3E3E3" height="49.2188" rx="2.5" ry="2.5" style="stroke:#181818;stroke-width:0.5;" width="163" x="1139" y="32.3906"/><text fill="#000000" font-family="sans-serif" font-size="14" lengthAdjust="spacing" textLength="149" x="1146" y="53.9238">organizationRepository:</text><text fill="#000000" font-family="sans-serif" font-size="14" lengthAdjust="spacing" textLength="148" x="1146.5" y="71.5332">OrganizationRepository</text><rect fill="#E3E3E3" height="49.2188" rx="2.5" ry="2.5" style="stroke:#181818;stroke-width:0.5;" width="163" x="1139" y="1340.4844"/><text fill="#000000" font-family="sans-serif" font-size="14" lengthAdjust="spacing" textLength="149" x="1146" y="1362.0176">organizationRepository:</text><text fill="#000000" font-family="sans-serif" font-size="14" lengthAdjust="spacing" textLength="148" x="1146.5" y="1379.627">OrganizationRepository</text><rect fill="#E3E3E3" height="49.2188" rx="2.5" ry="2.5" style="stroke:#181818;stroke-width:0.5;" width="98" x="1338.5" y="32.3906"/><text fill="#000000" font-family="sans-serif" font-size="14" lengthAdjust="spacing" textLength="77" x="1349" y="53.9238">organization</text><text fill="#000000" font-family="sans-serif" font-size="14" lengthAdjust="spacing" textLength="84" x="1345.5" y="71.5332">:Organization</text><rect fill="#E3E3E3" height="49.2188" rx="2.5" ry="2.5" style="stroke:#181818;stroke-width:0.5;" width="98" x="1338.5" y="1340.4844"/><text fill="#000000" font-family="sans-serif" font-size="14" lengthAdjust="spacing" textLength="77" x="1349" y="1362.0176">organization</text><text fill="#000000" font-family="sans-serif" font-size="14" lengthAdjust="spacing" textLength="84" x="1345.5" y="1379.627">:Organization</text><rect fill="#E3E3E3" height="49.2188" rx="2.5" ry="2.5" style="stroke:#181818;stroke-width:0.5;" width="40" x="1502.5" y="1340.4844"/><text fill="#000000" font-family="sans-serif" font-size="14" lengthAdjust="spacing" textLength="22" x="1511.5" y="1362.0176">Job</text><text fill="#000000" font-family="sans-serif" font-size="14" lengthAdjust="spacing" textLength="26" x="1509.5" y="1379.627">:Job</text><rect fill="#FFFFFF" height="1230.875" style="stroke:#181818;stroke-width:1.0;" width="10" x="18" y="92.6094"/><rect fill="#FFFFFF" height="30.3516" style="stroke:#181818;stroke-width:1.0;" width="10" x="248" y="114.9609"/><rect fill="#FFFFFF" height="30.3516" style="stroke:#181818;stroke-width:1.0;" width="10" x="248" y="175.6641"/><rect fill="#FFFFFF" height="1087.1172" style="stroke:#181818;stroke-width:1.0;" width="10" x="248" y="236.3672"/><rect fill="#FFFFFF" height="1026.4141" style="stroke:#181818;stroke-width:1.0;" width="10" x="408" y="266.7188"/><rect fill="#FFFFFF" height="30.3516" style="stroke:#181818;stroke-width:1.0;" width="10" x="633" y="340.4219"/><rect fill="#FFFFFF" height="30.3516" style="stroke:#181818;stroke-width:1.0;" width="10" x="633" y="687.2891"/><rect fill="#FFFFFF" height="30.3516" style="stroke:#181818;stroke-width:1.0;" width="10" x="740" y="401.125"/><rect fill="#FFFFFF" height="30.3516" style="stroke:#181818;stroke-width:1.0;" width="10" x="740" y="747.9922"/><rect fill="#FFFFFF" height="151.7578" style="stroke:#181818;stroke-width:1.0;" width="10" x="886.5" y="461.8281"/><rect fill="#FFFFFF" height="91.0547" style="stroke:#181818;stroke-width:1.0;" width="10" x="1075.5" y="492.1797"/><rect fill="#FFFFFF" height="523.7891" style="stroke:#181818;stroke-width:1.0;" width="10" x="1215.5" y="808.6953"/><rect fill="#FFFFFF" height="30.3516" style="stroke:#181818;stroke-width:1.0;" width="10" x="1382.5" y="864.3984"/><rect fill="#FFFFFF" height="262.9766" style="stroke:#181818;stroke-width:1.0;" width="10" x="1382.5" y="962.4531"/><rect fill="#FFFFFF" height="135.9219" style="stroke:#181818;stroke-width:1.0;" width="10" x="1387.5" y="1002.8047"/><polygon fill="#181818" points="236,110.9609,246,114.9609,236,118.9609,240,114.9609" style="stroke:#181818;stroke-width:1.0;"/><line style="stroke:#181818;stroke-width:1.0;" x1="28" x2="242" y1="114.9609" y2="114.9609"/><text fill="#000000" font-family="sans-serif" font-size="13" font-weight="bold" lengthAdjust="spacing" textLength="7" x="35" y="110.1045">1</text><text fill="#000000" font-family="sans-serif" font-size="13" lengthAdjust="spacing" textLength="142" x="46" y="110.1045">asks to create a new job</text><polygon fill="#181818" points="39,141.3125,29,145.3125,39,149.3125,35,145.3125" style="stroke:#181818;stroke-width:1.0;"/><line style="stroke:#181818;stroke-width:1.0;stroke-dasharray:2.0,2.0;" x1="33" x2="252" y1="145.3125" y2="145.3125"/><text fill="#000000" font-family="sans-serif" font-size="13" font-weight="bold" lengthAdjust="spacing" textLength="7" x="45" y="140.4561">2</text><text fill="#000000" font-family="sans-serif" font-size="13" lengthAdjust="spacing" textLength="147" x="56" y="140.4561">requests data (Job name)</text><polygon fill="#181818" points="236,171.6641,246,175.6641,236,179.6641,240,175.6641" style="stroke:#181818;stroke-width:1.0;"/><line style="stroke:#181818;stroke-width:1.0;" x1="28" x2="242" y1="175.6641" y2="175.6641"/><text fill="#000000" font-family="sans-serif" font-size="13" font-weight="bold" lengthAdjust="spacing" textLength="7" x="35" y="170.8076">3</text><text fill="#000000" font-family="sans-serif" font-size="13" lengthAdjust="spacing" textLength="190" x="46" y="170.8076">types requested data (Job name)</text><polygon fill="#181818" points="39,202.0156,29,206.0156,39,210.0156,35,206.0156" style="stroke:#181818;stroke-width:1.0;"/><line style="stroke:#181818;stroke-width:1.0;stroke-dasharray:2.0,2.0;" x1="33" x2="252" y1="206.0156" y2="206.0156"/><text fill="#000000" font-family="sans-serif" font-size="13" font-weight="bold" lengthAdjust="spacing" textLength="7" x="45" y="201.1592">4</text><text fill="#000000" font-family="sans-serif" font-size="13" lengthAdjust="spacing" textLength="127" x="56" y="201.1592">shows requested data</text><polygon fill="#181818" points="236,232.3672,246,236.3672,236,240.3672,240,236.3672" style="stroke:#181818;stroke-width:1.0;"/><line style="stroke:#181818;stroke-width:1.0;" x1="28" x2="242" y1="236.3672" y2="236.3672"/><text fill="#000000" font-family="sans-serif" font-size="13" font-weight="bold" lengthAdjust="spacing" textLength="7" x="35" y="231.5107">5</text><text fill="#000000" font-family="sans-serif" font-size="13" lengthAdjust="spacing" textLength="75" x="46" y="231.5107">submits data</text><polygon fill="#181818" points="396,262.7188,406,266.7188,396,270.7188,400,266.7188" style="stroke:#181818;stroke-width:1.0;"/><line style="stroke:#181818;stroke-width:1.0;" x1="258" x2="402" y1="266.7188" y2="266.7188"/><text fill="#000000" font-family="sans-serif" font-size="13" font-weight="bold" lengthAdjust="spacing" textLength="7" x="265" y="261.8623">6</text><text fill="#000000" font-family="sans-serif" font-size="13" lengthAdjust="spacing" textLength="120" x="276" y="261.8623">createJob(Job name)</text><line style="stroke:#181818;stroke-width:1.0;" x1="418" x2="460" y1="297.0703" y2="297.0703"/><line style="stroke:#181818;stroke-width:1.0;" x1="460" x2="460" y1="297.0703" y2="310.0703"/><line style="stroke:#181818;stroke-width:1.0;" x1="419" x2="460" y1="310.0703" y2="310.0703"/><polygon fill="#181818" points="429,306.0703,419,310.0703,429,314.0703,425,310.0703" style="stroke:#181818;stroke-width:1.0;"/><text fill="#000000" font-family="sans-serif" font-size="13" font-weight="bold" lengthAdjust="spacing" textLength="7" x="425" y="292.2139">7</text><text fill="#000000" font-family="sans-serif" font-size="13" lengthAdjust="spacing" textLength="130" x="436" y="292.2139">getUserFromSession()</text><polygon fill="#181818" points="621,336.4219,631,340.4219,621,344.4219,625,340.4219" style="stroke:#181818;stroke-width:1.0;"/><line style="stroke:#181818;stroke-width:1.0;" x1="418" x2="627" y1="340.4219" y2="340.4219"/><text fill="#000000" font-family="sans-serif" font-size="13" font-weight="bold" lengthAdjust="spacing" textLength="7" x="425" y="335.5654">8</text><text fill="#000000" font-family="sans-serif" font-size="13" lengthAdjust="spacing" textLength="75" x="436" y="335.5654">getInstance()</text><polygon fill="#181818" points="429,366.7734,419,370.7734,429,374.7734,425,370.7734" style="stroke:#181818;stroke-width:1.0;"/><line style="stroke:#181818;stroke-width:1.0;stroke-dasharray:2.0,2.0;" x1="423" x2="637" y1="370.7734" y2="370.7734"/><text fill="#000000" font-family="sans-serif" font-size="13" font-weight="bold" lengthAdjust="spacing" textLength="7" x="435" y="365.917">9</text><text fill="#000000" font-family="sans-serif" font-size="13" lengthAdjust="spacing" textLength="72" x="446" y="365.917">Repositories</text><polygon fill="#181818" points="728,397.125,738,401.125,728,405.125,732,401.125" style="stroke:#181818;stroke-width:1.0;"/><line style="stroke:#181818;stroke-width:1.0;" x1="418" x2="734" y1="401.125" y2="401.125"/><text fill="#000000" font-family="sans-serif" font-size="13" font-weight="bold" lengthAdjust="spacing" textLength="14" x="425" y="396.2686">10</text><text fill="#000000" font-family="sans-serif" font-size="13" lengthAdjust="spacing" textLength="171" x="443" y="396.2686">getAuthenticationRepository()</text><polygon fill="#181818" points="429,427.4766,419,431.4766,429,435.4766,425,431.4766" style="stroke:#181818;stroke-width:1.0;"/><line style="stroke:#181818;stroke-width:1.0;stroke-dasharray:2.0,2.0;" x1="423" x2="744" y1="431.4766" y2="431.4766"/><text fill="#000000" font-family="sans-serif" font-size="13" font-weight="bold" lengthAdjust="spacing" textLength="14" x="435" y="426.6201">11</text><text fill="#000000" font-family="sans-serif" font-size="13" lengthAdjust="spacing" textLength="153" x="453" y="426.6201">AuthenticationRepository()</text><polygon fill="#181818" points="874.5,457.8281,884.5,461.8281,874.5,465.8281,878.5,461.8281" style="stroke:#181818;stroke-width:1.0;"/><line style="stroke:#181818;stroke-width:1.0;" x1="418" x2="880.5" y1="461.8281" y2="461.8281"/><text fill="#000000" font-family="sans-serif" font-size="13" font-weight="bold" lengthAdjust="spacing" textLength="14" x="425" y="456.9717">12</text><text fill="#000000" font-family="sans-serif" font-size="13" lengthAdjust="spacing" textLength="142" x="443" y="456.9717">getCurrentUserSession()</text><polygon fill="#181818" points="1063.5,488.1797,1073.5,492.1797,1063.5,496.1797,1067.5,492.1797" style="stroke:#181818;stroke-width:1.0;"/><line style="stroke:#181818;stroke-width:1.0;" x1="896.5" x2="1069.5" y1="492.1797" y2="492.1797"/><text fill="#000000" font-family="sans-serif" font-size="13" font-weight="bold" lengthAdjust="spacing" textLength="14" x="903.5" y="487.3232">13</text><text fill="#000000" font-family="sans-serif" font-size="13" lengthAdjust="spacing" textLength="142" x="921.5" y="487.3232">isLoggedWithRule(HRM)</text><polygon fill="#181818" points="907.5,518.5313,897.5,522.5313,907.5,526.5313,903.5,522.5313" style="stroke:#181818;stroke-width:1.0;"/><line style="stroke:#181818;stroke-width:1.0;stroke-dasharray:2.0,2.0;" x1="901.5" x2="1074.5" y1="522.5313" y2="522.5313"/><text fill="#000000" font-family="sans-serif" font-size="13" font-weight="bold" lengthAdjust="spacing" textLength="14" x="913.5" y="517.6748">14</text><text fill="#000000" font-family="sans-serif" font-size="13" lengthAdjust="spacing" textLength="71" x="931.5" y="517.6748">"True/False"</text><polygon fill="#181818" points="1063.5,548.8828,1073.5,552.8828,1063.5,556.8828,1067.5,552.8828" style="stroke:#181818;stroke-width:1.0;"/><line style="stroke:#181818;stroke-width:1.0;stroke-dasharray:2.0,2.0;" x1="896.5" x2="1069.5" y1="552.8828" y2="552.8828"/><text fill="#000000" font-family="sans-serif" font-size="13" font-weight="bold" lengthAdjust="spacing" textLength="14" x="903.5" y="548.0264">15</text><text fill="#000000" font-family="sans-serif" font-size="13" lengthAdjust="spacing" textLength="94" x="921.5" y="548.0264">getUserId(email)</text><polygon fill="#181818" points="907.5,579.2344,897.5,583.2344,907.5,587.2344,903.5,583.2344" style="stroke:#181818;stroke-width:1.0;"/><line style="stroke:#181818;stroke-width:1.0;stroke-dasharray:2.0,2.0;" x1="901.5" x2="1079.5" y1="583.2344" y2="583.2344"/><text fill="#000000" font-family="sans-serif" font-size="13" font-weight="bold" lengthAdjust="spacing" textLength="14" x="913.5" y="578.3779">16</text><text fill="#000000" font-family="sans-serif" font-size="13" lengthAdjust="spacing" textLength="74" x="931.5" y="578.3779">userId(email)</text><polygon fill="#181818" points="429,609.5859,419,613.5859,429,617.5859,425,613.5859" style="stroke:#181818;stroke-width:1.0;"/><line style="stroke:#181818;stroke-width:1.0;stroke-dasharray:2.0,2.0;" x1="423" x2="890.5" y1="613.5859" y2="613.5859"/><text fill="#000000" font-family="sans-serif" font-size="13" font-weight="bold" lengthAdjust="spacing" textLength="14" x="435" y="608.7295">17</text><text fill="#000000" font-family="sans-serif" font-size="13" lengthAdjust="spacing" textLength="74" x="453" y="608.7295">userId(email)</text><line style="stroke:#181818;stroke-width:1.0;" x1="418" x2="460" y1="643.9375" y2="643.9375"/><line style="stroke:#181818;stroke-width:1.0;" x1="460" x2="460" y1="643.9375" y2="656.9375"/><line style="stroke:#181818;stroke-width:1.0;" x1="419" x2="460" y1="656.9375" y2="656.9375"/><polygon fill="#181818" points="429,652.9375,419,656.9375,429,660.9375,425,656.9375" style="stroke:#181818;stroke-width:1.0;"/><text fill="#000000" font-family="sans-serif" font-size="13" font-weight="bold" lengthAdjust="spacing" textLength="14" x="425" y="639.0811">18</text><text fill="#000000" font-family="sans-serif" font-size="13" lengthAdjust="spacing" textLength="183" x="443" y="639.0811">getOrganizationByUserId(email)</text><polygon fill="#181818" points="621,683.2891,631,687.2891,621,691.2891,625,687.2891" style="stroke:#181818;stroke-width:1.0;"/><line style="stroke:#181818;stroke-width:1.0;" x1="418" x2="627" y1="687.2891" y2="687.2891"/><text fill="#000000" font-family="sans-serif" font-size="13" font-weight="bold" lengthAdjust="spacing" textLength="14" x="425" y="682.4326">19</text><text fill="#000000" font-family="sans-serif" font-size="13" lengthAdjust="spacing" textLength="75" x="443" y="682.4326">getInstance()</text><polygon fill="#181818" points="429,713.6406,419,717.6406,429,721.6406,425,717.6406" style="stroke:#181818;stroke-width:1.0;"/><line style="stroke:#181818;stroke-width:1.0;stroke-dasharray:2.0,2.0;" x1="423" x2="637" y1="717.6406" y2="717.6406"/><text fill="#000000" font-family="sans-serif" font-size="13" font-weight="bold" lengthAdjust="spacing" textLength="14" x="435" y="712.7842">20</text><text fill="#000000" font-family="sans-serif" font-size="13" lengthAdjust="spacing" textLength="72" x="453" y="712.7842">Repositories</text><polygon fill="#181818" points="728,743.9922,738,747.9922,728,751.9922,732,747.9922" style="stroke:#181818;stroke-width:1.0;"/><line style="stroke:#181818;stroke-width:1.0;" x1="418" x2="734" y1="747.9922" y2="747.9922"/><text fill="#000000" font-family="sans-serif" font-size="13" font-weight="bold" lengthAdjust="spacing" textLength="14" x="425" y="743.1357">21</text><text fill="#000000" font-family="sans-serif" font-size="13" lengthAdjust="spacing" textLength="161" x="443" y="743.1357">getOrganizationRepository()</text><polygon fill="#181818" points="429,774.3438,419,778.3438,429,782.3438,425,778.3438" style="stroke:#181818;stroke-width:1.0;"/><line style="stroke:#181818;stroke-width:1.0;stroke-dasharray:2.0,2.0;" x1="423" x2="744" y1="778.3438" y2="778.3438"/><text fill="#000000" font-family="sans-serif" font-size="13" font-weight="bold" lengthAdjust="spacing" textLength="14" x="435" y="773.4873">22</text><text fill="#000000" font-family="sans-serif" font-size="13" lengthAdjust="spacing" textLength="143" x="453" y="773.4873">OrganizationRepository()</text><polygon fill="#181818" points="1203.5,804.6953,1213.5,808.6953,1203.5,812.6953,1207.5,808.6953" style="stroke:#181818;stroke-width:1.0;"/><line style="stroke:#181818;stroke-width:1.0;" x1="418" x2="1209.5" y1="808.6953" y2="808.6953"/><text fill="#000000" font-family="sans-serif" font-size="13" font-weight="bold" lengthAdjust="spacing" textLength="14" x="425" y="803.8389">23</text><text fill="#000000" font-family="sans-serif" font-size="13" lengthAdjust="spacing" textLength="183" x="443" y="803.8389">getOrganizationByUserId(email)</text><path d="M1129,823.6953 L1202,823.6953 L1202,832.0469 L1192,842.0469 L1129,842.0469 L1129,823.6953 " fill="#EEEEEE" style="stroke:#000000;stroke-width:1.5;"/><rect fill="none" height="79.0547" style="stroke:#000000;stroke-width:1.5;" width="317.5" x="1129" y="823.6953"/><text fill="#000000" font-family="sans-serif" font-size="13" font-weight="bold" lengthAdjust="spacing" textLength="28" x="1144" y="838.1904">loop</text><text fill="#000000" font-family="sans-serif" font-size="11" font-weight="bold" lengthAdjust="spacing" textLength="124" x="1217" y="837.1143">[for each organization]</text><polygon fill="#181818" points="1370.5,860.3984,1380.5,864.3984,1370.5,868.3984,1374.5,864.3984" style="stroke:#181818;stroke-width:1.0;"/><line style="stroke:#181818;stroke-width:1.0;" x1="1225.5" x2="1376.5" y1="864.3984" y2="864.3984"/><text fill="#000000" font-family="sans-serif" font-size="13" font-weight="bold" lengthAdjust="spacing" textLength="14" x="1232.5" y="859.542">24</text><text fill="#000000" font-family="sans-serif" font-size="13" lengthAdjust="spacing" textLength="120" x="1250.5" y="859.542">anyUserHasId(email)</text><polygon fill="#181818" points="1236.5,890.75,1226.5,894.75,1236.5,898.75,1232.5,894.75" style="stroke:#181818;stroke-width:1.0;"/><line style="stroke:#181818;stroke-width:1.0;stroke-dasharray:2.0,2.0;" x1="1230.5" x2="1386.5" y1="894.75" y2="894.75"/><text fill="#000000" font-family="sans-serif" font-size="13" font-weight="bold" lengthAdjust="spacing" textLength="14" x="1242.5" y="889.8936">25</text><text fill="#000000" font-family="sans-serif" font-size="13" lengthAdjust="spacing" textLength="61" x="1260.5" y="889.8936">True/False</text><polygon fill="#181818" points="429,928.1016,419,932.1016,429,936.1016,425,932.1016" style="stroke:#181818;stroke-width:1.0;"/><line style="stroke:#181818;stroke-width:1.0;stroke-dasharray:2.0,2.0;" x1="423" x2="1214.5" y1="932.1016" y2="932.1016"/><text fill="#000000" font-family="sans-serif" font-size="13" font-weight="bold" lengthAdjust="spacing" textLength="14" x="435" y="927.2451">26</text><text fill="#000000" font-family="sans-serif" font-size="13" lengthAdjust="spacing" textLength="70" x="453" y="927.2451">organitazion</text><polygon fill="#181818" points="1370.5,958.4531,1380.5,962.4531,1370.5,966.4531,1374.5,962.4531" style="stroke:#181818;stroke-width:1.0;"/><line style="stroke:#181818;stroke-width:1.0;" x1="418" x2="1376.5" y1="962.4531" y2="962.4531"/><text fill="#000000" font-family="sans-serif" font-size="13" font-weight="bold" lengthAdjust="spacing" textLength="14" x="425" y="957.5967">27</text><text fill="#000000" font-family="sans-serif" font-size="13" lengthAdjust="spacing" textLength="120" x="443" y="957.5967">createJob(Job name)</text><polygon fill="#181818" points="1490.5,988.8047,1500.5,992.8047,1490.5,996.8047,1494.5,992.8047" style="stroke:#181818;stroke-width:1.0;"/><line style="stroke:#181818;stroke-width:1.0;" x1="1392.5" x2="1496.5" y1="992.8047" y2="992.8047"/><text fill="#000000" font-family="sans-serif" font-size="13" font-weight="bold" lengthAdjust="spacing" textLength="14" x="1399.5" y="987.9482">28</text><text fill="#000000" font-family="sans-serif" font-size="13" lengthAdjust="spacing" textLength="61" x="1417.5" y="987.9482">create(job)</text><rect fill="#E3E3E3" height="49.2188" rx="2.5" ry="2.5" style="stroke:#181818;stroke-width:0.5;" width="40" x="1502.5" y="970.4531"/><text fill="#000000" font-family="sans-serif" font-size="14" lengthAdjust="spacing" textLength="22" x="1511.5" y="991.9863">Job</text><text fill="#000000" font-family="sans-serif" font-size="14" lengthAdjust="spacing" textLength="26" x="1509.5" y="1009.5957">:Job</text><path d="M1527,1035.6719 L1527,1061.6719 L1751,1061.6719 L1751,1045.6719 L1741,1035.6719 L1527,1035.6719 " fill="#FAFAFA" style="stroke:#181818;stroke-width:0.5;"/><path d="M1741,1035.6719 L1741,1045.6719 L1751,1045.6719 L1741,1035.6719 " fill="#FAFAFA" style="stroke:#181818;stroke-width:0.5;"/><text fill="#000000" font-family="sans-serif" font-size="13" lengthAdjust="spacing" textLength="203" x="1533" y="1054.167">Job constructor validates Job name</text><line style="stroke:#181818;stroke-width:1.0;" x1="1397.5" x2="1439.5" y1="1089.375" y2="1089.375"/><line style="stroke:#181818;stroke-width:1.0;" x1="1439.5" x2="1439.5" y1="1089.375" y2="1102.375"/><line style="stroke:#181818;stroke-width:1.0;" x1="1398.5" x2="1439.5" y1="1102.375" y2="1102.375"/><polygon fill="#181818" points="1408.5,1098.375,1398.5,1102.375,1408.5,1106.375,1404.5,1102.375" style="stroke:#181818;stroke-width:1.0;"/><text fill="#000000" font-family="sans-serif" font-size="13" font-weight="bold" lengthAdjust="spacing" textLength="14" x="1404.5" y="1084.5186">29</text><text fill="#000000" font-family="sans-serif" font-size="13" lengthAdjust="spacing" textLength="66" x="1422.5" y="1084.5186">addJob(job)</text><line style="stroke:#181818;stroke-width:1.0;" x1="1397.5" x2="1439.5" y1="1137.7266" y2="1137.7266"/><line style="stroke:#181818;stroke-width:1.0;" x1="1439.5" x2="1439.5" y1="1137.7266" y2="1150.7266"/><line style="stroke:#181818;stroke-width:1.0;" x1="1392.5" x2="1439.5" y1="1150.7266" y2="1150.7266"/><polygon fill="#181818" points="1402.5,1146.7266,1392.5,1150.7266,1402.5,1154.7266,1398.5,1150.7266" style="stroke:#181818;stroke-width:1.0;"/><text fill="#000000" font-family="sans-serif" font-size="13" font-weight="bold" lengthAdjust="spacing" textLength="14" x="1404.5" y="1132.8701">30</text><text fill="#000000" font-family="sans-serif" font-size="13" lengthAdjust="spacing" textLength="88" x="1422.5" y="1132.8701">validateJob(job)</text><line style="stroke:#181818;stroke-width:1.0;stroke-dasharray:2.0,2.0;" x1="1392.5" x2="1434.5" y1="1176.0781" y2="1176.0781"/><line style="stroke:#181818;stroke-width:1.0;stroke-dasharray:2.0,2.0;" x1="1434.5" x2="1434.5" y1="1176.0781" y2="1189.0781"/><line style="stroke:#181818;stroke-width:1.0;stroke-dasharray:2.0,2.0;" x1="1393.5" x2="1434.5" y1="1189.0781" y2="1189.0781"/><polygon fill="#181818" points="1403.5,1185.0781,1393.5,1189.0781,1403.5,1193.0781,1399.5,1189.0781" style="stroke:#181818;stroke-width:1.0;"/><text fill="#000000" font-family="sans-serif" font-size="13" font-weight="bold" lengthAdjust="spacing" textLength="14" x="1399.5" y="1171.2217">31</text><text fill="#000000" font-family="sans-serif" font-size="13" lengthAdjust="spacing" textLength="4" x="1417.5" y="1171.2217">&#160;</text><line style="stroke:#181818;stroke-width:1.0;stroke-dasharray:2.0,2.0;" x1="1392.5" x2="1434.5" y1="1224.4297" y2="1224.4297"/><line style="stroke:#181818;stroke-width:1.0;stroke-dasharray:2.0,2.0;" x1="1434.5" x2="1434.5" y1="1224.4297" y2="1237.4297"/><line style="stroke:#181818;stroke-width:1.0;stroke-dasharray:2.0,2.0;" x1="1387.5" x2="1434.5" y1="1237.4297" y2="1237.4297"/><polygon fill="#181818" points="1397.5,1233.4297,1387.5,1237.4297,1397.5,1241.4297,1393.5,1237.4297" style="stroke:#181818;stroke-width:1.0;"/><text fill="#000000" font-family="sans-serif" font-size="13" font-weight="bold" lengthAdjust="spacing" textLength="14" x="1399.5" y="1219.5732">32</text><text fill="#000000" font-family="sans-serif" font-size="13" lengthAdjust="spacing" textLength="4" x="1417.5" y="1219.5732">&#160;</text><polygon fill="#181818" points="429,1258.7813,419,1262.7813,429,1266.7813,425,1262.7813" style="stroke:#181818;stroke-width:1.0;"/><line style="stroke:#181818;stroke-width:1.0;stroke-dasharray:2.0,2.0;" x1="423" x2="1386.5" y1="1262.7813" y2="1262.7813"/><text fill="#000000" font-family="sans-serif" font-size="13" font-weight="bold" lengthAdjust="spacing" textLength="14" x="435" y="1257.9248">33</text><text fill="#000000" font-family="sans-serif" font-size="13" lengthAdjust="spacing" textLength="17" x="453" y="1257.9248">job</text><polygon fill="#181818" points="269,1289.1328,259,1293.1328,269,1297.1328,265,1293.1328" style="stroke:#181818;stroke-width:1.0;"/><line style="stroke:#181818;stroke-width:1.0;stroke-dasharray:2.0,2.0;" x1="263" x2="412" y1="1293.1328" y2="1293.1328"/><text fill="#000000" font-family="sans-serif" font-size="13" font-weight="bold" lengthAdjust="spacing" textLength="14" x="275" y="1288.2764">34</text><text fill="#000000" font-family="sans-serif" font-size="13" lengthAdjust="spacing" textLength="17" x="293" y="1288.2764">job</text><polygon fill="#181818" points="34,1319.4844,24,1323.4844,34,1327.4844,30,1323.4844" style="stroke:#181818;stroke-width:1.0;"/><line style="stroke:#181818;stroke-width:1.0;stroke-dasharray:2.0,2.0;" x1="28" x2="252" y1="1323.4844" y2="1323.4844"/><text fill="#000000" font-family="sans-serif" font-size="13" font-weight="bold" lengthAdjust="spacing" textLength="14" x="40" y="1318.6279">35</text><text fill="#000000" font-family="sans-serif" font-size="13" lengthAdjust="spacing" textLength="158" x="58" y="1318.6279">displays operation success</text><!--SRC=[rPPDRzim38Rl_XL2Bai61Bi7Gu6swqUA5YsS1BlqejYihTMHF4bkb_xwKV97P4jEkkDyC62BVFIA8YMgLyPBAkcEx0GNIIx53eYM5KIg6obfyaepMEbz0KH2eYdF2jT0vJGLxundv8KM2gA8LbhmQhS56KLVSfO2UH52RyMVY2PQI3AvZHycX2fo_kCXGePc2IifrsIok9H0DTo9xMPfBJRBCODBmRKKHG7I6bwku_k1QGobK0mdPA2iJVTZls9c3QYoxo8TZsVk0vxkpzTzZ_DAvzSqeIcWlVa0ZeDKCy4FizLhtQnluwkdldkbGAv0AJH7_ytXgrxywYhksmkPKSu-1lp5CtyC3bXAU6YSYq9SbveHt_GTS0FG3jzs-Exn8Z9xozvmR-okHgHvy8FCpt0VoG8jNnNHWYHs3mab7Dx9Bx7jZ3i4Rdlt4rtdI32W1URVxmgKLYIbcf8f2Y2Sxc1chLFm0ExqUb-2QWcG1X6d5QXSl0yfdvbTLTiTQuGVd-hC9ZEw96sk3qJsl6tYTx-jvu6GWJP9TOrrtIJMTEOR1-gYzbroXTMUm3GmRwYOUk3ly_a8sQshpiS9NmZjYJQrMAiSApjtgHtRbh2diu4T8GLaMbJaAsiglHPtMKc9IAUqWxBQqy7bjHoJGNWI88-fUv5baFvaEe-h0gPua8Pezk3mE6QX3MYonZF-sxKvhYV-V8S9c_nPfbFOKLRCZZ6heA5R5JrLNUmFuJf9wA8qdkxkqNMnxul_JpF_MEw73_UGwgE9VnBZf_rGKnX15YVsnDCvSbqHvoc4AB6ba0H5vSIzktfc8ugCrlZ6N4VSQhcbofVJbuIttoV09fur-L1TFJydY4CayDGkAr0VOu5j5gxf1wkpnCsKtix4DyVl4c-nlH6xObmMal2U__grPKtnvfvvbbmWGx8irqIysCQ0U8zHa0YiC5dPVl2D5WolHRoSMssU4yR7a2DVscX81zfj56YQcX04bGzjMrMTGz1ZiAVZr1hxp-Ed-ArlSmAQRYhwh7-T8BP1MVJwi86ZRJ7SiKD3j20fKsL1zug84gHDKcnraWJlkb1Nv1xcs2R-1G00]--></g></svg>