<?xml version="1.0" encoding="us-ascii" standalone="no"?><svg xmlns="http://www.w3.org/2000/svg" xmlns:xlink="http://www.w3.org/1999/xlink" contentStyleType="text/css" height="302px" preserveAspectRatio="none" style="width:259px;height:302px;background:#FFFFFF;" version="1.1" viewBox="0 0 259 302" width="259px" zoomAndPan="magnify"><defs/><g><!--class Teams--><g id="elem_Teams"><rect codeLine="5" fill="#F1F1F1" height="73.8633" id="Teams" rx="2.5" ry="2.5" style="stroke:#181818;stroke-width:0.5;" width="111" x="7" y="7"/><text fill="#000000" font-family="sans-serif" font-size="14" lengthAdjust="spacing" textLength="43" x="41" y="27.1074">Teams</text><line style="stroke:#181818;stroke-width:0.5;" x1="8" x2="117" y1="35.6211" y2="35.6211"/><rect fill="none" height="6" style="stroke:#C82930;stroke-width:1.0;" width="6" x="15" y="47.4316"/><text fill="#000000" font-family="sans-serif" font-size="14" lengthAdjust="spacing" textLength="85" x="27" y="54.7285">numElements</text><rect fill="none" height="6" style="stroke:#C82930;stroke-width:1.0;" width="6" x="15" y="66.0527"/><text fill="#000000" font-family="sans-serif" font-size="14" lengthAdjust="spacing" textLength="79" x="27" y="73.3496">skillsNeeded</text></g><!--class Tasks--><g id="elem_Tasks"><rect codeLine="10" fill="#F1F1F1" height="73.8633" id="Tasks" rx="2.5" ry="2.5" style="stroke:#181818;stroke-width:0.5;" width="110" x="83.5" y="222"/><text fill="#000000" font-family="sans-serif" font-size="14" lengthAdjust="spacing" textLength="38" x="119.5" y="242.1074">Tasks</text><line style="stroke:#181818;stroke-width:0.5;" x1="84.5" x2="192.5" y1="250.6211" y2="250.6211"/><rect fill="none" height="6" style="stroke:#C82930;stroke-width:1.0;" width="6" x="91.5" y="262.4316"/><text fill="#000000" font-family="sans-serif" font-size="14" lengthAdjust="spacing" textLength="84" x="103.5" y="269.7285">taskCategory</text><rect fill="none" height="6" style="stroke:#C82930;stroke-width:1.0;" width="6" x="91.5" y="281.0527"/><text fill="#000000" font-family="sans-serif" font-size="14" lengthAdjust="spacing" textLength="52" x="103.5" y="288.3496">toDoList</text></g><!--class Agenda--><g id="elem_Agenda"><rect codeLine="15" fill="#F1F1F1" height="36.6211" id="Agenda" rx="2.5" ry="2.5" style="stroke:#181818;stroke-width:0.5;" width="55" x="187" y="25.5"/><text fill="#000000" font-family="sans-serif" font-size="14" lengthAdjust="spacing" textLength="49" x="190" y="45.6074">Agenda</text><line style="stroke:#181818;stroke-width:0.5;" x1="188" x2="241" y1="54.1211" y2="54.1211"/></g><!--link Teams to Tasks--><g id="link_Teams_Tasks"><path codeLine="19" d="M68.61,81.18 C73.09,104.39 80.05,134.96 89.5,161 C97.03,181.75 107.91,203.79 117.51,221.62 " fill="none" id="Teams-Tasks" style="stroke:#181818;stroke-width:1.0;"/><polygon fill="#000000" points="96.1441,156.3675,95.9454,146.859,90.3944,148.7918,96.1441,156.3675" style="stroke:#000000;stroke-width:1.0;"/><text fill="#000000" font-family="sans-serif" font-size="13" lengthAdjust="spacing" textLength="67" x="103.5" y="157.0283">assigned to</text><text fill="#000000" font-family="sans-serif" font-size="13" lengthAdjust="spacing" textLength="7" x="62.0423" y="102.8095">1</text><text fill="#000000" font-family="sans-serif" font-size="13" lengthAdjust="spacing" textLength="20" x="92.1836" y="210.7995">0..*</text></g><!--link Agenda to Tasks--><g id="link_Agenda_Tasks"><path codeLine="20" d="M208.77,62.76 C201.36,85.59 187.91,126.4 175.5,161 C168.26,181.19 159.75,203.57 152.73,221.74 " fill="none" id="Agenda-Tasks" style="stroke:#181818;stroke-width:1.0;"/><polygon fill="#000000" points="184.8378,156.3611,190.6165,148.8075,185.073,146.8535,184.8378,156.3611" style="stroke:#000000;stroke-width:1.0;"/><text fill="#000000" font-family="sans-serif" font-size="13" lengthAdjust="spacing" textLength="56" x="195.5" y="157.0283">organizes</text><text fill="#000000" font-family="sans-serif" font-size="13" lengthAdjust="spacing" textLength="7" x="199.2894" y="84.2045">1</text><text fill="#000000" font-family="sans-serif" font-size="13" lengthAdjust="spacing" textLength="20" x="133.4835" y="210.6554">1..*</text></g><!--SRC=[LOtD2i8m48JlUOebHo75NZqKHBs99ryWD4CQcX_efWSLtztKHiNRpl1ziuCpe80y9CDYM4Blfjv3YDvhPhf21wQ7858Kvt3o28YPtvb7vprV00CZdbz3y_WnShaFEiEcwROMwPZEZlCFtrj4emk_LEitsKgbbDmspKRMkHqLrja8KoQe4zMgPFj7fidgwEvWwbu0]--></g></svg>