<?xml version="1.0" encoding="UTF-8" standalone="no"?><svg xmlns="http://www.w3.org/2000/svg" xmlns:xlink="http://www.w3.org/1999/xlink" contentStyleType="text/css" height="647px" preserveAspectRatio="none" style="width:472px;height:647px;background:#FFFFFF;" version="1.1" viewBox="0 0 472 647" width="472px" zoomAndPan="magnify"><defs/><g><!--class Employee--><g id="elem_Employee"><rect codeLine="7" fill="#F1F1F1" height="35.6094" id="Employee" rx="2.5" ry="2.5" style="stroke:#181818;stroke-width:0.5;" width="68" x="24.5624" y="7"/><text fill="#000000" font-family="sans-serif" font-size="14" lengthAdjust="spacing" textLength="62" x="27.5624" y="26.5332">Employee</text><line style="stroke:#181818;stroke-width:0.5;" x1="25.5624" x2="91.5624" y1="34.6094" y2="34.6094"/></g><!--class TeamMember--><g id="elem_TeamMember"><rect codeLine="10" fill="#F1F1F1" height="70.8281" id="TeamMember" rx="2.5" ry="2.5" style="stroke:#181818;stroke-width:0.5;" width="93" x="108.0624" y="394"/><text fill="#000000" font-family="sans-serif" font-size="14" lengthAdjust="spacing" textLength="87" x="111.0624" y="413.5332">TeamMember</text><line style="stroke:#181818;stroke-width:0.5;" x1="109.0624" x2="200.0624" y1="421.6094" y2="421.6094"/><rect fill="none" height="6" style="stroke:#C82930;stroke-width:1.0;" width="6" x="116.0624" y="432.9141"/><text fill="#000000" font-family="sans-serif" font-size="14" lengthAdjust="spacing" textLength="35" x="128.0624" y="440.1426">name</text><rect fill="none" height="6" style="stroke:#C82930;stroke-width:1.0;" width="6" x="116.0624" y="450.5234"/><text fill="#000000" font-family="sans-serif" font-size="14" lengthAdjust="spacing" textLength="11" x="128.0624" y="457.752">id</text></g><!--class HRM--><g id="elem_HRM"><rect codeLine="15" fill="#F1F1F1" height="35.6094" id="HRM" rx="2.5" ry="2.5" style="stroke:#181818;stroke-width:0.5;" width="36" x="269.5624" y="605"/><text fill="#000000" font-family="sans-serif" font-size="14" lengthAdjust="spacing" textLength="30" x="272.5624" y="624.5332">HRM</text><line style="stroke:#181818;stroke-width:0.5;" x1="270.5624" x2="304.5624" y1="632.6094" y2="632.6094"/></g><!--class Skills--><g id="elem_Skills"><rect codeLine="18" fill="#F1F1F1" height="53.2188" id="Skills" rx="2.5" ry="2.5" style="stroke:#181818;stroke-width:0.5;" width="61" x="296.0624" y="192"/><text fill="#000000" font-family="sans-serif" font-size="14" lengthAdjust="spacing" textLength="32" x="310.5624" y="211.5332">Skills</text><line style="stroke:#181818;stroke-width:0.5;" x1="297.0624" x2="356.0624" y1="219.6094" y2="219.6094"/><rect fill="none" height="6" style="stroke:#C82930;stroke-width:1.0;" width="6" x="304.0624" y="230.9141"/><text fill="#000000" font-family="sans-serif" font-size="14" lengthAdjust="spacing" textLength="35" x="316.0624" y="238.1426">name</text></g><!--class Teams--><g id="elem_Teams"><rect codeLine="22" fill="#F1F1F1" height="70.8281" id="Teams" rx="2.5" ry="2.5" style="stroke:#181818;stroke-width:0.5;" width="111" x="86.0624" y="183"/><text fill="#000000" font-family="sans-serif" font-size="14" lengthAdjust="spacing" textLength="43" x="120.0624" y="202.5332">Teams</text><line style="stroke:#181818;stroke-width:0.5;" x1="87.0624" x2="196.0624" y1="210.6094" y2="210.6094"/><rect fill="none" height="6" style="stroke:#C82930;stroke-width:1.0;" width="6" x="94.0624" y="221.9141"/><text fill="#000000" font-family="sans-serif" font-size="14" lengthAdjust="spacing" textLength="85" x="106.0624" y="229.1426">numElements</text><rect fill="none" height="6" style="stroke:#C82930;stroke-width:1.0;" width="6" x="94.0624" y="239.5234"/><text fill="#000000" font-family="sans-serif" font-size="14" lengthAdjust="spacing" textLength="79" x="106.0624" y="246.752">skillsNeeded</text></g><!--link Employee to TeamMember--><g id="link_Employee_TeamMember"><path codeLine="27" d="M49.6624,43.4 C36.8024,68.53 14.5624,112 14.5624,112 C14.5624,112 14.5624,112 14.5624,325 C14.5624,325 67.2224,363.93 107.9424,394.04 " fill="none" id="Employee-TeamMember" style="stroke:#181818;stroke-width:1.0;"/><polygon fill="#000000" points="20.3822,223.6081,21.7983,214.2036,16,215.1673,20.3822,223.6081" style="stroke:#000000;stroke-width:1.0;"/><text fill="#000000" font-family="sans-serif" font-size="13" lengthAdjust="spacing" textLength="21" x="28.5624" y="223.9951">is a</text><text fill="#000000" font-family="sans-serif" font-size="13" lengthAdjust="spacing" textLength="7" x="39.3299" y="64.0898">1</text><text fill="#000000" font-family="sans-serif" font-size="13" lengthAdjust="spacing" textLength="7" x="92.9545" y="384.6504">1</text></g><!--link Employee to Teams--><g id="link_Employee_Teams"><path codeLine="28" d="M66.0724,43.33 C79.6824,74.73 108.6524,141.56 126.4824,182.7 " fill="none" id="Employee-Teams" style="stroke:#181818;stroke-width:1.0;"/><polygon fill="#000000" points="107.5509,117.7634,106.6502,108.2955,101.2572,110.6332,107.5509,117.7634" style="stroke:#000000;stroke-width:1.0;"/><text fill="#000000" font-family="sans-serif" font-size="13" lengthAdjust="spacing" textLength="53" x="114.5624" y="118.4951">manages</text><text fill="#000000" font-family="sans-serif" font-size="13" lengthAdjust="spacing" textLength="7" x="60.1501" y="64.001">1</text><text fill="#000000" font-family="sans-serif" font-size="13" lengthAdjust="spacing" textLength="20" x="101.8583" y="172.1677">0..*</text></g><!--link TeamMember to HRM--><g id="link_TeamMember_HRM"><path codeLine="30" d="M178.6524,465.18 C207.2424,506.35 253.7924,573.38 275.5924,604.77 " fill="none" id="TeamMember-HRM" style="stroke:#181818;stroke-width:1.0;"/><polygon fill="#000000" points="240.4144,539.2826,237.669,530.1769,232.8411,533.5297,240.4144,539.2826" style="stroke:#000000;stroke-width:1.0;"/><text fill="#000000" font-family="sans-serif" font-size="13" lengthAdjust="spacing" textLength="71" x="246.5624" y="540.4951">managed by</text><text fill="#000000" font-family="sans-serif" font-size="13" lengthAdjust="spacing" textLength="20" x="161.0741" y="486.2276">1..*</text><text fill="#000000" font-family="sans-serif" font-size="13" lengthAdjust="spacing" textLength="7" x="263.6613" y="594.0226">1</text></g><!--link Skills to HRM--><g id="link_Skills_HRM"><path codeLine="32" d="M342.1324,245.08 C360.7924,275.73 389.5624,323 389.5624,323 C389.5624,323 389.5624,323 389.5624,536 C389.5624,536 335.1324,581.89 305.8024,606.62 " fill="none" id="Skills-HRM" style="stroke:#181818;stroke-width:1.0;"/><polygon fill="#000000" points="394.0625,434.6507,397.891,425.9448,392.0426,425.3571,394.0625,434.6507" style="stroke:#000000;stroke-width:1.0;"/><text fill="#000000" font-family="sans-serif" font-size="13" lengthAdjust="spacing" textLength="61" x="403.5624" y="434.9951">created by</text><text fill="#000000" font-family="sans-serif" font-size="13" lengthAdjust="spacing" textLength="20" x="323.4205" y="266.5871">1..*</text><text fill="#000000" font-family="sans-serif" font-size="13" lengthAdjust="spacing" textLength="7" x="313.5473" y="595.5619">1</text></g><!--link Skills to TeamMember--><g id="link_Skills_TeamMember"><path codeLine="33" d="M305.4724,245.13 C274.7024,282.52 217.4324,352.11 182.9724,393.97 " fill="none" id="Skills-TeamMember" style="stroke:#181818;stroke-width:1.0;"/><polygon fill="#000000" points="249.385,328.0364,257.4022,322.9201,252.8638,319.1849,249.385,328.0364" style="stroke:#000000;stroke-width:1.0;"/><text fill="#000000" font-family="sans-serif" font-size="13" lengthAdjust="spacing" textLength="67" x="261.5624" y="329.4951">assigned to</text><text fill="#000000" font-family="sans-serif" font-size="13" lengthAdjust="spacing" textLength="20" x="278.2828" y="266.6487">0..*</text><text fill="#000000" font-family="sans-serif" font-size="13" lengthAdjust="spacing" textLength="7" x="180.7209" y="383.2171">1</text></g><!--link Teams to TeamMember--><g id="link_Teams_TeamMember"><path codeLine="35" d="M143.7024,254.17 C145.7624,287.55 148.5624,333 148.5624,333 C148.5624,333 150.6624,366.45 152.3824,393.75 " fill="none" id="Teams-TeamMember" style="stroke:#181818;stroke-width:1.0;"/><polygon fill="#000000" points="153.8727,329.1661,156.2446,319.9561,150.3781,320.3209,153.8727,329.1661" style="stroke:#000000;stroke-width:1.0;"/><text fill="#000000" font-family="sans-serif" font-size="13" lengthAdjust="spacing" textLength="48" x="162.5624" y="329.4951">includes</text><text fill="#000000" font-family="sans-serif" font-size="13" lengthAdjust="spacing" textLength="7" x="136.4686" y="275.2159">1</text><text fill="#000000" font-family="sans-serif" font-size="13" lengthAdjust="spacing" textLength="20" x="130.1367" y="383.227">0..*</text></g><!--SRC=[ROyz3i8m34RtdiBgY5G4AmCR4WiCm0LCOa64dLPrEbI8kvFq1rh14YNs-vndVJXVOOq2x3o5jYAeIcxJ8ylkpX88XNjfjNyOLnkE7SEe2Zkfk6o9u9cznjg5K0uaLwfZ5Q00ZqBGtPo5BxS_7QQnyyCnwomo6_bfDR9Z4l91-w7Q1Oz4bcoAV9poTLuKHJodIXjm2WZR7sorN2xouQSD27gyaKOkcuJpTOA6eSb_12rSsyGEI_pXJ4qOHcx4LXDivXYNTZSVyL325de7_JNzxkGDDxRpVGC0]--></g></svg>