<?xml version="1.0" encoding="us-ascii" standalone="no"?><svg xmlns="http://www.w3.org/2000/svg" xmlns:xlink="http://www.w3.org/1999/xlink" contentStyleType="text/css" height="453px" preserveAspectRatio="none" style="width:524px;height:453px;background:#FFFFFF;" version="1.1" viewBox="0 0 524 453" width="524px" zoomAndPan="magnify"><defs/><g><!--class Employee--><g id="elem_Employee"><rect codeLine="7" fill="#F1F1F1" height="35.6094" id="Employee" rx="2.5" ry="2.5" style="stroke:#181818;stroke-width:0.5;" width="68" x="97.5" y="15.5"/><text fill="#000000" font-family="sans-serif" font-size="14" lengthAdjust="spacing" textLength="62" x="100.5" y="35.0332">Employee</text><line style="stroke:#181818;stroke-width:0.5;" x1="98.5" x2="164.5" y1="43.1094" y2="43.1094"/></g><!--class TeamMember--><g id="elem_TeamMember"><rect codeLine="10" fill="#F1F1F1" height="70.8281" id="TeamMember" rx="2.5" ry="2.5" style="stroke:#181818;stroke-width:0.5;" width="93" x="256" y="200"/><text fill="#000000" font-family="sans-serif" font-size="14" lengthAdjust="spacing" textLength="87" x="259" y="219.5332">TeamMember</text><line style="stroke:#181818;stroke-width:0.5;" x1="257" x2="348" y1="227.6094" y2="227.6094"/><rect fill="none" height="6" style="stroke:#C82930;stroke-width:1.0;" width="6" x="264" y="238.9141"/><text fill="#000000" font-family="sans-serif" font-size="14" lengthAdjust="spacing" textLength="35" x="276" y="246.1426">name</text><rect fill="none" height="6" style="stroke:#C82930;stroke-width:1.0;" width="6" x="264" y="256.5234"/><text fill="#000000" font-family="sans-serif" font-size="14" lengthAdjust="spacing" textLength="11" x="276" y="263.752">id</text></g><!--class HRM--><g id="elem_HRM"><rect codeLine="15" fill="#F1F1F1" height="35.6094" id="HRM" rx="2.5" ry="2.5" style="stroke:#181818;stroke-width:0.5;" width="36" x="353.5" y="411"/><text fill="#000000" font-family="sans-serif" font-size="14" lengthAdjust="spacing" textLength="30" x="356.5" y="430.5332">HRM</text><line style="stroke:#181818;stroke-width:0.5;" x1="354.5" x2="388.5" y1="438.6094" y2="438.6094"/></g><!--class Skills--><g id="elem_Skills"><rect codeLine="18" fill="#F1F1F1" height="53.2188" id="Skills" rx="2.5" ry="2.5" style="stroke:#181818;stroke-width:0.5;" width="61" x="343" y="7"/><text fill="#000000" font-family="sans-serif" font-size="14" lengthAdjust="spacing" textLength="32" x="357.5" y="26.5332">Skills</text><line style="stroke:#181818;stroke-width:0.5;" x1="344" x2="403" y1="34.6094" y2="34.6094"/><rect fill="none" height="6" style="stroke:#C82930;stroke-width:1.0;" width="6" x="351" y="45.9141"/><text fill="#000000" font-family="sans-serif" font-size="14" lengthAdjust="spacing" textLength="35" x="363" y="53.1426">name</text></g><!--class Teams--><g id="elem_Teams"><rect codeLine="22" fill="#F1F1F1" height="70.8281" id="Teams" rx="2.5" ry="2.5" style="stroke:#181818;stroke-width:0.5;" width="111" x="7" y="200"/><text fill="#000000" font-family="sans-serif" font-size="14" lengthAdjust="spacing" textLength="43" x="41" y="219.5332">Teams</text><line style="stroke:#181818;stroke-width:0.5;" x1="8" x2="117" y1="227.6094" y2="227.6094"/><rect fill="none" height="6" style="stroke:#C82930;stroke-width:1.0;" width="6" x="15" y="238.9141"/><text fill="#000000" font-family="sans-serif" font-size="14" lengthAdjust="spacing" textLength="85" x="27" y="246.1426">numElements</text><rect fill="none" height="6" style="stroke:#C82930;stroke-width:1.0;" width="6" x="15" y="256.5234"/><text fill="#000000" font-family="sans-serif" font-size="14" lengthAdjust="spacing" textLength="79" x="27" y="263.752">skillsNeeded</text></g><!--link Employee to TeamMember--><g id="link_Employee_TeamMember"><path codeLine="27" d="M146.08,51.55 C174.11,84.33 235.99,156.71 272.97,199.96 " fill="none" id="Employee-TeamMember" style="stroke:#181818;stroke-width:1.0;"/><polygon fill="#000000" points="222.2507,126.3755,225.8949,135.1602,230.3625,131.3404,222.2507,126.3755" style="stroke:#000000;stroke-width:1.0;"/><text fill="#000000" font-family="sans-serif" font-size="13" lengthAdjust="spacing" textLength="21" x="234.5" y="135.4951">is a</text><text fill="#000000" font-family="sans-serif" font-size="13" lengthAdjust="spacing" textLength="7" x="142.1963" y="72.476">1</text><text fill="#000000" font-family="sans-serif" font-size="13" lengthAdjust="spacing" textLength="7" x="259.6737" y="189.2052">1</text></g><!--link Employee to Teams--><g id="link_Employee_Teams"><path codeLine="28" d="M123.2,51.59 C110.96,76.8 89.5,121 89.5,121 C89.5,121 78.69,166.45 70.75,199.83 " fill="none" id="Employee-Teams" style="stroke:#181818;stroke-width:1.0;"/><polygon fill="#000000" points="92.8322,134.8894,98.6199,127.3427,93.0786,125.3821,92.8322,134.8894" style="stroke:#000000;stroke-width:1.0;"/><text fill="#000000" font-family="sans-serif" font-size="13" lengthAdjust="spacing" textLength="53" x="103.5" y="135.4951">manages</text><text fill="#000000" font-family="sans-serif" font-size="13" lengthAdjust="spacing" textLength="7" x="112.8813" y="72.5273">1</text><text fill="#000000" font-family="sans-serif" font-size="13" lengthAdjust="spacing" textLength="20" x="50.4164" y="189.0504">0..*</text></g><!--link TeamMember to HRM--><g id="link_TeamMember_HRM"><path codeLine="30" d="M310.75,271.17 C318.69,304.55 329.5,350 329.5,350 C329.5,350 349.81,387.71 362.18,410.69 " fill="none" id="TeamMember-HRM" style="stroke:#181818;stroke-width:1.0;"/><polygon fill="#000000" points="336.2294,345.8672,335.8585,336.3639,330.3434,338.3968,336.2294,345.8672" style="stroke:#000000;stroke-width:1.0;"/><text fill="#000000" font-family="sans-serif" font-size="13" lengthAdjust="spacing" textLength="71" x="343.5" y="346.4951">managed by</text><text fill="#000000" font-family="sans-serif" font-size="13" lengthAdjust="spacing" textLength="20" x="290.4492" y="292.2159">1..*</text><text fill="#000000" font-family="sans-serif" font-size="13" lengthAdjust="spacing" textLength="7" x="351.2539" y="400.2413">1</text></g><!--link Skills to HRM--><g id="link_Skills_HRM"><path codeLine="32" d="M392.08,60.32 C412.21,88.3 441.5,129 441.5,129 C441.5,129 441.5,129 441.5,342 C441.5,342 406.12,385.47 385.67,410.6 " fill="none" id="Skills-HRM" style="stroke:#181818;stroke-width:1.0;"/><polygon fill="#000000" points="446.4085,240.6749,449.5124,231.6851,443.6356,231.5776,446.4085,240.6749" style="stroke:#000000;stroke-width:1.0;"/><text fill="#000000" font-family="sans-serif" font-size="13" lengthAdjust="spacing" textLength="61" x="455.5" y="240.9951">created by</text><text fill="#000000" font-family="sans-serif" font-size="13" lengthAdjust="spacing" textLength="20" x="374.0641" y="81.8826">1..*</text><text fill="#000000" font-family="sans-serif" font-size="13" lengthAdjust="spacing" textLength="7" x="381.9377" y="400.1238">1</text></g><!--link Skills to TeamMember--><g id="link_Skills_TeamMember"><path codeLine="33" d="M361.5,60.45 C349.72,85.93 333.5,121 333.5,121 C333.5,121 321.09,166.45 311.97,199.83 " fill="none" id="Skills-TeamMember" style="stroke:#181818;stroke-width:1.0;"/><polygon fill="#000000" points="336.8258,134.8871,342.6237,127.3483,337.0852,125.3801,336.8258,134.8871" style="stroke:#000000;stroke-width:1.0;"/><text fill="#000000" font-family="sans-serif" font-size="13" lengthAdjust="spacing" textLength="67" x="347.5" y="135.4951">assigned to</text><text fill="#000000" font-family="sans-serif" font-size="13" lengthAdjust="spacing" textLength="20" x="336.6875" y="81.605">0..*</text><text fill="#000000" font-family="sans-serif" font-size="13" lengthAdjust="spacing" textLength="7" x="306.108" y="189.0504">1</text></g><!--SRC=[RO_1Zi8m34Jl-OfHZoiLmHMjk27jXJt0_e3RM10HfrMTFLI8Vz-aj6mhk4In_MOyrgiBBNKay2vmx5j6s_W-5yPSd6K8nqjZzL7KhgjzcjIULB6NrZSzCsxcFlL-cEJ0Kd6Nka29GC8OVixYd_iw7kQoqzLvhml9ml8v-fMzP-4GzM6gW_2RsRBDacUcObEKPPdUUQGjd8Bm-OAjLwkFOjoqXL2WCojsnip4nIP3esdEFu4MLP_PyOWtNDqnnOcRiFKCMsHCHxjpI7Xii8Fv0m00]--></g></svg>