<?xml version="1.0" encoding="us-ascii" standalone="no"?><svg xmlns="http://www.w3.org/2000/svg" xmlns:xlink="http://www.w3.org/1999/xlink" contentStyleType="text/css" height="314px" preserveAspectRatio="none" style="width:385px;height:314px;background:#FFFFFF;" version="1.1" viewBox="0 0 385 314" width="385px" zoomAndPan="magnify"><defs/><g><!--class HRM--><g id="elem_HRM"><rect codeLine="12" fill="#FEFECE" height="48" id="HRM" rx="2.5" ry="2.5" style="stroke:#2ECC71;stroke-width:0.5;" width="62" x="169" y="7"/><ellipse cx="184" cy="23" fill="#ADD1B2" rx="11" ry="11" style="stroke:#181818;stroke-width:1.0;"/><path d="M186.7656,18.875 Q186.9219,18.6563 187.1094,18.5469 Q187.2969,18.4375 187.5156,18.4375 Q187.8906,18.4375 188.125,18.7031 Q188.3594,18.9531 188.3594,19.5625 L188.3594,21.0156 Q188.3594,21.625 188.125,21.8906 Q187.8906,22.1563 187.5156,22.1563 Q187.1719,22.1563 186.9688,21.9531 Q186.7656,21.7656 186.6563,21.25 Q186.6094,20.8906 186.4219,20.7031 Q186.0938,20.3281 185.4844,20.1094 Q184.875,19.8906 184.25,19.8906 Q183.4844,19.8906 182.8438,20.2188 Q182.2188,20.5469 181.7188,21.2969 Q181.2344,22.0469 181.2344,23.0781 L181.2344,24.1719 Q181.2344,25.4063 182.125,26.2344 Q183.0156,27.0469 184.6094,27.0469 Q185.5469,27.0469 186.2031,26.7969 Q186.5938,26.6406 187.0156,26.2031 Q187.2813,25.9375 187.4219,25.8594 Q187.5781,25.7813 187.7813,25.7813 Q188.1094,25.7813 188.3594,26.0469 Q188.625,26.2969 188.625,26.6406 Q188.625,26.9844 188.2813,27.3906 Q187.7813,27.9688 186.9844,28.2969 Q185.9063,28.75 184.6094,28.75 Q183.0938,28.75 181.8906,28.125 Q180.9063,27.625 180.2188,26.5625 Q179.5313,25.4844 179.5313,24.2031 L179.5313,23.0469 Q179.5313,21.7188 180.1406,20.5781 Q180.7656,19.4219 181.8594,18.8125 Q182.9531,18.1875 184.1875,18.1875 Q184.9219,18.1875 185.5625,18.3594 Q186.2188,18.5156 186.7656,18.875 Z " fill="#000000"/><text fill="#000000" font-family="sans-serif" font-size="14" lengthAdjust="spacing" textLength="30" x="198" y="28.7285">HRM</text><line style="stroke:#2ECC71;stroke-width:0.5;" x1="170" x2="230" y1="39" y2="39"/><line style="stroke:#2ECC71;stroke-width:0.5;" x1="170" x2="230" y1="47" y2="47"/></g><!--class Collaborator--><g id="elem_Collaborator"><rect codeLine="15" fill="#FEFECE" height="48" id="Collaborator" rx="2.5" ry="2.5" style="stroke:#2ECC71;stroke-width:0.5;" width="110" x="7" y="133"/><ellipse cx="22" cy="149" fill="#ADD1B2" rx="11" ry="11" style="stroke:#181818;stroke-width:1.0;"/><path d="M24.7656,144.875 Q24.9219,144.6563 25.1094,144.5469 Q25.2969,144.4375 25.5156,144.4375 Q25.8906,144.4375 26.125,144.7031 Q26.3594,144.9531 26.3594,145.5625 L26.3594,147.0156 Q26.3594,147.625 26.125,147.8906 Q25.8906,148.1563 25.5156,148.1563 Q25.1719,148.1563 24.9688,147.9531 Q24.7656,147.7656 24.6563,147.25 Q24.6094,146.8906 24.4219,146.7031 Q24.0938,146.3281 23.4844,146.1094 Q22.875,145.8906 22.25,145.8906 Q21.4844,145.8906 20.8438,146.2188 Q20.2188,146.5469 19.7188,147.2969 Q19.2344,148.0469 19.2344,149.0781 L19.2344,150.1719 Q19.2344,151.4063 20.125,152.2344 Q21.0156,153.0469 22.6094,153.0469 Q23.5469,153.0469 24.2031,152.7969 Q24.5938,152.6406 25.0156,152.2031 Q25.2813,151.9375 25.4219,151.8594 Q25.5781,151.7813 25.7813,151.7813 Q26.1094,151.7813 26.3594,152.0469 Q26.625,152.2969 26.625,152.6406 Q26.625,152.9844 26.2813,153.3906 Q25.7813,153.9688 24.9844,154.2969 Q23.9063,154.75 22.6094,154.75 Q21.0938,154.75 19.8906,154.125 Q18.9063,153.625 18.2188,152.5625 Q17.5313,151.4844 17.5313,150.2031 L17.5313,149.0469 Q17.5313,147.7188 18.1406,146.5781 Q18.7656,145.4219 19.8594,144.8125 Q20.9531,144.1875 22.1875,144.1875 Q22.9219,144.1875 23.5625,144.3594 Q24.2188,144.5156 24.7656,144.875 Z " fill="#000000"/><text fill="#000000" font-family="sans-serif" font-size="14" lengthAdjust="spacing" textLength="78" x="36" y="154.7285">Collaborator</text><line style="stroke:#2ECC71;stroke-width:0.5;" x1="8" x2="116" y1="165" y2="165"/><line style="stroke:#2ECC71;stroke-width:0.5;" x1="8" x2="116" y1="173" y2="173"/></g><!--class Skill--><g id="elem_Skill"><rect codeLine="18" fill="#FEFECE" height="48" id="Skill" rx="2.5" ry="2.5" style="stroke:#2ECC71;stroke-width:0.5;" width="57" x="229.5" y="133"/><ellipse cx="244.5" cy="149" fill="#ADD1B2" rx="11" ry="11" style="stroke:#181818;stroke-width:1.0;"/><path d="M247.2656,144.875 Q247.4219,144.6563 247.6094,144.5469 Q247.7969,144.4375 248.0156,144.4375 Q248.3906,144.4375 248.625,144.7031 Q248.8594,144.9531 248.8594,145.5625 L248.8594,147.0156 Q248.8594,147.625 248.625,147.8906 Q248.3906,148.1563 248.0156,148.1563 Q247.6719,148.1563 247.4688,147.9531 Q247.2656,147.7656 247.1563,147.25 Q247.1094,146.8906 246.9219,146.7031 Q246.5938,146.3281 245.9844,146.1094 Q245.375,145.8906 244.75,145.8906 Q243.9844,145.8906 243.3438,146.2188 Q242.7188,146.5469 242.2188,147.2969 Q241.7344,148.0469 241.7344,149.0781 L241.7344,150.1719 Q241.7344,151.4063 242.625,152.2344 Q243.5156,153.0469 245.1094,153.0469 Q246.0469,153.0469 246.7031,152.7969 Q247.0938,152.6406 247.5156,152.2031 Q247.7813,151.9375 247.9219,151.8594 Q248.0781,151.7813 248.2813,151.7813 Q248.6094,151.7813 248.8594,152.0469 Q249.125,152.2969 249.125,152.6406 Q249.125,152.9844 248.7813,153.3906 Q248.2813,153.9688 247.4844,154.2969 Q246.4063,154.75 245.1094,154.75 Q243.5938,154.75 242.3906,154.125 Q241.4063,153.625 240.7188,152.5625 Q240.0313,151.4844 240.0313,150.2031 L240.0313,149.0469 Q240.0313,147.7188 240.6406,146.5781 Q241.2656,145.4219 242.3594,144.8125 Q243.4531,144.1875 244.6875,144.1875 Q245.4219,144.1875 246.0625,144.3594 Q246.7188,144.5156 247.2656,144.875 Z " fill="#000000"/><text fill="#000000" font-family="sans-serif" font-size="14" lengthAdjust="spacing" textLength="25" x="258.5" y="154.7285">Skill</text><line style="stroke:#2ECC71;stroke-width:0.5;" x1="230.5" x2="285.5" y1="165" y2="165"/><line style="stroke:#2ECC71;stroke-width:0.5;" x1="230.5" x2="285.5" y1="173" y2="173"/></g><!--class Team--><g id="elem_Team"><rect codeLine="21" fill="#FEFECE" height="48" id="Team" rx="2.5" ry="2.5" style="stroke:#2ECC71;stroke-width:0.5;" width="68" x="224" y="259"/><ellipse cx="239" cy="275" fill="#ADD1B2" rx="11" ry="11" style="stroke:#181818;stroke-width:1.0;"/><path d="M241.7656,270.875 Q241.9219,270.6563 242.1094,270.5469 Q242.2969,270.4375 242.5156,270.4375 Q242.8906,270.4375 243.125,270.7031 Q243.3594,270.9531 243.3594,271.5625 L243.3594,273.0156 Q243.3594,273.625 243.125,273.8906 Q242.8906,274.1563 242.5156,274.1563 Q242.1719,274.1563 241.9688,273.9531 Q241.7656,273.7656 241.6563,273.25 Q241.6094,272.8906 241.4219,272.7031 Q241.0938,272.3281 240.4844,272.1094 Q239.875,271.8906 239.25,271.8906 Q238.4844,271.8906 237.8438,272.2188 Q237.2188,272.5469 236.7188,273.2969 Q236.2344,274.0469 236.2344,275.0781 L236.2344,276.1719 Q236.2344,277.4063 237.125,278.2344 Q238.0156,279.0469 239.6094,279.0469 Q240.5469,279.0469 241.2031,278.7969 Q241.5938,278.6406 242.0156,278.2031 Q242.2813,277.9375 242.4219,277.8594 Q242.5781,277.7813 242.7813,277.7813 Q243.1094,277.7813 243.3594,278.0469 Q243.625,278.2969 243.625,278.6406 Q243.625,278.9844 243.2813,279.3906 Q242.7813,279.9688 241.9844,280.2969 Q240.9063,280.75 239.6094,280.75 Q238.0938,280.75 236.8906,280.125 Q235.9063,279.625 235.2188,278.5625 Q234.5313,277.4844 234.5313,276.2031 L234.5313,275.0469 Q234.5313,273.7188 235.1406,272.5781 Q235.7656,271.4219 236.8594,270.8125 Q237.9531,270.1875 239.1875,270.1875 Q239.9219,270.1875 240.5625,270.3594 Q241.2188,270.5156 241.7656,270.875 Z " fill="#000000"/><text fill="#000000" font-family="sans-serif" font-size="14" lengthAdjust="spacing" textLength="36" x="253" y="280.7285">Team</text><line style="stroke:#2ECC71;stroke-width:0.5;" x1="225" x2="291" y1="291" y2="291"/><line style="stroke:#2ECC71;stroke-width:0.5;" x1="225" x2="291" y1="299" y2="299"/></g><!--link HRM to Collaborator--><g id="link_HRM_Collaborator"><path codeLine="24" d="M168.88,37.1 C140.63,43.39 99.98,56.93 77,85 C66.07,98.35 62.9039,111.761 61.9839,126.901 " fill="none" id="HRM-to-Collaborator" style="stroke:#3498DB;stroke-width:1.0;"/><polygon fill="#3498DB" points="61.62,132.89,66.1585,124.1492,61.9233,127.8992,58.1733,123.664,61.62,132.89" style="stroke:#3498DB;stroke-width:1.0;"/><polygon fill="#000000" points="78.1716,97.3919,86.9876,93.8241,83.2068,89.3236,78.1716,97.3919" style="stroke:#000000;stroke-width:1.0;"/><text fill="#000000" font-family="sans-serif" font-size="13" lengthAdjust="spacing" textLength="53" x="91" y="99.4951">manages</text></g><!--link HRM to Collaborator--><!--link HRM to Skill--><g id="link_HRM_Skill"><path codeLine="25" d="M210.77,55.03 C221.13,77.17 234.1475,105.0053 244.5475,127.2353 " fill="none" id="HRM-to-Skill" style="stroke:#3498DB;stroke-width:1.0;"/><polygon fill="#3498DB" points="247.09,132.67,246.8993,122.823,244.9712,128.1411,239.6531,126.213,247.09,132.67" style="stroke:#3498DB;stroke-width:1.0;"/><polygon fill="#000000" points="240.1186,98.7047,238.948,89.2665,233.6239,91.7571,240.1186,98.7047" style="stroke:#000000;stroke-width:1.0;"/><text fill="#000000" font-family="sans-serif" font-size="13" lengthAdjust="spacing" textLength="35" x="247" y="99.4951">needs</text></g><!--link HRM to Team--><g id="link_HRM_Team"><path codeLine="26" d="M231.27,43.01 C251.14,51.54 275.87,65.27 291,85 C304.45,102.54 301.09,111.09 304,133 C306.81,154.15 308.18,160.08 304,181 C299.47,203.66 293.54,207.95 284,229 C279.52,238.9 276.957,244.3053 272.367,253.5553 " fill="none" id="HRM-to-Team" style="stroke:#3498DB;stroke-width:1.0;"/><polygon fill="#3498DB" points="269.7,258.93,277.2836,252.646,271.9225,254.4511,270.1174,249.09,269.7,258.93" style="stroke:#3498DB;stroke-width:1.0;"/><polygon fill="#000000" points="312.9579,162.0832,314.1095,152.6426,308.3406,153.7687,312.9579,162.0832" style="stroke:#000000;stroke-width:1.0;"/><text fill="#000000" font-family="sans-serif" font-size="13" lengthAdjust="spacing" textLength="56" x="321" y="162.4951">organizes</text></g><!--reverse link Collaborator to Skill--><g id="link_Collaborator_Skill"><path codeLine="27" d="M123.12,157 C159.58,157 199.9,157 229.26,157 " fill="none" id="Collaborator-backto-Skill" style="stroke:#3498DB;stroke-width:1.0;"/><polygon fill="#3498DB" points="117.12,157,126.12,161,122.12,157,126.12,153,117.12,157" style="stroke:#3498DB;stroke-width:1.0;"/><polygon fill="#000000" points="144.25,145.1758,135.2049,142.2369,135.2049,148.1147,144.25,145.1758" style="stroke:#000000;stroke-width:1.0;"/><text fill="#000000" font-family="sans-serif" font-size="13" lengthAdjust="spacing" textLength="63" x="148.25" y="150.4951">possesses</text></g><!--link Collaborator to Skill--><!--link Collaborator to Team--><g id="link_Collaborator_Team"><path codeLine="28" d="M98.41,181.03 C134.28,203.73 183.5898,234.9217 218.6898,257.1317 " fill="none" id="Collaborator-to-Team" style="stroke:#3498DB;stroke-width:1.0;"/><polygon fill="#3498DB" points="223.76,260.34,218.2935,252.1475,219.5348,257.6665,214.0158,258.9078,223.76,260.34" style="stroke:#3498DB;stroke-width:1.0;"/><polygon fill="#000000" points="181.2253,222.8491,175.153,215.5294,172.0103,220.4965,181.2253,222.8491" style="stroke:#000000;stroke-width:1.0;"/><text fill="#000000" font-family="sans-serif" font-size="13" lengthAdjust="spacing" textLength="36" x="186" y="225.4951">part of</text></g><!--link Skill to Team--><!--SRC=[PP1FQm8n4CNl-HG3FGVw3soN8bXPgOTUQc-bXsmohc5ZHYOHeSNltcnMMME7NEQzcTyR4ZhhTuhL5hHJ8S2lW5IlIdSjqzwREJbYk5dKYtfUPs_6J8UJ_F3u_6IQOONO89_qUzHwSYUEGeIIFukHRREFkDJaL_O7uLQa6hBVFjvJ_l7S9fPJ3R6A2NcXhphhtANmYGcV-vuW3Hsyd9Rh5MoLLoq6c1P30wi2ZsYklOojWBXLFbtQsyEuTBYE_nDs50Bs3rv4OKcsxIQEnFGV4MYTU7tboA-DDGRzjooWLvXnADznlcQKUtuY_W40]--></g></svg>