<?xml version="1.0" encoding="UTF-8" standalone="no"?><svg xmlns="http://www.w3.org/2000/svg" xmlns:xlink="http://www.w3.org/1999/xlink" contentStyleType="text/css" height="675px" preserveAspectRatio="none" style="width:696px;height:675px;background:#FFFFFF;" version="1.1" viewBox="0 0 696 675" width="696px" zoomAndPan="magnify"><defs/><g><!--MD5=[86c7c362de55a38b660185a1328fe18d]
class Organization--><g id="elem_Organization"><rect codeLine="10" fill="#FEFECE" height="48" id="Organization" rx="2.5" ry="2.5" style="stroke:#2ECC71;stroke-width:0.5;" width="112" x="262" y="133"/><ellipse cx="277" cy="149" fill="#ADD1B2" rx="11" ry="11" style="stroke:#181818;stroke-width:1.0;"/><path d="M279.7656,144.875 Q279.9219,144.6563 280.1094,144.5469 Q280.2969,144.4375 280.5156,144.4375 Q280.8906,144.4375 281.125,144.7031 Q281.3594,144.9531 281.3594,145.5625 L281.3594,147.0156 Q281.3594,147.625 281.125,147.8906 Q280.8906,148.1563 280.5156,148.1563 Q280.1719,148.1563 279.9688,147.9531 Q279.7656,147.7656 279.6563,147.25 Q279.6094,146.8906 279.4219,146.7031 Q279.0938,146.3281 278.4844,146.1094 Q277.875,145.8906 277.25,145.8906 Q276.4844,145.8906 275.8438,146.2188 Q275.2188,146.5469 274.7188,147.2969 Q274.2344,148.0469 274.2344,149.0781 L274.2344,150.1719 Q274.2344,151.4063 275.125,152.2344 Q276.0156,153.0469 277.6094,153.0469 Q278.5469,153.0469 279.2031,152.7969 Q279.5938,152.6406 280.0156,152.2031 Q280.2813,151.9375 280.4219,151.8594 Q280.5781,151.7813 280.7813,151.7813 Q281.1094,151.7813 281.3594,152.0469 Q281.625,152.2969 281.625,152.6406 Q281.625,152.9844 281.2813,153.3906 Q280.7813,153.9688 279.9844,154.2969 Q278.9063,154.75 277.6094,154.75 Q276.0938,154.75 274.8906,154.125 Q273.9063,153.625 273.2188,152.5625 Q272.5313,151.4844 272.5313,150.2031 L272.5313,149.0469 Q272.5313,147.7188 273.1406,146.5781 Q273.7656,145.4219 274.8594,144.8125 Q275.9531,144.1875 277.1875,144.1875 Q277.9219,144.1875 278.5625,144.3594 Q279.2188,144.5156 279.7656,144.875 Z " fill="#000000"/><text fill="#000000" font-family="sans-serif" font-size="14" lengthAdjust="spacing" textLength="80" x="291" y="154.7285">Organization</text><line style="stroke:#2ECC71;stroke-width:0.5;" x1="263" x2="373" y1="165" y2="165"/><line style="stroke:#2ECC71;stroke-width:0.5;" x1="263" x2="373" y1="173" y2="173"/></g><!--MD5=[db6d18d8099558415abc41d00477ab92]
class Admin--><g id="elem_Admin"><rect codeLine="13" fill="#FEFECE" height="48" id="Admin" rx="2.5" ry="2.5" style="stroke:#2ECC71;stroke-width:0.5;" width="71" x="282.5" y="259"/><ellipse cx="297.5" cy="275" fill="#ADD1B2" rx="11" ry="11" style="stroke:#181818;stroke-width:1.0;"/><path d="M300.2656,270.875 Q300.4219,270.6563 300.6094,270.5469 Q300.7969,270.4375 301.0156,270.4375 Q301.3906,270.4375 301.625,270.7031 Q301.8594,270.9531 301.8594,271.5625 L301.8594,273.0156 Q301.8594,273.625 301.625,273.8906 Q301.3906,274.1563 301.0156,274.1563 Q300.6719,274.1563 300.4688,273.9531 Q300.2656,273.7656 300.1563,273.25 Q300.1094,272.8906 299.9219,272.7031 Q299.5938,272.3281 298.9844,272.1094 Q298.375,271.8906 297.75,271.8906 Q296.9844,271.8906 296.3438,272.2188 Q295.7188,272.5469 295.2188,273.2969 Q294.7344,274.0469 294.7344,275.0781 L294.7344,276.1719 Q294.7344,277.4063 295.625,278.2344 Q296.5156,279.0469 298.1094,279.0469 Q299.0469,279.0469 299.7031,278.7969 Q300.0938,278.6406 300.5156,278.2031 Q300.7813,277.9375 300.9219,277.8594 Q301.0781,277.7813 301.2813,277.7813 Q301.6094,277.7813 301.8594,278.0469 Q302.125,278.2969 302.125,278.6406 Q302.125,278.9844 301.7813,279.3906 Q301.2813,279.9688 300.4844,280.2969 Q299.4063,280.75 298.1094,280.75 Q296.5938,280.75 295.3906,280.125 Q294.4063,279.625 293.7188,278.5625 Q293.0313,277.4844 293.0313,276.2031 L293.0313,275.0469 Q293.0313,273.7188 293.6406,272.5781 Q294.2656,271.4219 295.3594,270.8125 Q296.4531,270.1875 297.6875,270.1875 Q298.4219,270.1875 299.0625,270.3594 Q299.7188,270.5156 300.2656,270.875 Z " fill="#000000"/><text fill="#000000" font-family="sans-serif" font-size="14" lengthAdjust="spacing" textLength="39" x="311.5" y="280.7285">Admin</text><line style="stroke:#2ECC71;stroke-width:0.5;" x1="283.5" x2="352.5" y1="291" y2="291"/><line style="stroke:#2ECC71;stroke-width:0.5;" x1="283.5" x2="352.5" y1="299" y2="299"/></g><!--MD5=[7421f545a0d8420c5bec41e74b387d9c]
class Employee--><g id="elem_Employee"><rect codeLine="16" fill="#FEFECE" height="48" id="Employee" rx="2.5" ry="2.5" style="stroke:#2ECC71;stroke-width:0.5;" width="94" x="59" y="385"/><ellipse cx="74" cy="401" fill="#ADD1B2" rx="11" ry="11" style="stroke:#181818;stroke-width:1.0;"/><path d="M76.7656,396.875 Q76.9219,396.6563 77.1094,396.5469 Q77.2969,396.4375 77.5156,396.4375 Q77.8906,396.4375 78.125,396.7031 Q78.3594,396.9531 78.3594,397.5625 L78.3594,399.0156 Q78.3594,399.625 78.125,399.8906 Q77.8906,400.1563 77.5156,400.1563 Q77.1719,400.1563 76.9688,399.9531 Q76.7656,399.7656 76.6563,399.25 Q76.6094,398.8906 76.4219,398.7031 Q76.0938,398.3281 75.4844,398.1094 Q74.875,397.8906 74.25,397.8906 Q73.4844,397.8906 72.8438,398.2188 Q72.2188,398.5469 71.7188,399.2969 Q71.2344,400.0469 71.2344,401.0781 L71.2344,402.1719 Q71.2344,403.4063 72.125,404.2344 Q73.0156,405.0469 74.6094,405.0469 Q75.5469,405.0469 76.2031,404.7969 Q76.5938,404.6406 77.0156,404.2031 Q77.2813,403.9375 77.4219,403.8594 Q77.5781,403.7813 77.7813,403.7813 Q78.1094,403.7813 78.3594,404.0469 Q78.625,404.2969 78.625,404.6406 Q78.625,404.9844 78.2813,405.3906 Q77.7813,405.9688 76.9844,406.2969 Q75.9063,406.75 74.6094,406.75 Q73.0938,406.75 71.8906,406.125 Q70.9063,405.625 70.2188,404.5625 Q69.5313,403.4844 69.5313,402.2031 L69.5313,401.0469 Q69.5313,399.7188 70.1406,398.5781 Q70.7656,397.4219 71.8594,396.8125 Q72.9531,396.1875 74.1875,396.1875 Q74.9219,396.1875 75.5625,396.3594 Q76.2188,396.5156 76.7656,396.875 Z " fill="#000000"/><text fill="#000000" font-family="sans-serif" font-size="14" lengthAdjust="spacing" textLength="62" x="88" y="406.7285">Employee</text><line style="stroke:#2ECC71;stroke-width:0.5;" x1="60" x2="152" y1="417" y2="417"/><line style="stroke:#2ECC71;stroke-width:0.5;" x1="60" x2="152" y1="425" y2="425"/></g><!--MD5=[42e1add689e888dd7b55d3ee3f1dd6d7]
class Skill--><g id="elem_Skill"><rect codeLine="19" fill="#FEFECE" height="48" id="Skill" rx="2.5" ry="2.5" style="stroke:#2ECC71;stroke-width:0.5;" width="57" x="265.5" y="385"/><ellipse cx="280.5" cy="401" fill="#ADD1B2" rx="11" ry="11" style="stroke:#181818;stroke-width:1.0;"/><path d="M283.2656,396.875 Q283.4219,396.6563 283.6094,396.5469 Q283.7969,396.4375 284.0156,396.4375 Q284.3906,396.4375 284.625,396.7031 Q284.8594,396.9531 284.8594,397.5625 L284.8594,399.0156 Q284.8594,399.625 284.625,399.8906 Q284.3906,400.1563 284.0156,400.1563 Q283.6719,400.1563 283.4688,399.9531 Q283.2656,399.7656 283.1563,399.25 Q283.1094,398.8906 282.9219,398.7031 Q282.5938,398.3281 281.9844,398.1094 Q281.375,397.8906 280.75,397.8906 Q279.9844,397.8906 279.3438,398.2188 Q278.7188,398.5469 278.2188,399.2969 Q277.7344,400.0469 277.7344,401.0781 L277.7344,402.1719 Q277.7344,403.4063 278.625,404.2344 Q279.5156,405.0469 281.1094,405.0469 Q282.0469,405.0469 282.7031,404.7969 Q283.0938,404.6406 283.5156,404.2031 Q283.7813,403.9375 283.9219,403.8594 Q284.0781,403.7813 284.2813,403.7813 Q284.6094,403.7813 284.8594,404.0469 Q285.125,404.2969 285.125,404.6406 Q285.125,404.9844 284.7813,405.3906 Q284.2813,405.9688 283.4844,406.2969 Q282.4063,406.75 281.1094,406.75 Q279.5938,406.75 278.3906,406.125 Q277.4063,405.625 276.7188,404.5625 Q276.0313,403.4844 276.0313,402.2031 L276.0313,401.0469 Q276.0313,399.7188 276.6406,398.5781 Q277.2656,397.4219 278.3594,396.8125 Q279.4531,396.1875 280.6875,396.1875 Q281.4219,396.1875 282.0625,396.3594 Q282.7188,396.5156 283.2656,396.875 Z " fill="#000000"/><text fill="#000000" font-family="sans-serif" font-size="14" lengthAdjust="spacing" textLength="25" x="294.5" y="406.7285">Skill</text><line style="stroke:#2ECC71;stroke-width:0.5;" x1="266.5" x2="321.5" y1="417" y2="417"/><line style="stroke:#2ECC71;stroke-width:0.5;" x1="266.5" x2="321.5" y1="425" y2="425"/></g><!--MD5=[dfb0845b8492ffe07b1ce50e003034d7]
class Team--><g id="elem_Team"><rect codeLine="22" fill="#FEFECE" height="48" id="Team" rx="2.5" ry="2.5" style="stroke:#2ECC71;stroke-width:0.5;" width="68" x="318" y="511"/><ellipse cx="333" cy="527" fill="#ADD1B2" rx="11" ry="11" style="stroke:#181818;stroke-width:1.0;"/><path d="M335.7656,522.875 Q335.9219,522.6563 336.1094,522.5469 Q336.2969,522.4375 336.5156,522.4375 Q336.8906,522.4375 337.125,522.7031 Q337.3594,522.9531 337.3594,523.5625 L337.3594,525.0156 Q337.3594,525.625 337.125,525.8906 Q336.8906,526.1563 336.5156,526.1563 Q336.1719,526.1563 335.9688,525.9531 Q335.7656,525.7656 335.6563,525.25 Q335.6094,524.8906 335.4219,524.7031 Q335.0938,524.3281 334.4844,524.1094 Q333.875,523.8906 333.25,523.8906 Q332.4844,523.8906 331.8438,524.2188 Q331.2188,524.5469 330.7188,525.2969 Q330.2344,526.0469 330.2344,527.0781 L330.2344,528.1719 Q330.2344,529.4063 331.125,530.2344 Q332.0156,531.0469 333.6094,531.0469 Q334.5469,531.0469 335.2031,530.7969 Q335.5938,530.6406 336.0156,530.2031 Q336.2813,529.9375 336.4219,529.8594 Q336.5781,529.7813 336.7813,529.7813 Q337.1094,529.7813 337.3594,530.0469 Q337.625,530.2969 337.625,530.6406 Q337.625,530.9844 337.2813,531.3906 Q336.7813,531.9688 335.9844,532.2969 Q334.9063,532.75 333.6094,532.75 Q332.0938,532.75 330.8906,532.125 Q329.9063,531.625 329.2188,530.5625 Q328.5313,529.4844 328.5313,528.2031 L328.5313,527.0469 Q328.5313,525.7188 329.1406,524.5781 Q329.7656,523.4219 330.8594,522.8125 Q331.9531,522.1875 333.1875,522.1875 Q333.9219,522.1875 334.5625,522.3594 Q335.2188,522.5156 335.7656,522.875 Z " fill="#000000"/><text fill="#000000" font-family="sans-serif" font-size="14" lengthAdjust="spacing" textLength="36" x="347" y="532.7285">Team</text><line style="stroke:#2ECC71;stroke-width:0.5;" x1="319" x2="385" y1="543" y2="543"/><line style="stroke:#2ECC71;stroke-width:0.5;" x1="319" x2="385" y1="551" y2="551"/></g><!--MD5=[b34797a66dc35cbf1d65f7e3ca75530e]
class Task--><g id="elem_Task"><rect codeLine="25" fill="#FEFECE" height="48" id="Task" rx="2.5" ry="2.5" style="stroke:#2ECC71;stroke-width:0.5;" width="63" x="554.5" y="620"/><ellipse cx="569.5" cy="636" fill="#ADD1B2" rx="11" ry="11" style="stroke:#181818;stroke-width:1.0;"/><path d="M572.2656,631.875 Q572.4219,631.6563 572.6094,631.5469 Q572.7969,631.4375 573.0156,631.4375 Q573.3906,631.4375 573.625,631.7031 Q573.8594,631.9531 573.8594,632.5625 L573.8594,634.0156 Q573.8594,634.625 573.625,634.8906 Q573.3906,635.1563 573.0156,635.1563 Q572.6719,635.1563 572.4688,634.9531 Q572.2656,634.7656 572.1563,634.25 Q572.1094,633.8906 571.9219,633.7031 Q571.5938,633.3281 570.9844,633.1094 Q570.375,632.8906 569.75,632.8906 Q568.9844,632.8906 568.3438,633.2188 Q567.7188,633.5469 567.2188,634.2969 Q566.7344,635.0469 566.7344,636.0781 L566.7344,637.1719 Q566.7344,638.4063 567.625,639.2344 Q568.5156,640.0469 570.1094,640.0469 Q571.0469,640.0469 571.7031,639.7969 Q572.0938,639.6406 572.5156,639.2031 Q572.7813,638.9375 572.9219,638.8594 Q573.0781,638.7813 573.2813,638.7813 Q573.6094,638.7813 573.8594,639.0469 Q574.125,639.2969 574.125,639.6406 Q574.125,639.9844 573.7813,640.3906 Q573.2813,640.9688 572.4844,641.2969 Q571.4063,641.75 570.1094,641.75 Q568.5938,641.75 567.3906,641.125 Q566.4063,640.625 565.7188,639.5625 Q565.0313,638.4844 565.0313,637.2031 L565.0313,636.0469 Q565.0313,634.7188 565.6406,633.5781 Q566.2656,632.4219 567.3594,631.8125 Q568.4531,631.1875 569.6875,631.1875 Q570.4219,631.1875 571.0625,631.3594 Q571.7188,631.5156 572.2656,631.875 Z " fill="#000000"/><text fill="#000000" font-family="sans-serif" font-size="14" lengthAdjust="spacing" textLength="31" x="583.5" y="641.7285">Task</text><line style="stroke:#2ECC71;stroke-width:0.5;" x1="555.5" x2="616.5" y1="652" y2="652"/><line style="stroke:#2ECC71;stroke-width:0.5;" x1="555.5" x2="616.5" y1="660" y2="660"/></g><!--MD5=[f602ac37629c083f838c0206a821a919]
class Parks--><g id="elem_Parks"><rect codeLine="28" fill="#FEFECE" height="48" id="Parks" rx="2.5" ry="2.5" style="stroke:#2ECC71;stroke-width:0.5;" width="68" x="283" y="7"/><ellipse cx="298" cy="23" fill="#ADD1B2" rx="11" ry="11" style="stroke:#181818;stroke-width:1.0;"/><path d="M300.7656,18.875 Q300.9219,18.6563 301.1094,18.5469 Q301.2969,18.4375 301.5156,18.4375 Q301.8906,18.4375 302.125,18.7031 Q302.3594,18.9531 302.3594,19.5625 L302.3594,21.0156 Q302.3594,21.625 302.125,21.8906 Q301.8906,22.1563 301.5156,22.1563 Q301.1719,22.1563 300.9688,21.9531 Q300.7656,21.7656 300.6563,21.25 Q300.6094,20.8906 300.4219,20.7031 Q300.0938,20.3281 299.4844,20.1094 Q298.875,19.8906 298.25,19.8906 Q297.4844,19.8906 296.8438,20.2188 Q296.2188,20.5469 295.7188,21.2969 Q295.2344,22.0469 295.2344,23.0781 L295.2344,24.1719 Q295.2344,25.4063 296.125,26.2344 Q297.0156,27.0469 298.6094,27.0469 Q299.5469,27.0469 300.2031,26.7969 Q300.5938,26.6406 301.0156,26.2031 Q301.2813,25.9375 301.4219,25.8594 Q301.5781,25.7813 301.7813,25.7813 Q302.1094,25.7813 302.3594,26.0469 Q302.625,26.2969 302.625,26.6406 Q302.625,26.9844 302.2813,27.3906 Q301.7813,27.9688 300.9844,28.2969 Q299.9063,28.75 298.6094,28.75 Q297.0938,28.75 295.8906,28.125 Q294.9063,27.625 294.2188,26.5625 Q293.5313,25.4844 293.5313,24.2031 L293.5313,23.0469 Q293.5313,21.7188 294.1406,20.5781 Q294.7656,19.4219 295.8594,18.8125 Q296.9531,18.1875 298.1875,18.1875 Q298.9219,18.1875 299.5625,18.3594 Q300.2188,18.5156 300.7656,18.875 Z " fill="#000000"/><text fill="#000000" font-family="sans-serif" font-size="14" lengthAdjust="spacing" textLength="36" x="312" y="28.7285">Parks</text><line style="stroke:#2ECC71;stroke-width:0.5;" x1="284" x2="350" y1="39" y2="39"/><line style="stroke:#2ECC71;stroke-width:0.5;" x1="284" x2="350" y1="47" y2="47"/></g><!--MD5=[b8e0354e0f3f5cbf52553869b78c0afa]
class Job--><g id="elem_Job"><rect fill="#FEFECE" height="48" id="Job" rx="2.5" ry="2.5" style="stroke:#2ECC71;stroke-width:0.5;" width="54" x="358" y="385"/><ellipse cx="373" cy="401" fill="#ADD1B2" rx="11" ry="11" style="stroke:#181818;stroke-width:1.0;"/><path d="M375.7656,396.875 Q375.9219,396.6563 376.1094,396.5469 Q376.2969,396.4375 376.5156,396.4375 Q376.8906,396.4375 377.125,396.7031 Q377.3594,396.9531 377.3594,397.5625 L377.3594,399.0156 Q377.3594,399.625 377.125,399.8906 Q376.8906,400.1563 376.5156,400.1563 Q376.1719,400.1563 375.9688,399.9531 Q375.7656,399.7656 375.6563,399.25 Q375.6094,398.8906 375.4219,398.7031 Q375.0938,398.3281 374.4844,398.1094 Q373.875,397.8906 373.25,397.8906 Q372.4844,397.8906 371.8438,398.2188 Q371.2188,398.5469 370.7188,399.2969 Q370.2344,400.0469 370.2344,401.0781 L370.2344,402.1719 Q370.2344,403.4063 371.125,404.2344 Q372.0156,405.0469 373.6094,405.0469 Q374.5469,405.0469 375.2031,404.7969 Q375.5938,404.6406 376.0156,404.2031 Q376.2813,403.9375 376.4219,403.8594 Q376.5781,403.7813 376.7813,403.7813 Q377.1094,403.7813 377.3594,404.0469 Q377.625,404.2969 377.625,404.6406 Q377.625,404.9844 377.2813,405.3906 Q376.7813,405.9688 375.9844,406.2969 Q374.9063,406.75 373.6094,406.75 Q372.0938,406.75 370.8906,406.125 Q369.9063,405.625 369.2188,404.5625 Q368.5313,403.4844 368.5313,402.2031 L368.5313,401.0469 Q368.5313,399.7188 369.1406,398.5781 Q369.7656,397.4219 370.8594,396.8125 Q371.9531,396.1875 373.1875,396.1875 Q373.9219,396.1875 374.5625,396.3594 Q375.2188,396.5156 375.7656,396.875 Z " fill="#000000"/><text fill="#000000" font-family="sans-serif" font-size="14" lengthAdjust="spacing" textLength="22" x="387" y="406.7285">Job</text><line style="stroke:#2ECC71;stroke-width:0.5;" x1="359" x2="411" y1="417" y2="417"/><line style="stroke:#2ECC71;stroke-width:0.5;" x1="359" x2="411" y1="425" y2="425"/></g><!--MD5=[628b67192d2103ecc7923e71c9baa69d]
link Parks to Organization--><g id="link_Parks_Organization"><path codeLine="32" d="M289,55.01 C276.37,68.31 265.57,85.77 272,103 C275.49,112.34 281.45,121.13 287.94,128.76 " fill="none" id="Parks-to-Organization" style="stroke:#3498DB;stroke-width:1.0;"/><polygon fill="#3498DB" points="291.59,132.87,288.6004,123.4859,288.2682,129.133,282.6211,128.8008,291.59,132.87" style="stroke:#3498DB;stroke-width:1.0;"/><text fill="#000000" font-family="sans-serif" font-size="13" lengthAdjust="spacing" textLength="60" x="273" y="99.4951">belongs to</text></g><!--MD5=[628b67192d2103ecc7923e71c9baa69d]
link Parks to Organization--><!--MD5=[761ed6b9df8b095146ecd7c4cae6473f]
link Organization to Admin--><g id="link_Organization_Admin"><path codeLine="33" d="M285.69,181.24 C271.71,194.34 259.97,211.54 267,229 C270.9,238.67 277.49,247.56 284.68,255.19 " fill="none" id="Organization-to-Admin" style="stroke:#3498DB;stroke-width:1.0;"/><polygon fill="#3498DB" points="288.24,258.83,284.7975,249.6024,284.7404,255.2589,279.0838,255.2018,288.24,258.83" style="stroke:#3498DB;stroke-width:1.0;"/><text fill="#000000" font-family="sans-serif" font-size="13" lengthAdjust="spacing" textLength="71" x="268" y="225.4951">managed by</text></g><!--MD5=[761ed6b9df8b095146ecd7c4cae6473f]
link Organization to Admin--><!--MD5=[e6b253b588892f992f90e4845b74fe0b]
link Admin to Employee--><g id="link_Admin_Employee"><path codeLine="34" d="M282.17,287.56 C226.89,293.88 124.87,309.08 103,337 C93.72,348.85 93.96,365.53 96.77,379.75 " fill="none" id="Admin-to-Employee" style="stroke:#3498DB;stroke-width:1.0;"/><polygon fill="#3498DB" points="97.9,384.86,99.8524,375.2066,96.8153,379.9791,92.0429,376.942,97.9,384.86" style="stroke:#3498DB;stroke-width:1.0;"/><polygon fill="#000000" points="103.5229,348.402,112.9305,347.0063,110.3135,341.7432,103.5229,348.402" style="stroke:#000000;stroke-width:1.0;"/><text fill="#000000" font-family="sans-serif" font-size="13" lengthAdjust="spacing" textLength="21" x="117" y="351.4951">is a</text></g><!--MD5=[e6b253b588892f992f90e4845b74fe0b]
link Admin to Employee--><!--MD5=[05fdf841e65e4e71db1bf6f648a9a8ff]
link Admin to Skill--><g id="link_Admin_Skill"><path codeLine="35" d="M313.54,307.03 C309.58,327.52 303.76,357.56 299.51,379.55 " fill="none" id="Admin-to-Skill" style="stroke:#3498DB;stroke-width:1.0;"/><polygon fill="#3498DB" points="298.52,384.67,304.1485,376.5879,299.4648,379.7601,296.2926,375.0763,298.52,384.67" style="stroke:#3498DB;stroke-width:1.0;"/><polygon fill="#000000" points="312.0503,351.0848,316.6538,342.7626,310.8829,341.6461,312.0503,351.0848" style="stroke:#000000;stroke-width:1.0;"/><text fill="#000000" font-family="sans-serif" font-size="13" lengthAdjust="spacing" textLength="39" x="322" y="351.4951">regists</text></g><!--MD5=[631bc995fc4bcd9e9a0cfcff5c75e684]
link Admin to Team--><g id="link_Admin_Team"><path codeLine="36" d="M353.62,304.83 C379.91,322.44 413.67,350.33 429,385 C448.32,428.71 411.22,477.62 382.1,507.09 " fill="none" id="Admin-to-Team" style="stroke:#3498DB;stroke-width:1.0;"/><polygon fill="#3498DB" points="378.23,510.94,387.4295,507.423,381.7727,507.4116,381.7841,501.7548,378.23,510.94" style="stroke:#3498DB;stroke-width:1.0;"/><polygon fill="#000000" points="440.6972,414.1269,442.3462,404.7604,436.5258,405.58,440.6972,414.1269" style="stroke:#000000;stroke-width:1.0;"/><text fill="#000000" font-family="sans-serif" font-size="13" lengthAdjust="spacing" textLength="56" x="449" y="414.4951">organizes</text></g><!--MD5=[6da0513e661ee528b0c40365dde9d050]
reverse link Employee to Job--><g id="link_Employee_Job"><path codeLine="37" d="M133.41,381.08 C148.2,368.01 167.58,353.85 188,347 C225.92,334.28 239.37,336.62 278,347 C307.44,354.91 337.14,373.12 357.76,387.77 " fill="none" id="Employee-backto-Job" style="stroke:#3498DB;stroke-width:1.0;"/><polygon fill="#3498DB" points="129.36,384.73,138.7255,381.6825,133.0765,381.3852,133.3738,375.7361,129.36,384.73" style="stroke:#3498DB;stroke-width:1.0;"/><polygon fill="#000000" points="188.0022,346.0268,196.9557,349.234,197.1309,343.3587,188.0022,346.0268" style="stroke:#000000;stroke-width:1.0;"/><text fill="#000000" font-family="sans-serif" font-size="13" lengthAdjust="spacing" textLength="75" x="202" y="351.4951">performed by</text></g><!--MD5=[64ee8cd7df36c4255e123dd0bdbf4137]
reverse link Employee to Skill--><g id="link_Employee_Skill"><path codeLine="38" d="M158.47,409 C193.05,409 237,409 265.32,409 " fill="none" id="Employee-backto-Skill" style="stroke:#3498DB;stroke-width:1.0;"/><polygon fill="#3498DB" points="153.44,409,162.44,413,158.44,409,162.44,405,153.44,409" style="stroke:#3498DB;stroke-width:1.0;"/><polygon fill="#000000" points="170.25,397.1758,179.2951,400.1147,179.2951,394.2369,170.25,397.1758" style="stroke:#000000;stroke-width:1.0;"/><text fill="#000000" font-family="sans-serif" font-size="13" lengthAdjust="spacing" textLength="63" x="184.25" y="402.4951">possesses</text></g><!--MD5=[aff1f99f046f31cdf62076842f35f15c]
link Employee to Skill--><!--MD5=[11133cb842aeec6c50d0bb6926ca7b29]
link Employee to Team--><g id="link_Employee_Team"><path codeLine="39" d="M151.69,433.03 C198.08,456.41 269.13,492.23 312.97,514.32 " fill="none" id="Employee-to-Team" style="stroke:#3498DB;stroke-width:1.0;"/><polygon fill="#3498DB" points="317.65,516.68,311.4181,509.0535,313.1865,514.4268,307.8131,516.1951,317.65,516.68" style="stroke:#3498DB;stroke-width:1.0;"/><polygon fill="#000000" points="253.4649,474.4262,246.7106,467.7307,244.065,472.9795,253.4649,474.4262" style="stroke:#000000;stroke-width:1.0;"/><text fill="#000000" font-family="sans-serif" font-size="13" lengthAdjust="spacing" textLength="36" x="258" y="477.4951">part of</text></g><!--MD5=[f703096744c79ac7fe3cbb4a4c857be6]
link Admin to Task--><g id="link_Admin_Task"><path codeLine="40" d="M353.57,292.53 C398.01,305.07 473.16,332.86 514,385 C568.61,454.73 581.82,563.51 585,614.64 " fill="none" id="Admin-to-Task" style="stroke:#3498DB;stroke-width:1.0;"/><polygon fill="#3498DB" points="585.29,619.7,588.7438,610.4766,584.9905,614.709,580.7582,610.9557,585.29,619.7" style="stroke:#3498DB;stroke-width:1.0;"/><polygon fill="#000000" points="569.9175,476.2364,567.0265,467.1759,562.253,470.6055,569.9175,476.2364" style="stroke:#000000;stroke-width:1.0;"/><text fill="#000000" font-family="sans-serif" font-size="13" lengthAdjust="spacing" textLength="45" x="576" y="477.4951">assigns</text></g><!--MD5=[b1756bfbe4f82cb43c138e21ae0512ca]
reverse link Parks to Task--><g id="link_Parks_Task"><path codeLine="41" d="M277.71,39.08 C194.08,55.28 6,98.14 6,156 C6,156 6,156 6,536 C6,592.25 433.37,630.77 554.4,640.55 " fill="none" id="Parks-backto-Task" style="stroke:#3498DB;stroke-width:1.0;"/><polygon fill="#3498DB" points="282.83,38.1,273.2363,35.8726,277.9201,39.0448,274.7479,43.7285,282.83,38.1" style="stroke:#3498DB;stroke-width:1.0;"/><text fill="#000000" font-family="sans-serif" font-size="13" lengthAdjust="spacing" textLength="44" x="7" y="351.4951">involves</text></g><!--MD5=[bccbf688e661afe95c39d0de7a3058a2]
link Task to Parks--><!--MD5=[c0e59097e11b25579763ebf6a507287f]
link Skill to Team--><!--MD5=[0dcb138fcb5cb77491f295714272d173]
link Team to Task--><!--MD5=[2079c73746352e55df0951f4d4309f77]
@startuml

skinparam class {
    BackgroundColor #FEFECE
    ArrowColor #3498db
    BorderColor #2ecc71
}

skinparam classAttributeIconSize 0

class Organization {
}

class Admin {
}

class Employee {
}

class Skill {
}

class Team {
}

class Task {
}

class Parks {
}

' Relationships
Parks -down-> Organization : belongs to
Organization -down-> Admin : managed by
Admin -down-> Employee : is a >
Admin -down-> Skill : regists >
Admin -down-> Team : organizes >
Job -left-> Employee : performed by >
Skill -left-> Employee : possesses >
Employee -right-> Team : part of >
Admin -right-> Task : assigns >
Task -up-> Parks : involves

' Layout adjustments
Parks -[hidden]- Organization
Organization -[hidden]- Admin
Admin -[hidden]- Employee
Employee -[hidden]- Skill
Skill -[hidden]- Team
Team -[hidden]- Task
Task -[hidden]- Parks

@enduml

@startuml

skinparam class {
    BackgroundColor #FEFECE
    ArrowColor #3498db
    BorderColor #2ecc71
}

skinparam classAttributeIconSize 0

class Organization {
}

class Admin {
}

class Employee {
}

class Skill {
}

class Team {
}

class Task {
}

class Parks {
}

Parks -down-> Organization : belongs to
Organization -down-> Admin : managed by
Admin -down-> Employee : is a >
Admin -down-> Skill : regists >
Admin -down-> Team : organizes >
Job -left-> Employee : performed by >
Skill -left-> Employee : possesses >
Employee -right-> Team : part of >
Admin -right-> Task : assigns >
Task -up-> Parks : involves

Parks -[hidden]- Organization
Organization -[hidden]- Admin
Admin -[hidden]- Employee
Employee -[hidden]- Skill
Skill -[hidden]- Team
Team -[hidden]- Task
Task -[hidden]- Parks

@enduml

PlantUML version 1.2022.7(Mon Aug 22 18:01:30 WEST 2022)
(GPL source distribution)
Java Runtime: Java(TM) SE Runtime Environment
JVM: Java HotSpot(TM) 64-Bit Server VM
Default Encoding: Cp1252
Language: pt
Country: PT
--></g></svg>