<?xml version="1.0" encoding="us-ascii" standalone="no"?><svg xmlns="http://www.w3.org/2000/svg" xmlns:xlink="http://www.w3.org/1999/xlink" contentStyleType="text/css" height="1902px" preserveAspectRatio="none" style="width:1360px;height:1902px;background:#FFFFFF;" version="1.1" viewBox="0 0 1360 1902" width="1360px" zoomAndPan="magnify"><defs/><g><!--class AssignSkillUI--><g id="elem_AssignSkillUI"><rect codeLine="12" fill="#F1F1F1" height="48" id="AssignSkillUI" rx="2.5" ry="2.5" style="stroke:#181818;stroke-width:0.5;" width="111" x="7" y="53.5"/><ellipse cx="22" cy="69.5" fill="#ADD1B2" rx="11" ry="11" style="stroke:#181818;stroke-width:1.0;"/><path d="M24.7656,65.375 Q24.9219,65.1563 25.1094,65.0469 Q25.2969,64.9375 25.5156,64.9375 Q25.8906,64.9375 26.125,65.2031 Q26.3594,65.4531 26.3594,66.0625 L26.3594,67.5156 Q26.3594,68.125 26.125,68.3906 Q25.8906,68.6563 25.5156,68.6563 Q25.1719,68.6563 24.9688,68.4531 Q24.7656,68.2656 24.6563,67.75 Q24.6094,67.3906 24.4219,67.2031 Q24.0938,66.8281 23.4844,66.6094 Q22.875,66.3906 22.25,66.3906 Q21.4844,66.3906 20.8438,66.7188 Q20.2188,67.0469 19.7188,67.7969 Q19.2344,68.5469 19.2344,69.5781 L19.2344,70.6719 Q19.2344,71.9063 20.125,72.7344 Q21.0156,73.5469 22.6094,73.5469 Q23.5469,73.5469 24.2031,73.2969 Q24.5938,73.1406 25.0156,72.7031 Q25.2813,72.4375 25.4219,72.3594 Q25.5781,72.2813 25.7813,72.2813 Q26.1094,72.2813 26.3594,72.5469 Q26.625,72.7969 26.625,73.1406 Q26.625,73.4844 26.2813,73.8906 Q25.7813,74.4688 24.9844,74.7969 Q23.9063,75.25 22.6094,75.25 Q21.0938,75.25 19.8906,74.625 Q18.9063,74.125 18.2188,73.0625 Q17.5313,71.9844 17.5313,70.7031 L17.5313,69.5469 Q17.5313,68.2188 18.1406,67.0781 Q18.7656,65.9219 19.8594,65.3125 Q20.9531,64.6875 22.1875,64.6875 Q22.9219,64.6875 23.5625,64.8594 Q24.2188,65.0156 24.7656,65.375 Z " fill="#000000"/><text fill="#000000" font-family="sans-serif" font-size="14" lengthAdjust="spacing" textLength="79" x="36" y="75.2969">AssignSkillUI</text><line style="stroke:#181818;stroke-width:0.5;" x1="8" x2="117" y1="85.5" y2="85.5"/><line style="stroke:#181818;stroke-width:0.5;" x1="8" x2="117" y1="93.5" y2="93.5"/></g><!--class AssignSkillController--><g id="elem_AssignSkillController"><rect codeLine="15" fill="#F1F1F1" height="141.1055" id="AssignSkillController" rx="2.5" ry="2.5" style="stroke:#181818;stroke-width:0.5;" width="626" x="153.5" y="7"/><ellipse cx="397.75" cy="23" fill="#ADD1B2" rx="11" ry="11" style="stroke:#181818;stroke-width:1.0;"/><path d="M400.5156,18.875 Q400.6719,18.6563 400.8594,18.5469 Q401.0469,18.4375 401.2656,18.4375 Q401.6406,18.4375 401.875,18.7031 Q402.1094,18.9531 402.1094,19.5625 L402.1094,21.0156 Q402.1094,21.625 401.875,21.8906 Q401.6406,22.1563 401.2656,22.1563 Q400.9219,22.1563 400.7188,21.9531 Q400.5156,21.7656 400.4063,21.25 Q400.3594,20.8906 400.1719,20.7031 Q399.8438,20.3281 399.2344,20.1094 Q398.625,19.8906 398,19.8906 Q397.2344,19.8906 396.5938,20.2188 Q395.9688,20.5469 395.4688,21.2969 Q394.9844,22.0469 394.9844,23.0781 L394.9844,24.1719 Q394.9844,25.4063 395.875,26.2344 Q396.7656,27.0469 398.3594,27.0469 Q399.2969,27.0469 399.9531,26.7969 Q400.3438,26.6406 400.7656,26.2031 Q401.0313,25.9375 401.1719,25.8594 Q401.3281,25.7813 401.5313,25.7813 Q401.8594,25.7813 402.1094,26.0469 Q402.375,26.2969 402.375,26.6406 Q402.375,26.9844 402.0313,27.3906 Q401.5313,27.9688 400.7344,28.2969 Q399.6563,28.75 398.3594,28.75 Q396.8438,28.75 395.6406,28.125 Q394.6563,27.625 393.9688,26.5625 Q393.2813,25.4844 393.2813,24.2031 L393.2813,23.0469 Q393.2813,21.7188 393.8906,20.5781 Q394.5156,19.4219 395.6094,18.8125 Q396.7031,18.1875 397.9375,18.1875 Q398.6719,18.1875 399.3125,18.3594 Q399.9688,18.5156 400.5156,18.875 Z " fill="#000000"/><text fill="#000000" font-family="sans-serif" font-size="14" lengthAdjust="spacing" textLength="129" x="418.25" y="28.7969">AssignSkillController</text><line style="stroke:#181818;stroke-width:0.5;" x1="154.5" x2="778.5" y1="39" y2="39"/><text fill="#000000" font-family="sans-serif" font-size="14" lengthAdjust="spacing" textLength="193" x="159.5" y="58.1074">-SkillRepository skillRepository</text><text fill="#000000" font-family="sans-serif" font-size="14" lengthAdjust="spacing" textLength="268" x="159.5" y="76.7285">-EmployeeRepository employeeRepository</text><line style="stroke:#181818;stroke-width:0.5;" x1="154.5" x2="778.5" y1="84.2422" y2="84.2422"/><text fill="#000000" font-family="sans-serif" font-size="14" lengthAdjust="spacing" textLength="614" x="159.5" y="103.3496">+AssignSkillController(skillRepository: SkillRepository, employeeRepository: EmployeeRepository)</text><text fill="#000000" font-family="sans-serif" font-size="14" lengthAdjust="spacing" textLength="426" x="159.5" y="121.9707">+assignSkillToTeamMember(employeeId: String, skillId: String): void</text><text fill="#000000" font-family="sans-serif" font-size="14" lengthAdjust="spacing" textLength="97" x="159.5" y="140.5918">+listEmployee()</text></g><!--class Repositories--><g id="elem_Repositories"><rect codeLine="23" fill="#F1F1F1" height="141.1055" id="Repositories" rx="2.5" ry="2.5" style="stroke:#181818;stroke-width:0.5;" width="374" x="883.5" y="7"/><ellipse cx="1026.75" cy="23" fill="#ADD1B2" rx="11" ry="11" style="stroke:#181818;stroke-width:1.0;"/><path d="M1029.5156,18.875 Q1029.6719,18.6563 1029.8594,18.5469 Q1030.0469,18.4375 1030.2656,18.4375 Q1030.6406,18.4375 1030.875,18.7031 Q1031.1094,18.9531 1031.1094,19.5625 L1031.1094,21.0156 Q1031.1094,21.625 1030.875,21.8906 Q1030.6406,22.1563 1030.2656,22.1563 Q1029.9219,22.1563 1029.7188,21.9531 Q1029.5156,21.7656 1029.4063,21.25 Q1029.3594,20.8906 1029.1719,20.7031 Q1028.8438,20.3281 1028.2344,20.1094 Q1027.625,19.8906 1027,19.8906 Q1026.2344,19.8906 1025.5938,20.2188 Q1024.9688,20.5469 1024.4688,21.2969 Q1023.9844,22.0469 1023.9844,23.0781 L1023.9844,24.1719 Q1023.9844,25.4063 1024.875,26.2344 Q1025.7656,27.0469 1027.3594,27.0469 Q1028.2969,27.0469 1028.9531,26.7969 Q1029.3438,26.6406 1029.7656,26.2031 Q1030.0313,25.9375 1030.1719,25.8594 Q1030.3281,25.7813 1030.5313,25.7813 Q1030.8594,25.7813 1031.1094,26.0469 Q1031.375,26.2969 1031.375,26.6406 Q1031.375,26.9844 1031.0313,27.3906 Q1030.5313,27.9688 1029.7344,28.2969 Q1028.6563,28.75 1027.3594,28.75 Q1025.8438,28.75 1024.6406,28.125 Q1023.6563,27.625 1022.9688,26.5625 Q1022.2813,25.4844 1022.2813,24.2031 L1022.2813,23.0469 Q1022.2813,21.7188 1022.8906,20.5781 Q1023.5156,19.4219 1024.6094,18.8125 Q1025.7031,18.1875 1026.9375,18.1875 Q1027.6719,18.1875 1028.3125,18.3594 Q1028.9688,18.5156 1029.5156,18.875 Z " fill="#000000"/><text fill="#000000" font-family="sans-serif" font-size="14" lengthAdjust="spacing" textLength="79" x="1047.25" y="28.7969">Repositories</text><line style="stroke:#181818;stroke-width:0.5;" x1="884.5" x2="1256.5" y1="39" y2="39"/><line style="stroke:#181818;stroke-width:0.5;" x1="884.5" x2="1256.5" y1="47" y2="47"/><text fill="#000000" font-family="sans-serif" font-size="14" lengthAdjust="spacing" textLength="94" x="889.5" y="66.1074">-Repositories()</text><text fill="#000000" font-family="sans-serif" font-size="14" lengthAdjust="spacing" textLength="178" x="889.5" y="84.7285">+getInstance(): Repositories</text><text fill="#000000" font-family="sans-serif" font-size="14" lengthAdjust="spacing" textLength="306" x="889.5" y="103.3496">+getEmployeeRepository(): EmployeeRepository</text><text fill="#000000" font-family="sans-serif" font-size="14" lengthAdjust="spacing" textLength="232" x="889.5" y="121.9707">+getSkillRepository(): SkillRepository</text><text fill="#000000" font-family="sans-serif" font-size="14" lengthAdjust="spacing" textLength="362" x="889.5" y="140.5918">+getAuthenticationRepository(): AuthenticationRepository</text></g><!--class OrganizationRepository--><g id="elem_OrganizationRepository"><rect codeLine="31" fill="#F1F1F1" height="66.6211" id="OrganizationRepository" rx="2.5" ry="2.5" style="stroke:#181818;stroke-width:0.5;" width="242" x="819.5" y="218"/><ellipse cx="862.4" cy="234" fill="#ADD1B2" rx="11" ry="11" style="stroke:#181818;stroke-width:1.0;"/><path d="M865.1656,229.875 Q865.3219,229.6563 865.5094,229.5469 Q865.6969,229.4375 865.9156,229.4375 Q866.2906,229.4375 866.525,229.7031 Q866.7594,229.9531 866.7594,230.5625 L866.7594,232.0156 Q866.7594,232.625 866.525,232.8906 Q866.2906,233.1563 865.9156,233.1563 Q865.5719,233.1563 865.3688,232.9531 Q865.1656,232.7656 865.0563,232.25 Q865.0094,231.8906 864.8219,231.7031 Q864.4938,231.3281 863.8844,231.1094 Q863.275,230.8906 862.65,230.8906 Q861.8844,230.8906 861.2438,231.2188 Q860.6188,231.5469 860.1188,232.2969 Q859.6344,233.0469 859.6344,234.0781 L859.6344,235.1719 Q859.6344,236.4063 860.525,237.2344 Q861.4156,238.0469 863.0094,238.0469 Q863.9469,238.0469 864.6031,237.7969 Q864.9938,237.6406 865.4156,237.2031 Q865.6813,236.9375 865.8219,236.8594 Q865.9781,236.7813 866.1813,236.7813 Q866.5094,236.7813 866.7594,237.0469 Q867.025,237.2969 867.025,237.6406 Q867.025,237.9844 866.6813,238.3906 Q866.1813,238.9688 865.3844,239.2969 Q864.3063,239.75 863.0094,239.75 Q861.4938,239.75 860.2906,239.125 Q859.3063,238.625 858.6188,237.5625 Q857.9313,236.4844 857.9313,235.2031 L857.9313,234.0469 Q857.9313,232.7188 858.5406,231.5781 Q859.1656,230.4219 860.2594,229.8125 Q861.3531,229.1875 862.5875,229.1875 Q863.3219,229.1875 863.9625,229.3594 Q864.6188,229.5156 865.1656,229.875 Z " fill="#000000"/><text fill="#000000" font-family="sans-serif" font-size="14" lengthAdjust="spacing" textLength="148" x="882.6" y="239.7969">OrganizationRepository</text><line style="stroke:#181818;stroke-width:0.5;" x1="820.5" x2="1060.5" y1="250" y2="250"/><line style="stroke:#181818;stroke-width:0.5;" x1="820.5" x2="1060.5" y1="258" y2="258"/><text fill="#000000" font-family="sans-serif" font-size="14" lengthAdjust="spacing" textLength="230" x="825.5" y="277.1074">+getOrganizationByUserEmail(email)</text></g><!--class Organization--><g id="elem_Organization"><rect codeLine="35" fill="#F1F1F1" height="215.5898" id="Organization" rx="2.5" ry="2.5" style="stroke:#181818;stroke-width:0.5;" width="465" x="596" y="373"/><ellipse cx="784.25" cy="389" fill="#ADD1B2" rx="11" ry="11" style="stroke:#181818;stroke-width:1.0;"/><path d="M787.0156,384.875 Q787.1719,384.6563 787.3594,384.5469 Q787.5469,384.4375 787.7656,384.4375 Q788.1406,384.4375 788.375,384.7031 Q788.6094,384.9531 788.6094,385.5625 L788.6094,387.0156 Q788.6094,387.625 788.375,387.8906 Q788.1406,388.1563 787.7656,388.1563 Q787.4219,388.1563 787.2188,387.9531 Q787.0156,387.7656 786.9063,387.25 Q786.8594,386.8906 786.6719,386.7031 Q786.3438,386.3281 785.7344,386.1094 Q785.125,385.8906 784.5,385.8906 Q783.7344,385.8906 783.0938,386.2188 Q782.4688,386.5469 781.9688,387.2969 Q781.4844,388.0469 781.4844,389.0781 L781.4844,390.1719 Q781.4844,391.4063 782.375,392.2344 Q783.2656,393.0469 784.8594,393.0469 Q785.7969,393.0469 786.4531,392.7969 Q786.8438,392.6406 787.2656,392.2031 Q787.5313,391.9375 787.6719,391.8594 Q787.8281,391.7813 788.0313,391.7813 Q788.3594,391.7813 788.6094,392.0469 Q788.875,392.2969 788.875,392.6406 Q788.875,392.9844 788.5313,393.3906 Q788.0313,393.9688 787.2344,394.2969 Q786.1563,394.75 784.8594,394.75 Q783.3438,394.75 782.1406,394.125 Q781.1563,393.625 780.4688,392.5625 Q779.7813,391.4844 779.7813,390.2031 L779.7813,389.0469 Q779.7813,387.7188 780.3906,386.5781 Q781.0156,385.4219 782.1094,384.8125 Q783.2031,384.1875 784.4375,384.1875 Q785.1719,384.1875 785.8125,384.3594 Q786.4688,384.5156 787.0156,384.875 Z " fill="#000000"/><text fill="#000000" font-family="sans-serif" font-size="14" lengthAdjust="spacing" textLength="80" x="804.75" y="394.7969">Organization</text><line style="stroke:#181818;stroke-width:0.5;" x1="597" x2="1060" y1="405" y2="405"/><text fill="#000000" font-family="sans-serif" font-size="14" lengthAdjust="spacing" textLength="81" x="602" y="424.1074">-String name</text><text fill="#000000" font-family="sans-serif" font-size="14" lengthAdjust="spacing" textLength="114" x="602" y="442.7285">-String vatNumber</text><text fill="#000000" font-family="sans-serif" font-size="14" lengthAdjust="spacing" textLength="86" x="602" y="461.3496">-String phone</text><text fill="#000000" font-family="sans-serif" font-size="14" lengthAdjust="spacing" textLength="79" x="602" y="479.9707">-String email</text><text fill="#000000" font-family="sans-serif" font-size="14" lengthAdjust="spacing" textLength="151" x="602" y="498.5918">-Address postalAddress</text><line style="stroke:#181818;stroke-width:0.5;" x1="597" x2="1060" y1="506.1055" y2="506.1055"/><text fill="#000000" font-family="sans-serif" font-size="14" lengthAdjust="spacing" textLength="87" x="602" y="525.2129">-addSkill(skill)</text><text fill="#000000" font-family="sans-serif" font-size="14" lengthAdjust="spacing" textLength="112" x="602" y="543.834">-validateSkill(skill)</text><text fill="#000000" font-family="sans-serif" font-size="14" lengthAdjust="spacing" textLength="453" x="602" y="562.4551">+Organization(name, vatNumber, webSite, phone, email, postalAddress)</text><text fill="#000000" font-family="sans-serif" font-size="14" lengthAdjust="spacing" textLength="147" x="602" y="581.0762">-getUserByEmail(email)</text></g><!--class AuthenticationRepository--><g id="elem_AuthenticationRepository"><rect codeLine="48" fill="#F1F1F1" height="66.6211" id="AuthenticationRepository" rx="2.5" ry="2.5" style="stroke:#181818;stroke-width:0.5;" width="190" x="331.5" y="218"/><ellipse cx="346.5" cy="234" fill="#ADD1B2" rx="11" ry="11" style="stroke:#181818;stroke-width:1.0;"/><path d="M349.2656,229.875 Q349.4219,229.6563 349.6094,229.5469 Q349.7969,229.4375 350.0156,229.4375 Q350.3906,229.4375 350.625,229.7031 Q350.8594,229.9531 350.8594,230.5625 L350.8594,232.0156 Q350.8594,232.625 350.625,232.8906 Q350.3906,233.1563 350.0156,233.1563 Q349.6719,233.1563 349.4688,232.9531 Q349.2656,232.7656 349.1563,232.25 Q349.1094,231.8906 348.9219,231.7031 Q348.5938,231.3281 347.9844,231.1094 Q347.375,230.8906 346.75,230.8906 Q345.9844,230.8906 345.3438,231.2188 Q344.7188,231.5469 344.2188,232.2969 Q343.7344,233.0469 343.7344,234.0781 L343.7344,235.1719 Q343.7344,236.4063 344.625,237.2344 Q345.5156,238.0469 347.1094,238.0469 Q348.0469,238.0469 348.7031,237.7969 Q349.0938,237.6406 349.5156,237.2031 Q349.7813,236.9375 349.9219,236.8594 Q350.0781,236.7813 350.2813,236.7813 Q350.6094,236.7813 350.8594,237.0469 Q351.125,237.2969 351.125,237.6406 Q351.125,237.9844 350.7813,238.3906 Q350.2813,238.9688 349.4844,239.2969 Q348.4063,239.75 347.1094,239.75 Q345.5938,239.75 344.3906,239.125 Q343.4063,238.625 342.7188,237.5625 Q342.0313,236.4844 342.0313,235.2031 L342.0313,234.0469 Q342.0313,232.7188 342.6406,231.5781 Q343.2656,230.4219 344.3594,229.8125 Q345.4531,229.1875 346.6875,229.1875 Q347.4219,229.1875 348.0625,229.3594 Q348.7188,229.5156 349.2656,229.875 Z " fill="#000000"/><text fill="#000000" font-family="sans-serif" font-size="14" lengthAdjust="spacing" textLength="158" x="360.5" y="239.7969">AuthenticationRepository</text><line style="stroke:#181818;stroke-width:0.5;" x1="332.5" x2="520.5" y1="250" y2="250"/><line style="stroke:#181818;stroke-width:0.5;" x1="332.5" x2="520.5" y1="258" y2="258"/><text fill="#000000" font-family="sans-serif" font-size="14" lengthAdjust="spacing" textLength="165" x="337.5" y="277.1074">+getCurrentUserSession()</text></g><!--class UserSession--><g id="elem_UserSession"><rect codeLine="52" fill="#F1F1F1" height="85.2422" id="UserSession" rx="2.5" ry="2.5" style="stroke:#181818;stroke-width:0.5;" width="156" x="628.5" y="209"/><ellipse cx="663.75" cy="225" fill="#ADD1B2" rx="11" ry="11" style="stroke:#181818;stroke-width:1.0;"/><path d="M666.5156,220.875 Q666.6719,220.6563 666.8594,220.5469 Q667.0469,220.4375 667.2656,220.4375 Q667.6406,220.4375 667.875,220.7031 Q668.1094,220.9531 668.1094,221.5625 L668.1094,223.0156 Q668.1094,223.625 667.875,223.8906 Q667.6406,224.1563 667.2656,224.1563 Q666.9219,224.1563 666.7188,223.9531 Q666.5156,223.7656 666.4063,223.25 Q666.3594,222.8906 666.1719,222.7031 Q665.8438,222.3281 665.2344,222.1094 Q664.625,221.8906 664,221.8906 Q663.2344,221.8906 662.5938,222.2188 Q661.9688,222.5469 661.4688,223.2969 Q660.9844,224.0469 660.9844,225.0781 L660.9844,226.1719 Q660.9844,227.4063 661.875,228.2344 Q662.7656,229.0469 664.3594,229.0469 Q665.2969,229.0469 665.9531,228.7969 Q666.3438,228.6406 666.7656,228.2031 Q667.0313,227.9375 667.1719,227.8594 Q667.3281,227.7813 667.5313,227.7813 Q667.8594,227.7813 668.1094,228.0469 Q668.375,228.2969 668.375,228.6406 Q668.375,228.9844 668.0313,229.3906 Q667.5313,229.9688 666.7344,230.2969 Q665.6563,230.75 664.3594,230.75 Q662.8438,230.75 661.6406,230.125 Q660.6563,229.625 659.9688,228.5625 Q659.2813,227.4844 659.2813,226.2031 L659.2813,225.0469 Q659.2813,223.7188 659.8906,222.5781 Q660.5156,221.4219 661.6094,220.8125 Q662.7031,220.1875 663.9375,220.1875 Q664.6719,220.1875 665.3125,220.3594 Q665.9688,220.5156 666.5156,220.875 Z " fill="#000000"/><text fill="#000000" font-family="sans-serif" font-size="14" lengthAdjust="spacing" textLength="79" x="682.25" y="230.7969">UserSession</text><line style="stroke:#181818;stroke-width:0.5;" x1="629.5" x2="783.5" y1="241" y2="241"/><line style="stroke:#181818;stroke-width:0.5;" x1="629.5" x2="783.5" y1="249" y2="249"/><text fill="#000000" font-family="sans-serif" font-size="14" lengthAdjust="spacing" textLength="144" x="634.5" y="268.1074">+isLoggedInWithRole()</text><text fill="#000000" font-family="sans-serif" font-size="14" lengthAdjust="spacing" textLength="78" x="634.5" y="286.7285">+getUserId()</text></g><!--class Employee--><g id="elem_Employee"><rect codeLine="57" fill="#F1F1F1" height="345.9375" id="Employee" rx="2.5" ry="2.5" style="stroke:#181818;stroke-width:0.5;" width="189" x="929" y="870"/><ellipse cx="988.25" cy="886" fill="#ADD1B2" rx="11" ry="11" style="stroke:#181818;stroke-width:1.0;"/><path d="M991.0156,881.875 Q991.1719,881.6563 991.3594,881.5469 Q991.5469,881.4375 991.7656,881.4375 Q992.1406,881.4375 992.375,881.7031 Q992.6094,881.9531 992.6094,882.5625 L992.6094,884.0156 Q992.6094,884.625 992.375,884.8906 Q992.1406,885.1563 991.7656,885.1563 Q991.4219,885.1563 991.2188,884.9531 Q991.0156,884.7656 990.9063,884.25 Q990.8594,883.8906 990.6719,883.7031 Q990.3438,883.3281 989.7344,883.1094 Q989.125,882.8906 988.5,882.8906 Q987.7344,882.8906 987.0938,883.2188 Q986.4688,883.5469 985.9688,884.2969 Q985.4844,885.0469 985.4844,886.0781 L985.4844,887.1719 Q985.4844,888.4063 986.375,889.2344 Q987.2656,890.0469 988.8594,890.0469 Q989.7969,890.0469 990.4531,889.7969 Q990.8438,889.6406 991.2656,889.2031 Q991.5313,888.9375 991.6719,888.8594 Q991.8281,888.7813 992.0313,888.7813 Q992.3594,888.7813 992.6094,889.0469 Q992.875,889.2969 992.875,889.6406 Q992.875,889.9844 992.5313,890.3906 Q992.0313,890.9688 991.2344,891.2969 Q990.1563,891.75 988.8594,891.75 Q987.3438,891.75 986.1406,891.125 Q985.1563,890.625 984.4688,889.5625 Q983.7813,888.4844 983.7813,887.2031 L983.7813,886.0469 Q983.7813,884.7188 984.3906,883.5781 Q985.0156,882.4219 986.1094,881.8125 Q987.2031,881.1875 988.4375,881.1875 Q989.1719,881.1875 989.8125,881.3594 Q990.4688,881.5156 991.0156,881.875 Z " fill="#000000"/><text fill="#000000" font-family="sans-serif" font-size="14" lengthAdjust="spacing" textLength="62" x="1008.75" y="891.7969">Employee</text><line style="stroke:#181818;stroke-width:0.5;" x1="930" x2="1117" y1="902" y2="902"/><text fill="#000000" font-family="sans-serif" font-size="14" lengthAdjust="spacing" textLength="81" x="935" y="921.1074">-String name</text><text fill="#000000" font-family="sans-serif" font-size="14" lengthAdjust="spacing" textLength="95" x="935" y="939.7285">-Date birthdate</text><text fill="#000000" font-family="sans-serif" font-size="14" lengthAdjust="spacing" textLength="134" x="935" y="958.3496">-Date admission date</text><text fill="#000000" font-family="sans-serif" font-size="14" lengthAdjust="spacing" textLength="151" x="935" y="976.9707">-Address postalAddress</text><text fill="#000000" font-family="sans-serif" font-size="14" lengthAdjust="spacing" textLength="86" x="935" y="995.5918">-String phone</text><text fill="#000000" font-family="sans-serif" font-size="14" lengthAdjust="spacing" textLength="79" x="935" y="1014.2129">-String email</text><text fill="#000000" font-family="sans-serif" font-size="14" lengthAdjust="spacing" textLength="117" x="935" y="1032.834">-String ID doc type</text><text fill="#000000" font-family="sans-serif" font-size="14" lengthAdjust="spacing" textLength="177" x="935" y="1051.4551">-String ID document number</text><text fill="#000000" font-family="sans-serif" font-size="14" lengthAdjust="spacing" textLength="122" x="935" y="1070.0762">-String Taxpayer ID</text><text fill="#000000" font-family="sans-serif" font-size="14" lengthAdjust="spacing" textLength="57" x="935" y="1088.6973">-Skill skill</text><line style="stroke:#181818;stroke-width:0.5;" x1="930" x2="1117" y1="1096.2109" y2="1096.2109"/><text fill="#000000" font-family="sans-serif" font-size="14" lengthAdjust="spacing" textLength="166" x="935" y="1115.3184">+CompareTo(TaxPayerID)</text><text fill="#000000" font-family="sans-serif" font-size="14" lengthAdjust="spacing" textLength="55" x="935" y="1133.9395">+Clone()</text><text fill="#000000" font-family="sans-serif" font-size="14" lengthAdjust="spacing" textLength="67" x="935" y="1152.5605">+toString()</text><text fill="#000000" font-family="sans-serif" font-size="14" lengthAdjust="spacing" textLength="127" x="935" y="1171.1816">+hasThisEmail(mail)</text><text fill="#000000" font-family="sans-serif" font-size="14" lengthAdjust="spacing" textLength="106" x="935" y="1189.8027">+createSkill(skill)</text><text fill="#000000" font-family="sans-serif" font-size="14" lengthAdjust="spacing" textLength="158" x="935" y="1208.4238">+addTeamMemberSkill ()</text></g><!--class TeamMember--><g id="elem_TeamMember"><rect codeLine="76" fill="#F1F1F1" height="234.2109" id="TeamMember" rx="2.5" ry="2.5" style="stroke:#181818;stroke-width:0.5;" width="447" x="829" y="1661"/><ellipse cx="1004.75" cy="1677" fill="#ADD1B2" rx="11" ry="11" style="stroke:#181818;stroke-width:1.0;"/><path d="M1007.5156,1672.875 Q1007.6719,1672.6563 1007.8594,1672.5469 Q1008.0469,1672.4375 1008.2656,1672.4375 Q1008.6406,1672.4375 1008.875,1672.7031 Q1009.1094,1672.9531 1009.1094,1673.5625 L1009.1094,1675.0156 Q1009.1094,1675.625 1008.875,1675.8906 Q1008.6406,1676.1563 1008.2656,1676.1563 Q1007.9219,1676.1563 1007.7188,1675.9531 Q1007.5156,1675.7656 1007.4063,1675.25 Q1007.3594,1674.8906 1007.1719,1674.7031 Q1006.8438,1674.3281 1006.2344,1674.1094 Q1005.625,1673.8906 1005,1673.8906 Q1004.2344,1673.8906 1003.5938,1674.2188 Q1002.9688,1674.5469 1002.4688,1675.2969 Q1001.9844,1676.0469 1001.9844,1677.0781 L1001.9844,1678.1719 Q1001.9844,1679.4063 1002.875,1680.2344 Q1003.7656,1681.0469 1005.3594,1681.0469 Q1006.2969,1681.0469 1006.9531,1680.7969 Q1007.3438,1680.6406 1007.7656,1680.2031 Q1008.0313,1679.9375 1008.1719,1679.8594 Q1008.3281,1679.7813 1008.5313,1679.7813 Q1008.8594,1679.7813 1009.1094,1680.0469 Q1009.375,1680.2969 1009.375,1680.6406 Q1009.375,1680.9844 1009.0313,1681.3906 Q1008.5313,1681.9688 1007.7344,1682.2969 Q1006.6563,1682.75 1005.3594,1682.75 Q1003.8438,1682.75 1002.6406,1682.125 Q1001.6563,1681.625 1000.9688,1680.5625 Q1000.2813,1679.4844 1000.2813,1678.2031 L1000.2813,1677.0469 Q1000.2813,1675.7188 1000.8906,1674.5781 Q1001.5156,1673.4219 1002.6094,1672.8125 Q1003.7031,1672.1875 1004.9375,1672.1875 Q1005.6719,1672.1875 1006.3125,1672.3594 Q1006.9688,1672.5156 1007.5156,1672.875 Z " fill="#000000"/><text fill="#000000" font-family="sans-serif" font-size="14" lengthAdjust="spacing" textLength="87" x="1025.25" y="1682.7969">TeamMember</text><line style="stroke:#181818;stroke-width:0.5;" x1="830" x2="1275" y1="1693" y2="1693"/><text fill="#000000" font-family="sans-serif" font-size="14" lengthAdjust="spacing" textLength="81" x="835" y="1712.1074">-String name</text><text fill="#000000" font-family="sans-serif" font-size="14" lengthAdjust="spacing" textLength="114" x="835" y="1730.7285">-String vatNumber</text><text fill="#000000" font-family="sans-serif" font-size="14" lengthAdjust="spacing" textLength="86" x="835" y="1749.3496">-String phone</text><text fill="#000000" font-family="sans-serif" font-size="14" lengthAdjust="spacing" textLength="79" x="835" y="1767.9707">-String email</text><text fill="#000000" font-family="sans-serif" font-size="14" lengthAdjust="spacing" textLength="151" x="835" y="1786.5918">-Address postalAddress</text><line style="stroke:#181818;stroke-width:0.5;" x1="830" x2="1275" y1="1794.1055" y2="1794.1055"/><text fill="#000000" font-family="sans-serif" font-size="14" lengthAdjust="spacing" textLength="87" x="835" y="1813.2129">-addSkill(skill)</text><text fill="#000000" font-family="sans-serif" font-size="14" lengthAdjust="spacing" textLength="112" x="835" y="1831.834">-validateSkill(skill)</text><text fill="#000000" font-family="sans-serif" font-size="14" lengthAdjust="spacing" textLength="435" x="835" y="1850.4551">+Employee(name, vatNumber, webSite, phone, email, postalAddress)</text><text fill="#000000" font-family="sans-serif" font-size="14" lengthAdjust="spacing" textLength="106" x="835" y="1869.0762">+createSkill(skill)</text><text fill="#000000" font-family="sans-serif" font-size="14" lengthAdjust="spacing" textLength="147" x="835" y="1887.6973">-getUserByEmail(email)</text></g><!--class EmployeeRepository--><g id="elem_EmployeeRepository"><rect codeLine="90" fill="#F1F1F1" height="141.1055" id="EmployeeRepository" rx="2.5" ry="2.5" style="stroke:#181818;stroke-width:0.5;" width="224" x="911.5" y="650"/><ellipse cx="954.4" cy="666" fill="#ADD1B2" rx="11" ry="11" style="stroke:#181818;stroke-width:1.0;"/><path d="M957.1656,661.875 Q957.3219,661.6563 957.5094,661.5469 Q957.6969,661.4375 957.9156,661.4375 Q958.2906,661.4375 958.525,661.7031 Q958.7594,661.9531 958.7594,662.5625 L958.7594,664.0156 Q958.7594,664.625 958.525,664.8906 Q958.2906,665.1563 957.9156,665.1563 Q957.5719,665.1563 957.3688,664.9531 Q957.1656,664.7656 957.0563,664.25 Q957.0094,663.8906 956.8219,663.7031 Q956.4938,663.3281 955.8844,663.1094 Q955.275,662.8906 954.65,662.8906 Q953.8844,662.8906 953.2438,663.2188 Q952.6188,663.5469 952.1188,664.2969 Q951.6344,665.0469 951.6344,666.0781 L951.6344,667.1719 Q951.6344,668.4063 952.525,669.2344 Q953.4156,670.0469 955.0094,670.0469 Q955.9469,670.0469 956.6031,669.7969 Q956.9938,669.6406 957.4156,669.2031 Q957.6813,668.9375 957.8219,668.8594 Q957.9781,668.7813 958.1813,668.7813 Q958.5094,668.7813 958.7594,669.0469 Q959.025,669.2969 959.025,669.6406 Q959.025,669.9844 958.6813,670.3906 Q958.1813,670.9688 957.3844,671.2969 Q956.3063,671.75 955.0094,671.75 Q953.4938,671.75 952.2906,671.125 Q951.3063,670.625 950.6188,669.5625 Q949.9313,668.4844 949.9313,667.2031 L949.9313,666.0469 Q949.9313,664.7188 950.5406,663.5781 Q951.1656,662.4219 952.2594,661.8125 Q953.3531,661.1875 954.5875,661.1875 Q955.3219,661.1875 955.9625,661.3594 Q956.6188,661.5156 957.1656,661.875 Z " fill="#000000"/><text fill="#000000" font-family="sans-serif" font-size="14" lengthAdjust="spacing" textLength="130" x="974.6" y="671.7969">EmployeeRepository</text><line style="stroke:#181818;stroke-width:0.5;" x1="912.5" x2="1134.5" y1="682" y2="682"/><line style="stroke:#181818;stroke-width:0.5;" x1="912.5" x2="1134.5" y1="690" y2="690"/><text fill="#000000" font-family="sans-serif" font-size="14" lengthAdjust="spacing" textLength="145" x="917.5" y="709.1074">-EmployeeRepository()</text><text fill="#000000" font-family="sans-serif" font-size="14" lengthAdjust="spacing" textLength="119" x="917.5" y="727.7285">+addSkill(Skill skill)</text><text fill="#000000" font-family="sans-serif" font-size="14" lengthAdjust="spacing" textLength="104" x="917.5" y="746.3496">+listEmployees()</text><text fill="#000000" font-family="sans-serif" font-size="14" lengthAdjust="spacing" textLength="112" x="917.5" y="764.9707">+emailExists(mail)</text><text fill="#000000" font-family="sans-serif" font-size="14" lengthAdjust="spacing" textLength="212" x="917.5" y="783.5918">+getEmployeeByUserEmail(email)</text></g><!--class SkillRepository--><g id="elem_SkillRepository"><rect codeLine="98" fill="#F1F1F1" height="141.1055" id="SkillRepository" rx="2.5" ry="2.5" style="stroke:#181818;stroke-width:0.5;" width="214" x="1076.5" y="1277"/><ellipse cx="1132.75" cy="1293" fill="#ADD1B2" rx="11" ry="11" style="stroke:#181818;stroke-width:1.0;"/><path d="M1135.5156,1288.875 Q1135.6719,1288.6563 1135.8594,1288.5469 Q1136.0469,1288.4375 1136.2656,1288.4375 Q1136.6406,1288.4375 1136.875,1288.7031 Q1137.1094,1288.9531 1137.1094,1289.5625 L1137.1094,1291.0156 Q1137.1094,1291.625 1136.875,1291.8906 Q1136.6406,1292.1563 1136.2656,1292.1563 Q1135.9219,1292.1563 1135.7188,1291.9531 Q1135.5156,1291.7656 1135.4063,1291.25 Q1135.3594,1290.8906 1135.1719,1290.7031 Q1134.8438,1290.3281 1134.2344,1290.1094 Q1133.625,1289.8906 1133,1289.8906 Q1132.2344,1289.8906 1131.5938,1290.2188 Q1130.9688,1290.5469 1130.4688,1291.2969 Q1129.9844,1292.0469 1129.9844,1293.0781 L1129.9844,1294.1719 Q1129.9844,1295.4063 1130.875,1296.2344 Q1131.7656,1297.0469 1133.3594,1297.0469 Q1134.2969,1297.0469 1134.9531,1296.7969 Q1135.3438,1296.6406 1135.7656,1296.2031 Q1136.0313,1295.9375 1136.1719,1295.8594 Q1136.3281,1295.7813 1136.5313,1295.7813 Q1136.8594,1295.7813 1137.1094,1296.0469 Q1137.375,1296.2969 1137.375,1296.6406 Q1137.375,1296.9844 1137.0313,1297.3906 Q1136.5313,1297.9688 1135.7344,1298.2969 Q1134.6563,1298.75 1133.3594,1298.75 Q1131.8438,1298.75 1130.6406,1298.125 Q1129.6563,1297.625 1128.9688,1296.5625 Q1128.2813,1295.4844 1128.2813,1294.2031 L1128.2813,1293.0469 Q1128.2813,1291.7188 1128.8906,1290.5781 Q1129.5156,1289.4219 1130.6094,1288.8125 Q1131.7031,1288.1875 1132.9375,1288.1875 Q1133.6719,1288.1875 1134.3125,1288.3594 Q1134.9688,1288.5156 1135.5156,1288.875 Z " fill="#000000"/><text fill="#000000" font-family="sans-serif" font-size="14" lengthAdjust="spacing" textLength="93" x="1153.25" y="1298.7969">SkillRepository</text><line style="stroke:#181818;stroke-width:0.5;" x1="1077.5" x2="1289.5" y1="1309" y2="1309"/><text fill="#000000" font-family="sans-serif" font-size="14" lengthAdjust="spacing" textLength="102" x="1082.5" y="1328.1074">-List&lt;Skill&gt; skills</text><line style="stroke:#181818;stroke-width:0.5;" x1="1077.5" x2="1289.5" y1="1335.6211" y2="1335.6211"/><text fill="#000000" font-family="sans-serif" font-size="14" lengthAdjust="spacing" textLength="111" x="1082.5" y="1354.7285">+SkillRepository()</text><text fill="#000000" font-family="sans-serif" font-size="14" lengthAdjust="spacing" textLength="202" x="1082.5" y="1373.3496">+getSkillById(skillId: String): Skill</text><text fill="#000000" font-family="sans-serif" font-size="14" lengthAdjust="spacing" textLength="157" x="1082.5" y="1391.9707">+addSkill(skill: Skill): void</text><text fill="#000000" font-family="sans-serif" font-size="14" lengthAdjust="spacing" textLength="85" x="1082.5" y="1410.5918">+getSkillList()</text></g><!--class Skill--><g id="elem_Skill"><rect codeLine="106" fill="#F1F1F1" height="85.2422" id="Skill" rx="2.5" ry="2.5" style="stroke:#181818;stroke-width:0.5;" width="159" x="1090" y="1497"/><ellipse cx="1152.75" cy="1513" fill="#ADD1B2" rx="11" ry="11" style="stroke:#181818;stroke-width:1.0;"/><path d="M1155.5156,1508.875 Q1155.6719,1508.6563 1155.8594,1508.5469 Q1156.0469,1508.4375 1156.2656,1508.4375 Q1156.6406,1508.4375 1156.875,1508.7031 Q1157.1094,1508.9531 1157.1094,1509.5625 L1157.1094,1511.0156 Q1157.1094,1511.625 1156.875,1511.8906 Q1156.6406,1512.1563 1156.2656,1512.1563 Q1155.9219,1512.1563 1155.7188,1511.9531 Q1155.5156,1511.7656 1155.4063,1511.25 Q1155.3594,1510.8906 1155.1719,1510.7031 Q1154.8438,1510.3281 1154.2344,1510.1094 Q1153.625,1509.8906 1153,1509.8906 Q1152.2344,1509.8906 1151.5938,1510.2188 Q1150.9688,1510.5469 1150.4688,1511.2969 Q1149.9844,1512.0469 1149.9844,1513.0781 L1149.9844,1514.1719 Q1149.9844,1515.4063 1150.875,1516.2344 Q1151.7656,1517.0469 1153.3594,1517.0469 Q1154.2969,1517.0469 1154.9531,1516.7969 Q1155.3438,1516.6406 1155.7656,1516.2031 Q1156.0313,1515.9375 1156.1719,1515.8594 Q1156.3281,1515.7813 1156.5313,1515.7813 Q1156.8594,1515.7813 1157.1094,1516.0469 Q1157.375,1516.2969 1157.375,1516.6406 Q1157.375,1516.9844 1157.0313,1517.3906 Q1156.5313,1517.9688 1155.7344,1518.2969 Q1154.6563,1518.75 1153.3594,1518.75 Q1151.8438,1518.75 1150.6406,1518.125 Q1149.6563,1517.625 1148.9688,1516.5625 Q1148.2813,1515.4844 1148.2813,1514.2031 L1148.2813,1513.0469 Q1148.2813,1511.7188 1148.8906,1510.5781 Q1149.5156,1509.4219 1150.6094,1508.8125 Q1151.7031,1508.1875 1152.9375,1508.1875 Q1153.6719,1508.1875 1154.3125,1508.3594 Q1154.9688,1508.5156 1155.5156,1508.875 Z " fill="#000000"/><text fill="#000000" font-family="sans-serif" font-size="14" lengthAdjust="spacing" textLength="25" x="1173.25" y="1518.7969">Skill</text><line style="stroke:#181818;stroke-width:0.5;" x1="1091" x2="1248" y1="1529" y2="1529"/><text fill="#000000" font-family="sans-serif" font-size="14" lengthAdjust="spacing" textLength="105" x="1096" y="1548.1074">-String skillName</text><line style="stroke:#181818;stroke-width:0.5;" x1="1091" x2="1248" y1="1555.6211" y2="1555.6211"/><text fill="#000000" font-family="sans-serif" font-size="14" lengthAdjust="spacing" textLength="147" x="1096" y="1574.7285">+Skill(skillName: String)</text></g><!--link Repositories to Repositories--><g id="link_Repositories_Repositories"><path codeLine="111" d="M1257.56,61.61 C1278.76,64.59 1292.5,69.88 1292.5,77.5 C1292.5,85.12 1284.7016,89.5748 1263.5016,92.5548 " fill="none" id="Repositories-to-Repositories" style="stroke:#181818;stroke-width:1.0;"/><polygon fill="#181818" points="1257.56,93.39,1267.0292,96.0983,1262.5113,92.694,1265.9156,88.1762,1257.56,93.39" style="stroke:#181818;stroke-width:1.0;"/><text fill="#000000" font-family="sans-serif" font-size="13" lengthAdjust="spacing" textLength="49" x="1298.5" y="83.0283">instance</text></g><!--link AssignSkillUI to AssignSkillController--><g id="link_AssignSkillUI_AssignSkillController"><path codeLine="112" d="M118.05,77.5 C129.79,77.5 136.02,77.5 147.26,77.5 " fill="none" id="AssignSkillUI-to-AssignSkillController" style="stroke:#181818;stroke-width:1.0;stroke-dasharray:7.0,7.0;"/><polygon fill="#181818" points="153.26,77.5,144.26,73.5,148.26,77.5,144.26,81.5,153.26,77.5" style="stroke:#181818;stroke-width:1.0;"/></g><!--link Repositories to OrganizationRepository--><g id="link_Repositories_OrganizationRepository"><path codeLine="113" d="M1017.62,148.46 C999.49,172.45 983.6691,193.3944 968.8391,213.0044 " fill="none" id="Repositories-to-OrganizationRepository" style="stroke:#181818;stroke-width:1.0;"/><polygon fill="#181818" points="965.22,217.79,973.8391,213.0243,968.2359,213.802,967.4582,208.1988,965.22,217.79" style="stroke:#181818;stroke-width:1.0;"/><text fill="#000000" font-family="sans-serif" font-size="13" lengthAdjust="spacing" textLength="7" x="962.2651" y="206.8359">1</text></g><!--link OrganizationRepository to Organization--><g id="link_OrganizationRepository_Organization"><path codeLine="114" d="M924.45,285.1 C913.02,308.32 899.5995,335.5667 883.8795,367.5067 " fill="none" id="OrganizationRepository-to-Organization" style="stroke:#181818;stroke-width:1.0;"/><polygon fill="#181818" points="881.23,372.89,888.7932,366.5814,883.4379,368.4039,881.6154,363.0487,881.23,372.89" style="stroke:#181818;stroke-width:1.0;"/><text fill="#000000" font-family="sans-serif" font-size="13" lengthAdjust="spacing" textLength="77" x="904.5" y="339.0283">organizations</text><text fill="#000000" font-family="sans-serif" font-size="13" lengthAdjust="spacing" textLength="5" x="879.7618" y="361.7438">*</text></g><!--link Organization to EmployeeRepository--><g id="link_Organization_EmployeeRepository"><path codeLine="115" d="M916.59,589.29 C933.44,609.81 946.8734,626.1621 962.4434,645.1321 " fill="none" id="Organization-to-EmployeeRepository" style="stroke:#181818;stroke-width:1.0;"/><polygon fill="#181818" points="966.25,649.77,963.632,640.2755,963.0778,645.9051,957.4482,645.351,966.25,649.77" style="stroke:#181818;stroke-width:1.0;"/><text fill="#000000" font-family="sans-serif" font-size="13" lengthAdjust="spacing" textLength="7" x="914.7447" y="610.4566">1</text><text fill="#000000" font-family="sans-serif" font-size="13" lengthAdjust="spacing" textLength="7" x="952.9852" y="638.6373">1</text></g><!--link Organization to Employee--><g id="link_Organization_Employee"><path codeLine="116" d="M833.7,589.21 C838.04,678.45 843.5,791 843.5,791 C843.5,791 881.8927,844.5446 925.2627,905.0046 " fill="none" id="Organization-to-Employee" style="stroke:#181818;stroke-width:1.0;"/><polygon fill="#181818" points="928.76,909.88,926.7643,900.2354,925.8456,905.8172,920.2639,904.8985,928.76,909.88" style="stroke:#181818;stroke-width:1.0;"/><text fill="#000000" font-family="sans-serif" font-size="13" lengthAdjust="spacing" textLength="49" x="844.5" y="726.0283">employs</text><text fill="#000000" font-family="sans-serif" font-size="13" lengthAdjust="spacing" textLength="7" x="826.8089" y="610.7375">1</text><text fill="#000000" font-family="sans-serif" font-size="13" lengthAdjust="spacing" textLength="5" x="916.0112" y="895.6371">*</text></g><!--link AssignSkillController to Repositories--><g id="link_AssignSkillController_Repositories"><path codeLine="117" d="M779.56,77.5 C814.93,77.5 844.09,77.5 877.11,77.5 " fill="none" id="AssignSkillController-to-Repositories" style="stroke:#181818;stroke-width:1.0;stroke-dasharray:7.0,7.0;"/><polygon fill="#181818" points="883.11,77.5,874.11,73.5,878.11,77.5,874.11,81.5,883.11,77.5" style="stroke:#181818;stroke-width:1.0;"/><text fill="#000000" font-family="sans-serif" font-size="13" lengthAdjust="spacing" textLength="67" x="798" y="70.5283">repositories</text></g><!--link Repositories to AuthenticationRepository--><g id="link_Repositories_AuthenticationRepository"><path codeLine="118" d="M883.36,128.48 C764.9,160.12 622.4969,198.152 527.6069,223.492 " fill="none" id="Repositories-to-AuthenticationRepository" style="stroke:#181818;stroke-width:1.0;"/><polygon fill="#181818" points="521.81,225.04,531.5373,226.5825,526.6407,223.75,529.4733,218.8534,521.81,225.04" style="stroke:#181818;stroke-width:1.0;"/><text fill="#000000" font-family="sans-serif" font-size="13" lengthAdjust="spacing" textLength="7" x="529.3751" y="219.4173">1</text></g><!--link Repositories to EmployeeRepository--><g id="link_Repositories_EmployeeRepository"><path codeLine="119" d="M1075.32,148.33 C1077.46,179.36 1079.5,209 1079.5,209 C1079.5,209 1079.5,294 1079.5,294 C1079.5,294 1078.5,589 1078.5,589 C1078.5,589 1068.3406,613.1111 1055.2606,644.1411 " fill="none" id="Repositories-to-EmployeeRepository" style="stroke:#181818;stroke-width:1.0;"/><polygon fill="#181818" points="1052.93,649.67,1060.1118,642.9304,1054.8721,645.0626,1052.7399,639.823,1052.93,649.67" style="stroke:#181818;stroke-width:1.0;"/><text fill="#000000" font-family="sans-serif" font-size="13" lengthAdjust="spacing" textLength="7" x="1048.604" y="638.527">1</text></g><!--link Repositories to SkillRepository--><g id="link_Repositories_SkillRepository"><path codeLine="120" d="M1118.5,148.46 C1151.16,196.08 1188.5,250.5 1188.5,250.5 C1188.5,250.5 1188.5,250.5 1188.5,1044 C1188.5,1044 1186.2294,1181.3808 1184.7494,1270.7208 " fill="none" id="Repositories-to-SkillRepository" style="stroke:#181818;stroke-width:1.0;"/><polygon fill="#181818" points="1184.65,1276.72,1188.7985,1267.7875,1184.7328,1271.7207,1180.7996,1267.655,1184.65,1276.72" style="stroke:#181818;stroke-width:1.0;"/><text fill="#000000" font-family="sans-serif" font-size="13" lengthAdjust="spacing" textLength="7" x="1177.4077" y="1265.5821">1</text></g><!--link AuthenticationRepository to UserSession--><g id="link_AuthenticationRepository_UserSession"><path codeLine="121" d="M521.69,251.5 C556.41,251.5 589.24,251.5 622.31,251.5 " fill="none" id="AuthenticationRepository-to-UserSession" style="stroke:#181818;stroke-width:1.0;"/><polygon fill="#181818" points="628.31,251.5,619.31,247.5,623.31,251.5,619.31,255.5,628.31,251.5" style="stroke:#181818;stroke-width:1.0;"/><text fill="#000000" font-family="sans-serif" font-size="13" lengthAdjust="spacing" textLength="70" x="540" y="244.5283">usersession</text><text fill="#000000" font-family="sans-serif" font-size="13" lengthAdjust="spacing" textLength="7" x="613.5239" y="247.7205">1</text></g><!--link EmployeeRepository to Employee--><g id="link_EmployeeRepository_Employee"><path codeLine="122" d="M1023.5,791.04 C1023.5,814.52 1023.5,835.86 1023.5,863.69 " fill="none" id="EmployeeRepository-to-Employee" style="stroke:#181818;stroke-width:1.0;"/><polygon fill="#181818" points="1023.5,869.69,1027.5,860.69,1023.5,864.69,1019.5,860.69,1023.5,869.69" style="stroke:#181818;stroke-width:1.0;"/><text fill="#000000" font-family="sans-serif" font-size="13" lengthAdjust="spacing" textLength="64" x="1024.5" y="836.0283">agreggates</text><text fill="#000000" font-family="sans-serif" font-size="13" lengthAdjust="spacing" textLength="7" x="1016.1391" y="813.2289">1</text><text fill="#000000" font-family="sans-serif" font-size="13" lengthAdjust="spacing" textLength="5" x="1018.3867" y="858.4881">*</text></g><!--link SkillRepository to Skill--><g id="link_SkillRepository_Skill"><path codeLine="123" d="M1178.37,1418.17 C1176.42,1444.54 1174.7093,1467.7361 1173.0193,1490.7561 " fill="none" id="SkillRepository-to-Skill" style="stroke:#181818;stroke-width:1.0;"/><polygon fill="#181818" points="1172.58,1496.74,1177.2282,1488.057,1172.9461,1491.7534,1169.2497,1487.4713,1172.58,1496.74" style="stroke:#181818;stroke-width:1.0;"/><text fill="#000000" font-family="sans-serif" font-size="13" lengthAdjust="spacing" textLength="57" x="1176.5" y="1463.0283">agreggate</text><text fill="#000000" font-family="sans-serif" font-size="13" lengthAdjust="spacing" textLength="7" x="1170.48" y="1440.3723">1</text><text fill="#000000" font-family="sans-serif" font-size="13" lengthAdjust="spacing" textLength="5" x="1167.6724" y="1485.6026">*</text></g><!--link Employee to TeamMember--><g id="link_Employee_TeamMember"><path codeLine="124" d="M1030.32,1216.32 C1035.74,1353.33 1042.9325,1535.2547 1047.6725,1654.9247 " fill="none" id="Employee-to-TeamMember" style="stroke:#181818;stroke-width:1.0;"/><polygon fill="#181818" points="1047.91,1660.92,1051.5507,1651.7687,1047.7121,1655.9239,1043.5569,1652.0854,1047.91,1660.92" style="stroke:#181818;stroke-width:1.0;"/><text fill="#000000" font-family="sans-serif" font-size="13" lengthAdjust="spacing" textLength="21" x="1040.5" y="1463.0283">is a</text><text fill="#000000" font-family="sans-serif" font-size="13" lengthAdjust="spacing" textLength="7" x="1023.4601" y="1238.0263">1</text><text fill="#000000" font-family="sans-serif" font-size="13" lengthAdjust="spacing" textLength="7" x="1040.3917" y="1649.9059">1</text></g><!--link Skill to TeamMember--><g id="link_Skill_TeamMember"><path codeLine="125" d="M1148.85,1582.24 C1137.93,1604.32 1126.5803,1627.252 1112.6503,1655.412 " fill="none" id="Skill-to-TeamMember" style="stroke:#181818;stroke-width:1.0;"/><polygon fill="#181818" points="1109.99,1660.79,1117.5658,1654.4966,1112.2069,1656.3084,1110.3952,1650.9495,1109.99,1660.79" style="stroke:#181818;stroke-width:1.0;"/><text fill="#000000" font-family="sans-serif" font-size="13" lengthAdjust="spacing" textLength="67" x="1132.5" y="1627.0283">assigned to</text><text fill="#000000" font-family="sans-serif" font-size="13" lengthAdjust="spacing" textLength="24" x="1119.8505" y="1604.1182">1...*</text><text fill="#000000" font-family="sans-serif" font-size="13" lengthAdjust="spacing" textLength="7" x="1106.4487" y="1649.7676">1</text></g><!--link Employee to SkillRepository--><g id="link_Employee_SkillRepository"><path codeLine="126" d="M1114.48,1216.02 C1125.81,1237.43 1134.0337,1252.9767 1143.8337,1271.4967 " fill="none" id="Employee-to-SkillRepository" style="stroke:#181818;stroke-width:1.0;"/><polygon fill="#181818" points="1146.64,1276.8,1145.9661,1266.9742,1144.3014,1272.3806,1138.8951,1270.7159,1146.64,1276.8" style="stroke:#181818;stroke-width:1.0;"/><text fill="#000000" font-family="sans-serif" font-size="13" lengthAdjust="spacing" textLength="7" x="1111.1706" y="1237.7137">1</text><text fill="#000000" font-family="sans-serif" font-size="13" lengthAdjust="spacing" textLength="7" x="1135.4779" y="1265.6704">1</text></g><!--SRC=[rLPBJ-Cm4BxxLrXSQA5KkzTgXLHe3v5OTaMBzkmc9h5mxCXsWR3Yl-yupiDE7RJIdhQ7IfdvF3F-vkLp_Sn4HHGfSIc5J0ibIugDEb8qQ2gIFfESxapDALOqDKJat0VeWcJobOaSFn6kVGrdWfgwehYIlBOVw3oYbCf8v9rAET5wROnYXwEXIIh5ZhrJ_0MXSqwV33OIAvON1cVCXiEaG0WrX_1QQvQBtJFZ_371lz57H74hXL6ISwe0WE5tXHlv0wsaPaQg6klmkqLjouhBcb8FI4z43VOoxcysihiQErv43AuYVkUj5p9usSiz9ULtMXx0JsSboS05y2ZoXRlJ89Yly8jacJF4cJQTbzbyOAttoAZkoVA5iowId9f4Q2YD50oi0io0EBs8nMwdE8GJ8tuiV1V9JODT7qr1XM4fiIKH7fhI3LVzeN8YsFj8trwwiUyZRkf7JTMs98m3sV0_ZriQAgmX7GjIqb3oGipzqIOj55U552DauwSLhRDCKV05SHh2swzMHxAiuSXLsxoLlX3ECcBeYUeo27Xc8rmCKItmAptic05P4zB2XR48FNTEW2NBoqqTCEDruKGQV9flZqe1njhPWMaRaqUk9-uFCNqdyvncYVZ5JF4WEVNBqfv8Cjz6Lt2V96S3JE43KwQmdFb2afNCkVSqdwNZxnBQYf8DpcIAxLYCAOubC8D5f5xsvAqYDOoqPEFFDDVrBHctieG1I_To1kYV5friEg9kEOJNqsQaCziB2gBt1TCkhIwhJf4g6YyggC9X8BbO_1mCkl-YHVhX-0_jCKdMLDzye775ddHCR2dDl1GuNrufT3f_uWzJl76yVGET3hBipUxF9jzuZNOnte71RutosaNHxOIJyJwQ_3SrTExfujfvHHscijK5owstPiEOZSCTbrzZvhwhmJR4MI_jex1cWlLuTHskonLcxK94uQjaUHr_7OpCWRsphsSJUmbDhAlcr4Lu2YAHtgSEpZO-Eb-HJHp7NWnOiEvU6nh5trZB4rwK_pY8NdfoNKVHaR2ZkF7BON8RjNX_rwpm4Rwq-qAHVfpWXkIAvZbqlKRZxl1Fk5BquBqB2siluCrCA2wDYJC9gkLoUT6X_D5gBJP9eHdCzC3c92le3m00]--></g></svg>