<?xml version="1.0" encoding="us-ascii" standalone="no"?><svg xmlns="http://www.w3.org/2000/svg" xmlns:xlink="http://www.w3.org/1999/xlink" contentStyleType="text/css" height="1737px" preserveAspectRatio="none" style="width:2245px;height:1737px;background:#FFFFFF;" version="1.1" viewBox="0 0 2245 1737" width="2245px" zoomAndPan="magnify"><defs/><g><rect fill="#FFFFFF" height="1542.6777" style="stroke:#181818;stroke-width:1.0;" width="10" x="18" y="93.6211"/><rect fill="#FFFFFF" height="966.7305" style="stroke:#181818;stroke-width:1.0;" width="10" x="327" y="116.9121"/><rect fill="#FFFFFF" height="93.873" style="stroke:#181818;stroke-width:1.0;" width="10" x="327" y="1114.9336"/><rect fill="#FFFFFF" height="31.291" style="stroke:#181818;stroke-width:1.0;" width="10" x="327" y="1240.0977"/><rect fill="#FFFFFF" height="1456.8047" style="stroke:#181818;stroke-width:1.0;" width="10" x="645" y="148.2031"/><rect fill="#FFFFFF" height="31.291" style="stroke:#181818;stroke-width:1.0;" width="10" x="870" y="223.7852"/><rect fill="#FFFFFF" height="31.291" style="stroke:#181818;stroke-width:1.0;" width="10" x="870" y="580.9863"/><rect fill="#FFFFFF" height="31.291" style="stroke:#181818;stroke-width:1.0;" width="10" x="870" y="864.6055"/><rect fill="#FFFFFF" height="31.291" style="stroke:#181818;stroke-width:1.0;" width="10" x="977" y="286.3672"/><rect fill="#FFFFFF" height="31.291" style="stroke:#181818;stroke-width:1.0;" width="10" x="977" y="643.5684"/><rect fill="#FFFFFF" height="31.291" style="stroke:#181818;stroke-width:1.0;" width="10" x="977" y="927.1875"/><rect fill="#FFFFFF" height="156.4551" style="stroke:#181818;stroke-width:1.0;" width="10" x="1123.5" y="348.9492"/><rect fill="#FFFFFF" height="93.873" style="stroke:#181818;stroke-width:1.0;" width="10" x="1305.5" y="380.2402"/><rect fill="#FFFFFF" height="939.1484" style="stroke:#181818;stroke-width:1.0;" width="10" x="1445.5" y="706.1504"/><rect fill="#FFFFFF" height="31.291" style="stroke:#181818;stroke-width:1.0;" width="10" x="1612.5" y="763.7324"/><rect fill="#FFFFFF" height="31.291" style="stroke:#181818;stroke-width:1.0;" width="10" x="1745.5" y="989.7695"/><rect fill="#FFFFFF" height="170.1641" style="stroke:#181818;stroke-width:1.0;" width="10" x="1874.5" y="1365.2617"/><rect fill="#FFFFFF" height="81.582" style="stroke:#181818;stroke-width:1.0;" width="10" x="1874.5" y="1365.2617"/><rect fill="#FFFFFF" height="499.0742" style="stroke:#181818;stroke-width:1.0;" width="10" x="2125.5" y="1146.2246"/><rect fill="none" height="81.873" style="stroke:#000000;stroke-width:1.5;" width="317.5" x="1359" y="721.1504"/><line style="stroke:#181818;stroke-width:0.5;stroke-dasharray:5.0,5.0;" x1="23" x2="23" y1="83.6211" y2="1654.2988"/><line style="stroke:#181818;stroke-width:0.5;stroke-dasharray:5.0,5.0;" x1="331.5" x2="331.5" y1="83.6211" y2="1654.2988"/><line style="stroke:#181818;stroke-width:0.5;stroke-dasharray:5.0,5.0;" x1="649.5" x2="649.5" y1="83.6211" y2="1654.2988"/><line style="stroke:#181818;stroke-width:0.5;stroke-dasharray:5.0,5.0;" x1="874.5" x2="874.5" y1="83.6211" y2="1654.2988"/><line style="stroke:#181818;stroke-width:0.5;stroke-dasharray:5.0,5.0;" x1="981.5" x2="981.5" y1="83.6211" y2="1654.2988"/><line style="stroke:#181818;stroke-width:0.5;stroke-dasharray:5.0,5.0;" x1="1128.5" x2="1128.5" y1="83.6211" y2="1654.2988"/><line style="stroke:#181818;stroke-width:0.5;stroke-dasharray:5.0,5.0;" x1="1310" x2="1310" y1="83.6211" y2="1654.2988"/><line style="stroke:#181818;stroke-width:0.5;stroke-dasharray:5.0,5.0;" x1="1450" x2="1450" y1="83.6211" y2="1654.2988"/><line style="stroke:#181818;stroke-width:0.5;stroke-dasharray:5.0,5.0;" x1="1617.5" x2="1617.5" y1="83.6211" y2="1654.2988"/><line style="stroke:#181818;stroke-width:0.5;stroke-dasharray:5.0,5.0;" x1="1750.5" x2="1750.5" y1="83.6211" y2="1654.2988"/><line style="stroke:#181818;stroke-width:0.5;stroke-dasharray:5.0,5.0;" x1="1874.5" x2="1874.5" y1="83.6211" y2="1654.2988"/><line style="stroke:#181818;stroke-width:0.5;stroke-dasharray:5.0,5.0;" x1="2130" x2="2130" y1="83.6211" y2="1654.2988"/><line style="stroke:#181818;stroke-width:0.5;stroke-dasharray:5.0,5.0;" x1="2217" x2="2217" y1="83.6211" y2="1654.2988"/><text fill="#000000" font-family="sans-serif" font-size="14" lengthAdjust="spacing" textLength="30" x="5" y="80.1074">HRM</text><ellipse cx="23" cy="13.5" fill="#E3E3E3" rx="8" ry="8" style="stroke:#181818;stroke-width:0.5;"/><path d="M23,21.5 L23,48.5 M10,29.5 L36,29.5 M23,48.5 L10,63.5 M23,48.5 L36,63.5 " fill="none" style="stroke:#181818;stroke-width:0.5;"/><text fill="#000000" font-family="sans-serif" font-size="14" lengthAdjust="spacing" textLength="30" x="5" y="1668.4063">HRM</text><ellipse cx="23" cy="1680.4199" fill="#E3E3E3" rx="8" ry="8" style="stroke:#181818;stroke-width:0.5;"/><path d="M23,1688.4199 L23,1715.4199 M10,1696.4199 L36,1696.4199 M23,1715.4199 L10,1730.4199 M23,1715.4199 L36,1730.4199 " fill="none" style="stroke:#181818;stroke-width:0.5;"/><rect fill="#E3E3E3" height="32.6211" rx="2.5" ry="2.5" style="stroke:#181818;stroke-width:0.5;" width="97" x="283.5" y="50"/><text fill="#000000" font-family="sans-serif" font-size="14" lengthAdjust="spacing" textLength="83" x="290.5" y="72.1074">:AssignSkillUI</text><rect fill="#E3E3E3" height="32.6211" rx="2.5" ry="2.5" style="stroke:#181818;stroke-width:0.5;" width="97" x="283.5" y="1653.2988"/><text fill="#000000" font-family="sans-serif" font-size="14" lengthAdjust="spacing" textLength="83" x="290.5" y="1675.4063">:AssignSkillUI</text><rect fill="#E3E3E3" height="32.6211" rx="2.5" ry="2.5" style="stroke:#181818;stroke-width:0.5;" width="147" x="576.5" y="50"/><text fill="#000000" font-family="sans-serif" font-size="14" lengthAdjust="spacing" textLength="133" x="583.5" y="72.1074">:AssignSkillController</text><rect fill="#E3E3E3" height="32.6211" rx="2.5" ry="2.5" style="stroke:#181818;stroke-width:0.5;" width="147" x="576.5" y="1653.2988"/><text fill="#000000" font-family="sans-serif" font-size="14" lengthAdjust="spacing" textLength="133" x="583.5" y="1675.4063">:AssignSkillController</text><rect fill="#E3E3E3" height="32.6211" rx="2.5" ry="2.5" style="stroke:#181818;stroke-width:0.5;" width="97" x="826.5" y="50"/><text fill="#000000" font-family="sans-serif" font-size="14" lengthAdjust="spacing" textLength="83" x="833.5" y="72.1074">:Repositories</text><rect fill="#E3E3E3" height="32.6211" rx="2.5" ry="2.5" style="stroke:#181818;stroke-width:0.5;" width="97" x="826.5" y="1653.2988"/><text fill="#000000" font-family="sans-serif" font-size="14" lengthAdjust="spacing" textLength="83" x="833.5" y="1675.4063">:Repositories</text><rect fill="#E3E3E3" height="51.2422" rx="2.5" ry="2.5" style="stroke:#181818;stroke-width:0.5;" width="97" x="933.5" y="31.3789"/><text fill="#000000" font-family="sans-serif" font-size="14" lengthAdjust="spacing" textLength="74" x="945" y="53.4863">repositories</text><text fill="#000000" font-family="sans-serif" font-size="14" lengthAdjust="spacing" textLength="83" x="940.5" y="72.1074">:Repositories</text><rect fill="#E3E3E3" height="51.2422" rx="2.5" ry="2.5" style="stroke:#181818;stroke-width:0.5;" width="97" x="933.5" y="1653.2988"/><text fill="#000000" font-family="sans-serif" font-size="14" lengthAdjust="spacing" textLength="74" x="945" y="1675.4063">repositories</text><text fill="#000000" font-family="sans-serif" font-size="14" lengthAdjust="spacing" textLength="83" x="940.5" y="1694.0273">:Repositories</text><rect fill="#E3E3E3" height="51.2422" rx="2.5" ry="2.5" style="stroke:#181818;stroke-width:0.5;" width="176" x="1040.5" y="31.3789"/><text fill="#000000" font-family="sans-serif" font-size="14" lengthAdjust="spacing" textLength="77" x="1090" y="53.4863">AuthFacade</text><text fill="#000000" font-family="sans-serif" font-size="14" lengthAdjust="spacing" textLength="162" x="1047.5" y="72.1074">:AuthenticationRepository</text><rect fill="#E3E3E3" height="51.2422" rx="2.5" ry="2.5" style="stroke:#181818;stroke-width:0.5;" width="176" x="1040.5" y="1653.2988"/><text fill="#000000" font-family="sans-serif" font-size="14" lengthAdjust="spacing" textLength="77" x="1090" y="1675.4063">AuthFacade</text><text fill="#000000" font-family="sans-serif" font-size="14" lengthAdjust="spacing" textLength="162" x="1047.5" y="1694.0273">:AuthenticationRepository</text><rect fill="#E3E3E3" height="51.2422" rx="2.5" ry="2.5" style="stroke:#181818;stroke-width:0.5;" width="97" x="1262" y="31.3789"/><text fill="#000000" font-family="sans-serif" font-size="14" lengthAdjust="spacing" textLength="78" x="1271.5" y="53.4863">userSession</text><text fill="#000000" font-family="sans-serif" font-size="14" lengthAdjust="spacing" textLength="83" x="1269" y="72.1074">:UserSession</text><rect fill="#E3E3E3" height="51.2422" rx="2.5" ry="2.5" style="stroke:#181818;stroke-width:0.5;" width="97" x="1262" y="1653.2988"/><text fill="#000000" font-family="sans-serif" font-size="14" lengthAdjust="spacing" textLength="78" x="1271.5" y="1675.4063">userSession</text><text fill="#000000" font-family="sans-serif" font-size="14" lengthAdjust="spacing" textLength="83" x="1269" y="1694.0273">:UserSession</text><rect fill="#E3E3E3" height="51.2422" rx="2.5" ry="2.5" style="stroke:#181818;stroke-width:0.5;" width="163" x="1369" y="31.3789"/><text fill="#000000" font-family="sans-serif" font-size="14" lengthAdjust="spacing" textLength="149" x="1376" y="53.4863">organizationRepository:</text><text fill="#000000" font-family="sans-serif" font-size="14" lengthAdjust="spacing" textLength="148" x="1376.5" y="72.1074">OrganizationRepository</text><rect fill="#E3E3E3" height="51.2422" rx="2.5" ry="2.5" style="stroke:#181818;stroke-width:0.5;" width="163" x="1369" y="1653.2988"/><text fill="#000000" font-family="sans-serif" font-size="14" lengthAdjust="spacing" textLength="149" x="1376" y="1675.4063">organizationRepository:</text><text fill="#000000" font-family="sans-serif" font-size="14" lengthAdjust="spacing" textLength="148" x="1376.5" y="1694.0273">OrganizationRepository</text><rect fill="#E3E3E3" height="51.2422" rx="2.5" ry="2.5" style="stroke:#181818;stroke-width:0.5;" width="98" x="1568.5" y="31.3789"/><text fill="#000000" font-family="sans-serif" font-size="14" lengthAdjust="spacing" textLength="77" x="1579" y="53.4863">organization</text><text fill="#000000" font-family="sans-serif" font-size="14" lengthAdjust="spacing" textLength="84" x="1575.5" y="72.1074">:Organization</text><rect fill="#E3E3E3" height="51.2422" rx="2.5" ry="2.5" style="stroke:#181818;stroke-width:0.5;" width="98" x="1568.5" y="1653.2988"/><text fill="#000000" font-family="sans-serif" font-size="14" lengthAdjust="spacing" textLength="77" x="1579" y="1675.4063">organization</text><text fill="#000000" font-family="sans-serif" font-size="14" lengthAdjust="spacing" textLength="84" x="1575.5" y="1694.0273">:Organization</text><rect fill="#E3E3E3" height="51.2422" rx="2.5" ry="2.5" style="stroke:#181818;stroke-width:0.5;" width="148" x="1676.5" y="31.3789"/><text fill="#000000" font-family="sans-serif" font-size="14" lengthAdjust="spacing" textLength="129" x="1686" y="53.4863">employeeRepository</text><text fill="#000000" font-family="sans-serif" font-size="14" lengthAdjust="spacing" textLength="134" x="1683.5" y="72.1074">:EmployeeRepository</text><rect fill="#E3E3E3" height="51.2422" rx="2.5" ry="2.5" style="stroke:#181818;stroke-width:0.5;" width="148" x="1676.5" y="1653.2988"/><text fill="#000000" font-family="sans-serif" font-size="14" lengthAdjust="spacing" textLength="129" x="1686" y="1675.4063">employeeRepository</text><text fill="#000000" font-family="sans-serif" font-size="14" lengthAdjust="spacing" textLength="134" x="1683.5" y="1694.0273">:EmployeeRepository</text><rect fill="#E3E3E3" height="51.2422" rx="2.5" ry="2.5" style="stroke:#181818;stroke-width:0.5;" width="80" x="1834.5" y="31.3789"/><text fill="#000000" font-family="sans-serif" font-size="14" lengthAdjust="spacing" textLength="61" x="1844" y="53.4863">employee</text><text fill="#000000" font-family="sans-serif" font-size="14" lengthAdjust="spacing" textLength="66" x="1841.5" y="72.1074">:Employee</text><rect fill="#E3E3E3" height="51.2422" rx="2.5" ry="2.5" style="stroke:#181818;stroke-width:0.5;" width="80" x="1834.5" y="1653.2988"/><text fill="#000000" font-family="sans-serif" font-size="14" lengthAdjust="spacing" textLength="61" x="1844" y="1675.4063">employee</text><text fill="#000000" font-family="sans-serif" font-size="14" lengthAdjust="spacing" textLength="66" x="1841.5" y="1694.0273">:Employee</text><rect fill="#E3E3E3" height="51.2422" rx="2.5" ry="2.5" style="stroke:#181818;stroke-width:0.5;" width="111" x="2075" y="31.3789"/><text fill="#000000" font-family="sans-serif" font-size="14" lengthAdjust="spacing" textLength="91" x="2085" y="53.4863">skillRepository</text><text fill="#000000" font-family="sans-serif" font-size="14" lengthAdjust="spacing" textLength="97" x="2082" y="72.1074">:SkillRepository</text><rect fill="#E3E3E3" height="51.2422" rx="2.5" ry="2.5" style="stroke:#181818;stroke-width:0.5;" width="111" x="2075" y="1653.2988"/><text fill="#000000" font-family="sans-serif" font-size="14" lengthAdjust="spacing" textLength="91" x="2085" y="1675.4063">skillRepository</text><text fill="#000000" font-family="sans-serif" font-size="14" lengthAdjust="spacing" textLength="97" x="2082" y="1694.0273">:SkillRepository</text><rect fill="#E3E3E3" height="51.2422" rx="2.5" ry="2.5" style="stroke:#181818;stroke-width:0.5;" width="43" x="2196" y="31.3789"/><text fill="#000000" font-family="sans-serif" font-size="14" lengthAdjust="spacing" textLength="25" x="2205" y="53.4863">Skill</text><text fill="#000000" font-family="sans-serif" font-size="14" lengthAdjust="spacing" textLength="29" x="2203" y="72.1074">:Skill</text><rect fill="#E3E3E3" height="51.2422" rx="2.5" ry="2.5" style="stroke:#181818;stroke-width:0.5;" width="43" x="2196" y="1653.2988"/><text fill="#000000" font-family="sans-serif" font-size="14" lengthAdjust="spacing" textLength="25" x="2205" y="1675.4063">Skill</text><text fill="#000000" font-family="sans-serif" font-size="14" lengthAdjust="spacing" textLength="29" x="2203" y="1694.0273">:Skill</text><rect fill="#FFFFFF" height="1542.6777" style="stroke:#181818;stroke-width:1.0;" width="10" x="18" y="93.6211"/><rect fill="#FFFFFF" height="966.7305" style="stroke:#181818;stroke-width:1.0;" width="10" x="327" y="116.9121"/><rect fill="#FFFFFF" height="93.873" style="stroke:#181818;stroke-width:1.0;" width="10" x="327" y="1114.9336"/><rect fill="#FFFFFF" height="31.291" style="stroke:#181818;stroke-width:1.0;" width="10" x="327" y="1240.0977"/><rect fill="#FFFFFF" height="1456.8047" style="stroke:#181818;stroke-width:1.0;" width="10" x="645" y="148.2031"/><rect fill="#FFFFFF" height="31.291" style="stroke:#181818;stroke-width:1.0;" width="10" x="870" y="223.7852"/><rect fill="#FFFFFF" height="31.291" style="stroke:#181818;stroke-width:1.0;" width="10" x="870" y="580.9863"/><rect fill="#FFFFFF" height="31.291" style="stroke:#181818;stroke-width:1.0;" width="10" x="870" y="864.6055"/><rect fill="#FFFFFF" height="31.291" style="stroke:#181818;stroke-width:1.0;" width="10" x="977" y="286.3672"/><rect fill="#FFFFFF" height="31.291" style="stroke:#181818;stroke-width:1.0;" width="10" x="977" y="643.5684"/><rect fill="#FFFFFF" height="31.291" style="stroke:#181818;stroke-width:1.0;" width="10" x="977" y="927.1875"/><rect fill="#FFFFFF" height="156.4551" style="stroke:#181818;stroke-width:1.0;" width="10" x="1123.5" y="348.9492"/><rect fill="#FFFFFF" height="93.873" style="stroke:#181818;stroke-width:1.0;" width="10" x="1305.5" y="380.2402"/><rect fill="#FFFFFF" height="939.1484" style="stroke:#181818;stroke-width:1.0;" width="10" x="1445.5" y="706.1504"/><rect fill="#FFFFFF" height="31.291" style="stroke:#181818;stroke-width:1.0;" width="10" x="1612.5" y="763.7324"/><rect fill="#FFFFFF" height="31.291" style="stroke:#181818;stroke-width:1.0;" width="10" x="1745.5" y="989.7695"/><rect fill="#FFFFFF" height="170.1641" style="stroke:#181818;stroke-width:1.0;" width="10" x="1874.5" y="1365.2617"/><rect fill="#FFFFFF" height="81.582" style="stroke:#181818;stroke-width:1.0;" width="10" x="1874.5" y="1365.2617"/><rect fill="#FFFFFF" height="499.0742" style="stroke:#181818;stroke-width:1.0;" width="10" x="2125.5" y="1146.2246"/><polygon fill="#181818" points="315,112.9121,325,116.9121,315,120.9121,319,116.9121" style="stroke:#181818;stroke-width:1.0;"/><line style="stroke:#181818;stroke-width:1.0;" x1="28" x2="321" y1="116.9121" y2="116.9121"/><text fill="#000000" font-family="sans-serif" font-size="13" font-weight="bold" lengthAdjust="spacing" textLength="7" x="35" y="111.6494">1</text><text fill="#000000" font-family="sans-serif" font-size="13" lengthAdjust="spacing" textLength="174" x="46" y="111.6494">List for a collaborator available</text><polygon fill="#181818" points="633,144.2031,643,148.2031,633,152.2031,637,148.2031" style="stroke:#181818;stroke-width:1.0;"/><line style="stroke:#181818;stroke-width:1.0;" x1="337" x2="639" y1="148.2031" y2="148.2031"/><text fill="#000000" font-family="sans-serif" font-size="13" font-weight="bold" lengthAdjust="spacing" textLength="7" x="344" y="142.9404">2</text><text fill="#000000" font-family="sans-serif" font-size="13" lengthAdjust="spacing" textLength="83" x="355" y="142.9404">listEmployee()</text><line style="stroke:#181818;stroke-width:1.0;" x1="655" x2="697" y1="179.4941" y2="179.4941"/><line style="stroke:#181818;stroke-width:1.0;" x1="697" x2="697" y1="179.4941" y2="192.4941"/><line style="stroke:#181818;stroke-width:1.0;" x1="656" x2="697" y1="192.4941" y2="192.4941"/><polygon fill="#181818" points="666,188.4941,656,192.4941,666,196.4941,662,192.4941" style="stroke:#181818;stroke-width:1.0;"/><text fill="#000000" font-family="sans-serif" font-size="13" font-weight="bold" lengthAdjust="spacing" textLength="7" x="662" y="174.2314">3</text><text fill="#000000" font-family="sans-serif" font-size="13" lengthAdjust="spacing" textLength="130" x="673" y="174.2314">getUserFromSession()</text><polygon fill="#181818" points="858,219.7852,868,223.7852,858,227.7852,862,223.7852" style="stroke:#181818;stroke-width:1.0;"/><line style="stroke:#181818;stroke-width:1.0;" x1="655" x2="864" y1="223.7852" y2="223.7852"/><text fill="#000000" font-family="sans-serif" font-size="13" font-weight="bold" lengthAdjust="spacing" textLength="7" x="662" y="218.5225">4</text><text fill="#000000" font-family="sans-serif" font-size="13" lengthAdjust="spacing" textLength="75" x="673" y="218.5225">getInstance()</text><polygon fill="#181818" points="666,251.0762,656,255.0762,666,259.0762,662,255.0762" style="stroke:#181818;stroke-width:1.0;"/><line style="stroke:#181818;stroke-width:1.0;stroke-dasharray:2.0,2.0;" x1="660" x2="874" y1="255.0762" y2="255.0762"/><text fill="#000000" font-family="sans-serif" font-size="13" font-weight="bold" lengthAdjust="spacing" textLength="7" x="672" y="249.8135">5</text><text fill="#000000" font-family="sans-serif" font-size="13" lengthAdjust="spacing" textLength="72" x="683" y="249.8135">Repositories</text><polygon fill="#181818" points="965,282.3672,975,286.3672,965,290.3672,969,286.3672" style="stroke:#181818;stroke-width:1.0;"/><line style="stroke:#181818;stroke-width:1.0;" x1="655" x2="971" y1="286.3672" y2="286.3672"/><text fill="#000000" font-family="sans-serif" font-size="13" font-weight="bold" lengthAdjust="spacing" textLength="7" x="662" y="281.1045">6</text><text fill="#000000" font-family="sans-serif" font-size="13" lengthAdjust="spacing" textLength="171" x="673" y="281.1045">getAuthenticationRepository()</text><polygon fill="#181818" points="666,313.6582,656,317.6582,666,321.6582,662,317.6582" style="stroke:#181818;stroke-width:1.0;"/><line style="stroke:#181818;stroke-width:1.0;stroke-dasharray:2.0,2.0;" x1="660" x2="981" y1="317.6582" y2="317.6582"/><text fill="#000000" font-family="sans-serif" font-size="13" font-weight="bold" lengthAdjust="spacing" textLength="7" x="672" y="312.3955">7</text><text fill="#000000" font-family="sans-serif" font-size="13" lengthAdjust="spacing" textLength="153" x="683" y="312.3955">AuthenticationRepository()</text><polygon fill="#181818" points="1111.5,344.9492,1121.5,348.9492,1111.5,352.9492,1115.5,348.9492" style="stroke:#181818;stroke-width:1.0;"/><line style="stroke:#181818;stroke-width:1.0;" x1="655" x2="1117.5" y1="348.9492" y2="348.9492"/><text fill="#000000" font-family="sans-serif" font-size="13" font-weight="bold" lengthAdjust="spacing" textLength="7" x="662" y="343.6865">8</text><text fill="#000000" font-family="sans-serif" font-size="13" lengthAdjust="spacing" textLength="142" x="673" y="343.6865">getCurrentUserSession()</text><polygon fill="#181818" points="1293.5,376.2402,1303.5,380.2402,1293.5,384.2402,1297.5,380.2402" style="stroke:#181818;stroke-width:1.0;"/><line style="stroke:#181818;stroke-width:1.0;" x1="1133.5" x2="1299.5" y1="380.2402" y2="380.2402"/><text fill="#000000" font-family="sans-serif" font-size="13" font-weight="bold" lengthAdjust="spacing" textLength="7" x="1140.5" y="374.9775">9</text><text fill="#000000" font-family="sans-serif" font-size="13" lengthAdjust="spacing" textLength="142" x="1151.5" y="374.9775">isLoggedWithRule(HRM)</text><polygon fill="#181818" points="1144.5,407.5313,1134.5,411.5313,1144.5,415.5313,1140.5,411.5313" style="stroke:#181818;stroke-width:1.0;"/><line style="stroke:#181818;stroke-width:1.0;stroke-dasharray:2.0,2.0;" x1="1138.5" x2="1304.5" y1="411.5313" y2="411.5313"/><text fill="#000000" font-family="sans-serif" font-size="13" font-weight="bold" lengthAdjust="spacing" textLength="14" x="1150.5" y="406.2686">10</text><text fill="#000000" font-family="sans-serif" font-size="13" lengthAdjust="spacing" textLength="71" x="1168.5" y="406.2686">"True/False"</text><polygon fill="#181818" points="1293.5,438.8223,1303.5,442.8223,1293.5,446.8223,1297.5,442.8223" style="stroke:#181818;stroke-width:1.0;"/><line style="stroke:#181818;stroke-width:1.0;stroke-dasharray:2.0,2.0;" x1="1133.5" x2="1299.5" y1="442.8223" y2="442.8223"/><text fill="#000000" font-family="sans-serif" font-size="13" font-weight="bold" lengthAdjust="spacing" textLength="14" x="1140.5" y="437.5596">11</text><text fill="#000000" font-family="sans-serif" font-size="13" lengthAdjust="spacing" textLength="94" x="1158.5" y="437.5596">getUserId(email)</text><polygon fill="#181818" points="1144.5,470.1133,1134.5,474.1133,1144.5,478.1133,1140.5,474.1133" style="stroke:#181818;stroke-width:1.0;"/><line style="stroke:#181818;stroke-width:1.0;stroke-dasharray:2.0,2.0;" x1="1138.5" x2="1309.5" y1="474.1133" y2="474.1133"/><text fill="#000000" font-family="sans-serif" font-size="13" font-weight="bold" lengthAdjust="spacing" textLength="14" x="1150.5" y="468.8506">12</text><text fill="#000000" font-family="sans-serif" font-size="13" lengthAdjust="spacing" textLength="74" x="1168.5" y="468.8506">userId(email)</text><polygon fill="#181818" points="666,501.4043,656,505.4043,666,509.4043,662,505.4043" style="stroke:#181818;stroke-width:1.0;"/><line style="stroke:#181818;stroke-width:1.0;stroke-dasharray:2.0,2.0;" x1="660" x2="1127.5" y1="505.4043" y2="505.4043"/><text fill="#000000" font-family="sans-serif" font-size="13" font-weight="bold" lengthAdjust="spacing" textLength="14" x="672" y="500.1416">13</text><text fill="#000000" font-family="sans-serif" font-size="13" lengthAdjust="spacing" textLength="74" x="690" y="500.1416">userId(email)</text><line style="stroke:#181818;stroke-width:1.0;" x1="655" x2="697" y1="536.6953" y2="536.6953"/><line style="stroke:#181818;stroke-width:1.0;" x1="697" x2="697" y1="536.6953" y2="549.6953"/><line style="stroke:#181818;stroke-width:1.0;" x1="656" x2="697" y1="549.6953" y2="549.6953"/><polygon fill="#181818" points="666,545.6953,656,549.6953,666,553.6953,662,549.6953" style="stroke:#181818;stroke-width:1.0;"/><text fill="#000000" font-family="sans-serif" font-size="13" font-weight="bold" lengthAdjust="spacing" textLength="14" x="662" y="531.4326">14</text><text fill="#000000" font-family="sans-serif" font-size="13" lengthAdjust="spacing" textLength="183" x="680" y="531.4326">getOrganizationByUserId(email)</text><polygon fill="#181818" points="858,576.9863,868,580.9863,858,584.9863,862,580.9863" style="stroke:#181818;stroke-width:1.0;"/><line style="stroke:#181818;stroke-width:1.0;" x1="655" x2="864" y1="580.9863" y2="580.9863"/><text fill="#000000" font-family="sans-serif" font-size="13" font-weight="bold" lengthAdjust="spacing" textLength="14" x="662" y="575.7236">15</text><text fill="#000000" font-family="sans-serif" font-size="13" lengthAdjust="spacing" textLength="75" x="680" y="575.7236">getInstance()</text><polygon fill="#181818" points="666,608.2773,656,612.2773,666,616.2773,662,612.2773" style="stroke:#181818;stroke-width:1.0;"/><line style="stroke:#181818;stroke-width:1.0;stroke-dasharray:2.0,2.0;" x1="660" x2="874" y1="612.2773" y2="612.2773"/><text fill="#000000" font-family="sans-serif" font-size="13" font-weight="bold" lengthAdjust="spacing" textLength="14" x="672" y="607.0146">16</text><text fill="#000000" font-family="sans-serif" font-size="13" lengthAdjust="spacing" textLength="72" x="690" y="607.0146">Repositories</text><polygon fill="#181818" points="965,639.5684,975,643.5684,965,647.5684,969,643.5684" style="stroke:#181818;stroke-width:1.0;"/><line style="stroke:#181818;stroke-width:1.0;" x1="655" x2="971" y1="643.5684" y2="643.5684"/><text fill="#000000" font-family="sans-serif" font-size="13" font-weight="bold" lengthAdjust="spacing" textLength="14" x="662" y="638.3057">17</text><text fill="#000000" font-family="sans-serif" font-size="13" lengthAdjust="spacing" textLength="161" x="680" y="638.3057">getOrganizationRepository()</text><polygon fill="#181818" points="666,670.8594,656,674.8594,666,678.8594,662,674.8594" style="stroke:#181818;stroke-width:1.0;"/><line style="stroke:#181818;stroke-width:1.0;stroke-dasharray:2.0,2.0;" x1="660" x2="981" y1="674.8594" y2="674.8594"/><text fill="#000000" font-family="sans-serif" font-size="13" font-weight="bold" lengthAdjust="spacing" textLength="14" x="672" y="669.5967">18</text><text fill="#000000" font-family="sans-serif" font-size="13" lengthAdjust="spacing" textLength="143" x="690" y="669.5967">OrganizationRepository()</text><polygon fill="#181818" points="1433.5,702.1504,1443.5,706.1504,1433.5,710.1504,1437.5,706.1504" style="stroke:#181818;stroke-width:1.0;"/><line style="stroke:#181818;stroke-width:1.0;" x1="655" x2="1439.5" y1="706.1504" y2="706.1504"/><text fill="#000000" font-family="sans-serif" font-size="13" font-weight="bold" lengthAdjust="spacing" textLength="14" x="662" y="700.8877">19</text><text fill="#000000" font-family="sans-serif" font-size="13" lengthAdjust="spacing" textLength="183" x="680" y="700.8877">getOrganizationByUserId(email)</text><path d="M1359,721.1504 L1432,721.1504 L1432,730.4414 L1422,740.4414 L1359,740.4414 L1359,721.1504 " fill="#EEEEEE" style="stroke:#000000;stroke-width:1.5;"/><rect fill="none" height="81.873" style="stroke:#000000;stroke-width:1.5;" width="317.5" x="1359" y="721.1504"/><text fill="#000000" font-family="sans-serif" font-size="13" font-weight="bold" lengthAdjust="spacing" textLength="28" x="1374" y="736.1787">loop</text><text fill="#000000" font-family="sans-serif" font-size="11" font-weight="bold" lengthAdjust="spacing" textLength="124" x="1447" y="735.0205">[for each organization]</text><polygon fill="#181818" points="1600.5,759.7324,1610.5,763.7324,1600.5,767.7324,1604.5,763.7324" style="stroke:#181818;stroke-width:1.0;"/><line style="stroke:#181818;stroke-width:1.0;" x1="1455.5" x2="1606.5" y1="763.7324" y2="763.7324"/><text fill="#000000" font-family="sans-serif" font-size="13" font-weight="bold" lengthAdjust="spacing" textLength="14" x="1462.5" y="758.4697">20</text><text fill="#000000" font-family="sans-serif" font-size="13" lengthAdjust="spacing" textLength="120" x="1480.5" y="758.4697">anyUserHasId(email)</text><polygon fill="#181818" points="1466.5,791.0234,1456.5,795.0234,1466.5,799.0234,1462.5,795.0234" style="stroke:#181818;stroke-width:1.0;"/><line style="stroke:#181818;stroke-width:1.0;stroke-dasharray:2.0,2.0;" x1="1460.5" x2="1616.5" y1="795.0234" y2="795.0234"/><text fill="#000000" font-family="sans-serif" font-size="13" font-weight="bold" lengthAdjust="spacing" textLength="14" x="1472.5" y="789.7607">21</text><text fill="#000000" font-family="sans-serif" font-size="13" lengthAdjust="spacing" textLength="61" x="1490.5" y="789.7607">True/False</text><polygon fill="#181818" points="666,829.3145,656,833.3145,666,837.3145,662,833.3145" style="stroke:#181818;stroke-width:1.0;"/><line style="stroke:#181818;stroke-width:1.0;stroke-dasharray:2.0,2.0;" x1="660" x2="1444.5" y1="833.3145" y2="833.3145"/><text fill="#000000" font-family="sans-serif" font-size="13" font-weight="bold" lengthAdjust="spacing" textLength="14" x="672" y="828.0518">22</text><text fill="#000000" font-family="sans-serif" font-size="13" lengthAdjust="spacing" textLength="70" x="690" y="828.0518">organitazion</text><polygon fill="#181818" points="858,860.6055,868,864.6055,858,868.6055,862,864.6055" style="stroke:#181818;stroke-width:1.0;"/><line style="stroke:#181818;stroke-width:1.0;" x1="655" x2="864" y1="864.6055" y2="864.6055"/><text fill="#000000" font-family="sans-serif" font-size="13" font-weight="bold" lengthAdjust="spacing" textLength="14" x="662" y="859.3428">23</text><text fill="#000000" font-family="sans-serif" font-size="13" lengthAdjust="spacing" textLength="75" x="680" y="859.3428">getInstance()</text><polygon fill="#181818" points="666,891.8965,656,895.8965,666,899.8965,662,895.8965" style="stroke:#181818;stroke-width:1.0;"/><line style="stroke:#181818;stroke-width:1.0;stroke-dasharray:2.0,2.0;" x1="660" x2="874" y1="895.8965" y2="895.8965"/><text fill="#000000" font-family="sans-serif" font-size="13" font-weight="bold" lengthAdjust="spacing" textLength="14" x="672" y="890.6338">24</text><text fill="#000000" font-family="sans-serif" font-size="13" lengthAdjust="spacing" textLength="72" x="690" y="890.6338">Repositories</text><polygon fill="#181818" points="965,923.1875,975,927.1875,965,931.1875,969,927.1875" style="stroke:#181818;stroke-width:1.0;"/><line style="stroke:#181818;stroke-width:1.0;" x1="655" x2="971" y1="927.1875" y2="927.1875"/><text fill="#000000" font-family="sans-serif" font-size="13" font-weight="bold" lengthAdjust="spacing" textLength="14" x="662" y="921.9248">25</text><text fill="#000000" font-family="sans-serif" font-size="13" lengthAdjust="spacing" textLength="146" x="680" y="921.9248">getEmployeeRepository()</text><polygon fill="#181818" points="666,954.4785,656,958.4785,666,962.4785,662,958.4785" style="stroke:#181818;stroke-width:1.0;"/><line style="stroke:#181818;stroke-width:1.0;stroke-dasharray:2.0,2.0;" x1="660" x2="981" y1="958.4785" y2="958.4785"/><text fill="#000000" font-family="sans-serif" font-size="13" font-weight="bold" lengthAdjust="spacing" textLength="14" x="672" y="953.2158">26</text><text fill="#000000" font-family="sans-serif" font-size="13" lengthAdjust="spacing" textLength="128" x="690" y="953.2158">EmployeeRepository()</text><polygon fill="#181818" points="1733.5,985.7695,1743.5,989.7695,1733.5,993.7695,1737.5,989.7695" style="stroke:#181818;stroke-width:1.0;"/><line style="stroke:#181818;stroke-width:1.0;" x1="655" x2="1739.5" y1="989.7695" y2="989.7695"/><text fill="#000000" font-family="sans-serif" font-size="13" font-weight="bold" lengthAdjust="spacing" textLength="14" x="662" y="984.5068">27</text><text fill="#000000" font-family="sans-serif" font-size="13" lengthAdjust="spacing" textLength="83" x="680" y="984.5068">listEmployee()</text><polygon fill="#181818" points="666,1017.0605,656,1021.0605,666,1025.0605,662,1021.0605" style="stroke:#181818;stroke-width:1.0;"/><line style="stroke:#181818;stroke-width:1.0;stroke-dasharray:2.0,2.0;" x1="660" x2="1749.5" y1="1021.0605" y2="1021.0605"/><text fill="#000000" font-family="sans-serif" font-size="13" font-weight="bold" lengthAdjust="spacing" textLength="14" x="672" y="1015.7979">28</text><text fill="#000000" font-family="sans-serif" font-size="13" lengthAdjust="spacing" textLength="75" x="690" y="1015.7979">listEmployee</text><polygon fill="#181818" points="348,1048.3516,338,1052.3516,348,1056.3516,344,1052.3516" style="stroke:#181818;stroke-width:1.0;"/><line style="stroke:#181818;stroke-width:1.0;" x1="342" x2="644" y1="1052.3516" y2="1052.3516"/><text fill="#000000" font-family="sans-serif" font-size="13" font-weight="bold" lengthAdjust="spacing" textLength="14" x="354" y="1047.0889">29</text><text fill="#000000" font-family="sans-serif" font-size="13" lengthAdjust="spacing" textLength="75" x="372" y="1047.0889">listEmployee</text><polygon fill="#181818" points="39,1079.6426,29,1083.6426,39,1087.6426,35,1083.6426" style="stroke:#181818;stroke-width:1.0;"/><line style="stroke:#181818;stroke-width:1.0;stroke-dasharray:2.0,2.0;" x1="33" x2="331" y1="1083.6426" y2="1083.6426"/><text fill="#000000" font-family="sans-serif" font-size="13" font-weight="bold" lengthAdjust="spacing" textLength="14" x="45" y="1078.3799">30</text><text fill="#000000" font-family="sans-serif" font-size="13" lengthAdjust="spacing" textLength="152" x="63" y="1078.3799">Shows list of collaborators</text><polygon fill="#181818" points="315,1110.9336,325,1114.9336,315,1118.9336,319,1114.9336" style="stroke:#181818;stroke-width:1.0;"/><line style="stroke:#181818;stroke-width:1.0;" x1="28" x2="321" y1="1114.9336" y2="1114.9336"/><text fill="#000000" font-family="sans-serif" font-size="13" font-weight="bold" lengthAdjust="spacing" textLength="14" x="35" y="1109.6709">31</text><text fill="#000000" font-family="sans-serif" font-size="13" lengthAdjust="spacing" textLength="115" x="53" y="1109.6709">Choose collaborator</text><polygon fill="#181818" points="2113.5,1142.2246,2123.5,1146.2246,2113.5,1150.2246,2117.5,1146.2246" style="stroke:#181818;stroke-width:1.0;"/><line style="stroke:#181818;stroke-width:1.0;" x1="337" x2="2119.5" y1="1146.2246" y2="1146.2246"/><text fill="#000000" font-family="sans-serif" font-size="13" font-weight="bold" lengthAdjust="spacing" textLength="14" x="344" y="1140.9619">32</text><text fill="#000000" font-family="sans-serif" font-size="13" lengthAdjust="spacing" textLength="185" x="362" y="1140.9619">getSkillById(skillId: String): Skill</text><polygon fill="#181818" points="348,1173.5156,338,1177.5156,348,1181.5156,344,1177.5156" style="stroke:#181818;stroke-width:1.0;"/><line style="stroke:#181818;stroke-width:1.0;stroke-dasharray:2.0,2.0;" x1="342" x2="2124.5" y1="1177.5156" y2="1177.5156"/><text fill="#000000" font-family="sans-serif" font-size="13" font-weight="bold" lengthAdjust="spacing" textLength="14" x="354" y="1172.2529">33</text><text fill="#000000" font-family="sans-serif" font-size="13" lengthAdjust="spacing" textLength="42" x="372" y="1172.2529">listSkill</text><polygon fill="#181818" points="39,1204.8066,29,1208.8066,39,1212.8066,35,1208.8066" style="stroke:#181818;stroke-width:1.0;"/><line style="stroke:#181818;stroke-width:1.0;stroke-dasharray:2.0,2.0;" x1="33" x2="331" y1="1208.8066" y2="1208.8066"/><text fill="#000000" font-family="sans-serif" font-size="13" font-weight="bold" lengthAdjust="spacing" textLength="14" x="45" y="1203.5439">34</text><text fill="#000000" font-family="sans-serif" font-size="13" lengthAdjust="spacing" textLength="257" x="63" y="1203.5439">Shows skills list, asks to select one or more</text><polygon fill="#181818" points="315,1236.0977,325,1240.0977,315,1244.0977,319,1240.0977" style="stroke:#181818;stroke-width:1.0;"/><line style="stroke:#181818;stroke-width:1.0;" x1="28" x2="321" y1="1240.0977" y2="1240.0977"/><text fill="#000000" font-family="sans-serif" font-size="13" font-weight="bold" lengthAdjust="spacing" textLength="14" x="35" y="1234.835">35</text><text fill="#000000" font-family="sans-serif" font-size="13" lengthAdjust="spacing" textLength="151" x="53" y="1234.835">Selects one or more skills</text><polygon fill="#181818" points="39,1267.3887,29,1271.3887,39,1275.3887,35,1271.3887" style="stroke:#181818;stroke-width:1.0;"/><line style="stroke:#181818;stroke-width:1.0;stroke-dasharray:2.0,2.0;" x1="33" x2="331" y1="1271.3887" y2="1271.3887"/><text fill="#000000" font-family="sans-serif" font-size="13" font-weight="bold" lengthAdjust="spacing" textLength="14" x="45" y="1266.126">36</text><text fill="#000000" font-family="sans-serif" font-size="13" lengthAdjust="spacing" textLength="238" x="63" y="1266.126">Shows all data and requests confirmation</text><polygon fill="#181818" points="320,1298.6797,330,1302.6797,320,1306.6797,324,1302.6797" style="stroke:#181818;stroke-width:1.0;"/><line style="stroke:#181818;stroke-width:1.0;" x1="28" x2="326" y1="1302.6797" y2="1302.6797"/><text fill="#000000" font-family="sans-serif" font-size="13" font-weight="bold" lengthAdjust="spacing" textLength="14" x="35" y="1297.417">37</text><text fill="#000000" font-family="sans-serif" font-size="13" lengthAdjust="spacing" textLength="230" x="53" y="1297.417">Confirms collaborator and skill assigned</text><polygon fill="#181818" points="633,1329.9707,643,1333.9707,633,1337.9707,637,1333.9707" style="stroke:#181818;stroke-width:1.0;"/><line style="stroke:#181818;stroke-width:1.0;" x1="332" x2="639" y1="1333.9707" y2="1333.9707"/><text fill="#000000" font-family="sans-serif" font-size="13" font-weight="bold" lengthAdjust="spacing" textLength="14" x="339" y="1328.708">38</text><text fill="#000000" font-family="sans-serif" font-size="13" lengthAdjust="spacing" textLength="271" x="357" y="1328.708">assignSkillToTeamMember(employeeId, skillId)</text><polygon fill="#181818" points="1862.5,1361.2617,1872.5,1365.2617,1862.5,1369.2617,1866.5,1365.2617" style="stroke:#181818;stroke-width:1.0;"/><line style="stroke:#181818;stroke-width:1.0;" x1="655" x2="1868.5" y1="1365.2617" y2="1365.2617"/><text fill="#000000" font-family="sans-serif" font-size="13" font-weight="bold" lengthAdjust="spacing" textLength="14" x="662" y="1359.999">39</text><text fill="#000000" font-family="sans-serif" font-size="13" lengthAdjust="spacing" textLength="123" x="680" y="1359.999">createTeamMember()</text><line style="stroke:#181818;stroke-width:1.0;" x1="1884.5" x2="1926.5" y1="1396.5527" y2="1396.5527"/><line style="stroke:#181818;stroke-width:1.0;" x1="1926.5" x2="1926.5" y1="1396.5527" y2="1409.5527"/><line style="stroke:#181818;stroke-width:1.0;" x1="1885.5" x2="1926.5" y1="1409.5527" y2="1409.5527"/><polygon fill="#181818" points="1895.5,1405.5527,1885.5,1409.5527,1895.5,1413.5527,1891.5,1409.5527" style="stroke:#181818;stroke-width:1.0;"/><text fill="#000000" font-family="sans-serif" font-size="13" font-weight="bold" lengthAdjust="spacing" textLength="14" x="1891.5" y="1391.29">40</text><text fill="#000000" font-family="sans-serif" font-size="13" lengthAdjust="spacing" textLength="187" x="1909.5" y="1391.29">addTeamMember(TeamMember)</text><line style="stroke:#181818;stroke-width:1.0;" x1="1884.5" x2="1926.5" y1="1445.8438" y2="1445.8438"/><line style="stroke:#181818;stroke-width:1.0;" x1="1926.5" x2="1926.5" y1="1445.8438" y2="1458.8438"/><line style="stroke:#181818;stroke-width:1.0;" x1="1879.5" x2="1926.5" y1="1458.8438" y2="1458.8438"/><polygon fill="#181818" points="1889.5,1454.8438,1879.5,1458.8438,1889.5,1462.8438,1885.5,1458.8438" style="stroke:#181818;stroke-width:1.0;"/><text fill="#000000" font-family="sans-serif" font-size="13" font-weight="bold" lengthAdjust="spacing" textLength="14" x="1891.5" y="1440.5811">41</text><text fill="#000000" font-family="sans-serif" font-size="13" lengthAdjust="spacing" textLength="209" x="1909.5" y="1440.5811">validateTeamMember(TeamMember)</text><line style="stroke:#181818;stroke-width:1.0;stroke-dasharray:2.0,2.0;" x1="1879.5" x2="1921.5" y1="1485.1348" y2="1485.1348"/><line style="stroke:#181818;stroke-width:1.0;stroke-dasharray:2.0,2.0;" x1="1921.5" x2="1921.5" y1="1485.1348" y2="1498.1348"/><line style="stroke:#181818;stroke-width:1.0;stroke-dasharray:2.0,2.0;" x1="1880.5" x2="1921.5" y1="1498.1348" y2="1498.1348"/><polygon fill="#181818" points="1890.5,1494.1348,1880.5,1498.1348,1890.5,1502.1348,1886.5,1498.1348" style="stroke:#181818;stroke-width:1.0;"/><text fill="#000000" font-family="sans-serif" font-size="13" font-weight="bold" lengthAdjust="spacing" textLength="14" x="1886.5" y="1479.8721">42</text><text fill="#000000" font-family="sans-serif" font-size="13" lengthAdjust="spacing" textLength="4" x="1904.5" y="1479.8721">&#160;</text><line style="stroke:#181818;stroke-width:1.0;stroke-dasharray:2.0,2.0;" x1="1879.5" x2="1921.5" y1="1534.4258" y2="1534.4258"/><line style="stroke:#181818;stroke-width:1.0;stroke-dasharray:2.0,2.0;" x1="1921.5" x2="1921.5" y1="1534.4258" y2="1547.4258"/><line style="stroke:#181818;stroke-width:1.0;stroke-dasharray:2.0,2.0;" x1="1874.5" x2="1921.5" y1="1547.4258" y2="1547.4258"/><polygon fill="#181818" points="1884.5,1543.4258,1874.5,1547.4258,1884.5,1551.4258,1880.5,1547.4258" style="stroke:#181818;stroke-width:1.0;"/><text fill="#000000" font-family="sans-serif" font-size="13" font-weight="bold" lengthAdjust="spacing" textLength="14" x="1886.5" y="1529.1631">43</text><text fill="#000000" font-family="sans-serif" font-size="13" lengthAdjust="spacing" textLength="4" x="1904.5" y="1529.1631">&#160;</text><polygon fill="#181818" points="666,1569.7168,656,1573.7168,666,1577.7168,662,1573.7168" style="stroke:#181818;stroke-width:1.0;"/><line style="stroke:#181818;stroke-width:1.0;stroke-dasharray:2.0,2.0;" x1="660" x2="1873.5" y1="1573.7168" y2="1573.7168"/><text fill="#000000" font-family="sans-serif" font-size="13" font-weight="bold" lengthAdjust="spacing" textLength="14" x="672" y="1568.4541">44</text><text fill="#000000" font-family="sans-serif" font-size="13" lengthAdjust="spacing" textLength="79" x="690" y="1568.4541">TeamMember</text><polygon fill="#181818" points="343,1601.0078,333,1605.0078,343,1609.0078,339,1605.0078" style="stroke:#181818;stroke-width:1.0;"/><line style="stroke:#181818;stroke-width:1.0;stroke-dasharray:2.0,2.0;" x1="337" x2="649" y1="1605.0078" y2="1605.0078"/><text fill="#000000" font-family="sans-serif" font-size="13" font-weight="bold" lengthAdjust="spacing" textLength="14" x="349" y="1599.7451">45</text><text fill="#000000" font-family="sans-serif" font-size="13" lengthAdjust="spacing" textLength="79" x="367" y="1599.7451">TeamMember</text><polygon fill="#181818" points="34,1632.2988,24,1636.2988,34,1640.2988,30,1636.2988" style="stroke:#181818;stroke-width:1.0;"/><line style="stroke:#181818;stroke-width:1.0;stroke-dasharray:2.0,2.0;" x1="28" x2="331" y1="1636.2988" y2="1636.2988"/><text fill="#000000" font-family="sans-serif" font-size="13" font-weight="bold" lengthAdjust="spacing" textLength="14" x="40" y="1631.0361">46</text><text fill="#000000" font-family="sans-serif" font-size="13" lengthAdjust="spacing" textLength="160" x="58" y="1631.0361">Displays operation success</text><!--SRC=[tLTDR-8m4BtdLrXS5gH5UqVLIfH-eQNQYe3sqekR360HRDPssgM_ViTEGkp48UsrFHLxtlCR-uqpLdl6ZrJI0pa8BfAT50SWMkOGgVFCaIPxkeLOdp8W4X9D-JPp0zIEfkADyItPq4n15D5S2vuVNa16qRSTIu5iXD0luXzE9Lf8CdXOFWu8LMHwynWXYMO9ErAkoM0oLOfjURndMRQUsvZrl3ja9hYM8ij0sj3PQhbe12_XA1J3HHae6tCUECNC989IVOXq4C-yJV2qcAvyn3JNkpkQq1Gmtlm0ZfDKCy7hrOfyrwk7vUsJ3yyLo1WmAS4Hlwv_5Ud7jqi_NiWjvUozmJzvvh-34vObFDNDYq9SIC6nlFS1S3XcuWHG4oBijZLemUtXC9V3uE7yQ6KEtriszaSijZ7cKzZ92bY4_vel5jQYx9LgiEQC2FxXFsJy4ur89cJ1b4OxIq99WiQZBq9IOsdwIXd-mi8mY3C7cjSE81OPZ3-H8qEEAg_Xo0TO2ziX6ro3jg2DDUwmH4jx8DG6ki41TnVOELTOk4crdhTcg2Gyuglnk8FPhOup9eMBr2tHfg8AbLt54r9jwx0bi-Jw096ZqbArP9N5MYYRvL8YeLET8KrLVPzdAWvZ7onav69g8RPRIFymlLlc6GpnBWmmsR9lqPWCIvx12g_f7tVcnXsqbwlNAtqpJuTmG8kEBd7cmK1detnLvqslTwgNeRL3RPkx5y_roHV_rGmVlfS_RVTUcbwpXnd8fESyMZ8xFZHLN2R4qLwVg6T7t2_EEQH3YT6ulCTSARSQ7gYw90E_LJs4PliAnhgIGllbKW5FRGg16kZQm399JTzDab_EmEtl-gVDUv6YrxXjTFWBw-a9T2CjTRt48Oq1udCOzW1NOylVuAbR1FFLmMPZGkATU5CsYeYDrsaKX-RUoVDsbpBR2Q70muNxahetQJHBnUdQmUiJ5fhjkEOfAjCIVJ6Q583srZQRBY_xSM0PawJFzO7z36oMLLZisNTiv_QAQ44KPFXY8O83rY4-SYHyPFjYYr8khAJlxkuQQcYMaPHgYjTLYg-clpae94m4tp1vg2-yldCiubMZrqHAAmVJD4yXIBkulBQJrk-cbLW1FJo2UQCDgzPxddudvJ6F_1QqEeK9IIGWlmE-K5nH51wk0DM0lm9DKuU-_dVKWtkb6KjzRIuuwd9MELEJEgozKq6-WD3w46fDqIM_D-yvQmWF7G3RjuDRrOKd9-I6gMD6JsZe8qXhFgBo9C4-DjZaeNaYjsKpxw3_]--></g></svg>