<?xml version="1.0" encoding="us-ascii" standalone="no"?><svg xmlns="http://www.w3.org/2000/svg" xmlns:xlink="http://www.w3.org/1999/xlink" contentStyleType="text/css" height="637px" preserveAspectRatio="none" style="width:1688px;height:637px;background:#FFFFFF;" version="1.1" viewBox="0 0 1688 637" width="1688px" zoomAndPan="magnify"><defs/><g><!--class AuthenticationRepository--><g id="elem_AuthenticationRepository"><rect codeLine="10" fill="#F1F1F1" height="64.4883" id="AuthenticationRepository" rx="2.5" ry="2.5" style="stroke:#181818;stroke-width:0.5;" width="206" x="870.5" y="233.97"/><ellipse cx="885.5" cy="249.97" fill="#ADD1B2" rx="11" ry="11" style="stroke:#181818;stroke-width:1.0;"/><path d="M887.9731,256.1131 Q887.3921,256.4119 886.7529,256.5613 Q886.1138,256.7107 885.4082,256.7107 Q882.9014,256.7107 881.5815,255.0589 Q880.2617,253.407 880.2617,250.2859 Q880.2617,247.1565 881.5815,245.5047 Q882.9014,243.8528 885.4082,243.8528 Q886.1138,243.8528 886.7612,244.0022 Q887.4087,244.1516 887.9731,244.4505 L887.9731,247.1731 Q887.3423,246.5921 886.7488,246.3223 Q886.1553,246.0525 885.5244,246.0525 Q884.1797,246.0525 883.4949,247.1192 Q882.8101,248.1858 882.8101,250.2859 Q882.8101,252.3777 883.4949,253.4444 Q884.1797,254.511 885.5244,254.511 Q886.1553,254.511 886.7488,254.2412 Q887.3423,253.9715 887.9731,253.3904 Z " fill="#000000"/><text fill="#000000" font-family="sans-serif" font-size="14" lengthAdjust="spacing" textLength="174" x="899.5" y="255.261">AuthenticationRepository</text><line style="stroke:#181818;stroke-width:0.5;" x1="871.5" x2="1075.5" y1="265.97" y2="265.97"/><line style="stroke:#181818;stroke-width:0.5;" x1="871.5" x2="1075.5" y1="273.97" y2="273.97"/><text fill="#000000" font-family="sans-serif" font-size="14" lengthAdjust="spacing" textLength="179" x="876.5" y="291.5052">+getCurrentUserSession()</text></g><!--class Employee--><g id="elem_Employee"><rect codeLine="14" fill="#F1F1F1" height="113.9531" id="Employee" rx="2.5" ry="2.5" style="stroke:#181818;stroke-width:0.5;" width="550" x="917.5" y="375.46"/><ellipse cx="1155.25" cy="391.46" fill="#ADD1B2" rx="11" ry="11" style="stroke:#181818;stroke-width:1.0;"/><path d="M1157.7231,397.6031 Q1157.1421,397.9019 1156.5029,398.0513 Q1155.8638,398.2007 1155.1582,398.2007 Q1152.6514,398.2007 1151.3315,396.5489 Q1150.0117,394.897 1150.0117,391.7759 Q1150.0117,388.6465 1151.3315,386.9947 Q1152.6514,385.3428 1155.1582,385.3428 Q1155.8638,385.3428 1156.5112,385.4922 Q1157.1587,385.6416 1157.7231,385.9405 L1157.7231,388.6631 Q1157.0923,388.0821 1156.4988,387.8123 Q1155.9053,387.5425 1155.2744,387.5425 Q1153.9297,387.5425 1153.2449,388.6092 Q1152.5601,389.6758 1152.5601,391.7759 Q1152.5601,393.8677 1153.2449,394.9344 Q1153.9297,396.001 1155.2744,396.001 Q1155.9053,396.001 1156.4988,395.7312 Q1157.0923,395.4615 1157.7231,394.8804 Z " fill="#000000"/><text fill="#000000" font-family="sans-serif" font-size="14" lengthAdjust="spacing" textLength="66" x="1175.75" y="396.751">Employee</text><line style="stroke:#181818;stroke-width:0.5;" x1="918.5" x2="1466.5" y1="407.46" y2="407.46"/><line style="stroke:#181818;stroke-width:0.5;" x1="918.5" x2="1466.5" y1="415.46" y2="415.46"/><text fill="#000000" font-family="sans-serif" font-size="14" lengthAdjust="spacing" textLength="229" x="923.5" y="432.9952">+getGreenSpacesManagedByMe()</text><text fill="#000000" font-family="sans-serif" font-size="14" lengthAdjust="spacing" textLength="538" x="923.5" y="449.4834">+createTask(title, description, selectedGreenSpace, selectedUrgency, duration)</text><text fill="#000000" font-family="sans-serif" font-size="14" lengthAdjust="spacing" textLength="138" x="923.5" y="465.9717">+validateTask(Task)</text><text fill="#000000" font-family="sans-serif" font-size="14" lengthAdjust="spacing" textLength="111" x="923.5" y="482.46">+addTask(Task)</text></g><!--class EmployeeRepository--><g id="elem_EmployeeRepository"><rect codeLine="21" fill="#F1F1F1" height="64.4883" id="EmployeeRepository" rx="2.5" ry="2.5" style="stroke:#181818;stroke-width:0.5;" width="225" x="1111" y="233.97"/><ellipse cx="1150.3" cy="249.97" fill="#ADD1B2" rx="11" ry="11" style="stroke:#181818;stroke-width:1.0;"/><path d="M1152.7731,256.1131 Q1152.1921,256.4119 1151.5529,256.5613 Q1150.9138,256.7107 1150.2082,256.7107 Q1147.7014,256.7107 1146.3815,255.0589 Q1145.0617,253.407 1145.0617,250.2859 Q1145.0617,247.1565 1146.3815,245.5047 Q1147.7014,243.8528 1150.2082,243.8528 Q1150.9138,243.8528 1151.5612,244.0022 Q1152.2087,244.1516 1152.7731,244.4505 L1152.7731,247.1731 Q1152.1423,246.5921 1151.5488,246.3223 Q1150.9553,246.0525 1150.3244,246.0525 Q1148.9797,246.0525 1148.2949,247.1192 Q1147.6101,248.1858 1147.6101,250.2859 Q1147.6101,252.3777 1148.2949,253.4444 Q1148.9797,254.511 1150.3244,254.511 Q1150.9553,254.511 1151.5488,254.2412 Q1152.1423,253.9715 1152.7731,253.3904 Z " fill="#000000"/><text fill="#000000" font-family="sans-serif" font-size="14" lengthAdjust="spacing" textLength="139" x="1169.7" y="255.261">EmployeeRepository</text><line style="stroke:#181818;stroke-width:0.5;" x1="1112" x2="1335" y1="265.97" y2="265.97"/><line style="stroke:#181818;stroke-width:0.5;" x1="1112" x2="1335" y1="273.97" y2="273.97"/><text fill="#000000" font-family="sans-serif" font-size="14" lengthAdjust="spacing" textLength="213" x="1117" y="291.5052">+getEmployeeByUserID(userID)</text></g><!--class Organization--><g id="elem_Organization"><rect codeLine="25" fill="#F1F1F1" height="64.4883" id="Organization" rx="2.5" ry="2.5" style="stroke:#181818;stroke-width:0.5;" width="170" x="1502.5" y="400.19"/><ellipse cx="1539.1" cy="416.19" fill="#ADD1B2" rx="11" ry="11" style="stroke:#181818;stroke-width:1.0;"/><path d="M1541.5731,422.3331 Q1540.9921,422.6319 1540.3529,422.7813 Q1539.7138,422.9307 1539.0082,422.9307 Q1536.5014,422.9307 1535.1815,421.2789 Q1533.8617,419.627 1533.8617,416.5059 Q1533.8617,413.3765 1535.1815,411.7247 Q1536.5014,410.0728 1539.0082,410.0728 Q1539.7138,410.0728 1540.3612,410.2222 Q1541.0087,410.3716 1541.5731,410.6705 L1541.5731,413.3931 Q1540.9423,412.8121 1540.3488,412.5423 Q1539.7553,412.2725 1539.1244,412.2725 Q1537.7797,412.2725 1537.0949,413.3392 Q1536.4101,414.4058 1536.4101,416.5059 Q1536.4101,418.5977 1537.0949,419.6644 Q1537.7797,420.731 1539.1244,420.731 Q1539.7553,420.731 1540.3488,420.4612 Q1540.9423,420.1915 1541.5731,419.6104 Z " fill="#000000"/><text fill="#000000" font-family="sans-serif" font-size="14" lengthAdjust="spacing" textLength="90" x="1557.9" y="421.481">Organization</text><line style="stroke:#181818;stroke-width:0.5;" x1="1503.5" x2="1671.5" y1="432.19" y2="432.19"/><line style="stroke:#181818;stroke-width:0.5;" x1="1503.5" x2="1671.5" y1="440.19" y2="440.19"/><text fill="#000000" font-family="sans-serif" font-size="14" lengthAdjust="spacing" textLength="158" x="1508.5" y="457.7252">+anyUserHasId(userID)</text></g><!--class OrganizationRepository--><g id="elem_OrganizationRepository"><rect codeLine="29" fill="#F1F1F1" height="64.4883" id="OrganizationRepository" rx="2.5" ry="2.5" style="stroke:#181818;stroke-width:0.5;" width="249" x="1432" y="233.97"/><ellipse cx="1471.3" cy="249.97" fill="#ADD1B2" rx="11" ry="11" style="stroke:#181818;stroke-width:1.0;"/><path d="M1473.7731,256.1131 Q1473.1921,256.4119 1472.5529,256.5613 Q1471.9138,256.7107 1471.2082,256.7107 Q1468.7014,256.7107 1467.3815,255.0589 Q1466.0617,253.407 1466.0617,250.2859 Q1466.0617,247.1565 1467.3815,245.5047 Q1468.7014,243.8528 1471.2082,243.8528 Q1471.9138,243.8528 1472.5612,244.0022 Q1473.2087,244.1516 1473.7731,244.4505 L1473.7731,247.1731 Q1473.1423,246.5921 1472.5488,246.3223 Q1471.9553,246.0525 1471.3244,246.0525 Q1469.9797,246.0525 1469.2949,247.1192 Q1468.6101,248.1858 1468.6101,250.2859 Q1468.6101,252.3777 1469.2949,253.4444 Q1469.9797,254.511 1471.3244,254.511 Q1471.9553,254.511 1472.5488,254.2412 Q1473.1423,253.9715 1473.7731,253.3904 Z " fill="#000000"/><text fill="#000000" font-family="sans-serif" font-size="14" lengthAdjust="spacing" textLength="163" x="1490.7" y="255.261">OrganizationRepository</text><line style="stroke:#181818;stroke-width:0.5;" x1="1433" x2="1680" y1="265.97" y2="265.97"/><line style="stroke:#181818;stroke-width:0.5;" x1="1433" x2="1680" y1="273.97" y2="273.97"/><text fill="#000000" font-family="sans-serif" font-size="14" lengthAdjust="spacing" textLength="237" x="1438" y="291.5052">+getOrganizationByUserID(userID)</text></g><!--class Repositories--><g id="elem_Repositories"><rect codeLine="33" fill="#F1F1F1" height="130.4414" id="Repositories" rx="2.5" ry="2.5" style="stroke:#181818;stroke-width:0.5;" width="229" x="1109" y="42.53"/><ellipse cx="1176.75" cy="58.53" fill="#ADD1B2" rx="11" ry="11" style="stroke:#181818;stroke-width:1.0;"/><path d="M1179.2231,64.6731 Q1178.6421,64.9719 1178.0029,65.1213 Q1177.3638,65.2707 1176.6582,65.2707 Q1174.1514,65.2707 1172.8315,63.6189 Q1171.5117,61.967 1171.5117,58.8459 Q1171.5117,55.7165 1172.8315,54.0647 Q1174.1514,52.4128 1176.6582,52.4128 Q1177.3638,52.4128 1178.0112,52.5622 Q1178.6587,52.7116 1179.2231,53.0105 L1179.2231,55.7331 Q1178.5923,55.1521 1177.9988,54.8823 Q1177.4053,54.6125 1176.7744,54.6125 Q1175.4297,54.6125 1174.7449,55.6792 Q1174.0601,56.7458 1174.0601,58.8459 Q1174.0601,60.9377 1174.7449,62.0044 Q1175.4297,63.071 1176.7744,63.071 Q1177.4053,63.071 1177.9988,62.8012 Q1178.5923,62.5315 1179.2231,61.9504 Z " fill="#000000"/><text fill="#000000" font-family="sans-serif" font-size="14" lengthAdjust="spacing" textLength="85" x="1197.25" y="63.821">Repositories</text><line style="stroke:#181818;stroke-width:0.5;" x1="1110" x2="1337" y1="74.53" y2="74.53"/><line style="stroke:#181818;stroke-width:0.5;" x1="1110" x2="1337" y1="82.53" y2="82.53"/><text fill="#000000" font-family="sans-serif" font-size="14" lengthAdjust="spacing" textLength="103" x="1115" y="100.0652">-Repositories()</text><text fill="#000000" font-family="sans-serif" font-size="14" lengthAdjust="spacing" textLength="197" x="1115" y="116.5534">+getInstance() : Repositories</text><text fill="#000000" font-family="sans-serif" font-size="14" lengthAdjust="spacing" textLength="217" x="1115" y="133.0417">+getAuthenticationRepository()</text><text fill="#000000" font-family="sans-serif" font-size="14" lengthAdjust="spacing" textLength="182" x="1115" y="149.53">+getEmployeeRepository()</text><text fill="#000000" font-family="sans-serif" font-size="14" lengthAdjust="spacing" textLength="206" x="1115" y="166.0183">+getOrganizationRepository()</text></g><!--class ToDoListController--><g id="elem_ToDoListController"><rect codeLine="41" fill="#F1F1F1" height="113.9531" id="ToDoListController" rx="2.5" ry="2.5" style="stroke:#181818;stroke-width:0.5;" width="563" x="434" y="50.77"/><ellipse cx="646.25" cy="66.77" fill="#ADD1B2" rx="11" ry="11" style="stroke:#181818;stroke-width:1.0;"/><path d="M648.7231,72.9131 Q648.1421,73.2119 647.5029,73.3613 Q646.8638,73.5107 646.1582,73.5107 Q643.6514,73.5107 642.3315,71.8589 Q641.0117,70.207 641.0117,67.0859 Q641.0117,63.9565 642.3315,62.3047 Q643.6514,60.6528 646.1582,60.6528 Q646.8638,60.6528 647.5112,60.8022 Q648.1587,60.9516 648.7231,61.2505 L648.7231,63.9731 Q648.0923,63.3921 647.4988,63.1223 Q646.9053,62.8525 646.2744,62.8525 Q644.9297,62.8525 644.2449,63.9192 Q643.5601,64.9858 643.5601,67.0859 Q643.5601,69.1777 644.2449,70.2444 Q644.9297,71.311 646.2744,71.311 Q646.9053,71.311 647.4988,71.0412 Q648.0923,70.7715 648.7231,70.1904 Z " fill="#000000"/><text fill="#000000" font-family="sans-serif" font-size="14" lengthAdjust="spacing" textLength="130" x="666.75" y="72.061">ToDoListController</text><line style="stroke:#181818;stroke-width:0.5;" x1="435" x2="996" y1="82.77" y2="82.77"/><line style="stroke:#181818;stroke-width:0.5;" x1="435" x2="996" y1="90.77" y2="90.77"/><text fill="#000000" font-family="sans-serif" font-size="14" lengthAdjust="spacing" textLength="151" x="440" y="108.3052">+ToDoListController()</text><text fill="#000000" font-family="sans-serif" font-size="14" lengthAdjust="spacing" textLength="162" x="440" y="124.7934">+getUserFromSession()</text><text fill="#000000" font-family="sans-serif" font-size="14" lengthAdjust="spacing" textLength="193" x="440" y="141.2817">+getAvailableGreenSpaces()</text><text fill="#000000" font-family="sans-serif" font-size="14" lengthAdjust="spacing" textLength="551" x="440" y="157.77">+addNewTask(title, description, selectedGreenSpace, selectedUrgency, duration)</text></g><!--class ToDoListUI--><g id="elem_ToDoListUI"><rect codeLine="48" fill="#F1F1F1" height="48" id="ToDoListUI" rx="2.5" ry="2.5" style="stroke:#181818;stroke-width:0.5;" width="106" x="293.5" y="83.75"/><ellipse cx="308.5" cy="99.75" fill="#ADD1B2" rx="11" ry="11" style="stroke:#181818;stroke-width:1.0;"/><path d="M310.9731,105.8931 Q310.3921,106.1919 309.7529,106.3413 Q309.1138,106.4907 308.4082,106.4907 Q305.9014,106.4907 304.5815,104.8389 Q303.2617,103.187 303.2617,100.0659 Q303.2617,96.9365 304.5815,95.2847 Q305.9014,93.6328 308.4082,93.6328 Q309.1138,93.6328 309.7612,93.7822 Q310.4087,93.9316 310.9731,94.2305 L310.9731,96.9531 Q310.3423,96.3721 309.7488,96.1023 Q309.1553,95.8325 308.5244,95.8325 Q307.1797,95.8325 306.4949,96.8992 Q305.8101,97.9658 305.8101,100.0659 Q305.8101,102.1577 306.4949,103.2244 Q307.1797,104.291 308.5244,104.291 Q309.1553,104.291 309.7488,104.0212 Q310.3423,103.7515 310.9731,103.1704 Z " fill="#000000"/><text fill="#000000" font-family="sans-serif" font-size="14" lengthAdjust="spacing" textLength="74" x="322.5" y="105.041">ToDoListUI</text><line style="stroke:#181818;stroke-width:0.5;" x1="294.5" x2="398.5" y1="115.75" y2="115.75"/><line style="stroke:#181818;stroke-width:0.5;" x1="294.5" x2="398.5" y1="123.75" y2="123.75"/></g><!--class GreenSpaces--><g id="elem_GreenSpaces"><rect codeLine="51" fill="#F1F1F1" height="64.4883" id="GreenSpaces" rx="2.5" ry="2.5" style="stroke:#181818;stroke-width:0.5;" width="241" x="953" y="566.41"/><ellipse cx="1025.25" cy="582.41" fill="#ADD1B2" rx="11" ry="11" style="stroke:#181818;stroke-width:1.0;"/><path d="M1027.7231,588.5531 Q1027.1421,588.8519 1026.5029,589.0013 Q1025.8638,589.1507 1025.1582,589.1507 Q1022.6514,589.1507 1021.3315,587.4989 Q1020.0117,585.847 1020.0117,582.7259 Q1020.0117,579.5965 1021.3315,577.9447 Q1022.6514,576.2928 1025.1582,576.2928 Q1025.8638,576.2928 1026.5112,576.4422 Q1027.1587,576.5916 1027.7231,576.8905 L1027.7231,579.6131 Q1027.0923,579.0321 1026.4988,578.7623 Q1025.9053,578.4925 1025.2744,578.4925 Q1023.9297,578.4925 1023.2449,579.5592 Q1022.5601,580.6258 1022.5601,582.7259 Q1022.5601,584.8177 1023.2449,585.8844 Q1023.9297,586.951 1025.2744,586.951 Q1025.9053,586.951 1026.4988,586.6812 Q1027.0923,586.4115 1027.7231,585.8304 Z " fill="#000000"/><text fill="#000000" font-family="sans-serif" font-size="14" lengthAdjust="spacing" textLength="88" x="1045.75" y="587.701">GreenSpaces</text><line style="stroke:#181818;stroke-width:0.5;" x1="954" x2="1193" y1="598.41" y2="598.41"/><line style="stroke:#181818;stroke-width:0.5;" x1="954" x2="1193" y1="606.41" y2="606.41"/><text fill="#000000" font-family="sans-serif" font-size="14" lengthAdjust="spacing" textLength="229" x="959" y="623.9452">+getGreenSpacesManagedByMe()</text></g><!--class Task--><g id="elem_Task"><rect codeLine="55" fill="#F1F1F1" height="64.4883" id="Task" rx="2.5" ry="2.5" style="stroke:#181818;stroke-width:0.5;" width="168" x="1228.5" y="566.41"/><ellipse cx="1292.25" cy="582.41" fill="#ADD1B2" rx="11" ry="11" style="stroke:#181818;stroke-width:1.0;"/><path d="M1294.7231,588.5531 Q1294.1421,588.8519 1293.5029,589.0013 Q1292.8638,589.1507 1292.1582,589.1507 Q1289.6514,589.1507 1288.3315,587.4989 Q1287.0117,585.847 1287.0117,582.7259 Q1287.0117,579.5965 1288.3315,577.9447 Q1289.6514,576.2928 1292.1582,576.2928 Q1292.8638,576.2928 1293.5112,576.4422 Q1294.1587,576.5916 1294.7231,576.8905 L1294.7231,579.6131 Q1294.0923,579.0321 1293.4988,578.7623 Q1292.9053,578.4925 1292.2744,578.4925 Q1290.9297,578.4925 1290.2449,579.5592 Q1289.5601,580.6258 1289.5601,582.7259 Q1289.5601,584.8177 1290.2449,585.8844 Q1290.9297,586.951 1292.2744,586.951 Q1292.9053,586.951 1293.4988,586.6812 Q1294.0923,586.4115 1294.7231,585.8304 Z " fill="#000000"/><text fill="#000000" font-family="sans-serif" font-size="14" lengthAdjust="spacing" textLength="32" x="1312.75" y="587.701">Task</text><line style="stroke:#181818;stroke-width:0.5;" x1="1229.5" x2="1395.5" y1="598.41" y2="598.41"/><line style="stroke:#181818;stroke-width:0.5;" x1="1229.5" x2="1395.5" y1="606.41" y2="606.41"/><text fill="#000000" font-family="sans-serif" font-size="14" lengthAdjust="spacing" textLength="156" x="1234.5" y="623.9452">+create(Task instance)</text></g><g id="elem_GMN12"><path d="M6,87.44 L6,128.0611 L259,128.0611 L259,97.44 L249,87.44 L6,87.44 " fill="#FEFFDD" style="stroke:#181818;stroke-width:0.5;"/><path d="M249,87.44 L249,97.44 L259,97.44 L249,87.44 " fill="#FEFFDD" style="stroke:#181818;stroke-width:1.0;"/><text fill="#000000" font-family="sans-serif" font-size="13" lengthAdjust="spacing" textLength="232" x="12" y="105.0084">- userEmail and userRole is obtained</text><text fill="#000000" font-family="sans-serif" font-size="13" lengthAdjust="spacing" textLength="141" x="12" y="120.3189">from the user session.</text></g><!--link GMN12 to ToDoListController--><g id="link_GMN12_ToDoListController"><path d="M163.32,87.01 C194.66,67.27 245.39,38.94 294,27.53 C385.74,6 489.73,25.34 571.47,50.41 " fill="none" id="GMN12-ToDoListController" style="stroke:#181818;stroke-width:1.0;stroke-dasharray:7.0,7.0;"/></g><!--link Repositories to Repositories--><g id="link_Repositories_Repositories"><path codeLine="64" d="M1338.21,90.85 C1358.69,93.05 1373,98.68 1373,107.75 C1373,116.82 1364.656,121.812 1344.176,124.002 " fill="none" id="Repositories-to-Repositories" style="stroke:#181818;stroke-width:1.0;"/><polygon fill="#181818" points="1338.21,124.64,1347.5843,127.6604,1343.1817,124.1084,1346.7337,119.7057,1338.21,124.64" style="stroke:#181818;stroke-width:1.0;"/><text fill="#000000" font-family="sans-serif" font-size="13" lengthAdjust="spacing" textLength="53" x="1379" y="112.8184">instance</text></g><!--link ToDoListUI to ToDoListController--><g id="link_ToDoListUI_ToDoListController"><path codeLine="65" d="M399.83,107.75 C411.14,107.75 416.44,107.75 427.74,107.75 " fill="none" id="ToDoListUI-to-ToDoListController" style="stroke:#181818;stroke-width:1.0;stroke-dasharray:7.0,7.0;"/><polygon fill="#181818" points="433.74,107.75,424.74,103.75,428.74,107.75,424.74,111.75,433.74,107.75" style="stroke:#181818;stroke-width:1.0;"/></g><!--link ToDoListController to Repositories--><g id="link_ToDoListController_Repositories"><path codeLine="66" d="M997.36,107.75 C1036.57,107.75 1068.88,107.75 1102.51,107.75 " fill="none" id="ToDoListController-to-Repositories" style="stroke:#181818;stroke-width:1.0;stroke-dasharray:7.0,7.0;"/><polygon fill="#181818" points="1108.51,107.75,1099.51,103.75,1103.51,107.75,1099.51,111.75,1108.51,107.75" style="stroke:#181818;stroke-width:1.0;"/><text fill="#000000" font-family="sans-serif" font-size="13" lengthAdjust="spacing" textLength="75" x="1015.5" y="101.3184">repositories</text></g><!--link Repositories to AuthenticationRepository--><g id="link_Repositories_AuthenticationRepository"><path codeLine="67" d="M1120.37,173.29 C1087.15,194.09 1056.886,213.0269 1029.196,230.3569 " fill="none" id="Repositories-to-AuthenticationRepository" style="stroke:#181818;stroke-width:1.0;"/><polygon fill="#181818" points="1024.11,233.54,1033.8611,232.156,1028.3484,230.8874,1029.617,225.3746,1024.11,233.54" style="stroke:#181818;stroke-width:1.0;"/><text fill="#000000" font-family="sans-serif" font-size="13" lengthAdjust="spacing" textLength="8" x="1025.2863" y="223.2296">1</text></g><!--link Repositories to EmployeeRepository--><g id="link_Repositories_EmployeeRepository"><path codeLine="68" d="M1223.5,173.29 C1223.5,194.17 1223.5,210.39 1223.5,227.75 " fill="none" id="Repositories-to-EmployeeRepository" style="stroke:#181818;stroke-width:1.0;"/><polygon fill="#181818" points="1223.5,233.75,1227.5,224.75,1223.5,228.75,1219.5,224.75,1223.5,233.75" style="stroke:#181818;stroke-width:1.0;"/><text fill="#000000" font-family="sans-serif" font-size="13" lengthAdjust="spacing" textLength="8" x="1214.675" y="223.1078">1</text></g><!--link Repositories to OrganizationRepository--><g id="link_Repositories_OrganizationRepository"><path codeLine="69" d="M1338.1,162.6 C1388.52,186.29 1440.5696,210.7384 1483.8996,231.0984 " fill="none" id="Repositories-to-OrganizationRepository" style="stroke:#181818;stroke-width:1.0;"/><polygon fill="#181818" points="1489.33,233.65,1482.8855,226.2023,1484.8047,231.5236,1479.4833,233.4428,1489.33,233.65" style="stroke:#181818;stroke-width:1.0;"/><text fill="#000000" font-family="sans-serif" font-size="13" lengthAdjust="spacing" textLength="8" x="1466.6512" y="222.9872">1</text></g><!--link EmployeeRepository to Employee--><g id="link_EmployeeRepository_Employee"><path codeLine="70" d="M1217.52,298.88 C1213.44,320.5 1209.034,343.8543 1204.214,369.3643 " fill="none" id="EmployeeRepository-to-Employee" style="stroke:#181818;stroke-width:1.0;"/><polygon fill="#181818" points="1203.1,375.26,1208.7014,367.1591,1204.0283,370.3469,1200.8405,365.6738,1203.1,375.26" style="stroke:#181818;stroke-width:1.0;"/><text fill="#000000" font-family="sans-serif" font-size="13" lengthAdjust="spacing" textLength="39" x="1213.5" y="342.0284">stores</text><text fill="#000000" font-family="sans-serif" font-size="13" lengthAdjust="spacing" textLength="8" x="1207.6176" y="319.1346">1</text><text fill="#000000" font-family="sans-serif" font-size="13" lengthAdjust="spacing" textLength="6" x="1198.0737" y="364.5616">*</text></g><!--link OrganizationRepository to Organization--><g id="link_OrganizationRepository_Organization"><path codeLine="71" d="M1562.48,298.88 C1567.97,327.96 1574.9478,364.924 1580.4278,393.974 " fill="none" id="OrganizationRepository-to-Organization" style="stroke:#181818;stroke-width:1.0;"/><polygon fill="#181818" points="1581.54,399.87,1583.8023,390.2845,1580.6131,394.9567,1575.941,391.7675,1581.54,399.87" style="stroke:#181818;stroke-width:1.0;"/><text fill="#000000" font-family="sans-serif" font-size="13" lengthAdjust="spacing" textLength="39" x="1572.5" y="342.0284">stores</text><text fill="#000000" font-family="sans-serif" font-size="13" lengthAdjust="spacing" textLength="8" x="1554.8574" y="319.1346">1</text><text fill="#000000" font-family="sans-serif" font-size="13" lengthAdjust="spacing" textLength="6" x="1573.692" y="389.2072">*</text></g><!--link Employee to GreenSpaces--><g id="link_Employee_GreenSpaces"><path codeLine="72" d="M1151.88,489.49 C1133.3,515.14 1115.4906,539.7015 1099.7806,561.3815 " fill="none" id="Employee-to-GreenSpaces" style="stroke:#181818;stroke-width:1.0;"/><polygon fill="#181818" points="1096.26,566.24,1104.78,561.2993,1099.1939,562.1912,1098.3019,556.6051,1096.26,566.24" style="stroke:#181818;stroke-width:1.0;"/><text fill="#000000" font-family="sans-serif" font-size="13" lengthAdjust="spacing" textLength="56" x="1130.5" y="532.9784">manages</text><text fill="#000000" font-family="sans-serif" font-size="13" lengthAdjust="spacing" textLength="8" x="1092.1293" y="555.6081">1</text></g><!--link Employee to Task--><g id="link_Employee_Task"><path codeLine="73" d="M1233.46,489.49 C1252.2,515.14 1270.1589,539.7164 1286.0089,561.3964 " fill="none" id="Employee-to-Task" style="stroke:#181818;stroke-width:1.0;"/><polygon fill="#181818" points="1289.55,566.24,1287.4674,556.6138,1286.5991,562.2037,1281.0093,561.3353,1289.55,566.24" style="stroke:#181818;stroke-width:1.0;"/><text fill="#000000" font-family="sans-serif" font-size="13" lengthAdjust="spacing" textLength="22" x="1268.5" y="532.9784">has</text><text fill="#000000" font-family="sans-serif" font-size="13" lengthAdjust="spacing" textLength="6" x="1278.1978" y="555.6081">*</text></g><!--SRC=[hLJBRjim4BppAuXSuhQ9qLvz291NMm5D2yJn1wp5jKoO8WLobK0f-kzTCPP4LNBHGtsmOUxCS7Ovv7auQ5k1XrAMphfyxrs9adoDOgXKa1-Wm3Kr1gN7dC0M9WM4FIZtecqXTs02YlEXPBH5QYgKpfCJ2ISt4C8raTVRcZ3BdLthLvGV1NzYJLxNj4TBEWVIpZvYvO8cvnlvKqZ-V905qctjFMCs0VqQGs3SufturIdSbvLn3MBA-E8HxPfRml00bjjIDyq3CkiDaNi4mYS8XmLfCdWX5ORSwwhrS2436kuVrQ0oh6ryWJPlc57xQBdJV0QZLQVQVdK5K2fPczYURxchtZHjrzdTeeu_2V-7By3gr-YXPuAD-AyGClLtolosAUBqrZrNOpYoBqUB_Q1PChE1evJpyELg11eWfpAGoap7bLRdEqjJykJkt3STwDPPyiuOz7tVqr8gtGxXCr-O8Nc3xsVG1hO6axWjacF_ZY__AsEJFZOP- -zN4mF_T0q6EVRNCzwkHGogrCTZYrZh2AN17KctcndNCG5jJkvB7Wd7KCL_ZuxV4XsasnBm4w4YSCV3b7pW4S4znx4k1JAdtKU8KRmkhyPnM_NEH3AAvTMShPapNqxaV1h9yTQyzzcdivDFr3nw6jHvt7nanSopqA8Zw_sWpiO35zdoYKkTaaPFHK_ifJf7QOXMieo1-HF6QZ4UAxc787u3]--></g></svg>