<?xml version="1.0" encoding="us-ascii" standalone="no"?><svg xmlns="http://www.w3.org/2000/svg" xmlns:xlink="http://www.w3.org/1999/xlink" contentStyleType="text/css" height="1709px" preserveAspectRatio="none" style="width:2927px;height:1709px;background:#FFFFFF;" version="1.1" viewBox="0 0 2927 1709" width="2927px" zoomAndPan="magnify"><defs/><g><rect fill="#FFFFFF" height="1518.7051" style="stroke:#181818;stroke-width:1.0;" width="10" x="77.5" y="91.4883"/><rect fill="#FFFFFF" height="29.3105" style="stroke:#181818;stroke-width:1.0;" width="10" x="596.5" y="112.7988"/><rect fill="#FFFFFF" height="1447.7734" style="stroke:#181818;stroke-width:1.0;" width="10" x="596.5" y="171.4199"/><rect fill="#FFFFFF" height="404.9043" style="stroke:#181818;stroke-width:1.0;" width="10" x="601.5" y="1214.2891"/><rect fill="#FFFFFF" height="337.2832" style="stroke:#181818;stroke-width:1.0;" width="10" x="606.5" y="1272.9102"/><rect fill="#FFFFFF" height="610.0781" style="stroke:#181818;stroke-width:1.0;" width="10" x="1158.5" y="1009.1152"/><rect fill="#FFFFFF" height="278.6621" style="stroke:#181818;stroke-width:1.0;" width="10" x="1163.5" y="1302.2207"/><rect fill="#FFFFFF" height="29.3105" style="stroke:#181818;stroke-width:1.0;" width="10" x="1321.5" y="272.3516"/><rect fill="#FFFFFF" height="29.3105" style="stroke:#181818;stroke-width:1.0;" width="10" x="1321.5" y="565.457"/><rect fill="#FFFFFF" height="29.3105" style="stroke:#181818;stroke-width:1.0;" width="10" x="1434.5" y="330.9727"/><rect fill="#FFFFFF" height="29.3105" style="stroke:#181818;stroke-width:1.0;" width="10" x="1434.5" y="624.0781"/><rect fill="#FFFFFF" height="29.3105" style="stroke:#181818;stroke-width:1.0;" width="10" x="1434.5" y="831.252"/><rect fill="#FFFFFF" height="146.5527" style="stroke:#181818;stroke-width:1.0;" width="10" x="1592" y="389.5938"/><rect fill="#FFFFFF" height="87.9316" style="stroke:#181818;stroke-width:1.0;" width="10" x="1790" y="418.9043"/><rect fill="#FFFFFF" height="119.2422" style="stroke:#181818;stroke-width:1.0;" width="10" x="1929" y="889.873"/><rect fill="#FFFFFF" height="29.3105" style="stroke:#181818;stroke-width:1.0;" width="10" x="2108" y="943.4941"/><rect fill="#FFFFFF" height="87.9316" style="stroke:#181818;stroke-width:1.0;" width="10" x="2108" y="1038.4258"/><rect fill="#FFFFFF" height="220.041" style="stroke:#181818;stroke-width:1.0;" width="10" x="2108" y="1331.5313"/><rect fill="#FFFFFF" height="119.2422" style="stroke:#181818;stroke-width:1.0;" width="10" x="2271" y="682.6992"/><rect fill="#FFFFFF" height="29.3105" style="stroke:#181818;stroke-width:1.0;" width="10" x="2450" y="736.3203"/><rect fill="#FFFFFF" height="29.3105" style="stroke:#181818;stroke-width:1.0;" width="10" x="2567" y="1067.7363"/><rect fill="#FFFFFF" height="66.7988" style="stroke:#181818;stroke-width:1.0;" width="10" x="2655" y="1370.8418"/><rect fill="none" height="75.9316" style="stroke:#000000;stroke-width:1.5;" width="343.5" x="2175.5" y="697.6992"/><rect fill="none" height="75.9316" style="stroke:#000000;stroke-width:1.5;" width="319.5" x="1845.5" y="904.873"/><line style="stroke:#181818;stroke-width:0.5;stroke-dasharray:5.0,5.0;" x1="82" x2="82" y1="81.4883" y2="1628.1934"/><line style="stroke:#181818;stroke-width:0.5;stroke-dasharray:5.0,5.0;" x1="601.5" x2="601.5" y1="81.4883" y2="1628.1934"/><line style="stroke:#181818;stroke-width:0.5;stroke-dasharray:5.0,5.0;" x1="1163.5" x2="1163.5" y1="81.4883" y2="1628.1934"/><line style="stroke:#181818;stroke-width:0.5;stroke-dasharray:5.0,5.0;" x1="1326" x2="1326" y1="81.4883" y2="1628.1934"/><line style="stroke:#181818;stroke-width:0.5;stroke-dasharray:5.0,5.0;" x1="1439" x2="1439" y1="81.4883" y2="1628.1934"/><line style="stroke:#181818;stroke-width:0.5;stroke-dasharray:5.0,5.0;" x1="1597" x2="1597" y1="81.4883" y2="1628.1934"/><line style="stroke:#181818;stroke-width:0.5;stroke-dasharray:5.0,5.0;" x1="1794.5" x2="1794.5" y1="81.4883" y2="1628.1934"/><line style="stroke:#181818;stroke-width:0.5;stroke-dasharray:5.0,5.0;" x1="1933.5" x2="1933.5" y1="81.4883" y2="1628.1934"/><line style="stroke:#181818;stroke-width:0.5;stroke-dasharray:5.0,5.0;" x1="2113" x2="2113" y1="81.4883" y2="1628.1934"/><line style="stroke:#181818;stroke-width:0.5;stroke-dasharray:5.0,5.0;" x1="2275.5" x2="2275.5" y1="81.4883" y2="1628.1934"/><line style="stroke:#181818;stroke-width:0.5;stroke-dasharray:5.0,5.0;" x1="2455" x2="2455" y1="81.4883" y2="1628.1934"/><line style="stroke:#181818;stroke-width:0.5;stroke-dasharray:5.0,5.0;" x1="2572" x2="2572" y1="81.4883" y2="1628.1934"/><line style="stroke:#181818;stroke-width:0.5;stroke-dasharray:5.0,5.0;" x1="2660" x2="2660" y1="1370.2754" y2="1628.1934"/><text fill="#000000" font-family="sans-serif" font-size="14" lengthAdjust="spacing" textLength="149" x="5" y="78.5352">Green Space Manager</text><ellipse cx="82.5" cy="13.5" fill="#E3E3E3" rx="8" ry="8" style="stroke:#181818;stroke-width:0.5;"/><path d="M82.5,21.5 L82.5,48.5 M69.5,29.5 L95.5,29.5 M82.5,48.5 L69.5,63.5 M82.5,48.5 L95.5,63.5 " fill="none" style="stroke:#181818;stroke-width:0.5;"/><text fill="#000000" font-family="sans-serif" font-size="14" lengthAdjust="spacing" textLength="149" x="5" y="1640.7285">Green Space Manager</text><ellipse cx="82.5" cy="1652.1816" fill="#E3E3E3" rx="8" ry="8" style="stroke:#181818;stroke-width:0.5;"/><path d="M82.5,1660.1816 L82.5,1687.1816 M69.5,1668.1816 L95.5,1668.1816 M82.5,1687.1816 L69.5,1702.1816 M82.5,1687.1816 L95.5,1702.1816 " fill="none" style="stroke:#181818;stroke-width:0.5;"/><rect fill="#E3E3E3" height="30.4883" rx="2.5" ry="2.5" style="stroke:#181818;stroke-width:0.5;" width="92" x="555.5" y="50"/><text fill="#000000" font-family="sans-serif" font-size="14" lengthAdjust="spacing" textLength="78" x="562.5" y="70.5352">:ToDoListUI</text><rect fill="#E3E3E3" height="30.4883" rx="2.5" ry="2.5" style="stroke:#181818;stroke-width:0.5;" width="92" x="555.5" y="1627.1934"/><text fill="#000000" font-family="sans-serif" font-size="14" lengthAdjust="spacing" textLength="78" x="562.5" y="1647.7285">:ToDoListUI</text><rect fill="#E3E3E3" height="30.4883" rx="2.5" ry="2.5" style="stroke:#181818;stroke-width:0.5;" width="148" x="1089.5" y="50"/><text fill="#000000" font-family="sans-serif" font-size="14" lengthAdjust="spacing" textLength="134" x="1096.5" y="70.5352">:ToDoListController</text><rect fill="#E3E3E3" height="30.4883" rx="2.5" ry="2.5" style="stroke:#181818;stroke-width:0.5;" width="148" x="1089.5" y="1627.1934"/><text fill="#000000" font-family="sans-serif" font-size="14" lengthAdjust="spacing" textLength="134" x="1096.5" y="1647.7285">:ToDoListController</text><rect fill="#E3E3E3" height="30.4883" rx="2.5" ry="2.5" style="stroke:#181818;stroke-width:0.5;" width="103" x="1275" y="50"/><text fill="#000000" font-family="sans-serif" font-size="14" lengthAdjust="spacing" textLength="89" x="1282" y="70.5352">:Repositories</text><rect fill="#E3E3E3" height="30.4883" rx="2.5" ry="2.5" style="stroke:#181818;stroke-width:0.5;" width="103" x="1275" y="1627.1934"/><text fill="#000000" font-family="sans-serif" font-size="14" lengthAdjust="spacing" textLength="89" x="1282" y="1647.7285">:Repositories</text><rect fill="#E3E3E3" height="46.9766" rx="2.5" ry="2.5" style="stroke:#181818;stroke-width:0.5;" width="103" x="1388" y="33.5117"/><text fill="#000000" font-family="sans-serif" font-size="14" lengthAdjust="spacing" textLength="82" x="1398.5" y="54.0469">repositories</text><text fill="#000000" font-family="sans-serif" font-size="14" lengthAdjust="spacing" textLength="89" x="1395" y="70.5352">:Repositories</text><rect fill="#E3E3E3" height="46.9766" rx="2.5" ry="2.5" style="stroke:#181818;stroke-width:0.5;" width="103" x="1388" y="1627.1934"/><text fill="#000000" font-family="sans-serif" font-size="14" lengthAdjust="spacing" textLength="82" x="1398.5" y="1647.7285">repositories</text><text fill="#000000" font-family="sans-serif" font-size="14" lengthAdjust="spacing" textLength="89" x="1395" y="1664.2168">:Repositories</text><rect fill="#E3E3E3" height="46.9766" rx="2.5" ry="2.5" style="stroke:#181818;stroke-width:0.5;" width="192" x="1501" y="33.5117"/><text fill="#000000" font-family="sans-serif" font-size="14" lengthAdjust="spacing" textLength="81" x="1556.5" y="54.0469">AuthFacade</text><text fill="#000000" font-family="sans-serif" font-size="14" lengthAdjust="spacing" textLength="178" x="1508" y="70.5352">:AuthenticationRepository</text><rect fill="#E3E3E3" height="46.9766" rx="2.5" ry="2.5" style="stroke:#181818;stroke-width:0.5;" width="192" x="1501" y="1627.1934"/><text fill="#000000" font-family="sans-serif" font-size="14" lengthAdjust="spacing" textLength="81" x="1556.5" y="1647.7285">AuthFacade</text><text fill="#000000" font-family="sans-serif" font-size="14" lengthAdjust="spacing" textLength="178" x="1508" y="1664.2168">:AuthenticationRepository</text><rect fill="#E3E3E3" height="46.9766" rx="2.5" ry="2.5" style="stroke:#181818;stroke-width:0.5;" width="101" x="1744.5" y="33.5117"/><text fill="#000000" font-family="sans-serif" font-size="14" lengthAdjust="spacing" textLength="82" x="1754" y="54.0469">userSession</text><text fill="#000000" font-family="sans-serif" font-size="14" lengthAdjust="spacing" textLength="87" x="1751.5" y="70.5352">:UserSession</text><rect fill="#E3E3E3" height="46.9766" rx="2.5" ry="2.5" style="stroke:#181818;stroke-width:0.5;" width="101" x="1744.5" y="1627.1934"/><text fill="#000000" font-family="sans-serif" font-size="14" lengthAdjust="spacing" textLength="82" x="1754" y="1647.7285">userSession</text><text fill="#000000" font-family="sans-serif" font-size="14" lengthAdjust="spacing" textLength="87" x="1751.5" y="1664.2168">:UserSession</text><rect fill="#E3E3E3" height="46.9766" rx="2.5" ry="2.5" style="stroke:#181818;stroke-width:0.5;" width="157" x="1855.5" y="33.5117"/><text fill="#000000" font-family="sans-serif" font-size="14" lengthAdjust="spacing" textLength="139" x="1864.5" y="54.0469">EmployeeRepository</text><text fill="#000000" font-family="sans-serif" font-size="14" lengthAdjust="spacing" textLength="143" x="1862.5" y="70.5352">:EmployeeRepository</text><rect fill="#E3E3E3" height="46.9766" rx="2.5" ry="2.5" style="stroke:#181818;stroke-width:0.5;" width="157" x="1855.5" y="1627.1934"/><text fill="#000000" font-family="sans-serif" font-size="14" lengthAdjust="spacing" textLength="139" x="1864.5" y="1647.7285">EmployeeRepository</text><text fill="#000000" font-family="sans-serif" font-size="14" lengthAdjust="spacing" textLength="143" x="1862.5" y="1664.2168">:EmployeeRepository</text><rect fill="#E3E3E3" height="46.9766" rx="2.5" ry="2.5" style="stroke:#181818;stroke-width:0.5;" width="84" x="2071" y="33.5117"/><text fill="#000000" font-family="sans-serif" font-size="14" lengthAdjust="spacing" textLength="66" x="2080" y="54.0469">Employee</text><text fill="#000000" font-family="sans-serif" font-size="14" lengthAdjust="spacing" textLength="70" x="2078" y="70.5352">:Employee</text><rect fill="#E3E3E3" height="46.9766" rx="2.5" ry="2.5" style="stroke:#181818;stroke-width:0.5;" width="84" x="2071" y="1627.1934"/><text fill="#000000" font-family="sans-serif" font-size="14" lengthAdjust="spacing" textLength="66" x="2080" y="1647.7285">Employee</text><text fill="#000000" font-family="sans-serif" font-size="14" lengthAdjust="spacing" textLength="70" x="2078" y="1664.2168">:Employee</text><rect fill="#E3E3E3" height="46.9766" rx="2.5" ry="2.5" style="stroke:#181818;stroke-width:0.5;" width="181" x="2185.5" y="33.5117"/><text fill="#000000" font-family="sans-serif" font-size="14" lengthAdjust="spacing" textLength="163" x="2194.5" y="54.0469">OrganizationRepository</text><text fill="#000000" font-family="sans-serif" font-size="14" lengthAdjust="spacing" textLength="167" x="2192.5" y="70.5352">:OrganizationRepository</text><rect fill="#E3E3E3" height="46.9766" rx="2.5" ry="2.5" style="stroke:#181818;stroke-width:0.5;" width="181" x="2185.5" y="1627.1934"/><text fill="#000000" font-family="sans-serif" font-size="14" lengthAdjust="spacing" textLength="163" x="2194.5" y="1647.7285">OrganizationRepository</text><text fill="#000000" font-family="sans-serif" font-size="14" lengthAdjust="spacing" textLength="167" x="2192.5" y="1664.2168">:OrganizationRepository</text><rect fill="#E3E3E3" height="46.9766" rx="2.5" ry="2.5" style="stroke:#181818;stroke-width:0.5;" width="108" x="2401" y="33.5117"/><text fill="#000000" font-family="sans-serif" font-size="14" lengthAdjust="spacing" textLength="90" x="2410" y="54.0469">Organization</text><text fill="#000000" font-family="sans-serif" font-size="14" lengthAdjust="spacing" textLength="94" x="2408" y="70.5352">:Organization</text><rect fill="#E3E3E3" height="46.9766" rx="2.5" ry="2.5" style="stroke:#181818;stroke-width:0.5;" width="108" x="2401" y="1627.1934"/><text fill="#000000" font-family="sans-serif" font-size="14" lengthAdjust="spacing" textLength="90" x="2410" y="1647.7285">Organization</text><text fill="#000000" font-family="sans-serif" font-size="14" lengthAdjust="spacing" textLength="94" x="2408" y="1664.2168">:Organization</text><rect fill="#E3E3E3" height="46.9766" rx="2.5" ry="2.5" style="stroke:#181818;stroke-width:0.5;" width="106" x="2519" y="33.5117"/><text fill="#000000" font-family="sans-serif" font-size="14" lengthAdjust="spacing" textLength="88" x="2528" y="54.0469">GreenSpaces</text><text fill="#000000" font-family="sans-serif" font-size="14" lengthAdjust="spacing" textLength="92" x="2526" y="70.5352">:GreenSpaces</text><rect fill="#E3E3E3" height="46.9766" rx="2.5" ry="2.5" style="stroke:#181818;stroke-width:0.5;" width="106" x="2519" y="1627.1934"/><text fill="#000000" font-family="sans-serif" font-size="14" lengthAdjust="spacing" textLength="88" x="2528" y="1647.7285">GreenSpaces</text><text fill="#000000" font-family="sans-serif" font-size="14" lengthAdjust="spacing" textLength="92" x="2526" y="1664.2168">:GreenSpaces</text><rect fill="#E3E3E3" height="30.4883" rx="2.5" ry="2.5" style="stroke:#181818;stroke-width:0.5;" width="50" x="2635" y="1627.1934"/><text fill="#000000" font-family="sans-serif" font-size="14" lengthAdjust="spacing" textLength="36" x="2642" y="1647.7285">TASK</text><rect fill="#FFFFFF" height="1518.7051" style="stroke:#181818;stroke-width:1.0;" width="10" x="77.5" y="91.4883"/><rect fill="#FFFFFF" height="29.3105" style="stroke:#181818;stroke-width:1.0;" width="10" x="596.5" y="112.7988"/><rect fill="#FFFFFF" height="1447.7734" style="stroke:#181818;stroke-width:1.0;" width="10" x="596.5" y="171.4199"/><rect fill="#FFFFFF" height="404.9043" style="stroke:#181818;stroke-width:1.0;" width="10" x="601.5" y="1214.2891"/><rect fill="#FFFFFF" height="337.2832" style="stroke:#181818;stroke-width:1.0;" width="10" x="606.5" y="1272.9102"/><rect fill="#FFFFFF" height="610.0781" style="stroke:#181818;stroke-width:1.0;" width="10" x="1158.5" y="1009.1152"/><rect fill="#FFFFFF" height="278.6621" style="stroke:#181818;stroke-width:1.0;" width="10" x="1163.5" y="1302.2207"/><rect fill="#FFFFFF" height="29.3105" style="stroke:#181818;stroke-width:1.0;" width="10" x="1321.5" y="272.3516"/><rect fill="#FFFFFF" height="29.3105" style="stroke:#181818;stroke-width:1.0;" width="10" x="1321.5" y="565.457"/><rect fill="#FFFFFF" height="29.3105" style="stroke:#181818;stroke-width:1.0;" width="10" x="1434.5" y="330.9727"/><rect fill="#FFFFFF" height="29.3105" style="stroke:#181818;stroke-width:1.0;" width="10" x="1434.5" y="624.0781"/><rect fill="#FFFFFF" height="29.3105" style="stroke:#181818;stroke-width:1.0;" width="10" x="1434.5" y="831.252"/><rect fill="#FFFFFF" height="146.5527" style="stroke:#181818;stroke-width:1.0;" width="10" x="1592" y="389.5938"/><rect fill="#FFFFFF" height="87.9316" style="stroke:#181818;stroke-width:1.0;" width="10" x="1790" y="418.9043"/><rect fill="#FFFFFF" height="119.2422" style="stroke:#181818;stroke-width:1.0;" width="10" x="1929" y="889.873"/><rect fill="#FFFFFF" height="29.3105" style="stroke:#181818;stroke-width:1.0;" width="10" x="2108" y="943.4941"/><rect fill="#FFFFFF" height="87.9316" style="stroke:#181818;stroke-width:1.0;" width="10" x="2108" y="1038.4258"/><rect fill="#FFFFFF" height="220.041" style="stroke:#181818;stroke-width:1.0;" width="10" x="2108" y="1331.5313"/><rect fill="#FFFFFF" height="119.2422" style="stroke:#181818;stroke-width:1.0;" width="10" x="2271" y="682.6992"/><rect fill="#FFFFFF" height="29.3105" style="stroke:#181818;stroke-width:1.0;" width="10" x="2450" y="736.3203"/><rect fill="#FFFFFF" height="29.3105" style="stroke:#181818;stroke-width:1.0;" width="10" x="2567" y="1067.7363"/><rect fill="#FFFFFF" height="66.7988" style="stroke:#181818;stroke-width:1.0;" width="10" x="2655" y="1370.8418"/><polygon fill="#181818" points="584.5,108.7988,594.5,112.7988,584.5,116.7988,588.5,112.7988" style="stroke:#181818;stroke-width:1.0;"/><line style="stroke:#181818;stroke-width:1.0;" x1="87.5" x2="590.5" y1="112.7988" y2="112.7988"/><text fill="#000000" font-family="sans-serif" font-size="13" font-weight="bold" lengthAdjust="spacing" textLength="9" x="94.5" y="108.0566">1</text><text fill="#000000" font-family="sans-serif" font-size="13" lengthAdjust="spacing" textLength="247" x="107.5" y="108.0566">requests to add a new To-Do List entry</text><polygon fill="#181818" points="98.5,138.1094,88.5,142.1094,98.5,146.1094,94.5,142.1094" style="stroke:#181818;stroke-width:1.0;"/><line style="stroke:#181818;stroke-width:1.0;stroke-dasharray:2.0,2.0;" x1="92.5" x2="600.5" y1="142.1094" y2="142.1094"/><text fill="#000000" font-family="sans-serif" font-size="13" font-weight="bold" lengthAdjust="spacing" textLength="9" x="104.5" y="137.3672">2</text><text fill="#000000" font-family="sans-serif" font-size="13" lengthAdjust="spacing" textLength="330" x="117.5" y="137.3672">requests data (Title, Description, Expected Duration)</text><polygon fill="#181818" points="584.5,167.4199,594.5,171.4199,584.5,175.4199,588.5,171.4199" style="stroke:#181818;stroke-width:1.0;"/><line style="stroke:#181818;stroke-width:1.0;" x1="87.5" x2="590.5" y1="171.4199" y2="171.4199"/><text fill="#000000" font-family="sans-serif" font-size="13" font-weight="bold" lengthAdjust="spacing" textLength="9" x="94.5" y="166.6777">3</text><text fill="#000000" font-family="sans-serif" font-size="13" lengthAdjust="spacing" textLength="376" x="107.5" y="166.6777">types requested data (Title, Description, Expected Duration)</text><polygon fill="#181818" points="1151.5,196.7305,1161.5,200.7305,1151.5,204.7305,1155.5,200.7305" style="stroke:#181818;stroke-width:1.0;"/><line style="stroke:#181818;stroke-width:1.0;" x1="606.5" x2="1157.5" y1="200.7305" y2="200.7305"/><text fill="#000000" font-family="sans-serif" font-size="13" font-weight="bold" lengthAdjust="spacing" textLength="9" x="613.5" y="195.9883">4</text><text fill="#000000" font-family="sans-serif" font-size="13" lengthAdjust="spacing" textLength="164" x="626.5" y="195.9883">getAvailableGreenSpaces()</text><line style="stroke:#181818;stroke-width:1.0;" x1="1163.5" x2="1205.5" y1="230.041" y2="230.041"/><line style="stroke:#181818;stroke-width:1.0;" x1="1205.5" x2="1205.5" y1="230.041" y2="243.041"/><line style="stroke:#181818;stroke-width:1.0;" x1="1164.5" x2="1205.5" y1="243.041" y2="243.041"/><polygon fill="#181818" points="1174.5,239.041,1164.5,243.041,1174.5,247.041,1170.5,243.041" style="stroke:#181818;stroke-width:1.0;"/><text fill="#000000" font-family="sans-serif" font-size="13" font-weight="bold" lengthAdjust="spacing" textLength="9" x="1170.5" y="225.2988">5</text><text fill="#000000" font-family="sans-serif" font-size="13" lengthAdjust="spacing" textLength="136" x="1183.5" y="225.2988">getUserFromSession()</text><polygon fill="#181818" points="1309.5,268.3516,1319.5,272.3516,1309.5,276.3516,1313.5,272.3516" style="stroke:#181818;stroke-width:1.0;"/><line style="stroke:#181818;stroke-width:1.0;" x1="1163.5" x2="1315.5" y1="272.3516" y2="272.3516"/><text fill="#000000" font-family="sans-serif" font-size="13" font-weight="bold" lengthAdjust="spacing" textLength="9" x="1170.5" y="267.6094">6</text><text fill="#000000" font-family="sans-serif" font-size="13" lengthAdjust="spacing" textLength="81" x="1183.5" y="267.6094">getInstance()</text><polygon fill="#181818" points="1174.5,297.6621,1164.5,301.6621,1174.5,305.6621,1170.5,301.6621" style="stroke:#181818;stroke-width:1.0;"/><line style="stroke:#181818;stroke-width:1.0;stroke-dasharray:2.0,2.0;" x1="1168.5" x2="1325.5" y1="301.6621" y2="301.6621"/><text fill="#000000" font-family="sans-serif" font-size="13" font-weight="bold" lengthAdjust="spacing" textLength="9" x="1180.5" y="296.9199">7</text><text fill="#000000" font-family="sans-serif" font-size="13" lengthAdjust="spacing" textLength="78" x="1193.5" y="296.9199">Repositories</text><polygon fill="#181818" points="1422.5,326.9727,1432.5,330.9727,1422.5,334.9727,1426.5,330.9727" style="stroke:#181818;stroke-width:1.0;"/><line style="stroke:#181818;stroke-width:1.0;" x1="1163.5" x2="1428.5" y1="330.9727" y2="330.9727"/><text fill="#000000" font-family="sans-serif" font-size="13" font-weight="bold" lengthAdjust="spacing" textLength="9" x="1170.5" y="326.2305">8</text><text fill="#000000" font-family="sans-serif" font-size="13" lengthAdjust="spacing" textLength="188" x="1183.5" y="326.2305">getAuthenticationRepository()</text><polygon fill="#181818" points="1174.5,356.2832,1164.5,360.2832,1174.5,364.2832,1170.5,360.2832" style="stroke:#181818;stroke-width:1.0;"/><line style="stroke:#181818;stroke-width:1.0;stroke-dasharray:2.0,2.0;" x1="1168.5" x2="1438.5" y1="360.2832" y2="360.2832"/><text fill="#000000" font-family="sans-serif" font-size="13" font-weight="bold" lengthAdjust="spacing" textLength="9" x="1180.5" y="355.541">9</text><text fill="#000000" font-family="sans-serif" font-size="13" lengthAdjust="spacing" textLength="168" x="1193.5" y="355.541">AuthenticationRepository()</text><polygon fill="#181818" points="1580,385.5938,1590,389.5938,1580,393.5938,1584,389.5938" style="stroke:#181818;stroke-width:1.0;"/><line style="stroke:#181818;stroke-width:1.0;" x1="1163.5" x2="1586" y1="389.5938" y2="389.5938"/><text fill="#000000" font-family="sans-serif" font-size="13" font-weight="bold" lengthAdjust="spacing" textLength="18" x="1170.5" y="384.8516">10</text><text fill="#000000" font-family="sans-serif" font-size="13" lengthAdjust="spacing" textLength="151" x="1192.5" y="384.8516">getCurrentUserSession()</text><polygon fill="#181818" points="1778,414.9043,1788,418.9043,1778,422.9043,1782,418.9043" style="stroke:#181818;stroke-width:1.0;"/><line style="stroke:#181818;stroke-width:1.0;" x1="1602" x2="1784" y1="418.9043" y2="418.9043"/><text fill="#000000" font-family="sans-serif" font-size="13" font-weight="bold" lengthAdjust="spacing" textLength="18" x="1609" y="414.1621">11</text><text fill="#000000" font-family="sans-serif" font-size="13" lengthAdjust="spacing" textLength="147" x="1631" y="414.1621">isLoggedWithRole(GSM)</text><polygon fill="#181818" points="1613,444.2148,1603,448.2148,1613,452.2148,1609,448.2148" style="stroke:#181818;stroke-width:1.0;"/><line style="stroke:#181818;stroke-width:1.0;stroke-dasharray:2.0,2.0;" x1="1607" x2="1789" y1="448.2148" y2="448.2148"/><text fill="#000000" font-family="sans-serif" font-size="13" font-weight="bold" lengthAdjust="spacing" textLength="18" x="1619" y="443.4727">12</text><text fill="#000000" font-family="sans-serif" font-size="13" lengthAdjust="spacing" textLength="77" x="1641" y="443.4727">"True/False"</text><polygon fill="#181818" points="1778,473.5254,1788,477.5254,1778,481.5254,1782,477.5254" style="stroke:#181818;stroke-width:1.0;"/><line style="stroke:#181818;stroke-width:1.0;stroke-dasharray:2.0,2.0;" x1="1602" x2="1784" y1="477.5254" y2="477.5254"/><text fill="#000000" font-family="sans-serif" font-size="13" font-weight="bold" lengthAdjust="spacing" textLength="18" x="1609" y="472.7832">13</text><text fill="#000000" font-family="sans-serif" font-size="13" lengthAdjust="spacing" textLength="102" x="1631" y="472.7832">getUserId(email)</text><polygon fill="#181818" points="1613,502.8359,1603,506.8359,1613,510.8359,1609,506.8359" style="stroke:#181818;stroke-width:1.0;"/><line style="stroke:#181818;stroke-width:1.0;stroke-dasharray:2.0,2.0;" x1="1607" x2="1794" y1="506.8359" y2="506.8359"/><text fill="#000000" font-family="sans-serif" font-size="13" font-weight="bold" lengthAdjust="spacing" textLength="18" x="1619" y="502.0938">14</text><text fill="#000000" font-family="sans-serif" font-size="13" lengthAdjust="spacing" textLength="81" x="1641" y="502.0938">userId(email)</text><polygon fill="#181818" points="1174.5,532.1465,1164.5,536.1465,1174.5,540.1465,1170.5,536.1465" style="stroke:#181818;stroke-width:1.0;"/><line style="stroke:#181818;stroke-width:1.0;stroke-dasharray:2.0,2.0;" x1="1168.5" x2="1596" y1="536.1465" y2="536.1465"/><text fill="#000000" font-family="sans-serif" font-size="13" font-weight="bold" lengthAdjust="spacing" textLength="18" x="1180.5" y="531.4043">15</text><text fill="#000000" font-family="sans-serif" font-size="13" lengthAdjust="spacing" textLength="81" x="1202.5" y="531.4043">userId(email)</text><polygon fill="#181818" points="1309.5,561.457,1319.5,565.457,1309.5,569.457,1313.5,565.457" style="stroke:#181818;stroke-width:1.0;"/><line style="stroke:#181818;stroke-width:1.0;" x1="1163.5" x2="1315.5" y1="565.457" y2="565.457"/><text fill="#000000" font-family="sans-serif" font-size="13" font-weight="bold" lengthAdjust="spacing" textLength="18" x="1170.5" y="560.7148">16</text><text fill="#000000" font-family="sans-serif" font-size="13" lengthAdjust="spacing" textLength="81" x="1192.5" y="560.7148">getInstance()</text><polygon fill="#181818" points="1174.5,590.7676,1164.5,594.7676,1174.5,598.7676,1170.5,594.7676" style="stroke:#181818;stroke-width:1.0;"/><line style="stroke:#181818;stroke-width:1.0;stroke-dasharray:2.0,2.0;" x1="1168.5" x2="1325.5" y1="594.7676" y2="594.7676"/><text fill="#000000" font-family="sans-serif" font-size="13" font-weight="bold" lengthAdjust="spacing" textLength="18" x="1180.5" y="590.0254">17</text><text fill="#000000" font-family="sans-serif" font-size="13" lengthAdjust="spacing" textLength="78" x="1202.5" y="590.0254">Repositories</text><polygon fill="#181818" points="1422.5,620.0781,1432.5,624.0781,1422.5,628.0781,1426.5,624.0781" style="stroke:#181818;stroke-width:1.0;"/><line style="stroke:#181818;stroke-width:1.0;" x1="1163.5" x2="1428.5" y1="624.0781" y2="624.0781"/><text fill="#000000" font-family="sans-serif" font-size="13" font-weight="bold" lengthAdjust="spacing" textLength="18" x="1170.5" y="619.3359">18</text><text fill="#000000" font-family="sans-serif" font-size="13" lengthAdjust="spacing" textLength="176" x="1192.5" y="619.3359">getOrganizationRepository()</text><polygon fill="#181818" points="1174.5,649.3887,1164.5,653.3887,1174.5,657.3887,1170.5,653.3887" style="stroke:#181818;stroke-width:1.0;"/><line style="stroke:#181818;stroke-width:1.0;stroke-dasharray:2.0,2.0;" x1="1168.5" x2="1438.5" y1="653.3887" y2="653.3887"/><text fill="#000000" font-family="sans-serif" font-size="13" font-weight="bold" lengthAdjust="spacing" textLength="18" x="1180.5" y="648.6465">19</text><text fill="#000000" font-family="sans-serif" font-size="13" lengthAdjust="spacing" textLength="156" x="1202.5" y="648.6465">OrganizationRepository()</text><polygon fill="#181818" points="2259,678.6992,2269,682.6992,2259,686.6992,2263,682.6992" style="stroke:#181818;stroke-width:1.0;"/><line style="stroke:#181818;stroke-width:1.0;" x1="1163.5" x2="2265" y1="682.6992" y2="682.6992"/><text fill="#000000" font-family="sans-serif" font-size="13" font-weight="bold" lengthAdjust="spacing" textLength="18" x="1170.5" y="677.957">20</text><text fill="#000000" font-family="sans-serif" font-size="13" lengthAdjust="spacing" textLength="199" x="1192.5" y="677.957">getOrganizationByUserID(email)</text><path d="M2175.5,697.6992 L2249.5,697.6992 L2249.5,705.0098 L2239.5,715.0098 L2175.5,715.0098 L2175.5,697.6992 " fill="#EEEEEE" style="stroke:#000000;stroke-width:1.5;"/><rect fill="none" height="75.9316" style="stroke:#000000;stroke-width:1.5;" width="343.5" x="2175.5" y="697.6992"/><text fill="#000000" font-family="sans-serif" font-size="13" font-weight="bold" lengthAdjust="spacing" textLength="29" x="2190.5" y="711.2676">loop</text><polygon fill="#181818" points="2438,732.3203,2448,736.3203,2438,740.3203,2442,736.3203" style="stroke:#181818;stroke-width:1.0;"/><line style="stroke:#181818;stroke-width:1.0;" x1="2281" x2="2444" y1="736.3203" y2="736.3203"/><text fill="#000000" font-family="sans-serif" font-size="13" font-weight="bold" lengthAdjust="spacing" textLength="18" x="2288" y="731.5781">21</text><text fill="#000000" font-family="sans-serif" font-size="13" lengthAdjust="spacing" textLength="128" x="2310" y="731.5781">anyUserHasId(email)</text><polygon fill="#181818" points="2292,761.6309,2282,765.6309,2292,769.6309,2288,765.6309" style="stroke:#181818;stroke-width:1.0;"/><line style="stroke:#181818;stroke-width:1.0;stroke-dasharray:2.0,2.0;" x1="2286" x2="2454" y1="765.6309" y2="765.6309"/><text fill="#000000" font-family="sans-serif" font-size="13" font-weight="bold" lengthAdjust="spacing" textLength="18" x="2298" y="760.8887">22</text><text fill="#000000" font-family="sans-serif" font-size="13" lengthAdjust="spacing" textLength="67" x="2320" y="760.8887">True/False</text><polygon fill="#181818" points="1174.5,797.9414,1164.5,801.9414,1174.5,805.9414,1170.5,801.9414" style="stroke:#181818;stroke-width:1.0;"/><line style="stroke:#181818;stroke-width:1.0;stroke-dasharray:2.0,2.0;" x1="1168.5" x2="2275" y1="801.9414" y2="801.9414"/><text fill="#000000" font-family="sans-serif" font-size="13" font-weight="bold" lengthAdjust="spacing" textLength="18" x="1180.5" y="797.1992">23</text><text fill="#000000" font-family="sans-serif" font-size="13" lengthAdjust="spacing" textLength="79" x="1202.5" y="797.1992">organization</text><polygon fill="#181818" points="1422.5,827.252,1432.5,831.252,1422.5,835.252,1426.5,831.252" style="stroke:#181818;stroke-width:1.0;"/><line style="stroke:#181818;stroke-width:1.0;" x1="1163.5" x2="1428.5" y1="831.252" y2="831.252"/><text fill="#000000" font-family="sans-serif" font-size="13" font-weight="bold" lengthAdjust="spacing" textLength="18" x="1170.5" y="826.5098">24</text><text fill="#000000" font-family="sans-serif" font-size="13" lengthAdjust="spacing" textLength="155" x="1192.5" y="826.5098">getEmployeeRepository()</text><polygon fill="#181818" points="1174.5,856.5625,1164.5,860.5625,1174.5,864.5625,1170.5,860.5625" style="stroke:#181818;stroke-width:1.0;"/><line style="stroke:#181818;stroke-width:1.0;stroke-dasharray:2.0,2.0;" x1="1168.5" x2="1438.5" y1="860.5625" y2="860.5625"/><text fill="#000000" font-family="sans-serif" font-size="13" font-weight="bold" lengthAdjust="spacing" textLength="18" x="1180.5" y="855.8203">25</text><text fill="#000000" font-family="sans-serif" font-size="13" lengthAdjust="spacing" textLength="135" x="1202.5" y="855.8203">EmployeeRepository()</text><polygon fill="#181818" points="1917,885.873,1927,889.873,1917,893.873,1921,889.873" style="stroke:#181818;stroke-width:1.0;"/><line style="stroke:#181818;stroke-width:1.0;" x1="1163.5" x2="1923" y1="889.873" y2="889.873"/><text fill="#000000" font-family="sans-serif" font-size="13" font-weight="bold" lengthAdjust="spacing" textLength="18" x="1170.5" y="885.1309">26</text><text fill="#000000" font-family="sans-serif" font-size="13" lengthAdjust="spacing" textLength="178" x="1192.5" y="885.1309">getEmployeeByUserID(email)</text><path d="M1845.5,904.873 L1919.5,904.873 L1919.5,912.1836 L1909.5,922.1836 L1845.5,922.1836 L1845.5,904.873 " fill="#EEEEEE" style="stroke:#000000;stroke-width:1.5;"/><rect fill="none" height="75.9316" style="stroke:#000000;stroke-width:1.5;" width="319.5" x="1845.5" y="904.873"/><text fill="#000000" font-family="sans-serif" font-size="13" font-weight="bold" lengthAdjust="spacing" textLength="29" x="1860.5" y="918.4414">loop</text><polygon fill="#181818" points="2096,939.4941,2106,943.4941,2096,947.4941,2100,943.4941" style="stroke:#181818;stroke-width:1.0;"/><line style="stroke:#181818;stroke-width:1.0;" x1="1939" x2="2102" y1="943.4941" y2="943.4941"/><text fill="#000000" font-family="sans-serif" font-size="13" font-weight="bold" lengthAdjust="spacing" textLength="18" x="1946" y="938.752">27</text><text fill="#000000" font-family="sans-serif" font-size="13" lengthAdjust="spacing" textLength="128" x="1968" y="938.752">anyUserHasId(email)</text><polygon fill="#181818" points="1950,968.8047,1940,972.8047,1950,976.8047,1946,972.8047" style="stroke:#181818;stroke-width:1.0;"/><line style="stroke:#181818;stroke-width:1.0;stroke-dasharray:2.0,2.0;" x1="1944" x2="2112" y1="972.8047" y2="972.8047"/><text fill="#000000" font-family="sans-serif" font-size="13" font-weight="bold" lengthAdjust="spacing" textLength="18" x="1956" y="968.0625">28</text><text fill="#000000" font-family="sans-serif" font-size="13" lengthAdjust="spacing" textLength="67" x="1978" y="968.0625">True/False</text><polygon fill="#181818" points="1179.5,1005.1152,1169.5,1009.1152,1179.5,1013.1152,1175.5,1009.1152" style="stroke:#181818;stroke-width:1.0;"/><line style="stroke:#181818;stroke-width:1.0;stroke-dasharray:2.0,2.0;" x1="1173.5" x2="1933" y1="1009.1152" y2="1009.1152"/><text fill="#000000" font-family="sans-serif" font-size="13" font-weight="bold" lengthAdjust="spacing" textLength="18" x="1185.5" y="1004.373">29</text><text fill="#000000" font-family="sans-serif" font-size="13" lengthAdjust="spacing" textLength="60" x="1207.5" y="1004.373">employee</text><polygon fill="#181818" points="2096,1034.4258,2106,1038.4258,2096,1042.4258,2100,1038.4258" style="stroke:#181818;stroke-width:1.0;"/><line style="stroke:#181818;stroke-width:1.0;" x1="1168.5" x2="2102" y1="1038.4258" y2="1038.4258"/><text fill="#000000" font-family="sans-serif" font-size="13" font-weight="bold" lengthAdjust="spacing" textLength="18" x="1175.5" y="1033.6836">30</text><text fill="#000000" font-family="sans-serif" font-size="13" lengthAdjust="spacing" textLength="195" x="1197.5" y="1033.6836">getGreenSpacesManagedByMe()</text><polygon fill="#181818" points="2555,1063.7363,2565,1067.7363,2555,1071.7363,2559,1067.7363" style="stroke:#181818;stroke-width:1.0;"/><line style="stroke:#181818;stroke-width:1.0;" x1="2118" x2="2561" y1="1067.7363" y2="1067.7363"/><text fill="#000000" font-family="sans-serif" font-size="13" font-weight="bold" lengthAdjust="spacing" textLength="18" x="2125" y="1062.9941">31</text><text fill="#000000" font-family="sans-serif" font-size="13" lengthAdjust="spacing" textLength="195" x="2147" y="1062.9941">getGreenSpacesManagedByMe()</text><polygon fill="#181818" points="2129,1093.0469,2119,1097.0469,2129,1101.0469,2125,1097.0469" style="stroke:#181818;stroke-width:1.0;"/><line style="stroke:#181818;stroke-width:1.0;stroke-dasharray:2.0,2.0;" x1="2123" x2="2571" y1="1097.0469" y2="1097.0469"/><text fill="#000000" font-family="sans-serif" font-size="13" font-weight="bold" lengthAdjust="spacing" textLength="18" x="2135" y="1092.3047">32</text><text fill="#000000" font-family="sans-serif" font-size="13" lengthAdjust="spacing" textLength="119" x="2157" y="1092.3047">List &lt;GreenSpace&gt;</text><polygon fill="#181818" points="1179.5,1122.3574,1169.5,1126.3574,1179.5,1130.3574,1175.5,1126.3574" style="stroke:#181818;stroke-width:1.0;"/><line style="stroke:#181818;stroke-width:1.0;" x1="1173.5" x2="2112" y1="1126.3574" y2="1126.3574"/><text fill="#000000" font-family="sans-serif" font-size="13" font-weight="bold" lengthAdjust="spacing" textLength="18" x="1185.5" y="1121.6152">33</text><text fill="#000000" font-family="sans-serif" font-size="13" lengthAdjust="spacing" textLength="119" x="1207.5" y="1121.6152">List &lt;GreenSpace&gt;</text><polygon fill="#181818" points="617.5,1151.668,607.5,1155.668,617.5,1159.668,613.5,1155.668" style="stroke:#181818;stroke-width:1.0;"/><line style="stroke:#181818;stroke-width:1.0;stroke-dasharray:2.0,2.0;" x1="611.5" x2="1157.5" y1="1155.668" y2="1155.668"/><text fill="#000000" font-family="sans-serif" font-size="13" font-weight="bold" lengthAdjust="spacing" textLength="18" x="623.5" y="1150.9258">34</text><text fill="#000000" font-family="sans-serif" font-size="13" lengthAdjust="spacing" textLength="119" x="645.5" y="1150.9258">List &lt;GreenSpace&gt;</text><polygon fill="#181818" points="98.5,1180.9785,88.5,1184.9785,98.5,1188.9785,94.5,1184.9785" style="stroke:#181818;stroke-width:1.0;"/><line style="stroke:#181818;stroke-width:1.0;stroke-dasharray:2.0,2.0;" x1="92.5" x2="595.5" y1="1184.9785" y2="1184.9785"/><text fill="#000000" font-family="sans-serif" font-size="13" font-weight="bold" lengthAdjust="spacing" textLength="18" x="104.5" y="1180.2363">35</text><text fill="#000000" font-family="sans-serif" font-size="13" lengthAdjust="spacing" textLength="218" x="126.5" y="1180.2363">Green Spaces managed by the GSM</text><polygon fill="#181818" points="589.5,1210.2891,599.5,1214.2891,589.5,1218.2891,593.5,1214.2891" style="stroke:#181818;stroke-width:1.0;"/><line style="stroke:#181818;stroke-width:1.0;" x1="87.5" x2="595.5" y1="1214.2891" y2="1214.2891"/><text fill="#000000" font-family="sans-serif" font-size="13" font-weight="bold" lengthAdjust="spacing" textLength="18" x="94.5" y="1209.5469">36</text><text fill="#000000" font-family="sans-serif" font-size="13" lengthAdjust="spacing" textLength="463" x="116.5" y="1209.5469">selects a green space (green spaces managed by me) from greenSpaceList</text><polygon fill="#181818" points="98.5,1239.5996,88.5,1243.5996,98.5,1247.5996,94.5,1243.5996" style="stroke:#181818;stroke-width:1.0;"/><line style="stroke:#181818;stroke-width:1.0;" x1="92.5" x2="600.5" y1="1243.5996" y2="1243.5996"/><text fill="#000000" font-family="sans-serif" font-size="13" font-weight="bold" lengthAdjust="spacing" textLength="18" x="104.5" y="1238.8574">37</text><text fill="#000000" font-family="sans-serif" font-size="13" lengthAdjust="spacing" textLength="284" x="126.5" y="1238.8574">display urgency options (High, Medium, Low)</text><polygon fill="#181818" points="594.5,1268.9102,604.5,1272.9102,594.5,1276.9102,598.5,1272.9102" style="stroke:#181818;stroke-width:1.0;"/><line style="stroke:#181818;stroke-width:1.0;" x1="87.5" x2="600.5" y1="1272.9102" y2="1272.9102"/><text fill="#000000" font-family="sans-serif" font-size="13" font-weight="bold" lengthAdjust="spacing" textLength="18" x="94.5" y="1268.168">38</text><text fill="#000000" font-family="sans-serif" font-size="13" lengthAdjust="spacing" textLength="143" x="116.5" y="1268.168">selects urgency option</text><polygon fill="#181818" points="1151.5,1298.2207,1161.5,1302.2207,1151.5,1306.2207,1155.5,1302.2207" style="stroke:#181818;stroke-width:1.0;"/><line style="stroke:#181818;stroke-width:1.0;" x1="616.5" x2="1157.5" y1="1302.2207" y2="1302.2207"/><text fill="#000000" font-family="sans-serif" font-size="13" font-weight="bold" lengthAdjust="spacing" textLength="18" x="623.5" y="1297.4785">39</text><text fill="#000000" font-family="sans-serif" font-size="13" lengthAdjust="spacing" textLength="496" x="645.5" y="1297.4785">addNewTask(title, description, selectedGreenSpace, selectedUrgency, duration)</text><polygon fill="#181818" points="2096,1327.5313,2106,1331.5313,2096,1335.5313,2100,1331.5313" style="stroke:#181818;stroke-width:1.0;"/><line style="stroke:#181818;stroke-width:1.0;" x1="1173.5" x2="2102" y1="1331.5313" y2="1331.5313"/><text fill="#000000" font-family="sans-serif" font-size="13" font-weight="bold" lengthAdjust="spacing" textLength="18" x="1180.5" y="1326.7891">40</text><text fill="#000000" font-family="sans-serif" font-size="13" lengthAdjust="spacing" textLength="484" x="1202.5" y="1326.7891">createTask(title, description, selectedGreenSpace, selectedUrgency, duration)</text><polygon fill="#181818" points="2623,1356.8418,2633,1360.8418,2623,1364.8418,2627,1360.8418" style="stroke:#181818;stroke-width:1.0;"/><line style="stroke:#181818;stroke-width:1.0;" x1="2118" x2="2629" y1="1360.8418" y2="1360.8418"/><text fill="#000000" font-family="sans-serif" font-size="13" font-weight="bold" lengthAdjust="spacing" textLength="18" x="2125" y="1356.0996">41</text><text fill="#000000" font-family="sans-serif" font-size="13" lengthAdjust="spacing" textLength="133" x="2147" y="1356.0996">create(Task instance)</text><rect fill="#E3E3E3" height="30.4883" rx="2.5" ry="2.5" style="stroke:#181818;stroke-width:0.5;" width="50" x="2635" y="1339.5313"/><text fill="#000000" font-family="sans-serif" font-size="14" lengthAdjust="spacing" textLength="36" x="2642" y="1360.0664">TASK</text><path d="M2670,1386.0195 L2670,1411.0195 L2920,1411.0195 L2920,1396.0195 L2910,1386.0195 L2670,1386.0195 " fill="#FAFAFA" style="stroke:#181818;stroke-width:0.5;"/><path d="M2910,1386.0195 L2910,1396.0195 L2920,1396.0195 L2910,1386.0195 " fill="#FAFAFA" style="stroke:#181818;stroke-width:0.5;"/><text fill="#000000" font-family="sans-serif" font-size="13" lengthAdjust="spacing" textLength="229" x="2676" y="1403.5879">Task constructor validates task data</text><polygon fill="#181818" points="2129,1433.6406,2119,1437.6406,2129,1441.6406,2125,1437.6406" style="stroke:#181818;stroke-width:1.0;"/><line style="stroke:#181818;stroke-width:1.0;" x1="2123" x2="2659" y1="1437.6406" y2="1437.6406"/><text fill="#000000" font-family="sans-serif" font-size="13" font-weight="bold" lengthAdjust="spacing" textLength="18" x="2135" y="1432.8984">42</text><text fill="#000000" font-family="sans-serif" font-size="13" lengthAdjust="spacing" textLength="87" x="2157" y="1432.8984">Task Instance</text><line style="stroke:#181818;stroke-width:1.0;" x1="2118" x2="2160" y1="1466.9512" y2="1466.9512"/><line style="stroke:#181818;stroke-width:1.0;" x1="2160" x2="2160" y1="1466.9512" y2="1479.9512"/><line style="stroke:#181818;stroke-width:1.0;" x1="2119" x2="2160" y1="1479.9512" y2="1479.9512"/><polygon fill="#181818" points="2129,1475.9512,2119,1479.9512,2129,1483.9512,2125,1479.9512" style="stroke:#181818;stroke-width:1.0;"/><text fill="#000000" font-family="sans-serif" font-size="13" font-weight="bold" lengthAdjust="spacing" textLength="18" x="2125" y="1462.209">43</text><text fill="#000000" font-family="sans-serif" font-size="13" lengthAdjust="spacing" textLength="117" x="2147" y="1462.209">validateTask(Task)</text><line style="stroke:#181818;stroke-width:1.0;" x1="2118" x2="2160" y1="1509.2617" y2="1509.2617"/><line style="stroke:#181818;stroke-width:1.0;" x1="2160" x2="2160" y1="1509.2617" y2="1522.2617"/><line style="stroke:#181818;stroke-width:1.0;" x1="2119" x2="2160" y1="1522.2617" y2="1522.2617"/><polygon fill="#181818" points="2129,1518.2617,2119,1522.2617,2129,1526.2617,2125,1522.2617" style="stroke:#181818;stroke-width:1.0;"/><text fill="#000000" font-family="sans-serif" font-size="13" font-weight="bold" lengthAdjust="spacing" textLength="18" x="2125" y="1504.5195">44</text><text fill="#000000" font-family="sans-serif" font-size="13" lengthAdjust="spacing" textLength="91" x="2147" y="1504.5195">addTask(Task)</text><polygon fill="#181818" points="1184.5,1547.5723,1174.5,1551.5723,1184.5,1555.5723,1180.5,1551.5723" style="stroke:#181818;stroke-width:1.0;"/><line style="stroke:#181818;stroke-width:1.0;stroke-dasharray:2.0,2.0;" x1="1178.5" x2="2112" y1="1551.5723" y2="1551.5723"/><text fill="#000000" font-family="sans-serif" font-size="13" font-weight="bold" lengthAdjust="spacing" textLength="18" x="1190.5" y="1546.8301">45</text><text fill="#000000" font-family="sans-serif" font-size="13" lengthAdjust="spacing" textLength="30" x="1212.5" y="1546.8301">Task</text><polygon fill="#181818" points="627.5,1576.8828,617.5,1580.8828,627.5,1584.8828,623.5,1580.8828" style="stroke:#181818;stroke-width:1.0;"/><line style="stroke:#181818;stroke-width:1.0;stroke-dasharray:2.0,2.0;" x1="621.5" x2="1157.5" y1="1580.8828" y2="1580.8828"/><text fill="#000000" font-family="sans-serif" font-size="13" font-weight="bold" lengthAdjust="spacing" textLength="18" x="633.5" y="1576.1406">46</text><text fill="#000000" font-family="sans-serif" font-size="13" lengthAdjust="spacing" textLength="30" x="655.5" y="1576.1406">Task</text><polygon fill="#181818" points="93.5,1606.1934,83.5,1610.1934,93.5,1614.1934,89.5,1610.1934" style="stroke:#181818;stroke-width:1.0;"/><line style="stroke:#181818;stroke-width:1.0;stroke-dasharray:2.0,2.0;" x1="87.5" x2="600.5" y1="1610.1934" y2="1610.1934"/><text fill="#000000" font-family="sans-serif" font-size="13" font-weight="bold" lengthAdjust="spacing" textLength="18" x="99.5" y="1605.4512">47</text><text fill="#000000" font-family="sans-serif" font-size="13" lengthAdjust="spacing" textLength="160" x="121.5" y="1605.4512">Display success message</text><!--SRC=[tLVBRjiw4DthAmYlx296zq4Hm8sT1wxT1dwWcxjXf8bCH1PrIIgf-lKTadgG4bMxnLrL2yCIPyuCEMT6H_ALvGKLz4HEFEVnKV0J42LAY6IxKj3ubQQmKrK6H42iQ9vche4yqeI_ipmbBpIJ44MqL3mlJyyWy7-ik22JUm6GanrY0TdG7F74X519xdUR254KYrb1SqKcrtk-v6icrU7H61mUHzPlUQu4px8Qw7Q_NVSijr1moJ0y0sbisWVLZkazO9Q-Yt0y_is704_hnTxtM9JgU4TZcW3Qwnl8SP4gnlCkcl5T7FOFszMJxrvA43kG4itH_z3TsRtlLjl8TrYTYenN01qu-WqV6lVLvcaGi35rl1fRt_2hI6dEVlHsWcxX1GFoTNi_2EYQzxmR7z_1CCKGHPV0kQlviZMSOczKWM5FHF32FsH-WsGXrqZH_qgGIXB52KqIGaaExsJFvqjED748baXKngq5GfQP1mWmHnmDvm0bL54otJELmHLPWem5A_G6hiZgUu4D0GbPbiBiQMPW4XWWkncggW3PmAFpR-C7yxunFO3mAQZ56sKPVSx0ER_fpDeQAyzQy-uEMx_cNcFON8r3e7si_sCkSIZ4C9rvVcsMeRuR1FWqduz4SDlGytEEEHGYk0dTmlKPZNJhs2vCymVJhZ4l17IoDf31DEjfOJEzBOL0O6SyZENO31bljS7IzCE9WfXChdcQGlADgUEMPp15TeuWsXaKWjCxh_4cUtnbVBpJqtyI3jt5hldsc4pXX2ITdSCkHutTBXjasHQdEycBa88d-9TsG7YK_p7_BuAxYFtsHJ9CydDbgBCCrR25hTz2xbh6UU4zq5STn8R3M3Gtw0zKXadI3n82D4Hli- -wOc3h74CV2l8a2kNPZMpk74aqZcfeV8u3G-tmn_K_2tLHxQrgyPExgEwrt3bRzpg03VMxTTSwAG1egjDcVbdT-r3zkZTvTdM7-ZYYSKHRSozbeupzLx_TE1wm8m-iAay-LvjcYWqoDHlLwcZxQ-TU0bgpMGcqRSu9enifzgd3kEah9oFrtBWw-mlyTBRERXlHDVJhARvhudoaI7AoMoBF5S7NkfMQzkhBEGaPYZI9GZCr0D9yvKoT6m_j13FoWchBMfjeEhTV2JkhHnCcYunMf1Gfv755k169aamVM7gy8Xj8M7cw8cl-FXlDqVUzG4oYWlu2xtigNwVA2jJ45QWM5vBkNBjd1niBFSBYjIPc59W063WMW4R_P-01fxlGDSFsYzq_7pwqmQSwEc7rkzsV2Zb74847hmX_COwzNZU-CTO7FwVDD_0RpHWgVII3qajQzFVxNuCEK_N0zKrtI2P88pwYm4W89DRkra8qQPcJrZyzzLyxM7l3XpEMxiJILj6v8HWDIT3GrlZhnv7ZOtdZVQejwzQGPOpTXks6FzXlKUz3p9ikc-Wd]--></g></svg>