<?xml version="1.0" encoding="us-ascii" standalone="no"?><svg xmlns="http://www.w3.org/2000/svg" xmlns:xlink="http://www.w3.org/1999/xlink" contentStyleType="text/css" height="469px" preserveAspectRatio="none" style="width:211px;height:469px;background:#FFFFFF;" version="1.1" viewBox="0 0 211 469" width="211px" zoomAndPan="magnify"><defs/><g><!--class Employee--><g id="elem_Employee"><rect codeLine="7" fill="#F1F1F1" height="26.4883" id="Employee" rx="2.5" ry="2.5" style="stroke:#181818;stroke-width:0.5;" width="72" x="46.3478" y="7"/><text fill="#000000" font-family="sans-serif" font-size="14" lengthAdjust="spacing" textLength="66" x="49.3478" y="25.5352">Employee</text></g><!--class GSM--><g id="elem_GSM"><rect codeLine="10" fill="#F1F1F1" height="26.4883" id="GSM" rx="2.5" ry="2.5" style="stroke:#181818;stroke-width:0.5;" width="36" x="9.3478" y="192.98"/><text fill="#000000" font-family="sans-serif" font-size="14" lengthAdjust="spacing" textLength="30" x="12.3478" y="211.5152">GSM</text></g><!--class Tasks--><g id="elem_Tasks"><rect codeLine="13" fill="#F1F1F1" height="67.4648" id="Tasks" rx="2.5" ry="2.5" style="stroke:#181818;stroke-width:0.5;" width="116" x="88.3478" y="172.49"/><text fill="#000000" font-family="sans-serif" font-size="14" lengthAdjust="spacing" textLength="39" x="126.8478" y="191.0252">Tasks</text><line style="stroke:#181818;stroke-width:0.5;" x1="89.3478" x2="203.3478" y1="198.9783" y2="198.9783"/><rect fill="none" height="6" style="stroke:#C82930;stroke-width:1.0;" width="6" x="96.3478" y="209.7224"/><text fill="#000000" font-family="sans-serif" font-size="14" lengthAdjust="spacing" textLength="56" x="108.3478" y="216.5134">toDoList</text><rect fill="none" height="6" style="stroke:#C82930;stroke-width:1.0;" width="6" x="96.3478" y="226.2107"/><text fill="#000000" font-family="sans-serif" font-size="14" lengthAdjust="spacing" textLength="90" x="108.3478" y="233.0017">taskCategory</text></g><!--class GreenSpaces--><g id="elem_GreenSpaces"><rect codeLine="19" fill="#F1F1F1" height="83.9531" id="GreenSpaces" rx="2.5" ry="2.5" style="stroke:#181818;stroke-width:0.5;" width="94" x="39.3478" y="378.96"/><text fill="#000000" font-family="sans-serif" font-size="14" lengthAdjust="spacing" textLength="88" x="42.3478" y="397.4952">GreenSpaces</text><line style="stroke:#181818;stroke-width:0.5;" x1="40.3478" x2="132.3478" y1="405.4483" y2="405.4483"/><rect fill="none" height="6" style="stroke:#C82930;stroke-width:1.0;" width="6" x="47.3478" y="416.1924"/><text fill="#000000" font-family="sans-serif" font-size="14" lengthAdjust="spacing" textLength="29" x="59.3478" y="422.9834">type</text><rect fill="none" height="6" style="stroke:#C82930;stroke-width:1.0;" width="6" x="47.3478" y="432.6807"/><text fill="#000000" font-family="sans-serif" font-size="14" lengthAdjust="spacing" textLength="38" x="59.3478" y="439.4717">name</text><rect fill="none" height="6" style="stroke:#C82930;stroke-width:1.0;" width="6" x="47.3478" y="449.169"/><text fill="#000000" font-family="sans-serif" font-size="14" lengthAdjust="spacing" textLength="54" x="59.3478" y="455.96">address</text></g><!--link GSM to GreenSpaces--><g id="link_GSM_GreenSpaces"><path codeLine="25" d="M29.8678,219.93 C35.6478,249.01 49.3478,317.96 49.3478,317.96 C49.3478,317.96 61.1378,350.45 71.4078,378.75 " fill="none" id="GSM-GreenSpaces" style="stroke:#181818;stroke-width:1.0;"/><text fill="#000000" font-family="sans-serif" font-size="13" lengthAdjust="spacing" textLength="56" x="50.3478" y="314.5284">manages</text><text fill="#000000" font-family="sans-serif" font-size="13" lengthAdjust="spacing" textLength="8" x="21.3405" y="240.1083">1</text><text fill="#000000" font-family="sans-serif" font-size="13" lengthAdjust="spacing" textLength="22" x="45.1114" y="368.1147">1..*</text></g><!--link Employee to GSM--><g id="link_Employee_GSM"><path codeLine="26" d="M78.1078,33.67 C70.9778,54.57 57.3478,94.49 57.3478,94.49 C57.3478,94.49 38.6678,163.44 30.7878,192.52 " fill="none" id="Employee-GSM" style="stroke:#181818;stroke-width:1.0;"/><polygon fill="#000000" points="63.7752,98.3534,58.3763,106.183,64.0095,107.861,63.7752,98.3534" style="stroke:#000000;stroke-width:1.0;"/><text fill="#000000" font-family="sans-serif" font-size="13" lengthAdjust="spacing" textLength="22" x="71.3478" y="108.0584">is a</text><text fill="#000000" font-family="sans-serif" font-size="13" lengthAdjust="spacing" textLength="8" x="67.0693" y="54.012">1</text><text fill="#000000" font-family="sans-serif" font-size="13" lengthAdjust="spacing" textLength="22" x="6" y="182.3266">1..*</text></g><!--link Tasks to GreenSpaces--><g id="link_Tasks_GreenSpaces"><path codeLine="27" d="M137.1077,239.99 C126.5878,277.29 109.3878,338.25 97.9678,378.73 " fill="none" id="Tasks-GreenSpaces" style="stroke:#181818;stroke-width:1.0;"/><polygon fill="#000000" points="123.9902,314.4274,129.2746,306.5201,123.6175,304.9242,123.9902,314.4274" style="stroke:#000000;stroke-width:1.0;"/><text fill="#000000" font-family="sans-serif" font-size="13" lengthAdjust="spacing" textLength="59" x="134.3478" y="314.5284">relates to</text><text fill="#000000" font-family="sans-serif" font-size="13" lengthAdjust="spacing" textLength="22" x="111.2495" y="260.4546">1..*</text><text fill="#000000" font-family="sans-serif" font-size="13" lengthAdjust="spacing" textLength="22" x="76.0704" y="368.0914">1..*</text></g><!--link Employee to Tasks--><g id="link_Employee_Tasks"><path codeLine="28" d="M86.7478,33.89 C96.5478,62.06 120.4378,130.75 134.8178,172.09 " fill="none" id="Employee-Tasks" style="stroke:#181818;stroke-width:1.0;"/><polygon fill="#000000" points="119.9904,107.8678,119.7946,98.3592,114.243,100.2902,119.9904,107.8678" style="stroke:#000000;stroke-width:1.0;"/><text fill="#000000" font-family="sans-serif" font-size="13" lengthAdjust="spacing" textLength="56" x="127.3478" y="108.0584">manages</text><text fill="#000000" font-family="sans-serif" font-size="13" lengthAdjust="spacing" textLength="8" x="78.8903" y="54.0469">1</text><text fill="#000000" font-family="sans-serif" font-size="13" lengthAdjust="spacing" textLength="22" x="108.523" y="161.7518">0..*</text></g><!--SRC=[TOyz3i8m38NtdCBgY5H4LuHO0B7011SmhKKZygVO317YxYGj811YytlszsptkYEm9BtlMFL5j3gsXiQQR904A1BrwIh4YY_Q1OnemMX7aW91y2OLeLHha1asDXYVYE2cxYzlUzX_oYFoXRC1K8FujTzfbY8a-oiKElkOolIBZaJk4B2b9rJs3h13EnROTP6O2rHsLKrLrtNLJAUJwWkVWqM7v_p9-yplsGpFGJCWBDHuvjZv5nV9v8Cvlm7BdypP00mnxyMmX0S0]--></g></svg>