<?xml version="1.0" encoding="us-ascii" standalone="no"?><svg xmlns="http://www.w3.org/2000/svg" xmlns:xlink="http://www.w3.org/1999/xlink" contentStyleType="text/css" height="727px" preserveAspectRatio="none" style="width:1080px;height:727px;background:#FFFFFF;" version="1.1" viewBox="0 0 1080 727" width="1080px" zoomAndPan="magnify"><defs/><g><text fill="#000000" font-family="sans-serif" font-size="14" font-weight="bold" lengthAdjust="spacing" textLength="284" x="397" y="30.1074">System Sequence Diagram (SSD) - US006</text><rect fill="#FFFFFF" height="492.6563" style="stroke:#181818;stroke-width:1.0;" width="10" x="17.5" y="133.2422"/><rect fill="#FFFFFF" height="31.291" style="stroke:#181818;stroke-width:1.0;" width="10" x="298.5" y="156.5332"/><rect fill="#FFFFFF" height="31.291" style="stroke:#181818;stroke-width:1.0;" width="10" x="298.5" y="219.1152"/><rect fill="#FFFFFF" height="344.2012" style="stroke:#181818;stroke-width:1.0;" width="10" x="298.5" y="281.6973"/><rect fill="#FFFFFF" height="281.6191" style="stroke:#181818;stroke-width:1.0;" width="10" x="476.5" y="312.9883"/><rect fill="#FFFFFF" height="31.291" style="stroke:#181818;stroke-width:1.0;" width="10" x="619.5" y="406.8613"/><rect fill="#FFFFFF" height="31.291" style="stroke:#181818;stroke-width:1.0;" width="10" x="765.5" y="469.4434"/><rect fill="#FFFFFF" height="31.291" style="stroke:#181818;stroke-width:1.0;" width="10" x="929" y="532.0254"/><rect fill="#FFFFFF" height="31.291" style="stroke:#181818;stroke-width:1.0;" width="10" x="1037" y="344.2793"/><line style="stroke:#181818;stroke-width:0.5;stroke-dasharray:5.0,5.0;" x1="22" x2="22" y1="123.2422" y2="643.8984"/><line style="stroke:#181818;stroke-width:0.5;stroke-dasharray:5.0,5.0;" x1="303" x2="303" y1="123.2422" y2="643.8984"/><line style="stroke:#181818;stroke-width:0.5;stroke-dasharray:5.0,5.0;" x1="481" x2="481" y1="123.2422" y2="643.8984"/><line style="stroke:#181818;stroke-width:0.5;stroke-dasharray:5.0,5.0;" x1="624" x2="624" y1="123.2422" y2="643.8984"/><line style="stroke:#181818;stroke-width:0.5;stroke-dasharray:5.0,5.0;" x1="770" x2="770" y1="123.2422" y2="643.8984"/><line style="stroke:#181818;stroke-width:0.5;stroke-dasharray:5.0,5.0;" x1="934" x2="934" y1="123.2422" y2="643.8984"/><line style="stroke:#181818;stroke-width:0.5;stroke-dasharray:5.0,5.0;" x1="1042" x2="1042" y1="123.2422" y2="643.8984"/><text fill="#000000" font-family="sans-serif" font-size="14" lengthAdjust="spacing" textLength="29" x="5" y="119.7285">VFM</text><ellipse cx="22.5" cy="53.1211" fill="#E3E3E3" rx="8" ry="8" style="stroke:#181818;stroke-width:0.5;"/><path d="M22.5,61.1211 L22.5,88.1211 M9.5,69.1211 L35.5,69.1211 M22.5,88.1211 L9.5,103.1211 M22.5,88.1211 L35.5,103.1211 " fill="none" style="stroke:#181818;stroke-width:0.5;"/><text fill="#000000" font-family="sans-serif" font-size="14" lengthAdjust="spacing" textLength="29" x="5" y="658.0059">VFM</text><ellipse cx="22.5" cy="670.0195" fill="#E3E3E3" rx="8" ry="8" style="stroke:#181818;stroke-width:0.5;"/><path d="M22.5,678.0195 L22.5,705.0195 M9.5,686.0195 L35.5,686.0195 M22.5,705.0195 L9.5,720.0195 M22.5,705.0195 L35.5,720.0195 " fill="none" style="stroke:#181818;stroke-width:0.5;"/><rect fill="#E3E3E3" height="32.6211" rx="2.5" ry="2.5" style="stroke:#181818;stroke-width:0.5;" width="119" x="244" y="89.6211"/><text fill="#000000" font-family="sans-serif" font-size="14" lengthAdjust="spacing" textLength="105" x="251" y="111.7285">:CreateVehicleUI</text><rect fill="#E3E3E3" height="32.6211" rx="2.5" ry="2.5" style="stroke:#181818;stroke-width:0.5;" width="119" x="244" y="642.8984"/><text fill="#000000" font-family="sans-serif" font-size="14" lengthAdjust="spacing" textLength="105" x="251" y="665.0059">:CreateVehicleUI</text><rect fill="#E3E3E3" height="32.6211" rx="2.5" ry="2.5" style="stroke:#181818;stroke-width:0.5;" width="169" x="397" y="89.6211"/><text fill="#000000" font-family="sans-serif" font-size="14" lengthAdjust="spacing" textLength="155" x="404" y="111.7285">:CreateVehicleController</text><rect fill="#E3E3E3" height="32.6211" rx="2.5" ry="2.5" style="stroke:#181818;stroke-width:0.5;" width="169" x="397" y="642.8984"/><text fill="#000000" font-family="sans-serif" font-size="14" lengthAdjust="spacing" textLength="155" x="404" y="665.0059">:CreateVehicleController</text><rect fill="#E3E3E3" height="32.6211" rx="2.5" ry="2.5" style="stroke:#181818;stroke-width:0.5;" width="97" x="576" y="89.6211"/><text fill="#000000" font-family="sans-serif" font-size="14" lengthAdjust="spacing" textLength="83" x="583" y="111.7285">:Repositories</text><rect fill="#E3E3E3" height="32.6211" rx="2.5" ry="2.5" style="stroke:#181818;stroke-width:0.5;" width="97" x="576" y="642.8984"/><text fill="#000000" font-family="sans-serif" font-size="14" lengthAdjust="spacing" textLength="83" x="583" y="665.0059">:Repositories</text><rect fill="#E3E3E3" height="32.6211" rx="2.5" ry="2.5" style="stroke:#181818;stroke-width:0.5;" width="175" x="683" y="89.6211"/><text fill="#000000" font-family="sans-serif" font-size="14" lengthAdjust="spacing" textLength="161" x="690" y="111.7285">:repositories:Repositories</text><rect fill="#E3E3E3" height="32.6211" rx="2.5" ry="2.5" style="stroke:#181818;stroke-width:0.5;" width="175" x="683" y="642.8984"/><text fill="#000000" font-family="sans-serif" font-size="14" lengthAdjust="spacing" textLength="161" x="690" y="665.0059">:repositories:Repositories</text><rect fill="#E3E3E3" height="32.6211" rx="2.5" ry="2.5" style="stroke:#181818;stroke-width:0.5;" width="132" x="868" y="89.6211"/><text fill="#000000" font-family="sans-serif" font-size="14" lengthAdjust="spacing" textLength="118" x="875" y="111.7285">:VehicleRepository</text><rect fill="#E3E3E3" height="32.6211" rx="2.5" ry="2.5" style="stroke:#181818;stroke-width:0.5;" width="132" x="868" y="642.8984"/><text fill="#000000" font-family="sans-serif" font-size="14" lengthAdjust="spacing" textLength="118" x="875" y="665.0059">:VehicleRepository</text><rect fill="#E3E3E3" height="32.6211" rx="2.5" ry="2.5" style="stroke:#181818;stroke-width:0.5;" width="64" x="1010" y="89.6211"/><text fill="#000000" font-family="sans-serif" font-size="14" lengthAdjust="spacing" textLength="50" x="1017" y="111.7285">:Vehicle</text><rect fill="#E3E3E3" height="32.6211" rx="2.5" ry="2.5" style="stroke:#181818;stroke-width:0.5;" width="64" x="1010" y="642.8984"/><text fill="#000000" font-family="sans-serif" font-size="14" lengthAdjust="spacing" textLength="50" x="1017" y="665.0059">:Vehicle</text><rect fill="#FFFFFF" height="492.6563" style="stroke:#181818;stroke-width:1.0;" width="10" x="17.5" y="133.2422"/><rect fill="#FFFFFF" height="31.291" style="stroke:#181818;stroke-width:1.0;" width="10" x="298.5" y="156.5332"/><rect fill="#FFFFFF" height="31.291" style="stroke:#181818;stroke-width:1.0;" width="10" x="298.5" y="219.1152"/><rect fill="#FFFFFF" height="344.2012" style="stroke:#181818;stroke-width:1.0;" width="10" x="298.5" y="281.6973"/><rect fill="#FFFFFF" height="281.6191" style="stroke:#181818;stroke-width:1.0;" width="10" x="476.5" y="312.9883"/><rect fill="#FFFFFF" height="31.291" style="stroke:#181818;stroke-width:1.0;" width="10" x="619.5" y="406.8613"/><rect fill="#FFFFFF" height="31.291" style="stroke:#181818;stroke-width:1.0;" width="10" x="765.5" y="469.4434"/><rect fill="#FFFFFF" height="31.291" style="stroke:#181818;stroke-width:1.0;" width="10" x="929" y="532.0254"/><rect fill="#FFFFFF" height="31.291" style="stroke:#181818;stroke-width:1.0;" width="10" x="1037" y="344.2793"/><polygon fill="#181818" points="286.5,152.5332,296.5,156.5332,286.5,160.5332,290.5,156.5332" style="stroke:#181818;stroke-width:1.0;"/><line style="stroke:#181818;stroke-width:1.0;" x1="27.5" x2="292.5" y1="156.5332" y2="156.5332"/><text fill="#000000" font-family="sans-serif" font-size="13" font-weight="bold" lengthAdjust="spacing" textLength="7" x="34.5" y="151.2705">1</text><text fill="#000000" font-family="sans-serif" font-size="13" lengthAdjust="spacing" textLength="171" x="45.5" y="151.2705">asks to register a new vehicle</text><polygon fill="#181818" points="38.5,183.8242,28.5,187.8242,38.5,191.8242,34.5,187.8242" style="stroke:#181818;stroke-width:1.0;"/><line style="stroke:#181818;stroke-width:1.0;stroke-dasharray:2.0,2.0;" x1="32.5" x2="302.5" y1="187.8242" y2="187.8242"/><text fill="#000000" font-family="sans-serif" font-size="13" font-weight="bold" lengthAdjust="spacing" textLength="7" x="44.5" y="182.5615">2</text><text fill="#000000" font-family="sans-serif" font-size="13" lengthAdjust="spacing" textLength="79" x="55.5" y="182.5615">requests data</text><polygon fill="#181818" points="286.5,215.1152,296.5,219.1152,286.5,223.1152,290.5,219.1152" style="stroke:#181818;stroke-width:1.0;"/><line style="stroke:#181818;stroke-width:1.0;" x1="27.5" x2="292.5" y1="219.1152" y2="219.1152"/><text fill="#000000" font-family="sans-serif" font-size="13" font-weight="bold" lengthAdjust="spacing" textLength="7" x="34.5" y="213.8525">3</text><text fill="#000000" font-family="sans-serif" font-size="13" lengthAdjust="spacing" textLength="122" x="45.5" y="213.8525">types requested data</text><polygon fill="#181818" points="38.5,246.4063,28.5,250.4063,38.5,254.4063,34.5,250.4063" style="stroke:#181818;stroke-width:1.0;"/><line style="stroke:#181818;stroke-width:1.0;stroke-dasharray:2.0,2.0;" x1="32.5" x2="302.5" y1="250.4063" y2="250.4063"/><text fill="#000000" font-family="sans-serif" font-size="13" font-weight="bold" lengthAdjust="spacing" textLength="7" x="44.5" y="245.1436">4</text><text fill="#000000" font-family="sans-serif" font-size="13" lengthAdjust="spacing" textLength="236" x="55.5" y="245.1436">shows all data and requests confirmation</text><polygon fill="#181818" points="286.5,277.6973,296.5,281.6973,286.5,285.6973,290.5,281.6973" style="stroke:#181818;stroke-width:1.0;"/><line style="stroke:#181818;stroke-width:1.0;" x1="27.5" x2="292.5" y1="281.6973" y2="281.6973"/><text fill="#000000" font-family="sans-serif" font-size="13" font-weight="bold" lengthAdjust="spacing" textLength="7" x="34.5" y="276.4346">5</text><text fill="#000000" font-family="sans-serif" font-size="13" lengthAdjust="spacing" textLength="78" x="45.5" y="276.4346">confirms data</text><polygon fill="#181818" points="464.5,308.9883,474.5,312.9883,464.5,316.9883,468.5,312.9883" style="stroke:#181818;stroke-width:1.0;"/><line style="stroke:#181818;stroke-width:1.0;" x1="308.5" x2="470.5" y1="312.9883" y2="312.9883"/><text fill="#000000" font-family="sans-serif" font-size="13" font-weight="bold" lengthAdjust="spacing" textLength="7" x="315.5" y="307.7256">6</text><text fill="#000000" font-family="sans-serif" font-size="13" lengthAdjust="spacing" textLength="138" x="326.5" y="307.7256">createVehicle(vehicleID)</text><polygon fill="#181818" points="1025,340.2793,1035,344.2793,1025,348.2793,1029,344.2793" style="stroke:#181818;stroke-width:1.0;"/><line style="stroke:#181818;stroke-width:1.0;" x1="486.5" x2="1031" y1="344.2793" y2="344.2793"/><text fill="#000000" font-family="sans-serif" font-size="13" font-weight="bold" lengthAdjust="spacing" textLength="7" x="493.5" y="339.0166">7</text><text fill="#000000" font-family="sans-serif" font-size="13" lengthAdjust="spacing" textLength="70" x="504.5" y="339.0166">new Vehicle</text><polygon fill="#181818" points="497.5,371.5703,487.5,375.5703,497.5,379.5703,493.5,375.5703" style="stroke:#181818;stroke-width:1.0;"/><line style="stroke:#181818;stroke-width:1.0;stroke-dasharray:2.0,2.0;" x1="491.5" x2="1041" y1="375.5703" y2="375.5703"/><text fill="#000000" font-family="sans-serif" font-size="13" font-weight="bold" lengthAdjust="spacing" textLength="7" x="503.5" y="370.3076">8</text><text fill="#000000" font-family="sans-serif" font-size="13" lengthAdjust="spacing" textLength="39" x="514.5" y="370.3076">vehicle</text><polygon fill="#181818" points="607.5,402.8613,617.5,406.8613,607.5,410.8613,611.5,406.8613" style="stroke:#181818;stroke-width:1.0;"/><line style="stroke:#181818;stroke-width:1.0;" x1="486.5" x2="613.5" y1="406.8613" y2="406.8613"/><text fill="#000000" font-family="sans-serif" font-size="13" font-weight="bold" lengthAdjust="spacing" textLength="7" x="493.5" y="401.5986">9</text><text fill="#000000" font-family="sans-serif" font-size="13" lengthAdjust="spacing" textLength="75" x="504.5" y="401.5986">getInstance()</text><polygon fill="#181818" points="497.5,434.1523,487.5,438.1523,497.5,442.1523,493.5,438.1523" style="stroke:#181818;stroke-width:1.0;"/><line style="stroke:#181818;stroke-width:1.0;stroke-dasharray:2.0,2.0;" x1="491.5" x2="623.5" y1="438.1523" y2="438.1523"/><text fill="#000000" font-family="sans-serif" font-size="13" font-weight="bold" lengthAdjust="spacing" textLength="14" x="503.5" y="432.8896">10</text><text fill="#000000" font-family="sans-serif" font-size="13" lengthAdjust="spacing" textLength="72" x="521.5" y="432.8896">Repositories</text><polygon fill="#181818" points="753.5,465.4434,763.5,469.4434,753.5,473.4434,757.5,469.4434" style="stroke:#181818;stroke-width:1.0;"/><line style="stroke:#181818;stroke-width:1.0;" x1="486.5" x2="759.5" y1="469.4434" y2="469.4434"/><text fill="#000000" font-family="sans-serif" font-size="13" font-weight="bold" lengthAdjust="spacing" textLength="14" x="493.5" y="464.1807">11</text><text fill="#000000" font-family="sans-serif" font-size="13" lengthAdjust="spacing" textLength="130" x="511.5" y="464.1807">getVehiclesRepository</text><polygon fill="#181818" points="497.5,496.7344,487.5,500.7344,497.5,504.7344,493.5,500.7344" style="stroke:#181818;stroke-width:1.0;"/><line style="stroke:#181818;stroke-width:1.0;stroke-dasharray:2.0,2.0;" x1="491.5" x2="769.5" y1="500.7344" y2="500.7344"/><text fill="#000000" font-family="sans-serif" font-size="13" font-weight="bold" lengthAdjust="spacing" textLength="14" x="503.5" y="495.4717">12</text><text fill="#000000" font-family="sans-serif" font-size="13" lengthAdjust="spacing" textLength="113" x="521.5" y="495.4717">VehicleRepository()</text><polygon fill="#181818" points="917,528.0254,927,532.0254,917,536.0254,921,532.0254" style="stroke:#181818;stroke-width:1.0;"/><line style="stroke:#181818;stroke-width:1.0;" x1="486.5" x2="923" y1="532.0254" y2="532.0254"/><text fill="#000000" font-family="sans-serif" font-size="13" font-weight="bold" lengthAdjust="spacing" textLength="14" x="493.5" y="526.7627">13</text><text fill="#000000" font-family="sans-serif" font-size="13" lengthAdjust="spacing" textLength="111" x="511.5" y="526.7627">addVehicle(vehicle)</text><polygon fill="#181818" points="497.5,559.3164,487.5,563.3164,497.5,567.3164,493.5,563.3164" style="stroke:#181818;stroke-width:1.0;"/><line style="stroke:#181818;stroke-width:1.0;stroke-dasharray:2.0,2.0;" x1="491.5" x2="933" y1="563.3164" y2="563.3164"/><text fill="#000000" font-family="sans-serif" font-size="13" font-weight="bold" lengthAdjust="spacing" textLength="14" x="503.5" y="558.0537">14</text><text fill="#000000" font-family="sans-serif" font-size="13" lengthAdjust="spacing" textLength="49" x="521.5" y="558.0537">success</text><polygon fill="#181818" points="319.5,590.6074,309.5,594.6074,319.5,598.6074,315.5,594.6074" style="stroke:#181818;stroke-width:1.0;"/><line style="stroke:#181818;stroke-width:1.0;stroke-dasharray:2.0,2.0;" x1="313.5" x2="480.5" y1="594.6074" y2="594.6074"/><text fill="#000000" font-family="sans-serif" font-size="13" font-weight="bold" lengthAdjust="spacing" textLength="14" x="325.5" y="589.3447">15</text><text fill="#000000" font-family="sans-serif" font-size="13" lengthAdjust="spacing" textLength="49" x="343.5" y="589.3447">success</text><polygon fill="#181818" points="33.5,621.8984,23.5,625.8984,33.5,629.8984,29.5,625.8984" style="stroke:#181818;stroke-width:1.0;"/><line style="stroke:#181818;stroke-width:1.0;stroke-dasharray:2.0,2.0;" x1="27.5" x2="302.5" y1="625.8984" y2="625.8984"/><text fill="#000000" font-family="sans-serif" font-size="13" font-weight="bold" lengthAdjust="spacing" textLength="14" x="39.5" y="620.6357">16</text><text fill="#000000" font-family="sans-serif" font-size="13" lengthAdjust="spacing" textLength="158" x="57.5" y="620.6357">displays operation success</text><!--SRC=[xLX1J-iu4BxtLrXSsgAYVQSz82rI7oqy99v02VIoI2kJcDOYjREn2ziLFtx7JfpOYPr4Q9VJzW9jPhxvPZp-nevufIp71TwZFMSysHLyJv0i3cGYwYSvJbxnbiJoc15Ka4HYjiri0x73AN-dR8jUS2R8P88FahF3_faKauca4jpYev1aZsBovu6mXA0LnLlbEelZrHoTeSVusxTVmJ6Hl40dcwkV9mWBj5pzd4mWXgG9pJ6JwEJyiY1OaWtPqIGZZpVQxF6cp-YICrdmB2E5DhvyY6vRvX79kQ0GcHAXRUAePL5O5btpg6rUHQuDZzfi4p0h7wv_t5pUhdK9w1kmBvD7y85_qDa5P8dEmV9L8CbX6ROKAbeWZ1XvHsybKcbV8q1TKFK1vpF0K53du0oh8AH0APPOcwJ4Tkf4bSUS2ED6qiPlC9JOyNU1S9Pf7uHPsaHFE7kXnHvBojaO5fMz60v_eLTPkTYDCAkgTBEQrzOrWcuBywls1fHgKG185Rc2gQqSVxD-gFKn46SDgJSFZfMw3yaGYYFmtn9vmmJimeJCvXC_7UZWDXFmjKZOJHnYuW4nHAAAI5KJqRIwdq_KXOeSFfqjCvk7Q4LXMXj52wTfQyNdWJNh0cqSKkAG94G4wmF-dbKoxTfsjXoTPdFsIqf5dk6ZG3mdXTuP3avhXrXVjLfCffFfT4TJWbuuby_yB_XQIUfTiSMC_br2hlTvne-4r28xzUdd0uXDex114v- -JWS4jbdccAfX0kEYvMChxXFh8jpVBXzQBbAH0L9RW6q2d3-n1-y33UD_rEQ_pFEC9hfsCIm5_D7EVoplxrkcECyh2o0TSEjw9OUY84msde-25BPBl8xZvLtBYrjBwkHxvtsWWVoFUe21ZErJWaJNdjA3fQfcMTPbjBvQgdPq6XI-cwxt3RLIhQkHfY1j1xlnLPlR6oyytT2i82-aK6UE1UmUaHGqLtai4ABiXSFqoT0JSvz8akmOh5lc_fmUoWsvW44av7pYC9XMtClkRtCh1UNqj9v8TcATeGMoQhKbDFoi5SpLaHQKezBTRTQP7ntdHcTzcxHhhxNS4yZeg5eHQzPq_6rb7nVHfASqe5ElepD2mjcL0k9FHmCt_6L097eo2Q4Rwdx2OnRVII8aN_wq0a6jWMTdUWi7pDuSnmTt1sD_aFQOzEoKrkbIuQ6a0aGP8CAELYTDeoiY8t1hGPoH1ikTf5KGMvG4oS09pgukVcdeyHquPKz71VKTjCCIziHg3HiXO4_Cgs1ZKYdhN5O4MDMrjexpvbOmBaznUDvJfpGzD5gdUTLsLaaWBIT9KvALysjTabLFHPITrPkMwTmpXtpTQRQtLycFtst8sN2e_xN-oxJUgu1Vg_MVQeylcmQVcWI-iFKi60moC0a-FZw6Df-vvrmLV5yTfpzzbbA7_V7xgRmQ-F9NJr2zNPhxGc-1IxW-UeRTfNELwELOOVf8QeurIVTwqaiqW5c_lz3tc7D4zfXcw3T5M5rrrkfhBrTp0VBJBPzQZ3L-Bz46i5zpT57zjwQPZl8ldJ5vu68sGdV22VXvTrBwVZGRfLo8mRn2jqX_fXddEVeTfZ82xZidKx-3-lX3wAIYQtLdP3Nf7rZqy-xoLnVOi5r90CAS1MkeXAiua5_A5zv196krT4oV3M6f_q6e18t4zPVI3ZvwmUhMYQuT2LKzCgutmhKr9QtOamgwdxaVhZr5_5YVdI0wUUkqQT0NA70KznyxqRXJ9reuGt1H9nCQLO6QwF9ULEzUJazD1lyr-r7SBNwwk3XDLMMHFkRC_Iesl7Lin3USqTGiM8KwB0A3kpzaDDoYWp334AqDqtubDWnYNRoDU-_-yD-qUrzB-ozyhJVJ_m00]--></g></svg>