<?xml version="1.0" encoding="us-ascii" standalone="no"?><svg xmlns="http://www.w3.org/2000/svg" xmlns:xlink="http://www.w3.org/1999/xlink" contentStyleType="text/css" height="931px" preserveAspectRatio="none" style="width:1238px;height:931px;background:#FFFFFF;" version="1.1" viewBox="0 0 1238 931" width="1238px" zoomAndPan="magnify"><defs/><g><!--class CreateSkillUI--><g id="elem_CreateSkillUI"><rect codeLine="11" fill="#F1F1F1" height="48" id="CreateSkillUI" rx="2.5" ry="2.5" style="stroke:#181818;stroke-width:0.5;" width="112" x="7" y="100"/><ellipse cx="22" cy="116" fill="#ADD1B2" rx="11" ry="11" style="stroke:#181818;stroke-width:1.0;"/><path d="M24.7656,111.875 Q24.9219,111.6563 25.1094,111.5469 Q25.2969,111.4375 25.5156,111.4375 Q25.8906,111.4375 26.125,111.7031 Q26.3594,111.9531 26.3594,112.5625 L26.3594,114.0156 Q26.3594,114.625 26.125,114.8906 Q25.8906,115.1563 25.5156,115.1563 Q25.1719,115.1563 24.9688,114.9531 Q24.7656,114.7656 24.6563,114.25 Q24.6094,113.8906 24.4219,113.7031 Q24.0938,113.3281 23.4844,113.1094 Q22.875,112.8906 22.25,112.8906 Q21.4844,112.8906 20.8438,113.2188 Q20.2188,113.5469 19.7188,114.2969 Q19.2344,115.0469 19.2344,116.0781 L19.2344,117.1719 Q19.2344,118.4063 20.125,119.2344 Q21.0156,120.0469 22.6094,120.0469 Q23.5469,120.0469 24.2031,119.7969 Q24.5938,119.6406 25.0156,119.2031 Q25.2813,118.9375 25.4219,118.8594 Q25.5781,118.7813 25.7813,118.7813 Q26.1094,118.7813 26.3594,119.0469 Q26.625,119.2969 26.625,119.6406 Q26.625,119.9844 26.2813,120.3906 Q25.7813,120.9688 24.9844,121.2969 Q23.9063,121.75 22.6094,121.75 Q21.0938,121.75 19.8906,121.125 Q18.9063,120.625 18.2188,119.5625 Q17.5313,118.4844 17.5313,117.2031 L17.5313,116.0469 Q17.5313,114.7188 18.1406,113.5781 Q18.7656,112.4219 19.8594,111.8125 Q20.9531,111.1875 22.1875,111.1875 Q22.9219,111.1875 23.5625,111.3594 Q24.2188,111.5156 24.7656,111.875 Z " fill="#000000"/><text fill="#000000" font-family="sans-serif" font-size="14" lengthAdjust="spacing" textLength="80" x="36" y="121.7969">CreateSkillUI</text><line style="stroke:#181818;stroke-width:0.5;" x1="8" x2="118" y1="132" y2="132"/><line style="stroke:#181818;stroke-width:0.5;" x1="8" x2="118" y1="140" y2="140"/></g><!--class CreateSkillController--><g id="elem_CreateSkillController"><rect codeLine="14" fill="#F1F1F1" height="141.1055" id="CreateSkillController" rx="2.5" ry="2.5" style="stroke:#181818;stroke-width:0.5;" width="673" x="154.5" y="53.5"/><ellipse cx="421.75" cy="69.5" fill="#ADD1B2" rx="11" ry="11" style="stroke:#181818;stroke-width:1.0;"/><path d="M424.5156,65.375 Q424.6719,65.1563 424.8594,65.0469 Q425.0469,64.9375 425.2656,64.9375 Q425.6406,64.9375 425.875,65.2031 Q426.1094,65.4531 426.1094,66.0625 L426.1094,67.5156 Q426.1094,68.125 425.875,68.3906 Q425.6406,68.6563 425.2656,68.6563 Q424.9219,68.6563 424.7188,68.4531 Q424.5156,68.2656 424.4063,67.75 Q424.3594,67.3906 424.1719,67.2031 Q423.8438,66.8281 423.2344,66.6094 Q422.625,66.3906 422,66.3906 Q421.2344,66.3906 420.5938,66.7188 Q419.9688,67.0469 419.4688,67.7969 Q418.9844,68.5469 418.9844,69.5781 L418.9844,70.6719 Q418.9844,71.9063 419.875,72.7344 Q420.7656,73.5469 422.3594,73.5469 Q423.2969,73.5469 423.9531,73.2969 Q424.3438,73.1406 424.7656,72.7031 Q425.0313,72.4375 425.1719,72.3594 Q425.3281,72.2813 425.5313,72.2813 Q425.8594,72.2813 426.1094,72.5469 Q426.375,72.7969 426.375,73.1406 Q426.375,73.4844 426.0313,73.8906 Q425.5313,74.4688 424.7344,74.7969 Q423.6563,75.25 422.3594,75.25 Q420.8438,75.25 419.6406,74.625 Q418.6563,74.125 417.9688,73.0625 Q417.2813,71.9844 417.2813,70.7031 L417.2813,69.5469 Q417.2813,68.2188 417.8906,67.0781 Q418.5156,65.9219 419.6094,65.3125 Q420.7031,64.6875 421.9375,64.6875 Q422.6719,64.6875 423.3125,64.8594 Q423.9688,65.0156 424.5156,65.375 Z " fill="#000000"/><text fill="#000000" font-family="sans-serif" font-size="14" lengthAdjust="spacing" textLength="130" x="442.25" y="75.2969">CreateSkillController</text><line style="stroke:#181818;stroke-width:0.5;" x1="155.5" x2="826.5" y1="85.5" y2="85.5"/><text fill="#000000" font-family="sans-serif" font-size="14" lengthAdjust="spacing" textLength="193" x="160.5" y="104.6074">-SkillRepository skillRepository</text><text fill="#000000" font-family="sans-serif" font-size="14" lengthAdjust="spacing" textLength="314" x="160.5" y="123.2285">-TeamMemberRepository teamMemberRepository</text><line style="stroke:#181818;stroke-width:0.5;" x1="155.5" x2="826.5" y1="130.7422" y2="130.7422"/><text fill="#000000" font-family="sans-serif" font-size="14" lengthAdjust="spacing" textLength="661" x="160.5" y="149.8496">+CreateSkillController(skillRepository: SkillRepository, teamMemberRepository: TeamMemberRepository)</text><text fill="#000000" font-family="sans-serif" font-size="14" lengthAdjust="spacing" textLength="4" x="160.5" y="168.4707">&#160;</text><text fill="#000000" font-family="sans-serif" font-size="14" lengthAdjust="spacing" textLength="221" x="160.5" y="187.0918">+createSkill(skillName: String): void</text></g><!--class Repositories--><g id="elem_Repositories"><rect codeLine="25" fill="#F1F1F1" height="234.2109" id="Repositories" rx="2.5" ry="2.5" style="stroke:#181818;stroke-width:0.5;" width="368" x="863" y="7"/><ellipse cx="1003.25" cy="23" fill="#ADD1B2" rx="11" ry="11" style="stroke:#181818;stroke-width:1.0;"/><path d="M1006.0156,18.875 Q1006.1719,18.6563 1006.3594,18.5469 Q1006.5469,18.4375 1006.7656,18.4375 Q1007.1406,18.4375 1007.375,18.7031 Q1007.6094,18.9531 1007.6094,19.5625 L1007.6094,21.0156 Q1007.6094,21.625 1007.375,21.8906 Q1007.1406,22.1563 1006.7656,22.1563 Q1006.4219,22.1563 1006.2188,21.9531 Q1006.0156,21.7656 1005.9063,21.25 Q1005.8594,20.8906 1005.6719,20.7031 Q1005.3438,20.3281 1004.7344,20.1094 Q1004.125,19.8906 1003.5,19.8906 Q1002.7344,19.8906 1002.0938,20.2188 Q1001.4688,20.5469 1000.9688,21.2969 Q1000.4844,22.0469 1000.4844,23.0781 L1000.4844,24.1719 Q1000.4844,25.4063 1001.375,26.2344 Q1002.2656,27.0469 1003.8594,27.0469 Q1004.7969,27.0469 1005.4531,26.7969 Q1005.8438,26.6406 1006.2656,26.2031 Q1006.5313,25.9375 1006.6719,25.8594 Q1006.8281,25.7813 1007.0313,25.7813 Q1007.3594,25.7813 1007.6094,26.0469 Q1007.875,26.2969 1007.875,26.6406 Q1007.875,26.9844 1007.5313,27.3906 Q1007.0313,27.9688 1006.2344,28.2969 Q1005.1563,28.75 1003.8594,28.75 Q1002.3438,28.75 1001.1406,28.125 Q1000.1563,27.625 999.4688,26.5625 Q998.7813,25.4844 998.7813,24.2031 L998.7813,23.0469 Q998.7813,21.7188 999.3906,20.5781 Q1000.0156,19.4219 1001.1094,18.8125 Q1002.2031,18.1875 1003.4375,18.1875 Q1004.1719,18.1875 1004.8125,18.3594 Q1005.4688,18.5156 1006.0156,18.875 Z " fill="#000000"/><text fill="#000000" font-family="sans-serif" font-size="14" lengthAdjust="spacing" textLength="79" x="1023.75" y="28.7969">Repositories</text><line style="stroke:#181818;stroke-width:0.5;" x1="864" x2="1230" y1="39" y2="39"/><text fill="#000000" font-family="sans-serif" font-size="14" lengthAdjust="spacing" textLength="178" x="869" y="58.1074">-static Repositories instance</text><text fill="#000000" font-family="sans-serif" font-size="14" lengthAdjust="spacing" textLength="193" x="869" y="76.7285">-SkillRepository skillRepository</text><text fill="#000000" font-family="sans-serif" font-size="14" lengthAdjust="spacing" textLength="314" x="869" y="95.3496">-TeamMemberRepository teamMemberRepository</text><line style="stroke:#181818;stroke-width:0.5;" x1="864" x2="1230" y1="102.8633" y2="102.8633"/><text fill="#000000" font-family="sans-serif" font-size="14" lengthAdjust="spacing" textLength="94" x="869" y="121.9707">-Repositories()</text><text fill="#000000" font-family="sans-serif" font-size="14" lengthAdjust="spacing" textLength="4" x="869" y="140.5918">&#160;</text><text fill="#000000" font-family="sans-serif" font-size="14" lengthAdjust="spacing" textLength="215" x="869" y="159.2129">+static getInstance(): Repositories</text><text fill="#000000" font-family="sans-serif" font-size="14" lengthAdjust="spacing" textLength="4" x="869" y="177.834">&#160;</text><text fill="#000000" font-family="sans-serif" font-size="14" lengthAdjust="spacing" textLength="232" x="869" y="196.4551">+getSkillRepository(): SkillRepository</text><text fill="#000000" font-family="sans-serif" font-size="14" lengthAdjust="spacing" textLength="4" x="869" y="215.0762">&#160;</text><text fill="#000000" font-family="sans-serif" font-size="14" lengthAdjust="spacing" textLength="356" x="869" y="233.6973">+getTeamMemberRepository(): TeamMemberRepository</text></g><!--class SkillRepository--><g id="elem_SkillRepository"><rect codeLine="43" fill="#F1F1F1" height="196.9688" id="SkillRepository" rx="2.5" ry="2.5" style="stroke:#181818;stroke-width:0.5;" width="264" x="470" y="301"/><ellipse cx="551.25" cy="317" fill="#ADD1B2" rx="11" ry="11" style="stroke:#181818;stroke-width:1.0;"/><path d="M554.0156,312.875 Q554.1719,312.6563 554.3594,312.5469 Q554.5469,312.4375 554.7656,312.4375 Q555.1406,312.4375 555.375,312.7031 Q555.6094,312.9531 555.6094,313.5625 L555.6094,315.0156 Q555.6094,315.625 555.375,315.8906 Q555.1406,316.1563 554.7656,316.1563 Q554.4219,316.1563 554.2188,315.9531 Q554.0156,315.7656 553.9063,315.25 Q553.8594,314.8906 553.6719,314.7031 Q553.3438,314.3281 552.7344,314.1094 Q552.125,313.8906 551.5,313.8906 Q550.7344,313.8906 550.0938,314.2188 Q549.4688,314.5469 548.9688,315.2969 Q548.4844,316.0469 548.4844,317.0781 L548.4844,318.1719 Q548.4844,319.4063 549.375,320.2344 Q550.2656,321.0469 551.8594,321.0469 Q552.7969,321.0469 553.4531,320.7969 Q553.8438,320.6406 554.2656,320.2031 Q554.5313,319.9375 554.6719,319.8594 Q554.8281,319.7813 555.0313,319.7813 Q555.3594,319.7813 555.6094,320.0469 Q555.875,320.2969 555.875,320.6406 Q555.875,320.9844 555.5313,321.3906 Q555.0313,321.9688 554.2344,322.2969 Q553.1563,322.75 551.8594,322.75 Q550.3438,322.75 549.1406,322.125 Q548.1563,321.625 547.4688,320.5625 Q546.7813,319.4844 546.7813,318.2031 L546.7813,317.0469 Q546.7813,315.7188 547.3906,314.5781 Q548.0156,313.4219 549.1094,312.8125 Q550.2031,312.1875 551.4375,312.1875 Q552.1719,312.1875 552.8125,312.3594 Q553.4688,312.5156 554.0156,312.875 Z " fill="#000000"/><text fill="#000000" font-family="sans-serif" font-size="14" lengthAdjust="spacing" textLength="93" x="571.75" y="322.7969">SkillRepository</text><line style="stroke:#181818;stroke-width:0.5;" x1="471" x2="733" y1="333" y2="333"/><text fill="#000000" font-family="sans-serif" font-size="14" lengthAdjust="spacing" textLength="102" x="476" y="352.1074">-List&lt;Skill&gt; skills</text><line style="stroke:#181818;stroke-width:0.5;" x1="471" x2="733" y1="359.6211" y2="359.6211"/><text fill="#000000" font-family="sans-serif" font-size="14" lengthAdjust="spacing" textLength="111" x="476" y="378.7285">+SkillRepository()</text><text fill="#000000" font-family="sans-serif" font-size="14" lengthAdjust="spacing" textLength="4" x="476" y="397.3496">&#160;</text><text fill="#000000" font-family="sans-serif" font-size="14" lengthAdjust="spacing" textLength="252" x="476" y="415.9707">+getSkillByName(skillName: String): Skill</text><text fill="#000000" font-family="sans-serif" font-size="14" lengthAdjust="spacing" textLength="4" x="476" y="434.5918">&#160;</text><text fill="#000000" font-family="sans-serif" font-size="14" lengthAdjust="spacing" textLength="220" x="476" y="453.2129">+createSkill(skillName: String): Skill</text><text fill="#000000" font-family="sans-serif" font-size="14" lengthAdjust="spacing" textLength="4" x="476" y="471.834">&#160;</text><text fill="#000000" font-family="sans-serif" font-size="14" lengthAdjust="spacing" textLength="195" x="476" y="490.4551">+deleteSkill(skillId: String): void</text></g><!--class TeamMemberRepository--><g id="elem_TeamMemberRepository"><rect codeLine="59" fill="#F1F1F1" height="196.9688" id="TeamMemberRepository" rx="2.5" ry="2.5" style="stroke:#181818;stroke-width:0.5;" width="332" x="769" y="301"/><ellipse cx="853.25" cy="317" fill="#ADD1B2" rx="11" ry="11" style="stroke:#181818;stroke-width:1.0;"/><path d="M856.0156,312.875 Q856.1719,312.6563 856.3594,312.5469 Q856.5469,312.4375 856.7656,312.4375 Q857.1406,312.4375 857.375,312.7031 Q857.6094,312.9531 857.6094,313.5625 L857.6094,315.0156 Q857.6094,315.625 857.375,315.8906 Q857.1406,316.1563 856.7656,316.1563 Q856.4219,316.1563 856.2188,315.9531 Q856.0156,315.7656 855.9063,315.25 Q855.8594,314.8906 855.6719,314.7031 Q855.3438,314.3281 854.7344,314.1094 Q854.125,313.8906 853.5,313.8906 Q852.7344,313.8906 852.0938,314.2188 Q851.4688,314.5469 850.9688,315.2969 Q850.4844,316.0469 850.4844,317.0781 L850.4844,318.1719 Q850.4844,319.4063 851.375,320.2344 Q852.2656,321.0469 853.8594,321.0469 Q854.7969,321.0469 855.4531,320.7969 Q855.8438,320.6406 856.2656,320.2031 Q856.5313,319.9375 856.6719,319.8594 Q856.8281,319.7813 857.0313,319.7813 Q857.3594,319.7813 857.6094,320.0469 Q857.875,320.2969 857.875,320.6406 Q857.875,320.9844 857.5313,321.3906 Q857.0313,321.9688 856.2344,322.2969 Q855.1563,322.75 853.8594,322.75 Q852.3438,322.75 851.1406,322.125 Q850.1563,321.625 849.4688,320.5625 Q848.7813,319.4844 848.7813,318.2031 L848.7813,317.0469 Q848.7813,315.7188 849.3906,314.5781 Q850.0156,313.4219 851.1094,312.8125 Q852.2031,312.1875 853.4375,312.1875 Q854.1719,312.1875 854.8125,312.3594 Q855.4688,312.5156 856.0156,312.875 Z " fill="#000000"/><text fill="#000000" font-family="sans-serif" font-size="14" lengthAdjust="spacing" textLength="155" x="873.75" y="322.7969">TeamMemberRepository</text><line style="stroke:#181818;stroke-width:0.5;" x1="770" x2="1100" y1="333" y2="333"/><text fill="#000000" font-family="sans-serif" font-size="14" lengthAdjust="spacing" textLength="223" x="775" y="352.1074">-List&lt;TeamMember&gt; teamMembers</text><line style="stroke:#181818;stroke-width:0.5;" x1="770" x2="1100" y1="359.6211" y2="359.6211"/><text fill="#000000" font-family="sans-serif" font-size="14" lengthAdjust="spacing" textLength="173" x="775" y="378.7285">+TeamMemberRepository()</text><text fill="#000000" font-family="sans-serif" font-size="14" lengthAdjust="spacing" textLength="4" x="775" y="397.3496">&#160;</text><text fill="#000000" font-family="sans-serif" font-size="14" lengthAdjust="spacing" textLength="303" x="775" y="415.9707">+getTeamMemberById(id: String): TeamMember</text><text fill="#000000" font-family="sans-serif" font-size="14" lengthAdjust="spacing" textLength="4" x="775" y="434.5918">&#160;</text><text fill="#000000" font-family="sans-serif" font-size="14" lengthAdjust="spacing" textLength="320" x="775" y="453.2129">+createTeamMember(name: String): TeamMember</text><text fill="#000000" font-family="sans-serif" font-size="14" lengthAdjust="spacing" textLength="4" x="775" y="471.834">&#160;</text><text fill="#000000" font-family="sans-serif" font-size="14" lengthAdjust="spacing" textLength="234" x="775" y="490.4551">+deleteTeamMember(id: String): void</text></g><!--class TeamMember--><g id="elem_TeamMember"><rect codeLine="75" fill="#F1F1F1" height="159.7266" id="TeamMember" rx="2.5" ry="2.5" style="stroke:#181818;stroke-width:0.5;" width="197" x="790.5" y="558"/><ellipse cx="841.25" cy="574" fill="#ADD1B2" rx="11" ry="11" style="stroke:#181818;stroke-width:1.0;"/><path d="M844.0156,569.875 Q844.1719,569.6563 844.3594,569.5469 Q844.5469,569.4375 844.7656,569.4375 Q845.1406,569.4375 845.375,569.7031 Q845.6094,569.9531 845.6094,570.5625 L845.6094,572.0156 Q845.6094,572.625 845.375,572.8906 Q845.1406,573.1563 844.7656,573.1563 Q844.4219,573.1563 844.2188,572.9531 Q844.0156,572.7656 843.9063,572.25 Q843.8594,571.8906 843.6719,571.7031 Q843.3438,571.3281 842.7344,571.1094 Q842.125,570.8906 841.5,570.8906 Q840.7344,570.8906 840.0938,571.2188 Q839.4688,571.5469 838.9688,572.2969 Q838.4844,573.0469 838.4844,574.0781 L838.4844,575.1719 Q838.4844,576.4063 839.375,577.2344 Q840.2656,578.0469 841.8594,578.0469 Q842.7969,578.0469 843.4531,577.7969 Q843.8438,577.6406 844.2656,577.2031 Q844.5313,576.9375 844.6719,576.8594 Q844.8281,576.7813 845.0313,576.7813 Q845.3594,576.7813 845.6094,577.0469 Q845.875,577.2969 845.875,577.6406 Q845.875,577.9844 845.5313,578.3906 Q845.0313,578.9688 844.2344,579.2969 Q843.1563,579.75 841.8594,579.75 Q840.3438,579.75 839.1406,579.125 Q838.1563,578.625 837.4688,577.5625 Q836.7813,576.4844 836.7813,575.2031 L836.7813,574.0469 Q836.7813,572.7188 837.3906,571.5781 Q838.0156,570.4219 839.1094,569.8125 Q840.2031,569.1875 841.4375,569.1875 Q842.1719,569.1875 842.8125,569.3594 Q843.4688,569.5156 844.0156,569.875 Z " fill="#000000"/><text fill="#000000" font-family="sans-serif" font-size="14" lengthAdjust="spacing" textLength="87" x="861.75" y="579.7969">TeamMember</text><line style="stroke:#181818;stroke-width:0.5;" x1="791.5" x2="986.5" y1="590" y2="590"/><text fill="#000000" font-family="sans-serif" font-size="14" lengthAdjust="spacing" textLength="61" x="796.5" y="609.1074">-id: String</text><text fill="#000000" font-family="sans-serif" font-size="14" lengthAdjust="spacing" textLength="85" x="796.5" y="627.7285">-name: String</text><text fill="#000000" font-family="sans-serif" font-size="14" lengthAdjust="spacing" textLength="102" x="796.5" y="646.3496">-List&lt;Skill&gt; skills</text><line style="stroke:#181818;stroke-width:0.5;" x1="791.5" x2="986.5" y1="653.8633" y2="653.8633"/><text fill="#000000" font-family="sans-serif" font-size="14" lengthAdjust="spacing" textLength="185" x="796.5" y="672.9707">+TeamMember(name: String)</text><text fill="#000000" font-family="sans-serif" font-size="14" lengthAdjust="spacing" textLength="4" x="796.5" y="691.5918">&#160;</text><text fill="#000000" font-family="sans-serif" font-size="14" lengthAdjust="spacing" textLength="157" x="796.5" y="710.2129">+addSkill(skill: Skill): void</text></g><!--class Skill--><g id="elem_Skill"><rect codeLine="87" fill="#F1F1F1" height="85.2422" id="Skill" rx="2.5" ry="2.5" style="stroke:#181818;stroke-width:0.5;" width="135" x="659.5" y="839"/><ellipse cx="710.25" cy="855" fill="#ADD1B2" rx="11" ry="11" style="stroke:#181818;stroke-width:1.0;"/><path d="M713.0156,850.875 Q713.1719,850.6563 713.3594,850.5469 Q713.5469,850.4375 713.7656,850.4375 Q714.1406,850.4375 714.375,850.7031 Q714.6094,850.9531 714.6094,851.5625 L714.6094,853.0156 Q714.6094,853.625 714.375,853.8906 Q714.1406,854.1563 713.7656,854.1563 Q713.4219,854.1563 713.2188,853.9531 Q713.0156,853.7656 712.9063,853.25 Q712.8594,852.8906 712.6719,852.7031 Q712.3438,852.3281 711.7344,852.1094 Q711.125,851.8906 710.5,851.8906 Q709.7344,851.8906 709.0938,852.2188 Q708.4688,852.5469 707.9688,853.2969 Q707.4844,854.0469 707.4844,855.0781 L707.4844,856.1719 Q707.4844,857.4063 708.375,858.2344 Q709.2656,859.0469 710.8594,859.0469 Q711.7969,859.0469 712.4531,858.7969 Q712.8438,858.6406 713.2656,858.2031 Q713.5313,857.9375 713.6719,857.8594 Q713.8281,857.7813 714.0313,857.7813 Q714.3594,857.7813 714.6094,858.0469 Q714.875,858.2969 714.875,858.6406 Q714.875,858.9844 714.5313,859.3906 Q714.0313,859.9688 713.2344,860.2969 Q712.1563,860.75 710.8594,860.75 Q709.3438,860.75 708.1406,860.125 Q707.1563,859.625 706.4688,858.5625 Q705.7813,857.4844 705.7813,856.2031 L705.7813,855.0469 Q705.7813,853.7188 706.3906,852.5781 Q707.0156,851.4219 708.1094,850.8125 Q709.2031,850.1875 710.4375,850.1875 Q711.1719,850.1875 711.8125,850.3594 Q712.4688,850.5156 713.0156,850.875 Z " fill="#000000"/><text fill="#000000" font-family="sans-serif" font-size="14" lengthAdjust="spacing" textLength="25" x="730.75" y="860.7969">Skill</text><line style="stroke:#181818;stroke-width:0.5;" x1="660.5" x2="793.5" y1="871" y2="871"/><text fill="#000000" font-family="sans-serif" font-size="14" lengthAdjust="spacing" textLength="81" x="665.5" y="890.1074">-String name</text><line style="stroke:#181818;stroke-width:0.5;" x1="660.5" x2="793.5" y1="897.6211" y2="897.6211"/><text fill="#000000" font-family="sans-serif" font-size="14" lengthAdjust="spacing" textLength="123" x="665.5" y="916.7285">+Skill(name: String)</text></g><!--link CreateSkillUI to CreateSkillController--><g id="link_CreateSkillUI_CreateSkillController"><path codeLine="94" d="M119.39,124 C130.91,124 136.99,124 148.32,124 " fill="none" id="CreateSkillUI-to-CreateSkillController" style="stroke:#181818;stroke-width:1.0;stroke-dasharray:7.0,7.0;"/><polygon fill="#181818" points="154.32,124,145.32,120,149.32,124,145.32,128,154.32,124" style="stroke:#181818;stroke-width:1.0;"/></g><!--link CreateSkillController to Repositories--><g id="link_CreateSkillController_Repositories"><path codeLine="95" d="M827.67,124 C847.81,124 861.67,124 861.67,124 C861.67,124 856.07,124 856.85,124 " fill="none" id="CreateSkillController-to-Repositories" style="stroke:#181818;stroke-width:1.0;stroke-dasharray:7.0,7.0;"/><polygon fill="#181818" points="862.85,124,853.85,120,857.85,124,853.85,128,862.85,124" style="stroke:#181818;stroke-width:1.0;"/></g><!--link CreateSkillController to SkillRepository--><g id="link_CreateSkillController_SkillRepository"><path codeLine="96" d="M519.3,194.72 C532.37,226.93 545.8535,260.1705 560.0835,295.2305 " fill="none" id="CreateSkillController-to-SkillRepository" style="stroke:#181818;stroke-width:1.0;stroke-dasharray:7.0,7.0;"/><polygon fill="#181818" points="562.34,300.79,562.6616,290.9464,560.4596,296.1571,555.2489,293.955,562.34,300.79" style="stroke:#181818;stroke-width:1.0;"/></g><!--link CreateSkillController to TeamMemberRepository--><g id="link_CreateSkillController_TeamMemberRepository"><path codeLine="97" d="M603.9,194.55 C656.31,226.83 714.4114,262.6232 771.4914,297.7832 " fill="none" id="CreateSkillController-to-TeamMemberRepository" style="stroke:#181818;stroke-width:1.0;stroke-dasharray:7.0,7.0;"/><polygon fill="#181818" points="776.6,300.93,771.035,292.8041,772.3428,298.3077,766.8392,299.6156,776.6,300.93" style="stroke:#181818;stroke-width:1.0;"/></g><!--link Repositories to SkillRepository--><g id="link_Repositories_SkillRepository"><path codeLine="98" d="M862.69,234.96 C803.06,270.54 752,301 752,301 C752,301 750.1111,302.2307 739.2311,309.3007 " fill="none" id="Repositories-to-SkillRepository" style="stroke:#181818;stroke-width:1.0;"/><polygon fill="#181818" points="734.2,312.57,743.9261,311.0201,738.3926,309.8456,739.5671,304.312,734.2,312.57" style="stroke:#181818;stroke-width:1.0;"/></g><!--link Repositories to TeamMemberRepository--><g id="link_Repositories_TeamMemberRepository"><path codeLine="99" d="M999.34,241.39 C991.24,261.16 985.1851,275.9581 977.3051,295.1881 " fill="none" id="Repositories-to-TeamMemberRepository" style="stroke:#181818;stroke-width:1.0;"/><polygon fill="#181818" points="975.03,300.74,982.1439,293.9288,976.9259,296.1134,974.7413,290.8954,975.03,300.74" style="stroke:#181818;stroke-width:1.0;"/></g><!--link SkillRepository to Skill--><g id="link_SkillRepository_Skill"><path codeLine="100" d="M627.45,498.21 C654.64,602.65 694.9783,757.5336 714.6083,832.9336 " fill="none" id="SkillRepository-to-Skill" style="stroke:#181818;stroke-width:1.0;"/><polygon fill="#181818" points="716.12,838.74,717.7234,829.0225,714.8603,833.9013,709.9815,831.0381,716.12,838.74" style="stroke:#181818;stroke-width:1.0;"/></g><!--link TeamMemberRepository to TeamMember--><g id="link_TeamMemberRepository_TeamMember"><path codeLine="101" d="M916.02,498.06 C912.16,517.91 909.2959,532.6704 905.5759,551.7904 " fill="none" id="TeamMemberRepository-to-TeamMember" style="stroke:#181818;stroke-width:1.0;"/><polygon fill="#181818" points="904.43,557.68,910.0752,549.6096,905.3849,552.772,902.2224,548.0817,904.43,557.68" style="stroke:#181818;stroke-width:1.0;"/></g><!--link TeamMember to Skill--><g id="link_TeamMember_Skill"><path codeLine="102" d="M835.96,718.08 C808.92,758.38 780.4824,800.7672 758.2524,833.9072 " fill="none" id="TeamMember-to-Skill" style="stroke:#181818;stroke-width:1.0;"/><polygon fill="#181818" points="754.91,838.89,763.2455,833.6441,757.6953,834.7377,756.6018,829.1875,754.91,838.89" style="stroke:#181818;stroke-width:1.0;"/></g><!--SRC=[jLR1Zjem4BtdAtmBgvQgPrGXTRSNf6vLGVi1nXc2XMCZUm3Hgl_UiHCIEp5QUYWtF3DltioRiLEwWzH7Rdd36gEDs5lJ04DxWcAm7Bauy1esU5N0B0ZakbQnWzlpoboahjcEAnTRbDI0roEmer5N_wSeCqPZqHHHb53SkS-8LcvF22jXz4R-0lQnA4e5EsHec9Nr7babFHrfT5646FPYWIDi3bAfdolsk_YJCRmOZTOe1POS6FtcB9oluMYSH6ElpAN_EwyVm9jNQBPW8rVC71OXeAH4ZbefwCXJbbgYvCfNWdjWOg1naRWFPsCUN5VPh6L8y2vVrMp4VZ66VPyblSXcUkfgUGNScuhjg1JXatgnETDmQNjr8oG6GYsDRxm18a1IwlffmSv6LeCeVHe9hjV28Q6Br2QfaLmB-AzoVRVoJEIzC8bipL510nfRXQIVVJIQjW8Hh2wxR37VsQXhX583Hh6tUjYEzYq9lJMowmA5hJhV6RKlzfoaC5laKWUMeI6ETdKyC8GtQfw77HrboVl6iIPqxWvmhjyUFNS-pC1OoziOV9KEFmNZiYldeQswM_cax0vk3NYosj4mXr2svGugvZL2npHDxxXrprS_qzdf3lORpR09yOw4RUPLHSYUk6SxfVdM0iKfrj2OC_JCmopbKIkWkOjHLzNTfSokJQBAuB6CzkanVQ8nol3CZz14gHYarulGfMMhBzc9VBwkgfcCYnviYM2kKonEqUdc7X1kG9tfLBX9lbwzEDMR6aO9v2CQzieDtjr1pEyVTqx4intHdygOTc7wbb1RsvUa7M72vZb0Sek6jzk2ITNXT7ZJGyvGvWDL9AzOcokbJbdIZuiFo_ppM-G_DSWzkRtlUeqluxkEsNirUJRdyodSn24BCxwLUwGYUpsaE94FMVf8-lq5]--></g></svg>