<?xml version="1.0" encoding="us-ascii" standalone="no"?><svg xmlns="http://www.w3.org/2000/svg" xmlns:xlink="http://www.w3.org/1999/xlink" contentStyleType="text/css" height="1682px" preserveAspectRatio="none" style="width:2156px;height:1682px;background:#FFFFFF;" version="1.1" viewBox="0 0 2156 1682" width="2156px" zoomAndPan="magnify"><defs/><g><rect fill="#FFFFFF" height="1487.7559" style="stroke:#181818;stroke-width:1.0;" width="10" x="18" y="93.6211"/><rect fill="#FFFFFF" height="31.291" style="stroke:#181818;stroke-width:1.0;" width="10" x="299" y="116.9121"/><rect fill="#FFFFFF" height="31.291" style="stroke:#181818;stroke-width:1.0;" width="10" x="299" y="179.4941"/><rect fill="#FFFFFF" height="1339.3008" style="stroke:#181818;stroke-width:1.0;" width="10" x="299" y="242.0762"/><rect fill="#FFFFFF" height="1276.7188" style="stroke:#181818;stroke-width:1.0;" width="10" x="469" y="273.3672"/><rect fill="#FFFFFF" height="31.291" style="stroke:#181818;stroke-width:1.0;" width="10" x="694" y="348.9492"/><rect fill="#FFFFFF" height="31.291" style="stroke:#181818;stroke-width:1.0;" width="10" x="694" y="706.1504"/><rect fill="#FFFFFF" height="31.291" style="stroke:#181818;stroke-width:1.0;" width="10" x="694" y="989.7695"/><rect fill="#FFFFFF" height="31.291" style="stroke:#181818;stroke-width:1.0;" width="10" x="801" y="411.5313"/><rect fill="#FFFFFF" height="31.291" style="stroke:#181818;stroke-width:1.0;" width="10" x="801" y="768.7324"/><rect fill="#FFFFFF" height="156.4551" style="stroke:#181818;stroke-width:1.0;" width="10" x="947.5" y="474.1133"/><rect fill="#FFFFFF" height="93.873" style="stroke:#181818;stroke-width:1.0;" width="10" x="1136.5" y="505.4043"/><rect fill="#FFFFFF" height="759.0625" style="stroke:#181818;stroke-width:1.0;" width="10" x="1276.5" y="831.3145"/><rect fill="#FFFFFF" height="31.291" style="stroke:#181818;stroke-width:1.0;" width="10" x="1443.5" y="888.8965"/><rect fill="#FFFFFF" height="269.6973" style="stroke:#181818;stroke-width:1.0;" width="10" x="1443.5" y="1210.8066"/><rect fill="#FFFFFF" height="127.1641" style="stroke:#181818;stroke-width:1.0;" width="10" x="1584.5" y="1052.3516"/><rect fill="#FFFFFF" height="31.291" style="stroke:#181818;stroke-width:1.0;" width="10" x="1833.5" y="1109.9336"/><rect fill="none" height="81.873" style="stroke:#000000;stroke-width:1.5;" width="317.5" x="1190" y="846.3145"/><rect fill="none" height="81.873" style="stroke:#000000;stroke-width:1.5;" width="382.5" x="1506" y="1067.3516"/><line style="stroke:#181818;stroke-width:0.5;stroke-dasharray:5.0,5.0;" x1="23" x2="23" y1="83.6211" y2="1599.377"/><line style="stroke:#181818;stroke-width:0.5;stroke-dasharray:5.0,5.0;" x1="304" x2="304" y1="83.6211" y2="1599.377"/><line style="stroke:#181818;stroke-width:0.5;stroke-dasharray:5.0,5.0;" x1="474" x2="474" y1="83.6211" y2="1599.377"/><line style="stroke:#181818;stroke-width:0.5;stroke-dasharray:5.0,5.0;" x1="698.5" x2="698.5" y1="83.6211" y2="1599.377"/><line style="stroke:#181818;stroke-width:0.5;stroke-dasharray:5.0,5.0;" x1="805.5" x2="805.5" y1="83.6211" y2="1599.377"/><line style="stroke:#181818;stroke-width:0.5;stroke-dasharray:5.0,5.0;" x1="952.5" x2="952.5" y1="83.6211" y2="1599.377"/><line style="stroke:#181818;stroke-width:0.5;stroke-dasharray:5.0,5.0;" x1="1141" x2="1141" y1="83.6211" y2="1599.377"/><line style="stroke:#181818;stroke-width:0.5;stroke-dasharray:5.0,5.0;" x1="1281" x2="1281" y1="83.6211" y2="1599.377"/><line style="stroke:#181818;stroke-width:0.5;stroke-dasharray:5.0,5.0;" x1="1448.5" x2="1448.5" y1="83.6211" y2="1599.377"/><line style="stroke:#181818;stroke-width:0.5;stroke-dasharray:5.0,5.0;" x1="1589" x2="1589" y1="83.6211" y2="1599.377"/><line style="stroke:#181818;stroke-width:0.5;stroke-dasharray:5.0,5.0;" x1="1838.5" x2="1838.5" y1="83.6211" y2="1599.377"/><line style="stroke:#181818;stroke-width:0.5;stroke-dasharray:5.0,5.0;" x1="1909.5" x2="1909.5" y1="1259.9277" y2="1599.377"/><text fill="#000000" font-family="sans-serif" font-size="14" lengthAdjust="spacing" textLength="30" x="5" y="80.1074">HRM</text><ellipse cx="23" cy="13.5" fill="#E3E3E3" rx="8" ry="8" style="stroke:#181818;stroke-width:0.5;"/><path d="M23,21.5 L23,48.5 M10,29.5 L36,29.5 M23,48.5 L10,63.5 M23,48.5 L36,63.5 " fill="none" style="stroke:#181818;stroke-width:0.5;"/><text fill="#000000" font-family="sans-serif" font-size="14" lengthAdjust="spacing" textLength="30" x="5" y="1613.4844">HRM</text><ellipse cx="23" cy="1625.498" fill="#E3E3E3" rx="8" ry="8" style="stroke:#181818;stroke-width:0.5;"/><path d="M23,1633.498 L23,1660.498 M10,1641.498 L36,1641.498 M23,1660.498 L10,1675.498 M23,1660.498 L36,1675.498 " fill="none" style="stroke:#181818;stroke-width:0.5;"/><rect fill="#E3E3E3" height="32.6211" rx="2.5" ry="2.5" style="stroke:#181818;stroke-width:0.5;" width="98" x="255" y="50"/><text fill="#000000" font-family="sans-serif" font-size="14" lengthAdjust="spacing" textLength="84" x="262" y="72.1074">:CreateSkillUI</text><rect fill="#E3E3E3" height="32.6211" rx="2.5" ry="2.5" style="stroke:#181818;stroke-width:0.5;" width="98" x="255" y="1598.377"/><text fill="#000000" font-family="sans-serif" font-size="14" lengthAdjust="spacing" textLength="84" x="262" y="1620.4844">:CreateSkillUI</text><rect fill="#E3E3E3" height="32.6211" rx="2.5" ry="2.5" style="stroke:#181818;stroke-width:0.5;" width="148" x="400" y="50"/><text fill="#000000" font-family="sans-serif" font-size="14" lengthAdjust="spacing" textLength="134" x="407" y="72.1074">:CreateSkillController</text><rect fill="#E3E3E3" height="32.6211" rx="2.5" ry="2.5" style="stroke:#181818;stroke-width:0.5;" width="148" x="400" y="1598.377"/><text fill="#000000" font-family="sans-serif" font-size="14" lengthAdjust="spacing" textLength="134" x="407" y="1620.4844">:CreateSkillController</text><rect fill="#E3E3E3" height="32.6211" rx="2.5" ry="2.5" style="stroke:#181818;stroke-width:0.5;" width="97" x="650.5" y="50"/><text fill="#000000" font-family="sans-serif" font-size="14" lengthAdjust="spacing" textLength="83" x="657.5" y="72.1074">:Repositories</text><rect fill="#E3E3E3" height="32.6211" rx="2.5" ry="2.5" style="stroke:#181818;stroke-width:0.5;" width="97" x="650.5" y="1598.377"/><text fill="#000000" font-family="sans-serif" font-size="14" lengthAdjust="spacing" textLength="83" x="657.5" y="1620.4844">:Repositories</text><rect fill="#E3E3E3" height="51.2422" rx="2.5" ry="2.5" style="stroke:#181818;stroke-width:0.5;" width="97" x="757.5" y="31.3789"/><text fill="#000000" font-family="sans-serif" font-size="14" lengthAdjust="spacing" textLength="74" x="769" y="53.4863">repositories</text><text fill="#000000" font-family="sans-serif" font-size="14" lengthAdjust="spacing" textLength="83" x="764.5" y="72.1074">:Repositories</text><rect fill="#E3E3E3" height="51.2422" rx="2.5" ry="2.5" style="stroke:#181818;stroke-width:0.5;" width="97" x="757.5" y="1598.377"/><text fill="#000000" font-family="sans-serif" font-size="14" lengthAdjust="spacing" textLength="74" x="769" y="1620.4844">repositories</text><text fill="#000000" font-family="sans-serif" font-size="14" lengthAdjust="spacing" textLength="83" x="764.5" y="1639.1055">:Repositories</text><rect fill="#E3E3E3" height="51.2422" rx="2.5" ry="2.5" style="stroke:#181818;stroke-width:0.5;" width="176" x="864.5" y="31.3789"/><text fill="#000000" font-family="sans-serif" font-size="14" lengthAdjust="spacing" textLength="77" x="914" y="53.4863">AuthFacade</text><text fill="#000000" font-family="sans-serif" font-size="14" lengthAdjust="spacing" textLength="162" x="871.5" y="72.1074">:AuthenticationRepository</text><rect fill="#E3E3E3" height="51.2422" rx="2.5" ry="2.5" style="stroke:#181818;stroke-width:0.5;" width="176" x="864.5" y="1598.377"/><text fill="#000000" font-family="sans-serif" font-size="14" lengthAdjust="spacing" textLength="77" x="914" y="1620.4844">AuthFacade</text><text fill="#000000" font-family="sans-serif" font-size="14" lengthAdjust="spacing" textLength="162" x="871.5" y="1639.1055">:AuthenticationRepository</text><rect fill="#E3E3E3" height="51.2422" rx="2.5" ry="2.5" style="stroke:#181818;stroke-width:0.5;" width="97" x="1093" y="31.3789"/><text fill="#000000" font-family="sans-serif" font-size="14" lengthAdjust="spacing" textLength="78" x="1102.5" y="53.4863">userSession</text><text fill="#000000" font-family="sans-serif" font-size="14" lengthAdjust="spacing" textLength="83" x="1100" y="72.1074">:UserSession</text><rect fill="#E3E3E3" height="51.2422" rx="2.5" ry="2.5" style="stroke:#181818;stroke-width:0.5;" width="97" x="1093" y="1598.377"/><text fill="#000000" font-family="sans-serif" font-size="14" lengthAdjust="spacing" textLength="78" x="1102.5" y="1620.4844">userSession</text><text fill="#000000" font-family="sans-serif" font-size="14" lengthAdjust="spacing" textLength="83" x="1100" y="1639.1055">:UserSession</text><rect fill="#E3E3E3" height="51.2422" rx="2.5" ry="2.5" style="stroke:#181818;stroke-width:0.5;" width="163" x="1200" y="31.3789"/><text fill="#000000" font-family="sans-serif" font-size="14" lengthAdjust="spacing" textLength="149" x="1207" y="53.4863">organizationRepository:</text><text fill="#000000" font-family="sans-serif" font-size="14" lengthAdjust="spacing" textLength="148" x="1207.5" y="72.1074">OrganizationRepository</text><rect fill="#E3E3E3" height="51.2422" rx="2.5" ry="2.5" style="stroke:#181818;stroke-width:0.5;" width="163" x="1200" y="1598.377"/><text fill="#000000" font-family="sans-serif" font-size="14" lengthAdjust="spacing" textLength="149" x="1207" y="1620.4844">organizationRepository:</text><text fill="#000000" font-family="sans-serif" font-size="14" lengthAdjust="spacing" textLength="148" x="1207.5" y="1639.1055">OrganizationRepository</text><rect fill="#E3E3E3" height="51.2422" rx="2.5" ry="2.5" style="stroke:#181818;stroke-width:0.5;" width="98" x="1399.5" y="31.3789"/><text fill="#000000" font-family="sans-serif" font-size="14" lengthAdjust="spacing" textLength="77" x="1410" y="53.4863">organization</text><text fill="#000000" font-family="sans-serif" font-size="14" lengthAdjust="spacing" textLength="84" x="1406.5" y="72.1074">:Organization</text><rect fill="#E3E3E3" height="51.2422" rx="2.5" ry="2.5" style="stroke:#181818;stroke-width:0.5;" width="98" x="1399.5" y="1598.377"/><text fill="#000000" font-family="sans-serif" font-size="14" lengthAdjust="spacing" textLength="77" x="1410" y="1620.4844">organization</text><text fill="#000000" font-family="sans-serif" font-size="14" lengthAdjust="spacing" textLength="84" x="1406.5" y="1639.1055">:Organization</text><rect fill="#E3E3E3" height="51.2422" rx="2.5" ry="2.5" style="stroke:#181818;stroke-width:0.5;" width="147" x="1516" y="31.3789"/><text fill="#000000" font-family="sans-serif" font-size="14" lengthAdjust="spacing" textLength="133" x="1523" y="53.4863">employeeRepository:</text><text fill="#000000" font-family="sans-serif" font-size="14" lengthAdjust="spacing" textLength="130" x="1524.5" y="72.1074">EmployeeRepository</text><rect fill="#E3E3E3" height="51.2422" rx="2.5" ry="2.5" style="stroke:#181818;stroke-width:0.5;" width="147" x="1516" y="1598.377"/><text fill="#000000" font-family="sans-serif" font-size="14" lengthAdjust="spacing" textLength="133" x="1523" y="1620.4844">employeeRepository:</text><text fill="#000000" font-family="sans-serif" font-size="14" lengthAdjust="spacing" textLength="130" x="1524.5" y="1639.1055">EmployeeRepository</text><rect fill="#E3E3E3" height="51.2422" rx="2.5" ry="2.5" style="stroke:#181818;stroke-width:0.5;" width="80" x="1798.5" y="31.3789"/><text fill="#000000" font-family="sans-serif" font-size="14" lengthAdjust="spacing" textLength="61" x="1808" y="53.4863">employee</text><text fill="#000000" font-family="sans-serif" font-size="14" lengthAdjust="spacing" textLength="66" x="1805.5" y="72.1074">:Employee</text><rect fill="#E3E3E3" height="51.2422" rx="2.5" ry="2.5" style="stroke:#181818;stroke-width:0.5;" width="80" x="1798.5" y="1598.377"/><text fill="#000000" font-family="sans-serif" font-size="14" lengthAdjust="spacing" textLength="61" x="1808" y="1620.4844">employee</text><text fill="#000000" font-family="sans-serif" font-size="14" lengthAdjust="spacing" textLength="66" x="1805.5" y="1639.1055">:Employee</text><rect fill="#E3E3E3" height="51.2422" rx="2.5" ry="2.5" style="stroke:#181818;stroke-width:0.5;" width="43" x="1888.5" y="1598.377"/><text fill="#000000" font-family="sans-serif" font-size="14" lengthAdjust="spacing" textLength="25" x="1897.5" y="1620.4844">Skill</text><text fill="#000000" font-family="sans-serif" font-size="14" lengthAdjust="spacing" textLength="29" x="1895.5" y="1639.1055">:Skill</text><rect fill="#FFFFFF" height="1487.7559" style="stroke:#181818;stroke-width:1.0;" width="10" x="18" y="93.6211"/><rect fill="#FFFFFF" height="31.291" style="stroke:#181818;stroke-width:1.0;" width="10" x="299" y="116.9121"/><rect fill="#FFFFFF" height="31.291" style="stroke:#181818;stroke-width:1.0;" width="10" x="299" y="179.4941"/><rect fill="#FFFFFF" height="1339.3008" style="stroke:#181818;stroke-width:1.0;" width="10" x="299" y="242.0762"/><rect fill="#FFFFFF" height="1276.7188" style="stroke:#181818;stroke-width:1.0;" width="10" x="469" y="273.3672"/><rect fill="#FFFFFF" height="31.291" style="stroke:#181818;stroke-width:1.0;" width="10" x="694" y="348.9492"/><rect fill="#FFFFFF" height="31.291" style="stroke:#181818;stroke-width:1.0;" width="10" x="694" y="706.1504"/><rect fill="#FFFFFF" height="31.291" style="stroke:#181818;stroke-width:1.0;" width="10" x="694" y="989.7695"/><rect fill="#FFFFFF" height="31.291" style="stroke:#181818;stroke-width:1.0;" width="10" x="801" y="411.5313"/><rect fill="#FFFFFF" height="31.291" style="stroke:#181818;stroke-width:1.0;" width="10" x="801" y="768.7324"/><rect fill="#FFFFFF" height="156.4551" style="stroke:#181818;stroke-width:1.0;" width="10" x="947.5" y="474.1133"/><rect fill="#FFFFFF" height="93.873" style="stroke:#181818;stroke-width:1.0;" width="10" x="1136.5" y="505.4043"/><rect fill="#FFFFFF" height="759.0625" style="stroke:#181818;stroke-width:1.0;" width="10" x="1276.5" y="831.3145"/><rect fill="#FFFFFF" height="31.291" style="stroke:#181818;stroke-width:1.0;" width="10" x="1443.5" y="888.8965"/><rect fill="#FFFFFF" height="269.6973" style="stroke:#181818;stroke-width:1.0;" width="10" x="1443.5" y="1210.8066"/><rect fill="#FFFFFF" height="127.1641" style="stroke:#181818;stroke-width:1.0;" width="10" x="1584.5" y="1052.3516"/><rect fill="#FFFFFF" height="31.291" style="stroke:#181818;stroke-width:1.0;" width="10" x="1833.5" y="1109.9336"/><polygon fill="#181818" points="287,112.9121,297,116.9121,287,120.9121,291,116.9121" style="stroke:#181818;stroke-width:1.0;"/><line style="stroke:#181818;stroke-width:1.0;" x1="28" x2="293" y1="116.9121" y2="116.9121"/><text fill="#000000" font-family="sans-serif" font-size="13" font-weight="bold" lengthAdjust="spacing" textLength="7" x="35" y="111.6494">1</text><text fill="#000000" font-family="sans-serif" font-size="13" lengthAdjust="spacing" textLength="148" x="46" y="111.6494">asks to create a new skill</text><polygon fill="#181818" points="39,144.2031,29,148.2031,39,152.2031,35,148.2031" style="stroke:#181818;stroke-width:1.0;"/><line style="stroke:#181818;stroke-width:1.0;stroke-dasharray:2.0,2.0;" x1="33" x2="303" y1="148.2031" y2="148.2031"/><text fill="#000000" font-family="sans-serif" font-size="13" font-weight="bold" lengthAdjust="spacing" textLength="7" x="45" y="142.9404">2</text><text fill="#000000" font-family="sans-serif" font-size="13" lengthAdjust="spacing" textLength="174" x="56" y="142.9404">requests data (Name the skill)</text><polygon fill="#181818" points="287,175.4941,297,179.4941,287,183.4941,291,179.4941" style="stroke:#181818;stroke-width:1.0;"/><line style="stroke:#181818;stroke-width:1.0;" x1="28" x2="293" y1="179.4941" y2="179.4941"/><text fill="#000000" font-family="sans-serif" font-size="13" font-weight="bold" lengthAdjust="spacing" textLength="7" x="35" y="174.2314">3</text><text fill="#000000" font-family="sans-serif" font-size="13" lengthAdjust="spacing" textLength="195" x="46" y="174.2314">types requested data (Skill name)</text><polygon fill="#181818" points="39,206.7852,29,210.7852,39,214.7852,35,210.7852" style="stroke:#181818;stroke-width:1.0;"/><line style="stroke:#181818;stroke-width:1.0;stroke-dasharray:2.0,2.0;" x1="33" x2="303" y1="210.7852" y2="210.7852"/><text fill="#000000" font-family="sans-serif" font-size="13" font-weight="bold" lengthAdjust="spacing" textLength="7" x="45" y="205.5225">4</text><text fill="#000000" font-family="sans-serif" font-size="13" lengthAdjust="spacing" textLength="236" x="56" y="205.5225">shows all data and requests confirmation</text><polygon fill="#181818" points="287,238.0762,297,242.0762,287,246.0762,291,242.0762" style="stroke:#181818;stroke-width:1.0;"/><line style="stroke:#181818;stroke-width:1.0;" x1="28" x2="293" y1="242.0762" y2="242.0762"/><text fill="#000000" font-family="sans-serif" font-size="13" font-weight="bold" lengthAdjust="spacing" textLength="7" x="35" y="236.8135">5</text><text fill="#000000" font-family="sans-serif" font-size="13" lengthAdjust="spacing" textLength="78" x="46" y="236.8135">confirms data</text><polygon fill="#181818" points="457,269.3672,467,273.3672,457,277.3672,461,273.3672" style="stroke:#181818;stroke-width:1.0;"/><line style="stroke:#181818;stroke-width:1.0;" x1="309" x2="463" y1="273.3672" y2="273.3672"/><text fill="#000000" font-family="sans-serif" font-size="13" font-weight="bold" lengthAdjust="spacing" textLength="7" x="316" y="268.1045">6</text><text fill="#000000" font-family="sans-serif" font-size="13" lengthAdjust="spacing" textLength="130" x="327" y="268.1045">createSkill(Skill name)</text><line style="stroke:#181818;stroke-width:1.0;" x1="479" x2="521" y1="304.6582" y2="304.6582"/><line style="stroke:#181818;stroke-width:1.0;" x1="521" x2="521" y1="304.6582" y2="317.6582"/><line style="stroke:#181818;stroke-width:1.0;" x1="480" x2="521" y1="317.6582" y2="317.6582"/><polygon fill="#181818" points="490,313.6582,480,317.6582,490,321.6582,486,317.6582" style="stroke:#181818;stroke-width:1.0;"/><text fill="#000000" font-family="sans-serif" font-size="13" font-weight="bold" lengthAdjust="spacing" textLength="7" x="486" y="299.3955">7</text><text fill="#000000" font-family="sans-serif" font-size="13" lengthAdjust="spacing" textLength="130" x="497" y="299.3955">getUserFromSession()</text><polygon fill="#181818" points="682,344.9492,692,348.9492,682,352.9492,686,348.9492" style="stroke:#181818;stroke-width:1.0;"/><line style="stroke:#181818;stroke-width:1.0;" x1="479" x2="688" y1="348.9492" y2="348.9492"/><text fill="#000000" font-family="sans-serif" font-size="13" font-weight="bold" lengthAdjust="spacing" textLength="7" x="486" y="343.6865">8</text><text fill="#000000" font-family="sans-serif" font-size="13" lengthAdjust="spacing" textLength="75" x="497" y="343.6865">getInstance()</text><polygon fill="#181818" points="490,376.2402,480,380.2402,490,384.2402,486,380.2402" style="stroke:#181818;stroke-width:1.0;"/><line style="stroke:#181818;stroke-width:1.0;stroke-dasharray:2.0,2.0;" x1="484" x2="698" y1="380.2402" y2="380.2402"/><text fill="#000000" font-family="sans-serif" font-size="13" font-weight="bold" lengthAdjust="spacing" textLength="7" x="496" y="374.9775">9</text><text fill="#000000" font-family="sans-serif" font-size="13" lengthAdjust="spacing" textLength="72" x="507" y="374.9775">Repositories</text><polygon fill="#181818" points="789,407.5313,799,411.5313,789,415.5313,793,411.5313" style="stroke:#181818;stroke-width:1.0;"/><line style="stroke:#181818;stroke-width:1.0;" x1="479" x2="795" y1="411.5313" y2="411.5313"/><text fill="#000000" font-family="sans-serif" font-size="13" font-weight="bold" lengthAdjust="spacing" textLength="14" x="486" y="406.2686">10</text><text fill="#000000" font-family="sans-serif" font-size="13" lengthAdjust="spacing" textLength="171" x="504" y="406.2686">getAuthenticationRepository()</text><polygon fill="#181818" points="490,438.8223,480,442.8223,490,446.8223,486,442.8223" style="stroke:#181818;stroke-width:1.0;"/><line style="stroke:#181818;stroke-width:1.0;stroke-dasharray:2.0,2.0;" x1="484" x2="805" y1="442.8223" y2="442.8223"/><text fill="#000000" font-family="sans-serif" font-size="13" font-weight="bold" lengthAdjust="spacing" textLength="14" x="496" y="437.5596">11</text><text fill="#000000" font-family="sans-serif" font-size="13" lengthAdjust="spacing" textLength="153" x="514" y="437.5596">AuthenticationRepository()</text><polygon fill="#181818" points="935.5,470.1133,945.5,474.1133,935.5,478.1133,939.5,474.1133" style="stroke:#181818;stroke-width:1.0;"/><line style="stroke:#181818;stroke-width:1.0;" x1="479" x2="941.5" y1="474.1133" y2="474.1133"/><text fill="#000000" font-family="sans-serif" font-size="13" font-weight="bold" lengthAdjust="spacing" textLength="14" x="486" y="468.8506">12</text><text fill="#000000" font-family="sans-serif" font-size="13" lengthAdjust="spacing" textLength="142" x="504" y="468.8506">getCurrentUserSession()</text><polygon fill="#181818" points="1124.5,501.4043,1134.5,505.4043,1124.5,509.4043,1128.5,505.4043" style="stroke:#181818;stroke-width:1.0;"/><line style="stroke:#181818;stroke-width:1.0;" x1="957.5" x2="1130.5" y1="505.4043" y2="505.4043"/><text fill="#000000" font-family="sans-serif" font-size="13" font-weight="bold" lengthAdjust="spacing" textLength="14" x="964.5" y="500.1416">13</text><text fill="#000000" font-family="sans-serif" font-size="13" lengthAdjust="spacing" textLength="142" x="982.5" y="500.1416">isLoggedWithRule(HRM)</text><polygon fill="#181818" points="968.5,532.6953,958.5,536.6953,968.5,540.6953,964.5,536.6953" style="stroke:#181818;stroke-width:1.0;"/><line style="stroke:#181818;stroke-width:1.0;stroke-dasharray:2.0,2.0;" x1="962.5" x2="1135.5" y1="536.6953" y2="536.6953"/><text fill="#000000" font-family="sans-serif" font-size="13" font-weight="bold" lengthAdjust="spacing" textLength="14" x="974.5" y="531.4326">14</text><text fill="#000000" font-family="sans-serif" font-size="13" lengthAdjust="spacing" textLength="71" x="992.5" y="531.4326">"True/False"</text><polygon fill="#181818" points="1124.5,563.9863,1134.5,567.9863,1124.5,571.9863,1128.5,567.9863" style="stroke:#181818;stroke-width:1.0;"/><line style="stroke:#181818;stroke-width:1.0;stroke-dasharray:2.0,2.0;" x1="957.5" x2="1130.5" y1="567.9863" y2="567.9863"/><text fill="#000000" font-family="sans-serif" font-size="13" font-weight="bold" lengthAdjust="spacing" textLength="14" x="964.5" y="562.7236">15</text><text fill="#000000" font-family="sans-serif" font-size="13" lengthAdjust="spacing" textLength="94" x="982.5" y="562.7236">getUserId(email)</text><polygon fill="#181818" points="968.5,595.2773,958.5,599.2773,968.5,603.2773,964.5,599.2773" style="stroke:#181818;stroke-width:1.0;"/><line style="stroke:#181818;stroke-width:1.0;stroke-dasharray:2.0,2.0;" x1="962.5" x2="1140.5" y1="599.2773" y2="599.2773"/><text fill="#000000" font-family="sans-serif" font-size="13" font-weight="bold" lengthAdjust="spacing" textLength="14" x="974.5" y="594.0146">16</text><text fill="#000000" font-family="sans-serif" font-size="13" lengthAdjust="spacing" textLength="74" x="992.5" y="594.0146">userId(email)</text><polygon fill="#181818" points="490,626.5684,480,630.5684,490,634.5684,486,630.5684" style="stroke:#181818;stroke-width:1.0;"/><line style="stroke:#181818;stroke-width:1.0;stroke-dasharray:2.0,2.0;" x1="484" x2="951.5" y1="630.5684" y2="630.5684"/><text fill="#000000" font-family="sans-serif" font-size="13" font-weight="bold" lengthAdjust="spacing" textLength="14" x="496" y="625.3057">17</text><text fill="#000000" font-family="sans-serif" font-size="13" lengthAdjust="spacing" textLength="74" x="514" y="625.3057">userId(email)</text><line style="stroke:#181818;stroke-width:1.0;" x1="479" x2="521" y1="661.8594" y2="661.8594"/><line style="stroke:#181818;stroke-width:1.0;" x1="521" x2="521" y1="661.8594" y2="674.8594"/><line style="stroke:#181818;stroke-width:1.0;" x1="480" x2="521" y1="674.8594" y2="674.8594"/><polygon fill="#181818" points="490,670.8594,480,674.8594,490,678.8594,486,674.8594" style="stroke:#181818;stroke-width:1.0;"/><text fill="#000000" font-family="sans-serif" font-size="13" font-weight="bold" lengthAdjust="spacing" textLength="14" x="486" y="656.5967">18</text><text fill="#000000" font-family="sans-serif" font-size="13" lengthAdjust="spacing" textLength="183" x="504" y="656.5967">getOrganizationByUserId(email)</text><polygon fill="#181818" points="682,702.1504,692,706.1504,682,710.1504,686,706.1504" style="stroke:#181818;stroke-width:1.0;"/><line style="stroke:#181818;stroke-width:1.0;" x1="479" x2="688" y1="706.1504" y2="706.1504"/><text fill="#000000" font-family="sans-serif" font-size="13" font-weight="bold" lengthAdjust="spacing" textLength="14" x="486" y="700.8877">19</text><text fill="#000000" font-family="sans-serif" font-size="13" lengthAdjust="spacing" textLength="75" x="504" y="700.8877">getInstance()</text><polygon fill="#181818" points="490,733.4414,480,737.4414,490,741.4414,486,737.4414" style="stroke:#181818;stroke-width:1.0;"/><line style="stroke:#181818;stroke-width:1.0;stroke-dasharray:2.0,2.0;" x1="484" x2="698" y1="737.4414" y2="737.4414"/><text fill="#000000" font-family="sans-serif" font-size="13" font-weight="bold" lengthAdjust="spacing" textLength="14" x="496" y="732.1787">20</text><text fill="#000000" font-family="sans-serif" font-size="13" lengthAdjust="spacing" textLength="72" x="514" y="732.1787">Repositories</text><polygon fill="#181818" points="789,764.7324,799,768.7324,789,772.7324,793,768.7324" style="stroke:#181818;stroke-width:1.0;"/><line style="stroke:#181818;stroke-width:1.0;" x1="479" x2="795" y1="768.7324" y2="768.7324"/><text fill="#000000" font-family="sans-serif" font-size="13" font-weight="bold" lengthAdjust="spacing" textLength="14" x="486" y="763.4697">21</text><text fill="#000000" font-family="sans-serif" font-size="13" lengthAdjust="spacing" textLength="161" x="504" y="763.4697">getOrganizationRepository()</text><polygon fill="#181818" points="490,796.0234,480,800.0234,490,804.0234,486,800.0234" style="stroke:#181818;stroke-width:1.0;"/><line style="stroke:#181818;stroke-width:1.0;stroke-dasharray:2.0,2.0;" x1="484" x2="805" y1="800.0234" y2="800.0234"/><text fill="#000000" font-family="sans-serif" font-size="13" font-weight="bold" lengthAdjust="spacing" textLength="14" x="496" y="794.7607">22</text><text fill="#000000" font-family="sans-serif" font-size="13" lengthAdjust="spacing" textLength="143" x="514" y="794.7607">OrganizationRepository()</text><polygon fill="#181818" points="1264.5,827.3145,1274.5,831.3145,1264.5,835.3145,1268.5,831.3145" style="stroke:#181818;stroke-width:1.0;"/><line style="stroke:#181818;stroke-width:1.0;" x1="479" x2="1270.5" y1="831.3145" y2="831.3145"/><text fill="#000000" font-family="sans-serif" font-size="13" font-weight="bold" lengthAdjust="spacing" textLength="14" x="486" y="826.0518">23</text><text fill="#000000" font-family="sans-serif" font-size="13" lengthAdjust="spacing" textLength="183" x="504" y="826.0518">getOrganizationByUserId(email)</text><path d="M1190,846.3145 L1263,846.3145 L1263,855.6055 L1253,865.6055 L1190,865.6055 L1190,846.3145 " fill="#EEEEEE" style="stroke:#000000;stroke-width:1.5;"/><rect fill="none" height="81.873" style="stroke:#000000;stroke-width:1.5;" width="317.5" x="1190" y="846.3145"/><text fill="#000000" font-family="sans-serif" font-size="13" font-weight="bold" lengthAdjust="spacing" textLength="28" x="1205" y="861.3428">loop</text><text fill="#000000" font-family="sans-serif" font-size="11" font-weight="bold" lengthAdjust="spacing" textLength="124" x="1278" y="860.1846">[for each organization]</text><polygon fill="#181818" points="1431.5,884.8965,1441.5,888.8965,1431.5,892.8965,1435.5,888.8965" style="stroke:#181818;stroke-width:1.0;"/><line style="stroke:#181818;stroke-width:1.0;" x1="1286.5" x2="1437.5" y1="888.8965" y2="888.8965"/><text fill="#000000" font-family="sans-serif" font-size="13" font-weight="bold" lengthAdjust="spacing" textLength="14" x="1293.5" y="883.6338">24</text><text fill="#000000" font-family="sans-serif" font-size="13" lengthAdjust="spacing" textLength="120" x="1311.5" y="883.6338">anyUserHasId(email)</text><polygon fill="#181818" points="1297.5,916.1875,1287.5,920.1875,1297.5,924.1875,1293.5,920.1875" style="stroke:#181818;stroke-width:1.0;"/><line style="stroke:#181818;stroke-width:1.0;stroke-dasharray:2.0,2.0;" x1="1291.5" x2="1447.5" y1="920.1875" y2="920.1875"/><text fill="#000000" font-family="sans-serif" font-size="13" font-weight="bold" lengthAdjust="spacing" textLength="14" x="1303.5" y="914.9248">25</text><text fill="#000000" font-family="sans-serif" font-size="13" lengthAdjust="spacing" textLength="61" x="1321.5" y="914.9248">True/False</text><polygon fill="#181818" points="490,954.4785,480,958.4785,490,962.4785,486,958.4785" style="stroke:#181818;stroke-width:1.0;"/><line style="stroke:#181818;stroke-width:1.0;stroke-dasharray:2.0,2.0;" x1="484" x2="1275.5" y1="958.4785" y2="958.4785"/><text fill="#000000" font-family="sans-serif" font-size="13" font-weight="bold" lengthAdjust="spacing" textLength="14" x="496" y="953.2158">26</text><text fill="#000000" font-family="sans-serif" font-size="13" lengthAdjust="spacing" textLength="70" x="514" y="953.2158">organitazion</text><polygon fill="#181818" points="682,985.7695,692,989.7695,682,993.7695,686,989.7695" style="stroke:#181818;stroke-width:1.0;"/><line style="stroke:#181818;stroke-width:1.0;" x1="479" x2="688" y1="989.7695" y2="989.7695"/><text fill="#000000" font-family="sans-serif" font-size="13" font-weight="bold" lengthAdjust="spacing" textLength="14" x="486" y="984.5068">27</text><text fill="#000000" font-family="sans-serif" font-size="13" lengthAdjust="spacing" textLength="75" x="504" y="984.5068">getInstance()</text><polygon fill="#181818" points="490,1017.0605,480,1021.0605,490,1025.0605,486,1021.0605" style="stroke:#181818;stroke-width:1.0;"/><line style="stroke:#181818;stroke-width:1.0;stroke-dasharray:2.0,2.0;" x1="484" x2="698" y1="1021.0605" y2="1021.0605"/><text fill="#000000" font-family="sans-serif" font-size="13" font-weight="bold" lengthAdjust="spacing" textLength="14" x="496" y="1015.7979">28</text><text fill="#000000" font-family="sans-serif" font-size="13" lengthAdjust="spacing" textLength="72" x="514" y="1015.7979">Repositories</text><polygon fill="#181818" points="1572.5,1048.3516,1582.5,1052.3516,1572.5,1056.3516,1576.5,1052.3516" style="stroke:#181818;stroke-width:1.0;"/><line style="stroke:#181818;stroke-width:1.0;" x1="479" x2="1578.5" y1="1052.3516" y2="1052.3516"/><text fill="#000000" font-family="sans-serif" font-size="13" font-weight="bold" lengthAdjust="spacing" textLength="14" x="486" y="1047.0889">29</text><text fill="#000000" font-family="sans-serif" font-size="13" lengthAdjust="spacing" textLength="168" x="504" y="1047.0889">getEmployeeByUserId(email)</text><path d="M1506,1067.3516 L1579,1067.3516 L1579,1076.6426 L1569,1086.6426 L1506,1086.6426 L1506,1067.3516 " fill="#EEEEEE" style="stroke:#000000;stroke-width:1.5;"/><rect fill="none" height="81.873" style="stroke:#000000;stroke-width:1.5;" width="382.5" x="1506" y="1067.3516"/><text fill="#000000" font-family="sans-serif" font-size="13" font-weight="bold" lengthAdjust="spacing" textLength="28" x="1521" y="1082.3799">loop</text><text fill="#000000" font-family="sans-serif" font-size="11" font-weight="bold" lengthAdjust="spacing" textLength="111" x="1594" y="1081.2217">[for each employee]</text><polygon fill="#181818" points="1821.5,1105.9336,1831.5,1109.9336,1821.5,1113.9336,1825.5,1109.9336" style="stroke:#181818;stroke-width:1.0;"/><line style="stroke:#181818;stroke-width:1.0;" x1="1594.5" x2="1827.5" y1="1109.9336" y2="1109.9336"/><text fill="#000000" font-family="sans-serif" font-size="13" font-weight="bold" lengthAdjust="spacing" textLength="14" x="1601.5" y="1104.6709">30</text><text fill="#000000" font-family="sans-serif" font-size="13" lengthAdjust="spacing" textLength="202" x="1619.5" y="1104.6709">anyEmployeeHasThisUserId(email)</text><polygon fill="#181818" points="1605.5,1137.2246,1595.5,1141.2246,1605.5,1145.2246,1601.5,1141.2246" style="stroke:#181818;stroke-width:1.0;"/><line style="stroke:#181818;stroke-width:1.0;stroke-dasharray:2.0,2.0;" x1="1599.5" x2="1837.5" y1="1141.2246" y2="1141.2246"/><text fill="#000000" font-family="sans-serif" font-size="13" font-weight="bold" lengthAdjust="spacing" textLength="14" x="1611.5" y="1135.9619">31</text><text fill="#000000" font-family="sans-serif" font-size="13" lengthAdjust="spacing" textLength="61" x="1629.5" y="1135.9619">True/False</text><polygon fill="#181818" points="490,1175.5156,480,1179.5156,490,1183.5156,486,1179.5156" style="stroke:#181818;stroke-width:1.0;"/><line style="stroke:#181818;stroke-width:1.0;stroke-dasharray:2.0,2.0;" x1="484" x2="1588.5" y1="1179.5156" y2="1179.5156"/><text fill="#000000" font-family="sans-serif" font-size="13" font-weight="bold" lengthAdjust="spacing" textLength="14" x="496" y="1174.2529">32</text><text fill="#000000" font-family="sans-serif" font-size="13" lengthAdjust="spacing" textLength="56" x="514" y="1174.2529">employee</text><polygon fill="#181818" points="1431.5,1206.8066,1441.5,1210.8066,1431.5,1214.8066,1435.5,1210.8066" style="stroke:#181818;stroke-width:1.0;"/><line style="stroke:#181818;stroke-width:1.0;" x1="479" x2="1437.5" y1="1210.8066" y2="1210.8066"/><text fill="#000000" font-family="sans-serif" font-size="13" font-weight="bold" lengthAdjust="spacing" textLength="14" x="486" y="1205.5439">33</text><text fill="#000000" font-family="sans-serif" font-size="13" lengthAdjust="spacing" textLength="130" x="504" y="1205.5439">createSkill(Skill name)</text><polygon fill="#181818" points="1876.5,1238.0977,1886.5,1242.0977,1876.5,1246.0977,1880.5,1242.0977" style="stroke:#181818;stroke-width:1.0;"/><line style="stroke:#181818;stroke-width:1.0;" x1="1453.5" x2="1882.5" y1="1242.0977" y2="1242.0977"/><text fill="#000000" font-family="sans-serif" font-size="13" font-weight="bold" lengthAdjust="spacing" textLength="14" x="1460.5" y="1236.835">34</text><text fill="#000000" font-family="sans-serif" font-size="13" lengthAdjust="spacing" textLength="67" x="1478.5" y="1236.835">create(skill)</text><rect fill="#E3E3E3" height="51.2422" rx="2.5" ry="2.5" style="stroke:#181818;stroke-width:0.5;" width="43" x="1888.5" y="1218.8066"/><text fill="#000000" font-family="sans-serif" font-size="14" lengthAdjust="spacing" textLength="25" x="1897.5" y="1240.9141">Skill</text><text fill="#000000" font-family="sans-serif" font-size="14" lengthAdjust="spacing" textLength="29" x="1895.5" y="1259.5352">:Skill</text><path d="M1915,1286.0488 L1915,1313.0488 L2149,1313.0488 L2149,1296.0488 L2139,1286.0488 L1915,1286.0488 " fill="#FAFAFA" style="stroke:#181818;stroke-width:0.5;"/><path d="M2139,1286.0488 L2139,1296.0488 L2149,1296.0488 L2139,1286.0488 " fill="#FAFAFA" style="stroke:#181818;stroke-width:0.5;"/><text fill="#000000" font-family="sans-serif" font-size="13" lengthAdjust="spacing" textLength="213" x="1921" y="1305.0771">Skill constructor validates Skill name</text><line style="stroke:#181818;stroke-width:1.0;" x1="1453.5" x2="1495.5" y1="1341.6309" y2="1341.6309"/><line style="stroke:#181818;stroke-width:1.0;" x1="1495.5" x2="1495.5" y1="1341.6309" y2="1354.6309"/><line style="stroke:#181818;stroke-width:1.0;" x1="1454.5" x2="1495.5" y1="1354.6309" y2="1354.6309"/><polygon fill="#181818" points="1464.5,1350.6309,1454.5,1354.6309,1464.5,1358.6309,1460.5,1354.6309" style="stroke:#181818;stroke-width:1.0;"/><text fill="#000000" font-family="sans-serif" font-size="13" font-weight="bold" lengthAdjust="spacing" textLength="14" x="1460.5" y="1336.3682">35</text><text fill="#000000" font-family="sans-serif" font-size="13" lengthAdjust="spacing" textLength="77" x="1478.5" y="1336.3682">addSkill(skill)</text><line style="stroke:#181818;stroke-width:1.0;" x1="1453.5" x2="1495.5" y1="1385.9219" y2="1385.9219"/><line style="stroke:#181818;stroke-width:1.0;" x1="1495.5" x2="1495.5" y1="1385.9219" y2="1398.9219"/><line style="stroke:#181818;stroke-width:1.0;" x1="1454.5" x2="1495.5" y1="1398.9219" y2="1398.9219"/><polygon fill="#181818" points="1464.5,1394.9219,1454.5,1398.9219,1464.5,1402.9219,1460.5,1398.9219" style="stroke:#181818;stroke-width:1.0;"/><text fill="#000000" font-family="sans-serif" font-size="13" font-weight="bold" lengthAdjust="spacing" textLength="14" x="1460.5" y="1380.6592">36</text><text fill="#000000" font-family="sans-serif" font-size="13" lengthAdjust="spacing" textLength="99" x="1478.5" y="1380.6592">validateSkill(skill)</text><line style="stroke:#181818;stroke-width:1.0;stroke-dasharray:2.0,2.0;" x1="1453.5" x2="1495.5" y1="1430.2129" y2="1430.2129"/><line style="stroke:#181818;stroke-width:1.0;stroke-dasharray:2.0,2.0;" x1="1495.5" x2="1495.5" y1="1430.2129" y2="1443.2129"/><line style="stroke:#181818;stroke-width:1.0;stroke-dasharray:2.0,2.0;" x1="1454.5" x2="1495.5" y1="1443.2129" y2="1443.2129"/><polygon fill="#181818" points="1464.5,1439.2129,1454.5,1443.2129,1464.5,1447.2129,1460.5,1443.2129" style="stroke:#181818;stroke-width:1.0;"/><text fill="#000000" font-family="sans-serif" font-size="13" font-weight="bold" lengthAdjust="spacing" textLength="14" x="1460.5" y="1424.9502">37</text><text fill="#000000" font-family="sans-serif" font-size="13" lengthAdjust="spacing" textLength="4" x="1478.5" y="1424.9502">&#160;</text><line style="stroke:#181818;stroke-width:1.0;stroke-dasharray:2.0,2.0;" x1="1453.5" x2="1495.5" y1="1479.5039" y2="1479.5039"/><line style="stroke:#181818;stroke-width:1.0;stroke-dasharray:2.0,2.0;" x1="1495.5" x2="1495.5" y1="1479.5039" y2="1492.5039"/><line style="stroke:#181818;stroke-width:1.0;stroke-dasharray:2.0,2.0;" x1="1448.5" x2="1495.5" y1="1492.5039" y2="1492.5039"/><polygon fill="#181818" points="1458.5,1488.5039,1448.5,1492.5039,1458.5,1496.5039,1454.5,1492.5039" style="stroke:#181818;stroke-width:1.0;"/><text fill="#000000" font-family="sans-serif" font-size="13" font-weight="bold" lengthAdjust="spacing" textLength="14" x="1460.5" y="1474.2412">38</text><text fill="#000000" font-family="sans-serif" font-size="13" lengthAdjust="spacing" textLength="4" x="1478.5" y="1474.2412">&#160;</text><polygon fill="#181818" points="490,1514.7949,480,1518.7949,490,1522.7949,486,1518.7949" style="stroke:#181818;stroke-width:1.0;"/><line style="stroke:#181818;stroke-width:1.0;stroke-dasharray:2.0,2.0;" x1="484" x2="1447.5" y1="1518.7949" y2="1518.7949"/><text fill="#000000" font-family="sans-serif" font-size="13" font-weight="bold" lengthAdjust="spacing" textLength="14" x="496" y="1513.5322">39</text><text fill="#000000" font-family="sans-serif" font-size="13" lengthAdjust="spacing" textLength="23" x="514" y="1513.5322">skill</text><polygon fill="#181818" points="320,1546.0859,310,1550.0859,320,1554.0859,316,1550.0859" style="stroke:#181818;stroke-width:1.0;"/><line style="stroke:#181818;stroke-width:1.0;stroke-dasharray:2.0,2.0;" x1="314" x2="473" y1="1550.0859" y2="1550.0859"/><text fill="#000000" font-family="sans-serif" font-size="13" font-weight="bold" lengthAdjust="spacing" textLength="14" x="326" y="1544.8232">40</text><text fill="#000000" font-family="sans-serif" font-size="13" lengthAdjust="spacing" textLength="23" x="344" y="1544.8232">skill</text><polygon fill="#181818" points="34,1577.377,24,1581.377,34,1585.377,30,1581.377" style="stroke:#181818;stroke-width:1.0;"/><line style="stroke:#181818;stroke-width:1.0;stroke-dasharray:2.0,2.0;" x1="28" x2="303" y1="1581.377" y2="1581.377"/><text fill="#000000" font-family="sans-serif" font-size="13" font-weight="bold" lengthAdjust="spacing" textLength="14" x="40" y="1576.1143">41</text><text fill="#000000" font-family="sans-serif" font-size="13" lengthAdjust="spacing" textLength="158" x="58" y="1576.1143">displays operation success</text><!--SRC=[rLVBRjiw4DthAmXlwXG8kZUA0cbk7aQTDf0Tt4qth3InYCYaIb9DtQ_laDI3D2dRxQxQ62PdpfoXpWn7weNnXagw8pl1HL59iGEYPGkP6dOQMhpGBQprlWOYeT2KRslVG5Mq5A-CRyaphHLa6MsruEtk6yWiUrEn4iYp4FgR-9dHGWj9PlVvmunGHQx-UyWGGxE2DPHhCbjSIw0QrY-ihf-MrkPfEMroBRYMegv1MjFhJRuwCCwX4OfXK0RAsWmB-pKpUI3Jq4Lw7bzv3F2ukjg47bUjhcvfGKj0U_C7E6vIpGGVexbydpRt-SrZwDuga6jG2itH_sdyvz9Vt-IXlP1Rojcl0_p5L_ubkM5HqblJk4Z4Tt4O-Lte0Bkc5dk0WCHDj6YTRnuUeyHxVmpMU_MseQ5zrsXbVwt9-jDojSgCdDWF58CLKaQw1_-Gomye7B90snT5j2255GsXXCChKGPdC1z0K6d38ZfV8eQ1Mg3elxUWj28brPJCFrDJ91Kud0lhKq84uzFG-mPKZmDb1sJp8HpX7CXf9geIhufGzB88b9SZkKBmPoPtzeMTmwcpTraTZ__1bfRn6MilOXyWs58SbgttYB85RMH-Yzsca_hy8ZPELAhpNNA5FQY0UI9kghm3uFUNbnF8VgKFFjuPfg0ZqgOxE9PJZS1FTS2sJINYsO4TGKhGj50HhwxpE6hNhPG8wBMQr57spMgigmx320Yx4c8njHBRBPJ_CrtbRGrpREm99Dl38XYJOOSps-2Ly-xMt1wpEDmOhnFEifp3ZhBwuXXccpJqQo9WDHpwU58d4Q8JYdNkTz6F-v3yFohvOw9FtpCfraSLVn8cqdl4AGr15YVUISHpukOatbCBqU248mcIgeX_ZGPc4umCr_pEN5NSShcdAgOJKiAB-0nWSvuEUQokmCyxn4D8m8l5f9MeZwc3xHBNz1TBDSO_aVRv-lvhaVzPTn-oS6ECLL4_iamfA4oYct_8j6xwQIYqwGAwq4uaVM0KogPYwipeILXpQ0vtGYB-2KKWiKZ2rz4VraHg8RJjeuaopkzEJnrHTOJbWJM0I7PaVFksHvjxmrl_S87-acqhJSHpDsFw-ouspaqAFv7ibymFMZCSdt2s6taT5f91JJAokT6oT8ab-FXsVQJ0EBPsvcUj7vH_6goxoSA9EUKTAS1UsyiJhdPCzFV6QNT1IgQQckuL4Gr8ss-8Qei29vRKUElVo-Ph8Cj-0m00]--></g></svg>