<?xml version="1.0" encoding="us-ascii" standalone="no"?><svg xmlns="http://www.w3.org/2000/svg" xmlns:xlink="http://www.w3.org/1999/xlink" contentStyleType="text/css" height="1344px" preserveAspectRatio="none" style="width:1407px;height:1344px;background:#FFFFFF;" version="1.1" viewBox="0 0 1407 1344" width="1407px" zoomAndPan="magnify"><defs/><g><!--class CreateSkillUI--><g id="elem_CreateSkillUI"><rect codeLine="11" fill="#F1F1F1" height="48" id="CreateSkillUI" rx="2.5" ry="2.5" style="stroke:#181818;stroke-width:0.5;" width="112" x="275" y="58"/><ellipse cx="290" cy="74" fill="#ADD1B2" rx="11" ry="11" style="stroke:#181818;stroke-width:1.0;"/><path d="M292.7656,69.875 Q292.9219,69.6563 293.1094,69.5469 Q293.2969,69.4375 293.5156,69.4375 Q293.8906,69.4375 294.125,69.7031 Q294.3594,69.9531 294.3594,70.5625 L294.3594,72.0156 Q294.3594,72.625 294.125,72.8906 Q293.8906,73.1563 293.5156,73.1563 Q293.1719,73.1563 292.9688,72.9531 Q292.7656,72.7656 292.6563,72.25 Q292.6094,71.8906 292.4219,71.7031 Q292.0938,71.3281 291.4844,71.1094 Q290.875,70.8906 290.25,70.8906 Q289.4844,70.8906 288.8438,71.2188 Q288.2188,71.5469 287.7188,72.2969 Q287.2344,73.0469 287.2344,74.0781 L287.2344,75.1719 Q287.2344,76.4063 288.125,77.2344 Q289.0156,78.0469 290.6094,78.0469 Q291.5469,78.0469 292.2031,77.7969 Q292.5938,77.6406 293.0156,77.2031 Q293.2813,76.9375 293.4219,76.8594 Q293.5781,76.7813 293.7813,76.7813 Q294.1094,76.7813 294.3594,77.0469 Q294.625,77.2969 294.625,77.6406 Q294.625,77.9844 294.2813,78.3906 Q293.7813,78.9688 292.9844,79.2969 Q291.9063,79.75 290.6094,79.75 Q289.0938,79.75 287.8906,79.125 Q286.9063,78.625 286.2188,77.5625 Q285.5313,76.4844 285.5313,75.2031 L285.5313,74.0469 Q285.5313,72.7188 286.1406,71.5781 Q286.7656,70.4219 287.8594,69.8125 Q288.9531,69.1875 290.1875,69.1875 Q290.9219,69.1875 291.5625,69.3594 Q292.2188,69.5156 292.7656,69.875 Z " fill="#000000"/><text fill="#000000" font-family="sans-serif" font-size="14" lengthAdjust="spacing" textLength="80" x="304" y="79.7969">CreateSkillUI</text><line style="stroke:#181818;stroke-width:0.5;" x1="276" x2="386" y1="90" y2="90"/><line style="stroke:#181818;stroke-width:0.5;" x1="276" x2="386" y1="98" y2="98"/></g><!--class CreateSkillController--><g id="elem_CreateSkillController"><rect codeLine="14" fill="#F1F1F1" height="85.2422" id="CreateSkillController" rx="2.5" ry="2.5" style="stroke:#181818;stroke-width:0.5;" width="451" x="422.5" y="39.5"/><ellipse cx="578.75" cy="55.5" fill="#ADD1B2" rx="11" ry="11" style="stroke:#181818;stroke-width:1.0;"/><path d="M581.5156,51.375 Q581.6719,51.1563 581.8594,51.0469 Q582.0469,50.9375 582.2656,50.9375 Q582.6406,50.9375 582.875,51.2031 Q583.1094,51.4531 583.1094,52.0625 L583.1094,53.5156 Q583.1094,54.125 582.875,54.3906 Q582.6406,54.6563 582.2656,54.6563 Q581.9219,54.6563 581.7188,54.4531 Q581.5156,54.2656 581.4063,53.75 Q581.3594,53.3906 581.1719,53.2031 Q580.8438,52.8281 580.2344,52.6094 Q579.625,52.3906 579,52.3906 Q578.2344,52.3906 577.5938,52.7188 Q576.9688,53.0469 576.4688,53.7969 Q575.9844,54.5469 575.9844,55.5781 L575.9844,56.6719 Q575.9844,57.9063 576.875,58.7344 Q577.7656,59.5469 579.3594,59.5469 Q580.2969,59.5469 580.9531,59.2969 Q581.3438,59.1406 581.7656,58.7031 Q582.0313,58.4375 582.1719,58.3594 Q582.3281,58.2813 582.5313,58.2813 Q582.8594,58.2813 583.1094,58.5469 Q583.375,58.7969 583.375,59.1406 Q583.375,59.4844 583.0313,59.8906 Q582.5313,60.4688 581.7344,60.7969 Q580.6563,61.25 579.3594,61.25 Q577.8438,61.25 576.6406,60.625 Q575.6563,60.125 574.9688,59.0625 Q574.2813,57.9844 574.2813,56.7031 L574.2813,55.5469 Q574.2813,54.2188 574.8906,53.0781 Q575.5156,51.9219 576.6094,51.3125 Q577.7031,50.6875 578.9375,50.6875 Q579.6719,50.6875 580.3125,50.8594 Q580.9688,51.0156 581.5156,51.375 Z " fill="#000000"/><text fill="#000000" font-family="sans-serif" font-size="14" lengthAdjust="spacing" textLength="130" x="599.25" y="61.2969">CreateSkillController</text><line style="stroke:#181818;stroke-width:0.5;" x1="423.5" x2="872.5" y1="71.5" y2="71.5"/><line style="stroke:#181818;stroke-width:0.5;" x1="423.5" x2="872.5" y1="79.5" y2="79.5"/><text fill="#000000" font-family="sans-serif" font-size="14" lengthAdjust="spacing" textLength="439" x="428.5" y="98.6074">+CreateSkillController(employeeRepository,AuthenticationRepository)</text><text fill="#000000" font-family="sans-serif" font-size="14" lengthAdjust="spacing" textLength="106" x="428.5" y="117.2285">+createSkill(skill)</text></g><!--class Repositories--><g id="elem_Repositories"><rect codeLine="20" fill="#F1F1F1" height="122.4844" id="Repositories" rx="2.5" ry="2.5" style="stroke:#181818;stroke-width:0.5;" width="208" x="997" y="21"/><ellipse cx="1057.25" cy="37" fill="#ADD1B2" rx="11" ry="11" style="stroke:#181818;stroke-width:1.0;"/><path d="M1060.0156,32.875 Q1060.1719,32.6563 1060.3594,32.5469 Q1060.5469,32.4375 1060.7656,32.4375 Q1061.1406,32.4375 1061.375,32.7031 Q1061.6094,32.9531 1061.6094,33.5625 L1061.6094,35.0156 Q1061.6094,35.625 1061.375,35.8906 Q1061.1406,36.1563 1060.7656,36.1563 Q1060.4219,36.1563 1060.2188,35.9531 Q1060.0156,35.7656 1059.9063,35.25 Q1059.8594,34.8906 1059.6719,34.7031 Q1059.3438,34.3281 1058.7344,34.1094 Q1058.125,33.8906 1057.5,33.8906 Q1056.7344,33.8906 1056.0938,34.2188 Q1055.4688,34.5469 1054.9688,35.2969 Q1054.4844,36.0469 1054.4844,37.0781 L1054.4844,38.1719 Q1054.4844,39.4063 1055.375,40.2344 Q1056.2656,41.0469 1057.8594,41.0469 Q1058.7969,41.0469 1059.4531,40.7969 Q1059.8438,40.6406 1060.2656,40.2031 Q1060.5313,39.9375 1060.6719,39.8594 Q1060.8281,39.7813 1061.0313,39.7813 Q1061.3594,39.7813 1061.6094,40.0469 Q1061.875,40.2969 1061.875,40.6406 Q1061.875,40.9844 1061.5313,41.3906 Q1061.0313,41.9688 1060.2344,42.2969 Q1059.1563,42.75 1057.8594,42.75 Q1056.3438,42.75 1055.1406,42.125 Q1054.1563,41.625 1053.4688,40.5625 Q1052.7813,39.4844 1052.7813,38.2031 L1052.7813,37.0469 Q1052.7813,35.7188 1053.3906,34.5781 Q1054.0156,33.4219 1055.1094,32.8125 Q1056.2031,32.1875 1057.4375,32.1875 Q1058.1719,32.1875 1058.8125,32.3594 Q1059.4688,32.5156 1060.0156,32.875 Z " fill="#000000"/><text fill="#000000" font-family="sans-serif" font-size="14" lengthAdjust="spacing" textLength="79" x="1077.75" y="42.7969">Repositories</text><line style="stroke:#181818;stroke-width:0.5;" x1="998" x2="1204" y1="53" y2="53"/><line style="stroke:#181818;stroke-width:0.5;" x1="998" x2="1204" y1="61" y2="61"/><text fill="#000000" font-family="sans-serif" font-size="14" lengthAdjust="spacing" textLength="94" x="1003" y="80.1074">-Repositories()</text><text fill="#000000" font-family="sans-serif" font-size="14" lengthAdjust="spacing" textLength="182" x="1003" y="98.7285">+getInstance() : Repositories</text><text fill="#000000" font-family="sans-serif" font-size="14" lengthAdjust="spacing" textLength="168" x="1003" y="117.3496">+getEmployeeRepository()</text><text fill="#000000" font-family="sans-serif" font-size="14" lengthAdjust="spacing" textLength="196" x="1003" y="135.9707">+getAuthenticationRepository()</text></g><!--class AuthenticationRepository--><g id="elem_AuthenticationRepository"><rect codeLine="27" fill="#F1F1F1" height="66.6211" id="AuthenticationRepository" rx="2.5" ry="2.5" style="stroke:#181818;stroke-width:0.5;" width="190" x="537" y="213"/><ellipse cx="552" cy="229" fill="#ADD1B2" rx="11" ry="11" style="stroke:#181818;stroke-width:1.0;"/><path d="M554.7656,224.875 Q554.9219,224.6563 555.1094,224.5469 Q555.2969,224.4375 555.5156,224.4375 Q555.8906,224.4375 556.125,224.7031 Q556.3594,224.9531 556.3594,225.5625 L556.3594,227.0156 Q556.3594,227.625 556.125,227.8906 Q555.8906,228.1563 555.5156,228.1563 Q555.1719,228.1563 554.9688,227.9531 Q554.7656,227.7656 554.6563,227.25 Q554.6094,226.8906 554.4219,226.7031 Q554.0938,226.3281 553.4844,226.1094 Q552.875,225.8906 552.25,225.8906 Q551.4844,225.8906 550.8438,226.2188 Q550.2188,226.5469 549.7188,227.2969 Q549.2344,228.0469 549.2344,229.0781 L549.2344,230.1719 Q549.2344,231.4063 550.125,232.2344 Q551.0156,233.0469 552.6094,233.0469 Q553.5469,233.0469 554.2031,232.7969 Q554.5938,232.6406 555.0156,232.2031 Q555.2813,231.9375 555.4219,231.8594 Q555.5781,231.7813 555.7813,231.7813 Q556.1094,231.7813 556.3594,232.0469 Q556.625,232.2969 556.625,232.6406 Q556.625,232.9844 556.2813,233.3906 Q555.7813,233.9688 554.9844,234.2969 Q553.9063,234.75 552.6094,234.75 Q551.0938,234.75 549.8906,234.125 Q548.9063,233.625 548.2188,232.5625 Q547.5313,231.4844 547.5313,230.2031 L547.5313,229.0469 Q547.5313,227.7188 548.1406,226.5781 Q548.7656,225.4219 549.8594,224.8125 Q550.9531,224.1875 552.1875,224.1875 Q552.9219,224.1875 553.5625,224.3594 Q554.2188,224.5156 554.7656,224.875 Z " fill="#000000"/><text fill="#000000" font-family="sans-serif" font-size="14" lengthAdjust="spacing" textLength="158" x="566" y="234.7969">AuthenticationRepository</text><line style="stroke:#181818;stroke-width:0.5;" x1="538" x2="726" y1="245" y2="245"/><line style="stroke:#181818;stroke-width:0.5;" x1="538" x2="726" y1="253" y2="253"/><text fill="#000000" font-family="sans-serif" font-size="14" lengthAdjust="spacing" textLength="165" x="543" y="272.1074">+getCurrentUserSession()</text></g><!--class UserSession--><g id="elem_UserSession"><rect codeLine="31" fill="#F1F1F1" height="85.2422" id="UserSession" rx="2.5" ry="2.5" style="stroke:#181818;stroke-width:0.5;" width="156" x="834" y="204"/><ellipse cx="869.25" cy="220" fill="#ADD1B2" rx="11" ry="11" style="stroke:#181818;stroke-width:1.0;"/><path d="M872.0156,215.875 Q872.1719,215.6563 872.3594,215.5469 Q872.5469,215.4375 872.7656,215.4375 Q873.1406,215.4375 873.375,215.7031 Q873.6094,215.9531 873.6094,216.5625 L873.6094,218.0156 Q873.6094,218.625 873.375,218.8906 Q873.1406,219.1563 872.7656,219.1563 Q872.4219,219.1563 872.2188,218.9531 Q872.0156,218.7656 871.9063,218.25 Q871.8594,217.8906 871.6719,217.7031 Q871.3438,217.3281 870.7344,217.1094 Q870.125,216.8906 869.5,216.8906 Q868.7344,216.8906 868.0938,217.2188 Q867.4688,217.5469 866.9688,218.2969 Q866.4844,219.0469 866.4844,220.0781 L866.4844,221.1719 Q866.4844,222.4063 867.375,223.2344 Q868.2656,224.0469 869.8594,224.0469 Q870.7969,224.0469 871.4531,223.7969 Q871.8438,223.6406 872.2656,223.2031 Q872.5313,222.9375 872.6719,222.8594 Q872.8281,222.7813 873.0313,222.7813 Q873.3594,222.7813 873.6094,223.0469 Q873.875,223.2969 873.875,223.6406 Q873.875,223.9844 873.5313,224.3906 Q873.0313,224.9688 872.2344,225.2969 Q871.1563,225.75 869.8594,225.75 Q868.3438,225.75 867.1406,225.125 Q866.1563,224.625 865.4688,223.5625 Q864.7813,222.4844 864.7813,221.2031 L864.7813,220.0469 Q864.7813,218.7188 865.3906,217.5781 Q866.0156,216.4219 867.1094,215.8125 Q868.2031,215.1875 869.4375,215.1875 Q870.1719,215.1875 870.8125,215.3594 Q871.4688,215.5156 872.0156,215.875 Z " fill="#000000"/><text fill="#000000" font-family="sans-serif" font-size="14" lengthAdjust="spacing" textLength="79" x="887.75" y="225.7969">UserSession</text><line style="stroke:#181818;stroke-width:0.5;" x1="835" x2="989" y1="236" y2="236"/><line style="stroke:#181818;stroke-width:0.5;" x1="835" x2="989" y1="244" y2="244"/><text fill="#000000" font-family="sans-serif" font-size="14" lengthAdjust="spacing" textLength="144" x="840" y="263.1074">+isLoggedInWithRole()</text><text fill="#000000" font-family="sans-serif" font-size="14" lengthAdjust="spacing" textLength="78" x="840" y="281.7285">+getUserId()</text></g><!--class OrganizationRepository--><g id="elem_OrganizationRepository"><rect codeLine="36" fill="#F1F1F1" height="66.6211" id="OrganizationRepository" rx="2.5" ry="2.5" style="stroke:#181818;stroke-width:0.5;" width="242" x="1025" y="213"/><ellipse cx="1067.9" cy="229" fill="#ADD1B2" rx="11" ry="11" style="stroke:#181818;stroke-width:1.0;"/><path d="M1070.6656,224.875 Q1070.8219,224.6563 1071.0094,224.5469 Q1071.1969,224.4375 1071.4156,224.4375 Q1071.7906,224.4375 1072.025,224.7031 Q1072.2594,224.9531 1072.2594,225.5625 L1072.2594,227.0156 Q1072.2594,227.625 1072.025,227.8906 Q1071.7906,228.1563 1071.4156,228.1563 Q1071.0719,228.1563 1070.8688,227.9531 Q1070.6656,227.7656 1070.5563,227.25 Q1070.5094,226.8906 1070.3219,226.7031 Q1069.9938,226.3281 1069.3844,226.1094 Q1068.775,225.8906 1068.15,225.8906 Q1067.3844,225.8906 1066.7438,226.2188 Q1066.1188,226.5469 1065.6188,227.2969 Q1065.1344,228.0469 1065.1344,229.0781 L1065.1344,230.1719 Q1065.1344,231.4063 1066.025,232.2344 Q1066.9156,233.0469 1068.5094,233.0469 Q1069.4469,233.0469 1070.1031,232.7969 Q1070.4938,232.6406 1070.9156,232.2031 Q1071.1813,231.9375 1071.3219,231.8594 Q1071.4781,231.7813 1071.6813,231.7813 Q1072.0094,231.7813 1072.2594,232.0469 Q1072.525,232.2969 1072.525,232.6406 Q1072.525,232.9844 1072.1813,233.3906 Q1071.6813,233.9688 1070.8844,234.2969 Q1069.8063,234.75 1068.5094,234.75 Q1066.9938,234.75 1065.7906,234.125 Q1064.8063,233.625 1064.1188,232.5625 Q1063.4313,231.4844 1063.4313,230.2031 L1063.4313,229.0469 Q1063.4313,227.7188 1064.0406,226.5781 Q1064.6656,225.4219 1065.7594,224.8125 Q1066.8531,224.1875 1068.0875,224.1875 Q1068.8219,224.1875 1069.4625,224.3594 Q1070.1188,224.5156 1070.6656,224.875 Z " fill="#000000"/><text fill="#000000" font-family="sans-serif" font-size="14" lengthAdjust="spacing" textLength="148" x="1088.1" y="234.7969">OrganizationRepository</text><line style="stroke:#181818;stroke-width:0.5;" x1="1026" x2="1266" y1="245" y2="245"/><line style="stroke:#181818;stroke-width:0.5;" x1="1026" x2="1266" y1="253" y2="253"/><text fill="#000000" font-family="sans-serif" font-size="14" lengthAdjust="spacing" textLength="230" x="1031" y="272.1074">+getOrganizationByUserEmail(email)</text></g><!--class Organization--><g id="elem_Organization"><rect codeLine="40" fill="#F1F1F1" height="196.9688" id="Organization" rx="2.5" ry="2.5" style="stroke:#181818;stroke-width:0.5;" width="465" x="857.5" y="368"/><ellipse cx="1045.75" cy="384" fill="#ADD1B2" rx="11" ry="11" style="stroke:#181818;stroke-width:1.0;"/><path d="M1048.5156,379.875 Q1048.6719,379.6563 1048.8594,379.5469 Q1049.0469,379.4375 1049.2656,379.4375 Q1049.6406,379.4375 1049.875,379.7031 Q1050.1094,379.9531 1050.1094,380.5625 L1050.1094,382.0156 Q1050.1094,382.625 1049.875,382.8906 Q1049.6406,383.1563 1049.2656,383.1563 Q1048.9219,383.1563 1048.7188,382.9531 Q1048.5156,382.7656 1048.4063,382.25 Q1048.3594,381.8906 1048.1719,381.7031 Q1047.8438,381.3281 1047.2344,381.1094 Q1046.625,380.8906 1046,380.8906 Q1045.2344,380.8906 1044.5938,381.2188 Q1043.9688,381.5469 1043.4688,382.2969 Q1042.9844,383.0469 1042.9844,384.0781 L1042.9844,385.1719 Q1042.9844,386.4063 1043.875,387.2344 Q1044.7656,388.0469 1046.3594,388.0469 Q1047.2969,388.0469 1047.9531,387.7969 Q1048.3438,387.6406 1048.7656,387.2031 Q1049.0313,386.9375 1049.1719,386.8594 Q1049.3281,386.7813 1049.5313,386.7813 Q1049.8594,386.7813 1050.1094,387.0469 Q1050.375,387.2969 1050.375,387.6406 Q1050.375,387.9844 1050.0313,388.3906 Q1049.5313,388.9688 1048.7344,389.2969 Q1047.6563,389.75 1046.3594,389.75 Q1044.8438,389.75 1043.6406,389.125 Q1042.6563,388.625 1041.9688,387.5625 Q1041.2813,386.4844 1041.2813,385.2031 L1041.2813,384.0469 Q1041.2813,382.7188 1041.8906,381.5781 Q1042.5156,380.4219 1043.6094,379.8125 Q1044.7031,379.1875 1045.9375,379.1875 Q1046.6719,379.1875 1047.3125,379.3594 Q1047.9688,379.5156 1048.5156,379.875 Z " fill="#000000"/><text fill="#000000" font-family="sans-serif" font-size="14" lengthAdjust="spacing" textLength="80" x="1066.25" y="389.7969">Organization</text><line style="stroke:#181818;stroke-width:0.5;" x1="858.5" x2="1321.5" y1="400" y2="400"/><text fill="#000000" font-family="sans-serif" font-size="14" lengthAdjust="spacing" textLength="81" x="863.5" y="419.1074">-String name</text><text fill="#000000" font-family="sans-serif" font-size="14" lengthAdjust="spacing" textLength="114" x="863.5" y="437.7285">-String vatNumber</text><text fill="#000000" font-family="sans-serif" font-size="14" lengthAdjust="spacing" textLength="86" x="863.5" y="456.3496">-String phone</text><text fill="#000000" font-family="sans-serif" font-size="14" lengthAdjust="spacing" textLength="79" x="863.5" y="474.9707">-String email</text><text fill="#000000" font-family="sans-serif" font-size="14" lengthAdjust="spacing" textLength="151" x="863.5" y="493.5918">-Address postalAddress</text><line style="stroke:#181818;stroke-width:0.5;" x1="858.5" x2="1321.5" y1="501.1055" y2="501.1055"/><text fill="#000000" font-family="sans-serif" font-size="14" lengthAdjust="spacing" textLength="112" x="863.5" y="520.2129">-validateSkill(skill)</text><text fill="#000000" font-family="sans-serif" font-size="14" lengthAdjust="spacing" textLength="453" x="863.5" y="538.834">+Organization(name, vatNumber, webSite, phone, email, postalAddress)</text><text fill="#000000" font-family="sans-serif" font-size="14" lengthAdjust="spacing" textLength="147" x="863.5" y="557.4551">-getUserByEmail(email)</text></g><!--class EmployeeRepository--><g id="elem_EmployeeRepository"><rect codeLine="52" fill="#F1F1F1" height="141.1055" id="EmployeeRepository" rx="2.5" ry="2.5" style="stroke:#181818;stroke-width:0.5;" width="224" x="1176" y="626"/><ellipse cx="1218.9" cy="642" fill="#ADD1B2" rx="11" ry="11" style="stroke:#181818;stroke-width:1.0;"/><path d="M1221.6656,637.875 Q1221.8219,637.6563 1222.0094,637.5469 Q1222.1969,637.4375 1222.4156,637.4375 Q1222.7906,637.4375 1223.025,637.7031 Q1223.2594,637.9531 1223.2594,638.5625 L1223.2594,640.0156 Q1223.2594,640.625 1223.025,640.8906 Q1222.7906,641.1563 1222.4156,641.1563 Q1222.0719,641.1563 1221.8688,640.9531 Q1221.6656,640.7656 1221.5563,640.25 Q1221.5094,639.8906 1221.3219,639.7031 Q1220.9938,639.3281 1220.3844,639.1094 Q1219.775,638.8906 1219.15,638.8906 Q1218.3844,638.8906 1217.7438,639.2188 Q1217.1188,639.5469 1216.6188,640.2969 Q1216.1344,641.0469 1216.1344,642.0781 L1216.1344,643.1719 Q1216.1344,644.4063 1217.025,645.2344 Q1217.9156,646.0469 1219.5094,646.0469 Q1220.4469,646.0469 1221.1031,645.7969 Q1221.4938,645.6406 1221.9156,645.2031 Q1222.1813,644.9375 1222.3219,644.8594 Q1222.4781,644.7813 1222.6813,644.7813 Q1223.0094,644.7813 1223.2594,645.0469 Q1223.525,645.2969 1223.525,645.6406 Q1223.525,645.9844 1223.1813,646.3906 Q1222.6813,646.9688 1221.8844,647.2969 Q1220.8063,647.75 1219.5094,647.75 Q1217.9938,647.75 1216.7906,647.125 Q1215.8063,646.625 1215.1188,645.5625 Q1214.4313,644.4844 1214.4313,643.2031 L1214.4313,642.0469 Q1214.4313,640.7188 1215.0406,639.5781 Q1215.6656,638.4219 1216.7594,637.8125 Q1217.8531,637.1875 1219.0875,637.1875 Q1219.8219,637.1875 1220.4625,637.3594 Q1221.1188,637.5156 1221.6656,637.875 Z " fill="#000000"/><text fill="#000000" font-family="sans-serif" font-size="14" lengthAdjust="spacing" textLength="130" x="1239.1" y="647.7969">EmployeeRepository</text><line style="stroke:#181818;stroke-width:0.5;" x1="1177" x2="1399" y1="658" y2="658"/><line style="stroke:#181818;stroke-width:0.5;" x1="1177" x2="1399" y1="666" y2="666"/><text fill="#000000" font-family="sans-serif" font-size="14" lengthAdjust="spacing" textLength="145" x="1182" y="685.1074">-EmployeeRepository()</text><text fill="#000000" font-family="sans-serif" font-size="14" lengthAdjust="spacing" textLength="119" x="1182" y="703.7285">+addSkill(Skill skill)</text><text fill="#000000" font-family="sans-serif" font-size="14" lengthAdjust="spacing" textLength="104" x="1182" y="722.3496">+listEmployees()</text><text fill="#000000" font-family="sans-serif" font-size="14" lengthAdjust="spacing" textLength="112" x="1182" y="740.9707">+emailExists(mail)</text><text fill="#000000" font-family="sans-serif" font-size="14" lengthAdjust="spacing" textLength="212" x="1182" y="759.5918">+getEmployeeByUserEmail(email)</text></g><!--class Employee--><g id="elem_Employee"><rect codeLine="61" fill="#F1F1F1" height="345.9375" id="Employee" rx="2.5" ry="2.5" style="stroke:#181818;stroke-width:0.5;" width="189" x="1024.5" y="846"/><ellipse cx="1083.75" cy="862" fill="#ADD1B2" rx="11" ry="11" style="stroke:#181818;stroke-width:1.0;"/><path d="M1086.5156,857.875 Q1086.6719,857.6563 1086.8594,857.5469 Q1087.0469,857.4375 1087.2656,857.4375 Q1087.6406,857.4375 1087.875,857.7031 Q1088.1094,857.9531 1088.1094,858.5625 L1088.1094,860.0156 Q1088.1094,860.625 1087.875,860.8906 Q1087.6406,861.1563 1087.2656,861.1563 Q1086.9219,861.1563 1086.7188,860.9531 Q1086.5156,860.7656 1086.4063,860.25 Q1086.3594,859.8906 1086.1719,859.7031 Q1085.8438,859.3281 1085.2344,859.1094 Q1084.625,858.8906 1084,858.8906 Q1083.2344,858.8906 1082.5938,859.2188 Q1081.9688,859.5469 1081.4688,860.2969 Q1080.9844,861.0469 1080.9844,862.0781 L1080.9844,863.1719 Q1080.9844,864.4063 1081.875,865.2344 Q1082.7656,866.0469 1084.3594,866.0469 Q1085.2969,866.0469 1085.9531,865.7969 Q1086.3438,865.6406 1086.7656,865.2031 Q1087.0313,864.9375 1087.1719,864.8594 Q1087.3281,864.7813 1087.5313,864.7813 Q1087.8594,864.7813 1088.1094,865.0469 Q1088.375,865.2969 1088.375,865.6406 Q1088.375,865.9844 1088.0313,866.3906 Q1087.5313,866.9688 1086.7344,867.2969 Q1085.6563,867.75 1084.3594,867.75 Q1082.8438,867.75 1081.6406,867.125 Q1080.6563,866.625 1079.9688,865.5625 Q1079.2813,864.4844 1079.2813,863.2031 L1079.2813,862.0469 Q1079.2813,860.7188 1079.8906,859.5781 Q1080.5156,858.4219 1081.6094,857.8125 Q1082.7031,857.1875 1083.9375,857.1875 Q1084.6719,857.1875 1085.3125,857.3594 Q1085.9688,857.5156 1086.5156,857.875 Z " fill="#000000"/><text fill="#000000" font-family="sans-serif" font-size="14" lengthAdjust="spacing" textLength="62" x="1104.25" y="867.7969">Employee</text><line style="stroke:#181818;stroke-width:0.5;" x1="1025.5" x2="1212.5" y1="878" y2="878"/><text fill="#000000" font-family="sans-serif" font-size="14" lengthAdjust="spacing" textLength="81" x="1030.5" y="897.1074">-String name</text><text fill="#000000" font-family="sans-serif" font-size="14" lengthAdjust="spacing" textLength="95" x="1030.5" y="915.7285">-Date birthdate</text><text fill="#000000" font-family="sans-serif" font-size="14" lengthAdjust="spacing" textLength="134" x="1030.5" y="934.3496">-Date admission date</text><text fill="#000000" font-family="sans-serif" font-size="14" lengthAdjust="spacing" textLength="151" x="1030.5" y="952.9707">-Address postalAddress</text><text fill="#000000" font-family="sans-serif" font-size="14" lengthAdjust="spacing" textLength="86" x="1030.5" y="971.5918">-String phone</text><text fill="#000000" font-family="sans-serif" font-size="14" lengthAdjust="spacing" textLength="79" x="1030.5" y="990.2129">-String email</text><text fill="#000000" font-family="sans-serif" font-size="14" lengthAdjust="spacing" textLength="117" x="1030.5" y="1008.834">-String ID doc type</text><text fill="#000000" font-family="sans-serif" font-size="14" lengthAdjust="spacing" textLength="177" x="1030.5" y="1027.4551">-String ID document number</text><text fill="#000000" font-family="sans-serif" font-size="14" lengthAdjust="spacing" textLength="122" x="1030.5" y="1046.0762">-String Taxpayer ID</text><text fill="#000000" font-family="sans-serif" font-size="14" lengthAdjust="spacing" textLength="57" x="1030.5" y="1064.6973">-Skill skill</text><line style="stroke:#181818;stroke-width:0.5;" x1="1025.5" x2="1212.5" y1="1072.2109" y2="1072.2109"/><text fill="#000000" font-family="sans-serif" font-size="14" lengthAdjust="spacing" textLength="166" x="1030.5" y="1091.3184">+CompareTo(TaxPayerID)</text><text fill="#000000" font-family="sans-serif" font-size="14" lengthAdjust="spacing" textLength="55" x="1030.5" y="1109.9395">+Clone()</text><text fill="#000000" font-family="sans-serif" font-size="14" lengthAdjust="spacing" textLength="67" x="1030.5" y="1128.5605">+toString()</text><text fill="#000000" font-family="sans-serif" font-size="14" lengthAdjust="spacing" textLength="127" x="1030.5" y="1147.1816">+hasThisEmail(mail)</text><text fill="#000000" font-family="sans-serif" font-size="14" lengthAdjust="spacing" textLength="106" x="1030.5" y="1165.8027">+createSkill(skill)</text><text fill="#000000" font-family="sans-serif" font-size="14" lengthAdjust="spacing" textLength="90" x="1030.5" y="1184.4238">+addSkill(skill)</text></g><!--class Skill--><g id="elem_Skill"><rect codeLine="81" fill="#F1F1F1" height="66.6211" id="Skill" rx="2.5" ry="2.5" style="stroke:#181818;stroke-width:0.5;" width="117" x="1060.5" y="1271"/><ellipse cx="1102.5" cy="1287" fill="#ADD1B2" rx="11" ry="11" style="stroke:#181818;stroke-width:1.0;"/><path d="M1105.2656,1282.875 Q1105.4219,1282.6563 1105.6094,1282.5469 Q1105.7969,1282.4375 1106.0156,1282.4375 Q1106.3906,1282.4375 1106.625,1282.7031 Q1106.8594,1282.9531 1106.8594,1283.5625 L1106.8594,1285.0156 Q1106.8594,1285.625 1106.625,1285.8906 Q1106.3906,1286.1563 1106.0156,1286.1563 Q1105.6719,1286.1563 1105.4688,1285.9531 Q1105.2656,1285.7656 1105.1563,1285.25 Q1105.1094,1284.8906 1104.9219,1284.7031 Q1104.5938,1284.3281 1103.9844,1284.1094 Q1103.375,1283.8906 1102.75,1283.8906 Q1101.9844,1283.8906 1101.3438,1284.2188 Q1100.7188,1284.5469 1100.2188,1285.2969 Q1099.7344,1286.0469 1099.7344,1287.0781 L1099.7344,1288.1719 Q1099.7344,1289.4063 1100.625,1290.2344 Q1101.5156,1291.0469 1103.1094,1291.0469 Q1104.0469,1291.0469 1104.7031,1290.7969 Q1105.0938,1290.6406 1105.5156,1290.2031 Q1105.7813,1289.9375 1105.9219,1289.8594 Q1106.0781,1289.7813 1106.2813,1289.7813 Q1106.6094,1289.7813 1106.8594,1290.0469 Q1107.125,1290.2969 1107.125,1290.6406 Q1107.125,1290.9844 1106.7813,1291.3906 Q1106.2813,1291.9688 1105.4844,1292.2969 Q1104.4063,1292.75 1103.1094,1292.75 Q1101.5938,1292.75 1100.3906,1292.125 Q1099.4063,1291.625 1098.7188,1290.5625 Q1098.0313,1289.4844 1098.0313,1288.2031 L1098.0313,1287.0469 Q1098.0313,1285.7188 1098.6406,1284.5781 Q1099.2656,1283.4219 1100.3594,1282.8125 Q1101.4531,1282.1875 1102.6875,1282.1875 Q1103.4219,1282.1875 1104.0625,1282.3594 Q1104.7188,1282.5156 1105.2656,1282.875 Z " fill="#000000"/><text fill="#000000" font-family="sans-serif" font-size="14" lengthAdjust="spacing" textLength="25" x="1122.5" y="1292.7969">Skill</text><line style="stroke:#181818;stroke-width:0.5;" x1="1061.5" x2="1176.5" y1="1303" y2="1303"/><text fill="#000000" font-family="sans-serif" font-size="14" lengthAdjust="spacing" textLength="105" x="1066.5" y="1322.1074">-String skillName</text><line style="stroke:#181818;stroke-width:0.5;" x1="1061.5" x2="1176.5" y1="1329.6211" y2="1329.6211"/></g><g id="elem_GMN12"><path d="M6,59.5 L6,104.082 L240,104.082 L240,69.5 L230,59.5 L6,59.5 " fill="#FEFFDD" style="stroke:#181818;stroke-width:0.5;"/><path d="M230,59.5 L230,69.5 L240,69.5 L230,59.5 " fill="#FEFFDD" style="stroke:#181818;stroke-width:1.0;"/><text fill="#000000" font-family="sans-serif" font-size="13" lengthAdjust="spacing" textLength="213" x="12" y="78.5283">- userEmail and userRole is obtained</text><text fill="#000000" font-family="sans-serif" font-size="13" lengthAdjust="spacing" textLength="129" x="12" y="95.8193">from the user session.</text></g><!--link GMN12 to CreateSkillController--><g id="link_GMN12_CreateSkillController"><path d="M168.04,59.4 C212.7,37 274.5,6 274.5,6 C274.5,6 386.5,6 386.5,6 C386.5,6 441.82,22.08 501.58,39.45 " fill="none" id="GMN12-CreateSkillController" style="stroke:#181818;stroke-width:1.0;stroke-dasharray:7.0,7.0;"/></g><!--link Repositories to Repositories--><g id="link_Repositories_Repositories"><path codeLine="93" d="M1205.26,65.88 C1225.58,67.75 1240,73.12 1240,82 C1240,90.88 1231.5548,95.7002 1211.2348,97.5702 " fill="none" id="Repositories-to-Repositories" style="stroke:#181818;stroke-width:1.0;"/><polygon fill="#181818" points="1205.26,98.12,1214.5887,101.2784,1210.239,97.6618,1213.8556,93.3121,1205.26,98.12" style="stroke:#181818;stroke-width:1.0;"/><text fill="#000000" font-family="sans-serif" font-size="13" lengthAdjust="spacing" textLength="49" x="1246" y="87.5283">instance</text></g><!--link CreateSkillUI to CreateSkillController--><g id="link_CreateSkillUI_CreateSkillController"><path codeLine="94" d="M387.24,82 C400.25,82 406.98,82 416.27,82 " fill="none" id="CreateSkillUI-to-CreateSkillController" style="stroke:#181818;stroke-width:1.0;stroke-dasharray:7.0,7.0;"/><polygon fill="#181818" points="422.27,82,413.27,78,417.27,82,413.27,86,422.27,82" style="stroke:#181818;stroke-width:1.0;"/></g><!--link CreateSkillController to Repositories--><g id="link_CreateSkillController_Repositories"><path codeLine="95" d="M873.5,82 C916.65,82 953.85,82 990.83,82 " fill="none" id="CreateSkillController-to-Repositories" style="stroke:#181818;stroke-width:1.0;stroke-dasharray:7.0,7.0;"/><polygon fill="#181818" points="996.83,82,987.83,78,991.83,82,987.83,86,996.83,82" style="stroke:#181818;stroke-width:1.0;"/><text fill="#000000" font-family="sans-serif" font-size="13" lengthAdjust="spacing" textLength="67" x="901.75" y="75.0283">repositories</text></g><!--link Repositories to OrganizationRepository--><g id="link_Repositories_OrganizationRepository"><path codeLine="96" d="M1117.63,143.05 C1124.14,166.55 1129.7473,186.828 1135.2773,206.778 " fill="none" id="Repositories-to-OrganizationRepository" style="stroke:#181818;stroke-width:1.0;"/><polygon fill="#181818" points="1136.88,212.56,1138.3306,202.8185,1135.5444,207.7417,1130.6213,204.9555,1136.88,212.56" style="stroke:#181818;stroke-width:1.0;"/><text fill="#000000" font-family="sans-serif" font-size="13" lengthAdjust="spacing" textLength="7" x="1127.5532" y="201.8252">1</text></g><!--link OrganizationRepository to Organization--><g id="link_OrganizationRepository_Organization"><path codeLine="97" d="M1137.62,280.14 C1131.61,303.54 1124.662,330.5585 1116.562,362.1085 " fill="none" id="OrganizationRepository-to-Organization" style="stroke:#181818;stroke-width:1.0;"/><polygon fill="#181818" points="1115.07,367.92,1121.1824,360.1974,1116.3134,363.0771,1113.4337,358.208,1115.07,367.92" style="stroke:#181818;stroke-width:1.0;"/><text fill="#000000" font-family="sans-serif" font-size="13" lengthAdjust="spacing" textLength="77" x="1128" y="334.0283">organizations</text><text fill="#000000" font-family="sans-serif" font-size="13" lengthAdjust="spacing" textLength="5" x="1111.798" y="356.7623">*</text></g><!--link AuthenticationRepository to UserSession--><g id="link_AuthenticationRepository_UserSession"><path codeLine="98" d="M727.19,246.5 C761.91,246.5 794.74,246.5 827.81,246.5 " fill="none" id="AuthenticationRepository-to-UserSession" style="stroke:#181818;stroke-width:1.0;"/><polygon fill="#181818" points="833.81,246.5,824.81,242.5,828.81,246.5,824.81,250.5,833.81,246.5" style="stroke:#181818;stroke-width:1.0;"/><text fill="#000000" font-family="sans-serif" font-size="13" lengthAdjust="spacing" textLength="70" x="745.5" y="239.5283">usersession</text><text fill="#000000" font-family="sans-serif" font-size="13" lengthAdjust="spacing" textLength="7" x="819.0239" y="242.7205">1</text></g><!--link Repositories to AuthenticationRepository--><g id="link_Repositories_AuthenticationRepository"><path codeLine="99" d="M996.91,119.06 C915.82,147.16 809.8793,183.8657 731.5193,211.0157 " fill="none" id="Repositories-to-AuthenticationRepository" style="stroke:#181818;stroke-width:1.0;"/><polygon fill="#181818" points="725.85,212.98,735.6636,213.8131,730.5745,211.3431,733.0445,206.254,725.85,212.98" style="stroke:#181818;stroke-width:1.0;"/><text fill="#000000" font-family="sans-serif" font-size="13" lengthAdjust="spacing" textLength="7" x="734.9436" y="202.5832">1</text></g><!--link Employee to Skill--><g id="link_Employee_Skill"><path codeLine="100" d="M1119,1192.27 C1119,1222.18 1119,1244.19 1119,1264.62 " fill="none" id="Employee-to-Skill" style="stroke:#181818;stroke-width:1.0;"/><polygon fill="#181818" points="1119,1270.62,1123,1261.62,1119,1265.62,1115,1261.62,1119,1270.62" style="stroke:#181818;stroke-width:1.0;"/><text fill="#000000" font-family="sans-serif" font-size="13" lengthAdjust="spacing" textLength="43" x="1120" y="1237.0283">creates</text><text fill="#000000" font-family="sans-serif" font-size="13" lengthAdjust="spacing" textLength="7" x="1111.8523" y="1213.9742">1</text><text fill="#000000" font-family="sans-serif" font-size="13" lengthAdjust="spacing" textLength="5" x="1113.5234" y="1259.6335">*</text></g><!--link Repositories to EmployeeRepository--><g id="link_Repositories_EmployeeRepository"><path codeLine="101" d="M1191.96,143.15 C1237.89,173.51 1284,204 1284,204 C1284,204 1340,368 1340,368 C1340,368 1340,565 1340,565 C1340,565 1330.4103,589.0659 1318.0503,620.0959 " fill="none" id="Repositories-to-EmployeeRepository" style="stroke:#181818;stroke-width:1.0;"/><polygon fill="#181818" points="1315.83,625.67,1322.8765,618.7891,1317.6802,621.0249,1315.4444,615.8287,1315.83,625.67" style="stroke:#181818;stroke-width:1.0;"/><text fill="#000000" font-family="sans-serif" font-size="13" lengthAdjust="spacing" textLength="7" x="1311.339" y="614.527">1</text></g><!--link Organization to Employee--><g id="link_Organization_Employee"><path codeLine="102" d="M1095.15,565.28 C1099.24,642.91 1104.7441,747.3783 1109.6141,839.7483 " fill="none" id="Organization-to-Employee" style="stroke:#181818;stroke-width:1.0;"/><polygon fill="#181818" points="1109.93,845.74,1113.4506,836.5419,1109.6668,840.7469,1105.4617,836.9631,1109.93,845.74" style="stroke:#181818;stroke-width:1.0;"/><text fill="#000000" font-family="sans-serif" font-size="13" lengthAdjust="spacing" textLength="49" x="1107" y="702.0283">employs</text><text fill="#000000" font-family="sans-serif" font-size="13" lengthAdjust="spacing" textLength="7" x="1088.266" y="586.8628">1</text><text fill="#000000" font-family="sans-serif" font-size="13" lengthAdjust="spacing" textLength="5" x="1104.4057" y="834.5403">*</text></g><!--link EmployeeRepository to Employee--><g id="link_EmployeeRepository_Employee"><path codeLine="103" d="M1251.33,767.04 C1238.95,790.52 1227.3279,812.5523 1212.6579,840.3823 " fill="none" id="EmployeeRepository-to-Employee" style="stroke:#181818;stroke-width:1.0;"/><polygon fill="#181818" points="1209.86,845.69,1217.5953,839.5936,1212.1915,841.2669,1210.5183,835.8632,1209.86,845.69" style="stroke:#181818;stroke-width:1.0;"/><text fill="#000000" font-family="sans-serif" font-size="13" lengthAdjust="spacing" textLength="64" x="1235" y="812.0283">agreggates</text><text fill="#000000" font-family="sans-serif" font-size="13" lengthAdjust="spacing" textLength="7" x="1240.1875" y="789.2289">1</text><text fill="#000000" font-family="sans-serif" font-size="13" lengthAdjust="spacing" textLength="5" x="1208.8638" y="834.4881">*</text></g><!--link CreateSkillController to AuthenticationRepository--><g id="link_CreateSkillController_AuthenticationRepository"><path codeLine="104" d="M643.88,124.85 C641.19,152.21 638.3098,181.4791 635.8098,206.7891 " fill="none" id="CreateSkillController-to-AuthenticationRepository" style="stroke:#181818;stroke-width:1.0;stroke-dasharray:7.0,7.0;"/><polygon fill="#181818" points="635.22,212.76,640.0853,204.1968,635.7115,207.7842,632.124,203.4104,635.22,212.76" style="stroke:#181818;stroke-width:1.0;"/></g><!--link Organization to EmployeeRepository--><g id="link_Organization_EmployeeRepository"><path codeLine="105" d="M1174.83,565.18 C1192.57,585.61 1206.9971,602.2188 1223.6271,621.3788 " fill="none" id="Organization-to-EmployeeRepository" style="stroke:#181818;stroke-width:1.0;"/><polygon fill="#181818" points="1227.56,625.91,1224.6815,616.4912,1224.2826,622.134,1218.6398,621.7351,1227.56,625.91" style="stroke:#181818;stroke-width:1.0;"/><text fill="#000000" font-family="sans-serif" font-size="13" lengthAdjust="spacing" textLength="7" x="1173.8027" y="587.0912">1</text><text fill="#000000" font-family="sans-serif" font-size="13" lengthAdjust="spacing" textLength="7" x="1213.9662" y="614.7917">1</text></g><!--SRC=[ZLN1Rjim3BthAuHUwcnfiLrpA90cFHWOkg5fiRDYCxPGMJ8akQqxxDz7sOej9NQm70oOV2AV7kcNQ_FAPSqqgsYbfCfAhIgWLZT0napDibTMmCws0gY6p39PY11WIfQhTouBUc32X1d19TYs1behqReNSZsHLDeg4fpA13DcRQtc-yP2cYcvuvz0ln5oBU1WgLLKywAqDEUE3bUIaEuCtMXW5dQlN8YNbFuXVoSI6oMjLaA0HW35tzVfR09LBLGBy0IrCjmgtIxNZIr1MfunrtLCB7oXR2oK6FTSa9730ETWVEkRA9WSonHWKsbGvmoI1Lr5e17oSCOlB3175J43epdC80pMsJHQ8-R5WDw1COWBAmJXuH0tFrHHG9xAtzoMJqf0oCkTIFEmnazTCCa_Bt084VUjg_1GCIvmGlYSgJGelCCzmjMKh88uyiRiOrFjGSVXkbJo1DdryQ5rdckyC6uq3aZuDvzxOuBdfmlGtoAabZWkox7_ahx3ViSjnhhcoxxXCkwny4syXlTjfC4emlbQ359Ss1YMvpthxaaZxeAROTd69UqQFtnWpYGzXxFDd9ZLESyBWzgYbdJFjIsTgc6GvHNljox8N1hD_mtNXz8jpLL6dJbD9PeAFmWg9tRdcNtKh4LdIRV7n2ZdqMnKXJO7pof1z2-7JhT7xJO2wGqAMzMN7G8bCyybDxsWeUOJldCoLXz5zRtyFR4JxJlKeni00gL2eJl3LOTfY_I7c-EGAPDvz-O-UlG1glQMeSld7V20VouK3QT3KDExnYq1FEDQ4VUBFFBcBlRC5UNU5KbizBTtC_ocRV_shAuE3JRcW2Iklb_Dc1IPyQxkr9Vu5BPHmQiXi-xhMuRUkkf4yvfDCvmhHuOFpQ6EpFhnh_pcp5pwt2-Y2qS5Xouhslzn6ZBXH3CdMA6XA3eYioERlTyqfMdwXFm3]--></g></svg>