<?xml version="1.0" encoding="us-ascii" standalone="no"?><svg xmlns="http://www.w3.org/2000/svg" xmlns:xlink="http://www.w3.org/1999/xlink" contentStyleType="text/css" height="480px" preserveAspectRatio="none" style="width:1578px;height:480px;background:#FFFFFF;" version="1.1" viewBox="0 0 1578 480" width="1578px" zoomAndPan="magnify"><defs/><g><!--class AuthenticationRepository--><g id="elem_AuthenticationRepository"><rect codeLine="10" fill="#F1F1F1" height="64.4883" id="AuthenticationRepository" rx="2.5" ry="2.5" style="stroke:#181818;stroke-width:0.5;" width="206" x="816.5" y="234.7"/><ellipse cx="831.5" cy="250.7" fill="#ADD1B2" rx="11" ry="11" style="stroke:#181818;stroke-width:1.0;"/><path d="M833.9731,256.8431 Q833.3921,257.1419 832.7529,257.2913 Q832.1138,257.4407 831.4082,257.4407 Q828.9014,257.4407 827.5815,255.7889 Q826.2617,254.137 826.2617,251.0159 Q826.2617,247.8865 827.5815,246.2347 Q828.9014,244.5828 831.4082,244.5828 Q832.1138,244.5828 832.7612,244.7322 Q833.4087,244.8816 833.9731,245.1805 L833.9731,247.9031 Q833.3423,247.3221 832.7488,247.0523 Q832.1553,246.7825 831.5244,246.7825 Q830.1797,246.7825 829.4949,247.8492 Q828.8101,248.9158 828.8101,251.0159 Q828.8101,253.1077 829.4949,254.1744 Q830.1797,255.241 831.5244,255.241 Q832.1553,255.241 832.7488,254.9712 Q833.3423,254.7015 833.9731,254.1204 Z " fill="#000000"/><text fill="#000000" font-family="sans-serif" font-size="14" lengthAdjust="spacing" textLength="174" x="845.5" y="255.991">AuthenticationRepository</text><line style="stroke:#181818;stroke-width:0.5;" x1="817.5" x2="1021.5" y1="266.7" y2="266.7"/><line style="stroke:#181818;stroke-width:0.5;" x1="817.5" x2="1021.5" y1="274.7" y2="274.7"/><text fill="#000000" font-family="sans-serif" font-size="14" lengthAdjust="spacing" textLength="179" x="822.5" y="292.2352">+getCurrentUserSession()</text></g><!--class Employee--><g id="elem_Employee"><rect codeLine="14" fill="#F1F1F1" height="97.4648" id="Employee" rx="2.5" ry="2.5" style="stroke:#181818;stroke-width:0.5;" width="339" x="996" y="376.19"/><ellipse cx="1128.25" cy="392.19" fill="#ADD1B2" rx="11" ry="11" style="stroke:#181818;stroke-width:1.0;"/><path d="M1130.7231,398.3331 Q1130.1421,398.6319 1129.5029,398.7813 Q1128.8638,398.9307 1128.1582,398.9307 Q1125.6514,398.9307 1124.3315,397.2789 Q1123.0117,395.627 1123.0117,392.5059 Q1123.0117,389.3765 1124.3315,387.7247 Q1125.6514,386.0728 1128.1582,386.0728 Q1128.8638,386.0728 1129.5112,386.2222 Q1130.1587,386.3716 1130.7231,386.6705 L1130.7231,389.3931 Q1130.0923,388.8121 1129.4988,388.5423 Q1128.9053,388.2725 1128.2744,388.2725 Q1126.9297,388.2725 1126.2449,389.3392 Q1125.5601,390.4058 1125.5601,392.5059 Q1125.5601,394.5977 1126.2449,395.6644 Q1126.9297,396.731 1128.2744,396.731 Q1128.9053,396.731 1129.4988,396.4612 Q1130.0923,396.1915 1130.7231,395.6104 Z " fill="#000000"/><text fill="#000000" font-family="sans-serif" font-size="14" lengthAdjust="spacing" textLength="66" x="1148.75" y="397.481">Employee</text><line style="stroke:#181818;stroke-width:0.5;" x1="997" x2="1334" y1="408.19" y2="408.19"/><line style="stroke:#181818;stroke-width:0.5;" x1="997" x2="1334" y1="416.19" y2="416.19"/><text fill="#000000" font-family="sans-serif" font-size="14" lengthAdjust="spacing" textLength="327" x="1002" y="433.7252">+create(name, sizeClassification, area, address)</text><text fill="#000000" font-family="sans-serif" font-size="14" lengthAdjust="spacing" textLength="209" x="1002" y="450.2134">+addGreenSpace(GreenSpace)</text><text fill="#000000" font-family="sans-serif" font-size="14" lengthAdjust="spacing" textLength="236" x="1002" y="466.7017">+validateGreenSpace(GreenSpace)</text></g><!--class EmployeeRepository--><g id="elem_EmployeeRepository"><rect codeLine="20" fill="#F1F1F1" height="64.4883" id="EmployeeRepository" rx="2.5" ry="2.5" style="stroke:#181818;stroke-width:0.5;" width="225" x="1057" y="234.7"/><ellipse cx="1096.3" cy="250.7" fill="#ADD1B2" rx="11" ry="11" style="stroke:#181818;stroke-width:1.0;"/><path d="M1098.7731,256.8431 Q1098.1921,257.1419 1097.5529,257.2913 Q1096.9138,257.4407 1096.2082,257.4407 Q1093.7014,257.4407 1092.3815,255.7889 Q1091.0617,254.137 1091.0617,251.0159 Q1091.0617,247.8865 1092.3815,246.2347 Q1093.7014,244.5828 1096.2082,244.5828 Q1096.9138,244.5828 1097.5612,244.7322 Q1098.2087,244.8816 1098.7731,245.1805 L1098.7731,247.9031 Q1098.1423,247.3221 1097.5488,247.0523 Q1096.9553,246.7825 1096.3244,246.7825 Q1094.9797,246.7825 1094.2949,247.8492 Q1093.6101,248.9158 1093.6101,251.0159 Q1093.6101,253.1077 1094.2949,254.1744 Q1094.9797,255.241 1096.3244,255.241 Q1096.9553,255.241 1097.5488,254.9712 Q1098.1423,254.7015 1098.7731,254.1204 Z " fill="#000000"/><text fill="#000000" font-family="sans-serif" font-size="14" lengthAdjust="spacing" textLength="139" x="1115.7" y="255.991">EmployeeRepository</text><line style="stroke:#181818;stroke-width:0.5;" x1="1058" x2="1281" y1="266.7" y2="266.7"/><line style="stroke:#181818;stroke-width:0.5;" x1="1058" x2="1281" y1="274.7" y2="274.7"/><text fill="#000000" font-family="sans-serif" font-size="14" lengthAdjust="spacing" textLength="213" x="1063" y="292.2352">+getEmployeeByUserID(userID)</text></g><!--class Organization--><g id="elem_Organization"><rect codeLine="24" fill="#F1F1F1" height="64.4883" id="Organization" rx="2.5" ry="2.5" style="stroke:#181818;stroke-width:0.5;" width="170" x="1369.5" y="392.67"/><ellipse cx="1406.1" cy="408.67" fill="#ADD1B2" rx="11" ry="11" style="stroke:#181818;stroke-width:1.0;"/><path d="M1408.5731,414.8131 Q1407.9921,415.1119 1407.3529,415.2613 Q1406.7138,415.4107 1406.0082,415.4107 Q1403.5014,415.4107 1402.1815,413.7589 Q1400.8617,412.107 1400.8617,408.9859 Q1400.8617,405.8565 1402.1815,404.2047 Q1403.5014,402.5528 1406.0082,402.5528 Q1406.7138,402.5528 1407.3612,402.7022 Q1408.0087,402.8516 1408.5731,403.1505 L1408.5731,405.8731 Q1407.9423,405.2921 1407.3488,405.0223 Q1406.7553,404.7525 1406.1244,404.7525 Q1404.7797,404.7525 1404.0949,405.8192 Q1403.4101,406.8858 1403.4101,408.9859 Q1403.4101,411.0777 1404.0949,412.1444 Q1404.7797,413.211 1406.1244,413.211 Q1406.7553,413.211 1407.3488,412.9412 Q1407.9423,412.6715 1408.5731,412.0904 Z " fill="#000000"/><text fill="#000000" font-family="sans-serif" font-size="14" lengthAdjust="spacing" textLength="90" x="1424.9" y="413.961">Organization</text><line style="stroke:#181818;stroke-width:0.5;" x1="1370.5" x2="1538.5" y1="424.67" y2="424.67"/><line style="stroke:#181818;stroke-width:0.5;" x1="1370.5" x2="1538.5" y1="432.67" y2="432.67"/><text fill="#000000" font-family="sans-serif" font-size="14" lengthAdjust="spacing" textLength="158" x="1375.5" y="450.2052">+anyUserHasId(userID)</text></g><!--class OrganizationRepository--><g id="elem_OrganizationRepository"><rect codeLine="28" fill="#F1F1F1" height="64.4883" id="OrganizationRepository" rx="2.5" ry="2.5" style="stroke:#181818;stroke-width:0.5;" width="249" x="1322" y="234.7"/><ellipse cx="1361.3" cy="250.7" fill="#ADD1B2" rx="11" ry="11" style="stroke:#181818;stroke-width:1.0;"/><path d="M1363.7731,256.8431 Q1363.1921,257.1419 1362.5529,257.2913 Q1361.9138,257.4407 1361.2082,257.4407 Q1358.7014,257.4407 1357.3815,255.7889 Q1356.0617,254.137 1356.0617,251.0159 Q1356.0617,247.8865 1357.3815,246.2347 Q1358.7014,244.5828 1361.2082,244.5828 Q1361.9138,244.5828 1362.5612,244.7322 Q1363.2087,244.8816 1363.7731,245.1805 L1363.7731,247.9031 Q1363.1423,247.3221 1362.5488,247.0523 Q1361.9553,246.7825 1361.3244,246.7825 Q1359.9797,246.7825 1359.2949,247.8492 Q1358.6101,248.9158 1358.6101,251.0159 Q1358.6101,253.1077 1359.2949,254.1744 Q1359.9797,255.241 1361.3244,255.241 Q1361.9553,255.241 1362.5488,254.9712 Q1363.1423,254.7015 1363.7731,254.1204 Z " fill="#000000"/><text fill="#000000" font-family="sans-serif" font-size="14" lengthAdjust="spacing" textLength="163" x="1380.7" y="255.991">OrganizationRepository</text><line style="stroke:#181818;stroke-width:0.5;" x1="1323" x2="1570" y1="266.7" y2="266.7"/><line style="stroke:#181818;stroke-width:0.5;" x1="1323" x2="1570" y1="274.7" y2="274.7"/><text fill="#000000" font-family="sans-serif" font-size="14" lengthAdjust="spacing" textLength="237" x="1328" y="292.2352">+getOrganizationByUserID(userID)</text></g><!--class Repositories--><g id="elem_Repositories"><rect codeLine="32" fill="#F1F1F1" height="130.4414" id="Repositories" rx="2.5" ry="2.5" style="stroke:#181818;stroke-width:0.5;" width="229" x="1055" y="43.26"/><ellipse cx="1122.75" cy="59.26" fill="#ADD1B2" rx="11" ry="11" style="stroke:#181818;stroke-width:1.0;"/><path d="M1125.2231,65.4031 Q1124.6421,65.7019 1124.0029,65.8513 Q1123.3638,66.0007 1122.6582,66.0007 Q1120.1514,66.0007 1118.8315,64.3489 Q1117.5117,62.697 1117.5117,59.5759 Q1117.5117,56.4465 1118.8315,54.7947 Q1120.1514,53.1428 1122.6582,53.1428 Q1123.3638,53.1428 1124.0112,53.2922 Q1124.6587,53.4416 1125.2231,53.7405 L1125.2231,56.4631 Q1124.5923,55.8821 1123.9988,55.6123 Q1123.4053,55.3425 1122.7744,55.3425 Q1121.4297,55.3425 1120.7449,56.4092 Q1120.0601,57.4758 1120.0601,59.5759 Q1120.0601,61.6677 1120.7449,62.7344 Q1121.4297,63.801 1122.7744,63.801 Q1123.4053,63.801 1123.9988,63.5312 Q1124.5923,63.2615 1125.2231,62.6804 Z " fill="#000000"/><text fill="#000000" font-family="sans-serif" font-size="14" lengthAdjust="spacing" textLength="85" x="1143.25" y="64.551">Repositories</text><line style="stroke:#181818;stroke-width:0.5;" x1="1056" x2="1283" y1="75.26" y2="75.26"/><line style="stroke:#181818;stroke-width:0.5;" x1="1056" x2="1283" y1="83.26" y2="83.26"/><text fill="#000000" font-family="sans-serif" font-size="14" lengthAdjust="spacing" textLength="103" x="1061" y="100.7952">-Repositories()</text><text fill="#000000" font-family="sans-serif" font-size="14" lengthAdjust="spacing" textLength="197" x="1061" y="117.2834">+getInstance() : Repositories</text><text fill="#000000" font-family="sans-serif" font-size="14" lengthAdjust="spacing" textLength="217" x="1061" y="133.7717">+getAuthenticationRepository()</text><text fill="#000000" font-family="sans-serif" font-size="14" lengthAdjust="spacing" textLength="182" x="1061" y="150.26">+getEmployeeRepository()</text><text fill="#000000" font-family="sans-serif" font-size="14" lengthAdjust="spacing" textLength="206" x="1061" y="166.7483">+getOrganizationRepository()</text></g><!--class RegisterGreenSpaceController--><g id="elem_RegisterGreenSpaceController"><rect codeLine="40" fill="#F1F1F1" height="113.9531" id="RegisterGreenSpaceController" rx="2.5" ry="2.5" style="stroke:#181818;stroke-width:0.5;" width="431" x="512" y="51.5"/><ellipse cx="619.75" cy="67.5" fill="#ADD1B2" rx="11" ry="11" style="stroke:#181818;stroke-width:1.0;"/><path d="M622.2231,73.6431 Q621.6421,73.9419 621.0029,74.0913 Q620.3638,74.2407 619.6582,74.2407 Q617.1514,74.2407 615.8315,72.5889 Q614.5117,70.937 614.5117,67.8159 Q614.5117,64.6865 615.8315,63.0347 Q617.1514,61.3828 619.6582,61.3828 Q620.3638,61.3828 621.0112,61.5322 Q621.6587,61.6816 622.2231,61.9805 L622.2231,64.7031 Q621.5923,64.1221 620.9988,63.8523 Q620.4053,63.5825 619.7744,63.5825 Q618.4297,63.5825 617.7449,64.6492 Q617.0601,65.7158 617.0601,67.8159 Q617.0601,69.9077 617.7449,70.9744 Q618.4297,72.041 619.7744,72.041 Q620.4053,72.041 620.9988,71.7712 Q621.5923,71.5015 622.2231,70.9204 Z " fill="#000000"/><text fill="#000000" font-family="sans-serif" font-size="14" lengthAdjust="spacing" textLength="207" x="640.25" y="72.791">RegisterGreenSpaceController</text><line style="stroke:#181818;stroke-width:0.5;" x1="513" x2="942" y1="83.5" y2="83.5"/><line style="stroke:#181818;stroke-width:0.5;" x1="513" x2="942" y1="91.5" y2="91.5"/><text fill="#000000" font-family="sans-serif" font-size="14" lengthAdjust="spacing" textLength="228" x="518" y="109.0352">+RegisterGreenSpaceController()</text><text fill="#000000" font-family="sans-serif" font-size="14" lengthAdjust="spacing" textLength="419" x="518" y="125.5234">+registerGreenSpace(name, sizeClassification, area, address)</text><text fill="#000000" font-family="sans-serif" font-size="14" lengthAdjust="spacing" textLength="162" x="518" y="142.0117">+getUserFromSession()</text><text fill="#000000" font-family="sans-serif" font-size="14" lengthAdjust="spacing" textLength="206" x="518" y="158.5">+getOrganizationByID(userID)</text></g><!--class RegisterGreenSpaceUI--><g id="elem_RegisterGreenSpaceUI"><rect codeLine="47" fill="#F1F1F1" height="48" id="RegisterGreenSpaceUI" rx="2.5" ry="2.5" style="stroke:#181818;stroke-width:0.5;" width="183" x="294" y="84.48"/><ellipse cx="309" cy="100.48" fill="#ADD1B2" rx="11" ry="11" style="stroke:#181818;stroke-width:1.0;"/><path d="M311.4731,106.6231 Q310.8921,106.9219 310.2529,107.0713 Q309.6138,107.2207 308.9082,107.2207 Q306.4014,107.2207 305.0815,105.5689 Q303.7617,103.917 303.7617,100.7959 Q303.7617,97.6665 305.0815,96.0147 Q306.4014,94.3628 308.9082,94.3628 Q309.6138,94.3628 310.2612,94.5122 Q310.9087,94.6616 311.4731,94.9605 L311.4731,97.6831 Q310.8423,97.1021 310.2488,96.8323 Q309.6553,96.5625 309.0244,96.5625 Q307.6797,96.5625 306.9949,97.6292 Q306.3101,98.6958 306.3101,100.7959 Q306.3101,102.8877 306.9949,103.9544 Q307.6797,105.021 309.0244,105.021 Q309.6553,105.021 310.2488,104.7512 Q310.8423,104.4815 311.4731,103.9004 Z " fill="#000000"/><text fill="#000000" font-family="sans-serif" font-size="14" lengthAdjust="spacing" textLength="151" x="323" y="105.771">RegisterGreenSpaceUI</text><line style="stroke:#181818;stroke-width:0.5;" x1="295" x2="476" y1="116.48" y2="116.48"/><line style="stroke:#181818;stroke-width:0.5;" x1="295" x2="476" y1="124.48" y2="124.48"/></g><g id="elem_GMN10"><path d="M6,88.17 L6,128.7911 L259,128.7911 L259,98.17 L249,88.17 L6,88.17 " fill="#FEFFDD" style="stroke:#181818;stroke-width:0.5;"/><path d="M249,88.17 L249,98.17 L259,98.17 L249,88.17 " fill="#FEFFDD" style="stroke:#181818;stroke-width:1.0;"/><text fill="#000000" font-family="sans-serif" font-size="13" lengthAdjust="spacing" textLength="232" x="12" y="105.7384">- userEmail and userRole is obtained</text><text fill="#000000" font-family="sans-serif" font-size="13" lengthAdjust="spacing" textLength="141" x="12" y="121.0489">from the user session.</text></g><!--link GMN10 to RegisterGreenSpaceController--><g id="link_GMN10_RegisterGreenSpaceController"><path d="M163.32,87.74 C194.66,68 245.39,39.66 294,28.26 C388.82,6 496.48,25.69 580.79,51.13 " fill="none" id="GMN10-RegisterGreenSpaceController" style="stroke:#181818;stroke-width:1.0;stroke-dasharray:7.0,7.0;"/></g><!--link Repositories to Repositories--><g id="link_Repositories_Repositories"><path codeLine="55" d="M1284.21,91.58 C1304.69,93.78 1319,99.41 1319,108.48 C1319,117.54 1310.656,122.542 1290.176,124.732 " fill="none" id="Repositories-to-Repositories" style="stroke:#181818;stroke-width:1.0;"/><polygon fill="#181818" points="1284.21,125.37,1293.5843,128.3904,1289.1817,124.8384,1292.7337,120.4357,1284.21,125.37" style="stroke:#181818;stroke-width:1.0;"/><text fill="#000000" font-family="sans-serif" font-size="13" lengthAdjust="spacing" textLength="53" x="1325" y="113.5484">instance</text></g><!--link RegisterGreenSpaceUI to RegisterGreenSpaceController--><g id="link_RegisterGreenSpaceUI_RegisterGreenSpaceController"><path codeLine="56" d="M477.35,108.48 C488.75,108.48 494.15,108.48 505.55,108.48 " fill="none" id="RegisterGreenSpaceUI-to-RegisterGreenSpaceController" style="stroke:#181818;stroke-width:1.0;stroke-dasharray:7.0,7.0;"/><polygon fill="#181818" points="511.55,108.48,502.55,104.48,506.55,108.48,502.55,112.48,511.55,108.48" style="stroke:#181818;stroke-width:1.0;"/></g><!--link RegisterGreenSpaceController to Repositories--><g id="link_RegisterGreenSpaceController_Repositories"><path codeLine="57" d="M943.32,108.48 C981.78,108.48 1014.45,108.48 1048.66,108.48 " fill="none" id="RegisterGreenSpaceController-to-Repositories" style="stroke:#181818;stroke-width:1.0;stroke-dasharray:7.0,7.0;"/><polygon fill="#181818" points="1054.66,108.48,1045.66,104.48,1049.66,108.48,1045.66,112.48,1054.66,108.48" style="stroke:#181818;stroke-width:1.0;"/><text fill="#000000" font-family="sans-serif" font-size="13" lengthAdjust="spacing" textLength="75" x="961.5" y="102.0484">repositories</text></g><!--link Repositories to AuthenticationRepository--><g id="link_Repositories_AuthenticationRepository"><path codeLine="58" d="M1066.37,174.02 C1033.15,194.81 1002.886,213.7569 975.196,231.0869 " fill="none" id="Repositories-to-AuthenticationRepository" style="stroke:#181818;stroke-width:1.0;"/><polygon fill="#181818" points="970.11,234.27,979.8611,232.886,974.3484,231.6174,975.617,226.1046,970.11,234.27" style="stroke:#181818;stroke-width:1.0;"/><text fill="#000000" font-family="sans-serif" font-size="13" lengthAdjust="spacing" textLength="8" x="971.2863" y="223.9596">1</text></g><!--link Repositories to EmployeeRepository--><g id="link_Repositories_EmployeeRepository"><path codeLine="59" d="M1169.5,174.02 C1169.5,194.9 1169.5,211.12 1169.5,228.48 " fill="none" id="Repositories-to-EmployeeRepository" style="stroke:#181818;stroke-width:1.0;"/><polygon fill="#181818" points="1169.5,234.48,1173.5,225.48,1169.5,229.48,1165.5,225.48,1169.5,234.48" style="stroke:#181818;stroke-width:1.0;"/><text fill="#000000" font-family="sans-serif" font-size="13" lengthAdjust="spacing" textLength="8" x="1160.675" y="223.8378">1</text></g><!--link Repositories to OrganizationRepository--><g id="link_Repositories_OrganizationRepository"><path codeLine="60" d="M1283.77,174.02 C1320.58,194.81 1354.5154,213.9898 1385.2054,231.3198 " fill="none" id="Repositories-to-OrganizationRepository" style="stroke:#181818;stroke-width:1.0;"/><polygon fill="#181818" points="1390.43,234.27,1384.5599,226.3616,1386.0762,231.8115,1380.6263,233.3277,1390.43,234.27" style="stroke:#181818;stroke-width:1.0;"/><text fill="#000000" font-family="sans-serif" font-size="13" lengthAdjust="spacing" textLength="8" x="1370.6037" y="223.9596">1</text></g><!--link EmployeeRepository to Employee--><g id="link_EmployeeRepository_Employee"><path codeLine="61" d="M1168.69,299.51 C1168.13,321.4 1167.5247,344.982 1166.8847,369.802 " fill="none" id="EmployeeRepository-to-Employee" style="stroke:#181818;stroke-width:1.0;"/><polygon fill="#181818" points="1166.73,375.8,1170.9607,366.9061,1166.8589,370.8017,1162.9633,366.6999,1166.73,375.8" style="stroke:#181818;stroke-width:1.0;"/><text fill="#000000" font-family="sans-serif" font-size="13" lengthAdjust="spacing" textLength="39" x="1169.5" y="342.7584">stores</text><text fill="#000000" font-family="sans-serif" font-size="13" lengthAdjust="spacing" textLength="8" x="1159.7731" y="319.7455">1</text><text fill="#000000" font-family="sans-serif" font-size="13" lengthAdjust="spacing" textLength="6" x="1160.4811" y="365.4277">*</text></g><!--link OrganizationRepository to Organization--><g id="link_OrganizationRepository_Organization"><path codeLine="62" d="M1448.12,299.51 C1449.51,326.57 1451.1943,359.3578 1452.5743,386.4078 " fill="none" id="OrganizationRepository-to-Organization" style="stroke:#181818;stroke-width:1.0;"/><polygon fill="#181818" points="1452.88,392.4,1456.4163,383.2079,1452.6252,387.4065,1448.4266,383.6155,1452.88,392.4" style="stroke:#181818;stroke-width:1.0;"/><text fill="#000000" font-family="sans-serif" font-size="13" lengthAdjust="spacing" textLength="39" x="1451.5" y="342.7584">stores</text><text fill="#000000" font-family="sans-serif" font-size="13" lengthAdjust="spacing" textLength="8" x="1439.6663" y="319.7455">1</text><text fill="#000000" font-family="sans-serif" font-size="13" lengthAdjust="spacing" textLength="6" x="1445.9271" y="381.7475">*</text></g><!--SRC=[bLHDRvn03BtFhx1o2Ticg-QQGwHqcxQSAcML7p01muuop22FQKMY_FSOol9HFgHoM1Rydlt6VkOol1XNQj855Dxvv4I-G62gK0sHKYSlEiSZrnQ1C67jSZi6X9DE_H_ZSiYq3QWkXv0r3hak4JonLoDEOdK8zynadYl6EF7kQ5uHlYYvsXZSLtn2noRHRBnxnD87mvvgU5CWrsV8aGyLaM2U0j8HGn1Sj5FlvmmFHMbzZTWp4aBD63bTu1K4gNTeS2RhQbo15e3yfYb9jbt7aiSVXEYEqWYCXh_d-6zjJIfvLq0pESj7EKU_rirfuczHrTv6_5-KQsTUMwazKxiM_rE7EDscB9ST8zPBzro3eMDVJrv6ko5bx89OHBgmWzi9Q82ipNQSPjwkSNJvPD54Ssu28mspE7Z7vAr5wZkm1UhBqGpqlnOImKrhlyjw3JvTcS5o__zLy1JB6IJkF2DOp1XyjdcQRcXDweT26olEITkdHozhRGBuPzQohMaBp4Gfo8nQ18I_clSAXTDKL6hYYEkxgKDkmNGUK8lAztVRKZT7jvyLex77fi94sSNDnUgtP1azTzuoRjc3Qc7F6tJB-ZHa5-51WY9vPKl7fCdkzyGF]--></g></svg>