<?xml version="1.0" encoding="us-ascii" standalone="no"?><svg xmlns="http://www.w3.org/2000/svg" xmlns:xlink="http://www.w3.org/1999/xlink" contentStyleType="text/css" height="1423px" preserveAspectRatio="none" style="width:2487px;height:1423px;background:#FFFFFF;" version="1.1" viewBox="0 0 2487 1423" width="2487px" zoomAndPan="magnify"><defs/><g><rect fill="#FFFFFF" height="1232.5996" style="stroke:#181818;stroke-width:1.0;" width="10" x="77.5" y="91.4883"/><rect fill="#FFFFFF" height="29.3105" style="stroke:#181818;stroke-width:1.0;" width="10" x="514.5" y="112.7988"/><rect fill="#FFFFFF" height="1161.668" style="stroke:#181818;stroke-width:1.0;" width="10" x="514.5" y="171.4199"/><rect fill="#FFFFFF" height="1132.3574" style="stroke:#181818;stroke-width:1.0;" width="10" x="936.5" y="200.7305"/><rect fill="#FFFFFF" height="29.3105" style="stroke:#181818;stroke-width:1.0;" width="10" x="1153.5" y="272.3516"/><rect fill="#FFFFFF" height="29.3105" style="stroke:#181818;stroke-width:1.0;" width="10" x="1153.5" y="607.7676"/><rect fill="#FFFFFF" height="29.3105" style="stroke:#181818;stroke-width:1.0;" width="10" x="1266.5" y="330.9727"/><rect fill="#FFFFFF" height="29.3105" style="stroke:#181818;stroke-width:1.0;" width="10" x="1266.5" y="666.3887"/><rect fill="#FFFFFF" height="29.3105" style="stroke:#181818;stroke-width:1.0;" width="10" x="1266.5" y="873.5625"/><rect fill="#FFFFFF" height="146.5527" style="stroke:#181818;stroke-width:1.0;" width="10" x="1424" y="389.5938"/><rect fill="#FFFFFF" height="87.9316" style="stroke:#181818;stroke-width:1.0;" width="10" x="1622" y="418.9043"/><rect fill="#FFFFFF" height="82.9316" style="stroke:#181818;stroke-width:1.0;" width="10" x="1761" y="932.1836"/><rect fill="#FFFFFF" height="184.7305" style="stroke:#181818;stroke-width:1.0;" width="10" x="1891.5" y="1080.7363"/><rect fill="#FFFFFF" height="119.2422" style="stroke:#181818;stroke-width:1.0;" width="10" x="2138.5" y="725.0098"/><rect fill="#FFFFFF" height="29.3105" style="stroke:#181818;stroke-width:1.0;" width="10" x="2317.5" y="778.6309"/><rect fill="#FFFFFF" height="29.3105" style="stroke:#181818;stroke-width:1.0;" width="10" x="2317.5" y="985.8047"/><rect fill="#FFFFFF" height="31.4883" style="stroke:#181818;stroke-width:1.0;" width="10" x="2429" y="1120.0469"/><rect fill="none" height="75.9316" style="stroke:#000000;stroke-width:1.5;" width="343.5" x="2043" y="740.0098"/><rect fill="none" height="75.9316" style="stroke:#000000;stroke-width:1.5;" width="709" x="1677.5" y="947.1836"/><line style="stroke:#181818;stroke-width:0.5;stroke-dasharray:5.0,5.0;" x1="82" x2="82" y1="81.4883" y2="1342.0879"/><line style="stroke:#181818;stroke-width:0.5;stroke-dasharray:5.0,5.0;" x1="519" x2="519" y1="81.4883" y2="1342.0879"/><line style="stroke:#181818;stroke-width:0.5;stroke-dasharray:5.0,5.0;" x1="941" x2="941" y1="81.4883" y2="1342.0879"/><line style="stroke:#181818;stroke-width:0.5;stroke-dasharray:5.0,5.0;" x1="1158" x2="1158" y1="81.4883" y2="1342.0879"/><line style="stroke:#181818;stroke-width:0.5;stroke-dasharray:5.0,5.0;" x1="1271" x2="1271" y1="81.4883" y2="1342.0879"/><line style="stroke:#181818;stroke-width:0.5;stroke-dasharray:5.0,5.0;" x1="1429" x2="1429" y1="81.4883" y2="1342.0879"/><line style="stroke:#181818;stroke-width:0.5;stroke-dasharray:5.0,5.0;" x1="1626.5" x2="1626.5" y1="81.4883" y2="1342.0879"/><line style="stroke:#181818;stroke-width:0.5;stroke-dasharray:5.0,5.0;" x1="1765.5" x2="1765.5" y1="81.4883" y2="1342.0879"/><line style="stroke:#181818;stroke-width:0.5;stroke-dasharray:5.0,5.0;" x1="1896.5" x2="1896.5" y1="81.4883" y2="1342.0879"/><line style="stroke:#181818;stroke-width:0.5;stroke-dasharray:5.0,5.0;" x1="2143" x2="2143" y1="81.4883" y2="1342.0879"/><line style="stroke:#181818;stroke-width:0.5;stroke-dasharray:5.0,5.0;" x1="2322.5" x2="2322.5" y1="81.4883" y2="1342.0879"/><line style="stroke:#181818;stroke-width:0.5;stroke-dasharray:5.0,5.0;" x1="2433.5" x2="2433.5" y1="1119.4805" y2="1342.0879"/><text fill="#000000" font-family="sans-serif" font-size="14" lengthAdjust="spacing" textLength="149" x="5" y="78.5352">Green Space Manager</text><ellipse cx="82.5" cy="13.5" fill="#E3E3E3" rx="8" ry="8" style="stroke:#181818;stroke-width:0.5;"/><path d="M82.5,21.5 L82.5,48.5 M69.5,29.5 L95.5,29.5 M82.5,48.5 L69.5,63.5 M82.5,48.5 L95.5,63.5 " fill="none" style="stroke:#181818;stroke-width:0.5;"/><text fill="#000000" font-family="sans-serif" font-size="14" lengthAdjust="spacing" textLength="149" x="5" y="1354.623">Green Space Manager</text><ellipse cx="82.5" cy="1366.0762" fill="#E3E3E3" rx="8" ry="8" style="stroke:#181818;stroke-width:0.5;"/><path d="M82.5,1374.0762 L82.5,1401.0762 M69.5,1382.0762 L95.5,1382.0762 M82.5,1401.0762 L69.5,1416.0762 M82.5,1401.0762 L95.5,1416.0762 " fill="none" style="stroke:#181818;stroke-width:0.5;"/><rect fill="#E3E3E3" height="30.4883" rx="2.5" ry="2.5" style="stroke:#181818;stroke-width:0.5;" width="169" x="435" y="50"/><text fill="#000000" font-family="sans-serif" font-size="14" lengthAdjust="spacing" textLength="155" x="442" y="70.5352">:RegisterGreenSpaceUI</text><rect fill="#E3E3E3" height="30.4883" rx="2.5" ry="2.5" style="stroke:#181818;stroke-width:0.5;" width="169" x="435" y="1341.0879"/><text fill="#000000" font-family="sans-serif" font-size="14" lengthAdjust="spacing" textLength="155" x="442" y="1361.623">:RegisterGreenSpaceUI</text><rect fill="#E3E3E3" height="30.4883" rx="2.5" ry="2.5" style="stroke:#181818;stroke-width:0.5;" width="225" x="829" y="50"/><text fill="#000000" font-family="sans-serif" font-size="14" lengthAdjust="spacing" textLength="211" x="836" y="70.5352">:RegisterGreenSpaceController</text><rect fill="#E3E3E3" height="30.4883" rx="2.5" ry="2.5" style="stroke:#181818;stroke-width:0.5;" width="225" x="829" y="1341.0879"/><text fill="#000000" font-family="sans-serif" font-size="14" lengthAdjust="spacing" textLength="211" x="836" y="1361.623">:RegisterGreenSpaceController</text><rect fill="#E3E3E3" height="30.4883" rx="2.5" ry="2.5" style="stroke:#181818;stroke-width:0.5;" width="103" x="1107" y="50"/><text fill="#000000" font-family="sans-serif" font-size="14" lengthAdjust="spacing" textLength="89" x="1114" y="70.5352">:Repositories</text><rect fill="#E3E3E3" height="30.4883" rx="2.5" ry="2.5" style="stroke:#181818;stroke-width:0.5;" width="103" x="1107" y="1341.0879"/><text fill="#000000" font-family="sans-serif" font-size="14" lengthAdjust="spacing" textLength="89" x="1114" y="1361.623">:Repositories</text><rect fill="#E3E3E3" height="46.9766" rx="2.5" ry="2.5" style="stroke:#181818;stroke-width:0.5;" width="103" x="1220" y="33.5117"/><text fill="#000000" font-family="sans-serif" font-size="14" lengthAdjust="spacing" textLength="82" x="1230.5" y="54.0469">repositories</text><text fill="#000000" font-family="sans-serif" font-size="14" lengthAdjust="spacing" textLength="89" x="1227" y="70.5352">:Repositories</text><rect fill="#E3E3E3" height="46.9766" rx="2.5" ry="2.5" style="stroke:#181818;stroke-width:0.5;" width="103" x="1220" y="1341.0879"/><text fill="#000000" font-family="sans-serif" font-size="14" lengthAdjust="spacing" textLength="82" x="1230.5" y="1361.623">repositories</text><text fill="#000000" font-family="sans-serif" font-size="14" lengthAdjust="spacing" textLength="89" x="1227" y="1378.1113">:Repositories</text><rect fill="#E3E3E3" height="46.9766" rx="2.5" ry="2.5" style="stroke:#181818;stroke-width:0.5;" width="192" x="1333" y="33.5117"/><text fill="#000000" font-family="sans-serif" font-size="14" lengthAdjust="spacing" textLength="81" x="1388.5" y="54.0469">AuthFacade</text><text fill="#000000" font-family="sans-serif" font-size="14" lengthAdjust="spacing" textLength="178" x="1340" y="70.5352">:AuthenticationRepository</text><rect fill="#E3E3E3" height="46.9766" rx="2.5" ry="2.5" style="stroke:#181818;stroke-width:0.5;" width="192" x="1333" y="1341.0879"/><text fill="#000000" font-family="sans-serif" font-size="14" lengthAdjust="spacing" textLength="81" x="1388.5" y="1361.623">AuthFacade</text><text fill="#000000" font-family="sans-serif" font-size="14" lengthAdjust="spacing" textLength="178" x="1340" y="1378.1113">:AuthenticationRepository</text><rect fill="#E3E3E3" height="46.9766" rx="2.5" ry="2.5" style="stroke:#181818;stroke-width:0.5;" width="101" x="1576.5" y="33.5117"/><text fill="#000000" font-family="sans-serif" font-size="14" lengthAdjust="spacing" textLength="82" x="1586" y="54.0469">userSession</text><text fill="#000000" font-family="sans-serif" font-size="14" lengthAdjust="spacing" textLength="87" x="1583.5" y="70.5352">:UserSession</text><rect fill="#E3E3E3" height="46.9766" rx="2.5" ry="2.5" style="stroke:#181818;stroke-width:0.5;" width="101" x="1576.5" y="1341.0879"/><text fill="#000000" font-family="sans-serif" font-size="14" lengthAdjust="spacing" textLength="82" x="1586" y="1361.623">userSession</text><text fill="#000000" font-family="sans-serif" font-size="14" lengthAdjust="spacing" textLength="87" x="1583.5" y="1378.1113">:UserSession</text><rect fill="#E3E3E3" height="46.9766" rx="2.5" ry="2.5" style="stroke:#181818;stroke-width:0.5;" width="157" x="1687.5" y="33.5117"/><text fill="#000000" font-family="sans-serif" font-size="14" lengthAdjust="spacing" textLength="139" x="1696.5" y="54.0469">EmployeeRepository</text><text fill="#000000" font-family="sans-serif" font-size="14" lengthAdjust="spacing" textLength="143" x="1694.5" y="70.5352">:EmployeeRepository</text><rect fill="#E3E3E3" height="46.9766" rx="2.5" ry="2.5" style="stroke:#181818;stroke-width:0.5;" width="157" x="1687.5" y="1341.0879"/><text fill="#000000" font-family="sans-serif" font-size="14" lengthAdjust="spacing" textLength="139" x="1696.5" y="1361.623">EmployeeRepository</text><text fill="#000000" font-family="sans-serif" font-size="14" lengthAdjust="spacing" textLength="143" x="1694.5" y="1378.1113">:EmployeeRepository</text><rect fill="#E3E3E3" height="46.9766" rx="2.5" ry="2.5" style="stroke:#181818;stroke-width:0.5;" width="84" x="1854.5" y="33.5117"/><text fill="#000000" font-family="sans-serif" font-size="14" lengthAdjust="spacing" textLength="66" x="1863.5" y="54.0469">Employee</text><text fill="#000000" font-family="sans-serif" font-size="14" lengthAdjust="spacing" textLength="70" x="1861.5" y="70.5352">:Employee</text><rect fill="#E3E3E3" height="46.9766" rx="2.5" ry="2.5" style="stroke:#181818;stroke-width:0.5;" width="84" x="1854.5" y="1341.0879"/><text fill="#000000" font-family="sans-serif" font-size="14" lengthAdjust="spacing" textLength="66" x="1863.5" y="1361.623">Employee</text><text fill="#000000" font-family="sans-serif" font-size="14" lengthAdjust="spacing" textLength="70" x="1861.5" y="1378.1113">:Employee</text><rect fill="#E3E3E3" height="46.9766" rx="2.5" ry="2.5" style="stroke:#181818;stroke-width:0.5;" width="181" x="2053" y="33.5117"/><text fill="#000000" font-family="sans-serif" font-size="14" lengthAdjust="spacing" textLength="163" x="2062" y="54.0469">OrganizationRepository</text><text fill="#000000" font-family="sans-serif" font-size="14" lengthAdjust="spacing" textLength="167" x="2060" y="70.5352">:OrganizationRepository</text><rect fill="#E3E3E3" height="46.9766" rx="2.5" ry="2.5" style="stroke:#181818;stroke-width:0.5;" width="181" x="2053" y="1341.0879"/><text fill="#000000" font-family="sans-serif" font-size="14" lengthAdjust="spacing" textLength="163" x="2062" y="1361.623">OrganizationRepository</text><text fill="#000000" font-family="sans-serif" font-size="14" lengthAdjust="spacing" textLength="167" x="2060" y="1378.1113">:OrganizationRepository</text><rect fill="#E3E3E3" height="46.9766" rx="2.5" ry="2.5" style="stroke:#181818;stroke-width:0.5;" width="108" x="2268.5" y="33.5117"/><text fill="#000000" font-family="sans-serif" font-size="14" lengthAdjust="spacing" textLength="90" x="2277.5" y="54.0469">Organization</text><text fill="#000000" font-family="sans-serif" font-size="14" lengthAdjust="spacing" textLength="94" x="2275.5" y="70.5352">:Organization</text><rect fill="#E3E3E3" height="46.9766" rx="2.5" ry="2.5" style="stroke:#181818;stroke-width:0.5;" width="108" x="2268.5" y="1341.0879"/><text fill="#000000" font-family="sans-serif" font-size="14" lengthAdjust="spacing" textLength="90" x="2277.5" y="1361.623">Organization</text><text fill="#000000" font-family="sans-serif" font-size="14" lengthAdjust="spacing" textLength="94" x="2275.5" y="1378.1113">:Organization</text><rect fill="#E3E3E3" height="30.4883" rx="2.5" ry="2.5" style="stroke:#181818;stroke-width:0.5;" width="95" x="2386.5" y="1341.0879"/><text fill="#000000" font-family="sans-serif" font-size="14" lengthAdjust="spacing" textLength="81" x="2393.5" y="1361.623">GreenSpace</text><rect fill="#FFFFFF" height="1232.5996" style="stroke:#181818;stroke-width:1.0;" width="10" x="77.5" y="91.4883"/><rect fill="#FFFFFF" height="29.3105" style="stroke:#181818;stroke-width:1.0;" width="10" x="514.5" y="112.7988"/><rect fill="#FFFFFF" height="1161.668" style="stroke:#181818;stroke-width:1.0;" width="10" x="514.5" y="171.4199"/><rect fill="#FFFFFF" height="1132.3574" style="stroke:#181818;stroke-width:1.0;" width="10" x="936.5" y="200.7305"/><rect fill="#FFFFFF" height="29.3105" style="stroke:#181818;stroke-width:1.0;" width="10" x="1153.5" y="272.3516"/><rect fill="#FFFFFF" height="29.3105" style="stroke:#181818;stroke-width:1.0;" width="10" x="1153.5" y="607.7676"/><rect fill="#FFFFFF" height="29.3105" style="stroke:#181818;stroke-width:1.0;" width="10" x="1266.5" y="330.9727"/><rect fill="#FFFFFF" height="29.3105" style="stroke:#181818;stroke-width:1.0;" width="10" x="1266.5" y="666.3887"/><rect fill="#FFFFFF" height="29.3105" style="stroke:#181818;stroke-width:1.0;" width="10" x="1266.5" y="873.5625"/><rect fill="#FFFFFF" height="146.5527" style="stroke:#181818;stroke-width:1.0;" width="10" x="1424" y="389.5938"/><rect fill="#FFFFFF" height="87.9316" style="stroke:#181818;stroke-width:1.0;" width="10" x="1622" y="418.9043"/><rect fill="#FFFFFF" height="82.9316" style="stroke:#181818;stroke-width:1.0;" width="10" x="1761" y="932.1836"/><rect fill="#FFFFFF" height="184.7305" style="stroke:#181818;stroke-width:1.0;" width="10" x="1891.5" y="1080.7363"/><rect fill="#FFFFFF" height="119.2422" style="stroke:#181818;stroke-width:1.0;" width="10" x="2138.5" y="725.0098"/><rect fill="#FFFFFF" height="29.3105" style="stroke:#181818;stroke-width:1.0;" width="10" x="2317.5" y="778.6309"/><rect fill="#FFFFFF" height="29.3105" style="stroke:#181818;stroke-width:1.0;" width="10" x="2317.5" y="985.8047"/><rect fill="#FFFFFF" height="31.4883" style="stroke:#181818;stroke-width:1.0;" width="10" x="2429" y="1120.0469"/><polygon fill="#181818" points="502.5,108.7988,512.5,112.7988,502.5,116.7988,506.5,112.7988" style="stroke:#181818;stroke-width:1.0;"/><line style="stroke:#181818;stroke-width:1.0;" x1="87.5" x2="508.5" y1="112.7988" y2="112.7988"/><text fill="#000000" font-family="sans-serif" font-size="13" font-weight="bold" lengthAdjust="spacing" textLength="9" x="94.5" y="108.0566">1</text><text fill="#000000" font-family="sans-serif" font-size="13" lengthAdjust="spacing" textLength="242" x="107.5" y="108.0566">requests to register a new green space</text><polygon fill="#181818" points="98.5,138.1094,88.5,142.1094,98.5,146.1094,94.5,142.1094" style="stroke:#181818;stroke-width:1.0;"/><line style="stroke:#181818;stroke-width:1.0;stroke-dasharray:2.0,2.0;" x1="92.5" x2="518.5" y1="142.1094" y2="142.1094"/><text fill="#000000" font-family="sans-serif" font-size="13" font-weight="bold" lengthAdjust="spacing" textLength="9" x="104.5" y="137.3672">2</text><text fill="#000000" font-family="sans-serif" font-size="13" lengthAdjust="spacing" textLength="349" x="117.5" y="137.3672">requests data (Name, Size classification, Area, Address)</text><polygon fill="#181818" points="502.5,167.4199,512.5,171.4199,502.5,175.4199,506.5,171.4199" style="stroke:#181818;stroke-width:1.0;"/><line style="stroke:#181818;stroke-width:1.0;" x1="87.5" x2="508.5" y1="171.4199" y2="171.4199"/><text fill="#000000" font-family="sans-serif" font-size="13" font-weight="bold" lengthAdjust="spacing" textLength="9" x="94.5" y="166.6777">3</text><text fill="#000000" font-family="sans-serif" font-size="13" lengthAdjust="spacing" textLength="395" x="107.5" y="166.6777">types requested data (Name, Size classification, Area, Address)</text><polygon fill="#181818" points="924.5,196.7305,934.5,200.7305,924.5,204.7305,928.5,200.7305" style="stroke:#181818;stroke-width:1.0;"/><line style="stroke:#181818;stroke-width:1.0;" x1="524.5" x2="930.5" y1="200.7305" y2="200.7305"/><text fill="#000000" font-family="sans-serif" font-size="13" font-weight="bold" lengthAdjust="spacing" textLength="9" x="531.5" y="195.9883">4</text><text fill="#000000" font-family="sans-serif" font-size="13" lengthAdjust="spacing" textLength="380" x="544.5" y="195.9883">registerGreenSpace(Name, Size classification, Area, Address)</text><line style="stroke:#181818;stroke-width:1.0;" x1="946.5" x2="988.5" y1="230.041" y2="230.041"/><line style="stroke:#181818;stroke-width:1.0;" x1="988.5" x2="988.5" y1="230.041" y2="243.041"/><line style="stroke:#181818;stroke-width:1.0;" x1="947.5" x2="988.5" y1="243.041" y2="243.041"/><polygon fill="#181818" points="957.5,239.041,947.5,243.041,957.5,247.041,953.5,243.041" style="stroke:#181818;stroke-width:1.0;"/><text fill="#000000" font-family="sans-serif" font-size="13" font-weight="bold" lengthAdjust="spacing" textLength="9" x="953.5" y="225.2988">5</text><text fill="#000000" font-family="sans-serif" font-size="13" lengthAdjust="spacing" textLength="136" x="966.5" y="225.2988">getUserFromSession()</text><polygon fill="#181818" points="1141.5,268.3516,1151.5,272.3516,1141.5,276.3516,1145.5,272.3516" style="stroke:#181818;stroke-width:1.0;"/><line style="stroke:#181818;stroke-width:1.0;" x1="946.5" x2="1147.5" y1="272.3516" y2="272.3516"/><text fill="#000000" font-family="sans-serif" font-size="13" font-weight="bold" lengthAdjust="spacing" textLength="9" x="953.5" y="267.6094">6</text><text fill="#000000" font-family="sans-serif" font-size="13" lengthAdjust="spacing" textLength="81" x="966.5" y="267.6094">getInstance()</text><polygon fill="#181818" points="957.5,297.6621,947.5,301.6621,957.5,305.6621,953.5,301.6621" style="stroke:#181818;stroke-width:1.0;"/><line style="stroke:#181818;stroke-width:1.0;stroke-dasharray:2.0,2.0;" x1="951.5" x2="1157.5" y1="301.6621" y2="301.6621"/><text fill="#000000" font-family="sans-serif" font-size="13" font-weight="bold" lengthAdjust="spacing" textLength="9" x="963.5" y="296.9199">7</text><text fill="#000000" font-family="sans-serif" font-size="13" lengthAdjust="spacing" textLength="78" x="976.5" y="296.9199">Repositories</text><polygon fill="#181818" points="1254.5,326.9727,1264.5,330.9727,1254.5,334.9727,1258.5,330.9727" style="stroke:#181818;stroke-width:1.0;"/><line style="stroke:#181818;stroke-width:1.0;" x1="946.5" x2="1260.5" y1="330.9727" y2="330.9727"/><text fill="#000000" font-family="sans-serif" font-size="13" font-weight="bold" lengthAdjust="spacing" textLength="9" x="953.5" y="326.2305">8</text><text fill="#000000" font-family="sans-serif" font-size="13" lengthAdjust="spacing" textLength="188" x="966.5" y="326.2305">getAuthenticationRepository()</text><polygon fill="#181818" points="957.5,356.2832,947.5,360.2832,957.5,364.2832,953.5,360.2832" style="stroke:#181818;stroke-width:1.0;"/><line style="stroke:#181818;stroke-width:1.0;stroke-dasharray:2.0,2.0;" x1="951.5" x2="1270.5" y1="360.2832" y2="360.2832"/><text fill="#000000" font-family="sans-serif" font-size="13" font-weight="bold" lengthAdjust="spacing" textLength="9" x="963.5" y="355.541">9</text><text fill="#000000" font-family="sans-serif" font-size="13" lengthAdjust="spacing" textLength="168" x="976.5" y="355.541">AuthenticationRepository()</text><polygon fill="#181818" points="1412,385.5938,1422,389.5938,1412,393.5938,1416,389.5938" style="stroke:#181818;stroke-width:1.0;"/><line style="stroke:#181818;stroke-width:1.0;" x1="946.5" x2="1418" y1="389.5938" y2="389.5938"/><text fill="#000000" font-family="sans-serif" font-size="13" font-weight="bold" lengthAdjust="spacing" textLength="18" x="953.5" y="384.8516">10</text><text fill="#000000" font-family="sans-serif" font-size="13" lengthAdjust="spacing" textLength="151" x="975.5" y="384.8516">getCurrentUserSession()</text><polygon fill="#181818" points="1610,414.9043,1620,418.9043,1610,422.9043,1614,418.9043" style="stroke:#181818;stroke-width:1.0;"/><line style="stroke:#181818;stroke-width:1.0;" x1="1434" x2="1616" y1="418.9043" y2="418.9043"/><text fill="#000000" font-family="sans-serif" font-size="13" font-weight="bold" lengthAdjust="spacing" textLength="18" x="1441" y="414.1621">11</text><text fill="#000000" font-family="sans-serif" font-size="13" lengthAdjust="spacing" textLength="147" x="1463" y="414.1621">isLoggedWithRole(GSM)</text><polygon fill="#181818" points="1445,444.2148,1435,448.2148,1445,452.2148,1441,448.2148" style="stroke:#181818;stroke-width:1.0;"/><line style="stroke:#181818;stroke-width:1.0;stroke-dasharray:2.0,2.0;" x1="1439" x2="1621" y1="448.2148" y2="448.2148"/><text fill="#000000" font-family="sans-serif" font-size="13" font-weight="bold" lengthAdjust="spacing" textLength="18" x="1451" y="443.4727">12</text><text fill="#000000" font-family="sans-serif" font-size="13" lengthAdjust="spacing" textLength="77" x="1473" y="443.4727">"True/False"</text><polygon fill="#181818" points="1610,473.5254,1620,477.5254,1610,481.5254,1614,477.5254" style="stroke:#181818;stroke-width:1.0;"/><line style="stroke:#181818;stroke-width:1.0;stroke-dasharray:2.0,2.0;" x1="1434" x2="1616" y1="477.5254" y2="477.5254"/><text fill="#000000" font-family="sans-serif" font-size="13" font-weight="bold" lengthAdjust="spacing" textLength="18" x="1441" y="472.7832">13</text><text fill="#000000" font-family="sans-serif" font-size="13" lengthAdjust="spacing" textLength="102" x="1463" y="472.7832">getUserId(email)</text><polygon fill="#181818" points="1445,502.8359,1435,506.8359,1445,510.8359,1441,506.8359" style="stroke:#181818;stroke-width:1.0;"/><line style="stroke:#181818;stroke-width:1.0;stroke-dasharray:2.0,2.0;" x1="1439" x2="1626" y1="506.8359" y2="506.8359"/><text fill="#000000" font-family="sans-serif" font-size="13" font-weight="bold" lengthAdjust="spacing" textLength="18" x="1451" y="502.0938">14</text><text fill="#000000" font-family="sans-serif" font-size="13" lengthAdjust="spacing" textLength="81" x="1473" y="502.0938">userId(email)</text><polygon fill="#181818" points="957.5,532.1465,947.5,536.1465,957.5,540.1465,953.5,536.1465" style="stroke:#181818;stroke-width:1.0;"/><line style="stroke:#181818;stroke-width:1.0;stroke-dasharray:2.0,2.0;" x1="951.5" x2="1428" y1="536.1465" y2="536.1465"/><text fill="#000000" font-family="sans-serif" font-size="13" font-weight="bold" lengthAdjust="spacing" textLength="18" x="963.5" y="531.4043">15</text><text fill="#000000" font-family="sans-serif" font-size="13" lengthAdjust="spacing" textLength="81" x="985.5" y="531.4043">userId(email)</text><line style="stroke:#181818;stroke-width:1.0;" x1="946.5" x2="988.5" y1="565.457" y2="565.457"/><line style="stroke:#181818;stroke-width:1.0;" x1="988.5" x2="988.5" y1="565.457" y2="578.457"/><line style="stroke:#181818;stroke-width:1.0;" x1="947.5" x2="988.5" y1="578.457" y2="578.457"/><polygon fill="#181818" points="957.5,574.457,947.5,578.457,957.5,582.457,953.5,578.457" style="stroke:#181818;stroke-width:1.0;"/><text fill="#000000" font-family="sans-serif" font-size="13" font-weight="bold" lengthAdjust="spacing" textLength="18" x="953.5" y="560.7148">16</text><text fill="#000000" font-family="sans-serif" font-size="13" lengthAdjust="spacing" textLength="171" x="975.5" y="560.7148">getOrganizationByID(email)</text><polygon fill="#181818" points="1141.5,603.7676,1151.5,607.7676,1141.5,611.7676,1145.5,607.7676" style="stroke:#181818;stroke-width:1.0;"/><line style="stroke:#181818;stroke-width:1.0;" x1="946.5" x2="1147.5" y1="607.7676" y2="607.7676"/><text fill="#000000" font-family="sans-serif" font-size="13" font-weight="bold" lengthAdjust="spacing" textLength="18" x="953.5" y="603.0254">17</text><text fill="#000000" font-family="sans-serif" font-size="13" lengthAdjust="spacing" textLength="81" x="975.5" y="603.0254">getInstance()</text><polygon fill="#181818" points="957.5,633.0781,947.5,637.0781,957.5,641.0781,953.5,637.0781" style="stroke:#181818;stroke-width:1.0;"/><line style="stroke:#181818;stroke-width:1.0;stroke-dasharray:2.0,2.0;" x1="951.5" x2="1157.5" y1="637.0781" y2="637.0781"/><text fill="#000000" font-family="sans-serif" font-size="13" font-weight="bold" lengthAdjust="spacing" textLength="18" x="963.5" y="632.3359">18</text><text fill="#000000" font-family="sans-serif" font-size="13" lengthAdjust="spacing" textLength="78" x="985.5" y="632.3359">Repositories</text><polygon fill="#181818" points="1254.5,662.3887,1264.5,666.3887,1254.5,670.3887,1258.5,666.3887" style="stroke:#181818;stroke-width:1.0;"/><line style="stroke:#181818;stroke-width:1.0;" x1="946.5" x2="1260.5" y1="666.3887" y2="666.3887"/><text fill="#000000" font-family="sans-serif" font-size="13" font-weight="bold" lengthAdjust="spacing" textLength="18" x="953.5" y="661.6465">19</text><text fill="#000000" font-family="sans-serif" font-size="13" lengthAdjust="spacing" textLength="176" x="975.5" y="661.6465">getOrganizationRepository()</text><polygon fill="#181818" points="957.5,691.6992,947.5,695.6992,957.5,699.6992,953.5,695.6992" style="stroke:#181818;stroke-width:1.0;"/><line style="stroke:#181818;stroke-width:1.0;" x1="951.5" x2="1270.5" y1="695.6992" y2="695.6992"/><text fill="#000000" font-family="sans-serif" font-size="13" font-weight="bold" lengthAdjust="spacing" textLength="18" x="963.5" y="690.957">20</text><text fill="#000000" font-family="sans-serif" font-size="13" lengthAdjust="spacing" textLength="156" x="985.5" y="690.957">OrganizationRepository()</text><polygon fill="#181818" points="2126.5,721.0098,2136.5,725.0098,2126.5,729.0098,2130.5,725.0098" style="stroke:#181818;stroke-width:1.0;"/><line style="stroke:#181818;stroke-width:1.0;" x1="946.5" x2="2132.5" y1="725.0098" y2="725.0098"/><text fill="#000000" font-family="sans-serif" font-size="13" font-weight="bold" lengthAdjust="spacing" textLength="18" x="953.5" y="720.2676">21</text><text fill="#000000" font-family="sans-serif" font-size="13" lengthAdjust="spacing" textLength="199" x="975.5" y="720.2676">getOrganizationByUserID(email)</text><path d="M2043,740.0098 L2117,740.0098 L2117,747.3203 L2107,757.3203 L2043,757.3203 L2043,740.0098 " fill="#EEEEEE" style="stroke:#000000;stroke-width:1.5;"/><rect fill="none" height="75.9316" style="stroke:#000000;stroke-width:1.5;" width="343.5" x="2043" y="740.0098"/><text fill="#000000" font-family="sans-serif" font-size="13" font-weight="bold" lengthAdjust="spacing" textLength="29" x="2058" y="753.5781">loop</text><polygon fill="#181818" points="2305.5,774.6309,2315.5,778.6309,2305.5,782.6309,2309.5,778.6309" style="stroke:#181818;stroke-width:1.0;"/><line style="stroke:#181818;stroke-width:1.0;" x1="2148.5" x2="2311.5" y1="778.6309" y2="778.6309"/><text fill="#000000" font-family="sans-serif" font-size="13" font-weight="bold" lengthAdjust="spacing" textLength="18" x="2155.5" y="773.8887">22</text><text fill="#000000" font-family="sans-serif" font-size="13" lengthAdjust="spacing" textLength="128" x="2177.5" y="773.8887">anyUserHasId(email)</text><polygon fill="#181818" points="2159.5,803.9414,2149.5,807.9414,2159.5,811.9414,2155.5,807.9414" style="stroke:#181818;stroke-width:1.0;"/><line style="stroke:#181818;stroke-width:1.0;stroke-dasharray:2.0,2.0;" x1="2153.5" x2="2321.5" y1="807.9414" y2="807.9414"/><text fill="#000000" font-family="sans-serif" font-size="13" font-weight="bold" lengthAdjust="spacing" textLength="18" x="2165.5" y="803.1992">23</text><text fill="#000000" font-family="sans-serif" font-size="13" lengthAdjust="spacing" textLength="67" x="2187.5" y="803.1992">True/False</text><polygon fill="#181818" points="957.5,840.252,947.5,844.252,957.5,848.252,953.5,844.252" style="stroke:#181818;stroke-width:1.0;"/><line style="stroke:#181818;stroke-width:1.0;stroke-dasharray:2.0,2.0;" x1="951.5" x2="2142.5" y1="844.252" y2="844.252"/><text fill="#000000" font-family="sans-serif" font-size="13" font-weight="bold" lengthAdjust="spacing" textLength="18" x="963.5" y="839.5098">24</text><text fill="#000000" font-family="sans-serif" font-size="13" lengthAdjust="spacing" textLength="79" x="985.5" y="839.5098">organization</text><polygon fill="#181818" points="1254.5,869.5625,1264.5,873.5625,1254.5,877.5625,1258.5,873.5625" style="stroke:#181818;stroke-width:1.0;"/><line style="stroke:#181818;stroke-width:1.0;" x1="946.5" x2="1260.5" y1="873.5625" y2="873.5625"/><text fill="#000000" font-family="sans-serif" font-size="13" font-weight="bold" lengthAdjust="spacing" textLength="18" x="953.5" y="868.8203">25</text><text fill="#000000" font-family="sans-serif" font-size="13" lengthAdjust="spacing" textLength="155" x="975.5" y="868.8203">getEmployeeRepository()</text><polygon fill="#181818" points="957.5,898.873,947.5,902.873,957.5,906.873,953.5,902.873" style="stroke:#181818;stroke-width:1.0;"/><line style="stroke:#181818;stroke-width:1.0;stroke-dasharray:2.0,2.0;" x1="951.5" x2="1270.5" y1="902.873" y2="902.873"/><text fill="#000000" font-family="sans-serif" font-size="13" font-weight="bold" lengthAdjust="spacing" textLength="18" x="963.5" y="898.1309">26</text><text fill="#000000" font-family="sans-serif" font-size="13" lengthAdjust="spacing" textLength="135" x="985.5" y="898.1309">EmployeeRepository()</text><polygon fill="#181818" points="1749,928.1836,1759,932.1836,1749,936.1836,1753,932.1836" style="stroke:#181818;stroke-width:1.0;"/><line style="stroke:#181818;stroke-width:1.0;" x1="946.5" x2="1755" y1="932.1836" y2="932.1836"/><text fill="#000000" font-family="sans-serif" font-size="13" font-weight="bold" lengthAdjust="spacing" textLength="18" x="953.5" y="927.4414">27</text><text fill="#000000" font-family="sans-serif" font-size="13" lengthAdjust="spacing" textLength="186" x="975.5" y="927.4414">getEmployeenByUserID(email)</text><path d="M1677.5,947.1836 L1751.5,947.1836 L1751.5,954.4941 L1741.5,964.4941 L1677.5,964.4941 L1677.5,947.1836 " fill="#EEEEEE" style="stroke:#000000;stroke-width:1.5;"/><rect fill="none" height="75.9316" style="stroke:#000000;stroke-width:1.5;" width="709" x="1677.5" y="947.1836"/><text fill="#000000" font-family="sans-serif" font-size="13" font-weight="bold" lengthAdjust="spacing" textLength="29" x="1692.5" y="960.752">loop</text><polygon fill="#181818" points="2305.5,981.8047,2315.5,985.8047,2305.5,989.8047,2309.5,985.8047" style="stroke:#181818;stroke-width:1.0;"/><line style="stroke:#181818;stroke-width:1.0;" x1="1771" x2="2311.5" y1="985.8047" y2="985.8047"/><text fill="#000000" font-family="sans-serif" font-size="13" font-weight="bold" lengthAdjust="spacing" textLength="18" x="1778" y="981.0625">28</text><text fill="#000000" font-family="sans-serif" font-size="13" lengthAdjust="spacing" textLength="128" x="1800" y="981.0625">anyUserHasId(email)</text><polygon fill="#181818" points="1777,1011.1152,1767,1015.1152,1777,1019.1152,1773,1015.1152" style="stroke:#181818;stroke-width:1.0;"/><line style="stroke:#181818;stroke-width:1.0;stroke-dasharray:2.0,2.0;" x1="1771" x2="2321.5" y1="1015.1152" y2="1015.1152"/><text fill="#000000" font-family="sans-serif" font-size="13" font-weight="bold" lengthAdjust="spacing" textLength="18" x="1783" y="1010.373">29</text><text fill="#000000" font-family="sans-serif" font-size="13" lengthAdjust="spacing" textLength="67" x="1805" y="1010.373">True/False</text><polygon fill="#181818" points="957.5,1047.4258,947.5,1051.4258,957.5,1055.4258,953.5,1051.4258" style="stroke:#181818;stroke-width:1.0;"/><line style="stroke:#181818;stroke-width:1.0;stroke-dasharray:2.0,2.0;" x1="951.5" x2="1765" y1="1051.4258" y2="1051.4258"/><text fill="#000000" font-family="sans-serif" font-size="13" font-weight="bold" lengthAdjust="spacing" textLength="18" x="963.5" y="1046.6836">30</text><text fill="#000000" font-family="sans-serif" font-size="13" lengthAdjust="spacing" textLength="60" x="985.5" y="1046.6836">employee</text><polygon fill="#181818" points="1879.5,1076.7363,1889.5,1080.7363,1879.5,1084.7363,1883.5,1080.7363" style="stroke:#181818;stroke-width:1.0;"/><line style="stroke:#181818;stroke-width:1.0;" x1="946.5" x2="1885.5" y1="1080.7363" y2="1080.7363"/><text fill="#000000" font-family="sans-serif" font-size="13" font-weight="bold" lengthAdjust="spacing" textLength="18" x="953.5" y="1075.9941">31</text><text fill="#000000" font-family="sans-serif" font-size="13" lengthAdjust="spacing" textLength="298" x="975.5" y="1075.9941">create(Name, Size classification, Area, Address)</text><polygon fill="#181818" points="2374.5,1106.0469,2384.5,1110.0469,2374.5,1114.0469,2378.5,1110.0469" style="stroke:#181818;stroke-width:1.0;"/><line style="stroke:#181818;stroke-width:1.0;" x1="1901.5" x2="2380.5" y1="1110.0469" y2="1110.0469"/><text fill="#000000" font-family="sans-serif" font-size="13" font-weight="bold" lengthAdjust="spacing" textLength="18" x="1908.5" y="1105.3047">32</text><text fill="#000000" font-family="sans-serif" font-size="13" lengthAdjust="spacing" textLength="118" x="1930.5" y="1105.3047">create(GreenSpace)</text><rect fill="#E3E3E3" height="30.4883" rx="2.5" ry="2.5" style="stroke:#181818;stroke-width:0.5;" width="95" x="2386.5" y="1088.7363"/><text fill="#000000" font-family="sans-serif" font-size="14" lengthAdjust="spacing" textLength="81" x="2393.5" y="1109.2715">GreenSpace</text><polygon fill="#181818" points="1912.5,1147.5352,1902.5,1151.5352,1912.5,1155.5352,1908.5,1151.5352" style="stroke:#181818;stroke-width:1.0;"/><line style="stroke:#181818;stroke-width:1.0;stroke-dasharray:2.0,2.0;" x1="1906.5" x2="2433" y1="1151.5352" y2="1151.5352"/><text fill="#000000" font-family="sans-serif" font-size="13" font-weight="bold" lengthAdjust="spacing" textLength="18" x="1918.5" y="1146.793">33</text><text fill="#000000" font-family="sans-serif" font-size="13" lengthAdjust="spacing" textLength="129" x="1940.5" y="1146.793">GreenSpace instance</text><line style="stroke:#181818;stroke-width:1.0;" x1="1901.5" x2="1943.5" y1="1180.8457" y2="1180.8457"/><line style="stroke:#181818;stroke-width:1.0;" x1="1943.5" x2="1943.5" y1="1180.8457" y2="1193.8457"/><line style="stroke:#181818;stroke-width:1.0;" x1="1902.5" x2="1943.5" y1="1193.8457" y2="1193.8457"/><polygon fill="#181818" points="1912.5,1189.8457,1902.5,1193.8457,1912.5,1197.8457,1908.5,1193.8457" style="stroke:#181818;stroke-width:1.0;"/><text fill="#000000" font-family="sans-serif" font-size="13" font-weight="bold" lengthAdjust="spacing" textLength="18" x="1908.5" y="1176.1035">34</text><text fill="#000000" font-family="sans-serif" font-size="13" lengthAdjust="spacing" textLength="175" x="1930.5" y="1176.1035">addGreenSpace(GreenSpace)</text><line style="stroke:#181818;stroke-width:1.0;" x1="1901.5" x2="1943.5" y1="1223.1563" y2="1223.1563"/><line style="stroke:#181818;stroke-width:1.0;" x1="1943.5" x2="1943.5" y1="1223.1563" y2="1236.1563"/><line style="stroke:#181818;stroke-width:1.0;" x1="1902.5" x2="1943.5" y1="1236.1563" y2="1236.1563"/><polygon fill="#181818" points="1912.5,1232.1563,1902.5,1236.1563,1912.5,1240.1563,1908.5,1236.1563" style="stroke:#181818;stroke-width:1.0;"/><text fill="#000000" font-family="sans-serif" font-size="13" font-weight="bold" lengthAdjust="spacing" textLength="18" x="1908.5" y="1218.4141">35</text><text fill="#000000" font-family="sans-serif" font-size="13" lengthAdjust="spacing" textLength="201" x="1930.5" y="1218.4141">validateGreenSpace(GreenSpace)</text><polygon fill="#181818" points="957.5,1261.4668,947.5,1265.4668,957.5,1269.4668,953.5,1265.4668" style="stroke:#181818;stroke-width:1.0;"/><line style="stroke:#181818;stroke-width:1.0;" x1="951.5" x2="1895.5" y1="1265.4668" y2="1265.4668"/><text fill="#000000" font-family="sans-serif" font-size="13" font-weight="bold" lengthAdjust="spacing" textLength="18" x="963.5" y="1260.7246">36</text><text fill="#000000" font-family="sans-serif" font-size="13" lengthAdjust="spacing" textLength="76" x="985.5" y="1260.7246">Green Space</text><polygon fill="#181818" points="535.5,1290.7773,525.5,1294.7773,535.5,1298.7773,531.5,1294.7773" style="stroke:#181818;stroke-width:1.0;"/><line style="stroke:#181818;stroke-width:1.0;stroke-dasharray:2.0,2.0;" x1="529.5" x2="935.5" y1="1294.7773" y2="1294.7773"/><text fill="#000000" font-family="sans-serif" font-size="13" font-weight="bold" lengthAdjust="spacing" textLength="18" x="541.5" y="1290.0352">37</text><text fill="#000000" font-family="sans-serif" font-size="13" lengthAdjust="spacing" textLength="114" x="563.5" y="1290.0352">operation success</text><polygon fill="#181818" points="93.5,1320.0879,83.5,1324.0879,93.5,1328.0879,89.5,1324.0879" style="stroke:#181818;stroke-width:1.0;"/><line style="stroke:#181818;stroke-width:1.0;" x1="87.5" x2="513.5" y1="1324.0879" y2="1324.0879"/><text fill="#000000" font-family="sans-serif" font-size="13" font-weight="bold" lengthAdjust="spacing" textLength="18" x="99.5" y="1319.3457">38</text><text fill="#000000" font-family="sans-serif" font-size="13" lengthAdjust="spacing" textLength="114" x="121.5" y="1319.3457">operation success</text><!--SRC=[tPTDRzim38Rl_XL2JadHOFTYA92rIHkWNOjyO9TTD9jrX3gI9yajqby_MfPbsLAQjTXfEGInJ3vyJLAqefuPBwcaUx8NNAGxAVP0jAmWKUvEITDdciDQ7meW4b9DULxu1cf7C_7AU4wUQA4WIMYb1Q_slq3YxrGBIKOt4e2JDRA0t5EEF3aYL96RzNs25CrILbAkoUXY1JbJ6gJnC0xRfJ7TBazQNWckfIWA2x_QhEu2dr8eXf8OA6FZ5WvhLZyNAk-xIC_Z9my1ZtUpJTzZLkdTWgOq0xIlBu3ZJQgPu5qquplRRcvNyyU-UwL0ha4fD4V_RNVLP64zNoLzX_c-BCG1e8EZNxXetEVtZq70rjJpQctxXWyofvoz3Pu4tU8t3EHXTHC4zCq7tgrFOZg7lL0DfaSIOZzuGQQNs0pa0flnTmLAAw85_cwQWL32uPNafjzKtHJErG6nazmYWgR8gx4UCAEQal5tkeTpicPlGDA2OWsUR1dFoKm2nUyiarYRYQ5b40JmnUf32QgD0DcdGWG1QlMNfi-D-k5- -2pUR1oN8eFlmkIWwwPSuAomZJcUXCQHVTNuBhd22OBQ9c5XOfkn1_uwdHuX-_lI-NWbYQ43qVLURbGUsxOnrMO2138jwoz0dag32cJPCT4ekwgaHA0t5sAQsidYxhICkXrnX22BgJkHvv3zO7gt4WMCiLiZf6RW337r4rhEQ8FlYo-BUlIFmd1TFDitosmCUygAoNlCAchexx2UAfVqBbCd2K66QeZjSYFM7qlV3ilhblM_jNfyU9zizFgY6med8K6J1ugQDmM9vDwqpVMmbevdNp7jUY54wIxgZmKt8P1FkI7UKXKso10y19c6Tagxpk_PUS_g8u1doL1Jbq7XFN8I9mNjsYza-Ch_yBHw5t5oJZM7YxwOq-MpHvAZvRFKVrS-9_DZvVEM1vBzmhPgkyA2pKGIJHWQfFWcrXzzLmzJw0keqTqXuEpCXUWM8v3kfdVQScjjvb2ljyZiX8iboUSbGtaDYMQPTrZnrHrnUA45muCJ7FCQE3MptFllSQIOGMdQGvieGPeQ45MbAIQ_Vt0qvyQebPy7FBx-0G00]--></g></svg>