<?xml version="1.0" encoding="us-ascii" standalone="no"?><svg xmlns="http://www.w3.org/2000/svg" xmlns:xlink="http://www.w3.org/1999/xlink" contentStyleType="text/css" height="1602.4px" preserveAspectRatio="none" style="width:1132px;height:1602px;background:#FFFFFF;" version="1.1" viewBox="0 0 1132 1602" width="1132.8px" zoomAndPan="magnify"><defs/><g><!--class PostponeTaskUI--><g id="elem_PostponeTaskUI"><rect codeLine="1" fill="#F1F1F1" height="38.4" id="PostponeTaskUI" rx="2" ry="2" style="stroke:#181818;stroke-width:0.4000000000000001;" width="108" x="500.4" y="5.6"/><ellipse cx="512.4" cy="18.4" fill="#ADD1B2" rx="8.8" ry="8.8" style="stroke:#181818;stroke-width:0.8000000000000002;"/><path d="M514.6125,15.1 Q514.7375,14.925 514.8875,14.8375 Q515.0375,14.75 515.2125,14.75 Q515.5125,14.75 515.7,14.9625 Q515.8875,15.1625 515.8875,15.65 L515.8875,16.8125 Q515.8875,17.3 515.7,17.5125 Q515.5125,17.725 515.2125,17.725 Q514.9375,17.725 514.775,17.5625 Q514.6125,17.4125 514.525,17 Q514.4875,16.7125 514.3375,16.5625 Q514.075,16.2625 513.5875,16.0875 Q513.1,15.9125 512.6,15.9125 Q511.9875,15.9125 511.475,16.175 Q510.975,16.4375 510.575,17.0375 Q510.1875,17.6375 510.1875,18.4625 L510.1875,19.3375 Q510.1875,20.325 510.9,20.9875 Q511.6125,21.6375 512.8875,21.6375 Q513.6375,21.6375 514.1625,21.4375 Q514.475,21.3125 514.8125,20.9625 Q515.025,20.75 515.1375,20.6875 Q515.2625,20.625 515.425,20.625 Q515.6875,20.625 515.8875,20.8375 Q516.1,21.0375 516.1,21.3125 Q516.1,21.5875 515.825,21.9125 Q515.425,22.375 514.7875,22.6375 Q513.925,23 512.8875,23 Q511.675,23 510.7125,22.5 Q509.925,22.1 509.375,21.25 Q508.825,20.3875 508.825,19.3625 L508.825,18.4375 Q508.825,17.375 509.3125,16.4625 Q509.8125,15.5375 510.6875,15.05 Q511.5625,14.55 512.55,14.55 Q513.1375,14.55 513.65,14.6875 Q514.175,14.8125 514.6125,15.1 Z " fill="#000000"/><text fill="#000000" font-family="sans-serif" font-size="11.2" lengthAdjust="spacing" textLength="82.4" x="523.6" y="23.0375">PostponeTaskUI</text><line style="stroke:#181818;stroke-width:0.4000000000000001;" x1="501.2" x2="607.6" y1="31.2" y2="31.2"/><line style="stroke:#181818;stroke-width:0.4000000000000001;" x1="501.2" x2="607.6" y1="37.6" y2="37.6"/></g><!--class PostponeTaskController--><g id="elem_PostponeTaskController"><rect codeLine="4" fill="#F1F1F1" height="53.2969" id="PostponeTaskController" rx="2" ry="2" style="stroke:#181818;stroke-width:0.4000000000000001;" width="322.4" x="393.2" y="107.2"/><ellipse cx="489.8" cy="120" fill="#ADD1B2" rx="8.8" ry="8.8" style="stroke:#181818;stroke-width:0.8000000000000002;"/><path d="M492.0125,116.7 Q492.1375,116.525 492.2875,116.4375 Q492.4375,116.35 492.6125,116.35 Q492.9125,116.35 493.1,116.5625 Q493.2875,116.7625 493.2875,117.25 L493.2875,118.4125 Q493.2875,118.9 493.1,119.1125 Q492.9125,119.325 492.6125,119.325 Q492.3375,119.325 492.175,119.1625 Q492.0125,119.0125 491.925,118.6 Q491.8875,118.3125 491.7375,118.1625 Q491.475,117.8625 490.9875,117.6875 Q490.5,117.5125 490,117.5125 Q489.3875,117.5125 488.875,117.775 Q488.375,118.0375 487.975,118.6375 Q487.5875,119.2375 487.5875,120.0625 L487.5875,120.9375 Q487.5875,121.925 488.3,122.5875 Q489.0125,123.2375 490.2875,123.2375 Q491.0375,123.2375 491.5625,123.0375 Q491.875,122.9125 492.2125,122.5625 Q492.425,122.35 492.5375,122.2875 Q492.6625,122.225 492.825,122.225 Q493.0875,122.225 493.2875,122.4375 Q493.5,122.6375 493.5,122.9125 Q493.5,123.1875 493.225,123.5125 Q492.825,123.975 492.1875,124.2375 Q491.325,124.6 490.2875,124.6 Q489.075,124.6 488.1125,124.1 Q487.325,123.7 486.775,122.85 Q486.225,121.9875 486.225,120.9625 L486.225,120.0375 Q486.225,118.975 486.7125,118.0625 Q487.2125,117.1375 488.0875,116.65 Q488.9625,116.15 489.95,116.15 Q490.5375,116.15 491.05,116.2875 Q491.575,116.4125 492.0125,116.7 Z " fill="#000000"/><text fill="#000000" font-family="sans-serif" font-size="11.2" lengthAdjust="spacing" textLength="122.4" x="506.2" y="124.6375">PostponeTaskController</text><line style="stroke:#181818;stroke-width:0.4000000000000001;" x1="394" x2="714.8" y1="132.8" y2="132.8"/><line style="stroke:#181818;stroke-width:0.4000000000000001;" x1="394" x2="714.8" y1="139.2" y2="139.2"/><ellipse cx="402" cy="151.0484" fill="#84BE84" rx="2.4" ry="2.4" style="stroke:#038048;stroke-width:0.8000000000000002;"/><text fill="#000000" font-family="sans-serif" font-size="11.2" lengthAdjust="spacing" textLength="301.6" x="409.2" y="154.4859">postponeTaskController(employeeRepository, userSession)</text></g><!--class Repositories--><g id="elem_Repositories"><rect codeLine="11" fill="#F1F1F1" height="127.7813" id="Repositories" rx="2" ry="2" style="stroke:#181818;stroke-width:0.4000000000000001;" width="304" x="402.4" y="224"/><ellipse cx="519.4" cy="236.8" fill="#ADD1B2" rx="8.8" ry="8.8" style="stroke:#181818;stroke-width:0.8000000000000002;"/><path d="M521.6125,233.5 Q521.7375,233.325 521.8875,233.2375 Q522.0375,233.15 522.2125,233.15 Q522.5125,233.15 522.7,233.3625 Q522.8875,233.5625 522.8875,234.05 L522.8875,235.2125 Q522.8875,235.7 522.7,235.9125 Q522.5125,236.125 522.2125,236.125 Q521.9375,236.125 521.775,235.9625 Q521.6125,235.8125 521.525,235.4 Q521.4875,235.1125 521.3375,234.9625 Q521.075,234.6625 520.5875,234.4875 Q520.1,234.3125 519.6,234.3125 Q518.9875,234.3125 518.475,234.575 Q517.975,234.8375 517.575,235.4375 Q517.1875,236.0375 517.1875,236.8625 L517.1875,237.7375 Q517.1875,238.725 517.9,239.3875 Q518.6125,240.0375 519.8875,240.0375 Q520.6375,240.0375 521.1625,239.8375 Q521.475,239.7125 521.8125,239.3625 Q522.025,239.15 522.1375,239.0875 Q522.2625,239.025 522.425,239.025 Q522.6875,239.025 522.8875,239.2375 Q523.1,239.4375 523.1,239.7125 Q523.1,239.9875 522.825,240.3125 Q522.425,240.775 521.7875,241.0375 Q520.925,241.4 519.8875,241.4 Q518.675,241.4 517.7125,240.9 Q516.925,240.5 516.375,239.65 Q515.825,238.7875 515.825,237.7625 L515.825,236.8375 Q515.825,235.775 516.3125,234.8625 Q516.8125,233.9375 517.6875,233.45 Q518.5625,232.95 519.55,232.95 Q520.1375,232.95 520.65,233.0875 Q521.175,233.2125 521.6125,233.5 Z " fill="#000000"/><text fill="#000000" font-family="sans-serif" font-size="11.2" lengthAdjust="spacing" textLength="63.2" x="535.8" y="241.4375">Repositories</text><line style="stroke:#181818;stroke-width:0.4000000000000001;" x1="403.2" x2="705.6" y1="249.6" y2="249.6"/><line style="stroke:#181818;stroke-width:0.4000000000000001;" x1="403.2" x2="705.6" y1="256" y2="256"/><rect fill="#F24D5C" height="4.8" style="stroke:#C82930;stroke-width:0.8000000000000002;" width="4.8" x="408.8" y="265.4484"/><text fill="#000000" font-family="sans-serif" font-size="11.2" lengthAdjust="spacing" textLength="71.2" x="418.4" y="271.2859">Repositories()</text><ellipse cx="411.2" cy="282.7453" fill="#84BE84" rx="2.4" ry="2.4" style="stroke:#038048;stroke-width:0.8000000000000002;"/><text fill="#000000" font-family="sans-serif" font-size="11.2" lengthAdjust="spacing" textLength="139.2" x="418.4" y="286.1828">getInstance() : Repositories</text><ellipse cx="411.2" cy="297.6422" fill="#84BE84" rx="2.4" ry="2.4" style="stroke:#038048;stroke-width:0.8000000000000002;"/><text fill="#000000" font-family="sans-serif" font-size="11.2" lengthAdjust="spacing" textLength="241.6" x="418.4" y="301.0797">getEmployeeRepository() : EmployeeRepository</text><ellipse cx="411.2" cy="312.5391" fill="#84BE84" rx="2.4" ry="2.4" style="stroke:#038048;stroke-width:0.8000000000000002;"/><text fill="#000000" font-family="sans-serif" font-size="11.2" lengthAdjust="spacing" textLength="192" x="418.4" y="315.9766">getTaskRepository() : TaskRepository</text><ellipse cx="411.2" cy="327.4359" fill="#84BE84" rx="2.4" ry="2.4" style="stroke:#038048;stroke-width:0.8000000000000002;"/><text fill="#000000" font-family="sans-serif" font-size="11.2" lengthAdjust="spacing" textLength="267.2" x="418.4" y="330.8734">getOrganizationRepository(): OrganizationRepository</text><ellipse cx="411.2" cy="342.3328" fill="#84BE84" rx="2.4" ry="2.4" style="stroke:#038048;stroke-width:0.8000000000000002;"/><text fill="#000000" font-family="sans-serif" font-size="11.2" lengthAdjust="spacing" textLength="283.2" x="418.4" y="345.7703">getAuthenticationRepository(): AuthenticationRepository</text></g><!--class AuthenticationRepository--><g id="elem_AuthenticationRepository"><rect codeLine="20" fill="#F1F1F1" height="53.2969" id="AuthenticationRepository" rx="2" ry="2" style="stroke:#181818;stroke-width:0.4000000000000001;" width="152" x="222.4" y="261.2"/><ellipse cx="234.4" cy="274" fill="#ADD1B2" rx="8.8" ry="8.8" style="stroke:#181818;stroke-width:0.8000000000000002;"/><path d="M236.6125,270.7 Q236.7375,270.525 236.8875,270.4375 Q237.0375,270.35 237.2125,270.35 Q237.5125,270.35 237.7,270.5625 Q237.8875,270.7625 237.8875,271.25 L237.8875,272.4125 Q237.8875,272.9 237.7,273.1125 Q237.5125,273.325 237.2125,273.325 Q236.9375,273.325 236.775,273.1625 Q236.6125,273.0125 236.525,272.6 Q236.4875,272.3125 236.3375,272.1625 Q236.075,271.8625 235.5875,271.6875 Q235.1,271.5125 234.6,271.5125 Q233.9875,271.5125 233.475,271.775 Q232.975,272.0375 232.575,272.6375 Q232.1875,273.2375 232.1875,274.0625 L232.1875,274.9375 Q232.1875,275.925 232.9,276.5875 Q233.6125,277.2375 234.8875,277.2375 Q235.6375,277.2375 236.1625,277.0375 Q236.475,276.9125 236.8125,276.5625 Q237.025,276.35 237.1375,276.2875 Q237.2625,276.225 237.425,276.225 Q237.6875,276.225 237.8875,276.4375 Q238.1,276.6375 238.1,276.9125 Q238.1,277.1875 237.825,277.5125 Q237.425,277.975 236.7875,278.2375 Q235.925,278.6 234.8875,278.6 Q233.675,278.6 232.7125,278.1 Q231.925,277.7 231.375,276.85 Q230.825,275.9875 230.825,274.9625 L230.825,274.0375 Q230.825,272.975 231.3125,272.0625 Q231.8125,271.1375 232.6875,270.65 Q233.5625,270.15 234.55,270.15 Q235.1375,270.15 235.65,270.2875 Q236.175,270.4125 236.6125,270.7 Z " fill="#000000"/><text fill="#000000" font-family="sans-serif" font-size="11.2" lengthAdjust="spacing" textLength="126.4" x="245.6" y="278.6375">AuthenticationRepository</text><line style="stroke:#181818;stroke-width:0.4000000000000001;" x1="223.2" x2="373.6" y1="286.8" y2="286.8"/><line style="stroke:#181818;stroke-width:0.4000000000000001;" x1="223.2" x2="373.6" y1="293.2" y2="293.2"/><ellipse cx="231.2" cy="305.0484" fill="#84BE84" rx="2.4" ry="2.4" style="stroke:#038048;stroke-width:0.8000000000000002;"/><text fill="#000000" font-family="sans-serif" font-size="11.2" lengthAdjust="spacing" textLength="125.6" x="238.4" y="308.4859">getCurrentUserSession()</text></g><!--class UserSession--><g id="elem_UserSession"><rect codeLine="24" fill="#F1F1F1" height="68.1938" id="UserSession" rx="2" ry="2" style="stroke:#181818;stroke-width:0.4000000000000001;" width="129.6" x="5.6" y="254"/><ellipse cx="35.96" cy="266.8" fill="#ADD1B2" rx="8.8" ry="8.8" style="stroke:#181818;stroke-width:0.8000000000000002;"/><path d="M38.1725,263.5 Q38.2975,263.325 38.4475,263.2375 Q38.5975,263.15 38.7725,263.15 Q39.0725,263.15 39.26,263.3625 Q39.4475,263.5625 39.4475,264.05 L39.4475,265.2125 Q39.4475,265.7 39.26,265.9125 Q39.0725,266.125 38.7725,266.125 Q38.4975,266.125 38.335,265.9625 Q38.1725,265.8125 38.085,265.4 Q38.0475,265.1125 37.8975,264.9625 Q37.635,264.6625 37.1475,264.4875 Q36.66,264.3125 36.16,264.3125 Q35.5475,264.3125 35.035,264.575 Q34.535,264.8375 34.135,265.4375 Q33.7475,266.0375 33.7475,266.8625 L33.7475,267.7375 Q33.7475,268.725 34.46,269.3875 Q35.1725,270.0375 36.4475,270.0375 Q37.1975,270.0375 37.7225,269.8375 Q38.035,269.7125 38.3725,269.3625 Q38.585,269.15 38.6975,269.0875 Q38.8225,269.025 38.985,269.025 Q39.2475,269.025 39.4475,269.2375 Q39.66,269.4375 39.66,269.7125 Q39.66,269.9875 39.385,270.3125 Q38.985,270.775 38.3475,271.0375 Q37.485,271.4 36.4475,271.4 Q35.235,271.4 34.2725,270.9 Q33.485,270.5 32.935,269.65 Q32.385,268.7875 32.385,267.7625 L32.385,266.8375 Q32.385,265.775 32.8725,264.8625 Q33.3725,263.9375 34.2475,263.45 Q35.1225,262.95 36.11,262.95 Q36.6975,262.95 37.21,263.0875 Q37.735,263.2125 38.1725,263.5 Z " fill="#000000"/><text fill="#000000" font-family="sans-serif" font-size="11.2" lengthAdjust="spacing" textLength="63.2" x="51.24" y="271.4375">UserSession</text><line style="stroke:#181818;stroke-width:0.4000000000000001;" x1="6.4" x2="134.4" y1="279.6" y2="279.6"/><line style="stroke:#181818;stroke-width:0.4000000000000001;" x1="6.4" x2="134.4" y1="286" y2="286"/><ellipse cx="14.4" cy="297.8484" fill="#84BE84" rx="2.4" ry="2.4" style="stroke:#038048;stroke-width:0.8000000000000002;"/><text fill="#000000" font-family="sans-serif" font-size="11.2" lengthAdjust="spacing" textLength="108.8" x="21.6" y="301.2859">isLoggedInWithRole()</text><ellipse cx="14.4" cy="312.7453" fill="#84BE84" rx="2.4" ry="2.4" style="stroke:#038048;stroke-width:0.8000000000000002;"/><text fill="#000000" font-family="sans-serif" font-size="11.2" lengthAdjust="spacing" textLength="56" x="21.6" y="316.1828">getUserId()</text></g><!--class TaskRepository--><g id="elem_TaskRepository"><rect codeLine="29" fill="#F1F1F1" height="53.2969" id="TaskRepository" rx="2" ry="2" style="stroke:#181818;stroke-width:0.4000000000000001;" width="138.4" x="485.2" y="459.6"/><ellipse cx="512.32" cy="472.4" fill="#ADD1B2" rx="8.8" ry="8.8" style="stroke:#181818;stroke-width:0.8000000000000002;"/><path d="M514.5325,469.1 Q514.6575,468.925 514.8075,468.8375 Q514.9575,468.75 515.1325,468.75 Q515.4325,468.75 515.62,468.9625 Q515.8075,469.1625 515.8075,469.65 L515.8075,470.8125 Q515.8075,471.3 515.62,471.5125 Q515.4325,471.725 515.1325,471.725 Q514.8575,471.725 514.695,471.5625 Q514.5325,471.4125 514.445,471 Q514.4075,470.7125 514.2575,470.5625 Q513.995,470.2625 513.5075,470.0875 Q513.02,469.9125 512.52,469.9125 Q511.9075,469.9125 511.395,470.175 Q510.895,470.4375 510.495,471.0375 Q510.1075,471.6375 510.1075,472.4625 L510.1075,473.3375 Q510.1075,474.325 510.82,474.9875 Q511.5325,475.6375 512.8075,475.6375 Q513.5575,475.6375 514.0825,475.4375 Q514.395,475.3125 514.7325,474.9625 Q514.945,474.75 515.0575,474.6875 Q515.1825,474.625 515.345,474.625 Q515.6075,474.625 515.8075,474.8375 Q516.02,475.0375 516.02,475.3125 Q516.02,475.5875 515.745,475.9125 Q515.345,476.375 514.7075,476.6375 Q513.845,477 512.8075,477 Q511.595,477 510.6325,476.5 Q509.845,476.1 509.295,475.25 Q508.745,474.3875 508.745,473.3625 L508.745,472.4375 Q508.745,471.375 509.2325,470.4625 Q509.7325,469.5375 510.6075,469.05 Q511.4825,468.55 512.47,468.55 Q513.0575,468.55 513.57,468.6875 Q514.095,468.8125 514.5325,469.1 Z " fill="#000000"/><text fill="#000000" font-family="sans-serif" font-size="11.2" lengthAdjust="spacing" textLength="79.2" x="526.88" y="477.0375">TaskRepository</text><line style="stroke:#181818;stroke-width:0.4000000000000001;" x1="486" x2="622.8" y1="485.2" y2="485.2"/><line style="stroke:#181818;stroke-width:0.4000000000000001;" x1="486" x2="622.8" y1="491.6" y2="491.6"/><ellipse cx="494" cy="503.4484" fill="#84BE84" rx="2.4" ry="2.4" style="stroke:#038048;stroke-width:0.8000000000000002;"/><text fill="#000000" font-family="sans-serif" font-size="11.2" lengthAdjust="spacing" textLength="117.6" x="501.2" y="506.8859">TaskExistsByTitle(Title)</text></g><!--class Tasks--><g id="elem_Tasks"><rect codeLine="33" fill="#F1F1F1" height="68.1938" id="Tasks" rx="2" ry="2" style="stroke:#181818;stroke-width:0.4000000000000001;" width="136.8" x="518.8" y="742.4"/><ellipse cx="568.6" cy="755.2" fill="#ADD1B2" rx="8.8" ry="8.8" style="stroke:#181818;stroke-width:0.8000000000000002;"/><path d="M570.8125,751.9 Q570.9375,751.725 571.0875,751.6375 Q571.2375,751.55 571.4125,751.55 Q571.7125,751.55 571.9,751.7625 Q572.0875,751.9625 572.0875,752.45 L572.0875,753.6125 Q572.0875,754.1 571.9,754.3125 Q571.7125,754.525 571.4125,754.525 Q571.1375,754.525 570.975,754.3625 Q570.8125,754.2125 570.725,753.8 Q570.6875,753.5125 570.5375,753.3625 Q570.275,753.0625 569.7875,752.8875 Q569.3,752.7125 568.8,752.7125 Q568.1875,752.7125 567.675,752.975 Q567.175,753.2375 566.775,753.8375 Q566.3875,754.4375 566.3875,755.2625 L566.3875,756.1375 Q566.3875,757.125 567.1,757.7875 Q567.8125,758.4375 569.0875,758.4375 Q569.8375,758.4375 570.3625,758.2375 Q570.675,758.1125 571.0125,757.7625 Q571.225,757.55 571.3375,757.4875 Q571.4625,757.425 571.625,757.425 Q571.8875,757.425 572.0875,757.6375 Q572.3,757.8375 572.3,758.1125 Q572.3,758.3875 572.025,758.7125 Q571.625,759.175 570.9875,759.4375 Q570.125,759.8 569.0875,759.8 Q567.875,759.8 566.9125,759.3 Q566.125,758.9 565.575,758.05 Q565.025,757.1875 565.025,756.1625 L565.025,755.2375 Q565.025,754.175 565.5125,753.2625 Q566.0125,752.3375 566.8875,751.85 Q567.7625,751.35 568.75,751.35 Q569.3375,751.35 569.85,751.4875 Q570.375,751.6125 570.8125,751.9 Z " fill="#000000"/><text fill="#000000" font-family="sans-serif" font-size="11.2" lengthAdjust="spacing" textLength="30.4" x="585" y="759.8375">Tasks</text><line style="stroke:#181818;stroke-width:0.4000000000000001;" x1="519.6" x2="654.8" y1="768" y2="768"/><rect fill="none" height="4.8" style="stroke:#C82930;stroke-width:0.8000000000000002;" width="4.8" x="525.2" y="777.4484"/><text fill="#000000" font-family="sans-serif" font-size="11.2" lengthAdjust="spacing" textLength="88" x="534.8" y="783.2859">tasks: List&lt;Task&gt;</text><line style="stroke:#181818;stroke-width:0.4000000000000001;" x1="519.6" x2="654.8" y1="789.2969" y2="789.2969"/><ellipse cx="527.6" cy="801.1453" fill="#84BE84" rx="2.4" ry="2.4" style="stroke:#038048;stroke-width:0.8000000000000002;"/><text fill="#000000" font-family="sans-serif" font-size="11.2" lengthAdjust="spacing" textLength="116" x="534.8" y="804.5828">getTasks(): List&lt;Task&gt;</text></g><!--class Task--><g id="elem_Task"><rect codeLine="38" fill="#F1F1F1" height="306.5438" id="Task" rx="2" ry="2" style="stroke:#181818;stroke-width:0.4000000000000001;" width="366.4" x="470.4" y="1129.6"/><ellipse cx="637.8" cy="1142.4" fill="#ADD1B2" rx="8.8" ry="8.8" style="stroke:#181818;stroke-width:0.8000000000000002;"/><path d="M640.0125,1139.1 Q640.1375,1138.925 640.2875,1138.8375 Q640.4375,1138.75 640.6125,1138.75 Q640.9125,1138.75 641.1,1138.9625 Q641.2875,1139.1625 641.2875,1139.65 L641.2875,1140.8125 Q641.2875,1141.3 641.1,1141.5125 Q640.9125,1141.725 640.6125,1141.725 Q640.3375,1141.725 640.175,1141.5625 Q640.0125,1141.4125 639.925,1141 Q639.8875,1140.7125 639.7375,1140.5625 Q639.475,1140.2625 638.9875,1140.0875 Q638.5,1139.9125 638,1139.9125 Q637.3875,1139.9125 636.875,1140.175 Q636.375,1140.4375 635.975,1141.0375 Q635.5875,1141.6375 635.5875,1142.4625 L635.5875,1143.3375 Q635.5875,1144.325 636.3,1144.9875 Q637.0125,1145.6375 638.2875,1145.6375 Q639.0375,1145.6375 639.5625,1145.4375 Q639.875,1145.3125 640.2125,1144.9625 Q640.425,1144.75 640.5375,1144.6875 Q640.6625,1144.625 640.825,1144.625 Q641.0875,1144.625 641.2875,1144.8375 Q641.5,1145.0375 641.5,1145.3125 Q641.5,1145.5875 641.225,1145.9125 Q640.825,1146.375 640.1875,1146.6375 Q639.325,1147 638.2875,1147 Q637.075,1147 636.1125,1146.5 Q635.325,1146.1 634.775,1145.25 Q634.225,1144.3875 634.225,1143.3625 L634.225,1142.4375 Q634.225,1141.375 634.7125,1140.4625 Q635.2125,1139.5375 636.0875,1139.05 Q636.9625,1138.55 637.95,1138.55 Q638.5375,1138.55 639.05,1138.6875 Q639.575,1138.8125 640.0125,1139.1 Z " fill="#000000"/><text fill="#000000" font-family="sans-serif" font-size="11.2" lengthAdjust="spacing" textLength="24.8" x="654.2" y="1147.0375">Task</text><line style="stroke:#181818;stroke-width:0.4000000000000001;" x1="471.2" x2="836" y1="1155.2" y2="1155.2"/><ellipse cx="479.2" cy="1167.0484" fill="none" rx="2.4" ry="2.4" style="stroke:#038048;stroke-width:0.8000000000000002;"/><text fill="#000000" font-family="sans-serif" font-size="11.2" lengthAdjust="spacing" textLength="53.6" x="486.4" y="1170.4859">title: String</text><ellipse cx="479.2" cy="1181.9453" fill="none" rx="2.4" ry="2.4" style="stroke:#038048;stroke-width:0.8000000000000002;"/><text fill="#000000" font-family="sans-serif" font-size="11.2" lengthAdjust="spacing" textLength="132" x="486.4" y="1185.3828">greenSpace: GreenSpace</text><ellipse cx="479.2" cy="1196.8422" fill="none" rx="2.4" ry="2.4" style="stroke:#038048;stroke-width:0.8000000000000002;"/><text fill="#000000" font-family="sans-serif" font-size="11.2" lengthAdjust="spacing" textLength="91.2" x="486.4" y="1200.2797">description: String</text><ellipse cx="479.2" cy="1211.7391" fill="none" rx="2.4" ry="2.4" style="stroke:#038048;stroke-width:0.8000000000000002;"/><text fill="#000000" font-family="sans-serif" font-size="11.2" lengthAdjust="spacing" textLength="68.8" x="486.4" y="1215.1766">status: Status</text><ellipse cx="479.2" cy="1226.6359" fill="none" rx="2.4" ry="2.4" style="stroke:#038048;stroke-width:0.8000000000000002;"/><text fill="#000000" font-family="sans-serif" font-size="11.2" lengthAdjust="spacing" textLength="88.8" x="486.4" y="1230.0734">urgency: Urgency</text><ellipse cx="479.2" cy="1241.5328" fill="none" rx="2.4" ry="2.4" style="stroke:#038048;stroke-width:0.8000000000000002;"/><text fill="#000000" font-family="sans-serif" font-size="11.2" lengthAdjust="spacing" textLength="42.4" x="486.4" y="1244.9703">days: int</text><ellipse cx="479.2" cy="1256.4297" fill="none" rx="2.4" ry="2.4" style="stroke:#038048;stroke-width:0.8000000000000002;"/><text fill="#000000" font-family="sans-serif" font-size="11.2" lengthAdjust="spacing" textLength="47.2" x="486.4" y="1259.8672">hours: int</text><line style="stroke:#181818;stroke-width:0.4000000000000001;" x1="471.2" x2="836" y1="1265.8781" y2="1265.8781"/><ellipse cx="479.2" cy="1277.7266" fill="#84BE84" rx="2.4" ry="2.4" style="stroke:#038048;stroke-width:0.8000000000000002;"/><text fill="#000000" font-family="sans-serif" font-size="11.2" lengthAdjust="spacing" textLength="81.6" x="486.4" y="1281.1641">getTitle(): String</text><ellipse cx="479.2" cy="1292.6234" fill="#84BE84" rx="2.4" ry="2.4" style="stroke:#038048;stroke-width:0.8000000000000002;"/><text fill="#000000" font-family="sans-serif" font-size="11.2" lengthAdjust="spacing" textLength="158.4" x="486.4" y="1296.0609">getGreenSpace(): GreenSpace</text><ellipse cx="479.2" cy="1307.5203" fill="#84BE84" rx="2.4" ry="2.4" style="stroke:#038048;stroke-width:0.8000000000000002;"/><text fill="#000000" font-family="sans-serif" font-size="11.2" lengthAdjust="spacing" textLength="116.8" x="486.4" y="1310.9578">getDescription(): String</text><ellipse cx="479.2" cy="1322.4172" fill="#84BE84" rx="2.4" ry="2.4" style="stroke:#038048;stroke-width:0.8000000000000002;"/><text fill="#000000" font-family="sans-serif" font-size="11.2" lengthAdjust="spacing" textLength="94.4" x="486.4" y="1325.8547">getStatus(): Status</text><ellipse cx="479.2" cy="1337.3141" fill="#84BE84" rx="2.4" ry="2.4" style="stroke:#038048;stroke-width:0.8000000000000002;"/><text fill="#000000" font-family="sans-serif" font-size="11.2" lengthAdjust="spacing" textLength="93.6" x="486.4" y="1340.7516">setStatus(): Status</text><ellipse cx="479.2" cy="1352.2109" fill="#84BE84" rx="2.4" ry="2.4" style="stroke:#038048;stroke-width:0.8000000000000002;"/><text fill="#000000" font-family="sans-serif" font-size="11.2" lengthAdjust="spacing" textLength="113.6" x="486.4" y="1355.6484">getUrgency(): Urgency</text><ellipse cx="479.2" cy="1367.1078" fill="#84BE84" rx="2.4" ry="2.4" style="stroke:#038048;stroke-width:0.8000000000000002;"/><text fill="#000000" font-family="sans-serif" font-size="11.2" lengthAdjust="spacing" textLength="68" x="486.4" y="1370.5453">getDays(): int</text><ellipse cx="479.2" cy="1382.0047" fill="#84BE84" rx="2.4" ry="2.4" style="stroke:#038048;stroke-width:0.8000000000000002;"/><text fill="#000000" font-family="sans-serif" font-size="11.2" lengthAdjust="spacing" textLength="72" x="486.4" y="1385.4422">getHours(): int</text><ellipse cx="479.2" cy="1396.9016" fill="#84BE84" rx="2.4" ry="2.4" style="stroke:#038048;stroke-width:0.8000000000000002;"/><text fill="#000000" font-family="sans-serif" font-size="11.2" lengthAdjust="spacing" textLength="83.2" x="486.4" y="1400.3391">toString(): String</text><ellipse cx="479.2" cy="1411.7984" fill="#84BE84" rx="2.4" ry="2.4" style="stroke:#038048;stroke-width:0.8000000000000002;"/><text fill="#000000" font-family="sans-serif" font-size="11.2" lengthAdjust="spacing" textLength="345.6" x="486.4" y="1415.2359">findTasksByDateRange(startDate: Date, endDate: Date): List&lt;Task&gt;</text><ellipse cx="479.2" cy="1426.6953" fill="#84BE84" rx="2.4" ry="2.4" style="stroke:#038048;stroke-width:0.8000000000000002;"/><text fill="#000000" font-family="sans-serif" font-size="11.2" lengthAdjust="spacing" textLength="166.4" x="486.4" y="1430.1328">compareTo(otherTask: Task): int</text></g><!--class EmployeeRepository--><g id="elem_EmployeeRepository"><rect codeLine="59" fill="#F1F1F1" height="97.9875" id="EmployeeRepository" rx="2" ry="2" style="stroke:#181818;stroke-width:0.4000000000000001;" width="184" x="690.4" y="620.8"/><ellipse cx="727" cy="633.6" fill="#ADD1B2" rx="8.8" ry="8.8" style="stroke:#181818;stroke-width:0.8000000000000002;"/><path d="M729.2125,630.3 Q729.3375,630.125 729.4875,630.0375 Q729.6375,629.95 729.8125,629.95 Q730.1125,629.95 730.3,630.1625 Q730.4875,630.3625 730.4875,630.85 L730.4875,632.0125 Q730.4875,632.5 730.3,632.7125 Q730.1125,632.925 729.8125,632.925 Q729.5375,632.925 729.375,632.7625 Q729.2125,632.6125 729.125,632.2 Q729.0875,631.9125 728.9375,631.7625 Q728.675,631.4625 728.1875,631.2875 Q727.7,631.1125 727.2,631.1125 Q726.5875,631.1125 726.075,631.375 Q725.575,631.6375 725.175,632.2375 Q724.7875,632.8375 724.7875,633.6625 L724.7875,634.5375 Q724.7875,635.525 725.5,636.1875 Q726.2125,636.8375 727.4875,636.8375 Q728.2375,636.8375 728.7625,636.6375 Q729.075,636.5125 729.4125,636.1625 Q729.625,635.95 729.7375,635.8875 Q729.8625,635.825 730.025,635.825 Q730.2875,635.825 730.4875,636.0375 Q730.7,636.2375 730.7,636.5125 Q730.7,636.7875 730.425,637.1125 Q730.025,637.575 729.3875,637.8375 Q728.525,638.2 727.4875,638.2 Q726.275,638.2 725.3125,637.7 Q724.525,637.3 723.975,636.45 Q723.425,635.5875 723.425,634.5625 L723.425,633.6375 Q723.425,632.575 723.9125,631.6625 Q724.4125,630.7375 725.2875,630.25 Q726.1625,629.75 727.15,629.75 Q727.7375,629.75 728.25,629.8875 Q728.775,630.0125 729.2125,630.3 Z " fill="#000000"/><text fill="#000000" font-family="sans-serif" font-size="11.2" lengthAdjust="spacing" textLength="104" x="743.4" y="638.2375">EmployeeRepository</text><line style="stroke:#181818;stroke-width:0.4000000000000001;" x1="691.2" x2="873.6" y1="646.4" y2="646.4"/><line style="stroke:#181818;stroke-width:0.4000000000000001;" x1="691.2" x2="873.6" y1="652.8" y2="652.8"/><rect fill="#F24D5C" height="4.8" style="stroke:#C82930;stroke-width:0.8000000000000002;" width="4.8" x="696.8" y="662.2484"/><text fill="#000000" font-family="sans-serif" font-size="11.2" lengthAdjust="spacing" textLength="112" x="706.4" y="668.0859">EmployeeRepository()</text><ellipse cx="699.2" cy="679.5453" fill="#84BE84" rx="2.4" ry="2.4" style="stroke:#038048;stroke-width:0.8000000000000002;"/><text fill="#000000" font-family="sans-serif" font-size="11.2" lengthAdjust="spacing" textLength="76.8" x="706.4" y="682.9828">listEmployees()</text><ellipse cx="699.2" cy="694.4422" fill="#84BE84" rx="2.4" ry="2.4" style="stroke:#038048;stroke-width:0.8000000000000002;"/><text fill="#000000" font-family="sans-serif" font-size="11.2" lengthAdjust="spacing" textLength="83.2" x="706.4" y="697.8797">emailExists(mail)</text><ellipse cx="699.2" cy="709.3391" fill="#84BE84" rx="2.4" ry="2.4" style="stroke:#038048;stroke-width:0.8000000000000002;"/><text fill="#000000" font-family="sans-serif" font-size="11.2" lengthAdjust="spacing" textLength="163.2" x="706.4" y="712.7766">getEmployeeByUserEmail(email)</text></g><!--class Employee--><g id="elem_Employee"><rect codeLine="66" fill="#F1F1F1" height="232.0594" id="Employee" rx="2" ry="2" style="stroke:#181818;stroke-width:0.4000000000000001;" width="158.4" x="703.2" y="834.4"/><ellipse cx="754.2" cy="847.2" fill="#ADD1B2" rx="8.8" ry="8.8" style="stroke:#181818;stroke-width:0.8000000000000002;"/><path d="M756.4125,843.9 Q756.5375,843.725 756.6875,843.6375 Q756.8375,843.55 757.0125,843.55 Q757.3125,843.55 757.5,843.7625 Q757.6875,843.9625 757.6875,844.45 L757.6875,845.6125 Q757.6875,846.1 757.5,846.3125 Q757.3125,846.525 757.0125,846.525 Q756.7375,846.525 756.575,846.3625 Q756.4125,846.2125 756.325,845.8 Q756.2875,845.5125 756.1375,845.3625 Q755.875,845.0625 755.3875,844.8875 Q754.9,844.7125 754.4,844.7125 Q753.7875,844.7125 753.275,844.975 Q752.775,845.2375 752.375,845.8375 Q751.9875,846.4375 751.9875,847.2625 L751.9875,848.1375 Q751.9875,849.125 752.7,849.7875 Q753.4125,850.4375 754.6875,850.4375 Q755.4375,850.4375 755.9625,850.2375 Q756.275,850.1125 756.6125,849.7625 Q756.825,849.55 756.9375,849.4875 Q757.0625,849.425 757.225,849.425 Q757.4875,849.425 757.6875,849.6375 Q757.9,849.8375 757.9,850.1125 Q757.9,850.3875 757.625,850.7125 Q757.225,851.175 756.5875,851.4375 Q755.725,851.8 754.6875,851.8 Q753.475,851.8 752.5125,851.3 Q751.725,850.9 751.175,850.05 Q750.625,849.1875 750.625,848.1625 L750.625,847.2375 Q750.625,846.175 751.1125,845.2625 Q751.6125,844.3375 752.4875,843.85 Q753.3625,843.35 754.35,843.35 Q754.9375,843.35 755.45,843.4875 Q755.975,843.6125 756.4125,843.9 Z " fill="#000000"/><text fill="#000000" font-family="sans-serif" font-size="11.2" lengthAdjust="spacing" textLength="49.6" x="770.6" y="851.8375">Employee</text><line style="stroke:#181818;stroke-width:0.4000000000000001;" x1="704" x2="860.8" y1="860" y2="860"/><rect fill="none" height="4.8" style="stroke:#C82930;stroke-width:0.8000000000000002;" width="4.8" x="709.6" y="869.4484"/><text fill="#000000" font-family="sans-serif" font-size="11.2" lengthAdjust="spacing" textLength="60.8" x="719.2" y="875.2859">String name</text><rect fill="none" height="4.8" style="stroke:#C82930;stroke-width:0.8000000000000002;" width="4.8" x="709.6" y="884.3453"/><text fill="#000000" font-family="sans-serif" font-size="11.2" lengthAdjust="spacing" textLength="72" x="719.2" y="890.1828">Date birthdate</text><rect fill="none" height="4.8" style="stroke:#C82930;stroke-width:0.8000000000000002;" width="4.8" x="709.6" y="899.2422"/><text fill="#000000" font-family="sans-serif" font-size="11.2" lengthAdjust="spacing" textLength="103.2" x="719.2" y="905.0797">Date admission date</text><rect fill="none" height="4.8" style="stroke:#C82930;stroke-width:0.8000000000000002;" width="4.8" x="709.6" y="914.1391"/><text fill="#000000" font-family="sans-serif" font-size="11.2" lengthAdjust="spacing" textLength="116.8" x="719.2" y="919.9766">Address postalAddress</text><rect fill="none" height="4.8" style="stroke:#C82930;stroke-width:0.8000000000000002;" width="4.8" x="709.6" y="929.0359"/><text fill="#000000" font-family="sans-serif" font-size="11.2" lengthAdjust="spacing" textLength="64.8" x="719.2" y="934.8734">String phone</text><rect fill="none" height="4.8" style="stroke:#C82930;stroke-width:0.8000000000000002;" width="4.8" x="709.6" y="943.9328"/><text fill="#000000" font-family="sans-serif" font-size="11.2" lengthAdjust="spacing" textLength="59.2" x="719.2" y="949.7703">String email</text><rect fill="none" height="4.8" style="stroke:#C82930;stroke-width:0.8000000000000002;" width="4.8" x="709.6" y="958.8297"/><text fill="#000000" font-family="sans-serif" font-size="11.2" lengthAdjust="spacing" textLength="89.6" x="719.2" y="964.6672">String ID doc type</text><rect fill="none" height="4.8" style="stroke:#C82930;stroke-width:0.8000000000000002;" width="4.8" x="709.6" y="973.7266"/><text fill="#000000" font-family="sans-serif" font-size="11.2" lengthAdjust="spacing" textLength="137.6" x="719.2" y="979.5641">String ID document number</text><rect fill="none" height="4.8" style="stroke:#C82930;stroke-width:0.8000000000000002;" width="4.8" x="709.6" y="988.6234"/><text fill="#000000" font-family="sans-serif" font-size="11.2" lengthAdjust="spacing" textLength="93.6" x="719.2" y="994.4609">String Taxpayer ID</text><line style="stroke:#181818;stroke-width:0.4000000000000001;" x1="704" x2="860.8" y1="1000.4719" y2="1000.4719"/><ellipse cx="712" cy="1012.3203" fill="#84BE84" rx="2.4" ry="2.4" style="stroke:#038048;stroke-width:0.8000000000000002;"/><text fill="#000000" font-family="sans-serif" font-size="11.2" lengthAdjust="spacing" textLength="126.4" x="719.2" y="1015.7578">CompareTo(TaxPayerID)</text><ellipse cx="712" cy="1027.2172" fill="#84BE84" rx="2.4" ry="2.4" style="stroke:#038048;stroke-width:0.8000000000000002;"/><text fill="#000000" font-family="sans-serif" font-size="11.2" lengthAdjust="spacing" textLength="37.6" x="719.2" y="1030.6547">Clone()</text><ellipse cx="712" cy="1042.1141" fill="#84BE84" rx="2.4" ry="2.4" style="stroke:#038048;stroke-width:0.8000000000000002;"/><text fill="#000000" font-family="sans-serif" font-size="11.2" lengthAdjust="spacing" textLength="47.2" x="719.2" y="1045.5516">toString()</text><ellipse cx="712" cy="1057.0109" fill="#84BE84" rx="2.4" ry="2.4" style="stroke:#038048;stroke-width:0.8000000000000002;"/><text fill="#000000" font-family="sans-serif" font-size="11.2" lengthAdjust="spacing" textLength="112.8" x="719.2" y="1060.4484">changeStatus (Status)</text></g><!--class OrganizationRepository--><g id="elem_OrganizationRepository"><rect codeLine="82" fill="#F1F1F1" height="53.2969" id="OrganizationRepository" rx="2" ry="2" style="stroke:#181818;stroke-width:0.4000000000000001;" width="198.4" x="840" y="261.2"/><ellipse cx="876.6" cy="274" fill="#ADD1B2" rx="8.8" ry="8.8" style="stroke:#181818;stroke-width:0.8000000000000002;"/><path d="M878.8125,270.7 Q878.9375,270.525 879.0875,270.4375 Q879.2375,270.35 879.4125,270.35 Q879.7125,270.35 879.9,270.5625 Q880.0875,270.7625 880.0875,271.25 L880.0875,272.4125 Q880.0875,272.9 879.9,273.1125 Q879.7125,273.325 879.4125,273.325 Q879.1375,273.325 878.975,273.1625 Q878.8125,273.0125 878.725,272.6 Q878.6875,272.3125 878.5375,272.1625 Q878.275,271.8625 877.7875,271.6875 Q877.3,271.5125 876.8,271.5125 Q876.1875,271.5125 875.675,271.775 Q875.175,272.0375 874.775,272.6375 Q874.3875,273.2375 874.3875,274.0625 L874.3875,274.9375 Q874.3875,275.925 875.1,276.5875 Q875.8125,277.2375 877.0875,277.2375 Q877.8375,277.2375 878.3625,277.0375 Q878.675,276.9125 879.0125,276.5625 Q879.225,276.35 879.3375,276.2875 Q879.4625,276.225 879.625,276.225 Q879.8875,276.225 880.0875,276.4375 Q880.3,276.6375 880.3,276.9125 Q880.3,277.1875 880.025,277.5125 Q879.625,277.975 878.9875,278.2375 Q878.125,278.6 877.0875,278.6 Q875.875,278.6 874.9125,278.1 Q874.125,277.7 873.575,276.85 Q873.025,275.9875 873.025,274.9625 L873.025,274.0375 Q873.025,272.975 873.5125,272.0625 Q874.0125,271.1375 874.8875,270.65 Q875.7625,270.15 876.75,270.15 Q877.3375,270.15 877.85,270.2875 Q878.375,270.4125 878.8125,270.7 Z " fill="#000000"/><text fill="#000000" font-family="sans-serif" font-size="11.2" lengthAdjust="spacing" textLength="118.4" x="893" y="278.6375">OrganizationRepository</text><line style="stroke:#181818;stroke-width:0.4000000000000001;" x1="840.8" x2="1037.6" y1="286.8" y2="286.8"/><line style="stroke:#181818;stroke-width:0.4000000000000001;" x1="840.8" x2="1037.6" y1="293.2" y2="293.2"/><ellipse cx="848.8" cy="305.0484" fill="#84BE84" rx="2.4" ry="2.4" style="stroke:#038048;stroke-width:0.8000000000000002;"/><text fill="#000000" font-family="sans-serif" font-size="11.2" lengthAdjust="spacing" textLength="177.6" x="856" y="308.4859">getOrganizationByUserEmail(email)</text></g><!--class Organization--><g id="elem_Organization"><rect codeLine="86" fill="#F1F1F1" height="142.6781" id="Organization" rx="2" ry="2" style="stroke:#181818;stroke-width:0.4000000000000001;" width="376.8" x="750.8" y="415.2"/><ellipse cx="903.8" cy="428" fill="#ADD1B2" rx="8.8" ry="8.8" style="stroke:#181818;stroke-width:0.8000000000000002;"/><path d="M906.0125,424.7 Q906.1375,424.525 906.2875,424.4375 Q906.4375,424.35 906.6125,424.35 Q906.9125,424.35 907.1,424.5625 Q907.2875,424.7625 907.2875,425.25 L907.2875,426.4125 Q907.2875,426.9 907.1,427.1125 Q906.9125,427.325 906.6125,427.325 Q906.3375,427.325 906.175,427.1625 Q906.0125,427.0125 905.925,426.6 Q905.8875,426.3125 905.7375,426.1625 Q905.475,425.8625 904.9875,425.6875 Q904.5,425.5125 904,425.5125 Q903.3875,425.5125 902.875,425.775 Q902.375,426.0375 901.975,426.6375 Q901.5875,427.2375 901.5875,428.0625 L901.5875,428.9375 Q901.5875,429.925 902.3,430.5875 Q903.0125,431.2375 904.2875,431.2375 Q905.0375,431.2375 905.5625,431.0375 Q905.875,430.9125 906.2125,430.5625 Q906.425,430.35 906.5375,430.2875 Q906.6625,430.225 906.825,430.225 Q907.0875,430.225 907.2875,430.4375 Q907.5,430.6375 907.5,430.9125 Q907.5,431.1875 907.225,431.5125 Q906.825,431.975 906.1875,432.2375 Q905.325,432.6 904.2875,432.6 Q903.075,432.6 902.1125,432.1 Q901.325,431.7 900.775,430.85 Q900.225,429.9875 900.225,428.9625 L900.225,428.0375 Q900.225,426.975 900.7125,426.0625 Q901.2125,425.1375 902.0875,424.65 Q902.9625,424.15 903.95,424.15 Q904.5375,424.15 905.05,424.2875 Q905.575,424.4125 906.0125,424.7 Z " fill="#000000"/><text fill="#000000" font-family="sans-serif" font-size="11.2" lengthAdjust="spacing" textLength="64" x="920.2" y="432.6375">Organization</text><line style="stroke:#181818;stroke-width:0.4000000000000001;" x1="751.6" x2="1126.8" y1="440.8" y2="440.8"/><rect fill="none" height="4.8" style="stroke:#C82930;stroke-width:0.8000000000000002;" width="4.8" x="757.2" y="450.2484"/><text fill="#000000" font-family="sans-serif" font-size="11.2" lengthAdjust="spacing" textLength="60.8" x="766.8" y="456.0859">String name</text><rect fill="none" height="4.8" style="stroke:#C82930;stroke-width:0.8000000000000002;" width="4.8" x="757.2" y="465.1453"/><text fill="#000000" font-family="sans-serif" font-size="11.2" lengthAdjust="spacing" textLength="87.2" x="766.8" y="470.9828">String vatNumber</text><rect fill="none" height="4.8" style="stroke:#C82930;stroke-width:0.8000000000000002;" width="4.8" x="757.2" y="480.0422"/><text fill="#000000" font-family="sans-serif" font-size="11.2" lengthAdjust="spacing" textLength="64.8" x="766.8" y="485.8797">String phone</text><rect fill="none" height="4.8" style="stroke:#C82930;stroke-width:0.8000000000000002;" width="4.8" x="757.2" y="494.9391"/><text fill="#000000" font-family="sans-serif" font-size="11.2" lengthAdjust="spacing" textLength="59.2" x="766.8" y="500.7766">String email</text><rect fill="none" height="4.8" style="stroke:#C82930;stroke-width:0.8000000000000002;" width="4.8" x="757.2" y="509.8359"/><text fill="#000000" font-family="sans-serif" font-size="11.2" lengthAdjust="spacing" textLength="116.8" x="766.8" y="515.6734">Address postalAddress</text><line style="stroke:#181818;stroke-width:0.4000000000000001;" x1="751.6" x2="1126.8" y1="521.6844" y2="521.6844"/><ellipse cx="759.6" cy="533.5328" fill="#84BE84" rx="2.4" ry="2.4" style="stroke:#038048;stroke-width:0.8000000000000002;"/><text fill="#000000" font-family="sans-serif" font-size="11.2" lengthAdjust="spacing" textLength="356" x="766.8" y="536.9703">Organization(name, vatNumber, webSite, phone, email, postalAddress)</text><rect fill="#F24D5C" height="4.8" style="stroke:#C82930;stroke-width:0.8000000000000002;" width="4.8" x="757.2" y="546.0297"/><text fill="#000000" font-family="sans-serif" font-size="11.2" lengthAdjust="spacing" textLength="113.6" x="766.8" y="551.8672">getUserByEmail(email)</text></g><!--class Status--><g id="elem_Status"><rect codeLine="96" fill="#F1F1F1" height="97.9875" id="Status" rx="2" ry="2" style="stroke:#181818;stroke-width:0.4000000000000001;" width="78.4" x="614.4" y="1499.2"/><ellipse cx="635.76" cy="1512" fill="#EB937F" rx="8.8" ry="8.8" style="stroke:#181818;stroke-width:0.8000000000000002;"/><path d="M634.8475,1512.6375 L634.8475,1514.6375 L638.31,1514.6375 L638.31,1513.9 Q638.31,1513.4125 638.4975,1513.2 Q638.6975,1512.9875 638.9975,1512.9875 Q639.2975,1512.9875 639.485,1513.2 Q639.6725,1513.4125 639.6725,1513.9 L639.6725,1516 L633.2725,1516 Q632.7725,1516 632.56,1515.8125 Q632.36,1515.625 632.36,1515.3125 Q632.36,1515.0125 632.5725,1514.825 Q632.785,1514.6375 633.2725,1514.6375 L633.485,1514.6375 L633.485,1509.3125 L633.2725,1509.3125 Q632.7725,1509.3125 632.56,1509.125 Q632.36,1508.9375 632.36,1508.625 Q632.36,1508.325 632.56,1508.1375 Q632.7725,1507.95 633.2725,1507.95 L639.3725,1507.95 L639.3725,1510.025 Q639.3725,1510.5125 639.185,1510.725 Q639.01,1510.925 638.6975,1510.925 Q638.3975,1510.925 638.21,1510.725 Q638.0225,1510.5125 638.0225,1510.025 L638.0225,1509.3125 L634.8475,1509.3125 L634.8475,1511.275 L636.035,1511.275 Q636.035,1510.75 636.135,1510.6 Q636.3475,1510.275 636.7225,1510.275 Q637.0225,1510.275 637.21,1510.4875 Q637.3975,1510.6875 637.3975,1511.175 L637.3975,1512.75 Q637.3975,1513.1875 637.2975,1513.3375 Q637.085,1513.65 636.7225,1513.65 Q636.3475,1513.65 636.135,1513.325 Q636.035,1513.175 636.035,1512.6375 L634.8475,1512.6375 Z " fill="#000000"/><text fill="#000000" font-family="sans-serif" font-size="11.2" lengthAdjust="spacing" textLength="32" x="649.04" y="1516.6375">Status</text><line style="stroke:#181818;stroke-width:0.4000000000000001;" x1="615.2" x2="692" y1="1524.8" y2="1524.8"/><text fill="#000000" font-family="sans-serif" font-size="11.2" lengthAdjust="spacing" textLength="50.4" x="619.2" y="1540.0859">PLANNED</text><text fill="#000000" font-family="sans-serif" font-size="11.2" lengthAdjust="spacing" textLength="68.8" x="619.2" y="1554.9828">POSTPONED</text><text fill="#000000" font-family="sans-serif" font-size="11.2" lengthAdjust="spacing" textLength="59.2" x="619.2" y="1569.8797">CANCELED</text><text fill="#000000" font-family="sans-serif" font-size="11.2" lengthAdjust="spacing" textLength="31.2" x="619.2" y="1584.7766">DONE</text><line style="stroke:#181818;stroke-width:0.4000000000000001;" x1="615.2" x2="692" y1="1590.7875" y2="1590.7875"/></g><!--link Repositories to Repositories--><g id="link_Repositories_Repositories"><path codeLine="106" d="M706.4,273.056 C723.4,275.872 734.4,280.856 734.4,288 C734.4,295.144 728.1355,299.3436 711.1355,302.1596 " fill="none" id="Repositories-to-Repositories" style="stroke:#181818;stroke-width:0.8000000000000002;"/><polygon fill="#181818" points="706.4,302.944,714.0262,304.9244,710.3462,302.2903,712.9803,298.6104,706.4,302.944" style="stroke:#181818;stroke-width:0.8000000000000002;"/><text fill="#000000" font-family="sans-serif" font-size="10.4" lengthAdjust="spacing" textLength="39.2" x="739.2" y="292.4227">instance</text></g><!--link PostponeTaskUI to PostponeTaskController--><g id="link_PostponeTaskUI_PostponeTaskController"><path codeLine="107" d="M554.4,44.096 C554.4,61.464 554.4,87.616 554.4,107.096 " fill="none" id="PostponeTaskUI-PostponeTaskController" style="stroke:#181818;stroke-width:0.8000000000000002;"/><text fill="#000000" font-family="sans-serif" font-size="10.4" lengthAdjust="spacing" textLength="24" x="555.2" y="80.0227">Uses</text></g><!--link PostponeTaskController to Repositories--><g id="link_PostponeTaskController_Repositories"><path codeLine="108" d="M554.4,161 C554.4,178.36 554.4,201.92 554.4,223.984 " fill="none" id="PostponeTaskController-Repositories" style="stroke:#181818;stroke-width:0.8000000000000002;"/><text fill="#000000" font-family="sans-serif" font-size="10.4" lengthAdjust="spacing" textLength="38.4" x="555.2" y="196.8227">Controls</text></g><!--reverse link Repositories to OrganizationRepository--><g id="link_Repositories_OrganizationRepository"><path codeLine="109" d="M716.08,288 C760.936,288 799.248,288 839.864,288 " fill="none" id="Repositories-backto-OrganizationRepository" style="stroke:#181818;stroke-width:0.8000000000000002;"/><polygon fill="#181818" points="706.48,288,711.28,291.2,716.08,288,711.28,284.8,706.48,288" style="stroke:#181818;stroke-width:0.8000000000000002;"/><text fill="#000000" font-family="sans-serif" font-size="10.4" lengthAdjust="spacing" textLength="40.8" x="752.8" y="282.4227">Contains</text><text fill="#000000" font-family="sans-serif" font-size="10.4" lengthAdjust="spacing" textLength="5.6" x="828.0401" y="285.2246">1</text></g><!--reverse link Repositories to EmployeeRepository--><g id="link_Repositories_EmployeeRepository"><path codeLine="110" d="M605.0659,360.2192 C618.1459,379.8992 626.544,394 637.6,415.2 C669.112,475.608 660.28,498.624 694.4,557.6 C707.096,579.552 723.824,601.84 739.28,620.64 " fill="none" id="Repositories-backto-EmployeeRepository" style="stroke:#181818;stroke-width:0.8000000000000002;"/><polygon fill="#181818" points="599.752,352.224,599.7439,357.9929,605.0659,360.2192,605.074,354.4503,599.752,352.224" style="stroke:#181818;stroke-width:0.8000000000000002;"/><text fill="#000000" font-family="sans-serif" font-size="10.4" lengthAdjust="spacing" textLength="40.8" x="695.2" y="490.8227">Contains</text><text fill="#000000" font-family="sans-serif" font-size="10.4" lengthAdjust="spacing" textLength="5.6" x="728.3705" y="611.8065">1</text></g><!--reverse link Repositories to TaskRepository--><g id="link_Repositories_TaskRepository"><path codeLine="111" d="M554.4,361.752 C554.4,398.16 554.4,432.328 554.4,459.56 " fill="none" id="Repositories-backto-TaskRepository" style="stroke:#181818;stroke-width:0.8000000000000002;"/><polygon fill="#181818" points="554.4,352.152,551.2,356.952,554.4,361.752,557.6,356.952,554.4,352.152" style="stroke:#181818;stroke-width:0.8000000000000002;"/><text fill="#000000" font-family="sans-serif" font-size="10.4" lengthAdjust="spacing" textLength="40.8" x="555.2" y="388.0227">Contains</text><text fill="#000000" font-family="sans-serif" font-size="10.4" lengthAdjust="spacing" textLength="5.6" x="548.2488" y="450.6125">1</text></g><!--link TaskRepository to Tasks--><g id="link_TaskRepository_Tasks"><path codeLine="112" d="M557.368,513.304 C563.344,565.856 576.816,684.328 583.416,742.336 " fill="none" id="TaskRepository-Tasks" style="stroke:#181818;stroke-width:0.8000000000000002;"/><text fill="#000000" font-family="sans-serif" font-size="10.4" lengthAdjust="spacing" textLength="40.8" x="568" y="593.6227">Contains</text></g><!--reverse link Tasks to Task--><g id="link_Tasks_Task"><path codeLine="113" d="M592.8601,820.23 C601.2681,884.142 618.816,1017.536 633.52,1129.328 " fill="none" id="Tasks-backto-Task" style="stroke:#181818;stroke-width:0.8000000000000002;"/><polygon fill="#181818" points="591.608,810.712,589.0614,815.8884,592.8601,820.23,595.4067,815.0536,591.608,810.712" style="stroke:#181818;stroke-width:0.8000000000000002;"/><text fill="#000000" font-family="sans-serif" font-size="10.4" lengthAdjust="spacing" textLength="40.8" x="625.6" y="954.8227">Contains</text></g><!--link EmployeeRepository to Employee--><g id="link_EmployeeRepository_Employee"><path codeLine="114" d="M782.4,718.712 C782.4,750.632 782.4,793.888 782.4,834.328 " fill="none" id="EmployeeRepository-Employee" style="stroke:#181818;stroke-width:0.8000000000000002;"/><text fill="#000000" font-family="sans-serif" font-size="10.4" lengthAdjust="spacing" textLength="40.8" x="783.2" y="780.8227">Contains</text></g><!--link Employee to Task--><g id="link_Employee_Task"><path codeLine="115" d="M737.536,1066.432 C729.616,1086.76 721.272,1108.2 713.032,1129.36 " fill="none" id="Employee-Task" style="stroke:#181818;stroke-width:0.8000000000000002;"/><text fill="#000000" font-family="sans-serif" font-size="10.4" lengthAdjust="spacing" textLength="41.6" x="726.4" y="1102.4227">Performs</text></g><!--link OrganizationRepository to Organization--><g id="link_OrganizationRepository_Organization"><path codeLine="116" d="M939.2,314.936 C939.2,340.392 939.2,380.24 939.2,415.024 " fill="none" id="OrganizationRepository-Organization" style="stroke:#181818;stroke-width:0.8000000000000002;"/><text fill="#000000" font-family="sans-serif" font-size="10.4" lengthAdjust="spacing" textLength="40.8" x="940" y="388.0227">Contains</text><text fill="#000000" font-family="sans-serif" font-size="10.4" lengthAdjust="spacing" textLength="4" x="935.0344" y="406.1708">*</text></g><!--reverse link Organization to Employee--><g id="link_Organization_Employee"><path codeLine="117" d="M926.198,567.2698 C917.79,613.6058 906.432,665.712 888.8,718.4 C875.864,757.056 858.432,797.872 841.432,834.272 " fill="none" id="Organization-backto-Employee" style="stroke:#181818;stroke-width:0.8000000000000002;"/><polygon fill="#181818" points="927.912,557.824,923.9064,561.9755,926.198,567.2698,930.2036,563.1182,927.912,557.824" style="stroke:#181818;stroke-width:0.8000000000000002;"/><text fill="#000000" font-family="sans-serif" font-size="10.4" lengthAdjust="spacing" textLength="39.2" x="915.2" y="674.0227">employs</text><text fill="#000000" font-family="sans-serif" font-size="10.4" lengthAdjust="spacing" textLength="5.6" x="921.1453" y="575.5227">1</text><text fill="#000000" font-family="sans-serif" font-size="10.4" lengthAdjust="spacing" textLength="4" x="840.3727" y="825.5607">*</text></g><!--reverse link Organization to EmployeeRepository--><g id="link_Organization_EmployeeRepository"><path codeLine="118" d="M872.078,564.9382 C853.918,585.9702 840.696,601.28 824.064,620.544 " fill="none" id="Organization-backto-EmployeeRepository" style="stroke:#181818;stroke-width:0.8000000000000002;"/><polygon fill="#181818" points="878.352,557.672,872.793,559.2138,872.078,564.9382,877.6371,563.3964,878.352,557.672" style="stroke:#181818;stroke-width:0.8000000000000002;"/><text fill="#000000" font-family="sans-serif" font-size="10.4" lengthAdjust="spacing" textLength="5.6" x="867.2823" y="575.602">1</text><text fill="#000000" font-family="sans-serif" font-size="10.4" lengthAdjust="spacing" textLength="5.6" x="822.9577" y="611.6994">1</text></g><!--link Task to Status--><g id="link_Task_Status"><path codeLine="119" d="M653.6,1436.176 C653.6,1458.944 653.6,1476.064 653.6,1494.328 " fill="none" id="Task-to-Status" style="stroke:#181818;stroke-width:0.8000000000000002;"/><polygon fill="#181818" points="653.6,1499.128,656.8,1491.928,653.6,1495.128,650.4,1491.928,653.6,1499.128" style="stroke:#181818;stroke-width:0.8000000000000002;"/><text fill="#000000" font-family="sans-serif" font-size="10.4" lengthAdjust="spacing" textLength="16.8" x="654.4" y="1472.0227">has</text></g><!--reverse link AuthenticationRepository to Repositories--><g id="link_AuthenticationRepository_Repositories"><path codeLine="120" d="M379.448,288 C388.696,288 393.136,288 402.384,288 " fill="none" id="AuthenticationRepository-backto-Repositories" style="stroke:#181818;stroke-width:0.8000000000000002;"/><polygon fill="#181818" points="374.648,288,381.848,291.2,378.648,288,381.848,284.8,374.648,288" style="stroke:#181818;stroke-width:0.8000000000000002;"/><text fill="#000000" font-family="sans-serif" font-size="10.4" lengthAdjust="spacing" textLength="5.6" x="380.7001" y="285.1225">1</text></g><!--reverse link UserSession to AuthenticationRepository--><g id="link_UserSession_AuthenticationRepository"><path codeLine="121" d="M140.232,288 C167.28,288 194.072,288 222.2,288 " fill="none" id="UserSession-backto-AuthenticationRepository" style="stroke:#181818;stroke-width:0.8000000000000002;"/><polygon fill="#181818" points="135.432,288,142.632,291.2,139.432,288,142.632,284.8,135.432,288" style="stroke:#181818;stroke-width:0.8000000000000002;"/><text fill="#000000" font-family="sans-serif" font-size="10.4" lengthAdjust="spacing" textLength="57.6" x="150" y="282.4227">userSession</text><text fill="#000000" font-family="sans-serif" font-size="10.4" lengthAdjust="spacing" textLength="5.6" x="141.6853" y="284.9976">1</text></g><!--SRC=[XLPBZvim4BxpAwnU2hlXq2kgLifBRQGe6ssowjaBtc0LR6IRTcdL_ruFDc3psBqaUBvvV3DZZvqMM4fqvb9Ld94hbZ-V3-Xly2y8qWcovKm9NXH4Q0s4xgjPB2HbLV26a2UY5QZYebcXMX9n8L9IpY9m7dJ-UoLAPEiLeTWJXb4hl4SteWvCAinI4aOeyPG6bVqaUAiy5GycG7-axei6rKTnmup-mKhduPeaQ1uPBDUroWbJD9snNSA6BYnfs8gr4RQr45hdUQXq60qU775lHEMHtsuaEx0VLELFl21kiS7YaBa-_AgOFG2o_HkLIcwQArNQHVixiZAjZHLy9kYerR-2-04ys0v8g8I3UFOzPGNE4tHHWh9RnrKGmYuLJZNmhV-sO4PaAcW5PHkPwQsaQWb2-BV2Mjm8Ivi4FPkFpWjkj2PbogvpNWjF04cqsKTZSaGDd02TCDGQku7ad0F3q20ELxc8GFSCVu3yL22SpWO0Z_vtICcNAcwOJ3YzKfQrFTiqEwp84sOt4kfw2WNB1C7l2X6M3Sjer7Pma_Aome9SUSZrzXO0cQDdMVHRO7fw-r4nTzwj-qB7w-1XZ90IqyBis10-e-dis3Imz_U0XiJeJAZq14nX4CCbiH985xrGeV9CVxb2d9NK7447MMUPq0SJmJJ5XLtvpgjSJrbVrFBoHOSTodYAL5EHEQ0kzNH0h2vVYF3nAtwhSAEd-c5dYx7jEwEnCs27NLUeRQ79zEKSzaZNr1nsWzcEA3J_JltcvwGxnroDzphXwhtJ3IlvXTLf9lKFAhlSctilVWW1LqEG5VfDNYuKJa4ROMMyhdn7aOrYX-sc6ITATBVioROPde_hqsblsdH-l5pFZzrgkpvjzqUxs6bnUyr-rjTaqLAKEQra47ZtRVpWtxzmxCmD6unU176yz198u6gHmG8Qn-C85fG-axjOQDLFNpujRH1ZY3M_iQ4ncnaH7vcChZD7VOHeVNE9ZLICg_P-Sf0P9l4mf-OqqU3bJCGh5wKC5ie0rE_y8haUFJdaU6SDdF3cURQaErlADbiT-w7RZ0dAyQYgSG4us2y-PnPVCThMc3glbCHzCmR_0G00]--></g></svg>