<?xml version="1.0" encoding="us-ascii" standalone="no"?><svg xmlns="http://www.w3.org/2000/svg" xmlns:xlink="http://www.w3.org/1999/xlink" contentStyleType="text/css" height="509px" preserveAspectRatio="none" style="width:631px;height:509px;background:#FFFFFF;" version="1.1" viewBox="0 0 631 509" width="631px" zoomAndPan="magnify"><defs/><g><!--class HRMUI--><g id="elem_HRMUI"><rect codeLine="5" fill="#F1F1F1" height="48" id="HRMUI" rx="2.5" ry="2.5" style="stroke:#181818;stroke-width:0.5;" width="74" x="289" y="7"/><ellipse cx="304" cy="23" fill="#C2C2C2" rx="11" ry="11" style="stroke:#181818;stroke-width:1.0;"/><path d="M306.7656,18.875 Q306.9219,18.6563 307.1094,18.5469 Q307.2969,18.4375 307.5156,18.4375 Q307.8906,18.4375 308.125,18.7031 Q308.3594,18.9531 308.3594,19.5625 L308.3594,21.0156 Q308.3594,21.625 308.125,21.8906 Q307.8906,22.1563 307.5156,22.1563 Q307.1719,22.1563 306.9688,21.9531 Q306.7656,21.7656 306.6563,21.25 Q306.6094,20.8906 306.4219,20.7031 Q306.0938,20.3281 305.4844,20.1094 Q304.875,19.8906 304.25,19.8906 Q303.4844,19.8906 302.8438,20.2188 Q302.2188,20.5469 301.7188,21.2969 Q301.2344,22.0469 301.2344,23.0781 L301.2344,24.1719 Q301.2344,25.4063 302.125,26.2344 Q303.0156,27.0469 304.6094,27.0469 Q305.5469,27.0469 306.2031,26.7969 Q306.5938,26.6406 307.0156,26.2031 Q307.2813,25.9375 307.4219,25.8594 Q307.5781,25.7813 307.7813,25.7813 Q308.1094,25.7813 308.3594,26.0469 Q308.625,26.2969 308.625,26.6406 Q308.625,26.9844 308.2813,27.3906 Q307.7813,27.9688 306.9844,28.2969 Q305.9063,28.75 304.6094,28.75 Q303.0938,28.75 301.8906,28.125 Q300.9063,27.625 300.2188,26.5625 Q299.5313,25.4844 299.5313,24.2031 L299.5313,23.0469 Q299.5313,21.7188 300.1406,20.5781 Q300.7656,19.4219 301.8594,18.8125 Q302.9531,18.1875 304.1875,18.1875 Q304.9219,18.1875 305.5625,18.3594 Q306.2188,18.5156 306.7656,18.875 Z " fill="#000000"/><text fill="#000000" font-family="sans-serif" font-size="14" lengthAdjust="spacing" textLength="42" x="318" y="28.7285">HRMUI</text><line style="stroke:#181818;stroke-width:0.5;" x1="290" x2="362" y1="39" y2="39"/><line style="stroke:#181818;stroke-width:0.5;" x1="290" x2="362" y1="47" y2="47"/></g><!--class HRMController--><g id="elem_HRMController"><rect codeLine="8" fill="#F1F1F1" height="48" id="HRMController" rx="2.5" ry="2.5" style="stroke:#181818;stroke-width:0.5;" width="124" x="264" y="115"/><ellipse cx="279" cy="131" fill="#C2C2C2" rx="11" ry="11" style="stroke:#181818;stroke-width:1.0;"/><path d="M281.7656,126.875 Q281.9219,126.6563 282.1094,126.5469 Q282.2969,126.4375 282.5156,126.4375 Q282.8906,126.4375 283.125,126.7031 Q283.3594,126.9531 283.3594,127.5625 L283.3594,129.0156 Q283.3594,129.625 283.125,129.8906 Q282.8906,130.1563 282.5156,130.1563 Q282.1719,130.1563 281.9688,129.9531 Q281.7656,129.7656 281.6563,129.25 Q281.6094,128.8906 281.4219,128.7031 Q281.0938,128.3281 280.4844,128.1094 Q279.875,127.8906 279.25,127.8906 Q278.4844,127.8906 277.8438,128.2188 Q277.2188,128.5469 276.7188,129.2969 Q276.2344,130.0469 276.2344,131.0781 L276.2344,132.1719 Q276.2344,133.4063 277.125,134.2344 Q278.0156,135.0469 279.6094,135.0469 Q280.5469,135.0469 281.2031,134.7969 Q281.5938,134.6406 282.0156,134.2031 Q282.2813,133.9375 282.4219,133.8594 Q282.5781,133.7813 282.7813,133.7813 Q283.1094,133.7813 283.3594,134.0469 Q283.625,134.2969 283.625,134.6406 Q283.625,134.9844 283.2813,135.3906 Q282.7813,135.9688 281.9844,136.2969 Q280.9063,136.75 279.6094,136.75 Q278.0938,136.75 276.8906,136.125 Q275.9063,135.625 275.2188,134.5625 Q274.5313,133.4844 274.5313,132.2031 L274.5313,131.0469 Q274.5313,129.7188 275.1406,128.5781 Q275.7656,127.4219 276.8594,126.8125 Q277.9531,126.1875 279.1875,126.1875 Q279.9219,126.1875 280.5625,126.3594 Q281.2188,126.5156 281.7656,126.875 Z " fill="#000000"/><text fill="#000000" font-family="sans-serif" font-size="14" lengthAdjust="spacing" textLength="92" x="293" y="136.7285">HRMController</text><line style="stroke:#181818;stroke-width:0.5;" x1="265" x2="387" y1="147" y2="147"/><line style="stroke:#181818;stroke-width:0.5;" x1="265" x2="387" y1="155" y2="155"/></g><!--class TeamService--><g id="elem_TeamService"><rect codeLine="11" fill="#F1F1F1" height="100.8281" id="TeamService" rx="2.5" ry="2.5" style="stroke:#181818;stroke-width:0.5;" width="350" x="151" y="223"/><ellipse cx="280.25" cy="239" fill="#C2C2C2" rx="11" ry="11" style="stroke:#181818;stroke-width:1.0;"/><path d="M283.0156,234.875 Q283.1719,234.6563 283.3594,234.5469 Q283.5469,234.4375 283.7656,234.4375 Q284.1406,234.4375 284.375,234.7031 Q284.6094,234.9531 284.6094,235.5625 L284.6094,237.0156 Q284.6094,237.625 284.375,237.8906 Q284.1406,238.1563 283.7656,238.1563 Q283.4219,238.1563 283.2188,237.9531 Q283.0156,237.7656 282.9063,237.25 Q282.8594,236.8906 282.6719,236.7031 Q282.3438,236.3281 281.7344,236.1094 Q281.125,235.8906 280.5,235.8906 Q279.7344,235.8906 279.0938,236.2188 Q278.4688,236.5469 277.9688,237.2969 Q277.4844,238.0469 277.4844,239.0781 L277.4844,240.1719 Q277.4844,241.4063 278.375,242.2344 Q279.2656,243.0469 280.8594,243.0469 Q281.7969,243.0469 282.4531,242.7969 Q282.8438,242.6406 283.2656,242.2031 Q283.5313,241.9375 283.6719,241.8594 Q283.8281,241.7813 284.0313,241.7813 Q284.3594,241.7813 284.6094,242.0469 Q284.875,242.2969 284.875,242.6406 Q284.875,242.9844 284.5313,243.3906 Q284.0313,243.9688 283.2344,244.2969 Q282.1563,244.75 280.8594,244.75 Q279.3438,244.75 278.1406,244.125 Q277.1563,243.625 276.4688,242.5625 Q275.7813,241.4844 275.7813,240.2031 L275.7813,239.0469 Q275.7813,237.7188 276.3906,236.5781 Q277.0156,235.4219 278.1094,234.8125 Q279.2031,234.1875 280.4375,234.1875 Q281.1719,234.1875 281.8125,234.3594 Q282.4688,234.5156 283.0156,234.875 Z " fill="#000000"/><text fill="#000000" font-family="sans-serif" font-size="14" lengthAdjust="spacing" textLength="83" x="300.75" y="244.7285">TeamService</text><line style="stroke:#181818;stroke-width:0.5;" x1="152" x2="500" y1="255" y2="255"/><line style="stroke:#181818;stroke-width:0.5;" x1="152" x2="500" y1="263" y2="263"/><ellipse cx="162" cy="277.3047" fill="#A6A6A6" rx="3" ry="3" style="stroke:#545454;stroke-width:1.0;"/><text fill="#000000" font-family="sans-serif" font-size="14" lengthAdjust="spacing" textLength="324" x="171" y="281.5332">generateTeam(minSize: int, maxSize: int, skills: List)</text><ellipse cx="162" cy="294.9141" fill="#A6A6A6" rx="3" ry="3" style="stroke:#545454;stroke-width:1.0;"/><text fill="#000000" font-family="sans-serif" font-size="14" lengthAdjust="spacing" textLength="167" x="171" y="299.1426">confirmTeam(team: Team)</text><ellipse cx="162" cy="312.5234" fill="#A6A6A6" rx="3" ry="3" style="stroke:#545454;stroke-width:1.0;"/><text fill="#000000" font-family="sans-serif" font-size="14" lengthAdjust="spacing" textLength="156" x="171" y="316.752">rejectTeam(team: Team)</text></g><!--class EmployeeRepository--><g id="elem_EmployeeRepository"><rect codeLine="17" fill="#F1F1F1" height="65.6094" id="EmployeeRepository" rx="2.5" ry="2.5" style="stroke:#181818;stroke-width:0.5;" width="312" x="7" y="410"/><ellipse cx="93.75" cy="426" fill="#C2C2C2" rx="11" ry="11" style="stroke:#181818;stroke-width:1.0;"/><path d="M96.5156,421.875 Q96.6719,421.6563 96.8594,421.5469 Q97.0469,421.4375 97.2656,421.4375 Q97.6406,421.4375 97.875,421.7031 Q98.1094,421.9531 98.1094,422.5625 L98.1094,424.0156 Q98.1094,424.625 97.875,424.8906 Q97.6406,425.1563 97.2656,425.1563 Q96.9219,425.1563 96.7188,424.9531 Q96.5156,424.7656 96.4063,424.25 Q96.3594,423.8906 96.1719,423.7031 Q95.8438,423.3281 95.2344,423.1094 Q94.625,422.8906 94,422.8906 Q93.2344,422.8906 92.5938,423.2188 Q91.9688,423.5469 91.4688,424.2969 Q90.9844,425.0469 90.9844,426.0781 L90.9844,427.1719 Q90.9844,428.4063 91.875,429.2344 Q92.7656,430.0469 94.3594,430.0469 Q95.2969,430.0469 95.9531,429.7969 Q96.3438,429.6406 96.7656,429.2031 Q97.0313,428.9375 97.1719,428.8594 Q97.3281,428.7813 97.5313,428.7813 Q97.8594,428.7813 98.1094,429.0469 Q98.375,429.2969 98.375,429.6406 Q98.375,429.9844 98.0313,430.3906 Q97.5313,430.9688 96.7344,431.2969 Q95.6563,431.75 94.3594,431.75 Q92.8438,431.75 91.6406,431.125 Q90.6563,430.625 89.9688,429.5625 Q89.2813,428.4844 89.2813,427.2031 L89.2813,426.0469 Q89.2813,424.7188 89.8906,423.5781 Q90.5156,422.4219 91.6094,421.8125 Q92.7031,421.1875 93.9375,421.1875 Q94.6719,421.1875 95.3125,421.3594 Q95.9688,421.5156 96.5156,421.875 Z " fill="#000000"/><text fill="#000000" font-family="sans-serif" font-size="14" lengthAdjust="spacing" textLength="130" x="114.25" y="431.7285">EmployeeRepository</text><line style="stroke:#181818;stroke-width:0.5;" x1="8" x2="318" y1="442" y2="442"/><line style="stroke:#181818;stroke-width:0.5;" x1="8" x2="318" y1="450" y2="450"/><ellipse cx="18" cy="464.3047" fill="#A6A6A6" rx="3" ry="3" style="stroke:#545454;stroke-width:1.0;"/><text fill="#000000" font-family="sans-serif" font-size="14" lengthAdjust="spacing" textLength="286" x="27" y="468.5332">findEmployeeWithSkill(skill: String): Employee</text></g><!--class Team--><g id="elem_Team"><rect codeLine="21" fill="#F1F1F1" height="118.4375" id="Team" rx="2.5" ry="2.5" style="stroke:#181818;stroke-width:0.5;" width="270" x="354" y="384"/><ellipse cx="466.75" cy="400" fill="#C2C2C2" rx="11" ry="11" style="stroke:#181818;stroke-width:1.0;"/><path d="M469.5156,395.875 Q469.6719,395.6563 469.8594,395.5469 Q470.0469,395.4375 470.2656,395.4375 Q470.6406,395.4375 470.875,395.7031 Q471.1094,395.9531 471.1094,396.5625 L471.1094,398.0156 Q471.1094,398.625 470.875,398.8906 Q470.6406,399.1563 470.2656,399.1563 Q469.9219,399.1563 469.7188,398.9531 Q469.5156,398.7656 469.4063,398.25 Q469.3594,397.8906 469.1719,397.7031 Q468.8438,397.3281 468.2344,397.1094 Q467.625,396.8906 467,396.8906 Q466.2344,396.8906 465.5938,397.2188 Q464.9688,397.5469 464.4688,398.2969 Q463.9844,399.0469 463.9844,400.0781 L463.9844,401.1719 Q463.9844,402.4063 464.875,403.2344 Q465.7656,404.0469 467.3594,404.0469 Q468.2969,404.0469 468.9531,403.7969 Q469.3438,403.6406 469.7656,403.2031 Q470.0313,402.9375 470.1719,402.8594 Q470.3281,402.7813 470.5313,402.7813 Q470.8594,402.7813 471.1094,403.0469 Q471.375,403.2969 471.375,403.6406 Q471.375,403.9844 471.0313,404.3906 Q470.5313,404.9688 469.7344,405.2969 Q468.6563,405.75 467.3594,405.75 Q465.8438,405.75 464.6406,405.125 Q463.6563,404.625 462.9688,403.5625 Q462.2813,402.4844 462.2813,401.2031 L462.2813,400.0469 Q462.2813,398.7188 462.8906,397.5781 Q463.5156,396.4219 464.6094,395.8125 Q465.7031,395.1875 466.9375,395.1875 Q467.6719,395.1875 468.3125,395.3594 Q468.9688,395.5156 469.5156,395.875 Z " fill="#000000"/><text fill="#000000" font-family="sans-serif" font-size="14" lengthAdjust="spacing" textLength="36" x="487.25" y="405.7285">Team</text><line style="stroke:#181818;stroke-width:0.5;" x1="355" x2="623" y1="416" y2="416"/><rect fill="none" height="6" style="stroke:#595959;stroke-width:1.0;" width="6" x="362" y="427.3047"/><text fill="#000000" font-family="sans-serif" font-size="14" lengthAdjust="spacing" textLength="166" x="374" y="434.5332">members: List&lt;Employee&gt;</text><rect fill="none" height="6" style="stroke:#595959;stroke-width:1.0;" width="6" x="362" y="444.9141"/><text fill="#000000" font-family="sans-serif" font-size="14" lengthAdjust="spacing" textLength="113" x="374" y="452.1426">skills: List&lt;String&gt;</text><line style="stroke:#181818;stroke-width:0.5;" x1="355" x2="623" y1="459.2188" y2="459.2188"/><ellipse cx="365" cy="473.5234" fill="#A6A6A6" rx="3" ry="3" style="stroke:#545454;stroke-width:1.0;"/><text fill="#000000" font-family="sans-serif" font-size="14" lengthAdjust="spacing" textLength="239" x="374" y="477.752">createTeam(minSize: int, maxSize: int)</text><ellipse cx="365" cy="491.1328" fill="#A6A6A6" rx="3" ry="3" style="stroke:#545454;stroke-width:1.0;"/><text fill="#000000" font-family="sans-serif" font-size="14" lengthAdjust="spacing" textLength="244" x="374" y="495.3613">assignEmployee(employee: Employee)</text></g><!--link HRMUI to HRMController--><g id="link_HRMUI_HRMController"><path codeLine="28" d="M315.27,55 C312.59,72.66 311.6936,91.0058 314.3436,108.7458 " fill="none" id="HRMUI-to-HRMController" style="stroke:#181818;stroke-width:1.0;"/><polygon fill="#181818" points="315.23,114.68,317.8564,105.1878,314.4913,109.7349,309.9442,106.3697,315.23,114.68" style="stroke:#181818;stroke-width:1.0;"/></g><!--link HRMController to HRMUI--><g id="link_HRMController_HRMUI"><path codeLine="30" d="M337.41,114.68 C340.21,96.94 341.1527,78.5839 338.3127,60.9239 " fill="none" id="HRMController-to-HRMUI" style="stroke:#181818;stroke-width:1.0;"/><polygon fill="#181818" points="337.36,55,334.8397,64.5209,338.1539,59.9366,342.7382,63.2507,337.36,55" style="stroke:#181818;stroke-width:1.0;"/></g><!--link HRMController to TeamService--><g id="link_HRMController_TeamService"><path codeLine="29" d="M326,163.08 C326,179.54 326,196.3 326,216.8 " fill="none" id="HRMController-to-TeamService" style="stroke:#181818;stroke-width:1.0;"/><polygon fill="#181818" points="326,222.8,330,213.8,326,217.8,322,213.8,326,222.8" style="stroke:#181818;stroke-width:1.0;"/></g><!--link TeamService to EmployeeRepository--><g id="link_TeamService_EmployeeRepository"><path codeLine="31" d="M277.54,324.3 C250.6,351.98 222.0654,381.3109 198.4954,405.5209 " fill="none" id="TeamService-to-EmployeeRepository" style="stroke:#181818;stroke-width:1.0;"/><polygon fill="#181818" points="194.31,409.82,203.4542,406.1617,197.7979,406.2374,197.7221,400.5811,194.31,409.82" style="stroke:#181818;stroke-width:1.0;"/></g><!--link TeamService to Team--><g id="link_TeamService_Team"><path codeLine="32" d="M374.46,324.3 C392.67,343.01 409.3354,360.1401 428.2154,379.5401 " fill="none" id="TeamService-to-Team" style="stroke:#181818;stroke-width:1.0;"/><polygon fill="#181818" points="432.4,383.84,428.9897,374.6004,428.9128,380.2568,423.2565,380.1799,432.4,383.84" style="stroke:#181818;stroke-width:1.0;"/></g><!--SRC=[XL5DJuGm4BttLyoHZV87o8QBCT54Bul6S-qEC6u_oBH-eF6_MrZ04apaqD1vqpVlpVCdifraQS0uwrJBpY04VaNX5wIJwYGRh4Al4HXLaBRHQODlvT6zassWbjgZ44fBx-7cSFzu2r_YEobSEHlOQOsS0WyeJONyHWfZ6U9t0GrQP1bmm393jg9FB81ik0GZFv9RrA6rB-2EVDXDZvMpDR4PtuPu5EE86MLyYIusu2BdsdJQzOW7x9oduBXVLDLaZpFyHA6jXk7PAA60Ad1SmgvO2DOE9v8S39fdv4doVcuk9pJripzJbhCjnlytChkCOwcnCtk6qy-lkj7nEQGyBzVfY7LM0vw4z0SwyeWqoA6wtUIcPRYB7m00]--></g></svg>