<?xml version="1.0" encoding="us-ascii" standalone="no"?><svg xmlns="http://www.w3.org/2000/svg" xmlns:xlink="http://www.w3.org/1999/xlink" contentStyleType="text/css" height="954px" preserveAspectRatio="none" style="width:1395px;height:954px;background:#FFFFFF;" version="1.1" viewBox="0 0 1395 954" width="1395px" zoomAndPan="magnify"><defs/><g><!--class GenerateTeamUI--><g id="elem_GenerateTeamUI"><rect codeLine="6" fill="#F1F1F1" height="118.4375" id="GenerateTeamUI" rx="2.5" ry="2.5" style="stroke:#181818;stroke-width:0.5;" width="338" x="284.5" y="7"/><ellipse cx="395.25" cy="23" fill="#C2C2C2" rx="11" ry="11" style="stroke:#181818;stroke-width:1.0;"/><path d="M398.0156,18.875 Q398.1719,18.6563 398.3594,18.5469 Q398.5469,18.4375 398.7656,18.4375 Q399.1406,18.4375 399.375,18.7031 Q399.6094,18.9531 399.6094,19.5625 L399.6094,21.0156 Q399.6094,21.625 399.375,21.8906 Q399.1406,22.1563 398.7656,22.1563 Q398.4219,22.1563 398.2188,21.9531 Q398.0156,21.7656 397.9063,21.25 Q397.8594,20.8906 397.6719,20.7031 Q397.3438,20.3281 396.7344,20.1094 Q396.125,19.8906 395.5,19.8906 Q394.7344,19.8906 394.0938,20.2188 Q393.4688,20.5469 392.9688,21.2969 Q392.4844,22.0469 392.4844,23.0781 L392.4844,24.1719 Q392.4844,25.4063 393.375,26.2344 Q394.2656,27.0469 395.8594,27.0469 Q396.7969,27.0469 397.4531,26.7969 Q397.8438,26.6406 398.2656,26.2031 Q398.5313,25.9375 398.6719,25.8594 Q398.8281,25.7813 399.0313,25.7813 Q399.3594,25.7813 399.6094,26.0469 Q399.875,26.2969 399.875,26.6406 Q399.875,26.9844 399.5313,27.3906 Q399.0313,27.9688 398.2344,28.2969 Q397.1563,28.75 395.8594,28.75 Q394.3438,28.75 393.1406,28.125 Q392.1563,27.625 391.4688,26.5625 Q390.7813,25.4844 390.7813,24.2031 L390.7813,23.0469 Q390.7813,21.7188 391.3906,20.5781 Q392.0156,19.4219 393.1094,18.8125 Q394.2031,18.1875 395.4375,18.1875 Q396.1719,18.1875 396.8125,18.3594 Q397.4688,18.5156 398.0156,18.875 Z " fill="#000000"/><text fill="#000000" font-family="sans-serif" font-size="14" lengthAdjust="spacing" textLength="108" x="415.75" y="28.7285">GenerateTeamUI</text><line style="stroke:#181818;stroke-width:0.5;" x1="285.5" x2="621.5" y1="39" y2="39"/><text fill="#000000" font-family="sans-serif" font-size="14" lengthAdjust="spacing" textLength="96" x="290.5" y="57.5332">-scan: Scanner</text><text fill="#000000" font-family="sans-serif" font-size="14" lengthAdjust="spacing" textLength="326" x="290.5" y="75.1426">-generateTeamController: GenerateTeamController</text><text fill="#000000" font-family="sans-serif" font-size="14" lengthAdjust="spacing" textLength="197" x="290.5" y="92.752">-skillRepository: SkillRepository</text><line style="stroke:#181818;stroke-width:0.5;" x1="285.5" x2="621.5" y1="99.8281" y2="99.8281"/><text fill="#000000" font-family="sans-serif" font-size="14" lengthAdjust="spacing" textLength="73" x="290.5" y="118.3613">+run(): void</text></g><!--class GenerateTeamController--><g id="elem_GenerateTeamController"><rect codeLine="13" fill="#F1F1F1" height="118.4375" id="GenerateTeamController" rx="2.5" ry="2.5" style="stroke:#181818;stroke-width:0.5;" width="452" x="227.5" y="185"/><ellipse cx="370.25" cy="201" fill="#C2C2C2" rx="11" ry="11" style="stroke:#181818;stroke-width:1.0;"/><path d="M373.0156,196.875 Q373.1719,196.6563 373.3594,196.5469 Q373.5469,196.4375 373.7656,196.4375 Q374.1406,196.4375 374.375,196.7031 Q374.6094,196.9531 374.6094,197.5625 L374.6094,199.0156 Q374.6094,199.625 374.375,199.8906 Q374.1406,200.1563 373.7656,200.1563 Q373.4219,200.1563 373.2188,199.9531 Q373.0156,199.7656 372.9063,199.25 Q372.8594,198.8906 372.6719,198.7031 Q372.3438,198.3281 371.7344,198.1094 Q371.125,197.8906 370.5,197.8906 Q369.7344,197.8906 369.0938,198.2188 Q368.4688,198.5469 367.9688,199.2969 Q367.4844,200.0469 367.4844,201.0781 L367.4844,202.1719 Q367.4844,203.4063 368.375,204.2344 Q369.2656,205.0469 370.8594,205.0469 Q371.7969,205.0469 372.4531,204.7969 Q372.8438,204.6406 373.2656,204.2031 Q373.5313,203.9375 373.6719,203.8594 Q373.8281,203.7813 374.0313,203.7813 Q374.3594,203.7813 374.6094,204.0469 Q374.875,204.2969 374.875,204.6406 Q374.875,204.9844 374.5313,205.3906 Q374.0313,205.9688 373.2344,206.2969 Q372.1563,206.75 370.8594,206.75 Q369.3438,206.75 368.1406,206.125 Q367.1563,205.625 366.4688,204.5625 Q365.7813,203.4844 365.7813,202.2031 L365.7813,201.0469 Q365.7813,199.7188 366.3906,198.5781 Q367.0156,197.4219 368.1094,196.8125 Q369.2031,196.1875 370.4375,196.1875 Q371.1719,196.1875 371.8125,196.3594 Q372.4688,196.5156 373.0156,196.875 Z " fill="#000000"/><text fill="#000000" font-family="sans-serif" font-size="14" lengthAdjust="spacing" textLength="158" x="390.75" y="206.7285">GenerateTeamController</text><line style="stroke:#181818;stroke-width:0.5;" x1="228.5" x2="678.5" y1="217" y2="217"/><text fill="#000000" font-family="sans-serif" font-size="14" lengthAdjust="spacing" textLength="174" x="233.5" y="235.5332">-teamService: TeamService</text><line style="stroke:#181818;stroke-width:0.5;" x1="228.5" x2="678.5" y1="242.6094" y2="242.6094"/><text fill="#000000" font-family="sans-serif" font-size="14" lengthAdjust="spacing" textLength="207" x="233.5" y="261.1426">+getChooseSkill(option: int): Skill</text><text fill="#000000" font-family="sans-serif" font-size="14" lengthAdjust="spacing" textLength="440" x="233.5" y="278.752">+getGenerateTeam(minSize: int, maxSize: int, skills: List&lt;Skill&gt;): Team</text><text fill="#000000" font-family="sans-serif" font-size="14" lengthAdjust="spacing" textLength="219" x="233.5" y="296.3613">+teamApproved(team: Team): void</text></g><!--class TeamService--><g id="elem_TeamService"><rect codeLine="20" fill="#F1F1F1" height="153.6563" id="TeamService" rx="2.5" ry="2.5" style="stroke:#181818;stroke-width:0.5;" width="429" x="239" y="363"/><ellipse cx="407.75" cy="379" fill="#C2C2C2" rx="11" ry="11" style="stroke:#181818;stroke-width:1.0;"/><path d="M410.5156,374.875 Q410.6719,374.6563 410.8594,374.5469 Q411.0469,374.4375 411.2656,374.4375 Q411.6406,374.4375 411.875,374.7031 Q412.1094,374.9531 412.1094,375.5625 L412.1094,377.0156 Q412.1094,377.625 411.875,377.8906 Q411.6406,378.1563 411.2656,378.1563 Q410.9219,378.1563 410.7188,377.9531 Q410.5156,377.7656 410.4063,377.25 Q410.3594,376.8906 410.1719,376.7031 Q409.8438,376.3281 409.2344,376.1094 Q408.625,375.8906 408,375.8906 Q407.2344,375.8906 406.5938,376.2188 Q405.9688,376.5469 405.4688,377.2969 Q404.9844,378.0469 404.9844,379.0781 L404.9844,380.1719 Q404.9844,381.4063 405.875,382.2344 Q406.7656,383.0469 408.3594,383.0469 Q409.2969,383.0469 409.9531,382.7969 Q410.3438,382.6406 410.7656,382.2031 Q411.0313,381.9375 411.1719,381.8594 Q411.3281,381.7813 411.5313,381.7813 Q411.8594,381.7813 412.1094,382.0469 Q412.375,382.2969 412.375,382.6406 Q412.375,382.9844 412.0313,383.3906 Q411.5313,383.9688 410.7344,384.2969 Q409.6563,384.75 408.3594,384.75 Q406.8438,384.75 405.6406,384.125 Q404.6563,383.625 403.9688,382.5625 Q403.2813,381.4844 403.2813,380.2031 L403.2813,379.0469 Q403.2813,377.7188 403.8906,376.5781 Q404.5156,375.4219 405.6094,374.8125 Q406.7031,374.1875 407.9375,374.1875 Q408.6719,374.1875 409.3125,374.3594 Q409.9688,374.5156 410.5156,374.875 Z " fill="#000000"/><text fill="#000000" font-family="sans-serif" font-size="14" lengthAdjust="spacing" textLength="83" x="428.25" y="384.7285">TeamService</text><line style="stroke:#181818;stroke-width:0.5;" x1="240" x2="667" y1="395" y2="395"/><text fill="#000000" font-family="sans-serif" font-size="14" lengthAdjust="spacing" textLength="197" x="245" y="413.5332">-skillRepository: SkillRepository</text><text fill="#000000" font-family="sans-serif" font-size="14" lengthAdjust="spacing" textLength="216" x="245" y="431.1426">-teamRepository: TeamRepository</text><text fill="#000000" font-family="sans-serif" font-size="14" lengthAdjust="spacing" textLength="318" x="245" y="448.752">-teamMemberRepository: TeamMemberRepository</text><line style="stroke:#181818;stroke-width:0.5;" x1="240" x2="667" y1="455.8281" y2="455.8281"/><text fill="#000000" font-family="sans-serif" font-size="14" lengthAdjust="spacing" textLength="184" x="245" y="474.3613">+chooseSkill(option: int): Skill</text><text fill="#000000" font-family="sans-serif" font-size="14" lengthAdjust="spacing" textLength="417" x="245" y="491.9707">+generateTeam(minSize: int, maxSize: int, skills: List&lt;Skill&gt;): Team</text><text fill="#000000" font-family="sans-serif" font-size="14" lengthAdjust="spacing" textLength="219" x="245" y="509.5801">+teamApproved(team: Team): void</text></g><!--class SkillRepository--><g id="elem_SkillRepository"><rect codeLine="29" fill="#F1F1F1" height="65.6094" id="SkillRepository" rx="2.5" ry="2.5" style="stroke:#181818;stroke-width:0.5;" width="153" x="7" y="577"/><ellipse cx="34.6" cy="593" fill="#C2C2C2" rx="11" ry="11" style="stroke:#181818;stroke-width:1.0;"/><path d="M37.3656,588.875 Q37.5219,588.6563 37.7094,588.5469 Q37.8969,588.4375 38.1156,588.4375 Q38.4906,588.4375 38.725,588.7031 Q38.9594,588.9531 38.9594,589.5625 L38.9594,591.0156 Q38.9594,591.625 38.725,591.8906 Q38.4906,592.1563 38.1156,592.1563 Q37.7719,592.1563 37.5688,591.9531 Q37.3656,591.7656 37.2563,591.25 Q37.2094,590.8906 37.0219,590.7031 Q36.6938,590.3281 36.0844,590.1094 Q35.475,589.8906 34.85,589.8906 Q34.0844,589.8906 33.4438,590.2188 Q32.8188,590.5469 32.3188,591.2969 Q31.8344,592.0469 31.8344,593.0781 L31.8344,594.1719 Q31.8344,595.4063 32.725,596.2344 Q33.6156,597.0469 35.2094,597.0469 Q36.1469,597.0469 36.8031,596.7969 Q37.1938,596.6406 37.6156,596.2031 Q37.8813,595.9375 38.0219,595.8594 Q38.1781,595.7813 38.3813,595.7813 Q38.7094,595.7813 38.9594,596.0469 Q39.225,596.2969 39.225,596.6406 Q39.225,596.9844 38.8813,597.3906 Q38.3813,597.9688 37.5844,598.2969 Q36.5063,598.75 35.2094,598.75 Q33.6938,598.75 32.4906,598.125 Q31.5063,597.625 30.8188,596.5625 Q30.1313,595.4844 30.1313,594.2031 L30.1313,593.0469 Q30.1313,591.7188 30.7406,590.5781 Q31.3656,589.4219 32.4594,588.8125 Q33.5531,588.1875 34.7875,588.1875 Q35.5219,588.1875 36.1625,588.3594 Q36.8188,588.5156 37.3656,588.875 Z " fill="#000000"/><text fill="#000000" font-family="sans-serif" font-size="14" lengthAdjust="spacing" textLength="93" x="51.4" y="598.7285">SkillRepository</text><line style="stroke:#181818;stroke-width:0.5;" x1="8" x2="159" y1="609" y2="609"/><line style="stroke:#181818;stroke-width:0.5;" x1="8" x2="159" y1="617" y2="617"/><text fill="#000000" font-family="sans-serif" font-size="14" lengthAdjust="spacing" textLength="141" x="13" y="635.5332">+getSkills(): List&lt;Skill&gt;</text></g><!--class TeamMemberRepository--><g id="elem_TeamMemberRepository"><rect codeLine="33" fill="#F1F1F1" height="65.6094" id="TeamMemberRepository" rx="2.5" ry="2.5" style="stroke:#181818;stroke-width:0.5;" width="516" x="195.5" y="577"/><ellipse cx="371.75" cy="593" fill="#C2C2C2" rx="11" ry="11" style="stroke:#181818;stroke-width:1.0;"/><path d="M374.5156,588.875 Q374.6719,588.6563 374.8594,588.5469 Q375.0469,588.4375 375.2656,588.4375 Q375.6406,588.4375 375.875,588.7031 Q376.1094,588.9531 376.1094,589.5625 L376.1094,591.0156 Q376.1094,591.625 375.875,591.8906 Q375.6406,592.1563 375.2656,592.1563 Q374.9219,592.1563 374.7188,591.9531 Q374.5156,591.7656 374.4063,591.25 Q374.3594,590.8906 374.1719,590.7031 Q373.8438,590.3281 373.2344,590.1094 Q372.625,589.8906 372,589.8906 Q371.2344,589.8906 370.5938,590.2188 Q369.9688,590.5469 369.4688,591.2969 Q368.9844,592.0469 368.9844,593.0781 L368.9844,594.1719 Q368.9844,595.4063 369.875,596.2344 Q370.7656,597.0469 372.3594,597.0469 Q373.2969,597.0469 373.9531,596.7969 Q374.3438,596.6406 374.7656,596.2031 Q375.0313,595.9375 375.1719,595.8594 Q375.3281,595.7813 375.5313,595.7813 Q375.8594,595.7813 376.1094,596.0469 Q376.375,596.2969 376.375,596.6406 Q376.375,596.9844 376.0313,597.3906 Q375.5313,597.9688 374.7344,598.2969 Q373.6563,598.75 372.3594,598.75 Q370.8438,598.75 369.6406,598.125 Q368.6563,597.625 367.9688,596.5625 Q367.2813,595.4844 367.2813,594.2031 L367.2813,593.0469 Q367.2813,591.7188 367.8906,590.5781 Q368.5156,589.4219 369.6094,588.8125 Q370.7031,588.1875 371.9375,588.1875 Q372.6719,588.1875 373.3125,588.3594 Q373.9688,588.5156 374.5156,588.875 Z " fill="#000000"/><text fill="#000000" font-family="sans-serif" font-size="14" lengthAdjust="spacing" textLength="155" x="392.25" y="598.7285">TeamMemberRepository</text><line style="stroke:#181818;stroke-width:0.5;" x1="196.5" x2="710.5" y1="609" y2="609"/><line style="stroke:#181818;stroke-width:0.5;" x1="196.5" x2="710.5" y1="617" y2="617"/><text fill="#000000" font-family="sans-serif" font-size="14" lengthAdjust="spacing" textLength="504" x="201.5" y="635.5332">+findTeamMemberWithSkill(skill: Skill, team: List&lt;TeamMember&gt;): TeamMember</text></g><!--class TeamRepository--><g id="elem_TeamRepository"><rect codeLine="37" fill="#F1F1F1" height="65.6094" id="TeamRepository" rx="2.5" ry="2.5" style="stroke:#181818;stroke-width:0.5;" width="642" x="746.5" y="577"/><ellipse cx="1011.25" cy="593" fill="#C2C2C2" rx="11" ry="11" style="stroke:#181818;stroke-width:1.0;"/><path d="M1014.0156,588.875 Q1014.1719,588.6563 1014.3594,588.5469 Q1014.5469,588.4375 1014.7656,588.4375 Q1015.1406,588.4375 1015.375,588.7031 Q1015.6094,588.9531 1015.6094,589.5625 L1015.6094,591.0156 Q1015.6094,591.625 1015.375,591.8906 Q1015.1406,592.1563 1014.7656,592.1563 Q1014.4219,592.1563 1014.2188,591.9531 Q1014.0156,591.7656 1013.9063,591.25 Q1013.8594,590.8906 1013.6719,590.7031 Q1013.3438,590.3281 1012.7344,590.1094 Q1012.125,589.8906 1011.5,589.8906 Q1010.7344,589.8906 1010.0938,590.2188 Q1009.4688,590.5469 1008.9688,591.2969 Q1008.4844,592.0469 1008.4844,593.0781 L1008.4844,594.1719 Q1008.4844,595.4063 1009.375,596.2344 Q1010.2656,597.0469 1011.8594,597.0469 Q1012.7969,597.0469 1013.4531,596.7969 Q1013.8438,596.6406 1014.2656,596.2031 Q1014.5313,595.9375 1014.6719,595.8594 Q1014.8281,595.7813 1015.0313,595.7813 Q1015.3594,595.7813 1015.6094,596.0469 Q1015.875,596.2969 1015.875,596.6406 Q1015.875,596.9844 1015.5313,597.3906 Q1015.0313,597.9688 1014.2344,598.2969 Q1013.1563,598.75 1011.8594,598.75 Q1010.3438,598.75 1009.1406,598.125 Q1008.1563,597.625 1007.4688,596.5625 Q1006.7813,595.4844 1006.7813,594.2031 L1006.7813,593.0469 Q1006.7813,591.7188 1007.3906,590.5781 Q1008.0156,589.4219 1009.1094,588.8125 Q1010.2031,588.1875 1011.4375,588.1875 Q1012.1719,588.1875 1012.8125,588.3594 Q1013.4688,588.5156 1014.0156,588.875 Z " fill="#000000"/><text fill="#000000" font-family="sans-serif" font-size="14" lengthAdjust="spacing" textLength="104" x="1031.75" y="598.7285">TeamRepository</text><line style="stroke:#181818;stroke-width:0.5;" x1="747.5" x2="1387.5" y1="609" y2="609"/><line style="stroke:#181818;stroke-width:0.5;" x1="747.5" x2="1387.5" y1="617" y2="617"/><text fill="#000000" font-family="sans-serif" font-size="14" lengthAdjust="spacing" textLength="630" x="752.5" y="635.5332">+createTeam(minSize: int, maxSize: int, skills: List&lt;Skill&gt;, teamMembers: List&lt;TeamMember&gt;): Team</text></g><!--class Team--><g id="elem_Team"><rect codeLine="41" fill="#F1F1F1" height="136.0469" id="Team" rx="2.5" ry="2.5" style="stroke:#181818;stroke-width:0.5;" width="369" x="883" y="703"/><ellipse cx="1045.25" cy="719" fill="#C2C2C2" rx="11" ry="11" style="stroke:#181818;stroke-width:1.0;"/><path d="M1048.0156,714.875 Q1048.1719,714.6563 1048.3594,714.5469 Q1048.5469,714.4375 1048.7656,714.4375 Q1049.1406,714.4375 1049.375,714.7031 Q1049.6094,714.9531 1049.6094,715.5625 L1049.6094,717.0156 Q1049.6094,717.625 1049.375,717.8906 Q1049.1406,718.1563 1048.7656,718.1563 Q1048.4219,718.1563 1048.2188,717.9531 Q1048.0156,717.7656 1047.9063,717.25 Q1047.8594,716.8906 1047.6719,716.7031 Q1047.3438,716.3281 1046.7344,716.1094 Q1046.125,715.8906 1045.5,715.8906 Q1044.7344,715.8906 1044.0938,716.2188 Q1043.4688,716.5469 1042.9688,717.2969 Q1042.4844,718.0469 1042.4844,719.0781 L1042.4844,720.1719 Q1042.4844,721.4063 1043.375,722.2344 Q1044.2656,723.0469 1045.8594,723.0469 Q1046.7969,723.0469 1047.4531,722.7969 Q1047.8438,722.6406 1048.2656,722.2031 Q1048.5313,721.9375 1048.6719,721.8594 Q1048.8281,721.7813 1049.0313,721.7813 Q1049.3594,721.7813 1049.6094,722.0469 Q1049.875,722.2969 1049.875,722.6406 Q1049.875,722.9844 1049.5313,723.3906 Q1049.0313,723.9688 1048.2344,724.2969 Q1047.1563,724.75 1045.8594,724.75 Q1044.3438,724.75 1043.1406,724.125 Q1042.1563,723.625 1041.4688,722.5625 Q1040.7813,721.4844 1040.7813,720.2031 L1040.7813,719.0469 Q1040.7813,717.7188 1041.3906,716.5781 Q1042.0156,715.4219 1043.1094,714.8125 Q1044.2031,714.1875 1045.4375,714.1875 Q1046.1719,714.1875 1046.8125,714.3594 Q1047.4688,714.5156 1048.0156,714.875 Z " fill="#000000"/><text fill="#000000" font-family="sans-serif" font-size="14" lengthAdjust="spacing" textLength="36" x="1065.75" y="724.7285">Team</text><line style="stroke:#181818;stroke-width:0.5;" x1="884" x2="1251" y1="735" y2="735"/><text fill="#000000" font-family="sans-serif" font-size="14" lengthAdjust="spacing" textLength="76" x="889" y="753.5332">-minSize: int</text><text fill="#000000" font-family="sans-serif" font-size="14" lengthAdjust="spacing" textLength="79" x="889" y="771.1426">-maxSize: int</text><text fill="#000000" font-family="sans-serif" font-size="14" lengthAdjust="spacing" textLength="106" x="889" y="788.752">-skills: List&lt;Skill&gt;</text><text fill="#000000" font-family="sans-serif" font-size="14" lengthAdjust="spacing" textLength="227" x="889" y="806.3613">-teamMembers: List&lt;TeamMember&gt;</text><line style="stroke:#181818;stroke-width:0.5;" x1="884" x2="1251" y1="813.4375" y2="813.4375"/><text fill="#000000" font-family="sans-serif" font-size="14" lengthAdjust="spacing" textLength="357" x="889" y="831.9707">+assignTeamMember(teamMember: TeamMember): void</text></g><!--class TeamMember--><g id="elem_TeamMember"><rect fill="#F1F1F1" height="48" id="TeamMember" rx="2.5" ry="2.5" style="stroke:#181818;stroke-width:0.5;" width="119" x="1008" y="899"/><ellipse cx="1023" cy="915" fill="#C2C2C2" rx="11" ry="11" style="stroke:#181818;stroke-width:1.0;"/><path d="M1025.7656,910.875 Q1025.9219,910.6563 1026.1094,910.5469 Q1026.2969,910.4375 1026.5156,910.4375 Q1026.8906,910.4375 1027.125,910.7031 Q1027.3594,910.9531 1027.3594,911.5625 L1027.3594,913.0156 Q1027.3594,913.625 1027.125,913.8906 Q1026.8906,914.1563 1026.5156,914.1563 Q1026.1719,914.1563 1025.9688,913.9531 Q1025.7656,913.7656 1025.6563,913.25 Q1025.6094,912.8906 1025.4219,912.7031 Q1025.0938,912.3281 1024.4844,912.1094 Q1023.875,911.8906 1023.25,911.8906 Q1022.4844,911.8906 1021.8438,912.2188 Q1021.2188,912.5469 1020.7188,913.2969 Q1020.2344,914.0469 1020.2344,915.0781 L1020.2344,916.1719 Q1020.2344,917.4063 1021.125,918.2344 Q1022.0156,919.0469 1023.6094,919.0469 Q1024.5469,919.0469 1025.2031,918.7969 Q1025.5938,918.6406 1026.0156,918.2031 Q1026.2813,917.9375 1026.4219,917.8594 Q1026.5781,917.7813 1026.7813,917.7813 Q1027.1094,917.7813 1027.3594,918.0469 Q1027.625,918.2969 1027.625,918.6406 Q1027.625,918.9844 1027.2813,919.3906 Q1026.7813,919.9688 1025.9844,920.2969 Q1024.9063,920.75 1023.6094,920.75 Q1022.0938,920.75 1020.8906,920.125 Q1019.9063,919.625 1019.2188,918.5625 Q1018.5313,917.4844 1018.5313,916.2031 L1018.5313,915.0469 Q1018.5313,913.7188 1019.1406,912.5781 Q1019.7656,911.4219 1020.8594,910.8125 Q1021.9531,910.1875 1023.1875,910.1875 Q1023.9219,910.1875 1024.5625,910.3594 Q1025.2188,910.5156 1025.7656,910.875 Z " fill="#000000"/><text fill="#000000" font-family="sans-serif" font-size="14" lengthAdjust="spacing" textLength="87" x="1037" y="920.7285">TeamMember</text><line style="stroke:#181818;stroke-width:0.5;" x1="1009" x2="1126" y1="931" y2="931"/><line style="stroke:#181818;stroke-width:0.5;" x1="1009" x2="1126" y1="939" y2="939"/></g><!--link GenerateTeamUI to GenerateTeamController--><g id="link_GenerateTeamUI_GenerateTeamController"><path codeLine="49" d="M453.5,125.12 C453.5,144.34 453.5,159.72 453.5,178.94 " fill="none" id="GenerateTeamUI-to-GenerateTeamController" style="stroke:#181818;stroke-width:1.0;"/><polygon fill="#181818" points="453.5,184.94,457.5,175.94,453.5,179.94,449.5,175.94,453.5,184.94" style="stroke:#181818;stroke-width:1.0;"/></g><!--link GenerateTeamController to TeamService--><g id="link_GenerateTeamController_TeamService"><path codeLine="50" d="M453.5,303.21 C453.5,321.96 453.5,337.02 453.5,356.87 " fill="none" id="GenerateTeamController-to-TeamService" style="stroke:#181818;stroke-width:1.0;"/><polygon fill="#181818" points="453.5,362.87,457.5,353.87,453.5,357.87,449.5,353.87,453.5,362.87" style="stroke:#181818;stroke-width:1.0;"/></g><!--link TeamService to SkillRepository--><g id="link_TeamService_SkillRepository"><path codeLine="51" d="M286.09,517.01 C239.59,538.13 197.0633,557.4397 159.4633,574.5097 " fill="none" id="TeamService-to-SkillRepository" style="stroke:#181818;stroke-width:1.0;"/><polygon fill="#181818" points="154,576.99,163.8485,576.9118,158.5528,574.9231,160.5415,569.6273,154,576.99" style="stroke:#181818;stroke-width:1.0;"/></g><!--link TeamService to TeamMemberRepository--><g id="link_TeamService_TeamMemberRepository"><path codeLine="52" d="M453.5,517.14 C453.5,538.15 453.5,553.82 453.5,570.83 " fill="none" id="TeamService-to-TeamMemberRepository" style="stroke:#181818;stroke-width:1.0;"/><polygon fill="#181818" points="453.5,576.83,457.5,567.83,453.5,571.83,449.5,567.83,453.5,576.83" style="stroke:#181818;stroke-width:1.0;"/></g><!--link TeamService to TeamRepository--><g id="link_TeamService_TeamRepository"><path codeLine="53" d="M668.25,499.76 C763,525.68 864.8927,553.5666 944.5327,575.3566 " fill="none" id="TeamService-to-TeamRepository" style="stroke:#181818;stroke-width:1.0;"/><polygon fill="#181818" points="950.32,576.94,942.6947,570.7066,945.4973,575.6205,940.5834,578.423,950.32,576.94" style="stroke:#181818;stroke-width:1.0;"/></g><!--link TeamRepository to Team--><g id="link_TeamRepository_Team"><path codeLine="54" d="M1067.5,643.18 C1067.5,660.33 1067.5,676.1 1067.5,696.74 " fill="none" id="TeamRepository-to-Team" style="stroke:#181818;stroke-width:1.0;"/><polygon fill="#181818" points="1067.5,702.74,1071.5,693.74,1067.5,697.74,1063.5,693.74,1067.5,702.74" style="stroke:#181818;stroke-width:1.0;"/></g><!--link Team to TeamMember--><g id="link_Team_TeamMember"><path codeLine="55" d="M1067.5,839.1 C1067.5,860.48 1067.5,876.71 1067.5,892.77 " fill="none" id="Team-to-TeamMember" style="stroke:#181818;stroke-width:1.0;"/><polygon fill="#181818" points="1067.5,898.77,1071.5,889.77,1067.5,893.77,1063.5,889.77,1067.5,898.77" style="stroke:#181818;stroke-width:1.0;"/></g><!--SRC=[lLGzQyCm4DtrApGwD87EfWH2XX9eboQbiwDS4n5BCf8I-a7_UsLPjawA0w53FHZkxkdUkwUppP7BfjALe499nGvQ2Q1Mdu2OeSBgofY5jPflJnPMJCar_m9wJzpZQ_GH9EZAmWOgyRgYtuIwPqODgsH9r-xjoY6tHz2babQhkWPT9YrYlczqv7Nz0eqot2hzwNgc2G-xe_eaYqb9puhloC-OjjXuq6XTUWtwp1cKT1E3q78FTdbGoe1dB5HZkN8pSMadGKK4OgP2SE-IXqwfg3vGvCSn9NtYnZxu9lD9HnwQjQ8MJQFL6NP56tJLYzcGtcZwBLvrSsFK9eaHw1d45dGEpRD1EBlHg_ysAlCWcELlpPTCkpU89RKu7tOu_ixbBWBUk3rqetlTOUOfxNJvxX7S3z95ATy84zFmHyEcw1RDLHcfW66PC5UVGeHuvLBMYmKQeGwZELA-bp5Vn4FO8dIdsUzcDfjV-yh9bNnx17yy10TjCL-O2y3eNeoYyZgAUuZFPst9Bm00]--></g></svg>