<?xml version="1.0" encoding="us-ascii" standalone="no"?><svg xmlns="http://www.w3.org/2000/svg" xmlns:xlink="http://www.w3.org/1999/xlink" contentStyleType="text/css" height="1489px" preserveAspectRatio="none" style="width:1388px;height:1489px;background:#FFFFFF;" version="1.1" viewBox="0 0 1388 1489" width="1388px" zoomAndPan="magnify"><defs/><g><rect fill="#FFFFFF" height="1305.6016" style="stroke:#181818;stroke-width:1.0;" width="10" x="116" y="92.6094"/><rect fill="#FFFFFF" height="801.9766" style="stroke:#181818;stroke-width:1.0;" width="10" x="383" y="114.9609"/><rect fill="#FFFFFF" height="366.2188" style="stroke:#181818;stroke-width:1.0;" width="10" x="388" y="206.0156"/><rect fill="#FFFFFF" height="177.1094" style="stroke:#181818;stroke-width:1.0;" width="10" x="388" y="602.5859"/><rect fill="#FFFFFF" height="30.3516" style="stroke:#181818;stroke-width:1.0;" width="10" x="717" y="145.3125"/><rect fill="#FFFFFF" height="305.5156" style="stroke:#181818;stroke-width:1.0;" width="10" x="717" y="236.3672"/><rect fill="#FFFFFF" height="116.4063" style="stroke:#181818;stroke-width:1.0;" width="10" x="717" y="632.9375"/><rect fill="#FFFFFF" height="305.5156" style="stroke:#181818;stroke-width:1.0;" width="10" x="717" y="972.6406"/><rect fill="#FFFFFF" height="244.8125" style="stroke:#181818;stroke-width:1.0;" width="10" x="998" y="266.7188"/><rect fill="#FFFFFF" height="30.3516" style="stroke:#181818;stroke-width:1.0;" width="10" x="998" y="688.6406"/><rect fill="#FFFFFF" height="30.3516" style="stroke:#181818;stroke-width:1.0;" width="10" x="998" y="825.8828"/><rect fill="#FFFFFF" height="244.8125" style="stroke:#181818;stroke-width:1.0;" width="10" x="998" y="1002.9922"/><rect fill="#FFFFFF" height="30.3516" style="stroke:#181818;stroke-width:1.0;" width="10" x="1209" y="352.7734"/><rect fill="#FFFFFF" height="30.3516" style="stroke:#181818;stroke-width:1.0;" width="10" x="1209" y="1089.0469"/><rect fill="#FFFFFF" height="184.1094" style="stroke:#181818;stroke-width:1.0;" width="10" x="1319.5" y="297.0703"/><rect fill="#FFFFFF" height="30.3516" style="stroke:#181818;stroke-width:1.0;" width="10" x="1324.5" y="413.4766"/><rect fill="#FFFFFF" height="184.1094" style="stroke:#181818;stroke-width:1.0;" width="10" x="1319.5" y="1033.3438"/><rect fill="#FFFFFF" height="30.3516" style="stroke:#181818;stroke-width:1.0;" width="10" x="1324.5" y="1149.75"/><rect fill="none" height="139.7578" style="stroke:#000000;stroke-width:1.5;" width="417" x="944.5" y="312.0703"/><rect fill="none" height="742.2734" style="stroke:#000000;stroke-width:1.5;" width="1371.5" x="10" y="647.9375"/><rect fill="none" height="451.2734" style="stroke:#000000;stroke-width:1.5;" width="1351.5" x="20" y="931.9375"/><rect fill="none" height="139.7578" style="stroke:#000000;stroke-width:1.5;" width="417" x="944.5" y="1048.3438"/><line style="stroke:#181818;stroke-width:0.5;stroke-dasharray:5.0,5.0;" x1="121" x2="121" y1="82.6094" y2="1407.2109"/><line style="stroke:#181818;stroke-width:0.5;stroke-dasharray:5.0,5.0;" x1="388" x2="388" y1="82.6094" y2="1407.2109"/><line style="stroke:#181818;stroke-width:0.5;stroke-dasharray:5.0,5.0;" x1="722" x2="722" y1="82.6094" y2="1407.2109"/><line style="stroke:#181818;stroke-width:0.5;stroke-dasharray:5.0,5.0;" x1="1002.5" x2="1002.5" y1="82.6094" y2="1407.2109"/><line style="stroke:#181818;stroke-width:0.5;stroke-dasharray:5.0,5.0;" x1="1213.5" x2="1213.5" y1="82.6094" y2="1407.2109"/><line style="stroke:#181818;stroke-width:0.5;stroke-dasharray:5.0,5.0;" x1="1324.5" x2="1324.5" y1="82.6094" y2="1407.2109"/><text fill="#000000" font-family="sans-serif" font-size="14" lengthAdjust="spacing" textLength="176" x="30" y="79.5332">Human Resources Manager</text><ellipse cx="121" cy="13.5" fill="#E3E3E3" rx="8" ry="8" style="stroke:#181818;stroke-width:0.5;"/><path d="M121,21.5 L121,48.5 M108,29.5 L134,29.5 M121,48.5 L108,63.5 M121,48.5 L134,63.5 " fill="none" style="stroke:#181818;stroke-width:0.5;"/><text fill="#000000" font-family="sans-serif" font-size="14" lengthAdjust="spacing" textLength="176" x="30" y="1420.7441">Human Resources Manager</text><ellipse cx="121" cy="1432.3203" fill="#E3E3E3" rx="8" ry="8" style="stroke:#181818;stroke-width:0.5;"/><path d="M121,1440.3203 L121,1467.3203 M108,1448.3203 L134,1448.3203 M121,1467.3203 L108,1482.3203 M121,1467.3203 L134,1482.3203 " fill="none" style="stroke:#181818;stroke-width:0.5;"/><rect fill="#E3E3E3" height="31.6094" rx="2.5" ry="2.5" style="stroke:#181818;stroke-width:0.5;" width="60" x="358" y="50"/><text fill="#000000" font-family="sans-serif" font-size="14" lengthAdjust="spacing" textLength="46" x="365" y="71.5332">:HRMUI</text><rect fill="#E3E3E3" height="31.6094" rx="2.5" ry="2.5" style="stroke:#181818;stroke-width:0.5;" width="60" x="358" y="1406.2109"/><text fill="#000000" font-family="sans-serif" font-size="14" lengthAdjust="spacing" textLength="46" x="365" y="1427.7441">:HRMUI</text><rect fill="#E3E3E3" height="31.6094" rx="2.5" ry="2.5" style="stroke:#181818;stroke-width:0.5;" width="110" x="667" y="50"/><text fill="#000000" font-family="sans-serif" font-size="14" lengthAdjust="spacing" textLength="96" x="674" y="71.5332">:HRMController</text><rect fill="#E3E3E3" height="31.6094" rx="2.5" ry="2.5" style="stroke:#181818;stroke-width:0.5;" width="110" x="667" y="1406.2109"/><text fill="#000000" font-family="sans-serif" font-size="14" lengthAdjust="spacing" textLength="96" x="674" y="1427.7441">:HRMController</text><rect fill="#E3E3E3" height="49.2188" rx="2.5" ry="2.5" style="stroke:#181818;stroke-width:0.5;" width="97" x="954.5" y="32.3906"/><text fill="#000000" font-family="sans-serif" font-size="14" lengthAdjust="spacing" textLength="82" x="962" y="53.9238">teamService:</text><text fill="#000000" font-family="sans-serif" font-size="14" lengthAdjust="spacing" textLength="83" x="961.5" y="71.5332">TeamService</text><rect fill="#E3E3E3" height="49.2188" rx="2.5" ry="2.5" style="stroke:#181818;stroke-width:0.5;" width="97" x="954.5" y="1406.2109"/><text fill="#000000" font-family="sans-serif" font-size="14" lengthAdjust="spacing" textLength="82" x="962" y="1427.7441">teamService:</text><text fill="#000000" font-family="sans-serif" font-size="14" lengthAdjust="spacing" textLength="83" x="961.5" y="1445.3535">TeamService</text><rect fill="#E3E3E3" height="49.2188" rx="2.5" ry="2.5" style="stroke:#181818;stroke-width:0.5;" width="147" x="1140.5" y="32.3906"/><text fill="#000000" font-family="sans-serif" font-size="14" lengthAdjust="spacing" textLength="133" x="1147.5" y="53.9238">employeeRepository:</text><text fill="#000000" font-family="sans-serif" font-size="14" lengthAdjust="spacing" textLength="130" x="1149" y="71.5332">EmployeeRepository</text><rect fill="#E3E3E3" height="49.2188" rx="2.5" ry="2.5" style="stroke:#181818;stroke-width:0.5;" width="147" x="1140.5" y="1406.2109"/><text fill="#000000" font-family="sans-serif" font-size="14" lengthAdjust="spacing" textLength="133" x="1147.5" y="1427.7441">employeeRepository:</text><text fill="#000000" font-family="sans-serif" font-size="14" lengthAdjust="spacing" textLength="130" x="1149" y="1445.3535">EmployeeRepository</text><rect fill="#E3E3E3" height="49.2188" rx="2.5" ry="2.5" style="stroke:#181818;stroke-width:0.5;" width="54" x="1297.5" y="32.3906"/><text fill="#000000" font-family="sans-serif" font-size="14" lengthAdjust="spacing" textLength="31" x="1309" y="53.9238">team</text><text fill="#000000" font-family="sans-serif" font-size="14" lengthAdjust="spacing" textLength="40" x="1304.5" y="71.5332">:Team</text><rect fill="#E3E3E3" height="49.2188" rx="2.5" ry="2.5" style="stroke:#181818;stroke-width:0.5;" width="54" x="1297.5" y="1406.2109"/><text fill="#000000" font-family="sans-serif" font-size="14" lengthAdjust="spacing" textLength="31" x="1309" y="1427.7441">team</text><text fill="#000000" font-family="sans-serif" font-size="14" lengthAdjust="spacing" textLength="40" x="1304.5" y="1445.3535">:Team</text><rect fill="#FFFFFF" height="1305.6016" style="stroke:#181818;stroke-width:1.0;" width="10" x="116" y="92.6094"/><rect fill="#FFFFFF" height="801.9766" style="stroke:#181818;stroke-width:1.0;" width="10" x="383" y="114.9609"/><rect fill="#FFFFFF" height="366.2188" style="stroke:#181818;stroke-width:1.0;" width="10" x="388" y="206.0156"/><rect fill="#FFFFFF" height="177.1094" style="stroke:#181818;stroke-width:1.0;" width="10" x="388" y="602.5859"/><rect fill="#FFFFFF" height="30.3516" style="stroke:#181818;stroke-width:1.0;" width="10" x="717" y="145.3125"/><rect fill="#FFFFFF" height="305.5156" style="stroke:#181818;stroke-width:1.0;" width="10" x="717" y="236.3672"/><rect fill="#FFFFFF" height="116.4063" style="stroke:#181818;stroke-width:1.0;" width="10" x="717" y="632.9375"/><rect fill="#FFFFFF" height="305.5156" style="stroke:#181818;stroke-width:1.0;" width="10" x="717" y="972.6406"/><rect fill="#FFFFFF" height="244.8125" style="stroke:#181818;stroke-width:1.0;" width="10" x="998" y="266.7188"/><rect fill="#FFFFFF" height="30.3516" style="stroke:#181818;stroke-width:1.0;" width="10" x="998" y="688.6406"/><rect fill="#FFFFFF" height="30.3516" style="stroke:#181818;stroke-width:1.0;" width="10" x="998" y="825.8828"/><rect fill="#FFFFFF" height="244.8125" style="stroke:#181818;stroke-width:1.0;" width="10" x="998" y="1002.9922"/><rect fill="#FFFFFF" height="30.3516" style="stroke:#181818;stroke-width:1.0;" width="10" x="1209" y="352.7734"/><rect fill="#FFFFFF" height="30.3516" style="stroke:#181818;stroke-width:1.0;" width="10" x="1209" y="1089.0469"/><rect fill="#FFFFFF" height="184.1094" style="stroke:#181818;stroke-width:1.0;" width="10" x="1319.5" y="297.0703"/><rect fill="#FFFFFF" height="30.3516" style="stroke:#181818;stroke-width:1.0;" width="10" x="1324.5" y="413.4766"/><rect fill="#FFFFFF" height="184.1094" style="stroke:#181818;stroke-width:1.0;" width="10" x="1319.5" y="1033.3438"/><rect fill="#FFFFFF" height="30.3516" style="stroke:#181818;stroke-width:1.0;" width="10" x="1324.5" y="1149.75"/><polygon fill="#181818" points="371,110.9609,381,114.9609,371,118.9609,375,114.9609" style="stroke:#181818;stroke-width:1.0;"/><line style="stroke:#181818;stroke-width:1.0;" x1="126" x2="377" y1="114.9609" y2="114.9609"/><text fill="#000000" font-family="sans-serif" font-size="13" font-weight="bold" lengthAdjust="spacing" textLength="7" x="133" y="110.1045">1</text><text fill="#000000" font-family="sans-serif" font-size="13" lengthAdjust="spacing" textLength="135" x="144" y="110.1045">Initiate team generation</text><polygon fill="#181818" points="705,141.3125,715,145.3125,705,149.3125,709,145.3125" style="stroke:#181818;stroke-width:1.0;"/><line style="stroke:#181818;stroke-width:1.0;" x1="393" x2="711" y1="145.3125" y2="145.3125"/><text fill="#000000" font-family="sans-serif" font-size="13" font-weight="bold" lengthAdjust="spacing" textLength="7" x="400" y="140.4561">2</text><text fill="#000000" font-family="sans-serif" font-size="13" lengthAdjust="spacing" textLength="152" x="411" y="140.4561">Requests team generation</text><polygon fill="#181818" points="404,171.6641,394,175.6641,404,179.6641,400,175.6641" style="stroke:#181818;stroke-width:1.0;"/><line style="stroke:#181818;stroke-width:1.0;" x1="398" x2="721" y1="175.6641" y2="175.6641"/><text fill="#000000" font-family="sans-serif" font-size="13" font-weight="bold" lengthAdjust="spacing" textLength="7" x="410" y="170.8076">3</text><text fill="#000000" font-family="sans-serif" font-size="13" lengthAdjust="spacing" textLength="289" x="421" y="170.8076">Requests minimum and maximum size, and skills</text><polygon fill="#181818" points="376,202.0156,386,206.0156,376,210.0156,380,206.0156" style="stroke:#181818;stroke-width:1.0;"/><line style="stroke:#181818;stroke-width:1.0;" x1="126" x2="382" y1="206.0156" y2="206.0156"/><text fill="#000000" font-family="sans-serif" font-size="13" font-weight="bold" lengthAdjust="spacing" textLength="7" x="133" y="201.1592">4</text><text fill="#000000" font-family="sans-serif" font-size="13" lengthAdjust="spacing" textLength="222" x="144" y="201.1592">Provides minSize, maxSize, and skills</text><polygon fill="#181818" points="705,232.3672,715,236.3672,705,240.3672,709,236.3672" style="stroke:#181818;stroke-width:1.0;"/><line style="stroke:#181818;stroke-width:1.0;" x1="398" x2="711" y1="236.3672" y2="236.3672"/><text fill="#000000" font-family="sans-serif" font-size="13" font-weight="bold" lengthAdjust="spacing" textLength="7" x="405" y="231.5107">5</text><text fill="#000000" font-family="sans-serif" font-size="13" lengthAdjust="spacing" textLength="210" x="416" y="231.5107">Sends minSize, maxSize, and skills</text><polygon fill="#181818" points="986,262.7188,996,266.7188,986,270.7188,990,266.7188" style="stroke:#181818;stroke-width:1.0;"/><line style="stroke:#181818;stroke-width:1.0;" x1="727" x2="992" y1="266.7188" y2="266.7188"/><text fill="#000000" font-family="sans-serif" font-size="13" font-weight="bold" lengthAdjust="spacing" textLength="7" x="734" y="261.8623">6</text><text fill="#000000" font-family="sans-serif" font-size="13" lengthAdjust="spacing" textLength="234" x="745" y="261.8623">generateTeam(minSize, maxSize, skills)</text><polygon fill="#181818" points="1307.5,293.0703,1317.5,297.0703,1307.5,301.0703,1311.5,297.0703" style="stroke:#181818;stroke-width:1.0;"/><line style="stroke:#181818;stroke-width:1.0;" x1="1008" x2="1313.5" y1="297.0703" y2="297.0703"/><text fill="#000000" font-family="sans-serif" font-size="13" font-weight="bold" lengthAdjust="spacing" textLength="7" x="1015" y="292.2139">7</text><text fill="#000000" font-family="sans-serif" font-size="13" lengthAdjust="spacing" textLength="182" x="1026" y="292.2139">createTeam(minSize, maxSize)</text><path d="M944.5,312.0703 L1017.5,312.0703 L1017.5,320.4219 L1007.5,330.4219 L944.5,330.4219 L944.5,312.0703 " fill="#EEEEEE" style="stroke:#000000;stroke-width:1.5;"/><rect fill="none" height="139.7578" style="stroke:#000000;stroke-width:1.5;" width="417" x="944.5" y="312.0703"/><text fill="#000000" font-family="sans-serif" font-size="13" font-weight="bold" lengthAdjust="spacing" textLength="28" x="959.5" y="326.5654">loop</text><text fill="#000000" font-family="sans-serif" font-size="11" font-weight="bold" lengthAdjust="spacing" textLength="125" x="1032.5" y="325.4893">[for each skill in skills]</text><polygon fill="#181818" points="1197,348.7734,1207,352.7734,1197,356.7734,1201,352.7734" style="stroke:#181818;stroke-width:1.0;"/><line style="stroke:#181818;stroke-width:1.0;" x1="1008" x2="1203" y1="352.7734" y2="352.7734"/><text fill="#000000" font-family="sans-serif" font-size="13" font-weight="bold" lengthAdjust="spacing" textLength="7" x="1015" y="347.917">8</text><text fill="#000000" font-family="sans-serif" font-size="13" lengthAdjust="spacing" textLength="161" x="1026" y="347.917">findEmployeeWithSkill(skill)</text><polygon fill="#181818" points="1019,379.125,1009,383.125,1019,387.125,1015,383.125" style="stroke:#181818;stroke-width:1.0;"/><line style="stroke:#181818;stroke-width:1.0;stroke-dasharray:2.0,2.0;" x1="1013" x2="1213" y1="383.125" y2="383.125"/><text fill="#000000" font-family="sans-serif" font-size="13" font-weight="bold" lengthAdjust="spacing" textLength="7" x="1025" y="378.2686">9</text><text fill="#000000" font-family="sans-serif" font-size="13" lengthAdjust="spacing" textLength="159" x="1036" y="378.2686">Returns employee with skill</text><polygon fill="#181818" points="1312.5,409.4766,1322.5,413.4766,1312.5,417.4766,1316.5,413.4766" style="stroke:#181818;stroke-width:1.0;"/><line style="stroke:#181818;stroke-width:1.0;" x1="1008" x2="1318.5" y1="413.4766" y2="413.4766"/><text fill="#000000" font-family="sans-serif" font-size="13" font-weight="bold" lengthAdjust="spacing" textLength="14" x="1015" y="408.6201">10</text><text fill="#000000" font-family="sans-serif" font-size="13" lengthAdjust="spacing" textLength="160" x="1033" y="408.6201">assignEmployee(employee)</text><polygon fill="#181818" points="1019,439.8281,1009,443.8281,1019,447.8281,1015,443.8281" style="stroke:#181818;stroke-width:1.0;"/><line style="stroke:#181818;stroke-width:1.0;stroke-dasharray:2.0,2.0;" x1="1013" x2="1318.5" y1="443.8281" y2="443.8281"/><text fill="#000000" font-family="sans-serif" font-size="13" font-weight="bold" lengthAdjust="spacing" textLength="14" x="1025" y="438.9717">11</text><text fill="#000000" font-family="sans-serif" font-size="13" lengthAdjust="spacing" textLength="161" x="1043" y="438.9717">Returns assigned employee</text><polygon fill="#181818" points="1019,477.1797,1009,481.1797,1019,485.1797,1015,481.1797" style="stroke:#181818;stroke-width:1.0;"/><line style="stroke:#181818;stroke-width:1.0;stroke-dasharray:2.0,2.0;" x1="1013" x2="1323.5" y1="481.1797" y2="481.1797"/><text fill="#000000" font-family="sans-serif" font-size="13" font-weight="bold" lengthAdjust="spacing" textLength="14" x="1025" y="476.3232">12</text><text fill="#000000" font-family="sans-serif" font-size="13" lengthAdjust="spacing" textLength="135" x="1043" y="476.3232">Returns proposed team</text><polygon fill="#181818" points="738,507.5313,728,511.5313,738,515.5313,734,511.5313" style="stroke:#181818;stroke-width:1.0;"/><line style="stroke:#181818;stroke-width:1.0;stroke-dasharray:2.0,2.0;" x1="732" x2="1002" y1="511.5313" y2="511.5313"/><text fill="#000000" font-family="sans-serif" font-size="13" font-weight="bold" lengthAdjust="spacing" textLength="14" x="744" y="506.6748">13</text><text fill="#000000" font-family="sans-serif" font-size="13" lengthAdjust="spacing" textLength="135" x="762" y="506.6748">Returns proposed team</text><polygon fill="#181818" points="409,537.8828,399,541.8828,409,545.8828,405,541.8828" style="stroke:#181818;stroke-width:1.0;"/><line style="stroke:#181818;stroke-width:1.0;stroke-dasharray:2.0,2.0;" x1="403" x2="721" y1="541.8828" y2="541.8828"/><text fill="#000000" font-family="sans-serif" font-size="13" font-weight="bold" lengthAdjust="spacing" textLength="14" x="415" y="537.0264">14</text><text fill="#000000" font-family="sans-serif" font-size="13" lengthAdjust="spacing" textLength="142" x="433" y="537.0264">Presents proposed team</text><polygon fill="#181818" points="137,568.2344,127,572.2344,137,576.2344,133,572.2344" style="stroke:#181818;stroke-width:1.0;"/><line style="stroke:#181818;stroke-width:1.0;stroke-dasharray:2.0,2.0;" x1="131" x2="382" y1="572.2344" y2="572.2344"/><text fill="#000000" font-family="sans-serif" font-size="13" font-weight="bold" lengthAdjust="spacing" textLength="14" x="143" y="567.3779">15</text><text fill="#000000" font-family="sans-serif" font-size="13" lengthAdjust="spacing" textLength="140" x="161" y="567.3779">Displays proposed team</text><polygon fill="#181818" points="376,598.5859,386,602.5859,376,606.5859,380,602.5859" style="stroke:#181818;stroke-width:1.0;"/><line style="stroke:#181818;stroke-width:1.0;" x1="126" x2="382" y1="602.5859" y2="602.5859"/><text fill="#000000" font-family="sans-serif" font-size="13" font-weight="bold" lengthAdjust="spacing" textLength="14" x="133" y="597.7295">16</text><text fill="#000000" font-family="sans-serif" font-size="13" lengthAdjust="spacing" textLength="203" x="151" y="597.7295">Submits selection (Approve/Reject)</text><polygon fill="#181818" points="705,628.9375,715,632.9375,705,636.9375,709,632.9375" style="stroke:#181818;stroke-width:1.0;"/><line style="stroke:#181818;stroke-width:1.0;" x1="398" x2="711" y1="632.9375" y2="632.9375"/><text fill="#000000" font-family="sans-serif" font-size="13" font-weight="bold" lengthAdjust="spacing" textLength="14" x="405" y="628.0811">17</text><text fill="#000000" font-family="sans-serif" font-size="13" lengthAdjust="spacing" textLength="203" x="423" y="628.0811">Submits selection (Approve/Reject)</text><path d="M10,647.9375 L71,647.9375 L71,656.2891 L61,666.2891 L10,666.2891 L10,647.9375 " fill="#EEEEEE" style="stroke:#000000;stroke-width:1.5;"/><rect fill="none" height="742.2734" style="stroke:#000000;stroke-width:1.5;" width="1371.5" x="10" y="647.9375"/><text fill="#000000" font-family="sans-serif" font-size="13" font-weight="bold" lengthAdjust="spacing" textLength="16" x="25" y="662.4326">alt</text><text fill="#000000" font-family="sans-serif" font-size="11" font-weight="bold" lengthAdjust="spacing" textLength="55" x="86" y="661.3564">[Approve]</text><polygon fill="#181818" points="986,684.6406,996,688.6406,986,692.6406,990,688.6406" style="stroke:#181818;stroke-width:1.0;"/><line style="stroke:#181818;stroke-width:1.0;" x1="727" x2="992" y1="688.6406" y2="688.6406"/><text fill="#000000" font-family="sans-serif" font-size="13" font-weight="bold" lengthAdjust="spacing" textLength="14" x="734" y="683.7842">18</text><text fill="#000000" font-family="sans-serif" font-size="13" lengthAdjust="spacing" textLength="111" x="752" y="683.7842">confirmTeam(team)</text><polygon fill="#181818" points="738,714.9922,728,718.9922,738,722.9922,734,718.9922" style="stroke:#181818;stroke-width:1.0;"/><line style="stroke:#181818;stroke-width:1.0;stroke-dasharray:2.0,2.0;" x1="732" x2="1002" y1="718.9922" y2="718.9922"/><text fill="#000000" font-family="sans-serif" font-size="13" font-weight="bold" lengthAdjust="spacing" textLength="14" x="744" y="714.1357">19</text><text fill="#000000" font-family="sans-serif" font-size="13" lengthAdjust="spacing" textLength="135" x="762" y="714.1357">Confirms team approval</text><polygon fill="#181818" points="409,745.3438,399,749.3438,409,753.3438,405,749.3438" style="stroke:#181818;stroke-width:1.0;"/><line style="stroke:#181818;stroke-width:1.0;stroke-dasharray:2.0,2.0;" x1="403" x2="721" y1="749.3438" y2="749.3438"/><text fill="#000000" font-family="sans-serif" font-size="13" font-weight="bold" lengthAdjust="spacing" textLength="14" x="415" y="744.4873">20</text><text fill="#000000" font-family="sans-serif" font-size="13" lengthAdjust="spacing" textLength="135" x="433" y="744.4873">Confirms team approval</text><polygon fill="#181818" points="137,775.6953,127,779.6953,137,783.6953,133,779.6953" style="stroke:#181818;stroke-width:1.0;"/><line style="stroke:#181818;stroke-width:1.0;stroke-dasharray:2.0,2.0;" x1="131" x2="382" y1="779.6953" y2="779.6953"/><text fill="#000000" font-family="sans-serif" font-size="13" font-weight="bold" lengthAdjust="spacing" textLength="14" x="143" y="774.8389">21</text><text fill="#000000" font-family="sans-serif" font-size="13" lengthAdjust="spacing" textLength="135" x="161" y="774.8389">Confirms team approval</text><line style="stroke:#000000;stroke-width:1.0;stroke-dasharray:2.0,2.0;" x1="10" x2="1381.5" y1="788.6953" y2="788.6953"/><text fill="#000000" font-family="sans-serif" font-size="11" font-weight="bold" lengthAdjust="spacing" textLength="42" x="15" y="800.1143">[Reject]</text><polygon fill="#181818" points="986,821.8828,996,825.8828,986,829.8828,990,825.8828" style="stroke:#181818;stroke-width:1.0;"/><line style="stroke:#181818;stroke-width:1.0;" x1="722" x2="992" y1="825.8828" y2="825.8828"/><text fill="#000000" font-family="sans-serif" font-size="13" font-weight="bold" lengthAdjust="spacing" textLength="14" x="729" y="821.0264">22</text><text fill="#000000" font-family="sans-serif" font-size="13" lengthAdjust="spacing" textLength="101" x="747" y="821.0264">rejectTeam(team)</text><polygon fill="#181818" points="733,852.2344,723,856.2344,733,860.2344,729,856.2344" style="stroke:#181818;stroke-width:1.0;"/><line style="stroke:#181818;stroke-width:1.0;stroke-dasharray:2.0,2.0;" x1="727" x2="1002" y1="856.2344" y2="856.2344"/><text fill="#000000" font-family="sans-serif" font-size="13" font-weight="bold" lengthAdjust="spacing" textLength="14" x="739" y="851.3779">23</text><text fill="#000000" font-family="sans-serif" font-size="13" lengthAdjust="spacing" textLength="170" x="757" y="851.3779">Acknowledges team rejection</text><polygon fill="#181818" points="404,882.5859,394,886.5859,404,890.5859,400,886.5859" style="stroke:#181818;stroke-width:1.0;"/><line style="stroke:#181818;stroke-width:1.0;stroke-dasharray:2.0,2.0;" x1="398" x2="721" y1="886.5859" y2="886.5859"/><text fill="#000000" font-family="sans-serif" font-size="13" font-weight="bold" lengthAdjust="spacing" textLength="14" x="410" y="881.7295">24</text><text fill="#000000" font-family="sans-serif" font-size="13" lengthAdjust="spacing" textLength="170" x="428" y="881.7295">Acknowledges team rejection</text><polygon fill="#181818" points="137,912.9375,127,916.9375,137,920.9375,133,916.9375" style="stroke:#181818;stroke-width:1.0;"/><line style="stroke:#181818;stroke-width:1.0;stroke-dasharray:2.0,2.0;" x1="131" x2="387" y1="916.9375" y2="916.9375"/><text fill="#000000" font-family="sans-serif" font-size="13" font-weight="bold" lengthAdjust="spacing" textLength="14" x="143" y="912.0811">25</text><text fill="#000000" font-family="sans-serif" font-size="13" lengthAdjust="spacing" textLength="170" x="161" y="912.0811">Acknowledges team rejection</text><path d="M20,931.9375 L93,931.9375 L93,940.2891 L83,950.2891 L20,950.2891 L20,931.9375 " fill="#EEEEEE" style="stroke:#000000;stroke-width:1.5;"/><rect fill="none" height="451.2734" style="stroke:#000000;stroke-width:1.5;" width="1351.5" x="20" y="931.9375"/><text fill="#000000" font-family="sans-serif" font-size="13" font-weight="bold" lengthAdjust="spacing" textLength="28" x="35" y="946.4326">loop</text><text fill="#000000" font-family="sans-serif" font-size="11" font-weight="bold" lengthAdjust="spacing" textLength="89" x="108" y="945.3564">[Until Approved]</text><polygon fill="#181818" points="705,968.6406,715,972.6406,705,976.6406,709,972.6406" style="stroke:#181818;stroke-width:1.0;"/><line style="stroke:#181818;stroke-width:1.0;" x1="388" x2="711" y1="972.6406" y2="972.6406"/><text fill="#000000" font-family="sans-serif" font-size="13" font-weight="bold" lengthAdjust="spacing" textLength="14" x="395" y="967.7842">26</text><text fill="#000000" font-family="sans-serif" font-size="13" lengthAdjust="spacing" textLength="152" x="413" y="967.7842">Requests team generation</text><polygon fill="#181818" points="986,998.9922,996,1002.9922,986,1006.9922,990,1002.9922" style="stroke:#181818;stroke-width:1.0;"/><line style="stroke:#181818;stroke-width:1.0;" x1="727" x2="992" y1="1002.9922" y2="1002.9922"/><text fill="#000000" font-family="sans-serif" font-size="13" font-weight="bold" lengthAdjust="spacing" textLength="14" x="734" y="998.1357">27</text><text fill="#000000" font-family="sans-serif" font-size="13" lengthAdjust="spacing" textLength="234" x="752" y="998.1357">generateTeam(minSize, maxSize, skills)</text><polygon fill="#181818" points="1307.5,1029.3438,1317.5,1033.3438,1307.5,1037.3438,1311.5,1033.3438" style="stroke:#181818;stroke-width:1.0;"/><line style="stroke:#181818;stroke-width:1.0;" x1="1008" x2="1313.5" y1="1033.3438" y2="1033.3438"/><text fill="#000000" font-family="sans-serif" font-size="13" font-weight="bold" lengthAdjust="spacing" textLength="14" x="1015" y="1028.4873">28</text><text fill="#000000" font-family="sans-serif" font-size="13" lengthAdjust="spacing" textLength="182" x="1033" y="1028.4873">createTeam(minSize, maxSize)</text><path d="M944.5,1048.3438 L1017.5,1048.3438 L1017.5,1056.6953 L1007.5,1066.6953 L944.5,1066.6953 L944.5,1048.3438 " fill="#EEEEEE" style="stroke:#000000;stroke-width:1.5;"/><rect fill="none" height="139.7578" style="stroke:#000000;stroke-width:1.5;" width="417" x="944.5" y="1048.3438"/><text fill="#000000" font-family="sans-serif" font-size="13" font-weight="bold" lengthAdjust="spacing" textLength="28" x="959.5" y="1062.8389">loop</text><text fill="#000000" font-family="sans-serif" font-size="11" font-weight="bold" lengthAdjust="spacing" textLength="125" x="1032.5" y="1061.7627">[for each skill in skills]</text><polygon fill="#181818" points="1197,1085.0469,1207,1089.0469,1197,1093.0469,1201,1089.0469" style="stroke:#181818;stroke-width:1.0;"/><line style="stroke:#181818;stroke-width:1.0;" x1="1008" x2="1203" y1="1089.0469" y2="1089.0469"/><text fill="#000000" font-family="sans-serif" font-size="13" font-weight="bold" lengthAdjust="spacing" textLength="14" x="1015" y="1084.1904">29</text><text fill="#000000" font-family="sans-serif" font-size="13" lengthAdjust="spacing" textLength="161" x="1033" y="1084.1904">findEmployeeWithSkill(skill)</text><polygon fill="#181818" points="1019,1115.3984,1009,1119.3984,1019,1123.3984,1015,1119.3984" style="stroke:#181818;stroke-width:1.0;"/><line style="stroke:#181818;stroke-width:1.0;stroke-dasharray:2.0,2.0;" x1="1013" x2="1213" y1="1119.3984" y2="1119.3984"/><text fill="#000000" font-family="sans-serif" font-size="13" font-weight="bold" lengthAdjust="spacing" textLength="14" x="1025" y="1114.542">30</text><text fill="#000000" font-family="sans-serif" font-size="13" lengthAdjust="spacing" textLength="159" x="1043" y="1114.542">Returns employee with skill</text><polygon fill="#181818" points="1312.5,1145.75,1322.5,1149.75,1312.5,1153.75,1316.5,1149.75" style="stroke:#181818;stroke-width:1.0;"/><line style="stroke:#181818;stroke-width:1.0;" x1="1008" x2="1318.5" y1="1149.75" y2="1149.75"/><text fill="#000000" font-family="sans-serif" font-size="13" font-weight="bold" lengthAdjust="spacing" textLength="14" x="1015" y="1144.8936">31</text><text fill="#000000" font-family="sans-serif" font-size="13" lengthAdjust="spacing" textLength="160" x="1033" y="1144.8936">assignEmployee(employee)</text><polygon fill="#181818" points="1019,1176.1016,1009,1180.1016,1019,1184.1016,1015,1180.1016" style="stroke:#181818;stroke-width:1.0;"/><line style="stroke:#181818;stroke-width:1.0;stroke-dasharray:2.0,2.0;" x1="1013" x2="1318.5" y1="1180.1016" y2="1180.1016"/><text fill="#000000" font-family="sans-serif" font-size="13" font-weight="bold" lengthAdjust="spacing" textLength="14" x="1025" y="1175.2451">32</text><text fill="#000000" font-family="sans-serif" font-size="13" lengthAdjust="spacing" textLength="161" x="1043" y="1175.2451">Returns assigned employee</text><polygon fill="#181818" points="1019,1213.4531,1009,1217.4531,1019,1221.4531,1015,1217.4531" style="stroke:#181818;stroke-width:1.0;"/><line style="stroke:#181818;stroke-width:1.0;stroke-dasharray:2.0,2.0;" x1="1013" x2="1323.5" y1="1217.4531" y2="1217.4531"/><text fill="#000000" font-family="sans-serif" font-size="13" font-weight="bold" lengthAdjust="spacing" textLength="14" x="1025" y="1212.5967">33</text><text fill="#000000" font-family="sans-serif" font-size="13" lengthAdjust="spacing" textLength="135" x="1043" y="1212.5967">Returns proposed team</text><polygon fill="#181818" points="738,1243.8047,728,1247.8047,738,1251.8047,734,1247.8047" style="stroke:#181818;stroke-width:1.0;"/><line style="stroke:#181818;stroke-width:1.0;stroke-dasharray:2.0,2.0;" x1="732" x2="1002" y1="1247.8047" y2="1247.8047"/><text fill="#000000" font-family="sans-serif" font-size="13" font-weight="bold" lengthAdjust="spacing" textLength="14" x="744" y="1242.9482">34</text><text fill="#000000" font-family="sans-serif" font-size="13" lengthAdjust="spacing" textLength="135" x="762" y="1242.9482">Returns proposed team</text><polygon fill="#181818" points="399,1274.1563,389,1278.1563,399,1282.1563,395,1278.1563" style="stroke:#181818;stroke-width:1.0;"/><line style="stroke:#181818;stroke-width:1.0;stroke-dasharray:2.0,2.0;" x1="393" x2="721" y1="1278.1563" y2="1278.1563"/><text fill="#000000" font-family="sans-serif" font-size="13" font-weight="bold" lengthAdjust="spacing" textLength="14" x="405" y="1273.2998">35</text><text fill="#000000" font-family="sans-serif" font-size="13" lengthAdjust="spacing" textLength="142" x="423" y="1273.2998">Presents proposed team</text><polygon fill="#181818" points="137,1304.5078,127,1308.5078,137,1312.5078,133,1308.5078" style="stroke:#181818;stroke-width:1.0;"/><line style="stroke:#181818;stroke-width:1.0;stroke-dasharray:2.0,2.0;" x1="131" x2="387" y1="1308.5078" y2="1308.5078"/><text fill="#000000" font-family="sans-serif" font-size="13" font-weight="bold" lengthAdjust="spacing" textLength="14" x="143" y="1303.6514">36</text><text fill="#000000" font-family="sans-serif" font-size="13" lengthAdjust="spacing" textLength="140" x="161" y="1303.6514">Displays proposed team</text><polygon fill="#181818" points="371,1334.8594,381,1338.8594,371,1342.8594,375,1338.8594" style="stroke:#181818;stroke-width:1.0;"/><line style="stroke:#181818;stroke-width:1.0;" x1="126" x2="377" y1="1338.8594" y2="1338.8594"/><text fill="#000000" font-family="sans-serif" font-size="13" font-weight="bold" lengthAdjust="spacing" textLength="14" x="133" y="1334.0029">37</text><text fill="#000000" font-family="sans-serif" font-size="13" lengthAdjust="spacing" textLength="203" x="151" y="1334.0029">Submits selection (Approve/Reject)</text><polygon fill="#181818" points="705,1368.2109,715,1372.2109,705,1376.2109,709,1372.2109" style="stroke:#181818;stroke-width:1.0;"/><line style="stroke:#181818;stroke-width:1.0;" x1="393" x2="711" y1="1372.2109" y2="1372.2109"/><text fill="#000000" font-family="sans-serif" font-size="13" font-weight="bold" lengthAdjust="spacing" textLength="14" x="400" y="1367.3545">38</text><text fill="#000000" font-family="sans-serif" font-size="13" lengthAdjust="spacing" textLength="203" x="418" y="1367.3545">Submits selection (Approve/Reject)</text><path d="M732,1351.8594 L732,1377.8594 L930,1377.8594 L930,1361.8594 L920,1351.8594 L732,1351.8594 " fill="#FAFAFA" style="stroke:#181818;stroke-width:0.5;"/><path d="M920,1351.8594 L920,1361.8594 L930,1361.8594 L920,1351.8594 " fill="#FAFAFA" style="stroke:#181818;stroke-width:0.5;"/><text fill="#000000" font-family="sans-serif" font-size="13" lengthAdjust="spacing" textLength="177" x="738" y="1370.3545">After step 38, return to step 17</text><!--SRC=[hPPDRzim38Rl_XL4Bqk15iEmmuOS1XJTWFPGO4XQxDABQZE9Lbdo93bPzkj7IRRZxzf1VGWSVJoaA9AlpIkN6TCiXLH95U-qIX6ipZ4orKp6ubUsnRKz2WIDiMLoA-eBp8ubwi3b5ZPC68mYbbiby_G5DRt7LccukCjJ9c65HkKwHWCFJ19JNm0pSBTwY8XaUSmp9YrSB6dawRwSUxhlpjugQRKIuaGuZJHNMsJf6lMUnxXybe-dVtvZxNzp6wQPK4V45MRAS3h2aNR_w0nwI7UuwyApN3fRbL4V6Bvd5ltn8_g1ws_XkB24UyajTvDkBsnHecQMAzdOHO69meQmynG28gpmJux6cb52BMXH4r3pfIAbNF8qJu7915BsrxyR_W-l_0ZbWn0cId34G1txKwizJz1Zrvv2p7KRD_cyQvJ93DReoMjPGUGYTkX65rq30NvvejTpAggZ2Z8XOur3m1OeYeHI6MoeXYYmks0Dk2pF1FIqR7JJaInkk4pAYL_SxjPk-y93BZsaijgJpNv13_Qw4wiLsbnB0sNvm85i1Lyzf9OTGtRw8yQCuTkg01Sbl-LxY5X96V4lu32f76rxvqcKKk46HqYPLkG_aLoTHMr2y_vxotG2figcLgOsgWaDIZi2wYQzAwI08C1tRZB1ZkE0eWBhPRpENr9ETWqAaWPgCB2uoOYnnuyh_4r3bpDgU1whVXmcB1Hh_LM-KTEnaXkkKr-1xfmzULG5lPEKFPxV1bxHRPbtX8c-f6fWX-zp6h0LX0BPkDV987SpIF8D8TI1DYMMsgz_jr3UnAzI7GGcMooS3WQSTfqVpndK2K6THtEHTQCVtFUFfIy3i3k4gg-NsapVJmma7aBXkGr-oPEqN9IvdVZncaipXB_SENRG2TSzKGuxrZgNDTpiH-Mn5tmYlYsN0xRFaysEDqEoLZxl8gFbCq5EnoCzAgjlHFficUtn_h5CUVTusPreeQbMG-J-V9iinmFOJZRFbkSUy71HJf7hVc3PW0hGJFdkwnijujboFhKdIKLpccztbfhlnXBUMCpWyzShwhpkoi2gCFJfoqcuA95yFuYYwkq_]--></g></svg>