<?xml version="1.0" encoding="us-ascii" standalone="no"?><svg xmlns="http://www.w3.org/2000/svg" xmlns:xlink="http://www.w3.org/1999/xlink" contentStyleType="text/css" height="519px" preserveAspectRatio="none" style="width:548px;height:519px;background:#FFFFFF;" version="1.1" viewBox="0 0 548 519" width="548px" zoomAndPan="magnify"><defs/><g><text fill="#000000" font-family="sans-serif" font-size="14" font-weight="bold" lengthAdjust="spacing" textLength="228" x="161" y="29.5332">System Sequence Diagram (SSD)</text><rect fill="#FFFFFF" height="261.6484" style="stroke:#181818;stroke-width:1.0;" width="10" x="76" y="148.8281"/><rect fill="#FFFFFF" height="30.3516" style="stroke:#181818;stroke-width:1.0;" width="10" x="494" y="171.1797"/><rect fill="#FFFFFF" height="30.3516" style="stroke:#181818;stroke-width:1.0;" width="10" x="494" y="231.8828"/><rect fill="#FFFFFF" height="116.8906" style="stroke:#181818;stroke-width:1.0;" width="10" x="494" y="292.5859"/><rect fill="none" height="94.8906" style="stroke:#000000;stroke-width:1.5;" width="531" x="10" y="307.5859"/><line style="stroke:#181818;stroke-width:0.5;stroke-dasharray:5.0,5.0;" x1="81" x2="81" y1="138.8281" y2="419.4766"/><line style="stroke:#181818;stroke-width:0.5;stroke-dasharray:5.0,5.0;" x1="499" x2="499" y1="138.8281" y2="419.4766"/><text fill="#000000" font-family="sans-serif" font-size="14" lengthAdjust="spacing" textLength="116" x="20" y="118.1426">Human Resources</text><text fill="#000000" font-family="sans-serif" font-size="14" lengthAdjust="spacing" textLength="56" x="50" y="135.752">Manager</text><ellipse cx="81" cy="52.1094" fill="#E3E3E3" rx="8" ry="8" style="stroke:#181818;stroke-width:0.5;"/><path d="M81,60.1094 L81,87.1094 M68,68.1094 L94,68.1094 M81,87.1094 L68,102.1094 M81,87.1094 L94,102.1094 " fill="none" style="stroke:#181818;stroke-width:0.5;"/><text fill="#000000" font-family="sans-serif" font-size="14" lengthAdjust="spacing" textLength="116" x="20" y="433.0098">Human Resources</text><text fill="#000000" font-family="sans-serif" font-size="14" lengthAdjust="spacing" textLength="56" x="50" y="450.6191">Manager</text><ellipse cx="81" cy="462.1953" fill="#E3E3E3" rx="8" ry="8" style="stroke:#181818;stroke-width:0.5;"/><path d="M81,470.1953 L81,497.1953 M68,478.1953 L94,478.1953 M81,497.1953 L68,512.1953 M81,497.1953 L94,512.1953 " fill="none" style="stroke:#181818;stroke-width:0.5;"/><rect fill="#E3E3E3" height="31.6094" rx="2.5" ry="2.5" style="stroke:#181818;stroke-width:0.5;" width="64" x="467" y="106.2188"/><text fill="#000000" font-family="sans-serif" font-size="14" lengthAdjust="spacing" textLength="50" x="474" y="127.752">:System</text><rect fill="#E3E3E3" height="31.6094" rx="2.5" ry="2.5" style="stroke:#181818;stroke-width:0.5;" width="64" x="467" y="418.4766"/><text fill="#000000" font-family="sans-serif" font-size="14" lengthAdjust="spacing" textLength="50" x="474" y="440.0098">:System</text><rect fill="#FFFFFF" height="261.6484" style="stroke:#181818;stroke-width:1.0;" width="10" x="76" y="148.8281"/><rect fill="#FFFFFF" height="30.3516" style="stroke:#181818;stroke-width:1.0;" width="10" x="494" y="171.1797"/><rect fill="#FFFFFF" height="30.3516" style="stroke:#181818;stroke-width:1.0;" width="10" x="494" y="231.8828"/><rect fill="#FFFFFF" height="116.8906" style="stroke:#181818;stroke-width:1.0;" width="10" x="494" y="292.5859"/><polygon fill="#181818" points="482,167.1797,492,171.1797,482,175.1797,486,171.1797" style="stroke:#181818;stroke-width:1.0;"/><line style="stroke:#181818;stroke-width:1.0;" x1="86" x2="488" y1="171.1797" y2="171.1797"/><text fill="#000000" font-family="sans-serif" font-size="13" font-weight="bold" lengthAdjust="spacing" textLength="7" x="93" y="166.3232">1</text><text fill="#000000" font-family="sans-serif" font-size="13" lengthAdjust="spacing" textLength="210" x="104" y="166.3232">Requests team generation for a task</text><polygon fill="#181818" points="97,197.5313,87,201.5313,97,205.5313,93,201.5313" style="stroke:#181818;stroke-width:1.0;"/><line style="stroke:#181818;stroke-width:1.0;stroke-dasharray:2.0,2.0;" x1="91" x2="498" y1="201.5313" y2="201.5313"/><text fill="#000000" font-family="sans-serif" font-size="13" font-weight="bold" lengthAdjust="spacing" textLength="7" x="103" y="196.6748">2</text><text fill="#000000" font-family="sans-serif" font-size="13" lengthAdjust="spacing" textLength="373" x="114" y="196.6748">Requests for data(skills needed, min size, max size of the team)</text><polygon fill="#181818" points="482,227.8828,492,231.8828,482,235.8828,486,231.8828" style="stroke:#181818;stroke-width:1.0;"/><line style="stroke:#181818;stroke-width:1.0;" x1="86" x2="488" y1="231.8828" y2="231.8828"/><text fill="#000000" font-family="sans-serif" font-size="13" font-weight="bold" lengthAdjust="spacing" textLength="7" x="93" y="227.0264">3</text><text fill="#000000" font-family="sans-serif" font-size="13" lengthAdjust="spacing" textLength="78" x="104" y="227.0264">Provides data</text><polygon fill="#181818" points="97,258.2344,87,262.2344,97,266.2344,93,262.2344" style="stroke:#181818;stroke-width:1.0;"/><line style="stroke:#181818;stroke-width:1.0;stroke-dasharray:2.0,2.0;" x1="91" x2="498" y1="262.2344" y2="262.2344"/><text fill="#000000" font-family="sans-serif" font-size="13" font-weight="bold" lengthAdjust="spacing" textLength="7" x="103" y="257.3779">4</text><text fill="#000000" font-family="sans-serif" font-size="13" lengthAdjust="spacing" textLength="358" x="114" y="257.3779">Confirms data reception and presents options (Approve, Rejet)</text><polygon fill="#181818" points="482,288.5859,492,292.5859,482,296.5859,486,292.5859" style="stroke:#181818;stroke-width:1.0;"/><line style="stroke:#181818;stroke-width:1.0;" x1="86" x2="488" y1="292.5859" y2="292.5859"/><text fill="#000000" font-family="sans-serif" font-size="13" font-weight="bold" lengthAdjust="spacing" textLength="7" x="93" y="287.7295">5</text><text fill="#000000" font-family="sans-serif" font-size="13" lengthAdjust="spacing" textLength="203" x="104" y="287.7295">Submits selection (Approve/Reject)</text><path d="M10,307.5859 L71,307.5859 L71,315.9375 L61,325.9375 L10,325.9375 L10,307.5859 " fill="#EEEEEE" style="stroke:#000000;stroke-width:1.5;"/><rect fill="none" height="94.8906" style="stroke:#000000;stroke-width:1.5;" width="531" x="10" y="307.5859"/><text fill="#000000" font-family="sans-serif" font-size="13" font-weight="bold" lengthAdjust="spacing" textLength="16" x="25" y="322.0811">alt</text><text fill="#000000" font-family="sans-serif" font-size="11" font-weight="bold" lengthAdjust="spacing" textLength="55" x="86" y="321.0049">[Approve]</text><polygon fill="#181818" points="97,344.2891,87,348.2891,97,352.2891,93,348.2891" style="stroke:#181818;stroke-width:1.0;"/><line style="stroke:#181818;stroke-width:1.0;stroke-dasharray:2.0,2.0;" x1="91" x2="493" y1="348.2891" y2="348.2891"/><text fill="#000000" font-family="sans-serif" font-size="13" font-weight="bold" lengthAdjust="spacing" textLength="7" x="103" y="343.4326">6</text><text fill="#000000" font-family="sans-serif" font-size="13" lengthAdjust="spacing" textLength="135" x="114" y="343.4326">Confirms team approval</text><line style="stroke:#000000;stroke-width:1.0;stroke-dasharray:2.0,2.0;" x1="10" x2="541" y1="357.2891" y2="357.2891"/><text fill="#000000" font-family="sans-serif" font-size="11" font-weight="bold" lengthAdjust="spacing" textLength="42" x="15" y="368.708">[Reject]</text><polygon fill="#181818" points="97,390.4766,87,394.4766,97,398.4766,93,394.4766" style="stroke:#181818;stroke-width:1.0;"/><line style="stroke:#181818;stroke-width:1.0;stroke-dasharray:2.0,2.0;" x1="91" x2="493" y1="394.4766" y2="394.4766"/><text fill="#000000" font-family="sans-serif" font-size="13" font-weight="bold" lengthAdjust="spacing" textLength="7" x="103" y="389.6201">7</text><text fill="#000000" font-family="sans-serif" font-size="13" lengthAdjust="spacing" textLength="134" x="114" y="389.6201">Declines team approval</text><!--SRC=[bP9BJyD038Jl-okidee4uju34g87BaYekN8n6pTTkkiDQuVNhyVPFgKM13avoSmtusna7RZ7WWbIvknN9IS2BGCvsR_fqQ-neqO_8q4XhyXTF1R82jly7hY39KOXvpIeIPjFKKhGqEj0x0dc0RjHFcsQ-OLpE6Zc8JrJiTbhBZ2v7n8oB4ZoK3p94pyWMtAP00hSBxPtpb8r-D0ZAqnccvWgsOmL5zvGwSZZzYDStUogpIpBoeaAA5cpZfWAQiWCI-k3e2Zh0ss71xksX2k37SX7lD7VekBKFbEC0apKKdi9AJ18-2ARyADEa9UWAweDBYgxfREHvpTuBFajj2GrhUh-q_SkypAKj76FXqjzNH-vXRwG4DikkJuJcDxslQLPzmMzaFvOzdpHPdXEmMX2qVwXCMJ7knvntdWd98mAMz6VjgYdYDM0qP7zZB1X_-QUau-1wSJDhNEdstq3]--></g></svg>