<?xml version="1.0" encoding="us-ascii" standalone="no"?><svg xmlns="http://www.w3.org/2000/svg" xmlns:xlink="http://www.w3.org/1999/xlink" contentStyleType="text/css" height="412px" preserveAspectRatio="none" style="width:584px;height:412px;background:#FFFFFF;" version="1.1" viewBox="0 0 584 412" width="584px" zoomAndPan="magnify"><defs/><g><text fill="#000000" font-family="sans-serif" font-size="14" font-weight="bold" lengthAdjust="spacing" textLength="288" x="147.25" y="28.5352">US022 - Add a New Entry in the Agenda</text><text fill="#000000" font-family="sans-serif" font-size="14" font-weight="bold" lengthAdjust="spacing" textLength="231" x="175.75" y="45.0234">System Sequence Diagram (SSD)</text><rect fill="#FFFFFF" height="176.8633" style="stroke:#181818;stroke-width:1.0;" width="10" x="77.5" y="145.4648"/><rect fill="#FFFFFF" height="29.3105" style="stroke:#181818;stroke-width:1.0;" width="10" x="540.5" y="166.7754"/><rect fill="#FFFFFF" height="29.3105" style="stroke:#181818;stroke-width:1.0;" width="10" x="540.5" y="225.3965"/><rect fill="#FFFFFF" height="29.3105" style="stroke:#181818;stroke-width:1.0;" width="10" x="540.5" y="284.0176"/><line style="stroke:#181818;stroke-width:0.5;stroke-dasharray:5.0,5.0;" x1="82" x2="82" y1="135.4648" y2="331.3281"/><line style="stroke:#181818;stroke-width:0.5;stroke-dasharray:5.0,5.0;" x1="545.5" x2="545.5" y1="135.4648" y2="331.3281"/><text fill="#000000" font-family="sans-serif" font-size="14" lengthAdjust="spacing" textLength="149" x="5" y="132.5117">Green Space Manager</text><ellipse cx="82.5" cy="67.4766" fill="#E3E3E3" rx="8" ry="8" style="stroke:#181818;stroke-width:0.5;"/><path d="M82.5,75.4766 L82.5,102.4766 M69.5,83.4766 L95.5,83.4766 M82.5,102.4766 L69.5,117.4766 M82.5,102.4766 L95.5,117.4766 " fill="none" style="stroke:#181818;stroke-width:0.5;"/><text fill="#000000" font-family="sans-serif" font-size="14" lengthAdjust="spacing" textLength="149" x="5" y="343.8633">Green Space Manager</text><ellipse cx="82.5" cy="355.3164" fill="#E3E3E3" rx="8" ry="8" style="stroke:#181818;stroke-width:0.5;"/><path d="M82.5,363.3164 L82.5,390.3164 M69.5,371.3164 L95.5,371.3164 M82.5,390.3164 L69.5,405.3164 M82.5,390.3164 L95.5,405.3164 " fill="none" style="stroke:#181818;stroke-width:0.5;"/><rect fill="#E3E3E3" height="30.4883" rx="2.5" ry="2.5" style="stroke:#181818;stroke-width:0.5;" width="66" x="512.5" y="103.9766"/><text fill="#000000" font-family="sans-serif" font-size="14" lengthAdjust="spacing" textLength="52" x="519.5" y="124.5117">:System</text><rect fill="#E3E3E3" height="30.4883" rx="2.5" ry="2.5" style="stroke:#181818;stroke-width:0.5;" width="66" x="512.5" y="330.3281"/><text fill="#000000" font-family="sans-serif" font-size="14" lengthAdjust="spacing" textLength="52" x="519.5" y="350.8633">:System</text><rect fill="#FFFFFF" height="176.8633" style="stroke:#181818;stroke-width:1.0;" width="10" x="77.5" y="145.4648"/><rect fill="#FFFFFF" height="29.3105" style="stroke:#181818;stroke-width:1.0;" width="10" x="540.5" y="166.7754"/><rect fill="#FFFFFF" height="29.3105" style="stroke:#181818;stroke-width:1.0;" width="10" x="540.5" y="225.3965"/><rect fill="#FFFFFF" height="29.3105" style="stroke:#181818;stroke-width:1.0;" width="10" x="540.5" y="284.0176"/><polygon fill="#181818" points="528.5,162.7754,538.5,166.7754,528.5,170.7754,532.5,166.7754" style="stroke:#181818;stroke-width:1.0;"/><line style="stroke:#181818;stroke-width:1.0;" x1="87.5" x2="534.5" y1="166.7754" y2="166.7754"/><text fill="#000000" font-family="sans-serif" font-size="13" font-weight="bold" lengthAdjust="spacing" textLength="9" x="94.5" y="162.0332">1</text><text fill="#000000" font-family="sans-serif" font-size="13" lengthAdjust="spacing" textLength="228" x="107.5" y="162.0332">Requests to add a new Agenda entry</text><polygon fill="#181818" points="98.5,192.0859,88.5,196.0859,98.5,200.0859,94.5,196.0859" style="stroke:#181818;stroke-width:1.0;"/><line style="stroke:#181818;stroke-width:1.0;stroke-dasharray:2.0,2.0;" x1="92.5" x2="544.5" y1="196.0859" y2="196.0859"/><text fill="#000000" font-family="sans-serif" font-size="13" font-weight="bold" lengthAdjust="spacing" textLength="9" x="104.5" y="191.3438">2</text><text fill="#000000" font-family="sans-serif" font-size="13" lengthAdjust="spacing" textLength="416" x="117.5" y="191.3438">display green spaces, pending tasks, and request for starting date</text><polygon fill="#181818" points="528.5,221.3965,538.5,225.3965,528.5,229.3965,532.5,225.3965" style="stroke:#181818;stroke-width:1.0;"/><line style="stroke:#181818;stroke-width:1.0;" x1="87.5" x2="534.5" y1="225.3965" y2="225.3965"/><text fill="#000000" font-family="sans-serif" font-size="13" font-weight="bold" lengthAdjust="spacing" textLength="9" x="94.5" y="220.6543">3</text><text fill="#000000" font-family="sans-serif" font-size="13" lengthAdjust="spacing" textLength="388" x="107.5" y="220.6543">selects a green space, a pending task, and types starting date</text><polygon fill="#181818" points="98.5,250.707,88.5,254.707,98.5,258.707,94.5,254.707" style="stroke:#181818;stroke-width:1.0;"/><line style="stroke:#181818;stroke-width:1.0;stroke-dasharray:2.0,2.0;" x1="92.5" x2="544.5" y1="254.707" y2="254.707"/><text fill="#000000" font-family="sans-serif" font-size="13" font-weight="bold" lengthAdjust="spacing" textLength="9" x="104.5" y="249.9648">4</text><text fill="#000000" font-family="sans-serif" font-size="13" lengthAdjust="spacing" textLength="314" x="117.5" y="249.9648">Show Agenda entry data and request confirmation</text><polygon fill="#181818" points="528.5,280.0176,538.5,284.0176,528.5,288.0176,532.5,284.0176" style="stroke:#181818;stroke-width:1.0;"/><line style="stroke:#181818;stroke-width:1.0;" x1="87.5" x2="534.5" y1="284.0176" y2="284.0176"/><text fill="#000000" font-family="sans-serif" font-size="13" font-weight="bold" lengthAdjust="spacing" textLength="9" x="94.5" y="279.2754">5</text><text fill="#000000" font-family="sans-serif" font-size="13" lengthAdjust="spacing" textLength="87" x="107.5" y="279.2754">confirms data</text><polygon fill="#181818" points="98.5,309.3281,88.5,313.3281,98.5,317.3281,94.5,313.3281" style="stroke:#181818;stroke-width:1.0;"/><line style="stroke:#181818;stroke-width:1.0;stroke-dasharray:2.0,2.0;" x1="92.5" x2="544.5" y1="313.3281" y2="313.3281"/><text fill="#000000" font-family="sans-serif" font-size="13" font-weight="bold" lengthAdjust="spacing" textLength="9" x="104.5" y="308.5859">6</text><text fill="#000000" font-family="sans-serif" font-size="13" lengthAdjust="spacing" textLength="170" x="117.5" y="308.5859">displays operation success</text><!--SRC=[bP4nRzmm38Lt_Og7cneW1nGPRmWG84McT8ZGhGjhytp2sPGZqWtyxqlfha6koT1eeapgU-_HUamoKw49KvRS7KgU65OM3lhQcQaxqi3Hrf5Hk3EIONmxe0VgyqkI0NiQbKEmP3xw8twzkS4MTtqFmdT-mJUniY89xC2u6rXw-YbnLUC9aPyNbevndsYer2yntb-5G8jbMQPVNBpkB1Ti7Wgp8BelnYE9UoiRaE8XFWPtPAbBCubXipknM_DKDaRwJSPjEi2F5zZUdWUmmrDregQm36hUnRsVx89hXFRi5VINN3-U8LldLUmEVT9vf1L3ywpLirvZTbRTbv4U_KhI-sARAlQUKAscy7xl_CRj-KEvVwqhZ_v_r2s_qNF-XU19pzQPzGEb_uiL3_bo9HL05q6wBFjK9hAKvJCPpk-q4J-_QKMUkJHLwDBvkZM4zz9_0000]--></g></svg>