<?xml version="1.0" encoding="UTF-8" standalone="no"?><svg xmlns="http://www.w3.org/2000/svg" xmlns:xlink="http://www.w3.org/1999/xlink" contentStyleType="text/css" height="518px" preserveAspectRatio="none" style="width:808px;height:518px;background:#FFFFFF;" version="1.1" viewBox="0 0 808 518" width="808px" zoomAndPan="magnify"><defs/><g><text fill="#000000" font-family="sans-serif" font-size="14" font-weight="bold" lengthAdjust="spacing" textLength="204" x="301" y="29.5332">US003 - Create a collaborator</text><text fill="#000000" font-family="sans-serif" font-size="14" font-weight="bold" lengthAdjust="spacing" textLength="228" x="289" y="47.1426">System Sequence Diagram (SSD)</text><rect fill="#FFFFFF" height="243.8125" style="stroke:#181818;stroke-width:1.0;" width="10" x="61" y="166.4375"/><rect fill="#FFFFFF" height="30.3516" style="stroke:#181818;stroke-width:1.0;" width="10" x="765" y="188.7891"/><rect fill="#FFFFFF" height="30.3516" style="stroke:#181818;stroke-width:1.0;" width="10" x="765" y="249.4922"/><rect fill="#FFFFFF" height="30.3516" style="stroke:#181818;stroke-width:1.0;" width="10" x="765" y="310.1953"/><rect fill="#FFFFFF" height="30.3516" style="stroke:#181818;stroke-width:1.0;" width="10" x="765" y="370.8984"/><line style="stroke:#181818;stroke-width:0.5;stroke-dasharray:5.0,5.0;" x1="66" x2="66" y1="156.4375" y2="419.25"/><line style="stroke:#181818;stroke-width:0.5;stroke-dasharray:5.0,5.0;" x1="770" x2="770" y1="156.4375" y2="419.25"/><text fill="#000000" font-family="sans-serif" font-size="14" lengthAdjust="spacing" textLength="116" x="5" y="135.752">Human Resources</text><text fill="#000000" font-family="sans-serif" font-size="14" lengthAdjust="spacing" textLength="56" x="37" y="153.3613">Manager</text><ellipse cx="66" cy="69.7188" fill="#E3E3E3" rx="8" ry="8" style="stroke:#181818;stroke-width:0.5;"/><path d="M66,77.7188 L66,104.7188 M53,85.7188 L79,85.7188 M66,104.7188 L53,119.7188 M66,104.7188 L79,119.7188 " fill="none" style="stroke:#181818;stroke-width:0.5;"/><text fill="#000000" font-family="sans-serif" font-size="14" lengthAdjust="spacing" textLength="116" x="5" y="432.7832">Human Resources</text><text fill="#000000" font-family="sans-serif" font-size="14" lengthAdjust="spacing" textLength="56" x="37" y="450.3926">Manager</text><ellipse cx="66" cy="461.9688" fill="#E3E3E3" rx="8" ry="8" style="stroke:#181818;stroke-width:0.5;"/><path d="M66,469.9688 L66,496.9688 M53,477.9688 L79,477.9688 M66,496.9688 L53,511.9688 M66,496.9688 L79,511.9688 " fill="none" style="stroke:#181818;stroke-width:0.5;"/><rect fill="#E3E3E3" height="31.6094" rx="2.5" ry="2.5" style="stroke:#181818;stroke-width:0.5;" width="64" x="738" y="123.8281"/><text fill="#000000" font-family="sans-serif" font-size="14" lengthAdjust="spacing" textLength="50" x="745" y="145.3613">:System</text><rect fill="#E3E3E3" height="31.6094" rx="2.5" ry="2.5" style="stroke:#181818;stroke-width:0.5;" width="64" x="738" y="418.25"/><text fill="#000000" font-family="sans-serif" font-size="14" lengthAdjust="spacing" textLength="50" x="745" y="439.7832">:System</text><rect fill="#FFFFFF" height="243.8125" style="stroke:#181818;stroke-width:1.0;" width="10" x="61" y="166.4375"/><rect fill="#FFFFFF" height="30.3516" style="stroke:#181818;stroke-width:1.0;" width="10" x="765" y="188.7891"/><rect fill="#FFFFFF" height="30.3516" style="stroke:#181818;stroke-width:1.0;" width="10" x="765" y="249.4922"/><rect fill="#FFFFFF" height="30.3516" style="stroke:#181818;stroke-width:1.0;" width="10" x="765" y="310.1953"/><rect fill="#FFFFFF" height="30.3516" style="stroke:#181818;stroke-width:1.0;" width="10" x="765" y="370.8984"/><polygon fill="#181818" points="753,184.7891,763,188.7891,753,192.7891,757,188.7891" style="stroke:#181818;stroke-width:1.0;"/><line style="stroke:#181818;stroke-width:1.0;" x1="71" x2="759" y1="188.7891" y2="188.7891"/><text fill="#000000" font-family="sans-serif" font-size="13" font-weight="bold" lengthAdjust="spacing" textLength="7" x="78" y="183.9326">1</text><text fill="#000000" font-family="sans-serif" font-size="13" lengthAdjust="spacing" textLength="192" x="89" y="183.9326">asks to create a new collaborator</text><polygon fill="#181818" points="82,215.1406,72,219.1406,82,223.1406,78,219.1406" style="stroke:#181818;stroke-width:1.0;"/><line style="stroke:#181818;stroke-width:1.0;stroke-dasharray:2.0,2.0;" x1="76" x2="769" y1="219.1406" y2="219.1406"/><text fill="#000000" font-family="sans-serif" font-size="13" font-weight="bold" lengthAdjust="spacing" textLength="7" x="88" y="214.2842">2</text><text fill="#000000" font-family="sans-serif" font-size="13" lengthAdjust="spacing" textLength="659" x="99" y="214.2842">requests data (Name, birthdate, admission date, address, contact info (mobile and email), ID doc type, ID number)</text><polygon fill="#181818" points="753,245.4922,763,249.4922,753,253.4922,757,249.4922" style="stroke:#181818;stroke-width:1.0;"/><line style="stroke:#181818;stroke-width:1.0;" x1="71" x2="759" y1="249.4922" y2="249.4922"/><text fill="#000000" font-family="sans-serif" font-size="13" font-weight="bold" lengthAdjust="spacing" textLength="7" x="78" y="244.6357">3</text><text fill="#000000" font-family="sans-serif" font-size="13" lengthAdjust="spacing" textLength="122" x="89" y="244.6357">types requested data</text><polygon fill="#181818" points="82,275.8438,72,279.8438,82,283.8438,78,279.8438" style="stroke:#181818;stroke-width:1.0;"/><line style="stroke:#181818;stroke-width:1.0;stroke-dasharray:2.0,2.0;" x1="76" x2="769" y1="279.8438" y2="279.8438"/><text fill="#000000" font-family="sans-serif" font-size="13" font-weight="bold" lengthAdjust="spacing" textLength="7" x="88" y="274.9873">4</text><text fill="#000000" font-family="sans-serif" font-size="13" lengthAdjust="spacing" textLength="202" x="99" y="274.9873">Show job list and request selection</text><polygon fill="#181818" points="753,306.1953,763,310.1953,753,314.1953,757,310.1953" style="stroke:#181818;stroke-width:1.0;"/><line style="stroke:#181818;stroke-width:1.0;" x1="71" x2="759" y1="310.1953" y2="310.1953"/><text fill="#000000" font-family="sans-serif" font-size="13" font-weight="bold" lengthAdjust="spacing" textLength="7" x="78" y="305.3389">5</text><text fill="#000000" font-family="sans-serif" font-size="13" lengthAdjust="spacing" textLength="61" x="89" y="305.3389">Select Job</text><polygon fill="#181818" points="82,336.5469,72,340.5469,82,344.5469,78,340.5469" style="stroke:#181818;stroke-width:1.0;"/><line style="stroke:#181818;stroke-width:1.0;stroke-dasharray:2.0,2.0;" x1="76" x2="769" y1="340.5469" y2="340.5469"/><text fill="#000000" font-family="sans-serif" font-size="13" font-weight="bold" lengthAdjust="spacing" textLength="7" x="88" y="335.6904">6</text><text fill="#000000" font-family="sans-serif" font-size="13" lengthAdjust="spacing" textLength="278" x="99" y="335.6904">Show collaborator data and request confirmation</text><polygon fill="#181818" points="753,366.8984,763,370.8984,753,374.8984,757,370.8984" style="stroke:#181818;stroke-width:1.0;"/><line style="stroke:#181818;stroke-width:1.0;" x1="71" x2="759" y1="370.8984" y2="370.8984"/><text fill="#000000" font-family="sans-serif" font-size="13" font-weight="bold" lengthAdjust="spacing" textLength="7" x="78" y="366.042">7</text><text fill="#000000" font-family="sans-serif" font-size="13" lengthAdjust="spacing" textLength="78" x="89" y="366.042">confirms data</text><polygon fill="#181818" points="82,397.25,72,401.25,82,405.25,78,401.25" style="stroke:#181818;stroke-width:1.0;"/><line style="stroke:#181818;stroke-width:1.0;stroke-dasharray:2.0,2.0;" x1="76" x2="769" y1="401.25" y2="401.25"/><text fill="#000000" font-family="sans-serif" font-size="13" font-weight="bold" lengthAdjust="spacing" textLength="7" x="88" y="396.3936">8</text><text fill="#000000" font-family="sans-serif" font-size="13" lengthAdjust="spacing" textLength="158" x="99" y="396.3936">displays operation success</text><!--SRC=[dPD1Zzem48Nl-HLFd402QQMzSUYbL6ehjOT6lUrbuWpWnVPaFKvH_dsDIL8gmKgjJtOoy-PxpucUREWeaeUN8EOOnJDIxBdI-Kr7vaG7hjFW695Ded1mjmLwf5REDXom9wTSLSccNFgpVdfwnWOV8rDY48muHur4IX9VGZreOe-QtteEXh6pTBYeBUjwjwegwfE4tZSSyzxa3Ym-zvu2Vh1A7mthIy0t2faiBa2AJxvpCZ1N6IfPOpiA2OljTKofk6wBdFrrGPfRAkGrdR3vC9PYczjEYYGmaud0vx-CbDPPSHg1SOqwcomvoszpYDcp9aLBYR3yJfxNQ6nCn_mWRwdrLjLAm7Hk8wkky-2GyYpOi1SilJGsvqoX1NkoRhN6bnrQCKX3n-LmJN1LU5g-YtdNzaL09qvk2-XZf_TTraSvurKQEAkfK8vwK7RvCyh-vfmUi3tagui2laepr_t7FHJ2sykyNiWjQavyRwEdcVPVKXoRzKzyxq8-1csjTeu6XNGS2mkqD_aVq7SI_0q0]--></g></svg>