<?xml version="1.0" encoding="us-ascii" standalone="no"?><svg xmlns="http://www.w3.org/2000/svg" xmlns:xlink="http://www.w3.org/1999/xlink" contentStyleType="text/css" height="1774px" preserveAspectRatio="none" style="width:2381px;height:1774px;background:#FFFFFF;" version="1.1" viewBox="0 0 2381 1774" width="2381px" zoomAndPan="magnify"><defs/><g><rect fill="#FFFFFF" height="1579.6289" style="stroke:#181818;stroke-width:1.0;" width="10" x="18" y="93.6211"/><rect fill="#FFFFFF" height="31.291" style="stroke:#181818;stroke-width:1.0;" width="10" x="398" y="116.9121"/><rect fill="#FFFFFF" height="281.6191" style="stroke:#181818;stroke-width:1.0;" width="10" x="398" y="179.4941"/><rect fill="#FFFFFF" height="31.291" style="stroke:#181818;stroke-width:1.0;" width="10" x="398" y="492.4043"/><rect fill="#FFFFFF" height="1118.2637" style="stroke:#181818;stroke-width:1.0;" width="10" x="398" y="554.9863"/><rect fill="#FFFFFF" height="219.0371" style="stroke:#181818;stroke-width:1.0;" width="10" x="774" y="210.7852"/><rect fill="#FFFFFF" height="1055.6816" style="stroke:#181818;stroke-width:1.0;" width="10" x="774" y="586.2773"/><rect fill="#FFFFFF" height="31.291" style="stroke:#181818;stroke-width:1.0;" width="10" x="1053" y="242.0762"/><rect fill="#FFFFFF" height="31.291" style="stroke:#181818;stroke-width:1.0;" width="10" x="1053" y="661.8594"/><rect fill="#FFFFFF" height="31.291" style="stroke:#181818;stroke-width:1.0;" width="10" x="1053" y="1019.0605"/><rect fill="#FFFFFF" height="31.291" style="stroke:#181818;stroke-width:1.0;" width="10" x="1160" y="304.6582"/><rect fill="#FFFFFF" height="31.291" style="stroke:#181818;stroke-width:1.0;" width="10" x="1160" y="724.4414"/><rect fill="#FFFFFF" height="31.291" style="stroke:#181818;stroke-width:1.0;" width="10" x="1160" y="1081.6426"/><rect fill="#FFFFFF" height="31.291" style="stroke:#181818;stroke-width:1.0;" width="10" x="1271" y="367.2402"/><rect fill="#FFFFFF" height="156.4551" style="stroke:#181818;stroke-width:1.0;" width="10" x="1421.5" y="787.0234"/><rect fill="#FFFFFF" height="93.873" style="stroke:#181818;stroke-width:1.0;" width="10" x="1610.5" y="818.3145"/><rect fill="#FFFFFF" height="538.0254" style="stroke:#181818;stroke-width:1.0;" width="10" x="1750.5" y="1144.2246"/><rect fill="#FFFFFF" height="31.291" style="stroke:#181818;stroke-width:1.0;" width="10" x="1917.5" y="1201.8066"/><rect fill="#FFFFFF" height="269.6973" style="stroke:#181818;stroke-width:1.0;" width="10" x="1917.5" y="1302.6797"/><rect fill="#FFFFFF" height="139.8242" style="stroke:#181818;stroke-width:1.0;" width="10" x="1922.5" y="1343.9707"/><rect fill="none" height="81.873" style="stroke:#000000;stroke-width:1.5;" width="317.5" x="1664" y="1159.2246"/><line style="stroke:#181818;stroke-width:0.5;stroke-dasharray:5.0,5.0;" x1="23" x2="23" y1="83.6211" y2="1691.25"/><line style="stroke:#181818;stroke-width:0.5;stroke-dasharray:5.0,5.0;" x1="402.5" x2="402.5" y1="83.6211" y2="1691.25"/><line style="stroke:#181818;stroke-width:0.5;stroke-dasharray:5.0,5.0;" x1="778.5" x2="778.5" y1="83.6211" y2="1691.25"/><line style="stroke:#181818;stroke-width:0.5;stroke-dasharray:5.0,5.0;" x1="1057.5" x2="1057.5" y1="83.6211" y2="1691.25"/><line style="stroke:#181818;stroke-width:0.5;stroke-dasharray:5.0,5.0;" x1="1164.5" x2="1164.5" y1="83.6211" y2="1691.25"/><line style="stroke:#181818;stroke-width:0.5;stroke-dasharray:5.0,5.0;" x1="1275.5" x2="1275.5" y1="83.6211" y2="1691.25"/><line style="stroke:#181818;stroke-width:0.5;stroke-dasharray:5.0,5.0;" x1="1426.5" x2="1426.5" y1="83.6211" y2="1691.25"/><line style="stroke:#181818;stroke-width:0.5;stroke-dasharray:5.0,5.0;" x1="1615" x2="1615" y1="83.6211" y2="1691.25"/><line style="stroke:#181818;stroke-width:0.5;stroke-dasharray:5.0,5.0;" x1="1755" x2="1755" y1="83.6211" y2="1691.25"/><line style="stroke:#181818;stroke-width:0.5;stroke-dasharray:5.0,5.0;" x1="1922.5" x2="1922.5" y1="83.6211" y2="1691.25"/><line style="stroke:#181818;stroke-width:0.5;stroke-dasharray:5.0,5.0;" x1="2134.5" x2="2134.5" y1="1351.8008" y2="1691.25"/><text fill="#000000" font-family="sans-serif" font-size="14" lengthAdjust="spacing" textLength="30" x="5" y="80.1074">HRM</text><ellipse cx="23" cy="13.5" fill="#E3E3E3" rx="8" ry="8" style="stroke:#181818;stroke-width:0.5;"/><path d="M23,21.5 L23,48.5 M10,29.5 L36,29.5 M23,48.5 L10,63.5 M23,48.5 L36,63.5 " fill="none" style="stroke:#181818;stroke-width:0.5;"/><text fill="#000000" font-family="sans-serif" font-size="14" lengthAdjust="spacing" textLength="30" x="5" y="1705.3574">HRM</text><ellipse cx="23" cy="1717.3711" fill="#E3E3E3" rx="8" ry="8" style="stroke:#181818;stroke-width:0.5;"/><path d="M23,1725.3711 L23,1752.3711 M10,1733.3711 L36,1733.3711 M23,1752.3711 L10,1767.3711 M23,1752.3711 L36,1767.3711 " fill="none" style="stroke:#181818;stroke-width:0.5;"/><rect fill="#E3E3E3" height="32.6211" rx="2.5" ry="2.5" style="stroke:#181818;stroke-width:0.5;" width="135" x="335.5" y="50"/><text fill="#000000" font-family="sans-serif" font-size="14" lengthAdjust="spacing" textLength="121" x="342.5" y="72.1074">:CreateEmployeeUI</text><rect fill="#E3E3E3" height="32.6211" rx="2.5" ry="2.5" style="stroke:#181818;stroke-width:0.5;" width="135" x="335.5" y="1690.25"/><text fill="#000000" font-family="sans-serif" font-size="14" lengthAdjust="spacing" textLength="121" x="342.5" y="1712.3574">:CreateEmployeeUI</text><rect fill="#E3E3E3" height="32.6211" rx="2.5" ry="2.5" style="stroke:#181818;stroke-width:0.5;" width="185" x="686.5" y="50"/><text fill="#000000" font-family="sans-serif" font-size="14" lengthAdjust="spacing" textLength="171" x="693.5" y="72.1074">:CreateEmployeeController</text><rect fill="#E3E3E3" height="32.6211" rx="2.5" ry="2.5" style="stroke:#181818;stroke-width:0.5;" width="185" x="686.5" y="1690.25"/><text fill="#000000" font-family="sans-serif" font-size="14" lengthAdjust="spacing" textLength="171" x="693.5" y="1712.3574">:CreateEmployeeController</text><rect fill="#E3E3E3" height="32.6211" rx="2.5" ry="2.5" style="stroke:#181818;stroke-width:0.5;" width="97" x="1009.5" y="50"/><text fill="#000000" font-family="sans-serif" font-size="14" lengthAdjust="spacing" textLength="83" x="1016.5" y="72.1074">:Repositories</text><rect fill="#E3E3E3" height="32.6211" rx="2.5" ry="2.5" style="stroke:#181818;stroke-width:0.5;" width="97" x="1009.5" y="1690.25"/><text fill="#000000" font-family="sans-serif" font-size="14" lengthAdjust="spacing" textLength="83" x="1016.5" y="1712.3574">:Repositories</text><rect fill="#E3E3E3" height="51.2422" rx="2.5" ry="2.5" style="stroke:#181818;stroke-width:0.5;" width="97" x="1116.5" y="31.3789"/><text fill="#000000" font-family="sans-serif" font-size="14" lengthAdjust="spacing" textLength="74" x="1128" y="53.4863">repositories</text><text fill="#000000" font-family="sans-serif" font-size="14" lengthAdjust="spacing" textLength="83" x="1123.5" y="72.1074">:Repositories</text><rect fill="#E3E3E3" height="51.2422" rx="2.5" ry="2.5" style="stroke:#181818;stroke-width:0.5;" width="97" x="1116.5" y="1690.25"/><text fill="#000000" font-family="sans-serif" font-size="14" lengthAdjust="spacing" textLength="74" x="1128" y="1712.3574">repositories</text><text fill="#000000" font-family="sans-serif" font-size="14" lengthAdjust="spacing" textLength="83" x="1123.5" y="1730.9785">:Repositories</text><rect fill="#E3E3E3" height="51.2422" rx="2.5" ry="2.5" style="stroke:#181818;stroke-width:0.5;" width="105" x="1223.5" y="31.3789"/><text fill="#000000" font-family="sans-serif" font-size="14" lengthAdjust="spacing" textLength="91" x="1230.5" y="53.4863">jobRepository:</text><text fill="#000000" font-family="sans-serif" font-size="14" lengthAdjust="spacing" textLength="90" x="1231" y="72.1074">JobRepository</text><rect fill="#E3E3E3" height="51.2422" rx="2.5" ry="2.5" style="stroke:#181818;stroke-width:0.5;" width="105" x="1223.5" y="1690.25"/><text fill="#000000" font-family="sans-serif" font-size="14" lengthAdjust="spacing" textLength="91" x="1230.5" y="1712.3574">jobRepository:</text><text fill="#000000" font-family="sans-serif" font-size="14" lengthAdjust="spacing" textLength="90" x="1231" y="1730.9785">JobRepository</text><rect fill="#E3E3E3" height="51.2422" rx="2.5" ry="2.5" style="stroke:#181818;stroke-width:0.5;" width="176" x="1338.5" y="31.3789"/><text fill="#000000" font-family="sans-serif" font-size="14" lengthAdjust="spacing" textLength="77" x="1388" y="53.4863">AuthFacade</text><text fill="#000000" font-family="sans-serif" font-size="14" lengthAdjust="spacing" textLength="162" x="1345.5" y="72.1074">:AuthenticationRepository</text><rect fill="#E3E3E3" height="51.2422" rx="2.5" ry="2.5" style="stroke:#181818;stroke-width:0.5;" width="176" x="1338.5" y="1690.25"/><text fill="#000000" font-family="sans-serif" font-size="14" lengthAdjust="spacing" textLength="77" x="1388" y="1712.3574">AuthFacade</text><text fill="#000000" font-family="sans-serif" font-size="14" lengthAdjust="spacing" textLength="162" x="1345.5" y="1730.9785">:AuthenticationRepository</text><rect fill="#E3E3E3" height="51.2422" rx="2.5" ry="2.5" style="stroke:#181818;stroke-width:0.5;" width="97" x="1567" y="31.3789"/><text fill="#000000" font-family="sans-serif" font-size="14" lengthAdjust="spacing" textLength="78" x="1576.5" y="53.4863">userSession</text><text fill="#000000" font-family="sans-serif" font-size="14" lengthAdjust="spacing" textLength="83" x="1574" y="72.1074">:UserSession</text><rect fill="#E3E3E3" height="51.2422" rx="2.5" ry="2.5" style="stroke:#181818;stroke-width:0.5;" width="97" x="1567" y="1690.25"/><text fill="#000000" font-family="sans-serif" font-size="14" lengthAdjust="spacing" textLength="78" x="1576.5" y="1712.3574">userSession</text><text fill="#000000" font-family="sans-serif" font-size="14" lengthAdjust="spacing" textLength="83" x="1574" y="1730.9785">:UserSession</text><rect fill="#E3E3E3" height="51.2422" rx="2.5" ry="2.5" style="stroke:#181818;stroke-width:0.5;" width="163" x="1674" y="31.3789"/><text fill="#000000" font-family="sans-serif" font-size="14" lengthAdjust="spacing" textLength="149" x="1681" y="53.4863">organizationRepository:</text><text fill="#000000" font-family="sans-serif" font-size="14" lengthAdjust="spacing" textLength="148" x="1681.5" y="72.1074">OrganizationRepository</text><rect fill="#E3E3E3" height="51.2422" rx="2.5" ry="2.5" style="stroke:#181818;stroke-width:0.5;" width="163" x="1674" y="1690.25"/><text fill="#000000" font-family="sans-serif" font-size="14" lengthAdjust="spacing" textLength="149" x="1681" y="1712.3574">organizationRepository:</text><text fill="#000000" font-family="sans-serif" font-size="14" lengthAdjust="spacing" textLength="148" x="1681.5" y="1730.9785">OrganizationRepository</text><rect fill="#E3E3E3" height="51.2422" rx="2.5" ry="2.5" style="stroke:#181818;stroke-width:0.5;" width="98" x="1873.5" y="31.3789"/><text fill="#000000" font-family="sans-serif" font-size="14" lengthAdjust="spacing" textLength="77" x="1884" y="53.4863">organization</text><text fill="#000000" font-family="sans-serif" font-size="14" lengthAdjust="spacing" textLength="84" x="1880.5" y="72.1074">:Organization</text><rect fill="#E3E3E3" height="51.2422" rx="2.5" ry="2.5" style="stroke:#181818;stroke-width:0.5;" width="98" x="1873.5" y="1690.25"/><text fill="#000000" font-family="sans-serif" font-size="14" lengthAdjust="spacing" textLength="77" x="1884" y="1712.3574">organization</text><text fill="#000000" font-family="sans-serif" font-size="14" lengthAdjust="spacing" textLength="84" x="1880.5" y="1730.9785">:Organization</text><rect fill="#E3E3E3" height="51.2422" rx="2.5" ry="2.5" style="stroke:#181818;stroke-width:0.5;" width="80" x="2094.5" y="1690.25"/><text fill="#000000" font-family="sans-serif" font-size="14" lengthAdjust="spacing" textLength="61" x="2104" y="1712.3574">employee</text><text fill="#000000" font-family="sans-serif" font-size="14" lengthAdjust="spacing" textLength="66" x="2101.5" y="1730.9785">:Employee</text><rect fill="#FFFFFF" height="1579.6289" style="stroke:#181818;stroke-width:1.0;" width="10" x="18" y="93.6211"/><rect fill="#FFFFFF" height="31.291" style="stroke:#181818;stroke-width:1.0;" width="10" x="398" y="116.9121"/><rect fill="#FFFFFF" height="281.6191" style="stroke:#181818;stroke-width:1.0;" width="10" x="398" y="179.4941"/><rect fill="#FFFFFF" height="31.291" style="stroke:#181818;stroke-width:1.0;" width="10" x="398" y="492.4043"/><rect fill="#FFFFFF" height="1118.2637" style="stroke:#181818;stroke-width:1.0;" width="10" x="398" y="554.9863"/><rect fill="#FFFFFF" height="219.0371" style="stroke:#181818;stroke-width:1.0;" width="10" x="774" y="210.7852"/><rect fill="#FFFFFF" height="1055.6816" style="stroke:#181818;stroke-width:1.0;" width="10" x="774" y="586.2773"/><rect fill="#FFFFFF" height="31.291" style="stroke:#181818;stroke-width:1.0;" width="10" x="1053" y="242.0762"/><rect fill="#FFFFFF" height="31.291" style="stroke:#181818;stroke-width:1.0;" width="10" x="1053" y="661.8594"/><rect fill="#FFFFFF" height="31.291" style="stroke:#181818;stroke-width:1.0;" width="10" x="1053" y="1019.0605"/><rect fill="#FFFFFF" height="31.291" style="stroke:#181818;stroke-width:1.0;" width="10" x="1160" y="304.6582"/><rect fill="#FFFFFF" height="31.291" style="stroke:#181818;stroke-width:1.0;" width="10" x="1160" y="724.4414"/><rect fill="#FFFFFF" height="31.291" style="stroke:#181818;stroke-width:1.0;" width="10" x="1160" y="1081.6426"/><rect fill="#FFFFFF" height="31.291" style="stroke:#181818;stroke-width:1.0;" width="10" x="1271" y="367.2402"/><rect fill="#FFFFFF" height="156.4551" style="stroke:#181818;stroke-width:1.0;" width="10" x="1421.5" y="787.0234"/><rect fill="#FFFFFF" height="93.873" style="stroke:#181818;stroke-width:1.0;" width="10" x="1610.5" y="818.3145"/><rect fill="#FFFFFF" height="538.0254" style="stroke:#181818;stroke-width:1.0;" width="10" x="1750.5" y="1144.2246"/><rect fill="#FFFFFF" height="31.291" style="stroke:#181818;stroke-width:1.0;" width="10" x="1917.5" y="1201.8066"/><rect fill="#FFFFFF" height="269.6973" style="stroke:#181818;stroke-width:1.0;" width="10" x="1917.5" y="1302.6797"/><rect fill="#FFFFFF" height="139.8242" style="stroke:#181818;stroke-width:1.0;" width="10" x="1922.5" y="1343.9707"/><polygon fill="#181818" points="386,112.9121,396,116.9121,386,120.9121,390,116.9121" style="stroke:#181818;stroke-width:1.0;"/><line style="stroke:#181818;stroke-width:1.0;" x1="28" x2="392" y1="116.9121" y2="116.9121"/><text fill="#000000" font-family="sans-serif" font-size="13" font-weight="bold" lengthAdjust="spacing" textLength="7" x="35" y="111.6494">1</text><text fill="#000000" font-family="sans-serif" font-size="13" lengthAdjust="spacing" textLength="181" x="46" y="111.6494">asks to create a new employee</text><polygon fill="#181818" points="39,144.2031,29,148.2031,39,152.2031,35,148.2031" style="stroke:#181818;stroke-width:1.0;"/><line style="stroke:#181818;stroke-width:1.0;stroke-dasharray:2.0,2.0;" x1="33" x2="402" y1="148.2031" y2="148.2031"/><text fill="#000000" font-family="sans-serif" font-size="13" font-weight="bold" lengthAdjust="spacing" textLength="7" x="45" y="142.9404">2</text><text fill="#000000" font-family="sans-serif" font-size="13" lengthAdjust="spacing" textLength="297" x="56" y="142.9404">requests data (name, birthdate, admission date, ...)</text><polygon fill="#181818" points="386,175.4941,396,179.4941,386,183.4941,390,179.4941" style="stroke:#181818;stroke-width:1.0;"/><line style="stroke:#181818;stroke-width:1.0;" x1="28" x2="392" y1="179.4941" y2="179.4941"/><text fill="#000000" font-family="sans-serif" font-size="13" font-weight="bold" lengthAdjust="spacing" textLength="7" x="35" y="174.2314">3</text><text fill="#000000" font-family="sans-serif" font-size="13" lengthAdjust="spacing" textLength="340" x="46" y="174.2314">types requested data (name, birthdate, admission date, ...)</text><polygon fill="#181818" points="762,206.7852,772,210.7852,762,214.7852,766,210.7852" style="stroke:#181818;stroke-width:1.0;"/><line style="stroke:#181818;stroke-width:1.0;" x1="408" x2="768" y1="210.7852" y2="210.7852"/><text fill="#000000" font-family="sans-serif" font-size="13" font-weight="bold" lengthAdjust="spacing" textLength="7" x="415" y="205.5225">4</text><text fill="#000000" font-family="sans-serif" font-size="13" lengthAdjust="spacing" textLength="68" x="426" y="205.5225">getAllJobs()</text><polygon fill="#181818" points="1041,238.0762,1051,242.0762,1041,246.0762,1045,242.0762" style="stroke:#181818;stroke-width:1.0;"/><line style="stroke:#181818;stroke-width:1.0;" x1="784" x2="1047" y1="242.0762" y2="242.0762"/><text fill="#000000" font-family="sans-serif" font-size="13" font-weight="bold" lengthAdjust="spacing" textLength="7" x="791" y="236.8135">5</text><text fill="#000000" font-family="sans-serif" font-size="13" lengthAdjust="spacing" textLength="75" x="802" y="236.8135">getInstance()</text><polygon fill="#181818" points="795,269.3672,785,273.3672,795,277.3672,791,273.3672" style="stroke:#181818;stroke-width:1.0;"/><line style="stroke:#181818;stroke-width:1.0;stroke-dasharray:2.0,2.0;" x1="789" x2="1057" y1="273.3672" y2="273.3672"/><text fill="#000000" font-family="sans-serif" font-size="13" font-weight="bold" lengthAdjust="spacing" textLength="7" x="801" y="268.1045">6</text><text fill="#000000" font-family="sans-serif" font-size="13" lengthAdjust="spacing" textLength="67" x="812" y="268.1045">repositories</text><polygon fill="#181818" points="1148,300.6582,1158,304.6582,1148,308.6582,1152,304.6582" style="stroke:#181818;stroke-width:1.0;"/><line style="stroke:#181818;stroke-width:1.0;" x1="784" x2="1154" y1="304.6582" y2="304.6582"/><text fill="#000000" font-family="sans-serif" font-size="13" font-weight="bold" lengthAdjust="spacing" textLength="7" x="791" y="299.3955">7</text><text fill="#000000" font-family="sans-serif" font-size="13" lengthAdjust="spacing" textLength="108" x="802" y="299.3955">getJobRepository()</text><polygon fill="#181818" points="795,331.9492,785,335.9492,795,339.9492,791,335.9492" style="stroke:#181818;stroke-width:1.0;"/><line style="stroke:#181818;stroke-width:1.0;stroke-dasharray:2.0,2.0;" x1="789" x2="1164" y1="335.9492" y2="335.9492"/><text fill="#000000" font-family="sans-serif" font-size="13" font-weight="bold" lengthAdjust="spacing" textLength="7" x="801" y="330.6865">8</text><text fill="#000000" font-family="sans-serif" font-size="13" lengthAdjust="spacing" textLength="79" x="812" y="330.6865">jobRepository</text><polygon fill="#181818" points="1259,363.2402,1269,367.2402,1259,371.2402,1263,367.2402" style="stroke:#181818;stroke-width:1.0;"/><line style="stroke:#181818;stroke-width:1.0;" x1="784" x2="1265" y1="367.2402" y2="367.2402"/><text fill="#000000" font-family="sans-serif" font-size="13" font-weight="bold" lengthAdjust="spacing" textLength="7" x="791" y="361.9775">9</text><text fill="#000000" font-family="sans-serif" font-size="13" lengthAdjust="spacing" textLength="68" x="802" y="361.9775">getAllJobs()</text><polygon fill="#181818" points="795,394.5313,785,398.5313,795,402.5313,791,398.5313" style="stroke:#181818;stroke-width:1.0;"/><line style="stroke:#181818;stroke-width:1.0;stroke-dasharray:2.0,2.0;" x1="789" x2="1275" y1="398.5313" y2="398.5313"/><text fill="#000000" font-family="sans-serif" font-size="13" font-weight="bold" lengthAdjust="spacing" textLength="14" x="801" y="393.2686">10</text><text fill="#000000" font-family="sans-serif" font-size="13" lengthAdjust="spacing" textLength="63" x="819" y="393.2686">AllJobsList</text><polygon fill="#181818" points="419,425.8223,409,429.8223,419,433.8223,415,429.8223" style="stroke:#181818;stroke-width:1.0;"/><line style="stroke:#181818;stroke-width:1.0;stroke-dasharray:2.0,2.0;" x1="413" x2="778" y1="429.8223" y2="429.8223"/><text fill="#000000" font-family="sans-serif" font-size="13" font-weight="bold" lengthAdjust="spacing" textLength="14" x="425" y="424.5596">11</text><text fill="#000000" font-family="sans-serif" font-size="13" lengthAdjust="spacing" textLength="63" x="443" y="424.5596">AllJobsList</text><polygon fill="#181818" points="39,457.1133,29,461.1133,39,465.1133,35,461.1133" style="stroke:#181818;stroke-width:1.0;"/><line style="stroke:#181818;stroke-width:1.0;stroke-dasharray:2.0,2.0;" x1="33" x2="402" y1="461.1133" y2="461.1133"/><text fill="#000000" font-family="sans-serif" font-size="13" font-weight="bold" lengthAdjust="spacing" textLength="14" x="45" y="455.8506">12</text><text fill="#000000" font-family="sans-serif" font-size="13" lengthAdjust="spacing" textLength="187" x="63" y="455.8506">show jobs and ask to select one</text><polygon fill="#181818" points="386,488.4043,396,492.4043,386,496.4043,390,492.4043" style="stroke:#181818;stroke-width:1.0;"/><line style="stroke:#181818;stroke-width:1.0;" x1="28" x2="392" y1="492.4043" y2="492.4043"/><text fill="#000000" font-family="sans-serif" font-size="13" font-weight="bold" lengthAdjust="spacing" textLength="14" x="35" y="487.1416">13</text><text fill="#000000" font-family="sans-serif" font-size="13" lengthAdjust="spacing" textLength="74" x="53" y="487.1416">selects a job</text><polygon fill="#181818" points="39,519.6953,29,523.6953,39,527.6953,35,523.6953" style="stroke:#181818;stroke-width:1.0;"/><line style="stroke:#181818;stroke-width:1.0;stroke-dasharray:2.0,2.0;" x1="33" x2="402" y1="523.6953" y2="523.6953"/><text fill="#000000" font-family="sans-serif" font-size="13" font-weight="bold" lengthAdjust="spacing" textLength="14" x="45" y="518.4326">14</text><text fill="#000000" font-family="sans-serif" font-size="13" lengthAdjust="spacing" textLength="234" x="63" y="518.4326">shows requested data and selected data</text><polygon fill="#181818" points="386,550.9863,396,554.9863,386,558.9863,390,554.9863" style="stroke:#181818;stroke-width:1.0;"/><line style="stroke:#181818;stroke-width:1.0;" x1="28" x2="392" y1="554.9863" y2="554.9863"/><text fill="#000000" font-family="sans-serif" font-size="13" font-weight="bold" lengthAdjust="spacing" textLength="14" x="35" y="549.7236">15</text><text fill="#000000" font-family="sans-serif" font-size="13" lengthAdjust="spacing" textLength="75" x="53" y="549.7236">submits data</text><polygon fill="#181818" points="762,582.2773,772,586.2773,762,590.2773,766,586.2773" style="stroke:#181818;stroke-width:1.0;"/><line style="stroke:#181818;stroke-width:1.0;" x1="408" x2="768" y1="586.2773" y2="586.2773"/><text fill="#000000" font-family="sans-serif" font-size="13" font-weight="bold" lengthAdjust="spacing" textLength="14" x="415" y="581.0146">16</text><text fill="#000000" font-family="sans-serif" font-size="13" lengthAdjust="spacing" textLength="329" x="433" y="581.0146">createEmployee(name, birthdate, admission date,... ,job)</text><line style="stroke:#181818;stroke-width:1.0;" x1="784" x2="826" y1="617.5684" y2="617.5684"/><line style="stroke:#181818;stroke-width:1.0;" x1="826" x2="826" y1="617.5684" y2="630.5684"/><line style="stroke:#181818;stroke-width:1.0;" x1="785" x2="826" y1="630.5684" y2="630.5684"/><polygon fill="#181818" points="795,626.5684,785,630.5684,795,634.5684,791,630.5684" style="stroke:#181818;stroke-width:1.0;"/><text fill="#000000" font-family="sans-serif" font-size="13" font-weight="bold" lengthAdjust="spacing" textLength="14" x="791" y="612.3057">17</text><text fill="#000000" font-family="sans-serif" font-size="13" lengthAdjust="spacing" textLength="130" x="809" y="612.3057">getUserFromSession()</text><polygon fill="#181818" points="1041,657.8594,1051,661.8594,1041,665.8594,1045,661.8594" style="stroke:#181818;stroke-width:1.0;"/><line style="stroke:#181818;stroke-width:1.0;" x1="784" x2="1047" y1="661.8594" y2="661.8594"/><text fill="#000000" font-family="sans-serif" font-size="13" font-weight="bold" lengthAdjust="spacing" textLength="14" x="791" y="656.5967">18</text><text fill="#000000" font-family="sans-serif" font-size="13" lengthAdjust="spacing" textLength="75" x="809" y="656.5967">getInstance()</text><polygon fill="#181818" points="795,689.1504,785,693.1504,795,697.1504,791,693.1504" style="stroke:#181818;stroke-width:1.0;"/><line style="stroke:#181818;stroke-width:1.0;stroke-dasharray:2.0,2.0;" x1="789" x2="1057" y1="693.1504" y2="693.1504"/><text fill="#000000" font-family="sans-serif" font-size="13" font-weight="bold" lengthAdjust="spacing" textLength="14" x="801" y="687.8877">19</text><text fill="#000000" font-family="sans-serif" font-size="13" lengthAdjust="spacing" textLength="72" x="819" y="687.8877">Repositories</text><polygon fill="#181818" points="1148,720.4414,1158,724.4414,1148,728.4414,1152,724.4414" style="stroke:#181818;stroke-width:1.0;"/><line style="stroke:#181818;stroke-width:1.0;" x1="784" x2="1154" y1="724.4414" y2="724.4414"/><text fill="#000000" font-family="sans-serif" font-size="13" font-weight="bold" lengthAdjust="spacing" textLength="14" x="791" y="719.1787">20</text><text fill="#000000" font-family="sans-serif" font-size="13" lengthAdjust="spacing" textLength="171" x="809" y="719.1787">getAuthenticationRepository()</text><polygon fill="#181818" points="795,751.7324,785,755.7324,795,759.7324,791,755.7324" style="stroke:#181818;stroke-width:1.0;"/><line style="stroke:#181818;stroke-width:1.0;stroke-dasharray:2.0,2.0;" x1="789" x2="1164" y1="755.7324" y2="755.7324"/><text fill="#000000" font-family="sans-serif" font-size="13" font-weight="bold" lengthAdjust="spacing" textLength="14" x="801" y="750.4697">21</text><text fill="#000000" font-family="sans-serif" font-size="13" lengthAdjust="spacing" textLength="153" x="819" y="750.4697">AuthenticationRepository()</text><polygon fill="#181818" points="1409.5,783.0234,1419.5,787.0234,1409.5,791.0234,1413.5,787.0234" style="stroke:#181818;stroke-width:1.0;"/><line style="stroke:#181818;stroke-width:1.0;" x1="784" x2="1415.5" y1="787.0234" y2="787.0234"/><text fill="#000000" font-family="sans-serif" font-size="13" font-weight="bold" lengthAdjust="spacing" textLength="14" x="791" y="781.7607">22</text><text fill="#000000" font-family="sans-serif" font-size="13" lengthAdjust="spacing" textLength="142" x="809" y="781.7607">getCurrentUserSession()</text><polygon fill="#181818" points="1598.5,814.3145,1608.5,818.3145,1598.5,822.3145,1602.5,818.3145" style="stroke:#181818;stroke-width:1.0;"/><line style="stroke:#181818;stroke-width:1.0;" x1="1431.5" x2="1604.5" y1="818.3145" y2="818.3145"/><text fill="#000000" font-family="sans-serif" font-size="13" font-weight="bold" lengthAdjust="spacing" textLength="14" x="1438.5" y="813.0518">23</text><text fill="#000000" font-family="sans-serif" font-size="13" lengthAdjust="spacing" textLength="142" x="1456.5" y="813.0518">isLoggedWithRule(HRM)</text><polygon fill="#181818" points="1442.5,845.6055,1432.5,849.6055,1442.5,853.6055,1438.5,849.6055" style="stroke:#181818;stroke-width:1.0;"/><line style="stroke:#181818;stroke-width:1.0;stroke-dasharray:2.0,2.0;" x1="1436.5" x2="1609.5" y1="849.6055" y2="849.6055"/><text fill="#000000" font-family="sans-serif" font-size="13" font-weight="bold" lengthAdjust="spacing" textLength="14" x="1448.5" y="844.3428">24</text><text fill="#000000" font-family="sans-serif" font-size="13" lengthAdjust="spacing" textLength="71" x="1466.5" y="844.3428">"True/False"</text><polygon fill="#181818" points="1598.5,876.8965,1608.5,880.8965,1598.5,884.8965,1602.5,880.8965" style="stroke:#181818;stroke-width:1.0;"/><line style="stroke:#181818;stroke-width:1.0;stroke-dasharray:2.0,2.0;" x1="1431.5" x2="1604.5" y1="880.8965" y2="880.8965"/><text fill="#000000" font-family="sans-serif" font-size="13" font-weight="bold" lengthAdjust="spacing" textLength="14" x="1438.5" y="875.6338">25</text><text fill="#000000" font-family="sans-serif" font-size="13" lengthAdjust="spacing" textLength="94" x="1456.5" y="875.6338">getUserId(email)</text><polygon fill="#181818" points="1442.5,908.1875,1432.5,912.1875,1442.5,916.1875,1438.5,912.1875" style="stroke:#181818;stroke-width:1.0;"/><line style="stroke:#181818;stroke-width:1.0;stroke-dasharray:2.0,2.0;" x1="1436.5" x2="1614.5" y1="912.1875" y2="912.1875"/><text fill="#000000" font-family="sans-serif" font-size="13" font-weight="bold" lengthAdjust="spacing" textLength="14" x="1448.5" y="906.9248">26</text><text fill="#000000" font-family="sans-serif" font-size="13" lengthAdjust="spacing" textLength="74" x="1466.5" y="906.9248">userId(email)</text><polygon fill="#181818" points="795,939.4785,785,943.4785,795,947.4785,791,943.4785" style="stroke:#181818;stroke-width:1.0;"/><line style="stroke:#181818;stroke-width:1.0;stroke-dasharray:2.0,2.0;" x1="789" x2="1425.5" y1="943.4785" y2="943.4785"/><text fill="#000000" font-family="sans-serif" font-size="13" font-weight="bold" lengthAdjust="spacing" textLength="14" x="801" y="938.2158">27</text><text fill="#000000" font-family="sans-serif" font-size="13" lengthAdjust="spacing" textLength="74" x="819" y="938.2158">userId(email)</text><line style="stroke:#181818;stroke-width:1.0;" x1="784" x2="826" y1="974.7695" y2="974.7695"/><line style="stroke:#181818;stroke-width:1.0;" x1="826" x2="826" y1="974.7695" y2="987.7695"/><line style="stroke:#181818;stroke-width:1.0;" x1="785" x2="826" y1="987.7695" y2="987.7695"/><polygon fill="#181818" points="795,983.7695,785,987.7695,795,991.7695,791,987.7695" style="stroke:#181818;stroke-width:1.0;"/><text fill="#000000" font-family="sans-serif" font-size="13" font-weight="bold" lengthAdjust="spacing" textLength="14" x="791" y="969.5068">28</text><text fill="#000000" font-family="sans-serif" font-size="13" lengthAdjust="spacing" textLength="237" x="809" y="969.5068">getOrganizationByEmployeeEmail(email)</text><polygon fill="#181818" points="1041,1015.0605,1051,1019.0605,1041,1023.0605,1045,1019.0605" style="stroke:#181818;stroke-width:1.0;"/><line style="stroke:#181818;stroke-width:1.0;" x1="784" x2="1047" y1="1019.0605" y2="1019.0605"/><text fill="#000000" font-family="sans-serif" font-size="13" font-weight="bold" lengthAdjust="spacing" textLength="14" x="791" y="1013.7979">29</text><text fill="#000000" font-family="sans-serif" font-size="13" lengthAdjust="spacing" textLength="75" x="809" y="1013.7979">getInstance()</text><polygon fill="#181818" points="795,1046.3516,785,1050.3516,795,1054.3516,791,1050.3516" style="stroke:#181818;stroke-width:1.0;"/><line style="stroke:#181818;stroke-width:1.0;stroke-dasharray:2.0,2.0;" x1="789" x2="1057" y1="1050.3516" y2="1050.3516"/><text fill="#000000" font-family="sans-serif" font-size="13" font-weight="bold" lengthAdjust="spacing" textLength="14" x="801" y="1045.0889">30</text><text fill="#000000" font-family="sans-serif" font-size="13" lengthAdjust="spacing" textLength="72" x="819" y="1045.0889">Repositories</text><polygon fill="#181818" points="1148,1077.6426,1158,1081.6426,1148,1085.6426,1152,1081.6426" style="stroke:#181818;stroke-width:1.0;"/><line style="stroke:#181818;stroke-width:1.0;" x1="784" x2="1154" y1="1081.6426" y2="1081.6426"/><text fill="#000000" font-family="sans-serif" font-size="13" font-weight="bold" lengthAdjust="spacing" textLength="14" x="791" y="1076.3799">31</text><text fill="#000000" font-family="sans-serif" font-size="13" lengthAdjust="spacing" textLength="161" x="809" y="1076.3799">getOrganizationRepository()</text><polygon fill="#181818" points="795,1108.9336,785,1112.9336,795,1116.9336,791,1112.9336" style="stroke:#181818;stroke-width:1.0;"/><line style="stroke:#181818;stroke-width:1.0;stroke-dasharray:2.0,2.0;" x1="789" x2="1164" y1="1112.9336" y2="1112.9336"/><text fill="#000000" font-family="sans-serif" font-size="13" font-weight="bold" lengthAdjust="spacing" textLength="14" x="801" y="1107.6709">32</text><text fill="#000000" font-family="sans-serif" font-size="13" lengthAdjust="spacing" textLength="143" x="819" y="1107.6709">OrganizationRepository()</text><polygon fill="#181818" points="1738.5,1140.2246,1748.5,1144.2246,1738.5,1148.2246,1742.5,1144.2246" style="stroke:#181818;stroke-width:1.0;"/><line style="stroke:#181818;stroke-width:1.0;" x1="784" x2="1744.5" y1="1144.2246" y2="1144.2246"/><text fill="#000000" font-family="sans-serif" font-size="13" font-weight="bold" lengthAdjust="spacing" textLength="14" x="791" y="1138.9619">33</text><text fill="#000000" font-family="sans-serif" font-size="13" lengthAdjust="spacing" textLength="183" x="809" y="1138.9619">getOrganizationByUserId(email)</text><path d="M1664,1159.2246 L1737,1159.2246 L1737,1168.5156 L1727,1178.5156 L1664,1178.5156 L1664,1159.2246 " fill="#EEEEEE" style="stroke:#000000;stroke-width:1.5;"/><rect fill="none" height="81.873" style="stroke:#000000;stroke-width:1.5;" width="317.5" x="1664" y="1159.2246"/><text fill="#000000" font-family="sans-serif" font-size="13" font-weight="bold" lengthAdjust="spacing" textLength="28" x="1679" y="1174.2529">loop</text><text fill="#000000" font-family="sans-serif" font-size="11" font-weight="bold" lengthAdjust="spacing" textLength="124" x="1752" y="1173.0947">[for each organization]</text><polygon fill="#181818" points="1905.5,1197.8066,1915.5,1201.8066,1905.5,1205.8066,1909.5,1201.8066" style="stroke:#181818;stroke-width:1.0;"/><line style="stroke:#181818;stroke-width:1.0;" x1="1760.5" x2="1911.5" y1="1201.8066" y2="1201.8066"/><text fill="#000000" font-family="sans-serif" font-size="13" font-weight="bold" lengthAdjust="spacing" textLength="14" x="1767.5" y="1196.5439">34</text><text fill="#000000" font-family="sans-serif" font-size="13" lengthAdjust="spacing" textLength="120" x="1785.5" y="1196.5439">anyUserHasId(email)</text><polygon fill="#181818" points="1771.5,1229.0977,1761.5,1233.0977,1771.5,1237.0977,1767.5,1233.0977" style="stroke:#181818;stroke-width:1.0;"/><line style="stroke:#181818;stroke-width:1.0;stroke-dasharray:2.0,2.0;" x1="1765.5" x2="1921.5" y1="1233.0977" y2="1233.0977"/><text fill="#000000" font-family="sans-serif" font-size="13" font-weight="bold" lengthAdjust="spacing" textLength="14" x="1777.5" y="1227.835">35</text><text fill="#000000" font-family="sans-serif" font-size="13" lengthAdjust="spacing" textLength="61" x="1795.5" y="1227.835">True/False</text><polygon fill="#181818" points="795,1267.3887,785,1271.3887,795,1275.3887,791,1271.3887" style="stroke:#181818;stroke-width:1.0;"/><line style="stroke:#181818;stroke-width:1.0;stroke-dasharray:2.0,2.0;" x1="789" x2="1749.5" y1="1271.3887" y2="1271.3887"/><text fill="#000000" font-family="sans-serif" font-size="13" font-weight="bold" lengthAdjust="spacing" textLength="14" x="801" y="1266.126">36</text><text fill="#000000" font-family="sans-serif" font-size="13" lengthAdjust="spacing" textLength="70" x="819" y="1266.126">organitazion</text><polygon fill="#181818" points="1905.5,1298.6797,1915.5,1302.6797,1905.5,1306.6797,1909.5,1302.6797" style="stroke:#181818;stroke-width:1.0;"/><line style="stroke:#181818;stroke-width:1.0;" x1="784" x2="1911.5" y1="1302.6797" y2="1302.6797"/><text fill="#000000" font-family="sans-serif" font-size="13" font-weight="bold" lengthAdjust="spacing" textLength="14" x="791" y="1297.417">37</text><text fill="#000000" font-family="sans-serif" font-size="13" lengthAdjust="spacing" textLength="329" x="809" y="1297.417">createEmployee(name, birthdate, admission date,... ,job)</text><polygon fill="#181818" points="2082.5,1329.9707,2092.5,1333.9707,2082.5,1337.9707,2086.5,1333.9707" style="stroke:#181818;stroke-width:1.0;"/><line style="stroke:#181818;stroke-width:1.0;" x1="1927.5" x2="2088.5" y1="1333.9707" y2="1333.9707"/><text fill="#000000" font-family="sans-serif" font-size="13" font-weight="bold" lengthAdjust="spacing" textLength="14" x="1934.5" y="1328.708">38</text><text fill="#000000" font-family="sans-serif" font-size="13" lengthAdjust="spacing" textLength="100" x="1952.5" y="1328.708">create(employee)</text><rect fill="#E3E3E3" height="51.2422" rx="2.5" ry="2.5" style="stroke:#181818;stroke-width:0.5;" width="80" x="2094.5" y="1310.6797"/><text fill="#000000" font-family="sans-serif" font-size="14" lengthAdjust="spacing" textLength="61" x="2104" y="1332.7871">employee</text><text fill="#000000" font-family="sans-serif" font-size="14" lengthAdjust="spacing" textLength="66" x="2101.5" y="1351.4082">:Employee</text><path d="M2139,1377.9219 L2139,1404.9219 L2374,1404.9219 L2374,1387.9219 L2364,1377.9219 L2139,1377.9219 " fill="#FAFAFA" style="stroke:#181818;stroke-width:0.5;"/><path d="M2364,1377.9219 L2364,1387.9219 L2374,1387.9219 L2364,1377.9219 " fill="#FAFAFA" style="stroke:#181818;stroke-width:0.5;"/><text fill="#000000" font-family="sans-serif" font-size="13" lengthAdjust="spacing" textLength="214" x="2145" y="1396.9502">Employee constructor validates data.</text><line style="stroke:#181818;stroke-width:1.0;" x1="1932.5" x2="1974.5" y1="1433.5039" y2="1433.5039"/><line style="stroke:#181818;stroke-width:1.0;" x1="1974.5" x2="1974.5" y1="1433.5039" y2="1446.5039"/><line style="stroke:#181818;stroke-width:1.0;" x1="1933.5" x2="1974.5" y1="1446.5039" y2="1446.5039"/><polygon fill="#181818" points="1943.5,1442.5039,1933.5,1446.5039,1943.5,1450.5039,1939.5,1446.5039" style="stroke:#181818;stroke-width:1.0;"/><text fill="#000000" font-family="sans-serif" font-size="13" font-weight="bold" lengthAdjust="spacing" textLength="14" x="1939.5" y="1428.2412">39</text><text fill="#000000" font-family="sans-serif" font-size="13" lengthAdjust="spacing" textLength="143" x="1957.5" y="1428.2412">addEmployee(employee)</text><line style="stroke:#181818;stroke-width:1.0;" x1="1932.5" x2="1974.5" y1="1482.7949" y2="1482.7949"/><line style="stroke:#181818;stroke-width:1.0;" x1="1974.5" x2="1974.5" y1="1482.7949" y2="1495.7949"/><line style="stroke:#181818;stroke-width:1.0;" x1="1927.5" x2="1974.5" y1="1495.7949" y2="1495.7949"/><polygon fill="#181818" points="1937.5,1491.7949,1927.5,1495.7949,1937.5,1499.7949,1933.5,1495.7949" style="stroke:#181818;stroke-width:1.0;"/><text fill="#000000" font-family="sans-serif" font-size="13" font-weight="bold" lengthAdjust="spacing" textLength="14" x="1939.5" y="1477.5322">40</text><text fill="#000000" font-family="sans-serif" font-size="13" lengthAdjust="spacing" textLength="165" x="1957.5" y="1477.5322">validateEmployee(employee)</text><line style="stroke:#181818;stroke-width:1.0;stroke-dasharray:2.0,2.0;" x1="1927.5" x2="1969.5" y1="1522.0859" y2="1522.0859"/><line style="stroke:#181818;stroke-width:1.0;stroke-dasharray:2.0,2.0;" x1="1969.5" x2="1969.5" y1="1522.0859" y2="1535.0859"/><line style="stroke:#181818;stroke-width:1.0;stroke-dasharray:2.0,2.0;" x1="1928.5" x2="1969.5" y1="1535.0859" y2="1535.0859"/><polygon fill="#181818" points="1938.5,1531.0859,1928.5,1535.0859,1938.5,1539.0859,1934.5,1535.0859" style="stroke:#181818;stroke-width:1.0;"/><text fill="#000000" font-family="sans-serif" font-size="13" font-weight="bold" lengthAdjust="spacing" textLength="14" x="1934.5" y="1516.8232">41</text><text fill="#000000" font-family="sans-serif" font-size="13" lengthAdjust="spacing" textLength="4" x="1952.5" y="1516.8232">&#160;</text><line style="stroke:#181818;stroke-width:1.0;stroke-dasharray:2.0,2.0;" x1="1927.5" x2="1969.5" y1="1571.377" y2="1571.377"/><line style="stroke:#181818;stroke-width:1.0;stroke-dasharray:2.0,2.0;" x1="1969.5" x2="1969.5" y1="1571.377" y2="1584.377"/><line style="stroke:#181818;stroke-width:1.0;stroke-dasharray:2.0,2.0;" x1="1922.5" x2="1969.5" y1="1584.377" y2="1584.377"/><polygon fill="#181818" points="1932.5,1580.377,1922.5,1584.377,1932.5,1588.377,1928.5,1584.377" style="stroke:#181818;stroke-width:1.0;"/><text fill="#000000" font-family="sans-serif" font-size="13" font-weight="bold" lengthAdjust="spacing" textLength="14" x="1934.5" y="1566.1143">42</text><text fill="#000000" font-family="sans-serif" font-size="13" lengthAdjust="spacing" textLength="4" x="1952.5" y="1566.1143">&#160;</text><polygon fill="#181818" points="795,1606.668,785,1610.668,795,1614.668,791,1610.668" style="stroke:#181818;stroke-width:1.0;"/><line style="stroke:#181818;stroke-width:1.0;stroke-dasharray:2.0,2.0;" x1="789" x2="1921.5" y1="1610.668" y2="1610.668"/><text fill="#000000" font-family="sans-serif" font-size="13" font-weight="bold" lengthAdjust="spacing" textLength="14" x="801" y="1605.4053">43</text><text fill="#000000" font-family="sans-serif" font-size="13" lengthAdjust="spacing" textLength="56" x="819" y="1605.4053">employee</text><polygon fill="#181818" points="419,1637.959,409,1641.959,419,1645.959,415,1641.959" style="stroke:#181818;stroke-width:1.0;"/><line style="stroke:#181818;stroke-width:1.0;stroke-dasharray:2.0,2.0;" x1="413" x2="778" y1="1641.959" y2="1641.959"/><text fill="#000000" font-family="sans-serif" font-size="13" font-weight="bold" lengthAdjust="spacing" textLength="14" x="425" y="1636.6963">44</text><text fill="#000000" font-family="sans-serif" font-size="13" lengthAdjust="spacing" textLength="56" x="443" y="1636.6963">employee</text><polygon fill="#181818" points="34,1669.25,24,1673.25,34,1677.25,30,1673.25" style="stroke:#181818;stroke-width:1.0;"/><line style="stroke:#181818;stroke-width:1.0;stroke-dasharray:2.0,2.0;" x1="28" x2="402" y1="1673.25" y2="1673.25"/><text fill="#000000" font-family="sans-serif" font-size="13" font-weight="bold" lengthAdjust="spacing" textLength="14" x="40" y="1667.9873">45</text><text fill="#000000" font-family="sans-serif" font-size="13" lengthAdjust="spacing" textLength="158" x="58" y="1667.9873">displays operation success</text><!--SRC=[rLVBRjiw4DthAmXlwXHrkZSk0hYfyoWID90JTDCDBKqiDXBfIr9DtQ_la7fH8gMemDrShonfvl1mU8vcf5uOFr992r88Bf9CYWA8bYL4gdrofCaBFS1Edt8W4X9D-I5t0rH6K_7A-84yqrn15D5I2ruMUv1Hz2vZAP1d8VHU_8feeeKaYvluVa6e8flFzn5YQ9Qm8-MQBDQN4gY6RN7CnGdWwTQ6FTrEHbqAhgN8Sv0s-l8nlXl4nt0KYk7I39IDQM-STipi1ldsKwIJyPtx00ztcyT-nW-nxr3Nt_aNzzhcVFdwQTVFsPGwkw89JG7NC1V0yI7LJF11xkRfyIRUFlJJImLo1qfXEEO_TLTLrNRRk1ylv85ozdk0Zro_1XzObF2ZSLmaugPK6F5rFm7gayFWvX1juFR-8J8QOJ_nUAqw8bB_y8AiBb0AP8sHBufeGH8h0q89XrVIOBOPBGxAfxs9-Ik4CMXh5FE_9IYjI4er9KjE2_X0zapg36_WNveMpDQJLDVdv-Td5Ya53zpbfqz7K0qwf7yDxu4RrXTMs8X-0Bt9SvINMWx2hVBjBHkAAG6TLmYtNA6F4nX2X8pH0lwpMeqWkdOPLcWI4ZaQArMaUfOPChEEwr6f4tl66oxUorfT60jEbj1wj8atYzGPTVWTKtguX4rfZicarESqaL8TLAiRasI5epBnQlQZ2EMfaRbHkO8SNxf4S9YZlIeQ0GnEDCy7PbbFhuP11LRVcRLwkIzORQZfnLiv9xrt-PikGPEG3xYrCz_ddVnTUNMkCI_8A-nmzKiIZzuBdkkNMPwPuPjuw9iPtl58TmOQQo7kLdrhX4mrWHIWQQ4YdrdTjIfobwMK2EcqgI2jfjEvU0sEaHbsDSHZwauS3f1-OpgBonoME5A4q6mJz72iuIgWnIDEEn-lpE2oyDVh5gprSvikeQ0iFvl2B8E1hdLwhDhQT-Lw4w6jqhZStJRywTGOR6iW6-3_gG6cB12ULqAi9_N_9eol_Y6dC0HPUqSJrbKBFpA14UUN2t746LiI99KHTnphXOqmCbpZQpDNSSlbXYgVJfyI3dGpW4qzA-JEPBqyfuX3IC3sOxOLiCbOOUkDQ_gRLIfnbT8xcVZwF-WxNaLwJsnPSE-u74wrxzyt2owREVNC2-S2WIGxPDZid-qiJBnVmvSa0WqfI_izzPFcp92i-kwvbuQrDDYHpt2q_8Cjs8hHD6tBDRwBOLP3Bf0Qp1reOXo_Mk2ldx-5t-JMBzBsioAQ2rAfp4v4Q_-h93G9ki-wmMnDKgQEEJqf8euWhTnnm4eIR9wXMSpj3lZbz0S0]--></g></svg>