<?xml version="1.0" encoding="us-ascii" standalone="no"?><svg xmlns="http://www.w3.org/2000/svg" xmlns:xlink="http://www.w3.org/1999/xlink" contentStyleType="text/css" height="469px" preserveAspectRatio="none" style="width:395px;height:469px;background:#FFFFFF;" version="1.1" viewBox="0 0 395 469" width="395px" zoomAndPan="magnify"><defs/><g><text fill="#000000" font-family="sans-serif" font-size="14" font-weight="bold" lengthAdjust="spacing" textLength="299" x="47.25" y="30.1074">US027 - List Green Spaces Managed by Me</text><text fill="#000000" font-family="sans-serif" font-size="14" font-weight="bold" lengthAdjust="spacing" textLength="228" x="82.75" y="48.7285">System Sequence Diagram (SSD)</text><rect fill="#FFFFFF" height="188.7461" style="stroke:#181818;stroke-width:1.0;" width="10" x="48.5" y="170.4844"/><rect fill="#FFFFFF" height="31.291" style="stroke:#181818;stroke-width:1.0;" width="10" x="352.5" y="193.7754"/><rect fill="#FFFFFF" height="31.291" style="stroke:#181818;stroke-width:1.0;" width="10" x="352.5" y="256.3574"/><rect fill="#FFFFFF" height="31.291" style="stroke:#181818;stroke-width:1.0;" width="10" x="352.5" y="318.9395"/><line style="stroke:#181818;stroke-width:0.5;stroke-dasharray:5.0,5.0;" x1="53" x2="53" y1="160.4844" y2="368.2305"/><line style="stroke:#181818;stroke-width:0.5;stroke-dasharray:5.0,5.0;" x1="357.5" x2="357.5" y1="160.4844" y2="368.2305"/><text fill="#000000" font-family="sans-serif" font-size="14" lengthAdjust="spacing" textLength="91" x="5" y="138.3496">Green Spaces</text><text fill="#000000" font-family="sans-serif" font-size="14" lengthAdjust="spacing" textLength="56" x="24.5" y="156.9707">Manager</text><ellipse cx="53.5" cy="71.7422" fill="#E3E3E3" rx="8" ry="8" style="stroke:#181818;stroke-width:0.5;"/><path d="M53.5,79.7422 L53.5,106.7422 M40.5,87.7422 L66.5,87.7422 M53.5,106.7422 L40.5,121.7422 M53.5,106.7422 L66.5,121.7422 " fill="none" style="stroke:#181818;stroke-width:0.5;"/><text fill="#000000" font-family="sans-serif" font-size="14" lengthAdjust="spacing" textLength="91" x="5" y="382.3379">Green Spaces</text><text fill="#000000" font-family="sans-serif" font-size="14" lengthAdjust="spacing" textLength="56" x="24.5" y="400.959">Manager</text><ellipse cx="53.5" cy="412.9727" fill="#E3E3E3" rx="8" ry="8" style="stroke:#181818;stroke-width:0.5;"/><path d="M53.5,420.9727 L53.5,447.9727 M40.5,428.9727 L66.5,428.9727 M53.5,447.9727 L40.5,462.9727 M53.5,447.9727 L66.5,462.9727 " fill="none" style="stroke:#181818;stroke-width:0.5;"/><rect fill="#E3E3E3" height="32.6211" rx="2.5" ry="2.5" style="stroke:#181818;stroke-width:0.5;" width="64" x="325.5" y="126.8633"/><text fill="#000000" font-family="sans-serif" font-size="14" lengthAdjust="spacing" textLength="50" x="332.5" y="148.9707">:System</text><rect fill="#E3E3E3" height="32.6211" rx="2.5" ry="2.5" style="stroke:#181818;stroke-width:0.5;" width="64" x="325.5" y="367.2305"/><text fill="#000000" font-family="sans-serif" font-size="14" lengthAdjust="spacing" textLength="50" x="332.5" y="389.3379">:System</text><rect fill="#FFFFFF" height="188.7461" style="stroke:#181818;stroke-width:1.0;" width="10" x="48.5" y="170.4844"/><rect fill="#FFFFFF" height="31.291" style="stroke:#181818;stroke-width:1.0;" width="10" x="352.5" y="193.7754"/><rect fill="#FFFFFF" height="31.291" style="stroke:#181818;stroke-width:1.0;" width="10" x="352.5" y="256.3574"/><rect fill="#FFFFFF" height="31.291" style="stroke:#181818;stroke-width:1.0;" width="10" x="352.5" y="318.9395"/><polygon fill="#181818" points="340.5,189.7754,350.5,193.7754,340.5,197.7754,344.5,193.7754" style="stroke:#181818;stroke-width:1.0;"/><line style="stroke:#181818;stroke-width:1.0;" x1="58.5" x2="346.5" y1="193.7754" y2="193.7754"/><text fill="#000000" font-family="sans-serif" font-size="13" font-weight="bold" lengthAdjust="spacing" textLength="7" x="65.5" y="188.5127">1</text><text fill="#000000" font-family="sans-serif" font-size="13" lengthAdjust="spacing" textLength="151" x="76.5" y="188.5127">asks to list Green Spaces</text><polygon fill="#181818" points="69.5,221.0664,59.5,225.0664,69.5,229.0664,65.5,225.0664" style="stroke:#181818;stroke-width:1.0;"/><line style="stroke:#181818;stroke-width:1.0;stroke-dasharray:2.0,2.0;" x1="63.5" x2="356.5" y1="225.0664" y2="225.0664"/><text fill="#000000" font-family="sans-serif" font-size="13" font-weight="bold" lengthAdjust="spacing" textLength="7" x="75.5" y="219.8037">2</text><text fill="#000000" font-family="sans-serif" font-size="13" lengthAdjust="spacing" textLength="259" x="86.5" y="219.8037">list sorting algorithms and requests selection</text><polygon fill="#181818" points="340.5,252.3574,350.5,256.3574,340.5,260.3574,344.5,256.3574" style="stroke:#181818;stroke-width:1.0;"/><line style="stroke:#181818;stroke-width:1.0;" x1="58.5" x2="346.5" y1="256.3574" y2="256.3574"/><text fill="#000000" font-family="sans-serif" font-size="13" font-weight="bold" lengthAdjust="spacing" textLength="7" x="65.5" y="251.0947">3</text><text fill="#000000" font-family="sans-serif" font-size="13" lengthAdjust="spacing" textLength="203" x="76.5" y="251.0947">selects requested sorting algorithm</text><polygon fill="#181818" points="69.5,283.6484,59.5,287.6484,69.5,291.6484,65.5,287.6484" style="stroke:#181818;stroke-width:1.0;"/><line style="stroke:#181818;stroke-width:1.0;stroke-dasharray:2.0,2.0;" x1="63.5" x2="356.5" y1="287.6484" y2="287.6484"/><text fill="#000000" font-family="sans-serif" font-size="13" font-weight="bold" lengthAdjust="spacing" textLength="7" x="75.5" y="282.3857">4</text><text fill="#000000" font-family="sans-serif" font-size="13" lengthAdjust="spacing" textLength="232" x="86.5" y="282.3857">show selection and request confirmation</text><polygon fill="#181818" points="340.5,314.9395,350.5,318.9395,340.5,322.9395,344.5,318.9395" style="stroke:#181818;stroke-width:1.0;"/><line style="stroke:#181818;stroke-width:1.0;" x1="58.5" x2="346.5" y1="318.9395" y2="318.9395"/><text fill="#000000" font-family="sans-serif" font-size="13" font-weight="bold" lengthAdjust="spacing" textLength="7" x="65.5" y="313.6768">5</text><text fill="#000000" font-family="sans-serif" font-size="13" lengthAdjust="spacing" textLength="49" x="76.5" y="313.6768">confirms</text><polygon fill="#181818" points="69.5,346.2305,59.5,350.2305,69.5,354.2305,65.5,350.2305" style="stroke:#181818;stroke-width:1.0;"/><line style="stroke:#181818;stroke-width:1.0;stroke-dasharray:2.0,2.0;" x1="63.5" x2="356.5" y1="350.2305" y2="350.2305"/><text fill="#000000" font-family="sans-serif" font-size="13" font-weight="bold" lengthAdjust="spacing" textLength="7" x="75.5" y="344.9678">6</text><text fill="#000000" font-family="sans-serif" font-size="13" lengthAdjust="spacing" textLength="156" x="86.5" y="344.9678">list green spaces managed</text><!--SRC=[dP8_JyCm4CLtVufJ9nWg8HQa3an5B7IosBfSdMjYrN-2xqALRy-Hf6b5Yv3mT9Rl_UxvsNpmgSM24M9EsJKbHm8f7HcUJrfq1wp9IXy82Zd1L8VB1cwmoaUVQjXZO396l6ZhktruV88bl7aMU2r42QooY663IO4Lx7hOq3RPdeKYMFheA3c2jSVwctjdxVhU6Emafoxkg6Zj91TONDAsQUAL1I33Isn3xecCUXFlV8j9OB4QPmmTOpcm_2SAdIK6T9rsi7oUMc6biWE3P0W_xp98Pj893TEQz4j5pTZL2E6izZGo37KkNfh8WAdIV3K45WQce57xd0POHJTdtFGwAlc4qfolPlt7DJVvU7PrQHPSJdjV8lxBxYJcUVolllv8j1wUXSSl5iSlDckl7Nq1]--></g></svg>