<?xml version="1.0" encoding="us-ascii" standalone="no"?><svg xmlns="http://www.w3.org/2000/svg" xmlns:xlink="http://www.w3.org/1999/xlink" contentStyleType="text/css" height="469px" preserveAspectRatio="none" style="width:727px;height:469px;background:#FFFFFF;" version="1.1" viewBox="0 0 727 469" width="727px" zoomAndPan="magnify"><defs/><g><text fill="#000000" font-family="sans-serif" font-size="14" font-weight="bold" lengthAdjust="spacing" textLength="699" x="10" y="30.1074">US001 - As a Human Resources Manager (HRM), I want to register skills that a collaborator may have</text><text fill="#000000" font-family="sans-serif" font-size="14" font-weight="bold" lengthAdjust="spacing" textLength="228" x="245.5" y="48.7285">System Sequence Diagram (SSD)</text><rect fill="#FFFFFF" height="188.7461" style="stroke:#181818;stroke-width:1.0;" width="10" x="244" y="170.4844"/><rect fill="#FFFFFF" height="31.291" style="stroke:#181818;stroke-width:1.0;" width="10" x="525" y="193.7754"/><rect fill="#FFFFFF" height="31.291" style="stroke:#181818;stroke-width:1.0;" width="10" x="525" y="256.3574"/><rect fill="#FFFFFF" height="31.291" style="stroke:#181818;stroke-width:1.0;" width="10" x="525" y="318.9395"/><line style="stroke:#181818;stroke-width:0.5;stroke-dasharray:5.0,5.0;" x1="249" x2="249" y1="160.4844" y2="368.2305"/><line style="stroke:#181818;stroke-width:0.5;stroke-dasharray:5.0,5.0;" x1="530" x2="530" y1="160.4844" y2="368.2305"/><text fill="#000000" font-family="sans-serif" font-size="14" lengthAdjust="spacing" textLength="176" x="158" y="138.3496">Human Resources Manager</text><text fill="#000000" font-family="sans-serif" font-size="14" lengthAdjust="spacing" textLength="40" x="226" y="156.9707">(HRM)</text><ellipse cx="249" cy="71.7422" fill="#E3E3E3" rx="8" ry="8" style="stroke:#181818;stroke-width:0.5;"/><path d="M249,79.7422 L249,106.7422 M236,87.7422 L262,87.7422 M249,106.7422 L236,121.7422 M249,106.7422 L262,121.7422 " fill="none" style="stroke:#181818;stroke-width:0.5;"/><text fill="#000000" font-family="sans-serif" font-size="14" lengthAdjust="spacing" textLength="176" x="158" y="382.3379">Human Resources Manager</text><text fill="#000000" font-family="sans-serif" font-size="14" lengthAdjust="spacing" textLength="40" x="226" y="400.959">(HRM)</text><ellipse cx="249" cy="412.9727" fill="#E3E3E3" rx="8" ry="8" style="stroke:#181818;stroke-width:0.5;"/><path d="M249,420.9727 L249,447.9727 M236,428.9727 L262,428.9727 M249,447.9727 L236,462.9727 M249,447.9727 L262,462.9727 " fill="none" style="stroke:#181818;stroke-width:0.5;"/><rect fill="#E3E3E3" height="32.6211" rx="2.5" ry="2.5" style="stroke:#181818;stroke-width:0.5;" width="64" x="498" y="126.8633"/><text fill="#000000" font-family="sans-serif" font-size="14" lengthAdjust="spacing" textLength="50" x="505" y="148.9707">:System</text><rect fill="#E3E3E3" height="32.6211" rx="2.5" ry="2.5" style="stroke:#181818;stroke-width:0.5;" width="64" x="498" y="367.2305"/><text fill="#000000" font-family="sans-serif" font-size="14" lengthAdjust="spacing" textLength="50" x="505" y="389.3379">:System</text><rect fill="#FFFFFF" height="188.7461" style="stroke:#181818;stroke-width:1.0;" width="10" x="244" y="170.4844"/><rect fill="#FFFFFF" height="31.291" style="stroke:#181818;stroke-width:1.0;" width="10" x="525" y="193.7754"/><rect fill="#FFFFFF" height="31.291" style="stroke:#181818;stroke-width:1.0;" width="10" x="525" y="256.3574"/><rect fill="#FFFFFF" height="31.291" style="stroke:#181818;stroke-width:1.0;" width="10" x="525" y="318.9395"/><polygon fill="#181818" points="513,189.7754,523,193.7754,513,197.7754,517,193.7754" style="stroke:#181818;stroke-width:1.0;"/><line style="stroke:#181818;stroke-width:1.0;" x1="254" x2="519" y1="193.7754" y2="193.7754"/><text fill="#000000" font-family="sans-serif" font-size="13" font-weight="bold" lengthAdjust="spacing" textLength="7" x="261" y="188.5127">1</text><text fill="#000000" font-family="sans-serif" font-size="13" lengthAdjust="spacing" textLength="148" x="272" y="188.5127">asks to create a new skill</text><polygon fill="#181818" points="265,221.0664,255,225.0664,265,229.0664,261,225.0664" style="stroke:#181818;stroke-width:1.0;"/><line style="stroke:#181818;stroke-width:1.0;stroke-dasharray:2.0,2.0;" x1="259" x2="529" y1="225.0664" y2="225.0664"/><text fill="#000000" font-family="sans-serif" font-size="13" font-weight="bold" lengthAdjust="spacing" textLength="7" x="271" y="219.8037">2</text><text fill="#000000" font-family="sans-serif" font-size="13" lengthAdjust="spacing" textLength="174" x="282" y="219.8037">requests data (Name the skill)</text><polygon fill="#181818" points="513,252.3574,523,256.3574,513,260.3574,517,256.3574" style="stroke:#181818;stroke-width:1.0;"/><line style="stroke:#181818;stroke-width:1.0;" x1="254" x2="519" y1="256.3574" y2="256.3574"/><text fill="#000000" font-family="sans-serif" font-size="13" font-weight="bold" lengthAdjust="spacing" textLength="7" x="261" y="251.0947">3</text><text fill="#000000" font-family="sans-serif" font-size="13" lengthAdjust="spacing" textLength="195" x="272" y="251.0947">types requested data (Skill name)</text><polygon fill="#181818" points="265,283.6484,255,287.6484,265,291.6484,261,287.6484" style="stroke:#181818;stroke-width:1.0;"/><line style="stroke:#181818;stroke-width:1.0;stroke-dasharray:2.0,2.0;" x1="259" x2="529" y1="287.6484" y2="287.6484"/><text fill="#000000" font-family="sans-serif" font-size="13" font-weight="bold" lengthAdjust="spacing" textLength="7" x="271" y="282.3857">4</text><text fill="#000000" font-family="sans-serif" font-size="13" lengthAdjust="spacing" textLength="236" x="282" y="282.3857">shows all data and requests confirmation</text><polygon fill="#181818" points="513,314.9395,523,318.9395,513,322.9395,517,318.9395" style="stroke:#181818;stroke-width:1.0;"/><line style="stroke:#181818;stroke-width:1.0;" x1="254" x2="519" y1="318.9395" y2="318.9395"/><text fill="#000000" font-family="sans-serif" font-size="13" font-weight="bold" lengthAdjust="spacing" textLength="7" x="261" y="313.6768">5</text><text fill="#000000" font-family="sans-serif" font-size="13" lengthAdjust="spacing" textLength="78" x="272" y="313.6768">confirms data</text><polygon fill="#181818" points="265,346.2305,255,350.2305,265,354.2305,261,350.2305" style="stroke:#181818;stroke-width:1.0;"/><line style="stroke:#181818;stroke-width:1.0;stroke-dasharray:2.0,2.0;" x1="259" x2="529" y1="350.2305" y2="350.2305"/><text fill="#000000" font-family="sans-serif" font-size="13" font-weight="bold" lengthAdjust="spacing" textLength="7" x="271" y="344.9678">6</text><text fill="#000000" font-family="sans-serif" font-size="13" lengthAdjust="spacing" textLength="158" x="282" y="344.9678">displays operation success</text><!--SRC=[bP8xRy9048Hx_ueL5KX18Yr5f4X4IWfIOAMZMSuR-yGzdDiroFy-wmSc1IvorLatyztidFbiGuq9FVWOegbIz0II6ifuEgdHdB6aN5f7aCW8XjBz5N25HRpQKC8tEgOi4oig_SetcsTOmoi3mdlZCS21E3R94CCUWp8JBDyF-zKJVC0LWu14lQ2qB7gYVESOf49HludEuIacb9Z0OmiLNkWOybQr7dBwQIWOWft5iekqpFFTAikmaHWQVwAaUzDP5pD1Zg5FiW1aUFErYorHfkE9DRRkeYssmrszOjZsJ7j1eRib0rstBrY_Z5BOgktCtO0cKUT027GTXkmz4-h6Xd6DWBMo9kvMQzA9MHWA58Jb9tRlLj40NFNcWXuo7uQJjjOkHYWL8pNlO12KlPhF-3WVL_6gxwxs7eMXk4SsCNpRv55i3DEOCsbd4u-GeO19-iyM2ykrmvOXrfJwFC2DqT-2Pnhy1G00]--></g></svg>