<?xml version="1.0" encoding="UTF-8" standalone="no"?><svg xmlns="http://www.w3.org/2000/svg" xmlns:xlink="http://www.w3.org/1999/xlink" contentStyleType="text/css" height="742px" preserveAspectRatio="none" style="width:587px;height:742px;background:#FFFFFF;" version="1.1" viewBox="0 0 587 742" width="587px" zoomAndPan="magnify"><defs/><g><!--cluster Sprint A--><g id="cluster_Sprint A"><rect fill="none" height="729" rx="2.5" ry="2.5" style="stroke:#181818;stroke-width:1.0;" width="362" x="219" y="7"/><text fill="#000000" font-family="sans-serif" font-size="14" font-weight="bold" lengthAdjust="spacing" textLength="55" x="372.5" y="23.5332">Sprint A</text></g><g id="elem_UC01"><ellipse cx="400.1756" cy="63.1351" fill="#F1F1F1" rx="88.6756" ry="20.1351" style="stroke:#181818;stroke-width:0.5;"/><text fill="#000000" font-family="sans-serif" font-size="14" lengthAdjust="spacing" textLength="135" x="332.6756" y="66.8636">UC01 - Register skills</text></g><g id="elem_UC02"><ellipse cx="399.9661" cy="137.7932" fill="#F1F1F1" rx="86.9661" ry="19.7932" style="stroke:#181818;stroke-width:0.5;"/><text fill="#000000" font-family="sans-serif" font-size="14" lengthAdjust="spacing" textLength="131" x="334.4661" y="141.5217">UC02 - Register jobs</text></g><g id="elem_UC03"><ellipse cx="400.1774" cy="218.0355" fill="#F1F1F1" rx="113.1774" ry="25.0355" style="stroke:#181818;stroke-width:0.5;"/><text fill="#000000" font-family="sans-serif" font-size="14" lengthAdjust="spacing" textLength="190" x="305.1774" y="221.764">UC03 - Register Collaborators</text></g><g id="elem_UC04"><ellipse cx="400.0829" cy="307.8166" fill="#F1F1F1" rx="134.5829" ry="29.3166" style="stroke:#181818;stroke-width:0.5;"/><text fill="#000000" font-family="sans-serif" font-size="14" lengthAdjust="spacing" textLength="236" x="282.0829" y="311.5451">UC04 - Assign Skills to a Collaborator</text></g><g id="elem_UC05"><ellipse cx="399.8268" cy="406.7654" fill="#F1F1F1" rx="159.3268" ry="34.2654" style="stroke:#181818;stroke-width:0.5;"/><text fill="#000000" font-family="sans-serif" font-size="14" lengthAdjust="spacing" textLength="288" x="255.8268" y="410.4939">UC05 - Generate team proposal automatically</text></g><g id="elem_UC06"><ellipse cx="400.13" cy="498.026" fill="#F1F1F1" rx="95.63" ry="21.526" style="stroke:#181818;stroke-width:0.5;"/><text fill="#000000" font-family="sans-serif" font-size="14" lengthAdjust="spacing" textLength="151" x="324.63" y="501.7545">UC06 - Register Vehicle</text></g><g id="elem_UC07"><ellipse cx="400.141" cy="584.1282" fill="#F1F1F1" rx="133.641" ry="29.1282" style="stroke:#181818;stroke-width:0.5;"/><text fill="#000000" font-family="sans-serif" font-size="14" lengthAdjust="spacing" textLength="234" x="283.141" y="587.8567">UC07 - Register vehicle maintenance</text></g><g id="elem_UC08"><ellipse cx="400.0928" cy="683.9186" fill="#F1F1F1" rx="165.0928" ry="35.4186" style="stroke:#181818;stroke-width:0.5;"/><text fill="#000000" font-family="sans-serif" font-size="14" lengthAdjust="spacing" textLength="300" x="250.0928" y="687.6471">UC08 - List vehicles with pending maintenances</text></g><!--entity HR--><g id="elem_HR"><ellipse cx="90.5" cy="187.5" fill="#F1F1F1" rx="8" ry="8" style="stroke:#181818;stroke-width:0.5;"/><path d="M90.5,195.5 L90.5,222.5 M77.5,203.5 L103.5,203.5 M90.5,222.5 L77.5,237.5 M90.5,222.5 L103.5,237.5 " fill="none" style="stroke:#181818;stroke-width:0.5;"/><text fill="#000000" font-family="sans-serif" font-size="14" lengthAdjust="spacing" textLength="169" x="6" y="253.5332">Human Resource Manager</text></g><!--entity FM--><g id="elem_FM"><ellipse cx="90.5" cy="553.5" fill="#F1F1F1" rx="8" ry="8" style="stroke:#181818;stroke-width:0.5;"/><path d="M90.5,561.5 L90.5,588.5 M77.5,569.5 L103.5,569.5 M90.5,588.5 L77.5,603.5 M90.5,588.5 L103.5,603.5 " fill="none" style="stroke:#181818;stroke-width:0.5;"/><text fill="#000000" font-family="sans-serif" font-size="14" lengthAdjust="spacing" textLength="92" x="44.5" y="619.5332">Fleet Manager</text></g><!--link HR to UC01--><g id="link_HR_UC01"><path d="M120.88,178.75 C142.8,152.35 175.05,119.02 211,100 C241.14,84.05 277.29,74.94 309.8,69.75 " fill="none" id="HR-to-UC01" style="stroke:#181818;stroke-width:1.0;"/><polygon fill="#181818" points="314.99,68.95,305.4881,66.3588,310.0476,69.7071,306.6994,74.2666,314.99,68.95" style="stroke:#181818;stroke-width:1.0;"/></g><!--link HR to UC02--><g id="link_HR_UC02"><path d="M175.21,186.08 C187.13,182.06 199.31,178.23 211,175 C247.36,164.94 288.41,156.53 322.85,150.29 " fill="none" id="HR-to-UC02" style="stroke:#181818;stroke-width:1.0;"/><polygon fill="#181818" points="327.88,149.38,318.3144,147.035,322.9588,150.2644,319.7294,154.9088,327.88,149.38" style="stroke:#181818;stroke-width:1.0;"/></g><!--link HR to UC03--><g id="link_HR_UC03"><path d="M175.12,218 C207.92,218 246.14,218 281.62,218 " fill="none" id="HR-to-UC03" style="stroke:#181818;stroke-width:1.0;"/><polygon fill="#181818" points="286.83,218,277.83,214,281.83,218,277.83,222,286.83,218" style="stroke:#181818;stroke-width:1.0;"/></g><!--link HR to UC04--><g id="link_HR_UC04"><path d="M175.09,248.43 C187.09,252.49 199.32,256.46 211,260 C240.56,268.95 273.07,277.65 302.61,285.12 " fill="none" id="HR-to-UC04" style="stroke:#181818;stroke-width:1.0;"/><polygon fill="#181818" points="307.71,286.41,299.9531,280.3412,302.8601,285.194,298.0074,288.101,307.71,286.41" style="stroke:#181818;stroke-width:1.0;"/></g><!--link HR to UC05--><g id="link_HR_UC05"><path d="M116.25,257.29 C137.7,288.22 171.47,330.12 211,355 C229.79,366.82 251.28,376 272.85,383.11 " fill="none" id="HR-to-UC05" style="stroke:#181818;stroke-width:1.0;"/><polygon fill="#181818" points="277.75,384.69,270.423,378.1086,272.9939,383.1475,267.955,385.7183,277.75,384.69" style="stroke:#181818;stroke-width:1.0;"/></g><!--link FM to UC06--><g id="link_FM_UC06"><path d="M136.54,564.18 C158.66,555 185.9,544.48 211,537 C245.42,526.74 284.16,518.21 317.5,511.77 " fill="none" id="FM-to-UC06" style="stroke:#181818;stroke-width:1.0;"/><polygon fill="#181818" points="322.8,510.76,313.2063,508.5326,317.8901,511.7048,314.7179,516.3885,322.8,510.76" style="stroke:#181818;stroke-width:1.0;"/></g><!--link FM to UC07--><g id="link_FM_UC07"><path d="M136.54,584 C169.55,584 216.25,584 261.12,584 " fill="none" id="FM-to-UC07" style="stroke:#181818;stroke-width:1.0;"/><polygon fill="#181818" points="266.3,584,257.3,580,261.3,584,257.3,588,266.3,584" style="stroke:#181818;stroke-width:1.0;"/></g><!--link FM to UC08--><g id="link_FM_UC08"><path d="M136.56,602.42 C158.8,611.23 186.13,621.66 211,630 C236.91,638.69 265.12,647.26 291.61,654.91 " fill="none" id="FM-to-UC08" style="stroke:#181818;stroke-width:1.0;"/><polygon fill="#181818" points="296.54,656.33,289.0026,649.9907,291.7362,654.9432,286.7837,657.6768,296.54,656.33" style="stroke:#181818;stroke-width:1.0;"/></g><!--SRC=[NP71QiCm38RlVWgHUs1hawQdGIbqFIoNbkskkbhYph63hMoCiNUVqvBCzUt7-ZuXVcjwPs0BJZKjmravagoi4IZPEiZsGuS63kJju2H1ZGORSXcWX_rXWdQQYEzckrgCYz0qcY0xzauPXaq6Fm9Wy2JHX-VNxSCZv65vepoJ0_-XjFPNVnmbw296B_OqWui4NCRWrcgD9-im73eRoyGeWh7nNZK6ZjSRnaBmpftK8b7Be3wJeG0HC647lREzzQW11xOTifAezVVabuc_YezzerP9JHExIjWgPZzlB7GOgYM3HivUbNZhuBq4Qt8yV2bkeITpLgQ9DymDhSMl4Fi3vFdJxI_-yoBAooWNKIx5hfxoAifLbDVY3m00]--></g></svg>