<?xml version="1.0" encoding="us-ascii" standalone="no"?><svg xmlns="http://www.w3.org/2000/svg" xmlns:xlink="http://www.w3.org/1999/xlink" contentStyleType="text/css" height="597px" preserveAspectRatio="none" style="width:517px;height:597px;background:#FFFFFF;" version="1.1" viewBox="0 0 517 597" width="517px" zoomAndPan="magnify"><defs/><g><!--class VFMUI--><g id="elem_VFMUI"><rect codeLine="6" fill="#F1F1F1" height="83.2188" id="VFMUI" rx="2.5" ry="2.5" style="stroke:#181818;stroke-width:0.5;" width="314" x="196.5" y="7"/><ellipse cx="328.75" cy="23" fill="#C2C2C2" rx="11" ry="11" style="stroke:#181818;stroke-width:1.0;"/><path d="M331.5156,18.875 Q331.6719,18.6563 331.8594,18.5469 Q332.0469,18.4375 332.2656,18.4375 Q332.6406,18.4375 332.875,18.7031 Q333.1094,18.9531 333.1094,19.5625 L333.1094,21.0156 Q333.1094,21.625 332.875,21.8906 Q332.6406,22.1563 332.2656,22.1563 Q331.9219,22.1563 331.7188,21.9531 Q331.5156,21.7656 331.4063,21.25 Q331.3594,20.8906 331.1719,20.7031 Q330.8438,20.3281 330.2344,20.1094 Q329.625,19.8906 329,19.8906 Q328.2344,19.8906 327.5938,20.2188 Q326.9688,20.5469 326.4688,21.2969 Q325.9844,22.0469 325.9844,23.0781 L325.9844,24.1719 Q325.9844,25.4063 326.875,26.2344 Q327.7656,27.0469 329.3594,27.0469 Q330.2969,27.0469 330.9531,26.7969 Q331.3438,26.6406 331.7656,26.2031 Q332.0313,25.9375 332.1719,25.8594 Q332.3281,25.7813 332.5313,25.7813 Q332.8594,25.7813 333.1094,26.0469 Q333.375,26.2969 333.375,26.6406 Q333.375,26.9844 333.0313,27.3906 Q332.5313,27.9688 331.7344,28.2969 Q330.6563,28.75 329.3594,28.75 Q327.8438,28.75 326.6406,28.125 Q325.6563,27.625 324.9688,26.5625 Q324.2813,25.4844 324.2813,24.2031 L324.2813,23.0469 Q324.2813,21.7188 324.8906,20.5781 Q325.5156,19.4219 326.6094,18.8125 Q327.7031,18.1875 328.9375,18.1875 Q329.6719,18.1875 330.3125,18.3594 Q330.9688,18.5156 331.5156,18.875 Z " fill="#000000"/><text fill="#000000" font-family="sans-serif" font-size="14" lengthAdjust="spacing" textLength="41" x="349.25" y="28.7285">VFMUI</text><line style="stroke:#181818;stroke-width:0.5;" x1="197.5" x2="509.5" y1="39" y2="39"/><line style="stroke:#181818;stroke-width:0.5;" x1="197.5" x2="509.5" y1="47" y2="47"/><ellipse cx="207.5" cy="61.3047" fill="#A6A6A6" rx="3" ry="3" style="stroke:#545454;stroke-width:1.0;"/><text fill="#000000" font-family="sans-serif" font-size="14" lengthAdjust="spacing" textLength="149" x="216.5" y="65.5332">initiateCheckUpListing()</text><ellipse cx="207.5" cy="78.9141" fill="#A6A6A6" rx="3" ry="3" style="stroke:#545454;stroke-width:1.0;"/><text fill="#000000" font-family="sans-serif" font-size="14" lengthAdjust="spacing" textLength="288" x="216.5" y="83.1426">showVehiclesNeedingCheckUp(List&lt;Vehicle&gt;)</text></g><!--class VFMController--><g id="elem_VFMController"><rect codeLine="11" fill="#F1F1F1" height="65.6094" id="VFMController" rx="2.5" ry="2.5" style="stroke:#181818;stroke-width:0.5;" width="215" x="246" y="150"/><ellipse cx="303.75" cy="166" fill="#C2C2C2" rx="11" ry="11" style="stroke:#181818;stroke-width:1.0;"/><path d="M306.5156,161.875 Q306.6719,161.6563 306.8594,161.5469 Q307.0469,161.4375 307.2656,161.4375 Q307.6406,161.4375 307.875,161.7031 Q308.1094,161.9531 308.1094,162.5625 L308.1094,164.0156 Q308.1094,164.625 307.875,164.8906 Q307.6406,165.1563 307.2656,165.1563 Q306.9219,165.1563 306.7188,164.9531 Q306.5156,164.7656 306.4063,164.25 Q306.3594,163.8906 306.1719,163.7031 Q305.8438,163.3281 305.2344,163.1094 Q304.625,162.8906 304,162.8906 Q303.2344,162.8906 302.5938,163.2188 Q301.9688,163.5469 301.4688,164.2969 Q300.9844,165.0469 300.9844,166.0781 L300.9844,167.1719 Q300.9844,168.4063 301.875,169.2344 Q302.7656,170.0469 304.3594,170.0469 Q305.2969,170.0469 305.9531,169.7969 Q306.3438,169.6406 306.7656,169.2031 Q307.0313,168.9375 307.1719,168.8594 Q307.3281,168.7813 307.5313,168.7813 Q307.8594,168.7813 308.1094,169.0469 Q308.375,169.2969 308.375,169.6406 Q308.375,169.9844 308.0313,170.3906 Q307.5313,170.9688 306.7344,171.2969 Q305.6563,171.75 304.3594,171.75 Q302.8438,171.75 301.6406,171.125 Q300.6563,170.625 299.9688,169.5625 Q299.2813,168.4844 299.2813,167.2031 L299.2813,166.0469 Q299.2813,164.7188 299.8906,163.5781 Q300.5156,162.4219 301.6094,161.8125 Q302.7031,161.1875 303.9375,161.1875 Q304.6719,161.1875 305.3125,161.3594 Q305.9688,161.5156 306.5156,161.875 Z " fill="#000000"/><text fill="#000000" font-family="sans-serif" font-size="14" lengthAdjust="spacing" textLength="91" x="324.25" y="171.7285">VFMController</text><line style="stroke:#181818;stroke-width:0.5;" x1="247" x2="460" y1="182" y2="182"/><line style="stroke:#181818;stroke-width:0.5;" x1="247" x2="460" y1="190" y2="190"/><ellipse cx="257" cy="204.3047" fill="#A6A6A6" rx="3" ry="3" style="stroke:#545454;stroke-width:1.0;"/><text fill="#000000" font-family="sans-serif" font-size="14" lengthAdjust="spacing" textLength="189" x="266" y="208.5332">listVehiclesNeedingCheckUp()</text></g><!--class VehicleService--><g id="elem_VehicleService"><rect codeLine="15" fill="#F1F1F1" height="65.6094" id="VehicleService" rx="2.5" ry="2.5" style="stroke:#181818;stroke-width:0.5;" width="311" x="198" y="276"/><ellipse cx="302.75" cy="292" fill="#C2C2C2" rx="11" ry="11" style="stroke:#181818;stroke-width:1.0;"/><path d="M305.5156,287.875 Q305.6719,287.6563 305.8594,287.5469 Q306.0469,287.4375 306.2656,287.4375 Q306.6406,287.4375 306.875,287.7031 Q307.1094,287.9531 307.1094,288.5625 L307.1094,290.0156 Q307.1094,290.625 306.875,290.8906 Q306.6406,291.1563 306.2656,291.1563 Q305.9219,291.1563 305.7188,290.9531 Q305.5156,290.7656 305.4063,290.25 Q305.3594,289.8906 305.1719,289.7031 Q304.8438,289.3281 304.2344,289.1094 Q303.625,288.8906 303,288.8906 Q302.2344,288.8906 301.5938,289.2188 Q300.9688,289.5469 300.4688,290.2969 Q299.9844,291.0469 299.9844,292.0781 L299.9844,293.1719 Q299.9844,294.4063 300.875,295.2344 Q301.7656,296.0469 303.3594,296.0469 Q304.2969,296.0469 304.9531,295.7969 Q305.3438,295.6406 305.7656,295.2031 Q306.0313,294.9375 306.1719,294.8594 Q306.3281,294.7813 306.5313,294.7813 Q306.8594,294.7813 307.1094,295.0469 Q307.375,295.2969 307.375,295.6406 Q307.375,295.9844 307.0313,296.3906 Q306.5313,296.9688 305.7344,297.2969 Q304.6563,297.75 303.3594,297.75 Q301.8438,297.75 300.6406,297.125 Q299.6563,296.625 298.9688,295.5625 Q298.2813,294.4844 298.2813,293.2031 L298.2813,292.0469 Q298.2813,290.7188 298.8906,289.5781 Q299.5156,288.4219 300.6094,287.8125 Q301.7031,287.1875 302.9375,287.1875 Q303.6719,287.1875 304.3125,287.3594 Q304.9688,287.5156 305.5156,287.875 Z " fill="#000000"/><text fill="#000000" font-family="sans-serif" font-size="14" lengthAdjust="spacing" textLength="93" x="323.25" y="297.7285">VehicleService</text><line style="stroke:#181818;stroke-width:0.5;" x1="199" x2="508" y1="308" y2="308"/><line style="stroke:#181818;stroke-width:0.5;" x1="199" x2="508" y1="316" y2="316"/><ellipse cx="209" cy="330.3047" fill="#A6A6A6" rx="3" ry="3" style="stroke:#545454;stroke-width:1.0;"/><text fill="#000000" font-family="sans-serif" font-size="14" lengthAdjust="spacing" textLength="285" x="218" y="334.5332">listVehiclesNeedingCheckUp() : List&lt;Vehicle&gt;</text></g><!--class VehicleRepository--><g id="elem_VehicleRepository"><rect codeLine="19" fill="#F1F1F1" height="65.6094" id="VehicleRepository" rx="2.5" ry="2.5" style="stroke:#181818;stroke-width:0.5;" width="205" x="7" y="463.5"/><ellipse cx="48.55" cy="479.5" fill="#C2C2C2" rx="11" ry="11" style="stroke:#181818;stroke-width:1.0;"/><path d="M51.3156,475.375 Q51.4719,475.1563 51.6594,475.0469 Q51.8469,474.9375 52.0656,474.9375 Q52.4406,474.9375 52.675,475.2031 Q52.9094,475.4531 52.9094,476.0625 L52.9094,477.5156 Q52.9094,478.125 52.675,478.3906 Q52.4406,478.6563 52.0656,478.6563 Q51.7219,478.6563 51.5188,478.4531 Q51.3156,478.2656 51.2063,477.75 Q51.1594,477.3906 50.9719,477.2031 Q50.6438,476.8281 50.0344,476.6094 Q49.425,476.3906 48.8,476.3906 Q48.0344,476.3906 47.3938,476.7188 Q46.7688,477.0469 46.2688,477.7969 Q45.7844,478.5469 45.7844,479.5781 L45.7844,480.6719 Q45.7844,481.9063 46.675,482.7344 Q47.5656,483.5469 49.1594,483.5469 Q50.0969,483.5469 50.7531,483.2969 Q51.1438,483.1406 51.5656,482.7031 Q51.8313,482.4375 51.9719,482.3594 Q52.1281,482.2813 52.3313,482.2813 Q52.6594,482.2813 52.9094,482.5469 Q53.175,482.7969 53.175,483.1406 Q53.175,483.4844 52.8313,483.8906 Q52.3313,484.4688 51.5344,484.7969 Q50.4563,485.25 49.1594,485.25 Q47.6438,485.25 46.4406,484.625 Q45.4563,484.125 44.7688,483.0625 Q44.0813,481.9844 44.0813,480.7031 L44.0813,479.5469 Q44.0813,478.2188 44.6906,477.0781 Q45.3156,475.9219 46.4094,475.3125 Q47.5031,474.6875 48.7375,474.6875 Q49.4719,474.6875 50.1125,474.8594 Q50.7688,475.0156 51.3156,475.375 Z " fill="#000000"/><text fill="#000000" font-family="sans-serif" font-size="14" lengthAdjust="spacing" textLength="114" x="68.45" y="485.2285">VehicleRepository</text><line style="stroke:#181818;stroke-width:0.5;" x1="8" x2="211" y1="495.5" y2="495.5"/><line style="stroke:#181818;stroke-width:0.5;" x1="8" x2="211" y1="503.5" y2="503.5"/><ellipse cx="18" cy="517.8047" fill="#A6A6A6" rx="3" ry="3" style="stroke:#545454;stroke-width:1.0;"/><text fill="#000000" font-family="sans-serif" font-size="14" lengthAdjust="spacing" textLength="179" x="27" y="522.0332">getVehicles() : List&lt;Vehicle&gt;</text></g><!--class Vehicle--><g id="elem_Vehicle"><rect codeLine="23" fill="#F1F1F1" height="188.875" id="Vehicle" rx="2.5" ry="2.5" style="stroke:#181818;stroke-width:0.5;" width="213" x="247" y="402"/><ellipse cx="326.25" cy="418" fill="#C2C2C2" rx="11" ry="11" style="stroke:#181818;stroke-width:1.0;"/><path d="M329.0156,413.875 Q329.1719,413.6563 329.3594,413.5469 Q329.5469,413.4375 329.7656,413.4375 Q330.1406,413.4375 330.375,413.7031 Q330.6094,413.9531 330.6094,414.5625 L330.6094,416.0156 Q330.6094,416.625 330.375,416.8906 Q330.1406,417.1563 329.7656,417.1563 Q329.4219,417.1563 329.2188,416.9531 Q329.0156,416.7656 328.9063,416.25 Q328.8594,415.8906 328.6719,415.7031 Q328.3438,415.3281 327.7344,415.1094 Q327.125,414.8906 326.5,414.8906 Q325.7344,414.8906 325.0938,415.2188 Q324.4688,415.5469 323.9688,416.2969 Q323.4844,417.0469 323.4844,418.0781 L323.4844,419.1719 Q323.4844,420.4063 324.375,421.2344 Q325.2656,422.0469 326.8594,422.0469 Q327.7969,422.0469 328.4531,421.7969 Q328.8438,421.6406 329.2656,421.2031 Q329.5313,420.9375 329.6719,420.8594 Q329.8281,420.7813 330.0313,420.7813 Q330.3594,420.7813 330.6094,421.0469 Q330.875,421.2969 330.875,421.6406 Q330.875,421.9844 330.5313,422.3906 Q330.0313,422.9688 329.2344,423.2969 Q328.1563,423.75 326.8594,423.75 Q325.3438,423.75 324.1406,423.125 Q323.1563,422.625 322.4688,421.5625 Q321.7813,420.4844 321.7813,419.2031 L321.7813,418.0469 Q321.7813,416.7188 322.3906,415.5781 Q323.0156,414.4219 324.1094,413.8125 Q325.2031,413.1875 326.4375,413.1875 Q327.1719,413.1875 327.8125,413.3594 Q328.4688,413.5156 329.0156,413.875 Z " fill="#000000"/><text fill="#000000" font-family="sans-serif" font-size="14" lengthAdjust="spacing" textLength="46" x="346.75" y="423.7285">Vehicle</text><line style="stroke:#181818;stroke-width:0.5;" x1="248" x2="459" y1="434" y2="434"/><rect fill="none" height="6" style="stroke:#595959;stroke-width:1.0;" width="6" x="255" y="445.3047"/><text fill="#000000" font-family="sans-serif" font-size="14" lengthAdjust="spacing" textLength="129" x="267" y="452.5332">plateNumber : String</text><rect fill="none" height="6" style="stroke:#595959;stroke-width:1.0;" width="6" x="255" y="462.9141"/><text fill="#000000" font-family="sans-serif" font-size="14" lengthAdjust="spacing" textLength="86" x="267" y="470.1426">brand : String</text><rect fill="none" height="6" style="stroke:#595959;stroke-width:1.0;" width="6" x="255" y="480.5234"/><text fill="#000000" font-family="sans-serif" font-size="14" lengthAdjust="spacing" textLength="87" x="267" y="487.752">model : String</text><rect fill="none" height="6" style="stroke:#595959;stroke-width:1.0;" width="6" x="255" y="498.1328"/><text fill="#000000" font-family="sans-serif" font-size="14" lengthAdjust="spacing" textLength="120" x="267" y="505.3613">currentKm : double</text><rect fill="none" height="6" style="stroke:#595959;stroke-width:1.0;" width="6" x="255" y="515.7422"/><text fill="#000000" font-family="sans-serif" font-size="14" lengthAdjust="spacing" textLength="118" x="267" y="522.9707">frequency : double</text><rect fill="none" height="6" style="stroke:#595959;stroke-width:1.0;" width="6" x="255" y="533.3516"/><text fill="#000000" font-family="sans-serif" font-size="14" lengthAdjust="spacing" textLength="153" x="267" y="540.5801">lastCheckupKm : double</text><rect fill="none" height="6" style="stroke:#595959;stroke-width:1.0;" width="6" x="255" y="550.9609"/><text fill="#000000" font-family="sans-serif" font-size="14" lengthAdjust="spacing" textLength="157" x="267" y="558.1895">nextCheckupKm : double</text><line style="stroke:#181818;stroke-width:0.5;" x1="248" x2="459" y1="565.2656" y2="565.2656"/><ellipse cx="258" cy="579.5703" fill="#A6A6A6" rx="3" ry="3" style="stroke:#545454;stroke-width:1.0;"/><text fill="#000000" font-family="sans-serif" font-size="14" lengthAdjust="spacing" textLength="187" x="267" y="583.7988">calculateNextCheckup() : void</text></g><!--link VFMUI to VFMController--><g id="link_VFMUI_VFMController"><path codeLine="35" d="M353.5,90.34 C353.5,109.5 353.5,126 353.5,143.92 " fill="none" id="VFMUI-to-VFMController" style="stroke:#181818;stroke-width:1.0;"/><polygon fill="#181818" points="353.5,149.92,357.5,140.92,353.5,144.92,349.5,140.92,353.5,149.92" style="stroke:#181818;stroke-width:1.0;"/></g><!--link VFMController to VehicleService--><g id="link_VFMController_VehicleService"><path codeLine="36" d="M353.5,216.26 C353.5,234.63 353.5,251.56 353.5,269.91 " fill="none" id="VFMController-to-VehicleService" style="stroke:#181818;stroke-width:1.0;"/><polygon fill="#181818" points="353.5,275.91,357.5,266.91,353.5,270.91,349.5,266.91,353.5,275.91" style="stroke:#181818;stroke-width:1.0;"/></g><!--link VehicleService to VehicleRepository--><g id="link_VehicleService_VehicleRepository"><path codeLine="37" d="M309.7,342.11 C285.88,359.67 255.96,381.88 229.5,402 C202.91,422.22 178.0108,441.5868 154.8608,459.7468 " fill="none" id="VehicleService-to-VehicleRepository" style="stroke:#181818;stroke-width:1.0;"/><polygon fill="#181818" points="150.14,463.45,159.69,461.0424,154.074,460.364,154.7524,454.7479,150.14,463.45" style="stroke:#181818;stroke-width:1.0;"/></g><!--link VehicleService to Vehicle--><g id="link_VehicleService_Vehicle"><path codeLine="38" d="M343.55,342.31 C341.71,359.02 340.7884,374.37 340.7584,395.79 " fill="none" id="VehicleService-to-Vehicle" style="stroke:#181818;stroke-width:1.0;"/><polygon fill="#181818" points="340.75,401.79,344.7626,392.7956,340.757,396.79,336.7626,392.7844,340.75,401.79" style="stroke:#181818;stroke-width:1.0;"/></g><!--link Vehicle to VehicleService--><g id="link_Vehicle_VehicleService"><path codeLine="39" d="M367,401.79 C366.97,380.37 366.6755,364.9796 364.7255,348.2696 " fill="none" id="Vehicle-to-VehicleService" style="stroke:#181818;stroke-width:1.0;"/><polygon fill="#181818" points="364.03,342.31,361.1002,351.713,364.6096,347.2763,369.0462,350.7857,364.03,342.31" style="stroke:#181818;stroke-width:1.0;"/></g><!--SRC=[ZPBDReCm48JlVWeV4rMyG5Jb4gbIrJQ7ekHkx0rO-AzhEocg-kvrW18WQHME_cQ77OzzBOrZo3JLrbXUeTL00qOWVY2EyPgLa8T60KNWWPbIZGM-OiAUf2dfWIaFX12kcFTq__IsUwPVXARlWKeZWsG1DXNmUkTUfGzfPB7iiQ_iQG-Lv0hy5a0arYiNP-bZpzPByZtotrWJq2e5EFn79VKVHkFPJf437YM7kuRfYauskJ9x1sUz31QRmQ-4mUuEWtuieqwbYzf6NQHSAve7J7lqg41cnFnGMm5gViWZ8fZmeXCGDXQfimuS43uY6DxCGTebj76Zkvuoy7aBza4vKposMrzaRUAZbU8Sj7iCMRQUraQc9RPyKWsPDJLINExx7z4lkcNz0m00]--></g></svg>