<?xml version="1.0" encoding="us-ascii" standalone="no"?><svg xmlns="http://www.w3.org/2000/svg" xmlns:xlink="http://www.w3.org/1999/xlink" contentStyleType="text/css" height="600px" preserveAspectRatio="none" style="width:342px;height:600px;background:#FFFFFF;" version="1.1" viewBox="0 0 342 600" width="342px" zoomAndPan="magnify"><defs/><g><!--class ListVehiclesCheckupUI--><g id="elem_ListVehiclesCheckupUI"><rect codeLine="6" fill="#F1F1F1" height="83.2188" id="ListVehiclesCheckupUI" rx="2.5" ry="2.5" style="stroke:#181818;stroke-width:0.5;" width="211" x="77" y="7"/><ellipse cx="108.2" cy="23" fill="#C2C2C2" rx="11" ry="11" style="stroke:#181818;stroke-width:1.0;"/><path d="M110.9656,18.875 Q111.1219,18.6563 111.3094,18.5469 Q111.4969,18.4375 111.7156,18.4375 Q112.0906,18.4375 112.325,18.7031 Q112.5594,18.9531 112.5594,19.5625 L112.5594,21.0156 Q112.5594,21.625 112.325,21.8906 Q112.0906,22.1563 111.7156,22.1563 Q111.3719,22.1563 111.1688,21.9531 Q110.9656,21.7656 110.8563,21.25 Q110.8094,20.8906 110.6219,20.7031 Q110.2938,20.3281 109.6844,20.1094 Q109.075,19.8906 108.45,19.8906 Q107.6844,19.8906 107.0438,20.2188 Q106.4188,20.5469 105.9188,21.2969 Q105.4344,22.0469 105.4344,23.0781 L105.4344,24.1719 Q105.4344,25.4063 106.325,26.2344 Q107.2156,27.0469 108.8094,27.0469 Q109.7469,27.0469 110.4031,26.7969 Q110.7938,26.6406 111.2156,26.2031 Q111.4813,25.9375 111.6219,25.8594 Q111.7781,25.7813 111.9813,25.7813 Q112.3094,25.7813 112.5594,26.0469 Q112.825,26.2969 112.825,26.6406 Q112.825,26.9844 112.4813,27.3906 Q111.9813,27.9688 111.1844,28.2969 Q110.1063,28.75 108.8094,28.75 Q107.2938,28.75 106.0906,28.125 Q105.1063,27.625 104.4188,26.5625 Q103.7313,25.4844 103.7313,24.2031 L103.7313,23.0469 Q103.7313,21.7188 104.3406,20.5781 Q104.9656,19.4219 106.0594,18.8125 Q107.1531,18.1875 108.3875,18.1875 Q109.1219,18.1875 109.7625,18.3594 Q110.4188,18.5156 110.9656,18.875 Z " fill="#000000"/><text fill="#000000" font-family="sans-serif" font-size="14" lengthAdjust="spacing" textLength="143" x="125.8" y="28.7285">ListVehiclesCheckupUI</text><line style="stroke:#181818;stroke-width:0.5;" x1="78" x2="287" y1="39" y2="39"/><line style="stroke:#181818;stroke-width:0.5;" x1="78" x2="287" y1="47" y2="47"/><text fill="#000000" font-family="sans-serif" font-size="14" lengthAdjust="spacing" textLength="156" x="83" y="65.5332">+initiateCheckupListing()</text><text fill="#000000" font-family="sans-serif" font-size="14" lengthAdjust="spacing" textLength="199" x="83" y="83.1426">+displayVehicles(List&lt;Vehicle&gt;)</text></g><!--class ListVehiclesCheckupController--><g id="elem_ListVehiclesCheckupController"><rect codeLine="11" fill="#F1F1F1" height="65.6094" id="ListVehiclesCheckupController" rx="2.5" ry="2.5" style="stroke:#181818;stroke-width:0.5;" width="225" x="70" y="150"/><ellipse cx="85" cy="166" fill="#C2C2C2" rx="11" ry="11" style="stroke:#181818;stroke-width:1.0;"/><path d="M87.7656,161.875 Q87.9219,161.6563 88.1094,161.5469 Q88.2969,161.4375 88.5156,161.4375 Q88.8906,161.4375 89.125,161.7031 Q89.3594,161.9531 89.3594,162.5625 L89.3594,164.0156 Q89.3594,164.625 89.125,164.8906 Q88.8906,165.1563 88.5156,165.1563 Q88.1719,165.1563 87.9688,164.9531 Q87.7656,164.7656 87.6563,164.25 Q87.6094,163.8906 87.4219,163.7031 Q87.0938,163.3281 86.4844,163.1094 Q85.875,162.8906 85.25,162.8906 Q84.4844,162.8906 83.8438,163.2188 Q83.2188,163.5469 82.7188,164.2969 Q82.2344,165.0469 82.2344,166.0781 L82.2344,167.1719 Q82.2344,168.4063 83.125,169.2344 Q84.0156,170.0469 85.6094,170.0469 Q86.5469,170.0469 87.2031,169.7969 Q87.5938,169.6406 88.0156,169.2031 Q88.2813,168.9375 88.4219,168.8594 Q88.5781,168.7813 88.7813,168.7813 Q89.1094,168.7813 89.3594,169.0469 Q89.625,169.2969 89.625,169.6406 Q89.625,169.9844 89.2813,170.3906 Q88.7813,170.9688 87.9844,171.2969 Q86.9063,171.75 85.6094,171.75 Q84.0938,171.75 82.8906,171.125 Q81.9063,170.625 81.2188,169.5625 Q80.5313,168.4844 80.5313,167.2031 L80.5313,166.0469 Q80.5313,164.7188 81.1406,163.5781 Q81.7656,162.4219 82.8594,161.8125 Q83.9531,161.1875 85.1875,161.1875 Q85.9219,161.1875 86.5625,161.3594 Q87.2188,161.5156 87.7656,161.875 Z " fill="#000000"/><text fill="#000000" font-family="sans-serif" font-size="14" lengthAdjust="spacing" textLength="193" x="99" y="171.7285">ListVehiclesCheckupController</text><line style="stroke:#181818;stroke-width:0.5;" x1="71" x2="294" y1="182" y2="182"/><line style="stroke:#181818;stroke-width:0.5;" x1="71" x2="294" y1="190" y2="190"/><text fill="#000000" font-family="sans-serif" font-size="14" lengthAdjust="spacing" textLength="197" x="76" y="208.5332">+listVehiclesNeedingCheckUp()</text></g><!--class VehicleService--><g id="elem_VehicleService"><rect codeLine="15" fill="#F1F1F1" height="65.6094" id="VehicleService" rx="2.5" ry="2.5" style="stroke:#181818;stroke-width:0.5;" width="305" x="30" y="276"/><ellipse cx="131.75" cy="292" fill="#C2C2C2" rx="11" ry="11" style="stroke:#181818;stroke-width:1.0;"/><path d="M134.5156,287.875 Q134.6719,287.6563 134.8594,287.5469 Q135.0469,287.4375 135.2656,287.4375 Q135.6406,287.4375 135.875,287.7031 Q136.1094,287.9531 136.1094,288.5625 L136.1094,290.0156 Q136.1094,290.625 135.875,290.8906 Q135.6406,291.1563 135.2656,291.1563 Q134.9219,291.1563 134.7188,290.9531 Q134.5156,290.7656 134.4063,290.25 Q134.3594,289.8906 134.1719,289.7031 Q133.8438,289.3281 133.2344,289.1094 Q132.625,288.8906 132,288.8906 Q131.2344,288.8906 130.5938,289.2188 Q129.9688,289.5469 129.4688,290.2969 Q128.9844,291.0469 128.9844,292.0781 L128.9844,293.1719 Q128.9844,294.4063 129.875,295.2344 Q130.7656,296.0469 132.3594,296.0469 Q133.2969,296.0469 133.9531,295.7969 Q134.3438,295.6406 134.7656,295.2031 Q135.0313,294.9375 135.1719,294.8594 Q135.3281,294.7813 135.5313,294.7813 Q135.8594,294.7813 136.1094,295.0469 Q136.375,295.2969 136.375,295.6406 Q136.375,295.9844 136.0313,296.3906 Q135.5313,296.9688 134.7344,297.2969 Q133.6563,297.75 132.3594,297.75 Q130.8438,297.75 129.6406,297.125 Q128.6563,296.625 127.9688,295.5625 Q127.2813,294.4844 127.2813,293.2031 L127.2813,292.0469 Q127.2813,290.7188 127.8906,289.5781 Q128.5156,288.4219 129.6094,287.8125 Q130.7031,287.1875 131.9375,287.1875 Q132.6719,287.1875 133.3125,287.3594 Q133.9688,287.5156 134.5156,287.875 Z " fill="#000000"/><text fill="#000000" font-family="sans-serif" font-size="14" lengthAdjust="spacing" textLength="93" x="152.25" y="297.7285">VehicleService</text><line style="stroke:#181818;stroke-width:0.5;" x1="31" x2="334" y1="308" y2="308"/><line style="stroke:#181818;stroke-width:0.5;" x1="31" x2="334" y1="316" y2="316"/><text fill="#000000" font-family="sans-serif" font-size="14" lengthAdjust="spacing" textLength="293" x="36" y="334.5332">+listVehiclesNeedingCheckUp() : List&lt;Vehicle&gt;</text></g><!--class VehicleRepository--><g id="elem_VehicleRepository"><rect codeLine="19" fill="#F1F1F1" height="65.6094" id="VehicleRepository" rx="2.5" ry="2.5" style="stroke:#181818;stroke-width:0.5;" width="199" x="7" y="402"/><ellipse cx="45.85" cy="418" fill="#C2C2C2" rx="11" ry="11" style="stroke:#181818;stroke-width:1.0;"/><path d="M48.6156,413.875 Q48.7719,413.6563 48.9594,413.5469 Q49.1469,413.4375 49.3656,413.4375 Q49.7406,413.4375 49.975,413.7031 Q50.2094,413.9531 50.2094,414.5625 L50.2094,416.0156 Q50.2094,416.625 49.975,416.8906 Q49.7406,417.1563 49.3656,417.1563 Q49.0219,417.1563 48.8188,416.9531 Q48.6156,416.7656 48.5063,416.25 Q48.4594,415.8906 48.2719,415.7031 Q47.9438,415.3281 47.3344,415.1094 Q46.725,414.8906 46.1,414.8906 Q45.3344,414.8906 44.6938,415.2188 Q44.0688,415.5469 43.5688,416.2969 Q43.0844,417.0469 43.0844,418.0781 L43.0844,419.1719 Q43.0844,420.4063 43.975,421.2344 Q44.8656,422.0469 46.4594,422.0469 Q47.3969,422.0469 48.0531,421.7969 Q48.4438,421.6406 48.8656,421.2031 Q49.1313,420.9375 49.2719,420.8594 Q49.4281,420.7813 49.6313,420.7813 Q49.9594,420.7813 50.2094,421.0469 Q50.475,421.2969 50.475,421.6406 Q50.475,421.9844 50.1313,422.3906 Q49.6313,422.9688 48.8344,423.2969 Q47.7563,423.75 46.4594,423.75 Q44.9438,423.75 43.7406,423.125 Q42.7563,422.625 42.0688,421.5625 Q41.3813,420.4844 41.3813,419.2031 L41.3813,418.0469 Q41.3813,416.7188 41.9906,415.5781 Q42.6156,414.4219 43.7094,413.8125 Q44.8031,413.1875 46.0375,413.1875 Q46.7719,413.1875 47.4125,413.3594 Q48.0688,413.5156 48.6156,413.875 Z " fill="#000000"/><text fill="#000000" font-family="sans-serif" font-size="14" lengthAdjust="spacing" textLength="114" x="65.15" y="423.7285">VehicleRepository</text><line style="stroke:#181818;stroke-width:0.5;" x1="8" x2="205" y1="434" y2="434"/><line style="stroke:#181818;stroke-width:0.5;" x1="8" x2="205" y1="442" y2="442"/><text fill="#000000" font-family="sans-serif" font-size="14" lengthAdjust="spacing" textLength="187" x="13" y="460.5332">+getVehicles() : List&lt;Vehicle&gt;</text></g><!--class Vehicle--><g id="elem_Vehicle"><rect codeLine="23" fill="#F1F1F1" height="65.6094" id="Vehicle" rx="2.5" ry="2.5" style="stroke:#181818;stroke-width:0.5;" width="280" x="42.5" y="528"/><ellipse cx="155.25" cy="544" fill="#C2C2C2" rx="11" ry="11" style="stroke:#181818;stroke-width:1.0;"/><path d="M158.0156,539.875 Q158.1719,539.6563 158.3594,539.5469 Q158.5469,539.4375 158.7656,539.4375 Q159.1406,539.4375 159.375,539.7031 Q159.6094,539.9531 159.6094,540.5625 L159.6094,542.0156 Q159.6094,542.625 159.375,542.8906 Q159.1406,543.1563 158.7656,543.1563 Q158.4219,543.1563 158.2188,542.9531 Q158.0156,542.7656 157.9063,542.25 Q157.8594,541.8906 157.6719,541.7031 Q157.3438,541.3281 156.7344,541.1094 Q156.125,540.8906 155.5,540.8906 Q154.7344,540.8906 154.0938,541.2188 Q153.4688,541.5469 152.9688,542.2969 Q152.4844,543.0469 152.4844,544.0781 L152.4844,545.1719 Q152.4844,546.4063 153.375,547.2344 Q154.2656,548.0469 155.8594,548.0469 Q156.7969,548.0469 157.4531,547.7969 Q157.8438,547.6406 158.2656,547.2031 Q158.5313,546.9375 158.6719,546.8594 Q158.8281,546.7813 159.0313,546.7813 Q159.3594,546.7813 159.6094,547.0469 Q159.875,547.2969 159.875,547.6406 Q159.875,547.9844 159.5313,548.3906 Q159.0313,548.9688 158.2344,549.2969 Q157.1563,549.75 155.8594,549.75 Q154.3438,549.75 153.1406,549.125 Q152.1563,548.625 151.4688,547.5625 Q150.7813,546.4844 150.7813,545.2031 L150.7813,544.0469 Q150.7813,542.7188 151.3906,541.5781 Q152.0156,540.4219 153.1094,539.8125 Q154.2031,539.1875 155.4375,539.1875 Q156.1719,539.1875 156.8125,539.3594 Q157.4688,539.5156 158.0156,539.875 Z " fill="#000000"/><text fill="#000000" font-family="sans-serif" font-size="14" lengthAdjust="spacing" textLength="46" x="175.75" y="549.7285">Vehicle</text><line style="stroke:#181818;stroke-width:0.5;" x1="43.5" x2="321.5" y1="560" y2="560"/><line style="stroke:#181818;stroke-width:0.5;" x1="43.5" x2="321.5" y1="568" y2="568"/><text fill="#000000" font-family="sans-serif" font-size="14" lengthAdjust="spacing" textLength="268" x="48.5" y="586.5332">+calculateNextCheckup() : CheckupDetails</text></g><!--link ListVehiclesCheckupUI to ListVehiclesCheckupController--><g id="link_ListVehiclesCheckupUI_ListVehiclesCheckupController"><path codeLine="28" d="M182.5,90.34 C182.5,109.5 182.5,126 182.5,143.92 " fill="none" id="ListVehiclesCheckupUI-to-ListVehiclesCheckupController" style="stroke:#181818;stroke-width:1.0;"/><polygon fill="#181818" points="182.5,149.92,186.5,140.92,182.5,144.92,178.5,140.92,182.5,149.92" style="stroke:#181818;stroke-width:1.0;"/></g><!--link ListVehiclesCheckupController to VehicleService--><g id="link_ListVehiclesCheckupController_VehicleService"><path codeLine="29" d="M182.5,216.26 C182.5,234.63 182.5,251.56 182.5,269.91 " fill="none" id="ListVehiclesCheckupController-to-VehicleService" style="stroke:#181818;stroke-width:1.0;"/><polygon fill="#181818" points="182.5,275.91,186.5,266.91,182.5,270.91,178.5,266.91,182.5,275.91" style="stroke:#181818;stroke-width:1.0;"/></g><!--link VehicleService to VehicleRepository--><g id="link_VehicleService_VehicleRepository"><path codeLine="30" d="M162.73,342.26 C151.47,360.63 140.544,378.4436 129.304,396.7936 " fill="none" id="VehicleService-to-VehicleRepository" style="stroke:#181818;stroke-width:1.0;"/><polygon fill="#181818" points="126.17,401.91,134.282,396.3247,128.7817,397.6463,127.46,392.146,126.17,401.91" style="stroke:#181818;stroke-width:1.0;"/></g><!--link VehicleRepository to Vehicle--><g id="link_VehicleRepository_Vehicle"><path codeLine="31" d="M126.27,468.26 C137.53,486.63 148.456,504.4436 159.696,522.7936 " fill="none" id="VehicleRepository-to-Vehicle" style="stroke:#181818;stroke-width:1.0;stroke-dasharray:7.0,7.0;"/><polygon fill="#181818" points="162.83,527.91,161.54,518.146,160.2183,523.6463,154.718,522.3247,162.83,527.91" style="stroke:#181818;stroke-width:1.0;"/></g><!--link VehicleService to Vehicle--><g id="link_VehicleService_Vehicle"><path codeLine="32" d="M200.79,342.08 C209.54,359.26 219.06,381.13 223.5,402 C229.6,430.69 229.6,439.31 223.5,468 C219.06,488.87 212.263,505.3935 203.513,522.5735 " fill="none" id="VehicleService-to-Vehicle" style="stroke:#181818;stroke-width:1.0;stroke-dasharray:7.0,7.0;"/><polygon fill="#181818" points="200.79,527.92,208.4389,521.7156,203.0592,523.4646,201.3102,518.0849,200.79,527.92" style="stroke:#181818;stroke-width:1.0;"/></g><!--SRC=[ZP11Qm8n48Nl-HLpN2bApo92iHT1F5Jq7kFW3cQJa9cLsjB_xkwIXjKjrZabUM- -oJm-aGiwwWegxxmfewyG9DQeE2l6QkOtaKZxMd1flDlG5yAhQghJO4KiEop9MEH5YUPKX-qIlXKqzGBaI4WB9gKrapiMeoGVY8FLbz_-ejLdwJOVgPy7GnRUIVJMOip3RC-rHZmqaphpDXGzLd9iC9x9u5FDC8MRdmrW7nWya_XuoRmZPjmJWDncj3MrRH9RuwUaLRl-T7v7qMIv1QY_en-Fv__afHxBBU0k97LtxrbwgwlXqsIIZGF8ZNO5]--></g></svg>