<?xml version="1.0" encoding="UTF-8" standalone="no"?><svg xmlns="http://www.w3.org/2000/svg" xmlns:xlink="http://www.w3.org/1999/xlink" contentStyleType="text/css" height="551px" preserveAspectRatio="none" style="width:567px;height:551px;background:#FFFFFF;" version="1.1" viewBox="0 0 567 551" width="567px" zoomAndPan="magnify"><defs/><g><text fill="#000000" font-family="sans-serif" font-size="14" font-weight="bold" lengthAdjust="spacing" textLength="228" x="171" y="29.5332">System Sequence Diagram (SSD)</text><rect fill="#FFFFFF" height="294" style="stroke:#181818;stroke-width:1.0;" width="10" x="86" y="148.8281"/><rect fill="#FFFFFF" height="30.3516" style="stroke:#181818;stroke-width:1.0;" width="10" x="504" y="171.1797"/><rect fill="#FFFFFF" height="55.7031" style="stroke:#181818;stroke-width:1.0;" width="10" x="504" y="231.8828"/><rect fill="#FFFFFF" height="123.8906" style="stroke:#181818;stroke-width:1.0;" width="10" x="504" y="317.9375"/><rect fill="none" height="187.9453" style="stroke:#000000;stroke-width:1.5;" width="551" x="10" y="246.8828"/><rect fill="none" height="94.8906" style="stroke:#000000;stroke-width:1.5;" width="531" x="20" y="332.9375"/><line style="stroke:#181818;stroke-width:0.5;stroke-dasharray:5.0,5.0;" x1="91" x2="91" y1="138.8281" y2="451.8281"/><line style="stroke:#181818;stroke-width:0.5;stroke-dasharray:5.0,5.0;" x1="509" x2="509" y1="138.8281" y2="451.8281"/><text fill="#000000" font-family="sans-serif" font-size="14" lengthAdjust="spacing" textLength="116" x="30" y="118.1426">Human Resources</text><text fill="#000000" font-family="sans-serif" font-size="14" lengthAdjust="spacing" textLength="56" x="60" y="135.752">Manager</text><ellipse cx="91" cy="52.1094" fill="#E3E3E3" rx="8" ry="8" style="stroke:#181818;stroke-width:0.5;"/><path d="M91,60.1094 L91,87.1094 M78,68.1094 L104,68.1094 M91,87.1094 L78,102.1094 M91,87.1094 L104,102.1094 " fill="none" style="stroke:#181818;stroke-width:0.5;"/><text fill="#000000" font-family="sans-serif" font-size="14" lengthAdjust="spacing" textLength="116" x="30" y="465.3613">Human Resources</text><text fill="#000000" font-family="sans-serif" font-size="14" lengthAdjust="spacing" textLength="56" x="60" y="482.9707">Manager</text><ellipse cx="91" cy="494.5469" fill="#E3E3E3" rx="8" ry="8" style="stroke:#181818;stroke-width:0.5;"/><path d="M91,502.5469 L91,529.5469 M78,510.5469 L104,510.5469 M91,529.5469 L78,544.5469 M91,529.5469 L104,544.5469 " fill="none" style="stroke:#181818;stroke-width:0.5;"/><rect fill="#E3E3E3" height="31.6094" rx="2.5" ry="2.5" style="stroke:#181818;stroke-width:0.5;" width="64" x="477" y="106.2188"/><text fill="#000000" font-family="sans-serif" font-size="14" lengthAdjust="spacing" textLength="50" x="484" y="127.752">:System</text><rect fill="#E3E3E3" height="31.6094" rx="2.5" ry="2.5" style="stroke:#181818;stroke-width:0.5;" width="64" x="477" y="450.8281"/><text fill="#000000" font-family="sans-serif" font-size="14" lengthAdjust="spacing" textLength="50" x="484" y="472.3613">:System</text><rect fill="#FFFFFF" height="294" style="stroke:#181818;stroke-width:1.0;" width="10" x="86" y="148.8281"/><rect fill="#FFFFFF" height="30.3516" style="stroke:#181818;stroke-width:1.0;" width="10" x="504" y="171.1797"/><rect fill="#FFFFFF" height="55.7031" style="stroke:#181818;stroke-width:1.0;" width="10" x="504" y="231.8828"/><rect fill="#FFFFFF" height="123.8906" style="stroke:#181818;stroke-width:1.0;" width="10" x="504" y="317.9375"/><polygon fill="#181818" points="492,167.1797,502,171.1797,492,175.1797,496,171.1797" style="stroke:#181818;stroke-width:1.0;"/><line style="stroke:#181818;stroke-width:1.0;" x1="96" x2="498" y1="171.1797" y2="171.1797"/><text fill="#000000" font-family="sans-serif" font-size="13" font-weight="bold" lengthAdjust="spacing" textLength="7" x="103" y="166.3232">1</text><text fill="#000000" font-family="sans-serif" font-size="13" lengthAdjust="spacing" textLength="210" x="114" y="166.3232">Requests team generation for a task</text><polygon fill="#181818" points="107,197.5313,97,201.5313,107,205.5313,103,201.5313" style="stroke:#181818;stroke-width:1.0;"/><line style="stroke:#181818;stroke-width:1.0;stroke-dasharray:2.0,2.0;" x1="101" x2="508" y1="201.5313" y2="201.5313"/><text fill="#000000" font-family="sans-serif" font-size="13" font-weight="bold" lengthAdjust="spacing" textLength="7" x="113" y="196.6748">2</text><text fill="#000000" font-family="sans-serif" font-size="13" lengthAdjust="spacing" textLength="373" x="124" y="196.6748">Requests for data(skills needed, min size, max size of the team)</text><polygon fill="#181818" points="492,227.8828,502,231.8828,492,235.8828,496,231.8828" style="stroke:#181818;stroke-width:1.0;"/><line style="stroke:#181818;stroke-width:1.0;" x1="96" x2="498" y1="231.8828" y2="231.8828"/><text fill="#000000" font-family="sans-serif" font-size="13" font-weight="bold" lengthAdjust="spacing" textLength="7" x="103" y="227.0264">3</text><text fill="#000000" font-family="sans-serif" font-size="13" lengthAdjust="spacing" textLength="78" x="114" y="227.0264">Provides data</text><path d="M10,246.8828 L83,246.8828 L83,255.2344 L73,265.2344 L10,265.2344 L10,246.8828 " fill="#EEEEEE" style="stroke:#000000;stroke-width:1.5;"/><rect fill="none" height="187.9453" style="stroke:#000000;stroke-width:1.5;" width="551" x="10" y="246.8828"/><text fill="#000000" font-family="sans-serif" font-size="13" font-weight="bold" lengthAdjust="spacing" textLength="28" x="25" y="261.3779">loop</text><text fill="#000000" font-family="sans-serif" font-size="11" font-weight="bold" lengthAdjust="spacing" textLength="87" x="98" y="260.3018">[until approved]</text><polygon fill="#181818" points="107,283.5859,97,287.5859,107,291.5859,103,287.5859" style="stroke:#181818;stroke-width:1.0;"/><line style="stroke:#181818;stroke-width:1.0;stroke-dasharray:2.0,2.0;" x1="101" x2="508" y1="287.5859" y2="287.5859"/><text fill="#000000" font-family="sans-serif" font-size="13" font-weight="bold" lengthAdjust="spacing" textLength="7" x="113" y="282.7295">4</text><text fill="#000000" font-family="sans-serif" font-size="13" lengthAdjust="spacing" textLength="365" x="124" y="282.7295">Confirms data reception and presents options (Approve, Reject)</text><polygon fill="#181818" points="492,313.9375,502,317.9375,492,321.9375,496,317.9375" style="stroke:#181818;stroke-width:1.0;"/><line style="stroke:#181818;stroke-width:1.0;" x1="96" x2="498" y1="317.9375" y2="317.9375"/><text fill="#000000" font-family="sans-serif" font-size="13" font-weight="bold" lengthAdjust="spacing" textLength="7" x="103" y="313.0811">5</text><text fill="#000000" font-family="sans-serif" font-size="13" lengthAdjust="spacing" textLength="203" x="114" y="313.0811">Submits selection (Approve/Reject)</text><path d="M20,332.9375 L81,332.9375 L81,341.2891 L71,351.2891 L20,351.2891 L20,332.9375 " fill="#EEEEEE" style="stroke:#000000;stroke-width:1.5;"/><rect fill="none" height="94.8906" style="stroke:#000000;stroke-width:1.5;" width="531" x="20" y="332.9375"/><text fill="#000000" font-family="sans-serif" font-size="13" font-weight="bold" lengthAdjust="spacing" textLength="16" x="35" y="347.4326">alt</text><text fill="#000000" font-family="sans-serif" font-size="11" font-weight="bold" lengthAdjust="spacing" textLength="55" x="96" y="346.3564">[Approve]</text><polygon fill="#181818" points="107,369.6406,97,373.6406,107,377.6406,103,373.6406" style="stroke:#181818;stroke-width:1.0;"/><line style="stroke:#181818;stroke-width:1.0;stroke-dasharray:2.0,2.0;" x1="101" x2="503" y1="373.6406" y2="373.6406"/><text fill="#000000" font-family="sans-serif" font-size="13" font-weight="bold" lengthAdjust="spacing" textLength="7" x="113" y="368.7842">6</text><text fill="#000000" font-family="sans-serif" font-size="13" lengthAdjust="spacing" textLength="135" x="124" y="368.7842">Confirms team approval</text><line style="stroke:#000000;stroke-width:1.0;stroke-dasharray:2.0,2.0;" x1="20" x2="551" y1="382.6406" y2="382.6406"/><text fill="#000000" font-family="sans-serif" font-size="11" font-weight="bold" lengthAdjust="spacing" textLength="42" x="25" y="394.0596">[Reject]</text><polygon fill="#181818" points="107,415.8281,97,419.8281,107,423.8281,103,419.8281" style="stroke:#181818;stroke-width:1.0;"/><line style="stroke:#181818;stroke-width:1.0;stroke-dasharray:2.0,2.0;" x1="101" x2="503" y1="419.8281" y2="419.8281"/><text fill="#000000" font-family="sans-serif" font-size="13" font-weight="bold" lengthAdjust="spacing" textLength="7" x="113" y="414.9717">7</text><text fill="#000000" font-family="sans-serif" font-size="13" lengthAdjust="spacing" textLength="280" x="124" y="414.9717">Declines team approval and generates new team</text><!--SRC=[ZPB1JkD038RlynHMJwq4uivX9KGFN91GSzsBITnqw8mdEtPWuUbn9cbQGOl89Sx4_dx_7ilUSuSP8yJ4gTxb50aqz-Ha_jDXlSUMAdqF19bgHMx3QOBii4bldblOOX1oJhrQQlKkIX4g-jSJrmHhZ-sGlgogzSevx3Ln7vyfMrnhoh1uw2CoR4XIdskIl_o8RCfv0IZmi9c-dAcghts7hB2u7MLAoXWMd7z5fPCQDuTm_UVGsgrfMNEY0ahMMKjC6TKdXgtrWw0e-oFjW0Tx9iArmOxa4zvGtw3YqiOKWW0JDTHSGVGCuZ_88lnV8aXRq1sL3bQ5tT1PoVCEdd9wzGr9KIjvPuj3IXtqh3u0TftLK5FEV_1odtZhSnp9myLJLqQ3t42NIOZDPofd0ikxaNfb8tYn7LdDz0jkBZkg-kVe3IqK33Ge7k0tNzaNoHWKfgBvx3TMongC0y8mLv9jzUJhDxGrrS4pVQ6LkKqRHiD2l9N_Hn4URyJUvRQS-pwvJm00]--></g></svg>