<?xml version="1.0" encoding="UTF-8" standalone="no"?><svg xmlns="http://www.w3.org/2000/svg" xmlns:xlink="http://www.w3.org/1999/xlink" contentStyleType="text/css" height="763px" preserveAspectRatio="none" style="width:623px;height:763px;background:#FFFFFF;" version="1.1" viewBox="0 0 623 763" width="623px" zoomAndPan="magnify"><defs/><g><!--MD5=[02498b125f6ee9bba7ffe43ff687770d]
cluster Sprint A--><g id="cluster_Sprint A"><rect fill="none" height="750" rx="2.5" ry="2.5" style="stroke:#181818;stroke-width:1.0;" width="387.85" x="230" y="7"/><text fill="#000000" font-family="sans-serif" font-size="14" font-weight="bold" lengthAdjust="spacing" textLength="58" x="394.925" y="22.5352">Sprint A</text></g><g id="elem_UC01"><ellipse cx="423.9253" cy="226.9991" fill="#F1F1F1" rx="92.9953" ry="20.9991" style="stroke:#181818;stroke-width:0.5;"/><text fill="#000000" font-family="sans-serif" font-size="14" lengthAdjust="spacing" textLength="148" x="349.9253" y="230.2901">UC01 - Register skills</text></g><g id="elem_UC02"><ellipse cx="423.9304" cy="149.9961" fill="#F1F1F1" rx="90.7804" ry="20.5561" style="stroke:#181818;stroke-width:0.5;"/><text fill="#000000" font-family="sans-serif" font-size="14" lengthAdjust="spacing" textLength="143" x="352.4304" y="153.2871">UC02 - Register jobs</text></g><g id="elem_UC03"><ellipse cx="423.9298" cy="68.004" fill="#F1F1F1" rx="120.4698" ry="26.494" style="stroke:#181818;stroke-width:0.5;"/><text fill="#000000" font-family="sans-serif" font-size="14" lengthAdjust="spacing" textLength="208" x="319.9298" y="71.295">UC03 - Register Collaborators</text></g><g id="elem_UC04"><ellipse cx="423.9296" cy="423.0019" fill="#F1F1F1" rx="145.1096" ry="31.4219" style="stroke:#181818;stroke-width:0.5;"/><text fill="#000000" font-family="sans-serif" font-size="14" lengthAdjust="spacing" textLength="260" x="293.9296" y="426.2929">UC04 - Assign Skills to a Collaborator</text></g><g id="elem_UC05"><ellipse cx="423.9313" cy="319.9963" fill="#F1F1F1" rx="171.1313" ry="36.6263" style="stroke:#181818;stroke-width:0.5;"/><text fill="#000000" font-family="sans-serif" font-size="14" lengthAdjust="spacing" textLength="314" x="266.9313" y="323.2873">UC05 - Generate team proposal automatically</text></g><g id="elem_UC06"><ellipse cx="423.9333" cy="719.0047" fill="#F1F1F1" rx="99.7233" ry="22.3447" style="stroke:#181818;stroke-width:0.5;"/><text fill="#000000" font-family="sans-serif" font-size="14" lengthAdjust="spacing" textLength="163" x="342.4333" y="722.2957">UC06 - Register Vehicle</text></g><g id="elem_UC07"><ellipse cx="423.9338" cy="631.0028" fill="#F1F1F1" rx="141.7638" ry="30.7528" style="stroke:#181818;stroke-width:0.5;"/><text fill="#000000" font-family="sans-serif" font-size="14" lengthAdjust="spacing" textLength="253" x="297.4338" y="634.2938">UC07 - Register vehicle maintenance</text></g><g id="elem_UC08"><ellipse cx="423.9261" cy="526.9952" fill="#F1F1F1" rx="177.9261" ry="37.9852" style="stroke:#181818;stroke-width:0.5;"/><text fill="#000000" font-family="sans-serif" font-size="14" lengthAdjust="spacing" textLength="328" x="259.9261" y="530.2862">UC08 - List vehicles with pending maintenances</text></g><!--MD5=[f1cf4895171720f7d7dbebb70272d69c]
entity HR--><g id="elem_HR"><ellipse cx="96" cy="197.26" fill="#F1F1F1" rx="8" ry="8" style="stroke:#181818;stroke-width:0.5;"/><path d="M96,205.26 L96,232.26 M83,213.26 L109,213.26 M96,232.26 L83,247.26 M96,232.26 L109,247.26 " fill="none" style="stroke:#181818;stroke-width:0.5;"/><text fill="#000000" font-family="sans-serif" font-size="14" lengthAdjust="spacing" textLength="180" x="6" y="262.2952">Human Resource Manager</text></g><!--MD5=[a89ee74bb4979dbed373b93afc1c36e4]
entity FM--><g id="elem_FM"><ellipse cx="96" cy="601.26" fill="#F1F1F1" rx="8" ry="8" style="stroke:#181818;stroke-width:0.5;"/><path d="M96,609.26 L96,636.26 M83,617.26 L109,617.26 M96,636.26 L83,651.26 M96,636.26 L109,651.26 " fill="none" style="stroke:#181818;stroke-width:0.5;"/><text fill="#000000" font-family="sans-serif" font-size="14" lengthAdjust="spacing" textLength="97" x="47.5" y="666.2952">Fleet Manager</text></g><!--MD5=[b99a73ab3576aecfe2e2924790a2f837]
link HR to UC01--><g id="link_HR_UC01"><path d="M186.49,227 C229.15,227 280.31,227 324.1,227 " fill="none" id="HR-to-UC01" style="stroke:#181818;stroke-width:1.0;"/><polygon fill="#181818" points="329,227,320,223,324,227,320,231,329,227" style="stroke:#181818;stroke-width:1.0;"/></g><!--MD5=[4751a57e5427972950d0387808b5e67a]
link HR to UC02--><g id="link_HR_UC02"><path d="M186.48,198.58 C198.37,195.16 210.44,191.87 222,189 C261.77,179.12 306.49,170.23 343.62,163.44 " fill="none" id="HR-to-UC02" style="stroke:#181818;stroke-width:1.0;"/><polygon fill="#181818" points="348.5,162.55,338.9344,160.205,343.5788,163.4344,340.3494,168.0788,348.5,162.55" style="stroke:#181818;stroke-width:1.0;"/></g><!--MD5=[2f37429a23db5f43ab8721d88b9f664a]
link HR to UC03--><g id="link_HR_UC03"><path d="M128.93,188.47 C152.15,162.96 185.77,130.85 222,112 C249.14,97.88 280.61,88.29 310.48,81.77 " fill="none" id="HR-to-UC03" style="stroke:#181818;stroke-width:1.0;"/><polygon fill="#181818" points="315.34,80.74,305.7102,78.6742,310.4466,81.7672,307.3537,86.5036,315.34,80.74" style="stroke:#181818;stroke-width:1.0;"/></g><!--MD5=[eac89b9210cd1220e5a0a2b16e2dd651]
link HR to UC04--><g id="link_HR_UC04"><path d="M119.81,265.52 C141.77,299.22 178.09,346.92 222,374 C243.93,387.52 269.34,397.32 294.58,404.41 " fill="none" id="HR-to-UC04" style="stroke:#181818;stroke-width:1.0;"/><polygon fill="#181818" points="299.18,405.66,291.5512,399.431,294.3565,404.3432,289.4443,407.1486,299.18,405.66" style="stroke:#181818;stroke-width:1.0;"/></g><!--MD5=[956c7a1ae20fae7c396131a58cebef86]
link HR to UC05--><g id="link_HR_UC05"><path d="M186.36,254.5 C198.33,258.08 210.45,261.66 222,265 C250.3,273.17 280.94,281.71 309.55,289.56 " fill="none" id="HR-to-UC05" style="stroke:#181818;stroke-width:1.0;"/><polygon fill="#181818" points="314.17,290.82,306.5584,284.5699,309.3502,289.4899,304.4302,292.2817,314.17,290.82" style="stroke:#181818;stroke-width:1.0;"/></g><!--MD5=[01c82c916a21296eb409f0c23263550b]
link FM to UC06--><g id="link_FM_UC06"><path d="M144.73,651.52 C167.76,660.86 195.98,671.47 222,679 C258.66,689.6 299.88,698.35 335.41,704.92 " fill="none" id="FM-to-UC06" style="stroke:#181818;stroke-width:1.0;"/><polygon fill="#181818" points="340.02,705.77,331.8878,700.2141,335.1018,704.8693,330.4467,708.0833,340.02,705.77" style="stroke:#181818;stroke-width:1.0;"/></g><!--MD5=[5f422720a48da9fb50a662041793a40f]
link FM to UC07--><g id="link_FM_UC07"><path d="M144.74,631 C179.43,631 228.38,631 275.57,631 " fill="none" id="FM-to-UC07" style="stroke:#181818;stroke-width:1.0;"/><polygon fill="#181818" points="280.4,631,271.4,627,275.4,631,271.4,635,280.4,631" style="stroke:#181818;stroke-width:1.0;"/></g><!--MD5=[6d44432415e575007bfa593c45743e1c]
link FM to UC08--><g id="link_FM_UC08"><path d="M144.99,611.35 C168.09,602.2 196.29,591.5 222,583 C248.21,574.34 276.63,565.87 303.62,558.24 " fill="none" id="FM-to-UC08" style="stroke:#181818;stroke-width:1.0;"/><polygon fill="#181818" points="308.26,556.94,298.5123,555.532,303.4476,558.2966,300.6829,563.2319,308.26,556.94" style="stroke:#181818;stroke-width:1.0;"/></g><!--MD5=[c192f085945310e27e978d83dfa69973]
@startuml

left to right direction
actor "Human Resource Manager" as HR
actor "Fleet Manager" as FM
rectangle "Sprint A" {
  usecase "UC01 - Register skills" as UC01
  usecase "UC02 - Register jobs" as UC02
  usecase "UC03 - Register Collaborators" as UC03
  usecase "UC04 - Assign Skills to a Collaborator" as UC04
  usecase "UC05 - Generate team proposal automatically" as UC05
  usecase "UC06 - Register Vehicle" as UC06
  usecase "UC07 - Register vehicle maintenance" as UC07
  usecase "UC08 - List vehicles with pending maintenances" as UC08
}

HR - -> UC01
HR - -> UC02
HR - -> UC03
HR - -> UC04
HR - -> UC05
FM - -> UC06
FM - -> UC07
FM - -> UC08

@enduml

PlantUML version 1.2022.7(Mon Aug 22 18:01:30 WEST 2022)
(GPL source distribution)
Java Runtime: OpenJDK Runtime Environment
JVM: OpenJDK 64-Bit Server VM
Default Encoding: UTF-8
Language: pt
Country: PT
--></g></svg>