<?xml version="1.0" encoding="us-ascii" standalone="no"?><svg xmlns="http://www.w3.org/2000/svg" xmlns:xlink="http://www.w3.org/1999/xlink" contentStyleType="text/css" height="581px" preserveAspectRatio="none" style="width:628px;height:581px;background:#FFFFFF;" version="1.1" viewBox="0 0 628 581" width="628px" zoomAndPan="magnify"><defs/><g><text fill="#000000" font-family="sans-serif" font-size="14" font-weight="bold" lengthAdjust="spacing" textLength="228" x="201" y="29.5332">System Sequence Diagram (SSD)</text><rect fill="#FFFFFF" height="324.3516" style="stroke:#181818;stroke-width:1.0;" width="10" x="86" y="148.8281"/><rect fill="#FFFFFF" height="30.3516" style="stroke:#181818;stroke-width:1.0;" width="10" x="564" y="171.1797"/><rect fill="#FFFFFF" height="30.3516" style="stroke:#181818;stroke-width:1.0;" width="10" x="564" y="231.8828"/><rect fill="#FFFFFF" height="179.5938" style="stroke:#181818;stroke-width:1.0;" width="10" x="564" y="292.5859"/><rect fill="none" height="157.5938" style="stroke:#000000;stroke-width:1.5;" width="611" x="10" y="307.5859"/><rect fill="none" height="79.0547" style="stroke:#000000;stroke-width:1.5;" width="591" x="20" y="332.9375"/><line style="stroke:#181818;stroke-width:0.5;stroke-dasharray:5.0,5.0;" x1="91" x2="91" y1="138.8281" y2="482.1797"/><line style="stroke:#181818;stroke-width:0.5;stroke-dasharray:5.0,5.0;" x1="569" x2="569" y1="138.8281" y2="482.1797"/><text fill="#000000" font-family="sans-serif" font-size="14" lengthAdjust="spacing" textLength="116" x="30" y="118.1426">Human Resources</text><text fill="#000000" font-family="sans-serif" font-size="14" lengthAdjust="spacing" textLength="56" x="60" y="135.752">Manager</text><ellipse cx="91" cy="52.1094" fill="#E2E2F0" rx="8" ry="8" style="stroke:#181818;stroke-width:0.5;"/><path d="M91,60.1094 L91,87.1094 M78,68.1094 L104,68.1094 M91,87.1094 L78,102.1094 M91,87.1094 L104,102.1094 " fill="none" style="stroke:#181818;stroke-width:0.5;"/><text fill="#000000" font-family="sans-serif" font-size="14" lengthAdjust="spacing" textLength="116" x="30" y="495.7129">Human Resources</text><text fill="#000000" font-family="sans-serif" font-size="14" lengthAdjust="spacing" textLength="56" x="60" y="513.3223">Manager</text><ellipse cx="91" cy="524.8984" fill="#E2E2F0" rx="8" ry="8" style="stroke:#181818;stroke-width:0.5;"/><path d="M91,532.8984 L91,559.8984 M78,540.8984 L104,540.8984 M91,559.8984 L78,574.8984 M91,559.8984 L104,574.8984 " fill="none" style="stroke:#181818;stroke-width:0.5;"/><rect fill="#E2E2F0" height="31.6094" rx="2.5" ry="2.5" style="stroke:#181818;stroke-width:0.5;" width="64" x="537" y="106.2188"/><text fill="#000000" font-family="sans-serif" font-size="14" lengthAdjust="spacing" textLength="50" x="544" y="127.752">:System</text><rect fill="#E2E2F0" height="31.6094" rx="2.5" ry="2.5" style="stroke:#181818;stroke-width:0.5;" width="64" x="537" y="481.1797"/><text fill="#000000" font-family="sans-serif" font-size="14" lengthAdjust="spacing" textLength="50" x="544" y="502.7129">:System</text><rect fill="#FFFFFF" height="324.3516" style="stroke:#181818;stroke-width:1.0;" width="10" x="86" y="148.8281"/><rect fill="#FFFFFF" height="30.3516" style="stroke:#181818;stroke-width:1.0;" width="10" x="564" y="171.1797"/><rect fill="#FFFFFF" height="30.3516" style="stroke:#181818;stroke-width:1.0;" width="10" x="564" y="231.8828"/><rect fill="#FFFFFF" height="179.5938" style="stroke:#181818;stroke-width:1.0;" width="10" x="564" y="292.5859"/><polygon fill="#181818" points="552,167.1797,562,171.1797,552,175.1797,556,171.1797" style="stroke:#181818;stroke-width:1.0;"/><line style="stroke:#181818;stroke-width:1.0;" x1="96" x2="558" y1="171.1797" y2="171.1797"/><text fill="#000000" font-family="sans-serif" font-size="13" font-weight="bold" lengthAdjust="spacing" textLength="7" x="103" y="166.3232">1</text><text fill="#000000" font-family="sans-serif" font-size="13" lengthAdjust="spacing" textLength="210" x="114" y="166.3232">Requests team generation for a task</text><polygon fill="#181818" points="107,197.5313,97,201.5313,107,205.5313,103,201.5313" style="stroke:#181818;stroke-width:1.0;"/><line style="stroke:#181818;stroke-width:1.0;stroke-dasharray:2.0,2.0;" x1="101" x2="568" y1="201.5313" y2="201.5313"/><text fill="#000000" font-family="sans-serif" font-size="13" font-weight="bold" lengthAdjust="spacing" textLength="7" x="113" y="196.6748">2</text><text fill="#000000" font-family="sans-serif" font-size="13" lengthAdjust="spacing" textLength="373" x="124" y="196.6748">Requests for data(skills needed, min size, max size of the team)</text><polygon fill="#181818" points="552,227.8828,562,231.8828,552,235.8828,556,231.8828" style="stroke:#181818;stroke-width:1.0;"/><line style="stroke:#181818;stroke-width:1.0;" x1="96" x2="558" y1="231.8828" y2="231.8828"/><text fill="#000000" font-family="sans-serif" font-size="13" font-weight="bold" lengthAdjust="spacing" textLength="7" x="103" y="227.0264">3</text><text fill="#000000" font-family="sans-serif" font-size="13" lengthAdjust="spacing" textLength="78" x="114" y="227.0264">Provides data</text><polygon fill="#181818" points="107,258.2344,97,262.2344,107,266.2344,103,262.2344" style="stroke:#181818;stroke-width:1.0;"/><line style="stroke:#181818;stroke-width:1.0;stroke-dasharray:2.0,2.0;" x1="101" x2="568" y1="262.2344" y2="262.2344"/><text fill="#000000" font-family="sans-serif" font-size="13" font-weight="bold" lengthAdjust="spacing" textLength="7" x="113" y="257.3779">4</text><text fill="#000000" font-family="sans-serif" font-size="13" lengthAdjust="spacing" textLength="433" x="124" y="257.3779">Confirms data reception and returns proposed team (team members, skills)</text><polygon fill="#181818" points="552,288.5859,562,292.5859,552,296.5859,556,292.5859" style="stroke:#181818;stroke-width:1.0;"/><line style="stroke:#181818;stroke-width:1.0;" x1="96" x2="558" y1="292.5859" y2="292.5859"/><text fill="#000000" font-family="sans-serif" font-size="13" font-weight="bold" lengthAdjust="spacing" textLength="7" x="103" y="287.7295">5</text><text fill="#000000" font-family="sans-serif" font-size="13" lengthAdjust="spacing" textLength="203" x="114" y="287.7295">Submits selection (Approve/Reject)</text><path d="M10,307.5859 L71,307.5859 L71,315.9375 L61,325.9375 L10,325.9375 L10,307.5859 " fill="#EEEEEE" style="stroke:#000000;stroke-width:1.5;"/><rect fill="none" height="157.5938" style="stroke:#000000;stroke-width:1.5;" width="611" x="10" y="307.5859"/><text fill="#000000" font-family="sans-serif" font-size="13" font-weight="bold" lengthAdjust="spacing" textLength="16" x="25" y="322.0811">alt</text><text fill="#000000" font-family="sans-serif" font-size="11" font-weight="bold" lengthAdjust="spacing" textLength="42" x="86" y="321.0049">[Reject]</text><path d="M20,332.9375 L93,332.9375 L93,341.2891 L83,351.2891 L20,351.2891 L20,332.9375 " fill="#EEEEEE" style="stroke:#000000;stroke-width:1.5;"/><rect fill="none" height="79.0547" style="stroke:#000000;stroke-width:1.5;" width="591" x="20" y="332.9375"/><text fill="#000000" font-family="sans-serif" font-size="13" font-weight="bold" lengthAdjust="spacing" textLength="28" x="35" y="347.4326">loop</text><text fill="#000000" font-family="sans-serif" font-size="11" font-weight="bold" lengthAdjust="spacing" textLength="87" x="108" y="346.3564">[until approved]</text><polygon fill="#181818" points="107,369.6406,97,373.6406,107,377.6406,103,373.6406" style="stroke:#181818;stroke-width:1.0;"/><line style="stroke:#181818;stroke-width:1.0;stroke-dasharray:2.0,2.0;" x1="101" x2="563" y1="373.6406" y2="373.6406"/><text fill="#000000" font-family="sans-serif" font-size="13" font-weight="bold" lengthAdjust="spacing" textLength="7" x="113" y="368.7842">6</text><text fill="#000000" font-family="sans-serif" font-size="13" lengthAdjust="spacing" textLength="280" x="124" y="368.7842">Declines team approval and generates new team</text><polygon fill="#181818" points="552,399.9922,562,403.9922,552,407.9922,556,403.9922" style="stroke:#181818;stroke-width:1.0;"/><line style="stroke:#181818;stroke-width:1.0;" x1="96" x2="558" y1="403.9922" y2="403.9922"/><text fill="#000000" font-family="sans-serif" font-size="13" font-weight="bold" lengthAdjust="spacing" textLength="7" x="103" y="399.1357">7</text><text fill="#000000" font-family="sans-serif" font-size="13" lengthAdjust="spacing" textLength="203" x="114" y="399.1357">Submits selection (Approve/Reject)</text><line style="stroke:#000000;stroke-width:1.0;stroke-dasharray:2.0,2.0;" x1="10" x2="621" y1="419.9922" y2="419.9922"/><text fill="#000000" font-family="sans-serif" font-size="11" font-weight="bold" lengthAdjust="spacing" textLength="55" x="15" y="431.4111">[Approve]</text><polygon fill="#181818" points="107,453.1797,97,457.1797,107,461.1797,103,457.1797" style="stroke:#181818;stroke-width:1.0;"/><line style="stroke:#181818;stroke-width:1.0;stroke-dasharray:2.0,2.0;" x1="101" x2="563" y1="457.1797" y2="457.1797"/><text fill="#000000" font-family="sans-serif" font-size="13" font-weight="bold" lengthAdjust="spacing" textLength="7" x="113" y="452.3232">8</text><text fill="#000000" font-family="sans-serif" font-size="13" lengthAdjust="spacing" textLength="135" x="124" y="452.3232">Confirms team approval</text><!--SRC=[fLDDRzim3BthLn0v9K2BtNiOC2o7NWOCyRKNrdf9jSYK9z9fjry_MNBI5kisREF182toVOYs7eECd7aWVM2V7eCSQCzHuPm5Yw3kcne6wl1rWlIWRU33tBxkkkt6EPuioJJS8vUyjvHfTJiDBBI3fYdtq3lvnC87v1MnqkrkgLnXjT27aSLeTTDeQajBArmuiU75ZBkaTFt-BEscS1LnQag6ekm0GMOBIMXVz30Pw_4PxGnF9HQ4wmBsZFm2RvxtRBpMOuXHIG0FVqL34DBm7INZfvfHsfCze2hOL6oFDodVTl0vfrFmqCfM-_v6xySa-v27DaqPFSPgdyMNogOiIcDEOrBuTaVh-XmmBqwlgDdx1ztTT3-4Sb6AYBvohZ-CXUg4TpjyAQyslpR3qQWrrNAEcD98arY8n0t6Nyv-ut-BFWR1ilysoR7QNpu6pBjxhEUl0F_BrHoGfX3bbw6boVr1xcLTh-IwCvpxUGC_0000]--></g></svg>