<?xml version="1.0" encoding="us-ascii" standalone="no"?><svg xmlns="http://www.w3.org/2000/svg" xmlns:xlink="http://www.w3.org/1999/xlink" contentStyleType="text/css" height="885px" preserveAspectRatio="none" style="width:1470px;height:885px;background:#FFFFFF;" version="1.1" viewBox="0 0 1470 885" width="1470px" zoomAndPan="magnify"><defs/><g><text fill="#000000" font-family="sans-serif" font-size="14" font-weight="bold" lengthAdjust="spacing" textLength="284" x="592" y="30.1074">System Sequence Diagram (SSD) - US007</text><rect fill="#FFFFFF" height="651.1113" style="stroke:#181818;stroke-width:1.0;" width="10" x="17.5" y="133.2422"/><rect fill="#FFFFFF" height="31.291" style="stroke:#181818;stroke-width:1.0;" width="10" x="390.5" y="156.5332"/><rect fill="#FFFFFF" height="31.291" style="stroke:#181818;stroke-width:1.0;" width="10" x="390.5" y="219.1152"/><rect fill="#FFFFFF" height="502.6563" style="stroke:#181818;stroke-width:1.0;" width="10" x="390.5" y="281.6973"/><rect fill="#FFFFFF" height="440.0742" style="stroke:#181818;stroke-width:1.0;" width="10" x="578.5" y="312.9883"/><rect fill="#FFFFFF" height="31.291" style="stroke:#181818;stroke-width:1.0;" width="10" x="733" y="344.2793"/><rect fill="#FFFFFF" height="31.291" style="stroke:#181818;stroke-width:1.0;" width="10" x="879" y="406.8613"/><rect fill="#FFFFFF" height="127.1641" style="stroke:#181818;stroke-width:1.0;" width="10" x="1042.5" y="469.4434"/><rect fill="#FFFFFF" height="31.291" style="stroke:#181818;stroke-width:1.0;" width="10" x="1224.5" y="527.0254"/><rect fill="#FFFFFF" height="93.873" style="stroke:#181818;stroke-width:1.0;" width="10" x="1224.5" y="627.8984"/><rect fill="#FFFFFF" height="31.291" style="stroke:#181818;stroke-width:1.0;" width="10" x="1421.5" y="659.1895"/><rect fill="none" height="81.873" style="stroke:#000000;stroke-width:1.5;" width="300" x="971.5" y="484.4434"/><line style="stroke:#181818;stroke-width:0.5;stroke-dasharray:5.0,5.0;" x1="22" x2="22" y1="123.2422" y2="802.3535"/><line style="stroke:#181818;stroke-width:0.5;stroke-dasharray:5.0,5.0;" x1="395.5" x2="395.5" y1="123.2422" y2="802.3535"/><line style="stroke:#181818;stroke-width:0.5;stroke-dasharray:5.0,5.0;" x1="583.5" x2="583.5" y1="123.2422" y2="802.3535"/><line style="stroke:#181818;stroke-width:0.5;stroke-dasharray:5.0,5.0;" x1="737.5" x2="737.5" y1="123.2422" y2="802.3535"/><line style="stroke:#181818;stroke-width:0.5;stroke-dasharray:5.0,5.0;" x1="883.5" x2="883.5" y1="123.2422" y2="802.3535"/><line style="stroke:#181818;stroke-width:0.5;stroke-dasharray:5.0,5.0;" x1="1047.5" x2="1047.5" y1="123.2422" y2="802.3535"/><line style="stroke:#181818;stroke-width:0.5;stroke-dasharray:5.0,5.0;" x1="1229.5" x2="1229.5" y1="123.2422" y2="802.3535"/><line style="stroke:#181818;stroke-width:0.5;stroke-dasharray:5.0,5.0;" x1="1426" x2="1426" y1="123.2422" y2="802.3535"/><text fill="#000000" font-family="sans-serif" font-size="14" lengthAdjust="spacing" textLength="29" x="5" y="119.7285">VFM</text><ellipse cx="22.5" cy="53.1211" fill="#E3E3E3" rx="8" ry="8" style="stroke:#181818;stroke-width:0.5;"/><path d="M22.5,61.1211 L22.5,88.1211 M9.5,69.1211 L35.5,69.1211 M22.5,88.1211 L9.5,103.1211 M22.5,88.1211 L35.5,103.1211 " fill="none" style="stroke:#181818;stroke-width:0.5;"/><text fill="#000000" font-family="sans-serif" font-size="14" lengthAdjust="spacing" textLength="29" x="5" y="816.4609">VFM</text><ellipse cx="22.5" cy="828.4746" fill="#E3E3E3" rx="8" ry="8" style="stroke:#181818;stroke-width:0.5;"/><path d="M22.5,836.4746 L22.5,863.4746 M9.5,844.4746 L35.5,844.4746 M22.5,863.4746 L9.5,878.4746 M22.5,863.4746 L35.5,878.4746 " fill="none" style="stroke:#181818;stroke-width:0.5;"/><rect fill="#E3E3E3" height="32.6211" rx="2.5" ry="2.5" style="stroke:#181818;stroke-width:0.5;" width="130" x="330.5" y="89.6211"/><text fill="#000000" font-family="sans-serif" font-size="14" lengthAdjust="spacing" textLength="116" x="337.5" y="111.7285">:CreateCheckUpUI</text><rect fill="#E3E3E3" height="32.6211" rx="2.5" ry="2.5" style="stroke:#181818;stroke-width:0.5;" width="130" x="330.5" y="801.3535"/><text fill="#000000" font-family="sans-serif" font-size="14" lengthAdjust="spacing" textLength="116" x="337.5" y="823.4609">:CreateCheckUpUI</text><rect fill="#E3E3E3" height="32.6211" rx="2.5" ry="2.5" style="stroke:#181818;stroke-width:0.5;" width="192" x="487.5" y="89.6211"/><text fill="#000000" font-family="sans-serif" font-size="14" lengthAdjust="spacing" textLength="178" x="494.5" y="111.7285">:CreateCheckUpUIController</text><rect fill="#E3E3E3" height="32.6211" rx="2.5" ry="2.5" style="stroke:#181818;stroke-width:0.5;" width="192" x="487.5" y="801.3535"/><text fill="#000000" font-family="sans-serif" font-size="14" lengthAdjust="spacing" textLength="178" x="494.5" y="823.4609">:CreateCheckUpUIController</text><rect fill="#E3E3E3" height="32.6211" rx="2.5" ry="2.5" style="stroke:#181818;stroke-width:0.5;" width="97" x="689.5" y="89.6211"/><text fill="#000000" font-family="sans-serif" font-size="14" lengthAdjust="spacing" textLength="83" x="696.5" y="111.7285">:Repositories</text><rect fill="#E3E3E3" height="32.6211" rx="2.5" ry="2.5" style="stroke:#181818;stroke-width:0.5;" width="97" x="689.5" y="801.3535"/><text fill="#000000" font-family="sans-serif" font-size="14" lengthAdjust="spacing" textLength="83" x="696.5" y="823.4609">:Repositories</text><rect fill="#E3E3E3" height="32.6211" rx="2.5" ry="2.5" style="stroke:#181818;stroke-width:0.5;" width="175" x="796.5" y="89.6211"/><text fill="#000000" font-family="sans-serif" font-size="14" lengthAdjust="spacing" textLength="161" x="803.5" y="111.7285">:repositories:Repositories</text><rect fill="#E3E3E3" height="32.6211" rx="2.5" ry="2.5" style="stroke:#181818;stroke-width:0.5;" width="175" x="796.5" y="801.3535"/><text fill="#000000" font-family="sans-serif" font-size="14" lengthAdjust="spacing" textLength="161" x="803.5" y="823.4609">:repositories:Repositories</text><rect fill="#E3E3E3" height="32.6211" rx="2.5" ry="2.5" style="stroke:#181818;stroke-width:0.5;" width="132" x="981.5" y="89.6211"/><text fill="#000000" font-family="sans-serif" font-size="14" lengthAdjust="spacing" textLength="118" x="988.5" y="111.7285">:VehicleRepository</text><rect fill="#E3E3E3" height="32.6211" rx="2.5" ry="2.5" style="stroke:#181818;stroke-width:0.5;" width="132" x="981.5" y="801.3535"/><text fill="#000000" font-family="sans-serif" font-size="14" lengthAdjust="spacing" textLength="118" x="988.5" y="823.4609">:VehicleRepository</text><rect fill="#E3E3E3" height="32.6211" rx="2.5" ry="2.5" style="stroke:#181818;stroke-width:0.5;" width="64" x="1197.5" y="89.6211"/><text fill="#000000" font-family="sans-serif" font-size="14" lengthAdjust="spacing" textLength="50" x="1204.5" y="111.7285">:Vehicle</text><rect fill="#E3E3E3" height="32.6211" rx="2.5" ry="2.5" style="stroke:#181818;stroke-width:0.5;" width="64" x="1197.5" y="801.3535"/><text fill="#000000" font-family="sans-serif" font-size="14" lengthAdjust="spacing" textLength="50" x="1204.5" y="823.4609">:Vehicle</text><rect fill="#E3E3E3" height="32.6211" rx="2.5" ry="2.5" style="stroke:#181818;stroke-width:0.5;" width="75" x="1389" y="89.6211"/><text fill="#000000" font-family="sans-serif" font-size="14" lengthAdjust="spacing" textLength="61" x="1396" y="111.7285">:CheckUp</text><rect fill="#E3E3E3" height="32.6211" rx="2.5" ry="2.5" style="stroke:#181818;stroke-width:0.5;" width="75" x="1389" y="801.3535"/><text fill="#000000" font-family="sans-serif" font-size="14" lengthAdjust="spacing" textLength="61" x="1396" y="823.4609">:CheckUp</text><rect fill="#FFFFFF" height="651.1113" style="stroke:#181818;stroke-width:1.0;" width="10" x="17.5" y="133.2422"/><rect fill="#FFFFFF" height="31.291" style="stroke:#181818;stroke-width:1.0;" width="10" x="390.5" y="156.5332"/><rect fill="#FFFFFF" height="31.291" style="stroke:#181818;stroke-width:1.0;" width="10" x="390.5" y="219.1152"/><rect fill="#FFFFFF" height="502.6563" style="stroke:#181818;stroke-width:1.0;" width="10" x="390.5" y="281.6973"/><rect fill="#FFFFFF" height="440.0742" style="stroke:#181818;stroke-width:1.0;" width="10" x="578.5" y="312.9883"/><rect fill="#FFFFFF" height="31.291" style="stroke:#181818;stroke-width:1.0;" width="10" x="733" y="344.2793"/><rect fill="#FFFFFF" height="31.291" style="stroke:#181818;stroke-width:1.0;" width="10" x="879" y="406.8613"/><rect fill="#FFFFFF" height="127.1641" style="stroke:#181818;stroke-width:1.0;" width="10" x="1042.5" y="469.4434"/><rect fill="#FFFFFF" height="31.291" style="stroke:#181818;stroke-width:1.0;" width="10" x="1224.5" y="527.0254"/><rect fill="#FFFFFF" height="93.873" style="stroke:#181818;stroke-width:1.0;" width="10" x="1224.5" y="627.8984"/><rect fill="#FFFFFF" height="31.291" style="stroke:#181818;stroke-width:1.0;" width="10" x="1421.5" y="659.1895"/><polygon fill="#181818" points="378.5,152.5332,388.5,156.5332,378.5,160.5332,382.5,156.5332" style="stroke:#181818;stroke-width:1.0;"/><line style="stroke:#181818;stroke-width:1.0;" x1="27.5" x2="384.5" y1="156.5332" y2="156.5332"/><text fill="#000000" font-family="sans-serif" font-size="13" font-weight="bold" lengthAdjust="spacing" textLength="7" x="34.5" y="151.2705">1</text><text fill="#000000" font-family="sans-serif" font-size="13" lengthAdjust="spacing" textLength="255" x="45.5" y="151.2705">asks to register a new vehicle for check's up</text><polygon fill="#181818" points="38.5,183.8242,28.5,187.8242,38.5,191.8242,34.5,187.8242" style="stroke:#181818;stroke-width:1.0;"/><line style="stroke:#181818;stroke-width:1.0;stroke-dasharray:2.0,2.0;" x1="32.5" x2="394.5" y1="187.8242" y2="187.8242"/><text fill="#000000" font-family="sans-serif" font-size="13" font-weight="bold" lengthAdjust="spacing" textLength="7" x="44.5" y="182.5615">2</text><text fill="#000000" font-family="sans-serif" font-size="13" lengthAdjust="spacing" textLength="328" x="55.5" y="182.5615">requests data (Vehicle ID, current km's, check's up date)</text><polygon fill="#181818" points="378.5,215.1152,388.5,219.1152,378.5,223.1152,382.5,219.1152" style="stroke:#181818;stroke-width:1.0;"/><line style="stroke:#181818;stroke-width:1.0;" x1="27.5" x2="384.5" y1="219.1152" y2="219.1152"/><text fill="#000000" font-family="sans-serif" font-size="13" font-weight="bold" lengthAdjust="spacing" textLength="7" x="34.5" y="213.8525">3</text><text fill="#000000" font-family="sans-serif" font-size="13" lengthAdjust="spacing" textLength="122" x="45.5" y="213.8525">types requested data</text><polygon fill="#181818" points="38.5,246.4063,28.5,250.4063,38.5,254.4063,34.5,250.4063" style="stroke:#181818;stroke-width:1.0;"/><line style="stroke:#181818;stroke-width:1.0;stroke-dasharray:2.0,2.0;" x1="32.5" x2="394.5" y1="250.4063" y2="250.4063"/><text fill="#000000" font-family="sans-serif" font-size="13" font-weight="bold" lengthAdjust="spacing" textLength="7" x="44.5" y="245.1436">4</text><text fill="#000000" font-family="sans-serif" font-size="13" lengthAdjust="spacing" textLength="236" x="55.5" y="245.1436">shows all data and requests confirmation</text><polygon fill="#181818" points="378.5,277.6973,388.5,281.6973,378.5,285.6973,382.5,281.6973" style="stroke:#181818;stroke-width:1.0;"/><line style="stroke:#181818;stroke-width:1.0;" x1="27.5" x2="384.5" y1="281.6973" y2="281.6973"/><text fill="#000000" font-family="sans-serif" font-size="13" font-weight="bold" lengthAdjust="spacing" textLength="7" x="34.5" y="276.4346">5</text><text fill="#000000" font-family="sans-serif" font-size="13" lengthAdjust="spacing" textLength="78" x="45.5" y="276.4346">confirms data</text><polygon fill="#181818" points="566.5,308.9883,576.5,312.9883,566.5,316.9883,570.5,312.9883" style="stroke:#181818;stroke-width:1.0;"/><line style="stroke:#181818;stroke-width:1.0;" x1="400.5" x2="572.5" y1="312.9883" y2="312.9883"/><text fill="#000000" font-family="sans-serif" font-size="13" font-weight="bold" lengthAdjust="spacing" textLength="7" x="407.5" y="307.7256">6</text><text fill="#000000" font-family="sans-serif" font-size="13" lengthAdjust="spacing" textLength="148" x="418.5" y="307.7256">createCheckUp(vehicleID)</text><polygon fill="#181818" points="721,340.2793,731,344.2793,721,348.2793,725,344.2793" style="stroke:#181818;stroke-width:1.0;"/><line style="stroke:#181818;stroke-width:1.0;" x1="588.5" x2="727" y1="344.2793" y2="344.2793"/><text fill="#000000" font-family="sans-serif" font-size="13" font-weight="bold" lengthAdjust="spacing" textLength="7" x="595.5" y="339.0166">7</text><text fill="#000000" font-family="sans-serif" font-size="13" lengthAdjust="spacing" textLength="75" x="606.5" y="339.0166">getInstance()</text><polygon fill="#181818" points="599.5,371.5703,589.5,375.5703,599.5,379.5703,595.5,375.5703" style="stroke:#181818;stroke-width:1.0;"/><line style="stroke:#181818;stroke-width:1.0;stroke-dasharray:2.0,2.0;" x1="593.5" x2="737" y1="375.5703" y2="375.5703"/><text fill="#000000" font-family="sans-serif" font-size="13" font-weight="bold" lengthAdjust="spacing" textLength="7" x="605.5" y="370.3076">8</text><text fill="#000000" font-family="sans-serif" font-size="13" lengthAdjust="spacing" textLength="67" x="616.5" y="370.3076">repositories</text><polygon fill="#181818" points="867,402.8613,877,406.8613,867,410.8613,871,406.8613" style="stroke:#181818;stroke-width:1.0;"/><line style="stroke:#181818;stroke-width:1.0;" x1="588.5" x2="873" y1="406.8613" y2="406.8613"/><text fill="#000000" font-family="sans-serif" font-size="13" font-weight="bold" lengthAdjust="spacing" textLength="7" x="595.5" y="401.5986">9</text><text fill="#000000" font-family="sans-serif" font-size="13" lengthAdjust="spacing" textLength="130" x="606.5" y="401.5986">getVehiclesRepository</text><polygon fill="#181818" points="599.5,434.1523,589.5,438.1523,599.5,442.1523,595.5,438.1523" style="stroke:#181818;stroke-width:1.0;"/><line style="stroke:#181818;stroke-width:1.0;stroke-dasharray:2.0,2.0;" x1="593.5" x2="883" y1="438.1523" y2="438.1523"/><text fill="#000000" font-family="sans-serif" font-size="13" font-weight="bold" lengthAdjust="spacing" textLength="14" x="605.5" y="432.8896">10</text><text fill="#000000" font-family="sans-serif" font-size="13" lengthAdjust="spacing" textLength="109" x="623.5" y="432.8896">vehicleRepository()</text><polygon fill="#181818" points="1030.5,465.4434,1040.5,469.4434,1030.5,473.4434,1034.5,469.4434" style="stroke:#181818;stroke-width:1.0;"/><line style="stroke:#181818;stroke-width:1.0;" x1="588.5" x2="1036.5" y1="469.4434" y2="469.4434"/><text fill="#000000" font-family="sans-serif" font-size="13" font-weight="bold" lengthAdjust="spacing" textLength="14" x="595.5" y="464.1807">11</text><text fill="#000000" font-family="sans-serif" font-size="13" lengthAdjust="spacing" textLength="176" x="613.5" y="464.1807">getVehicleByPlateId(vehicleID)</text><path d="M971.5,484.4434 L1044.5,484.4434 L1044.5,493.7344 L1034.5,503.7344 L971.5,503.7344 L971.5,484.4434 " fill="#EEEEEE" style="stroke:#000000;stroke-width:1.5;"/><rect fill="none" height="81.873" style="stroke:#000000;stroke-width:1.5;" width="300" x="971.5" y="484.4434"/><text fill="#000000" font-family="sans-serif" font-size="13" font-weight="bold" lengthAdjust="spacing" textLength="28" x="986.5" y="499.4717">loop</text><text fill="#000000" font-family="sans-serif" font-size="11" font-weight="bold" lengthAdjust="spacing" textLength="95" x="1059.5" y="498.3135">[for each vehicle]</text><polygon fill="#181818" points="1212.5,523.0254,1222.5,527.0254,1212.5,531.0254,1216.5,527.0254" style="stroke:#181818;stroke-width:1.0;"/><line style="stroke:#181818;stroke-width:1.0;" x1="1052.5" x2="1218.5" y1="527.0254" y2="527.0254"/><text fill="#000000" font-family="sans-serif" font-size="13" font-weight="bold" lengthAdjust="spacing" textLength="14" x="1059.5" y="521.7627">12</text><text fill="#000000" font-family="sans-serif" font-size="13" lengthAdjust="spacing" textLength="135" x="1077.5" y="521.7627">vehicleExists(vehicleID)</text><polygon fill="#181818" points="1063.5,554.3164,1053.5,558.3164,1063.5,562.3164,1059.5,558.3164" style="stroke:#181818;stroke-width:1.0;"/><line style="stroke:#181818;stroke-width:1.0;" x1="1057.5" x2="1228.5" y1="558.3164" y2="558.3164"/><text fill="#000000" font-family="sans-serif" font-size="13" font-weight="bold" lengthAdjust="spacing" textLength="14" x="1069.5" y="553.0537">13</text><text fill="#000000" font-family="sans-serif" font-size="13" lengthAdjust="spacing" textLength="53" x="1087.5" y="553.0537">true/false</text><polygon fill="#181818" points="599.5,592.6074,589.5,596.6074,599.5,600.6074,595.5,596.6074" style="stroke:#181818;stroke-width:1.0;"/><line style="stroke:#181818;stroke-width:1.0;stroke-dasharray:2.0,2.0;" x1="593.5" x2="1046.5" y1="596.6074" y2="596.6074"/><text fill="#000000" font-family="sans-serif" font-size="13" font-weight="bold" lengthAdjust="spacing" textLength="14" x="605.5" y="591.3447">14</text><text fill="#000000" font-family="sans-serif" font-size="13" lengthAdjust="spacing" textLength="51" x="623.5" y="591.3447">vehicleID</text><polygon fill="#181818" points="1212.5,623.8984,1222.5,627.8984,1212.5,631.8984,1216.5,627.8984" style="stroke:#181818;stroke-width:1.0;"/><line style="stroke:#181818;stroke-width:1.0;" x1="588.5" x2="1218.5" y1="627.8984" y2="627.8984"/><text fill="#000000" font-family="sans-serif" font-size="13" font-weight="bold" lengthAdjust="spacing" textLength="14" x="595.5" y="622.6357">15</text><text fill="#000000" font-family="sans-serif" font-size="13" lengthAdjust="spacing" textLength="148" x="613.5" y="622.6357">createCheckUp(vehicleID)</text><polygon fill="#181818" points="1409.5,655.1895,1419.5,659.1895,1409.5,663.1895,1413.5,659.1895" style="stroke:#181818;stroke-width:1.0;"/><line style="stroke:#181818;stroke-width:1.0;" x1="1234.5" x2="1415.5" y1="659.1895" y2="659.1895"/><text fill="#000000" font-family="sans-serif" font-size="13" font-weight="bold" lengthAdjust="spacing" textLength="14" x="1241.5" y="653.9268">16</text><text fill="#000000" font-family="sans-serif" font-size="13" lengthAdjust="spacing" textLength="150" x="1259.5" y="653.9268">createCheckUP(vehicleID)</text><polygon fill="#181818" points="1245.5,686.4805,1235.5,690.4805,1245.5,694.4805,1241.5,690.4805" style="stroke:#181818;stroke-width:1.0;"/><line style="stroke:#181818;stroke-width:1.0;stroke-dasharray:2.0,2.0;" x1="1239.5" x2="1425.5" y1="690.4805" y2="690.4805"/><text fill="#000000" font-family="sans-serif" font-size="13" font-weight="bold" lengthAdjust="spacing" textLength="14" x="1251.5" y="685.2178">17</text><text fill="#000000" font-family="sans-serif" font-size="13" lengthAdjust="spacing" textLength="53" x="1269.5" y="685.2178">check up</text><polygon fill="#181818" points="599.5,717.7715,589.5,721.7715,599.5,725.7715,595.5,721.7715" style="stroke:#181818;stroke-width:1.0;"/><line style="stroke:#181818;stroke-width:1.0;stroke-dasharray:2.0,2.0;" x1="593.5" x2="1228.5" y1="721.7715" y2="721.7715"/><text fill="#000000" font-family="sans-serif" font-size="13" font-weight="bold" lengthAdjust="spacing" textLength="14" x="605.5" y="716.5088">18</text><text fill="#000000" font-family="sans-serif" font-size="13" lengthAdjust="spacing" textLength="53" x="623.5" y="716.5088">check up</text><polygon fill="#181818" points="411.5,749.0625,401.5,753.0625,411.5,757.0625,407.5,753.0625" style="stroke:#181818;stroke-width:1.0;"/><line style="stroke:#181818;stroke-width:1.0;stroke-dasharray:2.0,2.0;" x1="405.5" x2="582.5" y1="753.0625" y2="753.0625"/><text fill="#000000" font-family="sans-serif" font-size="13" font-weight="bold" lengthAdjust="spacing" textLength="14" x="417.5" y="747.7998">19</text><text fill="#000000" font-family="sans-serif" font-size="13" lengthAdjust="spacing" textLength="53" x="435.5" y="747.7998">check up</text><polygon fill="#181818" points="33.5,780.3535,23.5,784.3535,33.5,788.3535,29.5,784.3535" style="stroke:#181818;stroke-width:1.0;"/><line style="stroke:#181818;stroke-width:1.0;stroke-dasharray:2.0,2.0;" x1="27.5" x2="394.5" y1="784.3535" y2="784.3535"/><text fill="#000000" font-family="sans-serif" font-size="13" font-weight="bold" lengthAdjust="spacing" textLength="14" x="39.5" y="779.0908">20</text><text fill="#000000" font-family="sans-serif" font-size="13" lengthAdjust="spacing" textLength="158" x="57.5" y="779.0908">displays operation success</text><!--SRC=[xLXBRziu4BxhLn2zo0uSR6yB1DW2Zksa1b8aaE9S6c31I8mjHAAqefpKY_xu7P9wa1GfgS5kJgjBwsZccs-6mtc8lIIqm2NEK9RJF3gKUKPGLHw9nzet1OvUy9w4rIabg2HHXUa-LGNO0SVvMqBtw1cdZ7WUFbOvFMPFfFIyAgb0BJonYcGe97yT2Oq8MYTuprLdORYUetEq2pz__XqKeoelqQU7gs-V46PekVxcUM2ZIgAamBH2dovM9S4LMHr8zB8hTbiXjjiE2wroMfLvcf9IYA_kWnj38I15pXAmdH0cPCB0a2WLYRvuO8e_a4CIfQGLF0cn1uUOVBdvkbtTR4nNf1EI-4v4A7a5vsHi43pm7tJ-1OA0Ba3eXQ4gXrFQ9n3m4c54oHjwbMRGCmGtue0-GyT2ghU044LKFu1r3f0S-GAmuCnOnL2CAuncDMMqNIzGT2nB0ZHVCfyj56GkIkO2BYQgWHxXwbGGrfWWiR0nZHOxv6yCuJILl32DEwPHJf-JCiDLajCfB6fvDcx-YyWUhgAcsAmEy7OzRwLR195kxP_v8o00AWm0Q4-gBMLmfo8oc-joBGHa8p8Uq3tlsAZPgOagZbj06Y91JQG-MzQbhPrFq8SAD3wlPlhFvYvQWPlMWqxhydINWiOsLiFjY1ZSDEr5ckU5I7ymV6ZezGo3GMvMNiJEZSqFk4pCTiXzk_KbHfQdmMqyusNsDranJL4bFZP4GcChzzu1RDUUA-uFWJKdE-T7C_oN0s04ORKphDoDMT7lrSuf8npQYNWe_d0RlEovD9JW362t3YYrO0Xvv2XbtDj2P2Afd7WTiPR2E655YayCvGKfHT53x1X5X37FLlsKdwA9UBxd-uSavlqXhvxo7_2pRiItvHxJv6-9kScAD3yHqhPctzPrxw47TNtPAMBhoVv8K-xAIPZm4GI634D7hOEFj8zmTxEyDrGgJWP8xG6sCt3nIE-jBmIC_PN9VraKQHA9s8Lm5l2FKFvpUNTdYEAYg2M0j4EjhrLttqvpnqYfgeIRC5pU6bgvSgIQlxVM5mB8_ce06CYeEX8akBQ47YHvD6LOby7cQidJKKjG-DsalMtMaHMaddGufAgW9ZvFS_Ng3Kqv9Nac9PzK5t1xM5Gc1VTZWL12eOjaE4MFL7zJaUX0uTnI_S_nKTv868zoLiqzZO5VSvVPRtAJzUNihAsIgcEzWGJwf9AMaF0pmvXUI0meRHheNxFUdE8xoxBralRbnSnWCTIKLMEcyGVAwaIBZNky1lJYTT965RTtie3OtH707V_AKIG6F76XDzJjXASSlkQ4gtpPtN8OLVgVwkaDZ4g3FauthhV6OIDcdxJS56Dpu7WegW5H2eXme_aMqTGLbXBOTL5EIOUbTzBQY5gK64b12VOI7LyAMdI7wv2K6JLgMwBS9UoHjZLiGW5xfDOADiKL6MSP4M3LnbfPrPgDRvgVxFYK9Lfe1cWOcnfFEoKau9RcP1EIjVRNDYJhWOXmEIKt5T6vfG_PihEvtjPAVhfK8MVZflwlzHzMwwqLy6Dh_RlIuyEwmRiwWNMRQth1g96HJl3pvy-nozViELTbdjNZzBjdAJxiJxzFSZMm-S_VeFQwTFl2O80bt12zXjrAMoK6ETQODfA2OqjINqy6YJems-zaOe-vG2J3IOh-u8JvghFXFmUvDWkGdQvygp0M-8D4Ey3XcYE2Qj-QPiBAlpHZvex5R4BTSJjWvzrpwVBKN1Hv4AD-kRP8kwVYYzttzfETwgbTWJzs4yAfu9hlZBGb_HMpOTvz_do1TSj90c3ct1b3_QEVF-53bB1fa-6V0FrV2K5NueP3gHgVV61jwWJNMWdbEJ8jDzonRK9QioSrz31pEvpPHUnOx-qWmdbbscpG5yWnYjl7JZHjwaGBhGakMcTShSeH4n7UB_MtbxEpneF_clqaxWe_4LmSnpooI8mvStiL6xywAk8hJfEuER0QTRm8ZDv-bz1uYex2Z4CO5yRy93OEeYpUZVhW_R1lseFVfUqBd_5b-Xy0]--></g></svg>