<?xml version="1.0" encoding="us-ascii" standalone="no"?><svg xmlns="http://www.w3.org/2000/svg" xmlns:xlink="http://www.w3.org/1999/xlink" contentStyleType="text/css" height="1367px" preserveAspectRatio="none" style="width:2403px;height:1367px;background:#FFFFFF;" version="1.1" viewBox="0 0 2403 1367" width="2403px" zoomAndPan="magnify"><defs/><g><!--class TaskCompletionUI--><g id="elem_TaskCompletionUI"><rect codeLine="12" fill="#F1F1F1" height="103.8633" id="TaskCompletionUI" rx="2.5" ry="2.5" style="stroke:#181818;stroke-width:0.5;" width="237" x="7" y="7"/><ellipse cx="64.25" cy="23" fill="#ADD1B2" rx="11" ry="11" style="stroke:#181818;stroke-width:1.0;"/><path d="M67.0156,18.875 Q67.1719,18.6563 67.3594,18.5469 Q67.5469,18.4375 67.7656,18.4375 Q68.1406,18.4375 68.375,18.7031 Q68.6094,18.9531 68.6094,19.5625 L68.6094,21.0156 Q68.6094,21.625 68.375,21.8906 Q68.1406,22.1563 67.7656,22.1563 Q67.4219,22.1563 67.2188,21.9531 Q67.0156,21.7656 66.9063,21.25 Q66.8594,20.8906 66.6719,20.7031 Q66.3438,20.3281 65.7344,20.1094 Q65.125,19.8906 64.5,19.8906 Q63.7344,19.8906 63.0938,20.2188 Q62.4688,20.5469 61.9688,21.2969 Q61.4844,22.0469 61.4844,23.0781 L61.4844,24.1719 Q61.4844,25.4063 62.375,26.2344 Q63.2656,27.0469 64.8594,27.0469 Q65.7969,27.0469 66.4531,26.7969 Q66.8438,26.6406 67.2656,26.2031 Q67.5313,25.9375 67.6719,25.8594 Q67.8281,25.7813 68.0313,25.7813 Q68.3594,25.7813 68.6094,26.0469 Q68.875,26.2969 68.875,26.6406 Q68.875,26.9844 68.5313,27.3906 Q68.0313,27.9688 67.2344,28.2969 Q66.1563,28.75 64.8594,28.75 Q63.3438,28.75 62.1406,28.125 Q61.1563,27.625 60.4688,26.5625 Q59.7813,25.4844 59.7813,24.2031 L59.7813,23.0469 Q59.7813,21.7188 60.3906,20.5781 Q61.0156,19.4219 62.1094,18.8125 Q63.2031,18.1875 64.4375,18.1875 Q65.1719,18.1875 65.8125,18.3594 Q66.4688,18.5156 67.0156,18.875 Z " fill="#000000"/><text fill="#000000" font-family="sans-serif" font-size="14" lengthAdjust="spacing" textLength="114" x="84.75" y="28.7969">TaskCompletionUI</text><line style="stroke:#181818;stroke-width:0.5;" x1="8" x2="243" y1="39" y2="39"/><line style="stroke:#181818;stroke-width:0.5;" x1="8" x2="243" y1="47" y2="47"/><text fill="#000000" font-family="sans-serif" font-size="14" lengthAdjust="spacing" textLength="225" x="13" y="66.1074">+displayTaskList(tasks: List&lt;Task&gt;)</text><text fill="#000000" font-family="sans-serif" font-size="14" lengthAdjust="spacing" textLength="138" x="13" y="84.7285">+requestDateRange()</text><text fill="#000000" font-family="sans-serif" font-size="14" lengthAdjust="spacing" textLength="169" x="13" y="103.3496">+requestTaskStatusFilter()</text></g><!--class TaskCompletionController--><g id="elem_TaskCompletionController"><rect codeLine="18" fill="#F1F1F1" height="85.2422" id="TaskCompletionController" rx="2.5" ry="2.5" style="stroke:#181818;stroke-width:0.5;" width="409" x="279" y="16.5"/><ellipse cx="397.25" cy="32.5" fill="#ADD1B2" rx="11" ry="11" style="stroke:#181818;stroke-width:1.0;"/><path d="M400.0156,28.375 Q400.1719,28.1563 400.3594,28.0469 Q400.5469,27.9375 400.7656,27.9375 Q401.1406,27.9375 401.375,28.2031 Q401.6094,28.4531 401.6094,29.0625 L401.6094,30.5156 Q401.6094,31.125 401.375,31.3906 Q401.1406,31.6563 400.7656,31.6563 Q400.4219,31.6563 400.2188,31.4531 Q400.0156,31.2656 399.9063,30.75 Q399.8594,30.3906 399.6719,30.2031 Q399.3438,29.8281 398.7344,29.6094 Q398.125,29.3906 397.5,29.3906 Q396.7344,29.3906 396.0938,29.7188 Q395.4688,30.0469 394.9688,30.7969 Q394.4844,31.5469 394.4844,32.5781 L394.4844,33.6719 Q394.4844,34.9063 395.375,35.7344 Q396.2656,36.5469 397.8594,36.5469 Q398.7969,36.5469 399.4531,36.2969 Q399.8438,36.1406 400.2656,35.7031 Q400.5313,35.4375 400.6719,35.3594 Q400.8281,35.2813 401.0313,35.2813 Q401.3594,35.2813 401.6094,35.5469 Q401.875,35.7969 401.875,36.1406 Q401.875,36.4844 401.5313,36.8906 Q401.0313,37.4688 400.2344,37.7969 Q399.1563,38.25 397.8594,38.25 Q396.3438,38.25 395.1406,37.625 Q394.1563,37.125 393.4688,36.0625 Q392.7813,34.9844 392.7813,33.7031 L392.7813,32.5469 Q392.7813,31.2188 393.3906,30.0781 Q394.0156,28.9219 395.1094,28.3125 Q396.2031,27.6875 397.4375,27.6875 Q398.1719,27.6875 398.8125,27.8594 Q399.4688,28.0156 400.0156,28.375 Z " fill="#000000"/><text fill="#000000" font-family="sans-serif" font-size="14" lengthAdjust="spacing" textLength="164" x="417.75" y="38.2969">TaskCompletionController</text><line style="stroke:#181818;stroke-width:0.5;" x1="280" x2="687" y1="48.5" y2="48.5"/><line style="stroke:#181818;stroke-width:0.5;" x1="280" x2="687" y1="56.5" y2="56.5"/><text fill="#000000" font-family="sans-serif" font-size="14" lengthAdjust="spacing" textLength="397" x="285" y="75.6074">+TaskCompletionController(employeeRepository, userSession)</text><text fill="#000000" font-family="sans-serif" font-size="14" lengthAdjust="spacing" textLength="370" x="285" y="94.2285">+recordTaskCompletion(task: Task, completionDate: Date)</text></g><!--class Repositories--><g id="elem_Repositories"><rect codeLine="23" fill="#F1F1F1" height="103.8633" id="Repositories" rx="2.5" ry="2.5" style="stroke:#181818;stroke-width:0.5;" width="322" x="791.5" y="7"/><ellipse cx="908.75" cy="23" fill="#ADD1B2" rx="11" ry="11" style="stroke:#181818;stroke-width:1.0;"/><path d="M911.5156,18.875 Q911.6719,18.6563 911.8594,18.5469 Q912.0469,18.4375 912.2656,18.4375 Q912.6406,18.4375 912.875,18.7031 Q913.1094,18.9531 913.1094,19.5625 L913.1094,21.0156 Q913.1094,21.625 912.875,21.8906 Q912.6406,22.1563 912.2656,22.1563 Q911.9219,22.1563 911.7188,21.9531 Q911.5156,21.7656 911.4063,21.25 Q911.3594,20.8906 911.1719,20.7031 Q910.8438,20.3281 910.2344,20.1094 Q909.625,19.8906 909,19.8906 Q908.2344,19.8906 907.5938,20.2188 Q906.9688,20.5469 906.4688,21.2969 Q905.9844,22.0469 905.9844,23.0781 L905.9844,24.1719 Q905.9844,25.4063 906.875,26.2344 Q907.7656,27.0469 909.3594,27.0469 Q910.2969,27.0469 910.9531,26.7969 Q911.3438,26.6406 911.7656,26.2031 Q912.0313,25.9375 912.1719,25.8594 Q912.3281,25.7813 912.5313,25.7813 Q912.8594,25.7813 913.1094,26.0469 Q913.375,26.2969 913.375,26.6406 Q913.375,26.9844 913.0313,27.3906 Q912.5313,27.9688 911.7344,28.2969 Q910.6563,28.75 909.3594,28.75 Q907.8438,28.75 906.6406,28.125 Q905.6563,27.625 904.9688,26.5625 Q904.2813,25.4844 904.2813,24.2031 L904.2813,23.0469 Q904.2813,21.7188 904.8906,20.5781 Q905.5156,19.4219 906.6094,18.8125 Q907.7031,18.1875 908.9375,18.1875 Q909.6719,18.1875 910.3125,18.3594 Q910.9688,18.5156 911.5156,18.875 Z " fill="#000000"/><text fill="#000000" font-family="sans-serif" font-size="14" lengthAdjust="spacing" textLength="79" x="929.25" y="28.7969">Repositories</text><line style="stroke:#181818;stroke-width:0.5;" x1="792.5" x2="1112.5" y1="39" y2="39"/><line style="stroke:#181818;stroke-width:0.5;" x1="792.5" x2="1112.5" y1="47" y2="47"/><text fill="#000000" font-family="sans-serif" font-size="14" lengthAdjust="spacing" textLength="94" x="797.5" y="66.1074">-Repositories()</text><text fill="#000000" font-family="sans-serif" font-size="14" lengthAdjust="spacing" textLength="182" x="797.5" y="84.7285">+getInstance() : Repositories</text><text fill="#000000" font-family="sans-serif" font-size="14" lengthAdjust="spacing" textLength="310" x="797.5" y="103.3496">+getEmployeeRepository() : EmployeeRepository</text></g><!--class OrganizationRepository--><g id="elem_OrganizationRepository"><rect codeLine="30" fill="#F1F1F1" height="66.6211" id="OrganizationRepository" rx="2.5" ry="2.5" style="stroke:#181818;stroke-width:0.5;" width="242" x="975.5" y="181"/><ellipse cx="1018.4" cy="197" fill="#ADD1B2" rx="11" ry="11" style="stroke:#181818;stroke-width:1.0;"/><path d="M1021.1656,192.875 Q1021.3219,192.6563 1021.5094,192.5469 Q1021.6969,192.4375 1021.9156,192.4375 Q1022.2906,192.4375 1022.525,192.7031 Q1022.7594,192.9531 1022.7594,193.5625 L1022.7594,195.0156 Q1022.7594,195.625 1022.525,195.8906 Q1022.2906,196.1563 1021.9156,196.1563 Q1021.5719,196.1563 1021.3688,195.9531 Q1021.1656,195.7656 1021.0563,195.25 Q1021.0094,194.8906 1020.8219,194.7031 Q1020.4938,194.3281 1019.8844,194.1094 Q1019.275,193.8906 1018.65,193.8906 Q1017.8844,193.8906 1017.2438,194.2188 Q1016.6188,194.5469 1016.1188,195.2969 Q1015.6344,196.0469 1015.6344,197.0781 L1015.6344,198.1719 Q1015.6344,199.4063 1016.525,200.2344 Q1017.4156,201.0469 1019.0094,201.0469 Q1019.9469,201.0469 1020.6031,200.7969 Q1020.9938,200.6406 1021.4156,200.2031 Q1021.6813,199.9375 1021.8219,199.8594 Q1021.9781,199.7813 1022.1813,199.7813 Q1022.5094,199.7813 1022.7594,200.0469 Q1023.025,200.2969 1023.025,200.6406 Q1023.025,200.9844 1022.6813,201.3906 Q1022.1813,201.9688 1021.3844,202.2969 Q1020.3063,202.75 1019.0094,202.75 Q1017.4938,202.75 1016.2906,202.125 Q1015.3063,201.625 1014.6188,200.5625 Q1013.9313,199.4844 1013.9313,198.2031 L1013.9313,197.0469 Q1013.9313,195.7188 1014.5406,194.5781 Q1015.1656,193.4219 1016.2594,192.8125 Q1017.3531,192.1875 1018.5875,192.1875 Q1019.3219,192.1875 1019.9625,192.3594 Q1020.6188,192.5156 1021.1656,192.875 Z " fill="#000000"/><text fill="#000000" font-family="sans-serif" font-size="14" lengthAdjust="spacing" textLength="148" x="1038.6" y="202.7969">OrganizationRepository</text><line style="stroke:#181818;stroke-width:0.5;" x1="976.5" x2="1216.5" y1="213" y2="213"/><line style="stroke:#181818;stroke-width:0.5;" x1="976.5" x2="1216.5" y1="221" y2="221"/><text fill="#000000" font-family="sans-serif" font-size="14" lengthAdjust="spacing" textLength="230" x="981.5" y="240.1074">+getOrganizationByUserEmail(email)</text></g><!--class Organization--><g id="elem_Organization"><rect codeLine="34" fill="#F1F1F1" height="178.3477" id="Organization" rx="2.5" ry="2.5" style="stroke:#181818;stroke-width:0.5;" width="465" x="948" y="336"/><ellipse cx="1136.25" cy="352" fill="#ADD1B2" rx="11" ry="11" style="stroke:#181818;stroke-width:1.0;"/><path d="M1139.0156,347.875 Q1139.1719,347.6563 1139.3594,347.5469 Q1139.5469,347.4375 1139.7656,347.4375 Q1140.1406,347.4375 1140.375,347.7031 Q1140.6094,347.9531 1140.6094,348.5625 L1140.6094,350.0156 Q1140.6094,350.625 1140.375,350.8906 Q1140.1406,351.1563 1139.7656,351.1563 Q1139.4219,351.1563 1139.2188,350.9531 Q1139.0156,350.7656 1138.9063,350.25 Q1138.8594,349.8906 1138.6719,349.7031 Q1138.3438,349.3281 1137.7344,349.1094 Q1137.125,348.8906 1136.5,348.8906 Q1135.7344,348.8906 1135.0938,349.2188 Q1134.4688,349.5469 1133.9688,350.2969 Q1133.4844,351.0469 1133.4844,352.0781 L1133.4844,353.1719 Q1133.4844,354.4063 1134.375,355.2344 Q1135.2656,356.0469 1136.8594,356.0469 Q1137.7969,356.0469 1138.4531,355.7969 Q1138.8438,355.6406 1139.2656,355.2031 Q1139.5313,354.9375 1139.6719,354.8594 Q1139.8281,354.7813 1140.0313,354.7813 Q1140.3594,354.7813 1140.6094,355.0469 Q1140.875,355.2969 1140.875,355.6406 Q1140.875,355.9844 1140.5313,356.3906 Q1140.0313,356.9688 1139.2344,357.2969 Q1138.1563,357.75 1136.8594,357.75 Q1135.3438,357.75 1134.1406,357.125 Q1133.1563,356.625 1132.4688,355.5625 Q1131.7813,354.4844 1131.7813,353.2031 L1131.7813,352.0469 Q1131.7813,350.7188 1132.3906,349.5781 Q1133.0156,348.4219 1134.1094,347.8125 Q1135.2031,347.1875 1136.4375,347.1875 Q1137.1719,347.1875 1137.8125,347.3594 Q1138.4688,347.5156 1139.0156,347.875 Z " fill="#000000"/><text fill="#000000" font-family="sans-serif" font-size="14" lengthAdjust="spacing" textLength="80" x="1156.75" y="357.7969">Organization</text><line style="stroke:#181818;stroke-width:0.5;" x1="949" x2="1412" y1="368" y2="368"/><text fill="#000000" font-family="sans-serif" font-size="14" lengthAdjust="spacing" textLength="81" x="954" y="387.1074">-String name</text><text fill="#000000" font-family="sans-serif" font-size="14" lengthAdjust="spacing" textLength="114" x="954" y="405.7285">-String vatNumber</text><text fill="#000000" font-family="sans-serif" font-size="14" lengthAdjust="spacing" textLength="86" x="954" y="424.3496">-String phone</text><text fill="#000000" font-family="sans-serif" font-size="14" lengthAdjust="spacing" textLength="79" x="954" y="442.9707">-String email</text><text fill="#000000" font-family="sans-serif" font-size="14" lengthAdjust="spacing" textLength="151" x="954" y="461.5918">-Address postalAddress</text><line style="stroke:#181818;stroke-width:0.5;" x1="949" x2="1412" y1="469.1055" y2="469.1055"/><text fill="#000000" font-family="sans-serif" font-size="14" lengthAdjust="spacing" textLength="453" x="954" y="488.2129">+Organization(name, vatNumber, webSite, phone, email, postalAddress)</text><text fill="#000000" font-family="sans-serif" font-size="14" lengthAdjust="spacing" textLength="147" x="954" y="506.834">-getUserByEmail(email)</text></g><!--class AuthenticationRepository--><g id="elem_AuthenticationRepository"><rect codeLine="44" fill="#F1F1F1" height="66.6211" id="AuthenticationRepository" rx="2.5" ry="2.5" style="stroke:#181818;stroke-width:0.5;" width="190" x="388.5" y="181"/><ellipse cx="403.5" cy="197" fill="#ADD1B2" rx="11" ry="11" style="stroke:#181818;stroke-width:1.0;"/><path d="M406.2656,192.875 Q406.4219,192.6563 406.6094,192.5469 Q406.7969,192.4375 407.0156,192.4375 Q407.3906,192.4375 407.625,192.7031 Q407.8594,192.9531 407.8594,193.5625 L407.8594,195.0156 Q407.8594,195.625 407.625,195.8906 Q407.3906,196.1563 407.0156,196.1563 Q406.6719,196.1563 406.4688,195.9531 Q406.2656,195.7656 406.1563,195.25 Q406.1094,194.8906 405.9219,194.7031 Q405.5938,194.3281 404.9844,194.1094 Q404.375,193.8906 403.75,193.8906 Q402.9844,193.8906 402.3438,194.2188 Q401.7188,194.5469 401.2188,195.2969 Q400.7344,196.0469 400.7344,197.0781 L400.7344,198.1719 Q400.7344,199.4063 401.625,200.2344 Q402.5156,201.0469 404.1094,201.0469 Q405.0469,201.0469 405.7031,200.7969 Q406.0938,200.6406 406.5156,200.2031 Q406.7813,199.9375 406.9219,199.8594 Q407.0781,199.7813 407.2813,199.7813 Q407.6094,199.7813 407.8594,200.0469 Q408.125,200.2969 408.125,200.6406 Q408.125,200.9844 407.7813,201.3906 Q407.2813,201.9688 406.4844,202.2969 Q405.4063,202.75 404.1094,202.75 Q402.5938,202.75 401.3906,202.125 Q400.4063,201.625 399.7188,200.5625 Q399.0313,199.4844 399.0313,198.2031 L399.0313,197.0469 Q399.0313,195.7188 399.6406,194.5781 Q400.2656,193.4219 401.3594,192.8125 Q402.4531,192.1875 403.6875,192.1875 Q404.4219,192.1875 405.0625,192.3594 Q405.7188,192.5156 406.2656,192.875 Z " fill="#000000"/><text fill="#000000" font-family="sans-serif" font-size="14" lengthAdjust="spacing" textLength="158" x="417.5" y="202.7969">AuthenticationRepository</text><line style="stroke:#181818;stroke-width:0.5;" x1="389.5" x2="577.5" y1="213" y2="213"/><line style="stroke:#181818;stroke-width:0.5;" x1="389.5" x2="577.5" y1="221" y2="221"/><text fill="#000000" font-family="sans-serif" font-size="14" lengthAdjust="spacing" textLength="165" x="394.5" y="240.1074">+getCurrentUserSession()</text></g><!--class UserSession--><g id="elem_UserSession"><rect codeLine="48" fill="#F1F1F1" height="85.2422" id="UserSession" rx="2.5" ry="2.5" style="stroke:#181818;stroke-width:0.5;" width="156" x="685.5" y="172"/><ellipse cx="720.75" cy="188" fill="#ADD1B2" rx="11" ry="11" style="stroke:#181818;stroke-width:1.0;"/><path d="M723.5156,183.875 Q723.6719,183.6563 723.8594,183.5469 Q724.0469,183.4375 724.2656,183.4375 Q724.6406,183.4375 724.875,183.7031 Q725.1094,183.9531 725.1094,184.5625 L725.1094,186.0156 Q725.1094,186.625 724.875,186.8906 Q724.6406,187.1563 724.2656,187.1563 Q723.9219,187.1563 723.7188,186.9531 Q723.5156,186.7656 723.4063,186.25 Q723.3594,185.8906 723.1719,185.7031 Q722.8438,185.3281 722.2344,185.1094 Q721.625,184.8906 721,184.8906 Q720.2344,184.8906 719.5938,185.2188 Q718.9688,185.5469 718.4688,186.2969 Q717.9844,187.0469 717.9844,188.0781 L717.9844,189.1719 Q717.9844,190.4063 718.875,191.2344 Q719.7656,192.0469 721.3594,192.0469 Q722.2969,192.0469 722.9531,191.7969 Q723.3438,191.6406 723.7656,191.2031 Q724.0313,190.9375 724.1719,190.8594 Q724.3281,190.7813 724.5313,190.7813 Q724.8594,190.7813 725.1094,191.0469 Q725.375,191.2969 725.375,191.6406 Q725.375,191.9844 725.0313,192.3906 Q724.5313,192.9688 723.7344,193.2969 Q722.6563,193.75 721.3594,193.75 Q719.8438,193.75 718.6406,193.125 Q717.6563,192.625 716.9688,191.5625 Q716.2813,190.4844 716.2813,189.2031 L716.2813,188.0469 Q716.2813,186.7188 716.8906,185.5781 Q717.5156,184.4219 718.6094,183.8125 Q719.7031,183.1875 720.9375,183.1875 Q721.6719,183.1875 722.3125,183.3594 Q722.9688,183.5156 723.5156,183.875 Z " fill="#000000"/><text fill="#000000" font-family="sans-serif" font-size="14" lengthAdjust="spacing" textLength="79" x="739.25" y="193.7969">UserSession</text><line style="stroke:#181818;stroke-width:0.5;" x1="686.5" x2="840.5" y1="204" y2="204"/><line style="stroke:#181818;stroke-width:0.5;" x1="686.5" x2="840.5" y1="212" y2="212"/><text fill="#000000" font-family="sans-serif" font-size="14" lengthAdjust="spacing" textLength="144" x="691.5" y="231.1074">+isLoggedInWithRole()</text><text fill="#000000" font-family="sans-serif" font-size="14" lengthAdjust="spacing" textLength="78" x="691.5" y="249.7285">+getUserId()</text></g><!--class EmployeeRepository--><g id="elem_EmployeeRepository"><rect codeLine="53" fill="#F1F1F1" height="122.4844" id="EmployeeRepository" rx="2.5" ry="2.5" style="stroke:#181818;stroke-width:0.5;" width="224" x="886.5" y="575"/><ellipse cx="929.4" cy="591" fill="#ADD1B2" rx="11" ry="11" style="stroke:#181818;stroke-width:1.0;"/><path d="M932.1656,586.875 Q932.3219,586.6563 932.5094,586.5469 Q932.6969,586.4375 932.9156,586.4375 Q933.2906,586.4375 933.525,586.7031 Q933.7594,586.9531 933.7594,587.5625 L933.7594,589.0156 Q933.7594,589.625 933.525,589.8906 Q933.2906,590.1563 932.9156,590.1563 Q932.5719,590.1563 932.3688,589.9531 Q932.1656,589.7656 932.0563,589.25 Q932.0094,588.8906 931.8219,588.7031 Q931.4938,588.3281 930.8844,588.1094 Q930.275,587.8906 929.65,587.8906 Q928.8844,587.8906 928.2438,588.2188 Q927.6188,588.5469 927.1188,589.2969 Q926.6344,590.0469 926.6344,591.0781 L926.6344,592.1719 Q926.6344,593.4063 927.525,594.2344 Q928.4156,595.0469 930.0094,595.0469 Q930.9469,595.0469 931.6031,594.7969 Q931.9938,594.6406 932.4156,594.2031 Q932.6813,593.9375 932.8219,593.8594 Q932.9781,593.7813 933.1813,593.7813 Q933.5094,593.7813 933.7594,594.0469 Q934.025,594.2969 934.025,594.6406 Q934.025,594.9844 933.6813,595.3906 Q933.1813,595.9688 932.3844,596.2969 Q931.3063,596.75 930.0094,596.75 Q928.4938,596.75 927.2906,596.125 Q926.3063,595.625 925.6188,594.5625 Q924.9313,593.4844 924.9313,592.2031 L924.9313,591.0469 Q924.9313,589.7188 925.5406,588.5781 Q926.1656,587.4219 927.2594,586.8125 Q928.3531,586.1875 929.5875,586.1875 Q930.3219,586.1875 930.9625,586.3594 Q931.6188,586.5156 932.1656,586.875 Z " fill="#000000"/><text fill="#000000" font-family="sans-serif" font-size="14" lengthAdjust="spacing" textLength="130" x="949.6" y="596.7969">EmployeeRepository</text><line style="stroke:#181818;stroke-width:0.5;" x1="887.5" x2="1109.5" y1="607" y2="607"/><line style="stroke:#181818;stroke-width:0.5;" x1="887.5" x2="1109.5" y1="615" y2="615"/><text fill="#000000" font-family="sans-serif" font-size="14" lengthAdjust="spacing" textLength="145" x="892.5" y="634.1074">-EmployeeRepository()</text><text fill="#000000" font-family="sans-serif" font-size="14" lengthAdjust="spacing" textLength="104" x="892.5" y="652.7285">+listEmployees()</text><text fill="#000000" font-family="sans-serif" font-size="14" lengthAdjust="spacing" textLength="112" x="892.5" y="671.3496">+emailExists(mail)</text><text fill="#000000" font-family="sans-serif" font-size="14" lengthAdjust="spacing" textLength="212" x="892.5" y="689.9707">+getEmployeeByUserEmail(email)</text></g><!--class Employee--><g id="elem_Employee"><rect codeLine="60" fill="#F1F1F1" height="290.0742" id="Employee" rx="2.5" ry="2.5" style="stroke:#181818;stroke-width:0.5;" width="189" x="1041" y="822.5"/><ellipse cx="1100.25" cy="838.5" fill="#ADD1B2" rx="11" ry="11" style="stroke:#181818;stroke-width:1.0;"/><path d="M1103.0156,834.375 Q1103.1719,834.1563 1103.3594,834.0469 Q1103.5469,833.9375 1103.7656,833.9375 Q1104.1406,833.9375 1104.375,834.2031 Q1104.6094,834.4531 1104.6094,835.0625 L1104.6094,836.5156 Q1104.6094,837.125 1104.375,837.3906 Q1104.1406,837.6563 1103.7656,837.6563 Q1103.4219,837.6563 1103.2188,837.4531 Q1103.0156,837.2656 1102.9063,836.75 Q1102.8594,836.3906 1102.6719,836.2031 Q1102.3438,835.8281 1101.7344,835.6094 Q1101.125,835.3906 1100.5,835.3906 Q1099.7344,835.3906 1099.0938,835.7188 Q1098.4688,836.0469 1097.9688,836.7969 Q1097.4844,837.5469 1097.4844,838.5781 L1097.4844,839.6719 Q1097.4844,840.9063 1098.375,841.7344 Q1099.2656,842.5469 1100.8594,842.5469 Q1101.7969,842.5469 1102.4531,842.2969 Q1102.8438,842.1406 1103.2656,841.7031 Q1103.5313,841.4375 1103.6719,841.3594 Q1103.8281,841.2813 1104.0313,841.2813 Q1104.3594,841.2813 1104.6094,841.5469 Q1104.875,841.7969 1104.875,842.1406 Q1104.875,842.4844 1104.5313,842.8906 Q1104.0313,843.4688 1103.2344,843.7969 Q1102.1563,844.25 1100.8594,844.25 Q1099.3438,844.25 1098.1406,843.625 Q1097.1563,843.125 1096.4688,842.0625 Q1095.7813,840.9844 1095.7813,839.7031 L1095.7813,838.5469 Q1095.7813,837.2188 1096.3906,836.0781 Q1097.0156,834.9219 1098.1094,834.3125 Q1099.2031,833.6875 1100.4375,833.6875 Q1101.1719,833.6875 1101.8125,833.8594 Q1102.4688,834.0156 1103.0156,834.375 Z " fill="#000000"/><text fill="#000000" font-family="sans-serif" font-size="14" lengthAdjust="spacing" textLength="62" x="1120.75" y="844.2969">Employee</text><line style="stroke:#181818;stroke-width:0.5;" x1="1042" x2="1229" y1="854.5" y2="854.5"/><text fill="#000000" font-family="sans-serif" font-size="14" lengthAdjust="spacing" textLength="81" x="1047" y="873.6074">-String name</text><text fill="#000000" font-family="sans-serif" font-size="14" lengthAdjust="spacing" textLength="95" x="1047" y="892.2285">-Date birthdate</text><text fill="#000000" font-family="sans-serif" font-size="14" lengthAdjust="spacing" textLength="134" x="1047" y="910.8496">-Date admission date</text><text fill="#000000" font-family="sans-serif" font-size="14" lengthAdjust="spacing" textLength="151" x="1047" y="929.4707">-Address postalAddress</text><text fill="#000000" font-family="sans-serif" font-size="14" lengthAdjust="spacing" textLength="86" x="1047" y="948.0918">-String phone</text><text fill="#000000" font-family="sans-serif" font-size="14" lengthAdjust="spacing" textLength="79" x="1047" y="966.7129">-String email</text><text fill="#000000" font-family="sans-serif" font-size="14" lengthAdjust="spacing" textLength="117" x="1047" y="985.334">-String ID doc type</text><text fill="#000000" font-family="sans-serif" font-size="14" lengthAdjust="spacing" textLength="177" x="1047" y="1003.9551">-String ID document number</text><text fill="#000000" font-family="sans-serif" font-size="14" lengthAdjust="spacing" textLength="122" x="1047" y="1022.5762">-String Taxpayer ID</text><line style="stroke:#181818;stroke-width:0.5;" x1="1042" x2="1229" y1="1030.0898" y2="1030.0898"/><text fill="#000000" font-family="sans-serif" font-size="14" lengthAdjust="spacing" textLength="166" x="1047" y="1049.1973">+CompareTo(TaxPayerID)</text><text fill="#000000" font-family="sans-serif" font-size="14" lengthAdjust="spacing" textLength="55" x="1047" y="1067.8184">+Clone()</text><text fill="#000000" font-family="sans-serif" font-size="14" lengthAdjust="spacing" textLength="67" x="1047" y="1086.4395">+toString()</text><text fill="#000000" font-family="sans-serif" font-size="14" lengthAdjust="spacing" textLength="149" x="1047" y="1105.0605">+changeStatus (Status)</text></g><!--class Tasks--><g id="elem_Tasks"><rect codeLine="77" fill="#F1F1F1" height="66.6211" id="Tasks" rx="2.5" ry="2.5" style="stroke:#181818;stroke-width:0.5;" width="402" x="1265.5" y="934"/><ellipse cx="1443.25" cy="950" fill="#ADD1B2" rx="11" ry="11" style="stroke:#181818;stroke-width:1.0;"/><path d="M1446.0156,945.875 Q1446.1719,945.6563 1446.3594,945.5469 Q1446.5469,945.4375 1446.7656,945.4375 Q1447.1406,945.4375 1447.375,945.7031 Q1447.6094,945.9531 1447.6094,946.5625 L1447.6094,948.0156 Q1447.6094,948.625 1447.375,948.8906 Q1447.1406,949.1563 1446.7656,949.1563 Q1446.4219,949.1563 1446.2188,948.9531 Q1446.0156,948.7656 1445.9063,948.25 Q1445.8594,947.8906 1445.6719,947.7031 Q1445.3438,947.3281 1444.7344,947.1094 Q1444.125,946.8906 1443.5,946.8906 Q1442.7344,946.8906 1442.0938,947.2188 Q1441.4688,947.5469 1440.9688,948.2969 Q1440.4844,949.0469 1440.4844,950.0781 L1440.4844,951.1719 Q1440.4844,952.4063 1441.375,953.2344 Q1442.2656,954.0469 1443.8594,954.0469 Q1444.7969,954.0469 1445.4531,953.7969 Q1445.8438,953.6406 1446.2656,953.2031 Q1446.5313,952.9375 1446.6719,952.8594 Q1446.8281,952.7813 1447.0313,952.7813 Q1447.3594,952.7813 1447.6094,953.0469 Q1447.875,953.2969 1447.875,953.6406 Q1447.875,953.9844 1447.5313,954.3906 Q1447.0313,954.9688 1446.2344,955.2969 Q1445.1563,955.75 1443.8594,955.75 Q1442.3438,955.75 1441.1406,955.125 Q1440.1563,954.625 1439.4688,953.5625 Q1438.7813,952.4844 1438.7813,951.2031 L1438.7813,950.0469 Q1438.7813,948.7188 1439.3906,947.5781 Q1440.0156,946.4219 1441.1094,945.8125 Q1442.2031,945.1875 1443.4375,945.1875 Q1444.1719,945.1875 1444.8125,945.3594 Q1445.4688,945.5156 1446.0156,945.875 Z " fill="#000000"/><text fill="#000000" font-family="sans-serif" font-size="14" lengthAdjust="spacing" textLength="38" x="1463.75" y="955.7969">Tasks</text><line style="stroke:#181818;stroke-width:0.5;" x1="1266.5" x2="1666.5" y1="966" y2="966"/><line style="stroke:#181818;stroke-width:0.5;" x1="1266.5" x2="1666.5" y1="974" y2="974"/><text fill="#000000" font-family="sans-serif" font-size="14" lengthAdjust="spacing" textLength="390" x="1271.5" y="993.1074">+filterThisCollaboratorTasksInAgenda(userEmail):List&lt;Tasks&gt;</text></g><!--class Task--><g id="elem_Task"><rect codeLine="81" fill="#F1F1F1" height="383.1797" id="Task" rx="2.5" ry="2.5" style="stroke:#181818;stroke-width:0.5;" width="694" x="1702.5" y="776"/><ellipse cx="2029.75" cy="792" fill="#ADD1B2" rx="11" ry="11" style="stroke:#181818;stroke-width:1.0;"/><path d="M2032.5156,787.875 Q2032.6719,787.6563 2032.8594,787.5469 Q2033.0469,787.4375 2033.2656,787.4375 Q2033.6406,787.4375 2033.875,787.7031 Q2034.1094,787.9531 2034.1094,788.5625 L2034.1094,790.0156 Q2034.1094,790.625 2033.875,790.8906 Q2033.6406,791.1563 2033.2656,791.1563 Q2032.9219,791.1563 2032.7188,790.9531 Q2032.5156,790.7656 2032.4063,790.25 Q2032.3594,789.8906 2032.1719,789.7031 Q2031.8438,789.3281 2031.2344,789.1094 Q2030.625,788.8906 2030,788.8906 Q2029.2344,788.8906 2028.5938,789.2188 Q2027.9688,789.5469 2027.4688,790.2969 Q2026.9844,791.0469 2026.9844,792.0781 L2026.9844,793.1719 Q2026.9844,794.4063 2027.875,795.2344 Q2028.7656,796.0469 2030.3594,796.0469 Q2031.2969,796.0469 2031.9531,795.7969 Q2032.3438,795.6406 2032.7656,795.2031 Q2033.0313,794.9375 2033.1719,794.8594 Q2033.3281,794.7813 2033.5313,794.7813 Q2033.8594,794.7813 2034.1094,795.0469 Q2034.375,795.2969 2034.375,795.6406 Q2034.375,795.9844 2034.0313,796.3906 Q2033.5313,796.9688 2032.7344,797.2969 Q2031.6563,797.75 2030.3594,797.75 Q2028.8438,797.75 2027.6406,797.125 Q2026.6563,796.625 2025.9688,795.5625 Q2025.2813,794.4844 2025.2813,793.2031 L2025.2813,792.0469 Q2025.2813,790.7188 2025.8906,789.5781 Q2026.5156,788.4219 2027.6094,787.8125 Q2028.7031,787.1875 2029.9375,787.1875 Q2030.6719,787.1875 2031.3125,787.3594 Q2031.9688,787.5156 2032.5156,787.875 Z " fill="#000000"/><text fill="#000000" font-family="sans-serif" font-size="14" lengthAdjust="spacing" textLength="31" x="2050.25" y="797.7969">Task</text><line style="stroke:#181818;stroke-width:0.5;" x1="1703.5" x2="2395.5" y1="808" y2="808"/><text fill="#000000" font-family="sans-serif" font-size="14" lengthAdjust="spacing" textLength="75" x="1708.5" y="827.1074">+title: String</text><text fill="#000000" font-family="sans-serif" font-size="14" lengthAdjust="spacing" textLength="173" x="1708.5" y="845.7285">+greenSpace: GreenSpace</text><text fill="#000000" font-family="sans-serif" font-size="14" lengthAdjust="spacing" textLength="122" x="1708.5" y="864.3496">+description: String</text><text fill="#000000" font-family="sans-serif" font-size="14" lengthAdjust="spacing" textLength="94" x="1708.5" y="882.9707">+status: Status</text><text fill="#000000" font-family="sans-serif" font-size="14" lengthAdjust="spacing" textLength="119" x="1708.5" y="901.5918">+urgency: Urgency</text><text fill="#000000" font-family="sans-serif" font-size="14" lengthAdjust="spacing" textLength="61" x="1708.5" y="920.2129">+days: int</text><text fill="#000000" font-family="sans-serif" font-size="14" lengthAdjust="spacing" textLength="67" x="1708.5" y="938.834">+hours: int</text><line style="stroke:#181818;stroke-width:0.5;" x1="1703.5" x2="2395.5" y1="946.3477" y2="946.3477"/><text fill="#000000" font-family="sans-serif" font-size="14" lengthAdjust="spacing" textLength="110" x="1708.5" y="965.4551">+getTitle(): String</text><text fill="#000000" font-family="sans-serif" font-size="14" lengthAdjust="spacing" textLength="206" x="1708.5" y="984.0762">+getGreenSpace(): GreenSpace</text><text fill="#000000" font-family="sans-serif" font-size="14" lengthAdjust="spacing" textLength="154" x="1708.5" y="1002.6973">+getDescription(): String</text><text fill="#000000" font-family="sans-serif" font-size="14" lengthAdjust="spacing" textLength="126" x="1708.5" y="1021.3184">+getStatus(): Status</text><text fill="#000000" font-family="sans-serif" font-size="14" lengthAdjust="spacing" textLength="125" x="1708.5" y="1039.9395">+setStatus(): Status</text><text fill="#000000" font-family="sans-serif" font-size="14" lengthAdjust="spacing" textLength="150" x="1708.5" y="1058.5605">+getUrgency(): Urgency</text><text fill="#000000" font-family="sans-serif" font-size="14" lengthAdjust="spacing" textLength="93" x="1708.5" y="1077.1816">+getDays(): int</text><text fill="#000000" font-family="sans-serif" font-size="14" lengthAdjust="spacing" textLength="98" x="1708.5" y="1095.8027">+getHours(): int</text><text fill="#000000" font-family="sans-serif" font-size="14" lengthAdjust="spacing" textLength="112" x="1708.5" y="1114.4238">+toString(): String</text><text fill="#000000" font-family="sans-serif" font-size="14" lengthAdjust="spacing" textLength="682" x="1708.5" y="1133.0449">+findTasksByCollaboratorAndDateRange(collaboratorId: String, startDate: Date, endDate: Date): List&lt;Task&gt;</text><text fill="#000000" font-family="sans-serif" font-size="14" lengthAdjust="spacing" textLength="216" x="1708.5" y="1151.666">+compareTo(otherTask: Task): int</text></g><!--class Status--><g id="elem_Status"><rect codeLine="103" fill="#F1F1F1" height="122.4844" id="Status" rx="2.5" ry="2.5" style="stroke:#181818;stroke-width:0.5;" width="98" x="2000.5" y="1238"/><ellipse cx="2027.2" cy="1254" fill="#EB937F" rx="11" ry="11" style="stroke:#181818;stroke-width:1.0;"/><path d="M2026.0594,1254.7969 L2026.0594,1257.2969 L2030.3875,1257.2969 L2030.3875,1256.375 Q2030.3875,1255.7656 2030.6219,1255.5 Q2030.8719,1255.2344 2031.2469,1255.2344 Q2031.6219,1255.2344 2031.8563,1255.5 Q2032.0906,1255.7656 2032.0906,1256.375 L2032.0906,1259 L2024.0906,1259 Q2023.4656,1259 2023.2,1258.7656 Q2022.95,1258.5313 2022.95,1258.1406 Q2022.95,1257.7656 2023.2156,1257.5313 Q2023.4813,1257.2969 2024.0906,1257.2969 L2024.3563,1257.2969 L2024.3563,1250.6406 L2024.0906,1250.6406 Q2023.4656,1250.6406 2023.2,1250.4063 Q2022.95,1250.1719 2022.95,1249.7813 Q2022.95,1249.4063 2023.2,1249.1719 Q2023.4656,1248.9375 2024.0906,1248.9375 L2031.7156,1248.9375 L2031.7156,1251.5313 Q2031.7156,1252.1406 2031.4813,1252.4063 Q2031.2625,1252.6563 2030.8719,1252.6563 Q2030.4969,1252.6563 2030.2625,1252.4063 Q2030.0281,1252.1406 2030.0281,1251.5313 L2030.0281,1250.6406 L2026.0594,1250.6406 L2026.0594,1253.0938 L2027.5438,1253.0938 Q2027.5438,1252.4375 2027.6688,1252.25 Q2027.9344,1251.8438 2028.4031,1251.8438 Q2028.7781,1251.8438 2029.0125,1252.1094 Q2029.2469,1252.3594 2029.2469,1252.9688 L2029.2469,1254.9375 Q2029.2469,1255.4844 2029.1219,1255.6719 Q2028.8563,1256.0625 2028.4031,1256.0625 Q2027.9344,1256.0625 2027.6688,1255.6563 Q2027.5438,1255.4688 2027.5438,1254.7969 L2026.0594,1254.7969 Z " fill="#000000"/><text fill="#000000" font-family="sans-serif" font-size="14" lengthAdjust="spacing" textLength="40" x="2043.8" y="1259.7969">Status</text><line style="stroke:#181818;stroke-width:0.5;" x1="2001.5" x2="2097.5" y1="1270" y2="1270"/><text fill="#000000" font-family="sans-serif" font-size="14" lengthAdjust="spacing" textLength="63" x="2006.5" y="1289.1074">PLANNED</text><text fill="#000000" font-family="sans-serif" font-size="14" lengthAdjust="spacing" textLength="86" x="2006.5" y="1307.7285">POSTPONED</text><text fill="#000000" font-family="sans-serif" font-size="14" lengthAdjust="spacing" textLength="74" x="2006.5" y="1326.3496">CANCELED</text><text fill="#000000" font-family="sans-serif" font-size="14" lengthAdjust="spacing" textLength="39" x="2006.5" y="1344.9707">DONE</text><line style="stroke:#181818;stroke-width:0.5;" x1="2001.5" x2="2097.5" y1="1352.4844" y2="1352.4844"/></g><!--link Repositories to Repositories--><g id="link_Repositories_Repositories"><path codeLine="113" d="M1113.6,45.48 C1134.6,47.81 1148.5,52.31 1148.5,59 C1148.5,65.69 1140.5634,69.5283 1119.5634,71.8583 " fill="none" id="Repositories-to-Repositories" style="stroke:#181818;stroke-width:1.0;"/><polygon fill="#181818" points="1113.6,72.52,1122.9862,75.5031,1118.5695,71.9686,1122.104,67.5519,1113.6,72.52" style="stroke:#181818;stroke-width:1.0;"/><text fill="#000000" font-family="sans-serif" font-size="13" lengthAdjust="spacing" textLength="49" x="1154.5" y="64.5283">instance</text></g><!--link TaskCompletionUI to TaskCompletionController--><g id="link_TaskCompletionUI_TaskCompletionController"><path codeLine="114" d="M244.07,59 C244.57,59 244.83,59 244.83,59 C244.83,59 253.58,59 272.71,59 " fill="none" id="TaskCompletionUI-to-TaskCompletionController" style="stroke:#181818;stroke-width:1.0;stroke-dasharray:7.0,7.0;"/><polygon fill="#181818" points="278.71,59,269.71,55,273.71,59,269.71,63,278.71,59" style="stroke:#181818;stroke-width:1.0;"/></g><!--link TaskCompletionController to AuthenticationRepository--><g id="link_TaskCompletionController_AuthenticationRepository"><path codeLine="115" d="M483.5,101.54 C483.5,126.4 483.5,151.55 483.5,174.68 " fill="none" id="TaskCompletionController-to-AuthenticationRepository" style="stroke:#181818;stroke-width:1.0;stroke-dasharray:7.0,7.0;"/><polygon fill="#181818" points="483.5,180.68,487.5,171.68,483.5,175.68,479.5,171.68,483.5,180.68" style="stroke:#181818;stroke-width:1.0;"/></g><!--link Repositories to OrganizationRepository--><g id="link_Repositories_OrganizationRepository"><path codeLine="116" d="M1000.45,111.11 C1022.05,134.14 1042.8044,156.2646 1061.8244,176.5346 " fill="none" id="Repositories-to-OrganizationRepository" style="stroke:#181818;stroke-width:1.0;"/><polygon fill="#181818" points="1065.93,180.91,1062.6886,171.6098,1062.5087,177.2638,1056.8547,177.0839,1065.93,180.91" style="stroke:#181818;stroke-width:1.0;"/><text fill="#000000" font-family="sans-serif" font-size="13" lengthAdjust="spacing" textLength="7" x="1052.2225" y="169.7178">1</text></g><!--link OrganizationRepository to Organization--><g id="link_OrganizationRepository_Organization"><path codeLine="117" d="M1109.62,248.08 C1119.13,271.67 1130.2175,299.1948 1142.7575,330.3148 " fill="none" id="OrganizationRepository-to-Organization" style="stroke:#181818;stroke-width:1.0;"/><polygon fill="#181818" points="1145,335.88,1145.3463,326.0372,1143.1312,331.2424,1137.9261,329.0273,1145,335.88" style="stroke:#181818;stroke-width:1.0;"/><text fill="#000000" font-family="sans-serif" font-size="13" lengthAdjust="spacing" textLength="77" x="1132.5" y="302.0283">organizations</text><text fill="#000000" font-family="sans-serif" font-size="13" lengthAdjust="spacing" textLength="5" x="1136.8531" y="324.8218">*</text></g><!--link Organization to EmployeeRepository--><g id="link_Organization_EmployeeRepository"><path codeLine="118" d="M1103.84,514.03 C1085.97,534.56 1071.2807,551.4255 1054.7407,570.4155 " fill="none" id="Organization-to-EmployeeRepository" style="stroke:#181818;stroke-width:1.0;"/><polygon fill="#181818" points="1050.8,574.94,1059.7274,570.7805,1054.0839,571.1696,1053.6948,565.5262,1050.8,574.94" style="stroke:#181818;stroke-width:1.0;"/><text fill="#000000" font-family="sans-serif" font-size="13" lengthAdjust="spacing" textLength="7" x="1089.9512" y="536.4374">1</text><text fill="#000000" font-family="sans-serif" font-size="13" lengthAdjust="spacing" textLength="7" x="1049.4425" y="563.9143">1</text></g><!--link Organization to Employee--><g id="link_Organization_Employee"><path codeLine="119" d="M1173.17,514.04 C1166.23,597.43 1156.1778,718.1507 1148.0078,816.2907 " fill="none" id="Organization-to-Employee" style="stroke:#181818;stroke-width:1.0;"/><polygon fill="#181818" points="1147.51,822.27,1152.2429,813.6329,1147.9248,817.2872,1144.2704,812.9692,1147.51,822.27" style="stroke:#181818;stroke-width:1.0;"/><text fill="#000000" font-family="sans-serif" font-size="13" lengthAdjust="spacing" textLength="49" x="1169.5" y="641.5283">employs</text><text fill="#000000" font-family="sans-serif" font-size="13" lengthAdjust="spacing" textLength="7" x="1165.2393" y="536.4482">1</text><text fill="#000000" font-family="sans-serif" font-size="13" lengthAdjust="spacing" textLength="5" x="1143.0004" y="811.3772">*</text></g><!--link TaskCompletionController to Repositories--><g id="link_TaskCompletionController_Repositories"><path codeLine="120" d="M688.19,59 C722.72,59 752.13,59 785.36,59 " fill="none" id="TaskCompletionController-to-Repositories" style="stroke:#181818;stroke-width:1.0;stroke-dasharray:7.0,7.0;"/><polygon fill="#181818" points="791.36,59,782.36,55,786.36,59,782.36,63,791.36,59" style="stroke:#181818;stroke-width:1.0;"/><text fill="#000000" font-family="sans-serif" font-size="13" lengthAdjust="spacing" textLength="67" x="706.25" y="52.0283">repositories</text></g><!--link Repositories to AuthenticationRepository--><g id="link_Repositories_AuthenticationRepository"><path codeLine="121" d="M796.66,111.01 C724.55,134.61 646.9326,160.0144 584.3626,180.4844 " fill="none" id="Repositories-to-AuthenticationRepository" style="stroke:#181818;stroke-width:1.0;"/><polygon fill="#181818" points="578.66,182.35,588.4576,183.3533,583.4122,180.7953,585.9701,175.7498,578.66,182.35" style="stroke:#181818;stroke-width:1.0;"/><text fill="#000000" font-family="sans-serif" font-size="13" lengthAdjust="spacing" textLength="7" x="586.522" y="176.1657">1</text></g><!--link Repositories to EmployeeRepository--><g id="link_Repositories_EmployeeRepository"><path codeLine="122" d="M948.41,111.27 C942.05,191.08 930.5,336 930.5,336 C930.5,336 930.5,514 930.5,514 C930.5,514 944.6894,539.26 961.7594,569.62 " fill="none" id="Repositories-to-EmployeeRepository" style="stroke:#181818;stroke-width:1.0;"/><polygon fill="#181818" points="964.7,574.85,963.7758,565.0446,962.2495,570.4917,956.8025,568.9654,964.7,574.85" style="stroke:#181818;stroke-width:1.0;"/><text fill="#000000" font-family="sans-serif" font-size="13" lengthAdjust="spacing" textLength="7" x="953.3872" y="563.8139">1</text></g><!--link Repositories to Tasks--><g id="link_Repositories_Tasks"><path codeLine="123" d="M1113.72,108.15 C1264.46,153.16 1466.5,213.5 1466.5,213.5 C1466.5,213.5 1466.5,213.5 1466.5,637 C1466.5,637 1466.5,844.36 1466.5,927.7 " fill="none" id="Repositories-to-Tasks" style="stroke:#181818;stroke-width:1.0;"/><polygon fill="#181818" points="1466.5,933.7,1470.5,924.7,1466.5,928.7,1462.5,924.7,1466.5,933.7" style="stroke:#181818;stroke-width:1.0;"/><text fill="#000000" font-family="sans-serif" font-size="13" lengthAdjust="spacing" textLength="7" x="1458.8328" y="922.7287">1</text></g><!--link AuthenticationRepository to UserSession--><g id="link_AuthenticationRepository_UserSession"><path codeLine="124" d="M578.69,214.5 C613.41,214.5 646.24,214.5 679.31,214.5 " fill="none" id="AuthenticationRepository-to-UserSession" style="stroke:#181818;stroke-width:1.0;"/><polygon fill="#181818" points="685.31,214.5,676.31,210.5,680.31,214.5,676.31,218.5,685.31,214.5" style="stroke:#181818;stroke-width:1.0;"/><text fill="#000000" font-family="sans-serif" font-size="13" lengthAdjust="spacing" textLength="70" x="597" y="207.5283">usersession</text><text fill="#000000" font-family="sans-serif" font-size="13" lengthAdjust="spacing" textLength="7" x="670.5239" y="210.7205">1</text></g><!--link EmployeeRepository to Employee--><g id="link_EmployeeRepository_Employee"><path codeLine="125" d="M1023.47,697.05 C1038.09,732.23 1054.936,772.74 1073.256,816.79 " fill="none" id="EmployeeRepository-to-Employee" style="stroke:#181818;stroke-width:1.0;"/><polygon fill="#181818" points="1075.56,822.33,1075.7973,812.484,1073.64,817.7133,1068.4106,815.556,1075.56,822.33" style="stroke:#181818;stroke-width:1.0;"/><text fill="#000000" font-family="sans-serif" font-size="13" lengthAdjust="spacing" textLength="64" x="1044.5" y="742.0283">aggregates</text><text fill="#000000" font-family="sans-serif" font-size="13" lengthAdjust="spacing" textLength="7" x="1019.0867" y="719.5429">1</text><text fill="#000000" font-family="sans-serif" font-size="13" lengthAdjust="spacing" textLength="5" x="1067.3404" y="811.4403">*</text></g><!--link Tasks to Task--><g id="link_Tasks_Task"><path codeLine="126" d="M1667.75,967.5 C1674.98,967.5 1681.38,967.5 1696.46,967.5 " fill="none" id="Tasks-to-Task" style="stroke:#181818;stroke-width:1.0;"/><polygon fill="#181818" points="1702.46,967.5,1693.46,963.5,1697.46,967.5,1693.46,971.5,1702.46,967.5" style="stroke:#181818;stroke-width:1.0;"/><text fill="#000000" font-family="sans-serif" font-size="13" lengthAdjust="spacing" textLength="7" x="1675.748" y="964.2094">1</text><text fill="#000000" font-family="sans-serif" font-size="13" lengthAdjust="spacing" textLength="5" x="1689.2677" y="964.3304">*</text></g><!--link Task to Status--><g id="link_Task_Status"><path codeLine="127" d="M2049.5,1159.22 C2049.5,1187.68 2049.5,1209.08 2049.5,1231.91 " fill="none" id="Task-to-Status" style="stroke:#181818;stroke-width:1.0;"/><polygon fill="#181818" points="2049.5,1237.91,2053.5,1228.91,2049.5,1232.91,2045.5,1228.91,2049.5,1237.91" style="stroke:#181818;stroke-width:1.0;"/><text fill="#000000" font-family="sans-serif" font-size="13" lengthAdjust="spacing" textLength="21" x="2050.5" y="1204.0283">has</text></g><!--link Employee to Tasks--><g id="link_Employee_Tasks"><path codeLine="128" d="M1230.03,967.5 C1239.57,967.5 1245.83,967.5 1245.83,967.5 C1245.83,967.5 1247.73,967.5 1259.3,967.5 " fill="none" id="Employee-to-Tasks" style="stroke:#181818;stroke-width:1.0;"/><polygon fill="#181818" points="1265.3,967.5,1256.3,963.5,1260.3,967.5,1256.3,971.5,1265.3,967.5" style="stroke:#181818;stroke-width:1.0;"/><text fill="#000000" font-family="sans-serif" font-size="13" lengthAdjust="spacing" textLength="7" x="1238.1481" y="963.8334">1</text><text fill="#000000" font-family="sans-serif" font-size="13" lengthAdjust="spacing" textLength="7" x="1250.3039" y="964.2094">1</text></g><!--SRC=[bLRVR-Cs37xtNo7SIvsxtB2z1aE1DCdT31HjqQIuPyLcRQ6ov4doxdp3_lTHFspBYLriUKWiaY8_af_9tEWt9XggQ4rgAMHUALa3CQg5PDGqD7-Z9HnDnu4eo0qL9OyDT4KB-Ps9ahnIhcCDPm9Crm1f9E_i8RcPKKfbP1BToZdLUckCOkVMG9PBSMG_WVoQ93SSNWqnaYXMLeOKpC9XKYH9uYwH4zLlErat7Apu9ID_9mG_dz1KDvnsLd_Fj4aDFkWDiS-_M-7jAXWg-BC5RVRKm3Cc2kc5mXeV3JMj_iAu0ONwV-QZxwGmId8EQa2nP902ocG7y0oDrCn8rQr9gq4TGMkq737aKXLJBowLZNEz9laWjWbiYFsE00xk6UW0wlD4E6HRWic4nbRdM06ocHYD9eShsCxuMfoC61vLIGNxIIt8qM0e4NgDBUww5op3eQQCOv7mUpNlQSZcYBH19WfQmrJo5pKFRNq6DHKtbHGNbYvE46sBGc4FaC1O31vE0MeSFxK1rsEGDVaEvoCpA7CHrjxhUkfe5Q9WqZRDksu-qMrhAX26vUyKRTSgXJOl8sbYPaRYuHBJzx8ieSZ4DsQgPyaXxhwzaHMnZ-kk3aMVuq5mnV4DwzKZlLo6Xn-eqwbFzefJxtM-jtcdwvRvvCoKgGfyYeMqg9clHAHPxlD_PKeGPNjIo9pOmJQdQ6ji4X4pH3pH7mtjS5Xa-r0C-uvJ1IUPekx9wh9zNwWTHp13EOtqJWP1NjdPvUSKIVslgryqgVe9yEdL3R9JnVGEfn4zIqMnXSua4ziIH47Jjk_5QZFCJ7qx7Nq3immp78UFnzHtLW688-uIL7mTdllf33fNhB7ilhYc7NGhjBz1s2e4bNSRyk8VUY-qGqicJ3XNibKJ0RBhPA6bgqjmO4PCLdk542ts8yWv1nwXrunOzPB2lMCUlbLDCx7HC1chcA3_msOqbOwjlu3qoeJR5FgkYzkw5SMus_98aHMzWxMjkZBZ1i7XvM-5XHBlpPvm0rSbpYf77h-J0bXBFK3QXne4gZpTRnyU3fxlJu_7qzDZVzfj7tQ7-t3OezXvI9B91ljyEzreDfJVMSdL7u5VRXUtRxAam3jBe_S222BvyDk7XTsMBAmyT-lZz1Rc8AEZdjnrCVfOCqjstlRZQ8lU_JyDlPYpBTH5KLMy-sVp_dzLca4-Q-VOcomkls0LhxQD-zEa_IcPMLWBHQ4bZgSIgUthehsTDxC29tKN0tqtfA9w232O3w3_1G00]--></g></svg>