<?xml version="1.0" encoding="us-ascii" standalone="no"?><svg xmlns="http://www.w3.org/2000/svg" xmlns:xlink="http://www.w3.org/1999/xlink" contentStyleType="text/css" height="1737px" preserveAspectRatio="none" style="width:2688px;height:1737px;background:#FFFFFF;" version="1.1" viewBox="0 0 2688 1737" width="2688px" zoomAndPan="magnify"><defs/><g><rect fill="#FFFFFF" height="1542.2598" style="stroke:#181818;stroke-width:1.0;" width="10" x="42" y="93.6211"/><rect fill="#FFFFFF" height="1143.4766" style="stroke:#181818;stroke-width:1.0;" width="10" x="366" y="116.9121"/><rect fill="#FFFFFF" height="93.873" style="stroke:#181818;stroke-width:1.0;" width="10" x="366" y="1291.6797"/><rect fill="#FFFFFF" height="219.0371" style="stroke:#181818;stroke-width:1.0;" width="10" x="366" y="1416.8438"/><rect fill="#FFFFFF" height="1080.8945" style="stroke:#181818;stroke-width:1.0;" width="10" x="749" y="148.2031"/><rect fill="#FFFFFF" height="31.291" style="stroke:#181818;stroke-width:1.0;" width="10" x="749" y="1322.9707"/><rect fill="#FFFFFF" height="156.4551" style="stroke:#181818;stroke-width:1.0;" width="10" x="749" y="1448.1348"/><rect fill="#FFFFFF" height="31.291" style="stroke:#181818;stroke-width:1.0;" width="10" x="914" y="223.7852"/><rect fill="#FFFFFF" height="31.291" style="stroke:#181818;stroke-width:1.0;" width="10" x="914" y="536.6953"/><rect fill="#FFFFFF" height="31.291" style="stroke:#181818;stroke-width:1.0;" width="10" x="914" y="820.3145"/><rect fill="#FFFFFF" height="31.291" style="stroke:#181818;stroke-width:1.0;" width="10" x="1021" y="286.3672"/><rect fill="#FFFFFF" height="31.291" style="stroke:#181818;stroke-width:1.0;" width="10" x="1021" y="599.2773"/><rect fill="#FFFFFF" height="31.291" style="stroke:#181818;stroke-width:1.0;" width="10" x="1021" y="882.8965"/><rect fill="#FFFFFF" height="156.4551" style="stroke:#181818;stroke-width:1.0;" width="10" x="1167.5" y="348.9492"/><rect fill="#FFFFFF" height="93.873" style="stroke:#181818;stroke-width:1.0;" width="10" x="1389.5" y="380.2402"/><rect fill="#FFFFFF" height="127.1641" style="stroke:#181818;stroke-width:1.0;" width="10" x="1529.5" y="661.8594"/><rect fill="#FFFFFF" height="31.291" style="stroke:#181818;stroke-width:1.0;" width="10" x="1778.5" y="719.4414"/><rect fill="#FFFFFF" height="31.291" style="stroke:#181818;stroke-width:1.0;" width="10" x="1911.5" y="945.4785"/><rect fill="#FFFFFF" height="189.7461" style="stroke:#181818;stroke-width:1.0;" width="10" x="2035.5" y="1008.0605"/><rect fill="#FFFFFF" height="93.873" style="stroke:#181818;stroke-width:1.0;" width="10" x="2035.5" y="1479.4258"/><rect fill="#FFFFFF" height="127.1641" style="stroke:#181818;stroke-width:1.0;" width="10" x="2358.5" y="1039.3516"/><rect fill="#FFFFFF" height="31.291" style="stroke:#181818;stroke-width:1.0;" width="10" x="2644.5" y="1096.9336"/><rect fill="#FFFFFF" height="134.1641" style="stroke:#181818;stroke-width:1.0;" width="10" x="2644.5" y="1510.7168"/><rect fill="none" height="81.873" style="stroke:#000000;stroke-width:1.5;" width="399.5" x="1443" y="676.8594"/><rect fill="none" height="81.873" style="stroke:#000000;stroke-width:1.5;" width="354.5" x="2327.5" y="1054.3516"/><line style="stroke:#181818;stroke-width:0.5;stroke-dasharray:5.0,5.0;" x1="47" x2="47" y1="83.6211" y2="1653.8809"/><line style="stroke:#181818;stroke-width:0.5;stroke-dasharray:5.0,5.0;" x1="371" x2="371" y1="83.6211" y2="1653.8809"/><line style="stroke:#181818;stroke-width:0.5;stroke-dasharray:5.0,5.0;" x1="754" x2="754" y1="83.6211" y2="1653.8809"/><line style="stroke:#181818;stroke-width:0.5;stroke-dasharray:5.0,5.0;" x1="918.5" x2="918.5" y1="83.6211" y2="1653.8809"/><line style="stroke:#181818;stroke-width:0.5;stroke-dasharray:5.0,5.0;" x1="1025.5" x2="1025.5" y1="83.6211" y2="1653.8809"/><line style="stroke:#181818;stroke-width:0.5;stroke-dasharray:5.0,5.0;" x1="1172.5" x2="1172.5" y1="83.6211" y2="1653.8809"/><line style="stroke:#181818;stroke-width:0.5;stroke-dasharray:5.0,5.0;" x1="1394" x2="1394" y1="83.6211" y2="1653.8809"/><line style="stroke:#181818;stroke-width:0.5;stroke-dasharray:5.0,5.0;" x1="1534" x2="1534" y1="83.6211" y2="1653.8809"/><line style="stroke:#181818;stroke-width:0.5;stroke-dasharray:5.0,5.0;" x1="1783.5" x2="1783.5" y1="83.6211" y2="1653.8809"/><line style="stroke:#181818;stroke-width:0.5;stroke-dasharray:5.0,5.0;" x1="1916.5" x2="1916.5" y1="83.6211" y2="1653.8809"/><line style="stroke:#181818;stroke-width:0.5;stroke-dasharray:5.0,5.0;" x1="2040.5" x2="2040.5" y1="83.6211" y2="1653.8809"/><line style="stroke:#181818;stroke-width:0.5;stroke-dasharray:5.0,5.0;" x1="2363.5" x2="2363.5" y1="83.6211" y2="1653.8809"/><line style="stroke:#181818;stroke-width:0.5;stroke-dasharray:5.0,5.0;" x1="2649" x2="2649" y1="83.6211" y2="1653.8809"/><text fill="#000000" font-family="sans-serif" font-size="14" lengthAdjust="spacing" textLength="78" x="5" y="80.1074">Collaborator</text><ellipse cx="47" cy="13.5" fill="#E3E3E3" rx="8" ry="8" style="stroke:#181818;stroke-width:0.5;"/><path d="M47,21.5 L47,48.5 M34,29.5 L60,29.5 M47,48.5 L34,63.5 M47,48.5 L60,63.5 " fill="none" style="stroke:#181818;stroke-width:0.5;"/><text fill="#000000" font-family="sans-serif" font-size="14" lengthAdjust="spacing" textLength="78" x="5" y="1667.9883">Collaborator</text><ellipse cx="47" cy="1680.002" fill="#E3E3E3" rx="8" ry="8" style="stroke:#181818;stroke-width:0.5;"/><path d="M47,1688.002 L47,1715.002 M34,1696.002 L60,1696.002 M47,1715.002 L34,1730.002 M47,1715.002 L60,1730.002 " fill="none" style="stroke:#181818;stroke-width:0.5;"/><rect fill="#E3E3E3" height="32.6211" rx="2.5" ry="2.5" style="stroke:#181818;stroke-width:0.5;" width="132" x="305" y="50"/><text fill="#000000" font-family="sans-serif" font-size="14" lengthAdjust="spacing" textLength="118" x="312" y="72.1074">:TaskCompletionUI</text><rect fill="#E3E3E3" height="32.6211" rx="2.5" ry="2.5" style="stroke:#181818;stroke-width:0.5;" width="132" x="305" y="1652.8809"/><text fill="#000000" font-family="sans-serif" font-size="14" lengthAdjust="spacing" textLength="118" x="312" y="1674.9883">:TaskCompletionUI</text><rect fill="#E3E3E3" height="32.6211" rx="2.5" ry="2.5" style="stroke:#181818;stroke-width:0.5;" width="182" x="663" y="50"/><text fill="#000000" font-family="sans-serif" font-size="14" lengthAdjust="spacing" textLength="168" x="670" y="72.1074">:TaskCompletionController</text><rect fill="#E3E3E3" height="32.6211" rx="2.5" ry="2.5" style="stroke:#181818;stroke-width:0.5;" width="182" x="663" y="1652.8809"/><text fill="#000000" font-family="sans-serif" font-size="14" lengthAdjust="spacing" textLength="168" x="670" y="1674.9883">:TaskCompletionController</text><rect fill="#E3E3E3" height="32.6211" rx="2.5" ry="2.5" style="stroke:#181818;stroke-width:0.5;" width="97" x="870.5" y="50"/><text fill="#000000" font-family="sans-serif" font-size="14" lengthAdjust="spacing" textLength="83" x="877.5" y="72.1074">:Repositories</text><rect fill="#E3E3E3" height="32.6211" rx="2.5" ry="2.5" style="stroke:#181818;stroke-width:0.5;" width="97" x="870.5" y="1652.8809"/><text fill="#000000" font-family="sans-serif" font-size="14" lengthAdjust="spacing" textLength="83" x="877.5" y="1674.9883">:Repositories</text><rect fill="#E3E3E3" height="51.2422" rx="2.5" ry="2.5" style="stroke:#181818;stroke-width:0.5;" width="97" x="977.5" y="31.3789"/><text fill="#000000" font-family="sans-serif" font-size="14" lengthAdjust="spacing" textLength="74" x="989" y="53.4863">repositories</text><text fill="#000000" font-family="sans-serif" font-size="14" lengthAdjust="spacing" textLength="83" x="984.5" y="72.1074">:Repositories</text><rect fill="#E3E3E3" height="51.2422" rx="2.5" ry="2.5" style="stroke:#181818;stroke-width:0.5;" width="97" x="977.5" y="1652.8809"/><text fill="#000000" font-family="sans-serif" font-size="14" lengthAdjust="spacing" textLength="74" x="989" y="1674.9883">repositories</text><text fill="#000000" font-family="sans-serif" font-size="14" lengthAdjust="spacing" textLength="83" x="984.5" y="1693.6094">:Repositories</text><rect fill="#E3E3E3" height="51.2422" rx="2.5" ry="2.5" style="stroke:#181818;stroke-width:0.5;" width="176" x="1084.5" y="31.3789"/><text fill="#000000" font-family="sans-serif" font-size="14" lengthAdjust="spacing" textLength="77" x="1134" y="53.4863">AuthFacade</text><text fill="#000000" font-family="sans-serif" font-size="14" lengthAdjust="spacing" textLength="162" x="1091.5" y="72.1074">:AuthenticationRepository</text><rect fill="#E3E3E3" height="51.2422" rx="2.5" ry="2.5" style="stroke:#181818;stroke-width:0.5;" width="176" x="1084.5" y="1652.8809"/><text fill="#000000" font-family="sans-serif" font-size="14" lengthAdjust="spacing" textLength="77" x="1134" y="1674.9883">AuthFacade</text><text fill="#000000" font-family="sans-serif" font-size="14" lengthAdjust="spacing" textLength="162" x="1091.5" y="1693.6094">:AuthenticationRepository</text><rect fill="#E3E3E3" height="51.2422" rx="2.5" ry="2.5" style="stroke:#181818;stroke-width:0.5;" width="97" x="1346" y="31.3789"/><text fill="#000000" font-family="sans-serif" font-size="14" lengthAdjust="spacing" textLength="78" x="1355.5" y="53.4863">userSession</text><text fill="#000000" font-family="sans-serif" font-size="14" lengthAdjust="spacing" textLength="83" x="1353" y="72.1074">:UserSession</text><rect fill="#E3E3E3" height="51.2422" rx="2.5" ry="2.5" style="stroke:#181818;stroke-width:0.5;" width="97" x="1346" y="1652.8809"/><text fill="#000000" font-family="sans-serif" font-size="14" lengthAdjust="spacing" textLength="78" x="1355.5" y="1674.9883">userSession</text><text fill="#000000" font-family="sans-serif" font-size="14" lengthAdjust="spacing" textLength="83" x="1353" y="1693.6094">:UserSession</text><rect fill="#E3E3E3" height="51.2422" rx="2.5" ry="2.5" style="stroke:#181818;stroke-width:0.5;" width="163" x="1453" y="31.3789"/><text fill="#000000" font-family="sans-serif" font-size="14" lengthAdjust="spacing" textLength="149" x="1460" y="53.4863">organizationRepository:</text><text fill="#000000" font-family="sans-serif" font-size="14" lengthAdjust="spacing" textLength="148" x="1460.5" y="72.1074">OrganizationRepository</text><rect fill="#E3E3E3" height="51.2422" rx="2.5" ry="2.5" style="stroke:#181818;stroke-width:0.5;" width="163" x="1453" y="1652.8809"/><text fill="#000000" font-family="sans-serif" font-size="14" lengthAdjust="spacing" textLength="149" x="1460" y="1674.9883">organizationRepository:</text><text fill="#000000" font-family="sans-serif" font-size="14" lengthAdjust="spacing" textLength="148" x="1460.5" y="1693.6094">OrganizationRepository</text><rect fill="#E3E3E3" height="51.2422" rx="2.5" ry="2.5" style="stroke:#181818;stroke-width:0.5;" width="98" x="1734.5" y="31.3789"/><text fill="#000000" font-family="sans-serif" font-size="14" lengthAdjust="spacing" textLength="77" x="1745" y="53.4863">organization</text><text fill="#000000" font-family="sans-serif" font-size="14" lengthAdjust="spacing" textLength="84" x="1741.5" y="72.1074">:Organization</text><rect fill="#E3E3E3" height="51.2422" rx="2.5" ry="2.5" style="stroke:#181818;stroke-width:0.5;" width="98" x="1734.5" y="1652.8809"/><text fill="#000000" font-family="sans-serif" font-size="14" lengthAdjust="spacing" textLength="77" x="1745" y="1674.9883">organization</text><text fill="#000000" font-family="sans-serif" font-size="14" lengthAdjust="spacing" textLength="84" x="1741.5" y="1693.6094">:Organization</text><rect fill="#E3E3E3" height="51.2422" rx="2.5" ry="2.5" style="stroke:#181818;stroke-width:0.5;" width="148" x="1842.5" y="31.3789"/><text fill="#000000" font-family="sans-serif" font-size="14" lengthAdjust="spacing" textLength="129" x="1852" y="53.4863">employeeRepository</text><text fill="#000000" font-family="sans-serif" font-size="14" lengthAdjust="spacing" textLength="134" x="1849.5" y="72.1074">:EmployeeRepository</text><rect fill="#E3E3E3" height="51.2422" rx="2.5" ry="2.5" style="stroke:#181818;stroke-width:0.5;" width="148" x="1842.5" y="1652.8809"/><text fill="#000000" font-family="sans-serif" font-size="14" lengthAdjust="spacing" textLength="129" x="1852" y="1674.9883">employeeRepository</text><text fill="#000000" font-family="sans-serif" font-size="14" lengthAdjust="spacing" textLength="134" x="1849.5" y="1693.6094">:EmployeeRepository</text><rect fill="#E3E3E3" height="51.2422" rx="2.5" ry="2.5" style="stroke:#181818;stroke-width:0.5;" width="80" x="2000.5" y="31.3789"/><text fill="#000000" font-family="sans-serif" font-size="14" lengthAdjust="spacing" textLength="61" x="2010" y="53.4863">employee</text><text fill="#000000" font-family="sans-serif" font-size="14" lengthAdjust="spacing" textLength="66" x="2007.5" y="72.1074">:Employee</text><rect fill="#E3E3E3" height="51.2422" rx="2.5" ry="2.5" style="stroke:#181818;stroke-width:0.5;" width="80" x="2000.5" y="1652.8809"/><text fill="#000000" font-family="sans-serif" font-size="14" lengthAdjust="spacing" textLength="61" x="2010" y="1674.9883">employee</text><text fill="#000000" font-family="sans-serif" font-size="14" lengthAdjust="spacing" textLength="66" x="2007.5" y="1693.6094">:Employee</text><rect fill="#E3E3E3" height="51.2422" rx="2.5" ry="2.5" style="stroke:#181818;stroke-width:0.5;" width="52" x="2337.5" y="31.3789"/><text fill="#000000" font-family="sans-serif" font-size="14" lengthAdjust="spacing" textLength="37" x="2345" y="53.4863">tasks:</text><text fill="#000000" font-family="sans-serif" font-size="14" lengthAdjust="spacing" textLength="38" x="2344.5" y="72.1074">Tasks</text><rect fill="#E3E3E3" height="51.2422" rx="2.5" ry="2.5" style="stroke:#181818;stroke-width:0.5;" width="52" x="2337.5" y="1652.8809"/><text fill="#000000" font-family="sans-serif" font-size="14" lengthAdjust="spacing" textLength="37" x="2345" y="1674.9883">tasks:</text><text fill="#000000" font-family="sans-serif" font-size="14" lengthAdjust="spacing" textLength="38" x="2344.5" y="1693.6094">Tasks</text><rect fill="#E3E3E3" height="51.2422" rx="2.5" ry="2.5" style="stroke:#181818;stroke-width:0.5;" width="45" x="2627" y="31.3789"/><text fill="#000000" font-family="sans-serif" font-size="14" lengthAdjust="spacing" textLength="30" x="2634.5" y="53.4863">task:</text><text fill="#000000" font-family="sans-serif" font-size="14" lengthAdjust="spacing" textLength="31" x="2634" y="72.1074">Task</text><rect fill="#E3E3E3" height="51.2422" rx="2.5" ry="2.5" style="stroke:#181818;stroke-width:0.5;" width="45" x="2627" y="1652.8809"/><text fill="#000000" font-family="sans-serif" font-size="14" lengthAdjust="spacing" textLength="30" x="2634.5" y="1674.9883">task:</text><text fill="#000000" font-family="sans-serif" font-size="14" lengthAdjust="spacing" textLength="31" x="2634" y="1693.6094">Task</text><rect fill="#FFFFFF" height="1542.2598" style="stroke:#181818;stroke-width:1.0;" width="10" x="42" y="93.6211"/><rect fill="#FFFFFF" height="1143.4766" style="stroke:#181818;stroke-width:1.0;" width="10" x="366" y="116.9121"/><rect fill="#FFFFFF" height="93.873" style="stroke:#181818;stroke-width:1.0;" width="10" x="366" y="1291.6797"/><rect fill="#FFFFFF" height="219.0371" style="stroke:#181818;stroke-width:1.0;" width="10" x="366" y="1416.8438"/><rect fill="#FFFFFF" height="1080.8945" style="stroke:#181818;stroke-width:1.0;" width="10" x="749" y="148.2031"/><rect fill="#FFFFFF" height="31.291" style="stroke:#181818;stroke-width:1.0;" width="10" x="749" y="1322.9707"/><rect fill="#FFFFFF" height="156.4551" style="stroke:#181818;stroke-width:1.0;" width="10" x="749" y="1448.1348"/><rect fill="#FFFFFF" height="31.291" style="stroke:#181818;stroke-width:1.0;" width="10" x="914" y="223.7852"/><rect fill="#FFFFFF" height="31.291" style="stroke:#181818;stroke-width:1.0;" width="10" x="914" y="536.6953"/><rect fill="#FFFFFF" height="31.291" style="stroke:#181818;stroke-width:1.0;" width="10" x="914" y="820.3145"/><rect fill="#FFFFFF" height="31.291" style="stroke:#181818;stroke-width:1.0;" width="10" x="1021" y="286.3672"/><rect fill="#FFFFFF" height="31.291" style="stroke:#181818;stroke-width:1.0;" width="10" x="1021" y="599.2773"/><rect fill="#FFFFFF" height="31.291" style="stroke:#181818;stroke-width:1.0;" width="10" x="1021" y="882.8965"/><rect fill="#FFFFFF" height="156.4551" style="stroke:#181818;stroke-width:1.0;" width="10" x="1167.5" y="348.9492"/><rect fill="#FFFFFF" height="93.873" style="stroke:#181818;stroke-width:1.0;" width="10" x="1389.5" y="380.2402"/><rect fill="#FFFFFF" height="127.1641" style="stroke:#181818;stroke-width:1.0;" width="10" x="1529.5" y="661.8594"/><rect fill="#FFFFFF" height="31.291" style="stroke:#181818;stroke-width:1.0;" width="10" x="1778.5" y="719.4414"/><rect fill="#FFFFFF" height="31.291" style="stroke:#181818;stroke-width:1.0;" width="10" x="1911.5" y="945.4785"/><rect fill="#FFFFFF" height="189.7461" style="stroke:#181818;stroke-width:1.0;" width="10" x="2035.5" y="1008.0605"/><rect fill="#FFFFFF" height="93.873" style="stroke:#181818;stroke-width:1.0;" width="10" x="2035.5" y="1479.4258"/><rect fill="#FFFFFF" height="127.1641" style="stroke:#181818;stroke-width:1.0;" width="10" x="2358.5" y="1039.3516"/><rect fill="#FFFFFF" height="31.291" style="stroke:#181818;stroke-width:1.0;" width="10" x="2644.5" y="1096.9336"/><rect fill="#FFFFFF" height="134.1641" style="stroke:#181818;stroke-width:1.0;" width="10" x="2644.5" y="1510.7168"/><polygon fill="#181818" points="354,112.9121,364,116.9121,354,120.9121,358,116.9121" style="stroke:#181818;stroke-width:1.0;"/><line style="stroke:#181818;stroke-width:1.0;" x1="52" x2="360" y1="116.9121" y2="116.9121"/><text fill="#000000" font-family="sans-serif" font-size="13" font-weight="bold" lengthAdjust="spacing" textLength="7" x="59" y="111.6494">1</text><text fill="#000000" font-family="sans-serif" font-size="13" lengthAdjust="spacing" textLength="220" x="70" y="111.6494">requests to mark a task as completed</text><polygon fill="#181818" points="737,144.2031,747,148.2031,737,152.2031,741,148.2031" style="stroke:#181818;stroke-width:1.0;"/><line style="stroke:#181818;stroke-width:1.0;" x1="376" x2="743" y1="148.2031" y2="148.2031"/><text fill="#000000" font-family="sans-serif" font-size="13" font-weight="bold" lengthAdjust="spacing" textLength="7" x="383" y="142.9404">2</text><text fill="#000000" font-family="sans-serif" font-size="13" lengthAdjust="spacing" textLength="208" x="394" y="142.9404">getThisCollaboratorTasksInAgenda()</text><line style="stroke:#181818;stroke-width:1.0;" x1="759" x2="801" y1="179.4941" y2="179.4941"/><line style="stroke:#181818;stroke-width:1.0;" x1="801" x2="801" y1="179.4941" y2="192.4941"/><line style="stroke:#181818;stroke-width:1.0;" x1="760" x2="801" y1="192.4941" y2="192.4941"/><polygon fill="#181818" points="770,188.4941,760,192.4941,770,196.4941,766,192.4941" style="stroke:#181818;stroke-width:1.0;"/><text fill="#000000" font-family="sans-serif" font-size="13" font-weight="bold" lengthAdjust="spacing" textLength="7" x="766" y="174.2314">3</text><text fill="#000000" font-family="sans-serif" font-size="13" lengthAdjust="spacing" textLength="130" x="777" y="174.2314">getUserFromSession()</text><polygon fill="#181818" points="902,219.7852,912,223.7852,902,227.7852,906,223.7852" style="stroke:#181818;stroke-width:1.0;"/><line style="stroke:#181818;stroke-width:1.0;" x1="759" x2="908" y1="223.7852" y2="223.7852"/><text fill="#000000" font-family="sans-serif" font-size="13" font-weight="bold" lengthAdjust="spacing" textLength="7" x="766" y="218.5225">4</text><text fill="#000000" font-family="sans-serif" font-size="13" lengthAdjust="spacing" textLength="75" x="777" y="218.5225">getInstance()</text><polygon fill="#181818" points="770,251.0762,760,255.0762,770,259.0762,766,255.0762" style="stroke:#181818;stroke-width:1.0;"/><line style="stroke:#181818;stroke-width:1.0;stroke-dasharray:2.0,2.0;" x1="764" x2="918" y1="255.0762" y2="255.0762"/><text fill="#000000" font-family="sans-serif" font-size="13" font-weight="bold" lengthAdjust="spacing" textLength="7" x="776" y="249.8135">5</text><text fill="#000000" font-family="sans-serif" font-size="13" lengthAdjust="spacing" textLength="72" x="787" y="249.8135">Repositories</text><polygon fill="#181818" points="1009,282.3672,1019,286.3672,1009,290.3672,1013,286.3672" style="stroke:#181818;stroke-width:1.0;"/><line style="stroke:#181818;stroke-width:1.0;" x1="759" x2="1015" y1="286.3672" y2="286.3672"/><text fill="#000000" font-family="sans-serif" font-size="13" font-weight="bold" lengthAdjust="spacing" textLength="7" x="766" y="281.1045">6</text><text fill="#000000" font-family="sans-serif" font-size="13" lengthAdjust="spacing" textLength="171" x="777" y="281.1045">getAuthenticationRepository()</text><polygon fill="#181818" points="770,313.6582,760,317.6582,770,321.6582,766,317.6582" style="stroke:#181818;stroke-width:1.0;"/><line style="stroke:#181818;stroke-width:1.0;stroke-dasharray:2.0,2.0;" x1="764" x2="1025" y1="317.6582" y2="317.6582"/><text fill="#000000" font-family="sans-serif" font-size="13" font-weight="bold" lengthAdjust="spacing" textLength="7" x="776" y="312.3955">7</text><text fill="#000000" font-family="sans-serif" font-size="13" lengthAdjust="spacing" textLength="153" x="787" y="312.3955">AuthenticationRepository()</text><polygon fill="#181818" points="1155.5,344.9492,1165.5,348.9492,1155.5,352.9492,1159.5,348.9492" style="stroke:#181818;stroke-width:1.0;"/><line style="stroke:#181818;stroke-width:1.0;" x1="759" x2="1161.5" y1="348.9492" y2="348.9492"/><text fill="#000000" font-family="sans-serif" font-size="13" font-weight="bold" lengthAdjust="spacing" textLength="7" x="766" y="343.6865">8</text><text fill="#000000" font-family="sans-serif" font-size="13" lengthAdjust="spacing" textLength="142" x="777" y="343.6865">getCurrentUserSession()</text><polygon fill="#181818" points="1377.5,376.2402,1387.5,380.2402,1377.5,384.2402,1381.5,380.2402" style="stroke:#181818;stroke-width:1.0;"/><line style="stroke:#181818;stroke-width:1.0;" x1="1177.5" x2="1383.5" y1="380.2402" y2="380.2402"/><text fill="#000000" font-family="sans-serif" font-size="13" font-weight="bold" lengthAdjust="spacing" textLength="7" x="1184.5" y="374.9775">9</text><text fill="#000000" font-family="sans-serif" font-size="13" lengthAdjust="spacing" textLength="182" x="1195.5" y="374.9775">isLoggedWithRule(Collaborator)</text><polygon fill="#181818" points="1188.5,407.5313,1178.5,411.5313,1188.5,415.5313,1184.5,411.5313" style="stroke:#181818;stroke-width:1.0;"/><line style="stroke:#181818;stroke-width:1.0;stroke-dasharray:2.0,2.0;" x1="1182.5" x2="1388.5" y1="411.5313" y2="411.5313"/><text fill="#000000" font-family="sans-serif" font-size="13" font-weight="bold" lengthAdjust="spacing" textLength="14" x="1194.5" y="406.2686">10</text><text fill="#000000" font-family="sans-serif" font-size="13" lengthAdjust="spacing" textLength="71" x="1212.5" y="406.2686">"True/False"</text><polygon fill="#181818" points="1377.5,438.8223,1387.5,442.8223,1377.5,446.8223,1381.5,442.8223" style="stroke:#181818;stroke-width:1.0;"/><line style="stroke:#181818;stroke-width:1.0;stroke-dasharray:2.0,2.0;" x1="1177.5" x2="1383.5" y1="442.8223" y2="442.8223"/><text fill="#000000" font-family="sans-serif" font-size="13" font-weight="bold" lengthAdjust="spacing" textLength="14" x="1184.5" y="437.5596">11</text><text fill="#000000" font-family="sans-serif" font-size="13" lengthAdjust="spacing" textLength="94" x="1202.5" y="437.5596">getUserId(email)</text><polygon fill="#181818" points="1188.5,470.1133,1178.5,474.1133,1188.5,478.1133,1184.5,474.1133" style="stroke:#181818;stroke-width:1.0;"/><line style="stroke:#181818;stroke-width:1.0;stroke-dasharray:2.0,2.0;" x1="1182.5" x2="1393.5" y1="474.1133" y2="474.1133"/><text fill="#000000" font-family="sans-serif" font-size="13" font-weight="bold" lengthAdjust="spacing" textLength="14" x="1194.5" y="468.8506">12</text><text fill="#000000" font-family="sans-serif" font-size="13" lengthAdjust="spacing" textLength="74" x="1212.5" y="468.8506">userId(email)</text><polygon fill="#181818" points="770,501.4043,760,505.4043,770,509.4043,766,505.4043" style="stroke:#181818;stroke-width:1.0;"/><line style="stroke:#181818;stroke-width:1.0;stroke-dasharray:2.0,2.0;" x1="764" x2="1171.5" y1="505.4043" y2="505.4043"/><text fill="#000000" font-family="sans-serif" font-size="13" font-weight="bold" lengthAdjust="spacing" textLength="14" x="776" y="500.1416">13</text><text fill="#000000" font-family="sans-serif" font-size="13" lengthAdjust="spacing" textLength="74" x="794" y="500.1416">userId(email)</text><polygon fill="#181818" points="902,532.6953,912,536.6953,902,540.6953,906,536.6953" style="stroke:#181818;stroke-width:1.0;"/><line style="stroke:#181818;stroke-width:1.0;" x1="759" x2="908" y1="536.6953" y2="536.6953"/><text fill="#000000" font-family="sans-serif" font-size="13" font-weight="bold" lengthAdjust="spacing" textLength="14" x="766" y="531.4326">14</text><text fill="#000000" font-family="sans-serif" font-size="13" lengthAdjust="spacing" textLength="75" x="784" y="531.4326">getInstance()</text><polygon fill="#181818" points="770,563.9863,760,567.9863,770,571.9863,766,567.9863" style="stroke:#181818;stroke-width:1.0;"/><line style="stroke:#181818;stroke-width:1.0;stroke-dasharray:2.0,2.0;" x1="764" x2="918" y1="567.9863" y2="567.9863"/><text fill="#000000" font-family="sans-serif" font-size="13" font-weight="bold" lengthAdjust="spacing" textLength="14" x="776" y="562.7236">15</text><text fill="#000000" font-family="sans-serif" font-size="13" lengthAdjust="spacing" textLength="72" x="794" y="562.7236">Repositories</text><polygon fill="#181818" points="1009,595.2773,1019,599.2773,1009,603.2773,1013,599.2773" style="stroke:#181818;stroke-width:1.0;"/><line style="stroke:#181818;stroke-width:1.0;" x1="759" x2="1015" y1="599.2773" y2="599.2773"/><text fill="#000000" font-family="sans-serif" font-size="13" font-weight="bold" lengthAdjust="spacing" textLength="14" x="766" y="594.0146">16</text><text fill="#000000" font-family="sans-serif" font-size="13" lengthAdjust="spacing" textLength="161" x="784" y="594.0146">getOrganizationRepository()</text><polygon fill="#181818" points="770,626.5684,760,630.5684,770,634.5684,766,630.5684" style="stroke:#181818;stroke-width:1.0;"/><line style="stroke:#181818;stroke-width:1.0;stroke-dasharray:2.0,2.0;" x1="764" x2="1025" y1="630.5684" y2="630.5684"/><text fill="#000000" font-family="sans-serif" font-size="13" font-weight="bold" lengthAdjust="spacing" textLength="14" x="776" y="625.3057">17</text><text fill="#000000" font-family="sans-serif" font-size="13" lengthAdjust="spacing" textLength="143" x="794" y="625.3057">OrganizationRepository()</text><polygon fill="#181818" points="1517.5,657.8594,1527.5,661.8594,1517.5,665.8594,1521.5,661.8594" style="stroke:#181818;stroke-width:1.0;"/><line style="stroke:#181818;stroke-width:1.0;" x1="759" x2="1523.5" y1="661.8594" y2="661.8594"/><text fill="#000000" font-family="sans-serif" font-size="13" font-weight="bold" lengthAdjust="spacing" textLength="14" x="766" y="656.5967">18</text><text fill="#000000" font-family="sans-serif" font-size="13" lengthAdjust="spacing" textLength="183" x="784" y="656.5967">getOrganizationByUserId(email)</text><path d="M1443,676.8594 L1516,676.8594 L1516,686.1504 L1506,696.1504 L1443,696.1504 L1443,676.8594 " fill="#EEEEEE" style="stroke:#000000;stroke-width:1.5;"/><rect fill="none" height="81.873" style="stroke:#000000;stroke-width:1.5;" width="399.5" x="1443" y="676.8594"/><text fill="#000000" font-family="sans-serif" font-size="13" font-weight="bold" lengthAdjust="spacing" textLength="28" x="1458" y="691.8877">loop</text><text fill="#000000" font-family="sans-serif" font-size="11" font-weight="bold" lengthAdjust="spacing" textLength="124" x="1531" y="690.7295">[for each organization]</text><polygon fill="#181818" points="1766.5,715.4414,1776.5,719.4414,1766.5,723.4414,1770.5,719.4414" style="stroke:#181818;stroke-width:1.0;"/><line style="stroke:#181818;stroke-width:1.0;" x1="1539.5" x2="1772.5" y1="719.4414" y2="719.4414"/><text fill="#000000" font-family="sans-serif" font-size="13" font-weight="bold" lengthAdjust="spacing" textLength="14" x="1546.5" y="714.1787">19</text><text fill="#000000" font-family="sans-serif" font-size="13" lengthAdjust="spacing" textLength="202" x="1564.5" y="714.1787">anyEmployeeHasThisUserId(email)</text><polygon fill="#181818" points="1550.5,746.7324,1540.5,750.7324,1550.5,754.7324,1546.5,750.7324" style="stroke:#181818;stroke-width:1.0;"/><line style="stroke:#181818;stroke-width:1.0;stroke-dasharray:2.0,2.0;" x1="1544.5" x2="1782.5" y1="750.7324" y2="750.7324"/><text fill="#000000" font-family="sans-serif" font-size="13" font-weight="bold" lengthAdjust="spacing" textLength="14" x="1556.5" y="745.4697">20</text><text fill="#000000" font-family="sans-serif" font-size="13" lengthAdjust="spacing" textLength="61" x="1574.5" y="745.4697">True/False</text><polygon fill="#181818" points="770,785.0234,760,789.0234,770,793.0234,766,789.0234" style="stroke:#181818;stroke-width:1.0;"/><line style="stroke:#181818;stroke-width:1.0;stroke-dasharray:2.0,2.0;" x1="764" x2="1533.5" y1="789.0234" y2="789.0234"/><text fill="#000000" font-family="sans-serif" font-size="13" font-weight="bold" lengthAdjust="spacing" textLength="14" x="776" y="783.7607">21</text><text fill="#000000" font-family="sans-serif" font-size="13" lengthAdjust="spacing" textLength="70" x="794" y="783.7607">organization</text><polygon fill="#181818" points="902,816.3145,912,820.3145,902,824.3145,906,820.3145" style="stroke:#181818;stroke-width:1.0;"/><line style="stroke:#181818;stroke-width:1.0;" x1="759" x2="908" y1="820.3145" y2="820.3145"/><text fill="#000000" font-family="sans-serif" font-size="13" font-weight="bold" lengthAdjust="spacing" textLength="14" x="766" y="815.0518">22</text><text fill="#000000" font-family="sans-serif" font-size="13" lengthAdjust="spacing" textLength="75" x="784" y="815.0518">getInstance()</text><polygon fill="#181818" points="770,847.6055,760,851.6055,770,855.6055,766,851.6055" style="stroke:#181818;stroke-width:1.0;"/><line style="stroke:#181818;stroke-width:1.0;stroke-dasharray:2.0,2.0;" x1="764" x2="918" y1="851.6055" y2="851.6055"/><text fill="#000000" font-family="sans-serif" font-size="13" font-weight="bold" lengthAdjust="spacing" textLength="14" x="776" y="846.3428">23</text><text fill="#000000" font-family="sans-serif" font-size="13" lengthAdjust="spacing" textLength="67" x="794" y="846.3428">repositories</text><polygon fill="#181818" points="1009,878.8965,1019,882.8965,1009,886.8965,1013,882.8965" style="stroke:#181818;stroke-width:1.0;"/><line style="stroke:#181818;stroke-width:1.0;" x1="759" x2="1015" y1="882.8965" y2="882.8965"/><text fill="#000000" font-family="sans-serif" font-size="13" font-weight="bold" lengthAdjust="spacing" textLength="14" x="766" y="877.6338">24</text><text fill="#000000" font-family="sans-serif" font-size="13" lengthAdjust="spacing" textLength="146" x="784" y="877.6338">getEmployeeRepository()</text><polygon fill="#181818" points="770,910.1875,760,914.1875,770,918.1875,766,914.1875" style="stroke:#181818;stroke-width:1.0;"/><line style="stroke:#181818;stroke-width:1.0;stroke-dasharray:2.0,2.0;" x1="764" x2="1025" y1="914.1875" y2="914.1875"/><text fill="#000000" font-family="sans-serif" font-size="13" font-weight="bold" lengthAdjust="spacing" textLength="14" x="776" y="908.9248">25</text><text fill="#000000" font-family="sans-serif" font-size="13" lengthAdjust="spacing" textLength="120" x="794" y="908.9248">EmployeeRepository</text><polygon fill="#181818" points="1899.5,941.4785,1909.5,945.4785,1899.5,949.4785,1903.5,945.4785" style="stroke:#181818;stroke-width:1.0;"/><line style="stroke:#181818;stroke-width:1.0;" x1="759" x2="1905.5" y1="945.4785" y2="945.4785"/><text fill="#000000" font-family="sans-serif" font-size="13" font-weight="bold" lengthAdjust="spacing" textLength="14" x="766" y="940.2158">26</text><text fill="#000000" font-family="sans-serif" font-size="13" lengthAdjust="spacing" textLength="265" x="784" y="940.2158">listThisCollaboratorTasksInAgenda(userEmail)</text><polygon fill="#181818" points="770,972.7695,760,976.7695,770,980.7695,766,976.7695" style="stroke:#181818;stroke-width:1.0;"/><line style="stroke:#181818;stroke-width:1.0;stroke-dasharray:2.0,2.0;" x1="764" x2="1915.5" y1="976.7695" y2="976.7695"/><text fill="#000000" font-family="sans-serif" font-size="13" font-weight="bold" lengthAdjust="spacing" textLength="14" x="776" y="971.5068">27</text><text fill="#000000" font-family="sans-serif" font-size="13" lengthAdjust="spacing" textLength="58" x="794" y="971.5068">Employee</text><polygon fill="#181818" points="2023.5,1004.0605,2033.5,1008.0605,2023.5,1012.0605,2027.5,1008.0605" style="stroke:#181818;stroke-width:1.0;"/><line style="stroke:#181818;stroke-width:1.0;" x1="759" x2="2029.5" y1="1008.0605" y2="1008.0605"/><text fill="#000000" font-family="sans-serif" font-size="13" font-weight="bold" lengthAdjust="spacing" textLength="14" x="766" y="1002.7979">28</text><text fill="#000000" font-family="sans-serif" font-size="13" lengthAdjust="spacing" textLength="265" x="784" y="1002.7979">listThisCollaboratorTasksInAgenda(userEmail)</text><polygon fill="#181818" points="2346.5,1035.3516,2356.5,1039.3516,2346.5,1043.3516,2350.5,1039.3516" style="stroke:#181818;stroke-width:1.0;"/><line style="stroke:#181818;stroke-width:1.0;" x1="2045.5" x2="2352.5" y1="1039.3516" y2="1039.3516"/><text fill="#000000" font-family="sans-serif" font-size="13" font-weight="bold" lengthAdjust="spacing" textLength="14" x="2052.5" y="1034.0889">29</text><text fill="#000000" font-family="sans-serif" font-size="13" lengthAdjust="spacing" textLength="276" x="2070.5" y="1034.0889">filterThisCollaboratorTasksInAgenda(userEmail))</text><path d="M2327.5,1054.3516 L2400.5,1054.3516 L2400.5,1063.6426 L2390.5,1073.6426 L2327.5,1073.6426 L2327.5,1054.3516 " fill="#EEEEEE" style="stroke:#000000;stroke-width:1.5;"/><rect fill="none" height="81.873" style="stroke:#000000;stroke-width:1.5;" width="354.5" x="2327.5" y="1054.3516"/><text fill="#000000" font-family="sans-serif" font-size="13" font-weight="bold" lengthAdjust="spacing" textLength="28" x="2342.5" y="1069.3799">loop</text><text fill="#000000" font-family="sans-serif" font-size="11" font-weight="bold" lengthAdjust="spacing" textLength="83" x="2415.5" y="1068.2217">[for each Task]</text><polygon fill="#181818" points="2632.5,1092.9336,2642.5,1096.9336,2632.5,1100.9336,2636.5,1096.9336" style="stroke:#181818;stroke-width:1.0;"/><line style="stroke:#181818;stroke-width:1.0;" x1="2368.5" x2="2638.5" y1="1096.9336" y2="1096.9336"/><text fill="#000000" font-family="sans-serif" font-size="13" font-weight="bold" lengthAdjust="spacing" textLength="14" x="2375.5" y="1091.6709">30</text><text fill="#000000" font-family="sans-serif" font-size="13" lengthAdjust="spacing" textLength="239" x="2393.5" y="1091.6709">getThisCollaboratorTasksInAgenda(email)</text><polygon fill="#181818" points="2379.5,1124.2246,2369.5,1128.2246,2379.5,1132.2246,2375.5,1128.2246" style="stroke:#181818;stroke-width:1.0;"/><line style="stroke:#181818;stroke-width:1.0;stroke-dasharray:2.0,2.0;" x1="2373.5" x2="2648.5" y1="1128.2246" y2="1128.2246"/><text fill="#000000" font-family="sans-serif" font-size="13" font-weight="bold" lengthAdjust="spacing" textLength="14" x="2385.5" y="1122.9619">31</text><text fill="#000000" font-family="sans-serif" font-size="13" lengthAdjust="spacing" textLength="28" x="2403.5" y="1122.9619">Task</text><polygon fill="#181818" points="2056.5,1162.5156,2046.5,1166.5156,2056.5,1170.5156,2052.5,1166.5156" style="stroke:#181818;stroke-width:1.0;"/><line style="stroke:#181818;stroke-width:1.0;stroke-dasharray:2.0,2.0;" x1="2050.5" x2="2362.5" y1="1166.5156" y2="1166.5156"/><text fill="#000000" font-family="sans-serif" font-size="13" font-weight="bold" lengthAdjust="spacing" textLength="14" x="2062.5" y="1161.2529">32</text><text fill="#000000" font-family="sans-serif" font-size="13" lengthAdjust="spacing" textLength="65" x="2080.5" y="1161.2529">List&lt;Task&gt;</text><polygon fill="#181818" points="770,1193.8066,760,1197.8066,770,1201.8066,766,1197.8066" style="stroke:#181818;stroke-width:1.0;"/><line style="stroke:#181818;stroke-width:1.0;stroke-dasharray:2.0,2.0;" x1="764" x2="2039.5" y1="1197.8066" y2="1197.8066"/><text fill="#000000" font-family="sans-serif" font-size="13" font-weight="bold" lengthAdjust="spacing" textLength="14" x="776" y="1192.5439">33</text><text fill="#000000" font-family="sans-serif" font-size="13" lengthAdjust="spacing" textLength="65" x="794" y="1192.5439">List&lt;Task&gt;</text><polygon fill="#181818" points="387,1225.0977,377,1229.0977,387,1233.0977,383,1229.0977" style="stroke:#181818;stroke-width:1.0;"/><line style="stroke:#181818;stroke-width:1.0;stroke-dasharray:2.0,2.0;" x1="381" x2="753" y1="1229.0977" y2="1229.0977"/><text fill="#000000" font-family="sans-serif" font-size="13" font-weight="bold" lengthAdjust="spacing" textLength="14" x="393" y="1223.835">34</text><text fill="#000000" font-family="sans-serif" font-size="13" lengthAdjust="spacing" textLength="199" x="411" y="1223.835">listThisCollaboratorTasksInAgenda</text><polygon fill="#181818" points="63,1256.3887,53,1260.3887,63,1264.3887,59,1260.3887" style="stroke:#181818;stroke-width:1.0;"/><line style="stroke:#181818;stroke-width:1.0;stroke-dasharray:2.0,2.0;" x1="57" x2="370" y1="1260.3887" y2="1260.3887"/><text fill="#000000" font-family="sans-serif" font-size="13" font-weight="bold" lengthAdjust="spacing" textLength="14" x="69" y="1255.126">35</text><text fill="#000000" font-family="sans-serif" font-size="13" lengthAdjust="spacing" textLength="194" x="87" y="1255.126">list collaborator tasks in schedule</text><polygon fill="#181818" points="354,1287.6797,364,1291.6797,354,1295.6797,358,1291.6797" style="stroke:#181818;stroke-width:1.0;"/><line style="stroke:#181818;stroke-width:1.0;" x1="52" x2="360" y1="1291.6797" y2="1291.6797"/><text fill="#000000" font-family="sans-serif" font-size="13" font-weight="bold" lengthAdjust="spacing" textLength="14" x="59" y="1286.417">36</text><text fill="#000000" font-family="sans-serif" font-size="13" lengthAdjust="spacing" textLength="150" x="77" y="1286.417">selects tasks from the list</text><polygon fill="#181818" points="737,1318.9707,747,1322.9707,737,1326.9707,741,1322.9707" style="stroke:#181818;stroke-width:1.0;"/><line style="stroke:#181818;stroke-width:1.0;" x1="376" x2="743" y1="1322.9707" y2="1322.9707"/><text fill="#000000" font-family="sans-serif" font-size="13" font-weight="bold" lengthAdjust="spacing" textLength="14" x="383" y="1317.708">37</text><text fill="#000000" font-family="sans-serif" font-size="13" lengthAdjust="spacing" textLength="96" x="401" y="1317.708">selectTask(task)</text><polygon fill="#181818" points="387,1350.2617,377,1354.2617,387,1358.2617,383,1354.2617" style="stroke:#181818;stroke-width:1.0;"/><line style="stroke:#181818;stroke-width:1.0;" x1="381" x2="753" y1="1354.2617" y2="1354.2617"/><text fill="#000000" font-family="sans-serif" font-size="13" font-weight="bold" lengthAdjust="spacing" textLength="14" x="393" y="1348.999">38</text><text fill="#000000" font-family="sans-serif" font-size="13" lengthAdjust="spacing" textLength="331" x="411" y="1348.999">displayTaskDetails(TaskDetails) and request confirmation</text><polygon fill="#181818" points="63,1381.5527,53,1385.5527,63,1389.5527,59,1385.5527" style="stroke:#181818;stroke-width:1.0;"/><line style="stroke:#181818;stroke-width:1.0;" x1="57" x2="370" y1="1385.5527" y2="1385.5527"/><text fill="#000000" font-family="sans-serif" font-size="13" font-weight="bold" lengthAdjust="spacing" textLength="14" x="69" y="1380.29">39</text><text fill="#000000" font-family="sans-serif" font-size="13" lengthAdjust="spacing" textLength="272" x="87" y="1380.29">display tasks details and requests confirmation</text><polygon fill="#181818" points="354,1412.8438,364,1416.8438,354,1420.8438,358,1416.8438" style="stroke:#181818;stroke-width:1.0;"/><line style="stroke:#181818;stroke-width:1.0;" x1="52" x2="360" y1="1416.8438" y2="1416.8438"/><text fill="#000000" font-family="sans-serif" font-size="13" font-weight="bold" lengthAdjust="spacing" textLength="14" x="59" y="1411.5811">40</text><text fill="#000000" font-family="sans-serif" font-size="13" lengthAdjust="spacing" textLength="145" x="77" y="1411.5811">confirms task completion</text><polygon fill="#181818" points="737,1444.1348,747,1448.1348,737,1452.1348,741,1448.1348" style="stroke:#181818;stroke-width:1.0;"/><line style="stroke:#181818;stroke-width:1.0;" x1="376" x2="743" y1="1448.1348" y2="1448.1348"/><text fill="#000000" font-family="sans-serif" font-size="13" font-weight="bold" lengthAdjust="spacing" textLength="14" x="383" y="1442.8721">41</text><text fill="#000000" font-family="sans-serif" font-size="13" lengthAdjust="spacing" textLength="168" x="401" y="1442.8721">confirmTaskCompletion(task)</text><polygon fill="#181818" points="2023.5,1475.4258,2033.5,1479.4258,2023.5,1483.4258,2027.5,1479.4258" style="stroke:#181818;stroke-width:1.0;"/><line style="stroke:#181818;stroke-width:1.0;" x1="759" x2="2029.5" y1="1479.4258" y2="1479.4258"/><text fill="#000000" font-family="sans-serif" font-size="13" font-weight="bold" lengthAdjust="spacing" textLength="14" x="766" y="1474.1631">42</text><text fill="#000000" font-family="sans-serif" font-size="13" lengthAdjust="spacing" textLength="140" x="784" y="1474.1631">markAsCompleted(task)</text><polygon fill="#181818" points="2632.5,1506.7168,2642.5,1510.7168,2632.5,1514.7168,2636.5,1510.7168" style="stroke:#181818;stroke-width:1.0;"/><line style="stroke:#181818;stroke-width:1.0;" x1="2045.5" x2="2638.5" y1="1510.7168" y2="1510.7168"/><text fill="#000000" font-family="sans-serif" font-size="13" font-weight="bold" lengthAdjust="spacing" textLength="14" x="2052.5" y="1505.4541">43</text><text fill="#000000" font-family="sans-serif" font-size="13" lengthAdjust="spacing" textLength="98" x="2070.5" y="1505.4541">setStatus (Done)</text><polygon fill="#181818" points="2056.5,1538.0078,2046.5,1542.0078,2056.5,1546.0078,2052.5,1542.0078" style="stroke:#181818;stroke-width:1.0;"/><line style="stroke:#181818;stroke-width:1.0;" x1="2050.5" x2="2643.5" y1="1542.0078" y2="1542.0078"/><text fill="#000000" font-family="sans-serif" font-size="13" font-weight="bold" lengthAdjust="spacing" textLength="14" x="2062.5" y="1536.7451">44</text><text fill="#000000" font-family="sans-serif" font-size="13" lengthAdjust="spacing" textLength="107" x="2080.5" y="1536.7451">status set to Done</text><polygon fill="#181818" points="770,1569.2988,760,1573.2988,770,1577.2988,766,1573.2988" style="stroke:#181818;stroke-width:1.0;"/><line style="stroke:#181818;stroke-width:1.0;stroke-dasharray:2.0,2.0;" x1="764" x2="2039.5" y1="1573.2988" y2="1573.2988"/><text fill="#000000" font-family="sans-serif" font-size="13" font-weight="bold" lengthAdjust="spacing" textLength="14" x="776" y="1568.0361">45</text><text fill="#000000" font-family="sans-serif" font-size="13" lengthAdjust="spacing" textLength="154" x="794" y="1568.0361">task marked as completed</text><polygon fill="#181818" points="387,1600.5898,377,1604.5898,387,1608.5898,383,1604.5898" style="stroke:#181818;stroke-width:1.0;"/><line style="stroke:#181818;stroke-width:1.0;" x1="381" x2="753" y1="1604.5898" y2="1604.5898"/><text fill="#000000" font-family="sans-serif" font-size="13" font-weight="bold" lengthAdjust="spacing" textLength="14" x="393" y="1599.3271">46</text><text fill="#000000" font-family="sans-serif" font-size="13" lengthAdjust="spacing" textLength="216" x="411" y="1599.3271">success in recording task completion</text><polygon fill="#181818" points="58,1631.8809,48,1635.8809,58,1639.8809,54,1635.8809" style="stroke:#181818;stroke-width:1.0;"/><line style="stroke:#181818;stroke-width:1.0;" x1="52" x2="370" y1="1635.8809" y2="1635.8809"/><text fill="#000000" font-family="sans-serif" font-size="13" font-weight="bold" lengthAdjust="spacing" textLength="14" x="64" y="1630.6182">47</text><text fill="#000000" font-family="sans-serif" font-size="13" lengthAdjust="spacing" textLength="216" x="82" y="1630.6182">success in recording task completion</text><!--SRC=[tLXDZzis4BthLn2-n3uiUZU20AxNcnZPe0j_89TSkDBO9bOcNP9gw_xwp92IJ4gYxIqA5AWEYxKry-RDy0qvj7aJyiGrFxAZaYe_Q7K4PdK5cMdVd7Z-nlUmjkSIc8RSShalGmDpu8NwKyWzs_7IG9RnoYfP7Lz1Pzc7WoY0xPIoh-glZETMQJQQgxBahqfp_3HYtB3PuxSCmQp8nObBoqRJ3JTlStKybM25ajkbCzikhrhDbRGQeS63pZUhvuxz2axA28mgm3YRzelpMb1QI3nsqO773za7U7cURMAFMMKFJppd1Q0zVG29BpaHl4JpMMytNrQBbzYzCg3NO0oQe__syibNOBrOnVPAxxaKVtVmfp_aRuCl7ChmgpGk4WbTFCRgS-m0k0pg3701HBT5xqldlFZsqakyyG-y6jlOqEAY6qoG5jylmcQs_hhk6zKshKcMaG357zo2Kro6VzZ39vGLcwAoVw_0MCEiOaUktnXdX46-kLSO51d3fuL0DMReYW2aD8JOWzqSX0dLxJWkvMmFik3ZIGpW1Efy8mnQyoVin7hTQozw6ji1rNhNfJJOdZa4Fcsq8Qb7m1yV7XB8eUfRdmBkXqREr2YUPAedXaYxzkgnhB7k00f8zg6GLTs2djYyqXhnWfuRejHqBGkU1eR4X1sASC8yg_qUYk_27bPL2UDG5PF8-I8eQkuXMCgvnXrjS7V-vOassj4mXGk7MalBOWn7Bih9BUmgQHoKCIBPhiYbZiCW0K1Jl_-PgeVtr7Th-YRCBKKF0x1fX-Alvs5fjE29Co9KHQdK2OzspP3IWOK7HcIMO4HSLvynPIxFpOR_XHlQGTEglT33u-UE85HP7-NIDobbTo5notOfzjSgLUFX6eGXXelwt_U2_WUzSAKP-iV-E5x7T4Ea6gCFsND9jKQNfvy-4BCKviQ9JRlPeY_3Y7uzp2GJQCCrALmZVWtCK_ytUVTUqaCnC9GRgZ3OJfGMzBtX9eEGRKm_gR744sye529f6ZwUQKtvdZaCXYjpa_axsD32rtJkpYEGmTtHUfjKPoKR7hIIpoYRZyJcKtP7-FLLHL-7YmKTlSQ9cI3gSVUcabERjPkTsra6vtWtnonhI1pPBtXkZZTCI6Ro0nGuZ0tjS3JDX_S10oNUTKtjlCDvdE6qwT2pn1MWSQ84nkGtoMA- -3IDl5rEMI7CgUHdCdy4Yv8qu-3_2HwCHNCjmOJaJkYZFrcwTQWv8FqMjEPTUAmGoYIneX9C6pDVWkOIH2x9z6kF-5O-N8bWGvkw-zRCp9jhLjU399G5knBLsQujjvLXuqSb8R3rzppNUGswyPReGtSxiiyyd9kLFNEN8j608hxnTPGShP-fyXpl2QGi3RdI1Vq6qYtMjRLwBm3LEvoayGxx4m00]--></g></svg>