<?xml version="1.0" encoding="us-ascii" standalone="no"?><svg xmlns="http://www.w3.org/2000/svg" xmlns:xlink="http://www.w3.org/1999/xlink" contentStyleType="text/css" height="2003px" preserveAspectRatio="none" style="width:1416px;height:2003px;background:#FFFFFF;" version="1.1" viewBox="0 0 1416 2003" width="1416px" zoomAndPan="magnify"><defs/><g><!--class PostponeTaskUI--><g id="elem_PostponeTaskUI"><rect codeLine="1" fill="#F1F1F1" height="48" id="PostponeTaskUI" rx="2.5" ry="2.5" style="stroke:#181818;stroke-width:0.5;" width="135" x="625.5" y="7"/><ellipse cx="640.5" cy="23" fill="#ADD1B2" rx="11" ry="11" style="stroke:#181818;stroke-width:1.0;"/><path d="M643.2656,18.875 Q643.4219,18.6563 643.6094,18.5469 Q643.7969,18.4375 644.0156,18.4375 Q644.3906,18.4375 644.625,18.7031 Q644.8594,18.9531 644.8594,19.5625 L644.8594,21.0156 Q644.8594,21.625 644.625,21.8906 Q644.3906,22.1563 644.0156,22.1563 Q643.6719,22.1563 643.4688,21.9531 Q643.2656,21.7656 643.1563,21.25 Q643.1094,20.8906 642.9219,20.7031 Q642.5938,20.3281 641.9844,20.1094 Q641.375,19.8906 640.75,19.8906 Q639.9844,19.8906 639.3438,20.2188 Q638.7188,20.5469 638.2188,21.2969 Q637.7344,22.0469 637.7344,23.0781 L637.7344,24.1719 Q637.7344,25.4063 638.625,26.2344 Q639.5156,27.0469 641.1094,27.0469 Q642.0469,27.0469 642.7031,26.7969 Q643.0938,26.6406 643.5156,26.2031 Q643.7813,25.9375 643.9219,25.8594 Q644.0781,25.7813 644.2813,25.7813 Q644.6094,25.7813 644.8594,26.0469 Q645.125,26.2969 645.125,26.6406 Q645.125,26.9844 644.7813,27.3906 Q644.2813,27.9688 643.4844,28.2969 Q642.4063,28.75 641.1094,28.75 Q639.5938,28.75 638.3906,28.125 Q637.4063,27.625 636.7188,26.5625 Q636.0313,25.4844 636.0313,24.2031 L636.0313,23.0469 Q636.0313,21.7188 636.6406,20.5781 Q637.2656,19.4219 638.3594,18.8125 Q639.4531,18.1875 640.6875,18.1875 Q641.4219,18.1875 642.0625,18.3594 Q642.7188,18.5156 643.2656,18.875 Z " fill="#000000"/><text fill="#000000" font-family="sans-serif" font-size="14" lengthAdjust="spacing" textLength="103" x="654.5" y="28.7969">PostponeTaskUI</text><line style="stroke:#181818;stroke-width:0.5;" x1="626.5" x2="759.5" y1="39" y2="39"/><line style="stroke:#181818;stroke-width:0.5;" x1="626.5" x2="759.5" y1="47" y2="47"/></g><!--class PostponeTaskController--><g id="elem_PostponeTaskController"><rect codeLine="4" fill="#F1F1F1" height="66.6211" id="PostponeTaskController" rx="2.5" ry="2.5" style="stroke:#181818;stroke-width:0.5;" width="403" x="491.5" y="134"/><ellipse cx="612.25" cy="150" fill="#ADD1B2" rx="11" ry="11" style="stroke:#181818;stroke-width:1.0;"/><path d="M615.0156,145.875 Q615.1719,145.6563 615.3594,145.5469 Q615.5469,145.4375 615.7656,145.4375 Q616.1406,145.4375 616.375,145.7031 Q616.6094,145.9531 616.6094,146.5625 L616.6094,148.0156 Q616.6094,148.625 616.375,148.8906 Q616.1406,149.1563 615.7656,149.1563 Q615.4219,149.1563 615.2188,148.9531 Q615.0156,148.7656 614.9063,148.25 Q614.8594,147.8906 614.6719,147.7031 Q614.3438,147.3281 613.7344,147.1094 Q613.125,146.8906 612.5,146.8906 Q611.7344,146.8906 611.0938,147.2188 Q610.4688,147.5469 609.9688,148.2969 Q609.4844,149.0469 609.4844,150.0781 L609.4844,151.1719 Q609.4844,152.4063 610.375,153.2344 Q611.2656,154.0469 612.8594,154.0469 Q613.7969,154.0469 614.4531,153.7969 Q614.8438,153.6406 615.2656,153.2031 Q615.5313,152.9375 615.6719,152.8594 Q615.8281,152.7813 616.0313,152.7813 Q616.3594,152.7813 616.6094,153.0469 Q616.875,153.2969 616.875,153.6406 Q616.875,153.9844 616.5313,154.3906 Q616.0313,154.9688 615.2344,155.2969 Q614.1563,155.75 612.8594,155.75 Q611.3438,155.75 610.1406,155.125 Q609.1563,154.625 608.4688,153.5625 Q607.7813,152.4844 607.7813,151.2031 L607.7813,150.0469 Q607.7813,148.7188 608.3906,147.5781 Q609.0156,146.4219 610.1094,145.8125 Q611.2031,145.1875 612.4375,145.1875 Q613.1719,145.1875 613.8125,145.3594 Q614.4688,145.5156 615.0156,145.875 Z " fill="#000000"/><text fill="#000000" font-family="sans-serif" font-size="14" lengthAdjust="spacing" textLength="153" x="632.75" y="155.7969">PostponeTaskController</text><line style="stroke:#181818;stroke-width:0.5;" x1="492.5" x2="893.5" y1="166" y2="166"/><line style="stroke:#181818;stroke-width:0.5;" x1="492.5" x2="893.5" y1="174" y2="174"/><ellipse cx="502.5" cy="188.8105" fill="#84BE84" rx="3" ry="3" style="stroke:#038048;stroke-width:1.0;"/><text fill="#000000" font-family="sans-serif" font-size="14" lengthAdjust="spacing" textLength="377" x="511.5" y="193.1074">postponeTaskController(employeeRepository, userSession)</text></g><!--class Repositories--><g id="elem_Repositories"><rect codeLine="11" fill="#F1F1F1" height="159.7266" id="Repositories" rx="2.5" ry="2.5" style="stroke:#181818;stroke-width:0.5;" width="380" x="503" y="280"/><ellipse cx="649.25" cy="296" fill="#ADD1B2" rx="11" ry="11" style="stroke:#181818;stroke-width:1.0;"/><path d="M652.0156,291.875 Q652.1719,291.6563 652.3594,291.5469 Q652.5469,291.4375 652.7656,291.4375 Q653.1406,291.4375 653.375,291.7031 Q653.6094,291.9531 653.6094,292.5625 L653.6094,294.0156 Q653.6094,294.625 653.375,294.8906 Q653.1406,295.1563 652.7656,295.1563 Q652.4219,295.1563 652.2188,294.9531 Q652.0156,294.7656 651.9063,294.25 Q651.8594,293.8906 651.6719,293.7031 Q651.3438,293.3281 650.7344,293.1094 Q650.125,292.8906 649.5,292.8906 Q648.7344,292.8906 648.0938,293.2188 Q647.4688,293.5469 646.9688,294.2969 Q646.4844,295.0469 646.4844,296.0781 L646.4844,297.1719 Q646.4844,298.4063 647.375,299.2344 Q648.2656,300.0469 649.8594,300.0469 Q650.7969,300.0469 651.4531,299.7969 Q651.8438,299.6406 652.2656,299.2031 Q652.5313,298.9375 652.6719,298.8594 Q652.8281,298.7813 653.0313,298.7813 Q653.3594,298.7813 653.6094,299.0469 Q653.875,299.2969 653.875,299.6406 Q653.875,299.9844 653.5313,300.3906 Q653.0313,300.9688 652.2344,301.2969 Q651.1563,301.75 649.8594,301.75 Q648.3438,301.75 647.1406,301.125 Q646.1563,300.625 645.4688,299.5625 Q644.7813,298.4844 644.7813,297.2031 L644.7813,296.0469 Q644.7813,294.7188 645.3906,293.5781 Q646.0156,292.4219 647.1094,291.8125 Q648.2031,291.1875 649.4375,291.1875 Q650.1719,291.1875 650.8125,291.3594 Q651.4688,291.5156 652.0156,291.875 Z " fill="#000000"/><text fill="#000000" font-family="sans-serif" font-size="14" lengthAdjust="spacing" textLength="79" x="669.75" y="301.7969">Repositories</text><line style="stroke:#181818;stroke-width:0.5;" x1="504" x2="882" y1="312" y2="312"/><line style="stroke:#181818;stroke-width:0.5;" x1="504" x2="882" y1="320" y2="320"/><rect fill="#F24D5C" height="6" style="stroke:#C82930;stroke-width:1.0;" width="6" x="511" y="331.8105"/><text fill="#000000" font-family="sans-serif" font-size="14" lengthAdjust="spacing" textLength="89" x="523" y="339.1074">Repositories()</text><ellipse cx="514" cy="353.4316" fill="#84BE84" rx="3" ry="3" style="stroke:#038048;stroke-width:1.0;"/><text fill="#000000" font-family="sans-serif" font-size="14" lengthAdjust="spacing" textLength="174" x="523" y="357.7285">getInstance() : Repositories</text><ellipse cx="514" cy="372.0527" fill="#84BE84" rx="3" ry="3" style="stroke:#038048;stroke-width:1.0;"/><text fill="#000000" font-family="sans-serif" font-size="14" lengthAdjust="spacing" textLength="302" x="523" y="376.3496">getEmployeeRepository() : EmployeeRepository</text><ellipse cx="514" cy="390.6738" fill="#84BE84" rx="3" ry="3" style="stroke:#038048;stroke-width:1.0;"/><text fill="#000000" font-family="sans-serif" font-size="14" lengthAdjust="spacing" textLength="240" x="523" y="394.9707">getTaskRepository() : TaskRepository</text><ellipse cx="514" cy="409.2949" fill="#84BE84" rx="3" ry="3" style="stroke:#038048;stroke-width:1.0;"/><text fill="#000000" font-family="sans-serif" font-size="14" lengthAdjust="spacing" textLength="334" x="523" y="413.5918">getOrganizationRepository(): OrganizationRepository</text><ellipse cx="514" cy="427.916" fill="#84BE84" rx="3" ry="3" style="stroke:#038048;stroke-width:1.0;"/><text fill="#000000" font-family="sans-serif" font-size="14" lengthAdjust="spacing" textLength="354" x="523" y="432.2129">getAuthenticationRepository(): AuthenticationRepository</text></g><!--class AuthenticationRepository--><g id="elem_AuthenticationRepository"><rect codeLine="20" fill="#F1F1F1" height="66.6211" id="AuthenticationRepository" rx="2.5" ry="2.5" style="stroke:#181818;stroke-width:0.5;" width="190" x="278" y="326.5"/><ellipse cx="293" cy="342.5" fill="#ADD1B2" rx="11" ry="11" style="stroke:#181818;stroke-width:1.0;"/><path d="M295.7656,338.375 Q295.9219,338.1563 296.1094,338.0469 Q296.2969,337.9375 296.5156,337.9375 Q296.8906,337.9375 297.125,338.2031 Q297.3594,338.4531 297.3594,339.0625 L297.3594,340.5156 Q297.3594,341.125 297.125,341.3906 Q296.8906,341.6563 296.5156,341.6563 Q296.1719,341.6563 295.9688,341.4531 Q295.7656,341.2656 295.6563,340.75 Q295.6094,340.3906 295.4219,340.2031 Q295.0938,339.8281 294.4844,339.6094 Q293.875,339.3906 293.25,339.3906 Q292.4844,339.3906 291.8438,339.7188 Q291.2188,340.0469 290.7188,340.7969 Q290.2344,341.5469 290.2344,342.5781 L290.2344,343.6719 Q290.2344,344.9063 291.125,345.7344 Q292.0156,346.5469 293.6094,346.5469 Q294.5469,346.5469 295.2031,346.2969 Q295.5938,346.1406 296.0156,345.7031 Q296.2813,345.4375 296.4219,345.3594 Q296.5781,345.2813 296.7813,345.2813 Q297.1094,345.2813 297.3594,345.5469 Q297.625,345.7969 297.625,346.1406 Q297.625,346.4844 297.2813,346.8906 Q296.7813,347.4688 295.9844,347.7969 Q294.9063,348.25 293.6094,348.25 Q292.0938,348.25 290.8906,347.625 Q289.9063,347.125 289.2188,346.0625 Q288.5313,344.9844 288.5313,343.7031 L288.5313,342.5469 Q288.5313,341.2188 289.1406,340.0781 Q289.7656,338.9219 290.8594,338.3125 Q291.9531,337.6875 293.1875,337.6875 Q293.9219,337.6875 294.5625,337.8594 Q295.2188,338.0156 295.7656,338.375 Z " fill="#000000"/><text fill="#000000" font-family="sans-serif" font-size="14" lengthAdjust="spacing" textLength="158" x="307" y="348.2969">AuthenticationRepository</text><line style="stroke:#181818;stroke-width:0.5;" x1="279" x2="467" y1="358.5" y2="358.5"/><line style="stroke:#181818;stroke-width:0.5;" x1="279" x2="467" y1="366.5" y2="366.5"/><ellipse cx="289" cy="381.3105" fill="#84BE84" rx="3" ry="3" style="stroke:#038048;stroke-width:1.0;"/><text fill="#000000" font-family="sans-serif" font-size="14" lengthAdjust="spacing" textLength="157" x="298" y="385.6074">getCurrentUserSession()</text></g><!--class UserSession--><g id="elem_UserSession"><rect codeLine="24" fill="#F1F1F1" height="85.2422" id="UserSession" rx="2.5" ry="2.5" style="stroke:#181818;stroke-width:0.5;" width="162" x="7" y="317.5"/><ellipse cx="44.95" cy="333.5" fill="#ADD1B2" rx="11" ry="11" style="stroke:#181818;stroke-width:1.0;"/><path d="M47.7156,329.375 Q47.8719,329.1563 48.0594,329.0469 Q48.2469,328.9375 48.4656,328.9375 Q48.8406,328.9375 49.075,329.2031 Q49.3094,329.4531 49.3094,330.0625 L49.3094,331.5156 Q49.3094,332.125 49.075,332.3906 Q48.8406,332.6563 48.4656,332.6563 Q48.1219,332.6563 47.9188,332.4531 Q47.7156,332.2656 47.6063,331.75 Q47.5594,331.3906 47.3719,331.2031 Q47.0438,330.8281 46.4344,330.6094 Q45.825,330.3906 45.2,330.3906 Q44.4344,330.3906 43.7938,330.7188 Q43.1688,331.0469 42.6688,331.7969 Q42.1844,332.5469 42.1844,333.5781 L42.1844,334.6719 Q42.1844,335.9063 43.075,336.7344 Q43.9656,337.5469 45.5594,337.5469 Q46.4969,337.5469 47.1531,337.2969 Q47.5438,337.1406 47.9656,336.7031 Q48.2313,336.4375 48.3719,336.3594 Q48.5281,336.2813 48.7313,336.2813 Q49.0594,336.2813 49.3094,336.5469 Q49.575,336.7969 49.575,337.1406 Q49.575,337.4844 49.2313,337.8906 Q48.7313,338.4688 47.9344,338.7969 Q46.8563,339.25 45.5594,339.25 Q44.0438,339.25 42.8406,338.625 Q41.8563,338.125 41.1688,337.0625 Q40.4813,335.9844 40.4813,334.7031 L40.4813,333.5469 Q40.4813,332.2188 41.0906,331.0781 Q41.7156,329.9219 42.8094,329.3125 Q43.9031,328.6875 45.1375,328.6875 Q45.8719,328.6875 46.5125,328.8594 Q47.1688,329.0156 47.7156,329.375 Z " fill="#000000"/><text fill="#000000" font-family="sans-serif" font-size="14" lengthAdjust="spacing" textLength="79" x="64.05" y="339.2969">UserSession</text><line style="stroke:#181818;stroke-width:0.5;" x1="8" x2="168" y1="349.5" y2="349.5"/><line style="stroke:#181818;stroke-width:0.5;" x1="8" x2="168" y1="357.5" y2="357.5"/><ellipse cx="18" cy="372.3105" fill="#84BE84" rx="3" ry="3" style="stroke:#038048;stroke-width:1.0;"/><text fill="#000000" font-family="sans-serif" font-size="14" lengthAdjust="spacing" textLength="136" x="27" y="376.6074">isLoggedInWithRole()</text><ellipse cx="18" cy="390.9316" fill="#84BE84" rx="3" ry="3" style="stroke:#038048;stroke-width:1.0;"/><text fill="#000000" font-family="sans-serif" font-size="14" lengthAdjust="spacing" textLength="70" x="27" y="395.2285">getUserId()</text></g><!--class TaskRepository--><g id="elem_TaskRepository"><rect codeLine="29" fill="#F1F1F1" height="66.6211" id="TaskRepository" rx="2.5" ry="2.5" style="stroke:#181818;stroke-width:0.5;" width="173" x="606.5" y="574.5"/><ellipse cx="640.4" cy="590.5" fill="#ADD1B2" rx="11" ry="11" style="stroke:#181818;stroke-width:1.0;"/><path d="M643.1656,586.375 Q643.3219,586.1563 643.5094,586.0469 Q643.6969,585.9375 643.9156,585.9375 Q644.2906,585.9375 644.525,586.2031 Q644.7594,586.4531 644.7594,587.0625 L644.7594,588.5156 Q644.7594,589.125 644.525,589.3906 Q644.2906,589.6563 643.9156,589.6563 Q643.5719,589.6563 643.3688,589.4531 Q643.1656,589.2656 643.0563,588.75 Q643.0094,588.3906 642.8219,588.2031 Q642.4938,587.8281 641.8844,587.6094 Q641.275,587.3906 640.65,587.3906 Q639.8844,587.3906 639.2438,587.7188 Q638.6188,588.0469 638.1188,588.7969 Q637.6344,589.5469 637.6344,590.5781 L637.6344,591.6719 Q637.6344,592.9063 638.525,593.7344 Q639.4156,594.5469 641.0094,594.5469 Q641.9469,594.5469 642.6031,594.2969 Q642.9938,594.1406 643.4156,593.7031 Q643.6813,593.4375 643.8219,593.3594 Q643.9781,593.2813 644.1813,593.2813 Q644.5094,593.2813 644.7594,593.5469 Q645.025,593.7969 645.025,594.1406 Q645.025,594.4844 644.6813,594.8906 Q644.1813,595.4688 643.3844,595.7969 Q642.3063,596.25 641.0094,596.25 Q639.4938,596.25 638.2906,595.625 Q637.3063,595.125 636.6188,594.0625 Q635.9313,592.9844 635.9313,591.7031 L635.9313,590.5469 Q635.9313,589.2188 636.5406,588.0781 Q637.1656,586.9219 638.2594,586.3125 Q639.3531,585.6875 640.5875,585.6875 Q641.3219,585.6875 641.9625,585.8594 Q642.6188,586.0156 643.1656,586.375 Z " fill="#000000"/><text fill="#000000" font-family="sans-serif" font-size="14" lengthAdjust="spacing" textLength="99" x="658.6" y="596.2969">TaskRepository</text><line style="stroke:#181818;stroke-width:0.5;" x1="607.5" x2="778.5" y1="606.5" y2="606.5"/><line style="stroke:#181818;stroke-width:0.5;" x1="607.5" x2="778.5" y1="614.5" y2="614.5"/><ellipse cx="617.5" cy="629.3105" fill="#84BE84" rx="3" ry="3" style="stroke:#038048;stroke-width:1.0;"/><text fill="#000000" font-family="sans-serif" font-size="14" lengthAdjust="spacing" textLength="147" x="626.5" y="633.6074">TaskExistsByTitle(Title)</text></g><!--class Tasks--><g id="elem_Tasks"><rect codeLine="33" fill="#F1F1F1" height="85.2422" id="Tasks" rx="2.5" ry="2.5" style="stroke:#181818;stroke-width:0.5;" width="171" x="648.5" y="928"/><ellipse cx="710.75" cy="944" fill="#ADD1B2" rx="11" ry="11" style="stroke:#181818;stroke-width:1.0;"/><path d="M713.5156,939.875 Q713.6719,939.6563 713.8594,939.5469 Q714.0469,939.4375 714.2656,939.4375 Q714.6406,939.4375 714.875,939.7031 Q715.1094,939.9531 715.1094,940.5625 L715.1094,942.0156 Q715.1094,942.625 714.875,942.8906 Q714.6406,943.1563 714.2656,943.1563 Q713.9219,943.1563 713.7188,942.9531 Q713.5156,942.7656 713.4063,942.25 Q713.3594,941.8906 713.1719,941.7031 Q712.8438,941.3281 712.2344,941.1094 Q711.625,940.8906 711,940.8906 Q710.2344,940.8906 709.5938,941.2188 Q708.9688,941.5469 708.4688,942.2969 Q707.9844,943.0469 707.9844,944.0781 L707.9844,945.1719 Q707.9844,946.4063 708.875,947.2344 Q709.7656,948.0469 711.3594,948.0469 Q712.2969,948.0469 712.9531,947.7969 Q713.3438,947.6406 713.7656,947.2031 Q714.0313,946.9375 714.1719,946.8594 Q714.3281,946.7813 714.5313,946.7813 Q714.8594,946.7813 715.1094,947.0469 Q715.375,947.2969 715.375,947.6406 Q715.375,947.9844 715.0313,948.3906 Q714.5313,948.9688 713.7344,949.2969 Q712.6563,949.75 711.3594,949.75 Q709.8438,949.75 708.6406,949.125 Q707.6563,948.625 706.9688,947.5625 Q706.2813,946.4844 706.2813,945.2031 L706.2813,944.0469 Q706.2813,942.7188 706.8906,941.5781 Q707.5156,940.4219 708.6094,939.8125 Q709.7031,939.1875 710.9375,939.1875 Q711.6719,939.1875 712.3125,939.3594 Q712.9688,939.5156 713.5156,939.875 Z " fill="#000000"/><text fill="#000000" font-family="sans-serif" font-size="14" lengthAdjust="spacing" textLength="38" x="731.25" y="949.7969">Tasks</text><line style="stroke:#181818;stroke-width:0.5;" x1="649.5" x2="818.5" y1="960" y2="960"/><rect fill="none" height="6" style="stroke:#C82930;stroke-width:1.0;" width="6" x="656.5" y="971.8105"/><text fill="#000000" font-family="sans-serif" font-size="14" lengthAdjust="spacing" textLength="110" x="668.5" y="979.1074">tasks: List&lt;Task&gt;</text><line style="stroke:#181818;stroke-width:0.5;" x1="649.5" x2="818.5" y1="986.6211" y2="986.6211"/><ellipse cx="659.5" cy="1001.4316" fill="#84BE84" rx="3" ry="3" style="stroke:#038048;stroke-width:1.0;"/><text fill="#000000" font-family="sans-serif" font-size="14" lengthAdjust="spacing" textLength="145" x="668.5" y="1005.7285">getTasks(): List&lt;Task&gt;</text></g><!--class Task--><g id="elem_Task"><rect codeLine="38" fill="#F1F1F1" height="383.1797" id="Task" rx="2.5" ry="2.5" style="stroke:#181818;stroke-width:0.5;" width="458" x="588" y="1412"/><ellipse cx="797.25" cy="1428" fill="#ADD1B2" rx="11" ry="11" style="stroke:#181818;stroke-width:1.0;"/><path d="M800.0156,1423.875 Q800.1719,1423.6563 800.3594,1423.5469 Q800.5469,1423.4375 800.7656,1423.4375 Q801.1406,1423.4375 801.375,1423.7031 Q801.6094,1423.9531 801.6094,1424.5625 L801.6094,1426.0156 Q801.6094,1426.625 801.375,1426.8906 Q801.1406,1427.1563 800.7656,1427.1563 Q800.4219,1427.1563 800.2188,1426.9531 Q800.0156,1426.7656 799.9063,1426.25 Q799.8594,1425.8906 799.6719,1425.7031 Q799.3438,1425.3281 798.7344,1425.1094 Q798.125,1424.8906 797.5,1424.8906 Q796.7344,1424.8906 796.0938,1425.2188 Q795.4688,1425.5469 794.9688,1426.2969 Q794.4844,1427.0469 794.4844,1428.0781 L794.4844,1429.1719 Q794.4844,1430.4063 795.375,1431.2344 Q796.2656,1432.0469 797.8594,1432.0469 Q798.7969,1432.0469 799.4531,1431.7969 Q799.8438,1431.6406 800.2656,1431.2031 Q800.5313,1430.9375 800.6719,1430.8594 Q800.8281,1430.7813 801.0313,1430.7813 Q801.3594,1430.7813 801.6094,1431.0469 Q801.875,1431.2969 801.875,1431.6406 Q801.875,1431.9844 801.5313,1432.3906 Q801.0313,1432.9688 800.2344,1433.2969 Q799.1563,1433.75 797.8594,1433.75 Q796.3438,1433.75 795.1406,1433.125 Q794.1563,1432.625 793.4688,1431.5625 Q792.7813,1430.4844 792.7813,1429.2031 L792.7813,1428.0469 Q792.7813,1426.7188 793.3906,1425.5781 Q794.0156,1424.4219 795.1094,1423.8125 Q796.2031,1423.1875 797.4375,1423.1875 Q798.1719,1423.1875 798.8125,1423.3594 Q799.4688,1423.5156 800.0156,1423.875 Z " fill="#000000"/><text fill="#000000" font-family="sans-serif" font-size="14" lengthAdjust="spacing" textLength="31" x="817.75" y="1433.7969">Task</text><line style="stroke:#181818;stroke-width:0.5;" x1="589" x2="1045" y1="1444" y2="1444"/><ellipse cx="599" cy="1458.8105" fill="none" rx="3" ry="3" style="stroke:#038048;stroke-width:1.0;"/><text fill="#000000" font-family="sans-serif" font-size="14" lengthAdjust="spacing" textLength="67" x="608" y="1463.1074">title: String</text><ellipse cx="599" cy="1477.4316" fill="none" rx="3" ry="3" style="stroke:#038048;stroke-width:1.0;"/><text fill="#000000" font-family="sans-serif" font-size="14" lengthAdjust="spacing" textLength="165" x="608" y="1481.7285">greenSpace: GreenSpace</text><ellipse cx="599" cy="1496.0527" fill="none" rx="3" ry="3" style="stroke:#038048;stroke-width:1.0;"/><text fill="#000000" font-family="sans-serif" font-size="14" lengthAdjust="spacing" textLength="114" x="608" y="1500.3496">description: String</text><ellipse cx="599" cy="1514.6738" fill="none" rx="3" ry="3" style="stroke:#038048;stroke-width:1.0;"/><text fill="#000000" font-family="sans-serif" font-size="14" lengthAdjust="spacing" textLength="86" x="608" y="1518.9707">status: Status</text><ellipse cx="599" cy="1533.2949" fill="none" rx="3" ry="3" style="stroke:#038048;stroke-width:1.0;"/><text fill="#000000" font-family="sans-serif" font-size="14" lengthAdjust="spacing" textLength="111" x="608" y="1537.5918">urgency: Urgency</text><ellipse cx="599" cy="1551.916" fill="none" rx="3" ry="3" style="stroke:#038048;stroke-width:1.0;"/><text fill="#000000" font-family="sans-serif" font-size="14" lengthAdjust="spacing" textLength="53" x="608" y="1556.2129">days: int</text><ellipse cx="599" cy="1570.5371" fill="none" rx="3" ry="3" style="stroke:#038048;stroke-width:1.0;"/><text fill="#000000" font-family="sans-serif" font-size="14" lengthAdjust="spacing" textLength="59" x="608" y="1574.834">hours: int</text><line style="stroke:#181818;stroke-width:0.5;" x1="589" x2="1045" y1="1582.3477" y2="1582.3477"/><ellipse cx="599" cy="1597.1582" fill="#84BE84" rx="3" ry="3" style="stroke:#038048;stroke-width:1.0;"/><text fill="#000000" font-family="sans-serif" font-size="14" lengthAdjust="spacing" textLength="102" x="608" y="1601.4551">getTitle(): String</text><ellipse cx="599" cy="1615.7793" fill="#84BE84" rx="3" ry="3" style="stroke:#038048;stroke-width:1.0;"/><text fill="#000000" font-family="sans-serif" font-size="14" lengthAdjust="spacing" textLength="198" x="608" y="1620.0762">getGreenSpace(): GreenSpace</text><ellipse cx="599" cy="1634.4004" fill="#84BE84" rx="3" ry="3" style="stroke:#038048;stroke-width:1.0;"/><text fill="#000000" font-family="sans-serif" font-size="14" lengthAdjust="spacing" textLength="146" x="608" y="1638.6973">getDescription(): String</text><ellipse cx="599" cy="1653.0215" fill="#84BE84" rx="3" ry="3" style="stroke:#038048;stroke-width:1.0;"/><text fill="#000000" font-family="sans-serif" font-size="14" lengthAdjust="spacing" textLength="118" x="608" y="1657.3184">getStatus(): Status</text><ellipse cx="599" cy="1671.6426" fill="#84BE84" rx="3" ry="3" style="stroke:#038048;stroke-width:1.0;"/><text fill="#000000" font-family="sans-serif" font-size="14" lengthAdjust="spacing" textLength="117" x="608" y="1675.9395">setStatus(): Status</text><ellipse cx="599" cy="1690.2637" fill="#84BE84" rx="3" ry="3" style="stroke:#038048;stroke-width:1.0;"/><text fill="#000000" font-family="sans-serif" font-size="14" lengthAdjust="spacing" textLength="142" x="608" y="1694.5605">getUrgency(): Urgency</text><ellipse cx="599" cy="1708.8848" fill="#84BE84" rx="3" ry="3" style="stroke:#038048;stroke-width:1.0;"/><text fill="#000000" font-family="sans-serif" font-size="14" lengthAdjust="spacing" textLength="85" x="608" y="1713.1816">getDays(): int</text><ellipse cx="599" cy="1727.5059" fill="#84BE84" rx="3" ry="3" style="stroke:#038048;stroke-width:1.0;"/><text fill="#000000" font-family="sans-serif" font-size="14" lengthAdjust="spacing" textLength="90" x="608" y="1731.8027">getHours(): int</text><ellipse cx="599" cy="1746.127" fill="#84BE84" rx="3" ry="3" style="stroke:#038048;stroke-width:1.0;"/><text fill="#000000" font-family="sans-serif" font-size="14" lengthAdjust="spacing" textLength="104" x="608" y="1750.4238">toString(): String</text><ellipse cx="599" cy="1764.748" fill="#84BE84" rx="3" ry="3" style="stroke:#038048;stroke-width:1.0;"/><text fill="#000000" font-family="sans-serif" font-size="14" lengthAdjust="spacing" textLength="432" x="608" y="1769.0449">findTasksByDateRange(startDate: Date, endDate: Date): List&lt;Task&gt;</text><ellipse cx="599" cy="1783.3691" fill="#84BE84" rx="3" ry="3" style="stroke:#038048;stroke-width:1.0;"/><text fill="#000000" font-family="sans-serif" font-size="14" lengthAdjust="spacing" textLength="208" x="608" y="1787.666">compareTo(otherTask: Task): int</text></g><!--class EmployeeRepository--><g id="elem_EmployeeRepository"><rect codeLine="59" fill="#F1F1F1" height="122.4844" id="EmployeeRepository" rx="2.5" ry="2.5" style="stroke:#181818;stroke-width:0.5;" width="230" x="863" y="776"/><ellipse cx="908.75" cy="792" fill="#ADD1B2" rx="11" ry="11" style="stroke:#181818;stroke-width:1.0;"/><path d="M911.5156,787.875 Q911.6719,787.6563 911.8594,787.5469 Q912.0469,787.4375 912.2656,787.4375 Q912.6406,787.4375 912.875,787.7031 Q913.1094,787.9531 913.1094,788.5625 L913.1094,790.0156 Q913.1094,790.625 912.875,790.8906 Q912.6406,791.1563 912.2656,791.1563 Q911.9219,791.1563 911.7188,790.9531 Q911.5156,790.7656 911.4063,790.25 Q911.3594,789.8906 911.1719,789.7031 Q910.8438,789.3281 910.2344,789.1094 Q909.625,788.8906 909,788.8906 Q908.2344,788.8906 907.5938,789.2188 Q906.9688,789.5469 906.4688,790.2969 Q905.9844,791.0469 905.9844,792.0781 L905.9844,793.1719 Q905.9844,794.4063 906.875,795.2344 Q907.7656,796.0469 909.3594,796.0469 Q910.2969,796.0469 910.9531,795.7969 Q911.3438,795.6406 911.7656,795.2031 Q912.0313,794.9375 912.1719,794.8594 Q912.3281,794.7813 912.5313,794.7813 Q912.8594,794.7813 913.1094,795.0469 Q913.375,795.2969 913.375,795.6406 Q913.375,795.9844 913.0313,796.3906 Q912.5313,796.9688 911.7344,797.2969 Q910.6563,797.75 909.3594,797.75 Q907.8438,797.75 906.6406,797.125 Q905.6563,796.625 904.9688,795.5625 Q904.2813,794.4844 904.2813,793.2031 L904.2813,792.0469 Q904.2813,790.7188 904.8906,789.5781 Q905.5156,788.4219 906.6094,787.8125 Q907.7031,787.1875 908.9375,787.1875 Q909.6719,787.1875 910.3125,787.3594 Q910.9688,787.5156 911.5156,787.875 Z " fill="#000000"/><text fill="#000000" font-family="sans-serif" font-size="14" lengthAdjust="spacing" textLength="130" x="929.25" y="797.7969">EmployeeRepository</text><line style="stroke:#181818;stroke-width:0.5;" x1="864" x2="1092" y1="808" y2="808"/><line style="stroke:#181818;stroke-width:0.5;" x1="864" x2="1092" y1="816" y2="816"/><rect fill="#F24D5C" height="6" style="stroke:#C82930;stroke-width:1.0;" width="6" x="871" y="827.8105"/><text fill="#000000" font-family="sans-serif" font-size="14" lengthAdjust="spacing" textLength="140" x="883" y="835.1074">EmployeeRepository()</text><ellipse cx="874" cy="849.4316" fill="#84BE84" rx="3" ry="3" style="stroke:#038048;stroke-width:1.0;"/><text fill="#000000" font-family="sans-serif" font-size="14" lengthAdjust="spacing" textLength="96" x="883" y="853.7285">listEmployees()</text><ellipse cx="874" cy="868.0527" fill="#84BE84" rx="3" ry="3" style="stroke:#038048;stroke-width:1.0;"/><text fill="#000000" font-family="sans-serif" font-size="14" lengthAdjust="spacing" textLength="104" x="883" y="872.3496">emailExists(mail)</text><ellipse cx="874" cy="886.6738" fill="#84BE84" rx="3" ry="3" style="stroke:#038048;stroke-width:1.0;"/><text fill="#000000" font-family="sans-serif" font-size="14" lengthAdjust="spacing" textLength="204" x="883" y="890.9707">getEmployeeByUserEmail(email)</text></g><!--class Employee--><g id="elem_Employee"><rect codeLine="66" fill="#F1F1F1" height="290.0742" id="Employee" rx="2.5" ry="2.5" style="stroke:#181818;stroke-width:0.5;" width="198" x="879" y="1043"/><ellipse cx="942.75" cy="1059" fill="#ADD1B2" rx="11" ry="11" style="stroke:#181818;stroke-width:1.0;"/><path d="M945.5156,1054.875 Q945.6719,1054.6563 945.8594,1054.5469 Q946.0469,1054.4375 946.2656,1054.4375 Q946.6406,1054.4375 946.875,1054.7031 Q947.1094,1054.9531 947.1094,1055.5625 L947.1094,1057.0156 Q947.1094,1057.625 946.875,1057.8906 Q946.6406,1058.1563 946.2656,1058.1563 Q945.9219,1058.1563 945.7188,1057.9531 Q945.5156,1057.7656 945.4063,1057.25 Q945.3594,1056.8906 945.1719,1056.7031 Q944.8438,1056.3281 944.2344,1056.1094 Q943.625,1055.8906 943,1055.8906 Q942.2344,1055.8906 941.5938,1056.2188 Q940.9688,1056.5469 940.4688,1057.2969 Q939.9844,1058.0469 939.9844,1059.0781 L939.9844,1060.1719 Q939.9844,1061.4063 940.875,1062.2344 Q941.7656,1063.0469 943.3594,1063.0469 Q944.2969,1063.0469 944.9531,1062.7969 Q945.3438,1062.6406 945.7656,1062.2031 Q946.0313,1061.9375 946.1719,1061.8594 Q946.3281,1061.7813 946.5313,1061.7813 Q946.8594,1061.7813 947.1094,1062.0469 Q947.375,1062.2969 947.375,1062.6406 Q947.375,1062.9844 947.0313,1063.3906 Q946.5313,1063.9688 945.7344,1064.2969 Q944.6563,1064.75 943.3594,1064.75 Q941.8438,1064.75 940.6406,1064.125 Q939.6563,1063.625 938.9688,1062.5625 Q938.2813,1061.4844 938.2813,1060.2031 L938.2813,1059.0469 Q938.2813,1057.7188 938.8906,1056.5781 Q939.5156,1055.4219 940.6094,1054.8125 Q941.7031,1054.1875 942.9375,1054.1875 Q943.6719,1054.1875 944.3125,1054.3594 Q944.9688,1054.5156 945.5156,1054.875 Z " fill="#000000"/><text fill="#000000" font-family="sans-serif" font-size="14" lengthAdjust="spacing" textLength="62" x="963.25" y="1064.7969">Employee</text><line style="stroke:#181818;stroke-width:0.5;" x1="880" x2="1076" y1="1075" y2="1075"/><rect fill="none" height="6" style="stroke:#C82930;stroke-width:1.0;" width="6" x="887" y="1086.8105"/><text fill="#000000" font-family="sans-serif" font-size="14" lengthAdjust="spacing" textLength="76" x="899" y="1094.1074">String name</text><rect fill="none" height="6" style="stroke:#C82930;stroke-width:1.0;" width="6" x="887" y="1105.4316"/><text fill="#000000" font-family="sans-serif" font-size="14" lengthAdjust="spacing" textLength="90" x="899" y="1112.7285">Date birthdate</text><rect fill="none" height="6" style="stroke:#C82930;stroke-width:1.0;" width="6" x="887" y="1124.0527"/><text fill="#000000" font-family="sans-serif" font-size="14" lengthAdjust="spacing" textLength="129" x="899" y="1131.3496">Date admission date</text><rect fill="none" height="6" style="stroke:#C82930;stroke-width:1.0;" width="6" x="887" y="1142.6738"/><text fill="#000000" font-family="sans-serif" font-size="14" lengthAdjust="spacing" textLength="146" x="899" y="1149.9707">Address postalAddress</text><rect fill="none" height="6" style="stroke:#C82930;stroke-width:1.0;" width="6" x="887" y="1161.2949"/><text fill="#000000" font-family="sans-serif" font-size="14" lengthAdjust="spacing" textLength="81" x="899" y="1168.5918">String phone</text><rect fill="none" height="6" style="stroke:#C82930;stroke-width:1.0;" width="6" x="887" y="1179.916"/><text fill="#000000" font-family="sans-serif" font-size="14" lengthAdjust="spacing" textLength="74" x="899" y="1187.2129">String email</text><rect fill="none" height="6" style="stroke:#C82930;stroke-width:1.0;" width="6" x="887" y="1198.5371"/><text fill="#000000" font-family="sans-serif" font-size="14" lengthAdjust="spacing" textLength="112" x="899" y="1205.834">String ID doc type</text><rect fill="none" height="6" style="stroke:#C82930;stroke-width:1.0;" width="6" x="887" y="1217.1582"/><text fill="#000000" font-family="sans-serif" font-size="14" lengthAdjust="spacing" textLength="172" x="899" y="1224.4551">String ID document number</text><rect fill="none" height="6" style="stroke:#C82930;stroke-width:1.0;" width="6" x="887" y="1235.7793"/><text fill="#000000" font-family="sans-serif" font-size="14" lengthAdjust="spacing" textLength="117" x="899" y="1243.0762">String Taxpayer ID</text><line style="stroke:#181818;stroke-width:0.5;" x1="880" x2="1076" y1="1250.5898" y2="1250.5898"/><ellipse cx="890" cy="1265.4004" fill="#84BE84" rx="3" ry="3" style="stroke:#038048;stroke-width:1.0;"/><text fill="#000000" font-family="sans-serif" font-size="14" lengthAdjust="spacing" textLength="158" x="899" y="1269.6973">CompareTo(TaxPayerID)</text><ellipse cx="890" cy="1284.0215" fill="#84BE84" rx="3" ry="3" style="stroke:#038048;stroke-width:1.0;"/><text fill="#000000" font-family="sans-serif" font-size="14" lengthAdjust="spacing" textLength="47" x="899" y="1288.3184">Clone()</text><ellipse cx="890" cy="1302.6426" fill="#84BE84" rx="3" ry="3" style="stroke:#038048;stroke-width:1.0;"/><text fill="#000000" font-family="sans-serif" font-size="14" lengthAdjust="spacing" textLength="59" x="899" y="1306.9395">toString()</text><ellipse cx="890" cy="1321.2637" fill="#84BE84" rx="3" ry="3" style="stroke:#038048;stroke-width:1.0;"/><text fill="#000000" font-family="sans-serif" font-size="14" lengthAdjust="spacing" textLength="141" x="899" y="1325.5605">changeStatus (Status)</text></g><!--class OrganizationRepository--><g id="elem_OrganizationRepository"><rect codeLine="82" fill="#F1F1F1" height="66.6211" id="OrganizationRepository" rx="2.5" ry="2.5" style="stroke:#181818;stroke-width:0.5;" width="248" x="1050" y="326.5"/><ellipse cx="1095.75" cy="342.5" fill="#ADD1B2" rx="11" ry="11" style="stroke:#181818;stroke-width:1.0;"/><path d="M1098.5156,338.375 Q1098.6719,338.1563 1098.8594,338.0469 Q1099.0469,337.9375 1099.2656,337.9375 Q1099.6406,337.9375 1099.875,338.2031 Q1100.1094,338.4531 1100.1094,339.0625 L1100.1094,340.5156 Q1100.1094,341.125 1099.875,341.3906 Q1099.6406,341.6563 1099.2656,341.6563 Q1098.9219,341.6563 1098.7188,341.4531 Q1098.5156,341.2656 1098.4063,340.75 Q1098.3594,340.3906 1098.1719,340.2031 Q1097.8438,339.8281 1097.2344,339.6094 Q1096.625,339.3906 1096,339.3906 Q1095.2344,339.3906 1094.5938,339.7188 Q1093.9688,340.0469 1093.4688,340.7969 Q1092.9844,341.5469 1092.9844,342.5781 L1092.9844,343.6719 Q1092.9844,344.9063 1093.875,345.7344 Q1094.7656,346.5469 1096.3594,346.5469 Q1097.2969,346.5469 1097.9531,346.2969 Q1098.3438,346.1406 1098.7656,345.7031 Q1099.0313,345.4375 1099.1719,345.3594 Q1099.3281,345.2813 1099.5313,345.2813 Q1099.8594,345.2813 1100.1094,345.5469 Q1100.375,345.7969 1100.375,346.1406 Q1100.375,346.4844 1100.0313,346.8906 Q1099.5313,347.4688 1098.7344,347.7969 Q1097.6563,348.25 1096.3594,348.25 Q1094.8438,348.25 1093.6406,347.625 Q1092.6563,347.125 1091.9688,346.0625 Q1091.2813,344.9844 1091.2813,343.7031 L1091.2813,342.5469 Q1091.2813,341.2188 1091.8906,340.0781 Q1092.5156,338.9219 1093.6094,338.3125 Q1094.7031,337.6875 1095.9375,337.6875 Q1096.6719,337.6875 1097.3125,337.8594 Q1097.9688,338.0156 1098.5156,338.375 Z " fill="#000000"/><text fill="#000000" font-family="sans-serif" font-size="14" lengthAdjust="spacing" textLength="148" x="1116.25" y="348.2969">OrganizationRepository</text><line style="stroke:#181818;stroke-width:0.5;" x1="1051" x2="1297" y1="358.5" y2="358.5"/><line style="stroke:#181818;stroke-width:0.5;" x1="1051" x2="1297" y1="366.5" y2="366.5"/><ellipse cx="1061" cy="381.3105" fill="#84BE84" rx="3" ry="3" style="stroke:#038048;stroke-width:1.0;"/><text fill="#000000" font-family="sans-serif" font-size="14" lengthAdjust="spacing" textLength="222" x="1070" y="385.6074">getOrganizationByUserEmail(email)</text></g><!--class Organization--><g id="elem_Organization"><rect codeLine="86" fill="#F1F1F1" height="178.3477" id="Organization" rx="2.5" ry="2.5" style="stroke:#181818;stroke-width:0.5;" width="471" x="938.5" y="519"/><ellipse cx="1129.75" cy="535" fill="#ADD1B2" rx="11" ry="11" style="stroke:#181818;stroke-width:1.0;"/><path d="M1132.5156,530.875 Q1132.6719,530.6563 1132.8594,530.5469 Q1133.0469,530.4375 1133.2656,530.4375 Q1133.6406,530.4375 1133.875,530.7031 Q1134.1094,530.9531 1134.1094,531.5625 L1134.1094,533.0156 Q1134.1094,533.625 1133.875,533.8906 Q1133.6406,534.1563 1133.2656,534.1563 Q1132.9219,534.1563 1132.7188,533.9531 Q1132.5156,533.7656 1132.4063,533.25 Q1132.3594,532.8906 1132.1719,532.7031 Q1131.8438,532.3281 1131.2344,532.1094 Q1130.625,531.8906 1130,531.8906 Q1129.2344,531.8906 1128.5938,532.2188 Q1127.9688,532.5469 1127.4688,533.2969 Q1126.9844,534.0469 1126.9844,535.0781 L1126.9844,536.1719 Q1126.9844,537.4063 1127.875,538.2344 Q1128.7656,539.0469 1130.3594,539.0469 Q1131.2969,539.0469 1131.9531,538.7969 Q1132.3438,538.6406 1132.7656,538.2031 Q1133.0313,537.9375 1133.1719,537.8594 Q1133.3281,537.7813 1133.5313,537.7813 Q1133.8594,537.7813 1134.1094,538.0469 Q1134.375,538.2969 1134.375,538.6406 Q1134.375,538.9844 1134.0313,539.3906 Q1133.5313,539.9688 1132.7344,540.2969 Q1131.6563,540.75 1130.3594,540.75 Q1128.8438,540.75 1127.6406,540.125 Q1126.6563,539.625 1125.9688,538.5625 Q1125.2813,537.4844 1125.2813,536.2031 L1125.2813,535.0469 Q1125.2813,533.7188 1125.8906,532.5781 Q1126.5156,531.4219 1127.6094,530.8125 Q1128.7031,530.1875 1129.9375,530.1875 Q1130.6719,530.1875 1131.3125,530.3594 Q1131.9688,530.5156 1132.5156,530.875 Z " fill="#000000"/><text fill="#000000" font-family="sans-serif" font-size="14" lengthAdjust="spacing" textLength="80" x="1150.25" y="540.7969">Organization</text><line style="stroke:#181818;stroke-width:0.5;" x1="939.5" x2="1408.5" y1="551" y2="551"/><rect fill="none" height="6" style="stroke:#C82930;stroke-width:1.0;" width="6" x="946.5" y="562.8105"/><text fill="#000000" font-family="sans-serif" font-size="14" lengthAdjust="spacing" textLength="76" x="958.5" y="570.1074">String name</text><rect fill="none" height="6" style="stroke:#C82930;stroke-width:1.0;" width="6" x="946.5" y="581.4316"/><text fill="#000000" font-family="sans-serif" font-size="14" lengthAdjust="spacing" textLength="109" x="958.5" y="588.7285">String vatNumber</text><rect fill="none" height="6" style="stroke:#C82930;stroke-width:1.0;" width="6" x="946.5" y="600.0527"/><text fill="#000000" font-family="sans-serif" font-size="14" lengthAdjust="spacing" textLength="81" x="958.5" y="607.3496">String phone</text><rect fill="none" height="6" style="stroke:#C82930;stroke-width:1.0;" width="6" x="946.5" y="618.6738"/><text fill="#000000" font-family="sans-serif" font-size="14" lengthAdjust="spacing" textLength="74" x="958.5" y="625.9707">String email</text><rect fill="none" height="6" style="stroke:#C82930;stroke-width:1.0;" width="6" x="946.5" y="637.2949"/><text fill="#000000" font-family="sans-serif" font-size="14" lengthAdjust="spacing" textLength="146" x="958.5" y="644.5918">Address postalAddress</text><line style="stroke:#181818;stroke-width:0.5;" x1="939.5" x2="1408.5" y1="652.1055" y2="652.1055"/><ellipse cx="949.5" cy="666.916" fill="#84BE84" rx="3" ry="3" style="stroke:#038048;stroke-width:1.0;"/><text fill="#000000" font-family="sans-serif" font-size="14" lengthAdjust="spacing" textLength="445" x="958.5" y="671.2129">Organization(name, vatNumber, webSite, phone, email, postalAddress)</text><rect fill="#F24D5C" height="6" style="stroke:#C82930;stroke-width:1.0;" width="6" x="946.5" y="682.5371"/><text fill="#000000" font-family="sans-serif" font-size="14" lengthAdjust="spacing" textLength="142" x="958.5" y="689.834">getUserByEmail(email)</text></g><!--class Status--><g id="elem_Status"><rect codeLine="96" fill="#F1F1F1" height="122.4844" id="Status" rx="2.5" ry="2.5" style="stroke:#181818;stroke-width:0.5;" width="98" x="768" y="1874"/><ellipse cx="794.7" cy="1890" fill="#EB937F" rx="11" ry="11" style="stroke:#181818;stroke-width:1.0;"/><path d="M793.5594,1890.7969 L793.5594,1893.2969 L797.8875,1893.2969 L797.8875,1892.375 Q797.8875,1891.7656 798.1219,1891.5 Q798.3719,1891.2344 798.7469,1891.2344 Q799.1219,1891.2344 799.3563,1891.5 Q799.5906,1891.7656 799.5906,1892.375 L799.5906,1895 L791.5906,1895 Q790.9656,1895 790.7,1894.7656 Q790.45,1894.5313 790.45,1894.1406 Q790.45,1893.7656 790.7156,1893.5313 Q790.9813,1893.2969 791.5906,1893.2969 L791.8563,1893.2969 L791.8563,1886.6406 L791.5906,1886.6406 Q790.9656,1886.6406 790.7,1886.4063 Q790.45,1886.1719 790.45,1885.7813 Q790.45,1885.4063 790.7,1885.1719 Q790.9656,1884.9375 791.5906,1884.9375 L799.2156,1884.9375 L799.2156,1887.5313 Q799.2156,1888.1406 798.9813,1888.4063 Q798.7625,1888.6563 798.3719,1888.6563 Q797.9969,1888.6563 797.7625,1888.4063 Q797.5281,1888.1406 797.5281,1887.5313 L797.5281,1886.6406 L793.5594,1886.6406 L793.5594,1889.0938 L795.0438,1889.0938 Q795.0438,1888.4375 795.1688,1888.25 Q795.4344,1887.8438 795.9031,1887.8438 Q796.2781,1887.8438 796.5125,1888.1094 Q796.7469,1888.3594 796.7469,1888.9688 L796.7469,1890.9375 Q796.7469,1891.4844 796.6219,1891.6719 Q796.3563,1892.0625 795.9031,1892.0625 Q795.4344,1892.0625 795.1688,1891.6563 Q795.0438,1891.4688 795.0438,1890.7969 L793.5594,1890.7969 Z " fill="#000000"/><text fill="#000000" font-family="sans-serif" font-size="14" lengthAdjust="spacing" textLength="40" x="811.3" y="1895.7969">Status</text><line style="stroke:#181818;stroke-width:0.5;" x1="769" x2="865" y1="1906" y2="1906"/><text fill="#000000" font-family="sans-serif" font-size="14" lengthAdjust="spacing" textLength="63" x="774" y="1925.1074">PLANNED</text><text fill="#000000" font-family="sans-serif" font-size="14" lengthAdjust="spacing" textLength="86" x="774" y="1943.7285">POSTPONED</text><text fill="#000000" font-family="sans-serif" font-size="14" lengthAdjust="spacing" textLength="74" x="774" y="1962.3496">CANCELED</text><text fill="#000000" font-family="sans-serif" font-size="14" lengthAdjust="spacing" textLength="39" x="774" y="1980.9707">DONE</text><line style="stroke:#181818;stroke-width:0.5;" x1="769" x2="865" y1="1988.4844" y2="1988.4844"/></g><!--link Repositories to Repositories--><g id="link_Repositories_Repositories"><path codeLine="106" d="M883,341.32 C904.25,344.84 918,351.07 918,360 C918,368.93 910.1693,374.1795 888.9193,377.6995 " fill="none" id="Repositories-to-Repositories" style="stroke:#181818;stroke-width:1.0;"/><polygon fill="#181818" points="883,378.68,892.5327,381.1554,887.9328,377.8629,891.2253,373.263,883,378.68" style="stroke:#181818;stroke-width:1.0;"/><text fill="#000000" font-family="sans-serif" font-size="13" lengthAdjust="spacing" textLength="49" x="924" y="365.5283">instance</text></g><!--link PostponeTaskUI to PostponeTaskController--><g id="link_PostponeTaskUI_PostponeTaskController"><path codeLine="107" d="M693,55.12 C693,76.83 693,109.52 693,133.87 " fill="none" id="PostponeTaskUI-PostponeTaskController" style="stroke:#181818;stroke-width:1.0;"/><text fill="#000000" font-family="sans-serif" font-size="13" lengthAdjust="spacing" textLength="30" x="694" y="100.0283">Uses</text></g><!--link PostponeTaskController to Repositories--><g id="link_PostponeTaskController_Repositories"><path codeLine="108" d="M693,201.25 C693,222.95 693,252.4 693,279.98 " fill="none" id="PostponeTaskController-Repositories" style="stroke:#181818;stroke-width:1.0;"/><text fill="#000000" font-family="sans-serif" font-size="13" lengthAdjust="spacing" textLength="48" x="694" y="246.0283">Controls</text></g><!--reverse link Repositories to OrganizationRepository--><g id="link_Repositories_OrganizationRepository"><path codeLine="109" d="M895.1,360 C951.17,360 999.06,360 1049.83,360 " fill="none" id="Repositories-backto-OrganizationRepository" style="stroke:#181818;stroke-width:1.0;"/><polygon fill="#181818" points="883.1,360,889.1,364,895.1,360,889.1,356,883.1,360" style="stroke:#181818;stroke-width:1.0;"/><text fill="#000000" font-family="sans-serif" font-size="13" lengthAdjust="spacing" textLength="51" x="941" y="353.0283">Contains</text><text fill="#000000" font-family="sans-serif" font-size="13" lengthAdjust="spacing" textLength="7" x="1035.0501" y="356.5308">1</text></g><!--reverse link Repositories to EmployeeRepository--><g id="link_Repositories_EmployeeRepository"><path codeLine="110" d="M756.3323,450.274 C772.6823,474.874 783.18,492.5 797,519 C836.39,594.51 825.35,623.28 868,697 C883.87,724.44 904.78,752.3 924.1,775.8 " fill="none" id="Repositories-backto-EmployeeRepository" style="stroke:#181818;stroke-width:1.0;"/><polygon fill="#181818" points="749.69,440.28,749.6798,447.4911,756.3323,450.274,756.3425,443.0629,749.69,440.28" style="stroke:#181818;stroke-width:1.0;"/><text fill="#000000" font-family="sans-serif" font-size="13" lengthAdjust="spacing" textLength="51" x="869" y="613.5283">Contains</text><text fill="#000000" font-family="sans-serif" font-size="13" lengthAdjust="spacing" textLength="7" x="910.4631" y="764.7581">1</text></g><!--reverse link Repositories to TaskRepository--><g id="link_Repositories_TaskRepository"><path codeLine="111" d="M693,452.19 C693,497.7 693,540.41 693,574.45 " fill="none" id="Repositories-backto-TaskRepository" style="stroke:#181818;stroke-width:1.0;"/><polygon fill="#181818" points="693,440.19,689,446.19,693,452.19,697,446.19,693,440.19" style="stroke:#181818;stroke-width:1.0;"/><text fill="#000000" font-family="sans-serif" font-size="13" lengthAdjust="spacing" textLength="51" x="694" y="485.0283">Contains</text><text fill="#000000" font-family="sans-serif" font-size="13" lengthAdjust="spacing" textLength="7" x="685.3109" y="563.2657">1</text></g><!--link TaskRepository to Tasks--><g id="link_TaskRepository_Tasks"><path codeLine="112" d="M696.71,641.63 C704.18,707.32 721.02,855.41 729.27,927.92 " fill="none" id="TaskRepository-Tasks" style="stroke:#181818;stroke-width:1.0;"/><text fill="#000000" font-family="sans-serif" font-size="13" lengthAdjust="spacing" textLength="51" x="710" y="742.0283">Contains</text></g><!--reverse link Tasks to Task--><g id="link_Tasks_Task"><path codeLine="113" d="M741.0752,1025.2875 C751.5852,1105.1775 773.52,1271.92 791.9,1411.66 " fill="none" id="Tasks-backto-Task" style="stroke:#181818;stroke-width:1.0;"/><polygon fill="#181818" points="739.51,1013.39,736.3268,1019.8605,741.0752,1025.2875,744.2584,1018.817,739.51,1013.39" style="stroke:#181818;stroke-width:1.0;"/><text fill="#000000" font-family="sans-serif" font-size="13" lengthAdjust="spacing" textLength="51" x="782" y="1193.5283">Contains</text></g><!--link EmployeeRepository to Employee--><g id="link_EmployeeRepository_Employee"><path codeLine="114" d="M978,898.39 C978,938.29 978,992.36 978,1042.91 " fill="none" id="EmployeeRepository-Employee" style="stroke:#181818;stroke-width:1.0;"/><text fill="#000000" font-family="sans-serif" font-size="13" lengthAdjust="spacing" textLength="51" x="979" y="976.0283">Contains</text></g><!--link Employee to Task--><g id="link_Employee_Task"><path codeLine="115" d="M921.92,1333.04 C912.02,1358.45 901.59,1385.25 891.29,1411.7 " fill="none" id="Employee-Task" style="stroke:#181818;stroke-width:1.0;"/><text fill="#000000" font-family="sans-serif" font-size="13" lengthAdjust="spacing" textLength="52" x="908" y="1378.0283">Performs</text></g><!--link OrganizationRepository to Organization--><g id="link_OrganizationRepository_Organization"><path codeLine="116" d="M1174,393.67 C1174,425.49 1174,475.3 1174,518.78 " fill="none" id="OrganizationRepository-Organization" style="stroke:#181818;stroke-width:1.0;"/><text fill="#000000" font-family="sans-serif" font-size="13" lengthAdjust="spacing" textLength="51" x="1175" y="485.0283">Contains</text><text fill="#000000" font-family="sans-serif" font-size="13" lengthAdjust="spacing" textLength="5" x="1168.793" y="507.7135">*</text></g><!--reverse link Organization to Employee--><g id="link_Organization_Employee"><path codeLine="117" d="M1157.7475,709.0872 C1147.2375,767.0072 1133.04,832.14 1111,898 C1094.83,946.32 1073.04,997.34 1051.79,1042.84 " fill="none" id="Organization-backto-Employee" style="stroke:#181818;stroke-width:1.0;"/><polygon fill="#181818" points="1159.89,697.28,1154.883,702.4694,1157.7475,709.0872,1162.7545,703.8978,1159.89,697.28" style="stroke:#181818;stroke-width:1.0;"/><text fill="#000000" font-family="sans-serif" font-size="13" lengthAdjust="spacing" textLength="49" x="1144" y="842.5283">employs</text><text fill="#000000" font-family="sans-serif" font-size="13" lengthAdjust="spacing" textLength="7" x="1151.4317" y="719.4034">1</text><text fill="#000000" font-family="sans-serif" font-size="13" lengthAdjust="spacing" textLength="5" x="1050.4659" y="1031.9508">*</text></g><!--reverse link Organization to EmployeeRepository--><g id="link_Organization_EmployeeRepository"><path codeLine="118" d="M1090.0976,706.1727 C1067.3976,732.4627 1050.87,751.6 1030.08,775.68 " fill="none" id="Organization-backto-EmployeeRepository" style="stroke:#181818;stroke-width:1.0;"/><polygon fill="#181818" points="1097.94,697.09,1090.9912,699.0172,1090.0976,706.1727,1097.0464,704.2455,1097.94,697.09" style="stroke:#181818;stroke-width:1.0;"/><text fill="#000000" font-family="sans-serif" font-size="13" lengthAdjust="spacing" textLength="7" x="1084.1028" y="719.5025">1</text><text fill="#000000" font-family="sans-serif" font-size="13" lengthAdjust="spacing" textLength="7" x="1028.6971" y="764.6242">1</text></g><!--link Task to Status--><g id="link_Task_Status"><path codeLine="119" d="M817,1795.22 C817,1823.68 817,1845.08 817,1867.91 " fill="none" id="Task-to-Status" style="stroke:#181818;stroke-width:1.0;"/><polygon fill="#181818" points="817,1873.91,821,1864.91,817,1868.91,813,1864.91,817,1873.91" style="stroke:#181818;stroke-width:1.0;"/><text fill="#000000" font-family="sans-serif" font-size="13" lengthAdjust="spacing" textLength="21" x="818" y="1840.0283">has</text></g><!--reverse link AuthenticationRepository to Repositories--><g id="link_AuthenticationRepository_Repositories"><path codeLine="120" d="M474.31,360 C485.87,360 491.42,360 502.98,360 " fill="none" id="AuthenticationRepository-backto-Repositories" style="stroke:#181818;stroke-width:1.0;"/><polygon fill="#181818" points="468.31,360,477.31,364,473.31,360,477.31,356,468.31,360" style="stroke:#181818;stroke-width:1.0;"/><text fill="#000000" font-family="sans-serif" font-size="13" lengthAdjust="spacing" textLength="7" x="475.8751" y="356.4032">1</text></g><!--reverse link UserSession to AuthenticationRepository--><g id="link_UserSession_AuthenticationRepository"><path codeLine="121" d="M175.29,360 C209.1,360 242.59,360 277.75,360 " fill="none" id="UserSession-backto-AuthenticationRepository" style="stroke:#181818;stroke-width:1.0;"/><polygon fill="#181818" points="169.29,360,178.29,364,174.29,360,178.29,356,169.29,360" style="stroke:#181818;stroke-width:1.0;"/><text fill="#000000" font-family="sans-serif" font-size="13" lengthAdjust="spacing" textLength="72" x="187.5" y="353.0283">userSession</text><text fill="#000000" font-family="sans-serif" font-size="13" lengthAdjust="spacing" textLength="7" x="177.1066" y="356.247">1</text></g><!--SRC=[XLPBZvim4BxpAwnU2hlXq2kgLifBRQGe6ssowjaBtc0LR6IRTcdL_ruFDc3psBqaUBvvV3DZZvqMM4fqvb9Ld94hbZ-V3-Xly2y8qWcovKm9NXH4Q0s4xgjPB2HbLV26a2UY5QZYebcXMX9n8L9IpY9m7dJ-UoLAPEiLeTWJXb4hl4SteWvCAinI4aOeyPG6bVqaUAiy5GycG7-axei6rKTnmup-mKhduPeaQ1uPBDUroWbJD9snNSA6BYnfs8gr4RQr45hdUQXq60qU775lHEMHtsuaEx0VLELFl21kiS7YaBa-_AgOFG2o_HkLIcwQArNQHVixiZAjZHLy9kYerR-2-04ys0v8g8I3UFOzPGNE4tHHWh9RnrKGmYuLJZNmhV-sO4PaAcW5PHkPwQsaQWb2-BV2Mjm8Ivi4FPkFpWjkj2PbogvpNWjF04cqsKTZSaGDd02TCDGQku7ad0F3q20ELxc8GFSCVu3yL22SpWO0Z_vtICcNAcwOJ3YzKfQrFTiqEwp84sOt4kfw2WNB1C7l2X6M3Sjer7Pma_Aome9SUSZrzXO0cQDdMVHRO7fw-r4nTzwj-qB7w-1XZ90IqyBis10-e-dis3Imz_U0XiJeJAZq14nX4CCbiH985xrGeV9CVxb2d9NK7447MMUPq0SJmJJ5XLtvpgjSJrbVrFBoHOSTodYAL5EHEQ0kzNH0h2vVYF3nAtwhSAEd-c5dYx7jEwEnCs27NLUeRQ79zEKSzaZNr1nsWzcEA3J_JltcvwGxnroDzphXwhtJ3IlvXTLf9lKFAhlSctilVWW1LqEG5VfDNYuKJa4ROMMyhdn7aOrYX-sc6ITATBVioROPde_hqsblsdH-l5pFZzrgkpvjzqUxs6bnUyr-rjTaqLAKEQra47ZtRVpWtxzmxCmD6unU176yz198u6gHmG8Qn-C85fG-axjOQDLFNpujRH1ZY3M_iQ4ncnaH7vcChZD7VOHeVNE9ZLICg_P-Sf0P9l4mf-OqqU3bJCGh5wKC5ie0rE_y8haUFJdaU6SDdF3cURQaErlADbiT-w7RZ0dAyQYgSG4us2y-PnPVCThMc3glbCHzCmR_0G00]--></g></svg>