<?xml version="1.0" encoding="us-ascii" standalone="no"?><svg xmlns="http://www.w3.org/2000/svg" xmlns:xlink="http://www.w3.org/1999/xlink" contentStyleType="text/css" height="858px" preserveAspectRatio="none" style="width:345px;height:858px;background:#FFFFFF;" version="1.1" viewBox="0 0 345 858" width="345px" zoomAndPan="magnify"><defs/><g><!--class Employee--><g id="elem_Employee"><rect codeLine="7" fill="#F1F1F1" height="26.4883" id="Employee" rx="2.5" ry="2.5" style="stroke:#181818;stroke-width:0.5;" width="72" x="161" y="7"/><text fill="#000000" font-family="sans-serif" font-size="14" lengthAdjust="spacing" textLength="66" x="164" y="25.5352">Employee</text></g><!--class GSM--><g id="elem_GSM"><rect codeLine="10" fill="#F1F1F1" height="26.4883" id="GSM" rx="2.5" ry="2.5" style="stroke:#181818;stroke-width:0.5;" width="36" x="108" y="172.49"/><text fill="#000000" font-family="sans-serif" font-size="14" lengthAdjust="spacing" textLength="30" x="111" y="191.0252">GSM</text></g><!--class Tasks--><g id="elem_Tasks"><rect codeLine="13" fill="#F1F1F1" height="67.4648" id="Tasks" rx="2.5" ry="2.5" style="stroke:#181818;stroke-width:0.5;" width="116" x="80" y="560.93"/><text fill="#000000" font-family="sans-serif" font-size="14" lengthAdjust="spacing" textLength="39" x="118.5" y="579.4652">Tasks</text><line style="stroke:#181818;stroke-width:0.5;" x1="81" x2="195" y1="587.4183" y2="587.4183"/><rect fill="none" height="6" style="stroke:#C82930;stroke-width:1.0;" width="6" x="88" y="598.1624"/><text fill="#000000" font-family="sans-serif" font-size="14" lengthAdjust="spacing" textLength="56" x="100" y="604.9534">toDoList</text><rect fill="none" height="6" style="stroke:#C82930;stroke-width:1.0;" width="6" x="88" y="614.6507"/><text fill="#000000" font-family="sans-serif" font-size="14" lengthAdjust="spacing" textLength="90" x="100" y="621.4417">taskCategory</text></g><!--class Agenda--><g id="elem_Agenda"><rect codeLine="18" fill="#F1F1F1" height="83.9531" id="Agenda" rx="2.5" ry="2.5" style="stroke:#181818;stroke-width:0.5;" width="81" x="91.5" y="337.98"/><text fill="#000000" font-family="sans-serif" font-size="14" lengthAdjust="spacing" textLength="53" x="105.5" y="356.5152">Agenda</text><line style="stroke:#181818;stroke-width:0.5;" x1="92.5" x2="171.5" y1="364.4683" y2="364.4683"/><rect fill="none" height="6" style="stroke:#C82930;stroke-width:1.0;" width="6" x="99.5" y="375.2124"/><text fill="#000000" font-family="sans-serif" font-size="14" lengthAdjust="spacing" textLength="30" x="111.5" y="382.0034">date</text><rect fill="none" height="6" style="stroke:#C82930;stroke-width:1.0;" width="6" x="99.5" y="391.7007"/><text fill="#000000" font-family="sans-serif" font-size="14" lengthAdjust="spacing" textLength="30" x="111.5" y="398.4917">time</text><rect fill="none" height="6" style="stroke:#C82930;stroke-width:1.0;" width="6" x="99.5" y="408.189"/><text fill="#000000" font-family="sans-serif" font-size="14" lengthAdjust="spacing" textLength="55" x="111.5" y="414.98">location</text></g><!--class GreenSpaces--><g id="elem_GreenSpaces"><rect codeLine="25" fill="#F1F1F1" height="83.9531" id="GreenSpaces" rx="2.5" ry="2.5" style="stroke:#181818;stroke-width:0.5;" width="94" x="7" y="767.4"/><text fill="#000000" font-family="sans-serif" font-size="14" lengthAdjust="spacing" textLength="88" x="10" y="785.9352">GreenSpaces</text><line style="stroke:#181818;stroke-width:0.5;" x1="8" x2="100" y1="793.8883" y2="793.8883"/><rect fill="none" height="6" style="stroke:#C82930;stroke-width:1.0;" width="6" x="15" y="804.6324"/><text fill="#000000" font-family="sans-serif" font-size="14" lengthAdjust="spacing" textLength="29" x="27" y="811.4234">type</text><rect fill="none" height="6" style="stroke:#C82930;stroke-width:1.0;" width="6" x="15" y="821.1207"/><text fill="#000000" font-family="sans-serif" font-size="14" lengthAdjust="spacing" textLength="38" x="27" y="827.9117">name</text><rect fill="none" height="6" style="stroke:#C82930;stroke-width:1.0;" width="6" x="15" y="837.609"/><text fill="#000000" font-family="sans-serif" font-size="14" lengthAdjust="spacing" textLength="54" x="27" y="844.4">address</text></g><!--link GSM to GreenSpaces--><g id="link_GSM_GreenSpaces"><path codeLine="31" d="M107.88,199.35 C75.25,222.06 10,267.48 10,267.48 C10,267.48 10,267.48 10,698.9 C10,698.9 24.91,735.98 37.37,766.99 " fill="none" id="GSM-GreenSpaces" style="stroke:#181818;stroke-width:1.0;"/><text fill="#000000" font-family="sans-serif" font-size="13" lengthAdjust="spacing" textLength="56" x="11" y="496.4984">manages</text><text fill="#000000" font-family="sans-serif" font-size="13" lengthAdjust="spacing" textLength="8" x="91.9997" y="199.1525">1</text><text fill="#000000" font-family="sans-serif" font-size="13" lengthAdjust="spacing" textLength="22" x="10.9665" y="756.6324">1..*</text></g><!--link Employee to GSM--><g id="link_Employee_GSM"><path codeLine="32" d="M191.55,33.8 C178.3,64.31 144.54,142.04 131.37,172.36 " fill="none" id="Employee-GSM" style="stroke:#181818;stroke-width:1.0;"/><polygon fill="#000000" points="172.9919,98.5592,166.6929,105.6847,172.0842,108.0263,172.9919,98.5592" style="stroke:#000000;stroke-width:1.0;"/><text fill="#000000" font-family="sans-serif" font-size="13" lengthAdjust="spacing" textLength="22" x="180" y="108.0584">is a</text><text fill="#000000" font-family="sans-serif" font-size="13" lengthAdjust="spacing" textLength="8" x="180.1834" y="53.9248">1</text><text fill="#000000" font-family="sans-serif" font-size="13" lengthAdjust="spacing" textLength="22" x="107.1532" y="161.7703">1..*</text></g><!--link Tasks to GreenSpaces--><g id="link_Tasks_GreenSpaces"><path codeLine="33" d="M125.06,628.43 C110.33,665.73 86.26,726.69 70.27,767.17 " fill="none" id="Tasks-GreenSpaces" style="stroke:#181818;stroke-width:1.0;"/><polygon fill="#000000" points="104.1635,702.7058,110.2193,695.3724,104.7523,693.2135,104.1635,702.7058" style="stroke:#000000;stroke-width:1.0;"/><text fill="#000000" font-family="sans-serif" font-size="13" lengthAdjust="spacing" textLength="59" x="115" y="702.9684">relates to</text><text fill="#000000" font-family="sans-serif" font-size="13" lengthAdjust="spacing" textLength="22" x="98.4964" y="648.8946">1..*</text><text fill="#000000" font-family="sans-serif" font-size="13" lengthAdjust="spacing" textLength="22" x="49.1428" y="756.5314">1..*</text></g><!--link Employee to Tasks--><g id="link_Employee_Tasks"><path codeLine="34" d="M207.94,33.86 C227.63,56.57 267,101.99 267,101.99 C267,101.99 267,101.99 267,492.43 C267,492.43 217.86,530.99 180.24,560.52 " fill="none" id="Employee-Tasks" style="stroke:#181818;stroke-width:1.0;"/><polygon fill="#000000" points="271.7374,273.6284,275.1473,264.7501,269.2776,264.4414,271.7374,273.6284" style="stroke:#000000;stroke-width:1.0;"/><text fill="#000000" font-family="sans-serif" font-size="13" lengthAdjust="spacing" textLength="56" x="281" y="273.5484">manages</text><text fill="#000000" font-family="sans-serif" font-size="13" lengthAdjust="spacing" textLength="8" x="202.4124" y="54.0062">1</text><text fill="#000000" font-family="sans-serif" font-size="13" lengthAdjust="spacing" textLength="22" x="164.1951" y="550.1799">0..*</text></g><!--link GSM to Agenda--><g id="link_GSM_Agenda"><path codeLine="35" d="M126.39,199.35 C127.26,226.99 129.35,293.96 130.72,337.85 " fill="none" id="GSM-Agenda" style="stroke:#181818;stroke-width:1.0;"/><polygon fill="#000000" points="134.1562,273.6328,136.8111,264.5003,130.9361,264.684,134.1562,273.6328" style="stroke:#000000;stroke-width:1.0;"/><text fill="#000000" font-family="sans-serif" font-size="13" lengthAdjust="spacing" textLength="56" x="143" y="273.5484">manages</text><text fill="#000000" font-family="sans-serif" font-size="13" lengthAdjust="spacing" textLength="8" x="117.1039" y="219.4962">1</text><text fill="#000000" font-family="sans-serif" font-size="13" lengthAdjust="spacing" textLength="8" x="121.8455" y="327.228">1</text></g><!--link Agenda to Tasks--><g id="link_Agenda_Tasks"><path codeLine="36" d="M133.16,422.22 C134.3,462.57 136.01,523.24 137.07,560.54 " fill="none" id="Agenda-Tasks" style="stroke:#181818;stroke-width:1.0;"/><polygon fill="#000000" points="141.1413,496.5833,143.8235,487.4588,137.9479,487.6248,141.1413,496.5833" style="stroke:#000000;stroke-width:1.0;"/><text fill="#000000" font-family="sans-serif" font-size="13" lengthAdjust="spacing" textLength="61" x="150" y="496.4984">organizes</text><text fill="#000000" font-family="sans-serif" font-size="13" lengthAdjust="spacing" textLength="8" x="124.7251" y="442.4322">1</text><text fill="#000000" font-family="sans-serif" font-size="13" lengthAdjust="spacing" textLength="22" x="112.7958" y="550.2037">1..*</text></g><!--SRC=[TL3BJiCm4BpxArOvLaf5hn52Ge1wWLFvWILU9LRzadTx28X_nuwRaWXnidSyipFZqMW2Hp86pMeiGszIRwdUoKMP04MI-RW8iUApyH4JEh36aqoH80OxbK6ftY8plBXemqG4N-fxmOwdj_NuZdpc302q8E4vl1gMCaZ6dr1e26dwPJyEv3LMkiwlCzEu-RIXHp715_RYbOZyAM9FLukIShRoM4M0MYTYBgAIh3aqRTisX_r-rspa7JZqEEJUjr9RRXPtO1WGxbKjLL_-MvV8vWASIyF3dvrtis1USpFEj7N2PlcCDU4ARPBLC1s4DA0tduNt0m00]--></g></svg>