<?xml version="1.0" encoding="us-ascii" standalone="no"?><svg xmlns="http://www.w3.org/2000/svg" xmlns:xlink="http://www.w3.org/1999/xlink" contentStyleType="text/css" height="960px" preserveAspectRatio="none" style="width:1534px;height:960px;background:#FFFFFF;" version="1.1" viewBox="0 0 1534 960" width="1534.2px" zoomAndPan="magnify"><defs/><g><!--class Organization--><g id="elem_Organization"><rect codeLine="11" fill="#F1F1F1" height="66.6633" id="Organization" rx="1.5" ry="1.5" style="stroke:#181818;stroke-width:0.3;" width="51.6" x="785.5621" y="4.2"/><text fill="#000000" font-family="sans-serif" font-size="8.4" lengthAdjust="spacing" textLength="48" x="787.3621" y="16.2645">Organization</text><line style="stroke:#181818;stroke-width:0.3;" x1="786.1621" x2="836.5621" y1="21.3727" y2="21.3727"/><rect fill="none" height="3.6" style="stroke:#C82930;stroke-width:0.6;" width="3.6" x="790.3621" y="28.459"/><text fill="#000000" font-family="sans-serif" font-size="8.4" lengthAdjust="spacing" textLength="21" x="797.5621" y="32.8371">name</text><rect fill="none" height="3.6" style="stroke:#C82930;stroke-width:0.6;" width="3.6" x="790.3621" y="39.6316"/><text fill="#000000" font-family="sans-serif" font-size="8.4" lengthAdjust="spacing" textLength="30.6" x="797.5621" y="44.0098">address</text><rect fill="none" height="3.6" style="stroke:#C82930;stroke-width:0.6;" width="3.6" x="790.3621" y="50.8043"/><text fill="#000000" font-family="sans-serif" font-size="8.4" lengthAdjust="spacing" textLength="24" x="797.5621" y="55.1824">phone</text><rect fill="none" height="3.6" style="stroke:#C82930;stroke-width:0.6;" width="3.6" x="790.3621" y="61.977"/><text fill="#000000" font-family="sans-serif" font-size="8.4" lengthAdjust="spacing" textLength="19.8" x="797.5621" y="66.3551">email</text></g><!--class Employee--><g id="elem_Employee"><rect codeLine="18" fill="#F1F1F1" height="17.1727" id="Employee" rx="1.5" ry="1.5" style="stroke:#181818;stroke-width:0.3;" width="40.8" x="790.9621" y="163.2"/><text fill="#000000" font-family="sans-serif" font-size="8.4" lengthAdjust="spacing" textLength="37.2" x="792.7621" y="175.2645">Employee</text></g><!--class TeamMember--><g id="elem_TeamMember"><rect codeLine="21" fill="#F1F1F1" height="100.1812" id="TeamMember" rx="1.5" ry="1.5" style="stroke:#181818;stroke-width:0.3;" width="94.2" x="209.8621" y="273"/><text fill="#000000" font-family="sans-serif" font-size="8.4" lengthAdjust="spacing" textLength="52.2" x="230.8621" y="285.0645">TeamMember</text><line style="stroke:#181818;stroke-width:0.3;" x1="210.4621" x2="303.4621" y1="290.1727" y2="290.1727"/><rect fill="none" height="3.6" style="stroke:#C82930;stroke-width:0.6;" width="3.6" x="214.6621" y="297.259"/><text fill="#000000" font-family="sans-serif" font-size="8.4" lengthAdjust="spacing" textLength="21" x="221.8621" y="301.6371">name</text><rect fill="none" height="3.6" style="stroke:#C82930;stroke-width:0.6;" width="3.6" x="214.6621" y="308.4316"/><text fill="#000000" font-family="sans-serif" font-size="8.4" lengthAdjust="spacing" textLength="33.6" x="221.8621" y="312.8098">birthdate</text><rect fill="none" height="3.6" style="stroke:#C82930;stroke-width:0.6;" width="3.6" x="214.6621" y="319.6043"/><text fill="#000000" font-family="sans-serif" font-size="8.4" lengthAdjust="spacing" textLength="57" x="221.8621" y="323.9824">admission date</text><rect fill="none" height="3.6" style="stroke:#C82930;stroke-width:0.6;" width="3.6" x="214.6621" y="330.777"/><text fill="#000000" font-family="sans-serif" font-size="8.4" lengthAdjust="spacing" textLength="30.6" x="221.8621" y="335.1551">address</text><rect fill="none" height="3.6" style="stroke:#C82930;stroke-width:0.6;" width="3.6" x="214.6621" y="341.9496"/><text fill="#000000" font-family="sans-serif" font-size="8.4" lengthAdjust="spacing" textLength="43.8" x="221.8621" y="346.3277">contact info</text><rect fill="none" height="3.6" style="stroke:#C82930;stroke-width:0.6;" width="3.6" x="214.6621" y="353.1223"/><text fill="#000000" font-family="sans-serif" font-size="8.4" lengthAdjust="spacing" textLength="42.6" x="221.8621" y="357.5004">ID doc type</text><rect fill="none" height="3.6" style="stroke:#C82930;stroke-width:0.6;" width="3.6" x="214.6621" y="364.2949"/><text fill="#000000" font-family="sans-serif" font-size="8.4" lengthAdjust="spacing" textLength="78.6" x="221.8621" y="368.673">ID document number</text></g><!--class HRM--><g id="elem_HRM"><rect codeLine="31" fill="#F1F1F1" height="17.1727" id="HRM" rx="1.5" ry="1.5" style="stroke:#181818;stroke-width:0.3;" width="21.6" x="160.9621" y="501.6"/><text fill="#000000" font-family="sans-serif" font-size="8.4" lengthAdjust="spacing" textLength="18" x="162.7621" y="513.6645">HRM</text></g><!--class GSM--><g id="elem_GSM"><rect codeLine="34" fill="#F1F1F1" height="17.1727" id="GSM" rx="1.5" ry="1.5" style="stroke:#181818;stroke-width:0.3;" width="22.2" x="656.2621" y="314.4"/><text fill="#000000" font-family="sans-serif" font-size="8.4" lengthAdjust="spacing" textLength="18.6" x="658.0621" y="326.4645">GSM</text></g><!--class VFM--><g id="elem_VFM"><rect codeLine="37" fill="#F1F1F1" height="17.1727" id="VFM" rx="1.5" ry="1.5" style="stroke:#181818;stroke-width:0.3;" width="21" x="1376.2621" y="617.1"/><text fill="#000000" font-family="sans-serif" font-size="8.4" lengthAdjust="spacing" textLength="17.4" x="1378.0621" y="629.1645">VFM</text></g><!--class Job--><g id="elem_Job"><rect codeLine="40" fill="#F1F1F1" height="33.1453" id="Job" rx="1.5" ry="1.5" style="stroke:#181818;stroke-width:0.3;" width="36.6" x="17.2621" y="155.4"/><text fill="#000000" font-family="sans-serif" font-size="8.4" lengthAdjust="spacing" textLength="13.2" x="28.9621" y="167.4645">Job</text><line style="stroke:#181818;stroke-width:0.3;" x1="17.8621" x2="53.2621" y1="172.5727" y2="172.5727"/><rect fill="none" height="3.6" style="stroke:#C82930;stroke-width:0.6;" width="3.6" x="22.0621" y="179.659"/><text fill="#000000" font-family="sans-serif" font-size="8.4" lengthAdjust="spacing" textLength="21" x="29.2621" y="184.0371">name</text></g><!--class Skills--><g id="elem_Skills"><rect codeLine="44" fill="#F1F1F1" height="33.1453" id="Skills" rx="1.5" ry="1.5" style="stroke:#181818;stroke-width:0.3;" width="36.6" x="154.0621" y="155.4"/><text fill="#000000" font-family="sans-serif" font-size="8.4" lengthAdjust="spacing" textLength="19.2" x="162.7621" y="167.4645">Skills</text><line style="stroke:#181818;stroke-width:0.3;" x1="154.6621" x2="190.0621" y1="172.5727" y2="172.5727"/><rect fill="none" height="3.6" style="stroke:#C82930;stroke-width:0.6;" width="3.6" x="158.8621" y="179.659"/><text fill="#000000" font-family="sans-serif" font-size="8.4" lengthAdjust="spacing" textLength="21" x="166.0621" y="184.0371">name</text></g><!--class Teams--><g id="elem_Teams"><rect codeLine="48" fill="#F1F1F1" height="44.318" id="Teams" rx="1.5" ry="1.5" style="stroke:#181818;stroke-width:0.3;" width="66.6" x="989.2621" y="391.2"/><text fill="#000000" font-family="sans-serif" font-size="8.4" lengthAdjust="spacing" textLength="25.8" x="1009.6621" y="403.2645">Teams</text><line style="stroke:#181818;stroke-width:0.3;" x1="989.8621" x2="1055.2621" y1="408.3727" y2="408.3727"/><rect fill="none" height="3.6" style="stroke:#C82930;stroke-width:0.6;" width="3.6" x="994.0621" y="415.459"/><text fill="#000000" font-family="sans-serif" font-size="8.4" lengthAdjust="spacing" textLength="51" x="1001.2621" y="419.8371">numElements</text><rect fill="none" height="3.6" style="stroke:#C82930;stroke-width:0.6;" width="3.6" x="994.0621" y="426.6316"/><text fill="#000000" font-family="sans-serif" font-size="8.4" lengthAdjust="spacing" textLength="47.4" x="1001.2621" y="431.0098">skillsNeeded</text></g><!--class Tasks--><g id="elem_Tasks"><rect codeLine="53" fill="#F1F1F1" height="44.318" id="Tasks" rx="1.5" ry="1.5" style="stroke:#181818;stroke-width:0.3;" width="66" x="1047.7621" y="603.6"/><text fill="#000000" font-family="sans-serif" font-size="8.4" lengthAdjust="spacing" textLength="22.8" x="1069.3621" y="615.6645">Tasks</text><line style="stroke:#181818;stroke-width:0.3;" x1="1048.3621" x2="1113.1621" y1="620.7727" y2="620.7727"/><rect fill="none" height="3.6" style="stroke:#C82930;stroke-width:0.6;" width="3.6" x="1052.5621" y="627.859"/><text fill="#000000" font-family="sans-serif" font-size="8.4" lengthAdjust="spacing" textLength="50.4" x="1059.7621" y="632.2371">taskCategory</text><rect fill="none" height="3.6" style="stroke:#C82930;stroke-width:0.6;" width="3.6" x="1052.5621" y="639.0316"/><text fill="#000000" font-family="sans-serif" font-size="8.4" lengthAdjust="spacing" textLength="31.2" x="1059.7621" y="643.4098">toDoList</text></g><!--class Agenda--><g id="elem_Agenda"><rect codeLine="58" fill="#F1F1F1" height="17.1727" id="Agenda" rx="1.5" ry="1.5" style="stroke:#181818;stroke-width:0.3;" width="33" x="908.8621" y="501.6"/><text fill="#000000" font-family="sans-serif" font-size="8.4" lengthAdjust="spacing" textLength="29.4" x="910.6621" y="513.6645">Agenda</text></g><!--class Malfunctions--><g id="elem_Malfunctions"><rect codeLine="62" fill="#F1F1F1" height="44.318" id="Malfunctions" rx="1.5" ry="1.5" style="stroke:#181818;stroke-width:0.3;" width="66" x="522.7621" y="603.6"/><text fill="#000000" font-family="sans-serif" font-size="8.4" lengthAdjust="spacing" textLength="47.4" x="532.0621" y="615.6645">Malfunctions</text><line style="stroke:#181818;stroke-width:0.3;" x1="523.3621" x2="588.1621" y1="620.7727" y2="620.7727"/><rect fill="none" height="3.6" style="stroke:#C82930;stroke-width:0.6;" width="3.6" x="527.5621" y="627.859"/><text fill="#000000" font-family="sans-serif" font-size="8.4" lengthAdjust="spacing" textLength="41.4" x="534.7621" y="632.2371">description</text><rect fill="none" height="3.6" style="stroke:#C82930;stroke-width:0.6;" width="3.6" x="527.5621" y="639.0316"/><text fill="#000000" font-family="sans-serif" font-size="8.4" lengthAdjust="spacing" textLength="50.4" x="534.7621" y="643.4098">reportedDate</text></g><!--class GreenSpaces--><g id="elem_GreenSpaces"><rect codeLine="67" fill="#F1F1F1" height="33.1453" id="GreenSpaces" rx="1.5" ry="1.5" style="stroke:#181818;stroke-width:0.3;" width="55.8" x="916.6621" y="777.3"/><text fill="#000000" font-family="sans-serif" font-size="8.4" lengthAdjust="spacing" textLength="52.2" x="918.4621" y="789.3645">GreenSpaces</text><line style="stroke:#181818;stroke-width:0.3;" x1="917.2621" x2="971.8621" y1="794.4727" y2="794.4727"/><rect fill="none" height="3.6" style="stroke:#C82930;stroke-width:0.6;" width="3.6" x="921.4621" y="801.559"/><text fill="#000000" font-family="sans-serif" font-size="8.4" lengthAdjust="spacing" textLength="16.2" x="928.6621" y="805.9371">type</text></g><!--class Garden--><g id="elem_Garden"><rect codeLine="71" fill="#F1F1F1" height="17.1727" id="Garden" rx="1.5" ry="1.5" style="stroke:#181818;stroke-width:0.3;" width="32.4" x="855.7621" y="939.6"/><text fill="#000000" font-family="sans-serif" font-size="8.4" lengthAdjust="spacing" textLength="28.8" x="857.5621" y="951.6645">Garden</text></g><!--class MediumSizedPark--><g id="elem_MediumSizedPark"><rect codeLine="74" fill="#F1F1F1" height="17.1727" id="MediumSizedPark" rx="1.5" ry="1.5" style="stroke:#181818;stroke-width:0.3;" width="70.8" x="909.1621" y="939.6"/><text fill="#000000" font-family="sans-serif" font-size="8.4" lengthAdjust="spacing" textLength="67.2" x="910.9621" y="951.6645">MediumSizedPark</text></g><!--class LargeSizedPark--><g id="elem_LargeSizedPark"><rect codeLine="77" fill="#F1F1F1" height="17.1727" id="LargeSizedPark" rx="1.5" ry="1.5" style="stroke:#181818;stroke-width:0.3;" width="63.6" x="1000.9621" y="939.6"/><text fill="#000000" font-family="sans-serif" font-size="8.4" lengthAdjust="spacing" textLength="60" x="1002.7621" y="951.6645">LargeSizedPark</text></g><!--class Equipment--><g id="elem_Equipment"><rect codeLine="83" fill="#F1F1F1" height="33.1453" id="Equipment" rx="1.5" ry="1.5" style="stroke:#181818;stroke-width:0.3;" width="57" x="1143.4621" y="777.3"/><text fill="#000000" font-family="sans-serif" font-size="8.4" lengthAdjust="spacing" textLength="40.2" x="1151.8621" y="789.3645">Equipment</text><line style="stroke:#181818;stroke-width:0.3;" x1="1144.0621" x2="1199.8621" y1="794.4727" y2="794.4727"/><rect fill="none" height="3.6" style="stroke:#C82930;stroke-width:0.6;" width="3.6" x="1148.2621" y="801.559"/><text fill="#000000" font-family="sans-serif" font-size="8.4" lengthAdjust="spacing" textLength="41.4" x="1155.4621" y="805.9371">description</text></g><!--class Vehicles--><g id="elem_Vehicles"><rect codeLine="87" fill="#F1F1F1" height="122.5266" id="Vehicles" rx="1.5" ry="1.5" style="stroke:#181818;stroke-width:0.3;" width="105" x="1425.4621" y="732.6"/><text fill="#000000" font-family="sans-serif" font-size="8.4" lengthAdjust="spacing" textLength="31.8" x="1462.0621" y="744.6645">Vehicles</text><line style="stroke:#181818;stroke-width:0.3;" x1="1426.0621" x2="1529.8621" y1="749.7727" y2="749.7727"/><rect fill="none" height="3.6" style="stroke:#C82930;stroke-width:0.6;" width="3.6" x="1430.2621" y="756.859"/><text fill="#000000" font-family="sans-serif" font-size="8.4" lengthAdjust="spacing" textLength="22.2" x="1437.4621" y="761.2371">brand</text><rect fill="none" height="3.6" style="stroke:#C82930;stroke-width:0.6;" width="3.6" x="1430.2621" y="768.0316"/><text fill="#000000" font-family="sans-serif" font-size="8.4" lengthAdjust="spacing" textLength="22.8" x="1437.4621" y="772.4098">model</text><rect fill="none" height="3.6" style="stroke:#C82930;stroke-width:0.6;" width="3.6" x="1430.2621" y="779.2043"/><text fill="#000000" font-family="sans-serif" font-size="8.4" lengthAdjust="spacing" textLength="16.2" x="1437.4621" y="783.5824">type</text><rect fill="none" height="3.6" style="stroke:#C82930;stroke-width:0.6;" width="3.6" x="1430.2621" y="790.377"/><text fill="#000000" font-family="sans-serif" font-size="8.4" lengthAdjust="spacing" textLength="41.4" x="1437.4621" y="794.7551">tareWeight</text><rect fill="none" height="3.6" style="stroke:#C82930;stroke-width:0.6;" width="3.6" x="1430.2621" y="801.5496"/><text fill="#000000" font-family="sans-serif" font-size="8.4" lengthAdjust="spacing" textLength="47.4" x="1437.4621" y="805.9277">grossWeight</text><rect fill="none" height="3.6" style="stroke:#C82930;stroke-width:0.6;" width="3.6" x="1430.2621" y="812.7223"/><text fill="#000000" font-family="sans-serif" font-size="8.4" lengthAdjust="spacing" textLength="43.2" x="1437.4621" y="817.1004">currentKms</text><rect fill="none" height="3.6" style="stroke:#C82930;stroke-width:0.6;" width="3.6" x="1430.2621" y="823.8949"/><text fill="#000000" font-family="sans-serif" font-size="8.4" lengthAdjust="spacing" textLength="60.6" x="1437.4621" y="828.273">registrationDate</text><rect fill="none" height="3.6" style="stroke:#C82930;stroke-width:0.6;" width="3.6" x="1430.2621" y="835.0676"/><text fill="#000000" font-family="sans-serif" font-size="8.4" lengthAdjust="spacing" textLength="58.2" x="1437.4621" y="839.4457">acquisitionDate</text><rect fill="none" height="3.6" style="stroke:#C82930;stroke-width:0.6;" width="3.6" x="1430.2621" y="846.2402"/><text fill="#000000" font-family="sans-serif" font-size="8.4" lengthAdjust="spacing" textLength="89.4" x="1437.4621" y="850.6184">maintenanceFrequency</text></g><!--class Machines--><g id="elem_Machines"><rect codeLine="99" fill="#F1F1F1" height="33.1453" id="Machines" rx="1.5" ry="1.5" style="stroke:#181818;stroke-width:0.3;" width="57" x="1263.4621" y="777.3"/><text fill="#000000" font-family="sans-serif" font-size="8.4" lengthAdjust="spacing" textLength="36" x="1273.9621" y="789.3645">Machines</text><line style="stroke:#181818;stroke-width:0.3;" x1="1264.0621" x2="1319.8621" y1="794.4727" y2="794.4727"/><rect fill="none" height="3.6" style="stroke:#C82930;stroke-width:0.6;" width="3.6" x="1268.2621" y="801.559"/><text fill="#000000" font-family="sans-serif" font-size="8.4" lengthAdjust="spacing" textLength="41.4" x="1275.4621" y="805.9371">description</text></g><!--class GSU--><g id="elem_GSU"><rect codeLine="103" fill="#F1F1F1" height="17.1727" id="GSU" rx="1.5" ry="1.5" style="stroke:#181818;stroke-width:0.3;" width="21" x="830.2621" y="501.6"/><text fill="#000000" font-family="sans-serif" font-size="8.4" lengthAdjust="spacing" textLength="17.4" x="832.0621" y="513.6645">GSU</text></g><!--class Portal--><g id="elem_Portal"><rect codeLine="106" fill="#F1F1F1" height="17.1727" id="Portal" rx="1.5" ry="1.5" style="stroke:#181818;stroke-width:0.3;" width="25.8" x="572.2621" y="501.6"/><text fill="#000000" font-family="sans-serif" font-size="8.4" lengthAdjust="spacing" textLength="22.2" x="574.0621" y="513.6645">Portal</text></g><!--class Faults--><g id="elem_Faults"><rect codeLine="109" fill="#F1F1F1" height="44.318" id="Faults" rx="1.5" ry="1.5" style="stroke:#181818;stroke-width:0.3;" width="66" x="796.3621" y="603.6"/><text fill="#000000" font-family="sans-serif" font-size="8.4" lengthAdjust="spacing" textLength="23.4" x="817.6621" y="615.6645">Faults</text><line style="stroke:#181818;stroke-width:0.3;" x1="796.9621" x2="861.7621" y1="620.7727" y2="620.7727"/><rect fill="none" height="3.6" style="stroke:#C82930;stroke-width:0.6;" width="3.6" x="801.1621" y="627.859"/><text fill="#000000" font-family="sans-serif" font-size="8.4" lengthAdjust="spacing" textLength="41.4" x="808.3621" y="632.2371">description</text><rect fill="none" height="3.6" style="stroke:#C82930;stroke-width:0.6;" width="3.6" x="801.1621" y="639.0316"/><text fill="#000000" font-family="sans-serif" font-size="8.4" lengthAdjust="spacing" textLength="50.4" x="808.3621" y="643.4098">reportedDate</text></g><!--class Comments--><g id="elem_Comments"><rect codeLine="114" fill="#F1F1F1" height="17.1727" id="Comments" rx="1.5" ry="1.5" style="stroke:#181818;stroke-width:0.3;" width="43.8" x="650.8621" y="617.1"/><text fill="#000000" font-family="sans-serif" font-size="8.4" lengthAdjust="spacing" textLength="40.2" x="652.6621" y="629.1645">Comments</text></g><!--link Organization to Employee--><g id="link_Organization_Employee"><path codeLine="118" d="M811.3621,70.854 C811.3621,101.514 811.3621,145.2 811.3621,163.14 " fill="none" id="Organization-Employee" style="stroke:#181818;stroke-width:0.6;"/><polygon fill="#000000" points="814.3621,116.1873,816.1254,110.7603,812.5987,110.7603,814.3621,116.1873" style="stroke:#000000;stroke-width:0.6;"/><text fill="#000000" font-family="sans-serif" font-size="7.8" lengthAdjust="spacing" textLength="29.4" x="819.7621" y="116.417">employs</text><text fill="#000000" font-family="sans-serif" font-size="7.8" lengthAdjust="spacing" textLength="4.2" x="806.9062" y="83.9644">1</text><text fill="#000000" font-family="sans-serif" font-size="7.8" lengthAdjust="spacing" textLength="12" x="797.2246" y="156.491">1..*</text></g><!--link Employee to TeamMember--><g id="link_Employee_TeamMember"><path codeLine="120" d="M790.8661,173.946 C699.1321,180.414 330.7621,206.4 330.7621,206.4 C330.7621,206.4 309.1621,225 309.1621,225 C309.1621,225 296.4181,248.808 283.5181,272.892 " fill="none" id="Employee-TeamMember" style="stroke:#181818;stroke-width:0.6;"/><polygon fill="#000000" points="315.1066,230.213,309.4424,229.5211,310.1175,232.9826,315.1066,230.213" style="stroke:#000000;stroke-width:0.6;"/><text fill="#000000" font-family="sans-serif" font-size="7.8" lengthAdjust="spacing" textLength="12.6" x="317.5621" y="234.017">is a</text><text fill="#000000" font-family="sans-serif" font-size="7.8" lengthAdjust="spacing" textLength="4.2" x="782.0057" y="171.5746">1</text><text fill="#000000" font-family="sans-serif" font-size="7.8" lengthAdjust="spacing" textLength="4.2" x="281.4962" y="266.1917">1</text></g><!--link Employee to Tasks--><g id="link_Employee_Tasks"><path codeLine="121" d="M831.9481,175.974 C905.7601,188.424 1152.7621,230.1 1152.7621,230.1 C1152.7621,230.1 1152.7621,230.1 1152.7621,561.9 C1152.7621,561.9 1126.1941,585.258 1105.3381,603.594 " fill="none" id="Employee-Tasks" style="stroke:#181818;stroke-width:0.6;"/><polygon fill="#000000" points="1157.378,461.9149,1155.9404,456.3926,1152.9691,458.2923,1157.378,461.9149" style="stroke:#000000;stroke-width:0.6;"/><text fill="#000000" font-family="sans-serif" font-size="7.8" lengthAdjust="spacing" textLength="31.8" x="1161.1621" y="462.617">manages</text><text fill="#000000" font-family="sans-serif" font-size="7.8" lengthAdjust="spacing" textLength="4.2" x="836.6271" y="186.3246">1</text><text fill="#000000" font-family="sans-serif" font-size="7.8" lengthAdjust="spacing" textLength="12" x="1096.763" y="596.8001">0..*</text></g><!--link Employee to HRM--><g id="link_Employee_HRM"><path codeLine="122" d="M790.9321,175.032 C701.1841,186.15 346.3621,230.1 346.3621,230.1 C346.3621,230.1 346.3621,230.1 346.3621,459.9 C346.3621,459.9 220.9081,495.684 182.6821,506.586 " fill="none" id="Employee-HRM" style="stroke:#181818;stroke-width:0.6;"/><polygon fill="#000000" points="351.9962,321.7515,346.3871,322.8006,348.075,325.8972,351.9962,321.7515" style="stroke:#000000;stroke-width:0.6;"/><text fill="#000000" font-family="sans-serif" font-size="7.8" lengthAdjust="spacing" textLength="12.6" x="354.7621" y="326.417">is a</text><text fill="#000000" font-family="sans-serif" font-size="7.8" lengthAdjust="spacing" textLength="4.2" x="782.0853" y="185.1883">1</text><text fill="#000000" font-family="sans-serif" font-size="7.8" lengthAdjust="spacing" textLength="12" x="187.4408" y="502.3806">1..*</text></g><!--link Employee to GSM--><g id="link_Employee_GSM"><path codeLine="123" d="M803.4121,180.78 C778.2361,207.006 700.4281,288.06 675.2821,314.25 " fill="none" id="Employee-GSM" style="stroke:#181818;stroke-width:0.6;"/><polygon fill="#000000" points="766.0397,228.6231,761.0092,231.317,763.5534,233.7593,766.0397,228.6231" style="stroke:#000000;stroke-width:0.6;"/><text fill="#000000" font-family="sans-serif" font-size="7.8" lengthAdjust="spacing" textLength="12.6" x="769.3621" y="234.017">is a</text><text fill="#000000" font-family="sans-serif" font-size="7.8" lengthAdjust="spacing" textLength="4.2" x="796.1343" y="193.5399">1</text><text fill="#000000" font-family="sans-serif" font-size="7.8" lengthAdjust="spacing" textLength="12" x="663.9661" y="307.5689">1..*</text></g><!--link Employee to VFM--><g id="link_Employee_VFM"><path codeLine="124" d="M831.7801,174.738 C928.5541,185.358 1336.3621,230.1 1336.3621,230.1 C1336.3621,230.1 1336.3621,230.1 1336.3621,561.9 C1336.3621,561.9 1366.5121,599.766 1380.1741,616.926 " fill="none" id="Employee-VFM" style="stroke:#181818;stroke-width:0.6;"/><polygon fill="#000000" points="1337.0267,457.5042,1340.1446,462.2835,1342.3583,459.5381,1337.0267,457.5042" style="stroke:#000000;stroke-width:0.6;"/><text fill="#000000" font-family="sans-serif" font-size="7.8" lengthAdjust="spacing" textLength="12.6" x="1344.7621" y="462.617">is a</text><text fill="#000000" font-family="sans-serif" font-size="7.8" lengthAdjust="spacing" textLength="4.2" x="836.4244" y="172.5299">1</text><text fill="#000000" font-family="sans-serif" font-size="7.8" lengthAdjust="spacing" textLength="12" x="1363.847" y="610.4085">1..*</text></g><!--link Employee to Teams--><g id="link_Employee_Teams"><path codeLine="125" d="M818.6341,180.774 C848.0101,214.194 958.5121,339.924 1003.4161,391.014 " fill="none" id="Employee-Teams" style="stroke:#181818;stroke-width:0.6;"/><polygon fill="#000000" points="871.5426,233.0407,869.2843,227.8002,866.6353,230.1284,871.5426,233.0407" style="stroke:#000000;stroke-width:0.6;"/><text fill="#000000" font-family="sans-serif" font-size="7.8" lengthAdjust="spacing" textLength="31.8" x="874.9621" y="234.017">manages</text><text fill="#000000" font-family="sans-serif" font-size="7.8" lengthAdjust="spacing" textLength="4.2" x="816.018" y="193.5321">1</text><text fill="#000000" font-family="sans-serif" font-size="7.8" lengthAdjust="spacing" textLength="12" x="986.937" y="384.3579">0..*</text></g><!--link TeamMember to HRM--><g id="link_TeamMember_HRM"><path codeLine="127" d="M234.2401,373.302 C213.8341,417.852 185.5801,479.538 175.5121,501.516 " fill="none" id="TeamMember-HRM" style="stroke:#181818;stroke-width:0.6;"/><polygon fill="#000000" points="199.3128,462.1148,203.176,457.915,199.9696,456.4464,199.3128,462.1148" style="stroke:#000000;stroke-width:0.6;"/><text fill="#000000" font-family="sans-serif" font-size="7.8" lengthAdjust="spacing" textLength="42.6" x="205.9621" y="462.617">managed by</text><text fill="#000000" font-family="sans-serif" font-size="7.8" lengthAdjust="spacing" textLength="12" x="219.7718" y="386.4798">1..*</text><text fill="#000000" font-family="sans-serif" font-size="7.8" lengthAdjust="spacing" textLength="12" x="162.7105" y="494.8584">1..*</text></g><!--link Skills to HRM--><g id="link_Skills_HRM"><path codeLine="129" d="M164.1721,188.544 C155.4721,205.59 142.9621,230.1 142.9621,230.1 C142.9621,230.1 142.9621,230.1 142.9621,459.9 C142.9621,459.9 158.8261,487.332 167.0041,501.474 " fill="none" id="Skills-HRM" style="stroke:#181818;stroke-width:0.6;"/><polygon fill="#000000" points="145.9892,326.1872,147.7034,320.7444,144.1768,320.7763,145.9892,326.1872" style="stroke:#000000;stroke-width:0.6;"/><text fill="#000000" font-family="sans-serif" font-size="7.8" lengthAdjust="spacing" textLength="36.6" x="151.3621" y="326.417">created by</text><text fill="#000000" font-family="sans-serif" font-size="7.8" lengthAdjust="spacing" textLength="12" x="149.068" y="201.7207">1..*</text><text fill="#000000" font-family="sans-serif" font-size="7.8" lengthAdjust="spacing" textLength="12" x="151.1716" y="494.8015">1..*</text></g><!--link Job to HRM--><g id="link_Job_HRM"><path codeLine="130" d="M28.2061,188.544 C20.3941,205.59 9.1621,230.1 9.1621,230.1 C9.1621,230.1 9.1621,230.1 9.1621,459.9 C9.1621,459.9 124.3861,495.192 160.8421,506.358 " fill="none" id="Job-HRM" style="stroke:#181818;stroke-width:0.6;"/><polygon fill="#000000" points="13.3175,325.9559,12.8546,320.2683,9.6,321.6266,13.3175,325.9559" style="stroke:#000000;stroke-width:0.6;"/><text fill="#000000" font-family="sans-serif" font-size="7.8" lengthAdjust="spacing" textLength="36.6" x="17.5621" y="326.417">created by</text><text fill="#000000" font-family="sans-serif" font-size="7.8" lengthAdjust="spacing" textLength="12" x="13.2845" y="201.7207">1..*</text><text fill="#000000" font-family="sans-serif" font-size="7.8" lengthAdjust="spacing" textLength="12" x="144.0833" y="502.0885">1..*</text></g><!--link Job to TeamMember--><g id="link_Job_TeamMember"><path codeLine="131" d="M53.9701,184.224 C95.5981,210.738 193.3621,273 193.3621,273 C193.3621,273 200.3761,278.46 209.7421,285.75 " fill="none" id="Job-TeamMember" style="stroke:#181818;stroke-width:0.6;"/><polygon fill="#000000" points="141.2754,232.4254,137.6916,227.9848,135.7659,230.9394,141.2754,232.4254" style="stroke:#000000;stroke-width:0.6;"/><text fill="#000000" font-family="sans-serif" font-size="7.8" lengthAdjust="spacing" textLength="40.2" x="144.1621" y="234.017">assigned to</text><text fill="#000000" font-family="sans-serif" font-size="7.8" lengthAdjust="spacing" textLength="4.2" x="58.7126" y="184.1149">1</text><text fill="#000000" font-family="sans-serif" font-size="7.8" lengthAdjust="spacing" textLength="4.2" x="200.8413" y="279.9302">1</text></g><!--link Skills to TeamMember--><g id="link_Skills_TeamMember"><path codeLine="132" d="M181.4161,188.55 C192.6901,208.542 212.4781,243.624 228.9721,272.874 " fill="none" id="Skills-TeamMember" style="stroke:#181818;stroke-width:0.6;"/><polygon fill="#000000" points="212.8358,233.4004,211.7058,227.8071,208.6339,229.5395,212.8358,233.4004" style="stroke:#000000;stroke-width:0.6;"/><text fill="#000000" font-family="sans-serif" font-size="7.8" lengthAdjust="spacing" textLength="40.2" x="216.7621" y="234.017">assigned to</text><text fill="#000000" font-family="sans-serif" font-size="7.8" lengthAdjust="spacing" textLength="12" x="170.0842" y="201.728">0..*</text><text fill="#000000" font-family="sans-serif" font-size="7.8" lengthAdjust="spacing" textLength="4.2" x="222.0922" y="266.1721">1</text></g><!--link Teams to Tasks--><g id="link_Teams_Tasks"><path codeLine="135" d="M1037.9941,435.642 C1052.4241,455.88 1071.7621,483 1071.7621,483 C1071.7621,483 1071.7621,483 1071.7621,561.9 C1071.7621,561.9 1075.0801,585.258 1077.6901,603.594 " fill="none" id="Teams-Tasks" style="stroke:#181818;stroke-width:0.6;"/><polygon fill="#000000" points="1075.4521,513.3069,1075.9199,507.6197,1072.4878,508.4309,1075.4521,513.3069" style="stroke:#000000;stroke-width:0.6;"/><text fill="#000000" font-family="sans-serif" font-size="7.8" lengthAdjust="spacing" textLength="40.2" x="1080.1621" y="513.617">assigned to</text><text fill="#000000" font-family="sans-serif" font-size="7.8" lengthAdjust="spacing" textLength="4.2" x="1036.0855" y="448.7805">1</text><text fill="#000000" font-family="sans-serif" font-size="7.8" lengthAdjust="spacing" textLength="12" x="1064.0174" y="596.8001">0..*</text></g><!--link Tasks to GreenSpaces--><g id="link_Tasks_GreenSpaces"><path codeLine="136" d="M1063.0981,648.036 C1035.3841,681.972 982.3261,746.952 957.7081,777.102 " fill="none" id="Tasks-GreenSpaces" style="stroke:#181818;stroke-width:0.6;"/><polygon fill="#000000" points="1033.8646,692.711,1038.663,689.6227,1035.9313,687.3921,1033.8646,692.711" style="stroke:#000000;stroke-width:0.6;"/><text fill="#000000" font-family="sans-serif" font-size="7.8" lengthAdjust="spacing" textLength="32.4" x="1041.1621" y="693.617">relates to</text><text fill="#000000" font-family="sans-serif" font-size="7.8" lengthAdjust="spacing" textLength="12" x="1047.0308" y="661.1734">1..*</text><text fill="#000000" font-family="sans-serif" font-size="7.8" lengthAdjust="spacing" textLength="12" x="947.2713" y="770.5539">1..*</text></g><!--link Agenda to Tasks--><g id="link_Agenda_Tasks"><path codeLine="137" d="M936.5401,519.12 C960.3061,536.598 1016.5261,577.956 1051.3381,603.558 " fill="none" id="Agenda-Tasks" style="stroke:#181818;stroke-width:0.6;"/><polygon fill="#000000" points="1006.3788,563.1649,1003.0518,558.5288,1000.9621,561.3697,1006.3788,563.1649" style="stroke:#000000;stroke-width:0.6;"/><text fill="#000000" font-family="sans-serif" font-size="7.8" lengthAdjust="spacing" textLength="33.6" x="1009.3621" y="564.617">organizes</text><text fill="#000000" font-family="sans-serif" font-size="7.8" lengthAdjust="spacing" textLength="4.2" x="935.2337" y="532.0381">1</text><text fill="#000000" font-family="sans-serif" font-size="7.8" lengthAdjust="spacing" textLength="12" x="1032.8068" y="596.7575">1..*</text></g><!--link GSM to Portal--><g id="link_GSM_Portal"><path codeLine="139" d="M663.7261,331.932 C650.1121,362.724 602.2981,470.928 588.7561,501.564 " fill="none" id="GSM-Portal" style="stroke:#181818;stroke-width:0.6;"/><polygon fill="#000000" points="612.1494,462.1313,615.9561,457.8802,612.7303,456.4546,612.1494,462.1313" style="stroke:#000000;stroke-width:0.6;"/><text fill="#000000" font-family="sans-serif" font-size="7.8" lengthAdjust="spacing" textLength="31.8" x="618.7621" y="462.617">manages</text><text fill="#000000" font-family="sans-serif" font-size="7.8" lengthAdjust="spacing" textLength="4.2" x="657.6977" y="344.8539">1</text><text fill="#000000" font-family="sans-serif" font-size="7.8" lengthAdjust="spacing" textLength="4.2" x="585.0883" y="494.9235">1</text></g><!--link GSM to Agenda--><g id="link_GSM_Agenda"><path codeLine="140" d="M678.6121,331.812 C721.0921,362.436 871.4701,470.85 914.0521,501.546 " fill="none" id="GSM-Agenda" style="stroke:#181818;stroke-width:0.6;"/><polygon fill="#000000" points="868.3956,461.1417,865.0245,456.5376,862.9621,459.3984,868.3956,461.1417" style="stroke:#000000;stroke-width:0.6;"/><text fill="#000000" font-family="sans-serif" font-size="7.8" lengthAdjust="spacing" textLength="31.8" x="871.3621" y="462.617">manages</text><text fill="#000000" font-family="sans-serif" font-size="7.8" lengthAdjust="spacing" textLength="4.2" x="677.443" y="344.8708">1</text><text fill="#000000" font-family="sans-serif" font-size="7.8" lengthAdjust="spacing" textLength="4.2" x="905.0748" y="494.8991">1</text></g><!--link GSM to GreenSpaces--><g id="link_GSM_GreenSpaces"><path codeLine="141" d="M656.1061,329.16 C604.0201,354.414 388.9621,458.7 388.9621,458.7 C388.9621,458.7 388.9621,458.7 388.9621,690.9 C388.9621,690.9 803.9641,767.31 916.6261,788.058 " fill="none" id="GSM-GreenSpaces" style="stroke:#181818;stroke-width:0.6;"/><polygon fill="#000000" points="393.4432,563.9962,392.2973,558.4061,389.2304,560.1472,393.4432,563.9962" style="stroke:#000000;stroke-width:0.6;"/><text fill="#000000" font-family="sans-serif" font-size="7.8" lengthAdjust="spacing" textLength="31.8" x="397.3621" y="564.617">manages</text><text fill="#000000" font-family="sans-serif" font-size="7.8" lengthAdjust="spacing" textLength="4.2" x="647.315" y="327.7761">1</text><text fill="#000000" font-family="sans-serif" font-size="7.8" lengthAdjust="spacing" textLength="12" x="899.8538" y="784.7524">1..*</text></g><!--link VFM to Vehicles--><g id="link_VFM_Vehicles"><path codeLine="143" d="M1397.3641,632.76 C1416.0241,643.956 1452.7621,666 1452.7621,666 C1452.7621,666 1482.7621,684.6 1482.7621,684.6 C1482.7621,684.6 1482.7621,696 1482.7621,696 C1482.7621,696 1481.9341,712.824 1480.9621,732.468 " fill="none" id="VFM-Vehicles" style="stroke:#181818;stroke-width:0.6;"/><polygon fill="#000000" points="1487.6895,692.6862,1485.554,687.3945,1482.8515,689.6604,1487.6895,692.6862" style="stroke:#000000;stroke-width:0.6;"/><text fill="#000000" font-family="sans-serif" font-size="7.8" lengthAdjust="spacing" textLength="31.8" x="1491.1621" y="693.617">manages</text><text fill="#000000" font-family="sans-serif" font-size="7.8" lengthAdjust="spacing" textLength="12" x="1402.0334" y="631.5566">1..*</text><text fill="#000000" font-family="sans-serif" font-size="7.8" lengthAdjust="spacing" textLength="12" x="1468.7418" y="725.8082">1..*</text></g><!--link VFM to Machines--><g id="link_VFM_Machines"><path codeLine="144" d="M1388.6521,634.74 C1392.3061,650.832 1399.9621,684.6 1399.9621,684.6 C1399.9621,684.6 1399.9621,696 1399.9621,696 C1399.9621,696 1340.4721,749.544 1309.7941,777.15 " fill="none" id="VFM-Machines" style="stroke:#181818;stroke-width:0.6;"/><polygon fill="#000000" points="1401.5088,693.0118,1405.6805,689.1183,1402.5952,687.4098,1401.5088,693.0118" style="stroke:#000000;stroke-width:0.6;"/><text fill="#000000" font-family="sans-serif" font-size="7.8" lengthAdjust="spacing" textLength="31.8" x="1408.3621" y="693.617">manages</text><text fill="#000000" font-family="sans-serif" font-size="7.8" lengthAdjust="spacing" textLength="12" x="1375.3934" y="647.5183">1..*</text><text fill="#000000" font-family="sans-serif" font-size="7.8" lengthAdjust="spacing" textLength="12" x="1300.3823" y="770.6124">1..*</text></g><!--link VFM to Equipment--><g id="link_VFM_Equipment"><path codeLine="145" d="M1376.0701,632.196 C1348.9081,646.914 1279.3621,684.6 1279.3621,684.6 C1279.3621,684.6 1217.6821,746.964 1187.8081,777.174 " fill="none" id="VFM-Equipment" style="stroke:#181818;stroke-width:0.6;"/><polygon fill="#000000" points="1279.9852,692.2177,1285.3609,690.3036,1283.2091,687.5094,1279.9852,692.2177" style="stroke:#000000;stroke-width:0.6;"/><text fill="#000000" font-family="sans-serif" font-size="7.8" lengthAdjust="spacing" textLength="31.8" x="1287.7621" y="693.617">manages</text><text fill="#000000" font-family="sans-serif" font-size="7.8" lengthAdjust="spacing" textLength="12" x="1359.3755" y="630.834">1..*</text><text fill="#000000" font-family="sans-serif" font-size="7.8" lengthAdjust="spacing" textLength="12" x="1177.9619" y="770.6416">1..*</text></g><!--link Tasks to Vehicles--><g id="link_Tasks_Vehicles"><path codeLine="147" d="M1113.8761,634.368 C1180.0981,650.31 1322.5621,684.6 1322.5621,684.6 C1322.5621,684.6 1380.2701,724.926 1425.3481,756.432 " fill="none" id="Tasks-Vehicles" style="stroke:#181818;stroke-width:0.6;"/><polygon fill="#000000" points="1338.3689,689.2927,1342.7784,692.9147,1344.0652,689.6311,1338.3689,689.2927" style="stroke:#000000;stroke-width:0.6;"/><text fill="#000000" font-family="sans-serif" font-size="7.8" lengthAdjust="spacing" textLength="40.2" x="1346.5621" y="693.617">assigned to</text><text fill="#000000" font-family="sans-serif" font-size="7.8" lengthAdjust="spacing" textLength="4.2" x="1118.608" y="633.0682">1</text><text fill="#000000" font-family="sans-serif" font-size="7.8" lengthAdjust="spacing" textLength="12" x="1408.6773" y="751.2667">0..*</text></g><!--link Tasks to Machines--><g id="link_Tasks_Machines"><path codeLine="148" d="M1108.1581,648.036 C1151.1241,681.972 1233.4021,746.952 1271.5741,777.102 " fill="none" id="Tasks-Machines" style="stroke:#181818;stroke-width:0.6;"/><polygon fill="#000000" points="1169.0078,688.5279,1172.1738,693.2754,1174.3597,690.5078,1169.0078,688.5279" style="stroke:#000000;stroke-width:0.6;"/><text fill="#000000" font-family="sans-serif" font-size="7.8" lengthAdjust="spacing" textLength="40.2" x="1176.7621" y="693.617">assigned to</text><text fill="#000000" font-family="sans-serif" font-size="7.8" lengthAdjust="spacing" textLength="4.2" x="1108.3058" y="661.1734">1</text><text fill="#000000" font-family="sans-serif" font-size="7.8" lengthAdjust="spacing" textLength="12" x="1253.8017" y="770.5539">0..*</text></g><!--link Tasks to Equipment--><g id="link_Tasks_Equipment"><path codeLine="149" d="M1085.7961,648.042 C1090.5541,668.472 1096.9621,696 1096.9621,696 C1096.9621,696 1138.2781,749.544 1159.5781,777.15 " fill="none" id="Tasks-Equipment" style="stroke:#181818;stroke-width:0.6;"/><polygon fill="#000000" points="1098.4736,687.7826,1099.6353,693.3695,1102.6973,691.6196,1098.4736,687.7826" style="stroke:#000000;stroke-width:0.6;"/><text fill="#000000" font-family="sans-serif" font-size="7.8" lengthAdjust="spacing" textLength="40.2" x="1105.3621" y="693.617">assigned to</text><text fill="#000000" font-family="sans-serif" font-size="7.8" lengthAdjust="spacing" textLength="4.2" x="1082.1004" y="661.1805">1</text><text fill="#000000" font-family="sans-serif" font-size="7.8" lengthAdjust="spacing" textLength="12" x="1143.5566" y="770.6124">0..*</text></g><!--link Portal to Malfunctions--><g id="link_Portal_Malfunctions"><path codeLine="151" d="M572.2561,516.834 C545.8141,528.996 487.9621,555.6 487.9621,555.6 C487.9621,555.6 487.9621,567 487.9621,567 C487.9621,567 511.2421,586.98 530.5141,603.528 " fill="none" id="Portal-Malfunctions" style="stroke:#181818;stroke-width:0.6;"/><polygon fill="#000000" points="489.6606,564.0903,493.6038,559.9655,490.4262,558.4356,489.6606,564.0903" style="stroke:#000000;stroke-width:0.6;"/><text fill="#000000" font-family="sans-serif" font-size="7.8" lengthAdjust="spacing" textLength="38.4" x="496.3621" y="564.617">aggregates</text><text fill="#000000" font-family="sans-serif" font-size="7.8" lengthAdjust="spacing" textLength="4.2" x="563.2729" y="515.5721">1</text><text fill="#000000" font-family="sans-serif" font-size="7.8" lengthAdjust="spacing" textLength="12" x="512.948" y="596.8922">0..*</text></g><!--link Portal to Faults--><g id="link_Portal_Faults"><path codeLine="152" d="M598.1161,516.966 C635.0461,534.246 741.6721,584.154 796.2781,609.714 " fill="none" id="Portal-Faults" style="stroke:#181818;stroke-width:0.6;"/><polygon fill="#000000" points="710.2792,562.659,706.1114,558.7614,704.6164,561.9555,710.2792,562.659" style="stroke:#000000;stroke-width:0.6;"/><text fill="#000000" font-family="sans-serif" font-size="7.8" lengthAdjust="spacing" textLength="38.4" x="712.9621" y="564.617">aggregates</text><text fill="#000000" font-family="sans-serif" font-size="7.8" lengthAdjust="spacing" textLength="4.2" x="602.9146" y="515.7462">1</text><text fill="#000000" font-family="sans-serif" font-size="7.8" lengthAdjust="spacing" textLength="12" x="779.5147" y="605.3646">0..*</text></g><!--link Portal to Comments--><g id="link_Portal_Comments"><path codeLine="153" d="M583.7341,519.096 C581.4781,532.002 577.3621,555.6 577.3621,555.6 C577.3621,555.6 577.3621,567 577.3621,567 C577.3621,567 633.0001,600.942 659.2981,616.986 " fill="none" id="Portal-Comments" style="stroke:#181818;stroke-width:0.6;"/><polygon fill="#000000" points="582.1952,563.7621,580.2749,558.3886,577.4832,560.5436,582.1952,563.7621" style="stroke:#000000;stroke-width:0.6;"/><text fill="#000000" font-family="sans-serif" font-size="7.8" lengthAdjust="spacing" textLength="28.2" x="585.7621" y="564.617">receives</text><text fill="#000000" font-family="sans-serif" font-size="7.8" lengthAdjust="spacing" textLength="4.2" x="578.4095" y="532.0064">1</text><text fill="#000000" font-family="sans-serif" font-size="7.8" lengthAdjust="spacing" textLength="12" x="640.364" y="610.3177">0..*</text></g><!--link GSU to GreenSpaces--><g id="link_GSU_GreenSpaces"><path codeLine="155" d="M851.2861,515.952 C877.6741,528.612 944.5621,560.7 944.5621,560.7 C944.5621,560.7 944.5621,560.7 944.5621,690.9 C944.5621,690.9 944.5621,748.446 944.5621,777.216 " fill="none" id="GSU-GreenSpaces" style="stroke:#181818;stroke-width:0.6;"/><polygon fill="#000000" points="948.5708,628.7126,948.4067,623.0087,945.0853,624.1945,948.5708,628.7126" style="stroke:#000000;stroke-width:0.6;"/><text fill="#000000" font-family="sans-serif" font-size="7.8" lengthAdjust="spacing" textLength="16.8" x="952.9621" y="629.117">uses</text><text fill="#000000" font-family="sans-serif" font-size="7.8" lengthAdjust="spacing" textLength="12" x="856.14" y="514.3902">1..*</text><text fill="#000000" font-family="sans-serif" font-size="7.8" lengthAdjust="spacing" textLength="12" x="931.1746" y="770.422">1..*</text></g><!--link GSU to Malfunctions--><g id="link_GSU_Malfunctions"><path codeLine="156" d="M830.1481,513.306 C789.1441,522.588 643.3621,555.6 643.3621,555.6 C643.3621,555.6 608.7121,583.128 582.9961,603.558 " fill="none" id="GSU-Malfunctions" style="stroke:#181818;stroke-width:0.6;"/><polygon fill="#000000" points="643.5441,562.4163,649.2467,562.2112,648.037,558.8984,643.5441,562.4163" style="stroke:#000000;stroke-width:0.6;"/><text fill="#000000" font-family="sans-serif" font-size="7.8" lengthAdjust="spacing" textLength="24" x="651.7621" y="564.617">reports</text><text fill="#000000" font-family="sans-serif" font-size="7.8" lengthAdjust="spacing" textLength="12" x="813.4754" y="510.9906">1..*</text><text fill="#000000" font-family="sans-serif" font-size="7.8" lengthAdjust="spacing" textLength="12" x="574.9111" y="596.7575">0..*</text></g><!--link GSU to Faults--><g id="link_GSU_Faults"><path codeLine="157" d="M841.0921,519.096 C841.6141,532.002 842.5621,555.6 842.5621,555.6 C842.5621,555.6 842.5621,567 842.5621,567 C842.5621,567 838.0321,586.98 834.2761,603.528 " fill="none" id="GSU-Faults" style="stroke:#181818;stroke-width:0.6;"/><polygon fill="#000000" points="845.3207,564.3776,847.515,559.11,843.9997,558.8262,845.3207,564.3776" style="stroke:#000000;stroke-width:0.6;"/><text fill="#000000" font-family="sans-serif" font-size="7.8" lengthAdjust="spacing" textLength="24" x="850.9621" y="564.617">reports</text><text fill="#000000" font-family="sans-serif" font-size="7.8" lengthAdjust="spacing" textLength="12" x="827.2848" y="532.0064">1..*</text><text fill="#000000" font-family="sans-serif" font-size="7.8" lengthAdjust="spacing" textLength="12" x="822.0826" y="596.8922">0..*</text></g><!--link GSU to Comments--><g id="link_GSU_Comments"><path codeLine="158" d="M830.1181,519.06 C809.8141,534.618 767.5621,567 767.5621,567 C767.5621,567 712.2781,600.942 686.1421,616.986 " fill="none" id="GSU-Comments" style="stroke:#181818;stroke-width:0.6;"/><polygon fill="#000000" points="783.0815,563.0745,788.5606,561.4804,786.5772,558.5643,783.0815,563.0745" style="stroke:#000000;stroke-width:0.6;"/><text fill="#000000" font-family="sans-serif" font-size="7.8" lengthAdjust="spacing" textLength="24" x="790.9621" y="564.617">reports</text><text fill="#000000" font-family="sans-serif" font-size="7.8" lengthAdjust="spacing" textLength="12" x="813.437" y="531.4316">1..*</text><text fill="#000000" font-family="sans-serif" font-size="7.8" lengthAdjust="spacing" textLength="12" x="676.7712" y="610.3177">0..*</text></g><!--link GreenSpaces to Garden--><g id="link_GreenSpaces_Garden"><path codeLine="160" d="M936.9301,810.516 C921.5641,842.958 887.3941,915.114 875.8561,939.48 " fill="none" id="GreenSpaces-Garden" style="stroke:#181818;stroke-width:0.6;"/><polygon fill="#000000" points="900.0781,900.0986,903.9946,895.9485,900.8072,894.4391,900.0781,900.0986" style="stroke:#000000;stroke-width:0.6;"/><text fill="#000000" font-family="sans-serif" font-size="7.8" lengthAdjust="spacing" textLength="12.6" x="906.7621" y="900.617">is a</text><text fill="#000000" font-family="sans-serif" font-size="7.8" lengthAdjust="spacing" textLength="15" x="918.62" y="823.7084">*1..*</text><text fill="#000000" font-family="sans-serif" font-size="7.8" lengthAdjust="spacing" textLength="14.4" x="860.2783" y="932.8096">1...*</text></g><!--link GreenSpaces to MediumSizedPark--><g id="link_GreenSpaces_MediumSizedPark"><path codeLine="161" d="M944.5621,810.516 C944.5621,842.958 944.5621,915.114 944.5621,939.48 " fill="none" id="GreenSpaces-MediumSizedPark" style="stroke:#181818;stroke-width:0.6;"/><polygon fill="#000000" points="947.5621,900.3873,949.3254,894.9603,945.7987,894.9603,947.5621,900.3873" style="stroke:#000000;stroke-width:0.6;"/><text fill="#000000" font-family="sans-serif" font-size="7.8" lengthAdjust="spacing" textLength="12.6" x="952.9621" y="900.617">is a</text><text fill="#000000" font-family="sans-serif" font-size="7.8" lengthAdjust="spacing" textLength="15" x="946.2027" y="823.7084">*1..*</text><text fill="#000000" font-family="sans-serif" font-size="7.8" lengthAdjust="spacing" textLength="14.4" x="927.5971" y="932.8096">1...*</text></g><!--link GreenSpaces to LargeSizedPark--><g id="link_GreenSpaces_LargeSizedPark"><path codeLine="162" d="M953.8321,810.516 C972.4981,842.958 1014.0121,915.114 1028.0341,939.48 " fill="none" id="GreenSpaces-LargeSizedPark" style="stroke:#181818;stroke-width:0.6;"/><polygon fill="#000000" points="1010.8582,899.9876,1009.6801,894.4042,1006.6233,896.163,1010.8582,899.9876" style="stroke:#000000;stroke-width:0.6;"/><text fill="#000000" font-family="sans-serif" font-size="7.8" lengthAdjust="spacing" textLength="12.6" x="1014.7621" y="900.617">is a</text><text fill="#000000" font-family="sans-serif" font-size="7.8" lengthAdjust="spacing" textLength="15" x="957.5005" y="823.7084">*1..*</text><text fill="#000000" font-family="sans-serif" font-size="7.8" lengthAdjust="spacing" textLength="14.4" x="1009.3847" y="932.8096">1...*</text></g><!--SRC=[ZLLBJzmm4BxxLrXxH0g2wmgjLB507soBkgMSlVQGM1lRmNOgBLN_U_rAueJ0Raxs-9kPRvwfE0Cim5QA6LJv2-MQrX3F81fxmCHQpNUj1OFCdik6Q29mpINOGmEuKVN1Nr3uQ4sCmJzqIIH_9POhYVyYxBv24W7nH1ZJO4oyD9MIIGw2y1hzwupSYAPM1m1de9Vz0Y8s87QWeza2TsOBlEFQLepOT2LCS6CyWLpMUoumLT8IQZ6NpofAlgmnKnJxi791Aq1QB5llTg3o-UScPtQt7Lr_tuwkNzKk44vyU_bsp-lQP4zu76l_r8gR6ZmFWuF01CNl00nOfaBClbEnxdpj8Y-LFaI1MgjxRkm0_rI2P2JW1-66rC-jfBvqdIa6XchUX6e6WOP6QGjixUndgdSQG6uRGY5fXamEpqGpa7bQDi1uAxRy5TW3qVlywPxe4l8N_zItnalBcr2L6O933Q3YhfMxA7QQI1Rv2yMWZiVGmobX6fw0bvMDzr8hOt81RRLsFhy9qsMXTEdKeSlNiSTSYr77pV1EblmHBYr88YdSQdXfGTB3AEMqSXDaFepcRlkOv-V15O3KkUIMjBKzgMI3phKIiQc27JIQsyNbeYYAnUNv-TbY6CQbNmhkQF0AeLxQOHVvX2unDvZWgpUmYs0oDElIvKQIqiM-mc_D1PmVj7TDHOWVlYCGFv3728M1onWXb4KJxKnfHIp3kuE7ft6UXr8DBlS9wXV2oR2tkLrYLprUIeUpok4wnnUznKabHd2COcHcfY1JB8hIATTyr9UkkMh7sKI5j5L6sUzCgzXWCRc-QaDmgQ7pz8y1oUvxW1bQMI5z-QSnzFiXHyu1-_ay1XpsqhYBKWgpN6U-ytHVpM4pzqUnEOCn6AK4JqndozvfbALRQg6KgrbysZ4d8FlDuhk30l_ZaB7eZqUQgJMfjZbmbcxSQU-1UwuVmqP4Eo3AAItEShw1SFoJfNsoEeAU_kLEL9ly0Nkj_m00]--></g></svg>