<?xml version="1.0" encoding="us-ascii" standalone="no"?><svg xmlns="http://www.w3.org/2000/svg" xmlns:xlink="http://www.w3.org/1999/xlink" contentStyleType="text/css" height="1395px" preserveAspectRatio="none" style="width:1974px;height:1395px;background:#FFFFFF;" version="1.1" viewBox="0 0 1974 1395" width="1974px" zoomAndPan="magnify"><defs/><g><!--class Organization--><g id="elem_Organization"><rect codeLine="11" fill="#F1F1F1" height="106.0469" id="Organization" rx="2.5" ry="2.5" style="stroke:#181818;stroke-width:0.5;" width="86" x="657.4097" y="7"/><text fill="#000000" font-family="sans-serif" font-size="14" lengthAdjust="spacing" textLength="80" x="660.4097" y="26.5332">Organization</text><line style="stroke:#181818;stroke-width:0.5;" x1="658.4097" x2="742.4097" y1="34.6094" y2="34.6094"/><rect fill="none" height="6" style="stroke:#C82930;stroke-width:1.0;" width="6" x="665.4097" y="45.9141"/><text fill="#000000" font-family="sans-serif" font-size="14" lengthAdjust="spacing" textLength="35" x="677.4097" y="53.1426">name</text><rect fill="none" height="6" style="stroke:#C82930;stroke-width:1.0;" width="6" x="665.4097" y="63.5234"/><text fill="#000000" font-family="sans-serif" font-size="14" lengthAdjust="spacing" textLength="51" x="677.4097" y="70.752">address</text><rect fill="none" height="6" style="stroke:#C82930;stroke-width:1.0;" width="6" x="665.4097" y="81.1328"/><text fill="#000000" font-family="sans-serif" font-size="14" lengthAdjust="spacing" textLength="40" x="677.4097" y="88.3613">phone</text><rect fill="none" height="6" style="stroke:#C82930;stroke-width:1.0;" width="6" x="665.4097" y="98.7422"/><text fill="#000000" font-family="sans-serif" font-size="14" lengthAdjust="spacing" textLength="33" x="677.4097" y="105.9707">email</text></g><!--class Employee--><g id="elem_Employee"><rect codeLine="18" fill="#F1F1F1" height="27.6094" id="Employee" rx="2.5" ry="2.5" style="stroke:#181818;stroke-width:0.5;" width="68" x="666.4097" y="265.5"/><text fill="#000000" font-family="sans-serif" font-size="14" lengthAdjust="spacing" textLength="62" x="669.4097" y="285.0332">Employee</text></g><!--class TeamMember--><g id="elem_TeamMember"><rect codeLine="21" fill="#F1F1F1" height="158.875" id="TeamMember" rx="2.5" ry="2.5" style="stroke:#181818;stroke-width:0.5;" width="157" x="162.9097" y="446"/><text fill="#000000" font-family="sans-serif" font-size="14" lengthAdjust="spacing" textLength="87" x="197.9097" y="465.5332">TeamMember</text><line style="stroke:#181818;stroke-width:0.5;" x1="163.9097" x2="318.9097" y1="473.6094" y2="473.6094"/><rect fill="none" height="6" style="stroke:#C82930;stroke-width:1.0;" width="6" x="170.9097" y="484.9141"/><text fill="#000000" font-family="sans-serif" font-size="14" lengthAdjust="spacing" textLength="35" x="182.9097" y="492.1426">name</text><rect fill="none" height="6" style="stroke:#C82930;stroke-width:1.0;" width="6" x="170.9097" y="502.5234"/><text fill="#000000" font-family="sans-serif" font-size="14" lengthAdjust="spacing" textLength="56" x="182.9097" y="509.752">birthdate</text><rect fill="none" height="6" style="stroke:#C82930;stroke-width:1.0;" width="6" x="170.9097" y="520.1328"/><text fill="#000000" font-family="sans-serif" font-size="14" lengthAdjust="spacing" textLength="95" x="182.9097" y="527.3613">admission date</text><rect fill="none" height="6" style="stroke:#C82930;stroke-width:1.0;" width="6" x="170.9097" y="537.7422"/><text fill="#000000" font-family="sans-serif" font-size="14" lengthAdjust="spacing" textLength="51" x="182.9097" y="544.9707">address</text><rect fill="none" height="6" style="stroke:#C82930;stroke-width:1.0;" width="6" x="170.9097" y="555.3516"/><text fill="#000000" font-family="sans-serif" font-size="14" lengthAdjust="spacing" textLength="73" x="182.9097" y="562.5801">contact info</text><rect fill="none" height="6" style="stroke:#C82930;stroke-width:1.0;" width="6" x="170.9097" y="572.9609"/><text fill="#000000" font-family="sans-serif" font-size="14" lengthAdjust="spacing" textLength="71" x="182.9097" y="580.1895">ID doc type</text><rect fill="none" height="6" style="stroke:#C82930;stroke-width:1.0;" width="6" x="170.9097" y="590.5703"/><text fill="#000000" font-family="sans-serif" font-size="14" lengthAdjust="spacing" textLength="131" x="182.9097" y="597.7988">ID document number</text></g><!--class HRM--><g id="elem_HRM"><rect codeLine="31" fill="#F1F1F1" height="27.6094" id="HRM" rx="2.5" ry="2.5" style="stroke:#181818;stroke-width:0.5;" width="36" x="298.4097" y="815"/><text fill="#000000" font-family="sans-serif" font-size="14" lengthAdjust="spacing" textLength="30" x="301.4097" y="834.5332">HRM</text></g><!--class GSM--><g id="elem_GSM"><rect codeLine="34" fill="#F1F1F1" height="27.6094" id="GSM" rx="2.5" ry="2.5" style="stroke:#181818;stroke-width:0.5;" width="37" x="999.9097" y="511.5"/><text fill="#000000" font-family="sans-serif" font-size="14" lengthAdjust="spacing" textLength="31" x="1002.9097" y="531.0332">GSM</text></g><!--class VFM--><g id="elem_VFM"><rect codeLine="37" fill="#F1F1F1" height="27.6094" id="VFM" rx="2.5" ry="2.5" style="stroke:#181818;stroke-width:0.5;" width="35" x="498.9097" y="1004.5"/><text fill="#000000" font-family="sans-serif" font-size="14" lengthAdjust="spacing" textLength="29" x="501.9097" y="1024.0332">VFM</text></g><!--class Job--><g id="elem_Job"><rect codeLine="40" fill="#F1F1F1" height="53.2188" id="Job" rx="2.5" ry="2.5" style="stroke:#181818;stroke-width:0.5;" width="61" x="28.9097" y="253"/><text fill="#000000" font-family="sans-serif" font-size="14" lengthAdjust="spacing" textLength="22" x="48.4097" y="272.5332">Job</text><line style="stroke:#181818;stroke-width:0.5;" x1="29.9097" x2="88.9097" y1="280.6094" y2="280.6094"/><rect fill="none" height="6" style="stroke:#C82930;stroke-width:1.0;" width="6" x="36.9097" y="291.9141"/><text fill="#000000" font-family="sans-serif" font-size="14" lengthAdjust="spacing" textLength="35" x="48.9097" y="299.1426">name</text></g><!--class Skills--><g id="elem_Skills"><rect codeLine="44" fill="#F1F1F1" height="53.2188" id="Skills" rx="2.5" ry="2.5" style="stroke:#181818;stroke-width:0.5;" width="61" x="291.9097" y="253"/><text fill="#000000" font-family="sans-serif" font-size="14" lengthAdjust="spacing" textLength="32" x="306.4097" y="272.5332">Skills</text><line style="stroke:#181818;stroke-width:0.5;" x1="292.9097" x2="351.9097" y1="280.6094" y2="280.6094"/><rect fill="none" height="6" style="stroke:#C82930;stroke-width:1.0;" width="6" x="299.9097" y="291.9141"/><text fill="#000000" font-family="sans-serif" font-size="14" lengthAdjust="spacing" textLength="35" x="311.9097" y="299.1426">name</text></g><!--class Teams--><g id="elem_Teams"><rect codeLine="48" fill="#F1F1F1" height="70.8281" id="Teams" rx="2.5" ry="2.5" style="stroke:#181818;stroke-width:0.5;" width="111" x="689.9097" y="635"/><text fill="#000000" font-family="sans-serif" font-size="14" lengthAdjust="spacing" textLength="43" x="723.9097" y="654.5332">Teams</text><line style="stroke:#181818;stroke-width:0.5;" x1="690.9097" x2="799.9097" y1="662.6094" y2="662.6094"/><rect fill="none" height="6" style="stroke:#C82930;stroke-width:1.0;" width="6" x="697.9097" y="673.9141"/><text fill="#000000" font-family="sans-serif" font-size="14" lengthAdjust="spacing" textLength="85" x="709.9097" y="681.1426">numElements</text><rect fill="none" height="6" style="stroke:#C82930;stroke-width:1.0;" width="6" x="697.9097" y="691.5234"/><text fill="#000000" font-family="sans-serif" font-size="14" lengthAdjust="spacing" textLength="79" x="709.9097" y="698.752">skillsNeeded</text></g><!--class Tasks--><g id="elem_Tasks"><rect codeLine="53" fill="#F1F1F1" height="53.2188" id="Tasks" rx="2.5" ry="2.5" style="stroke:#181818;stroke-width:0.5;" width="110" x="825.4097" y="992"/><text fill="#000000" font-family="sans-serif" font-size="14" lengthAdjust="spacing" textLength="38" x="861.4097" y="1011.5332">Tasks</text><line style="stroke:#181818;stroke-width:0.5;" x1="826.4097" x2="934.4097" y1="1019.6094" y2="1019.6094"/><rect fill="none" height="6" style="stroke:#C82930;stroke-width:1.0;" width="6" x="833.4097" y="1030.9141"/><text fill="#000000" font-family="sans-serif" font-size="14" lengthAdjust="spacing" textLength="84" x="845.4097" y="1038.1426">taskCategory</text></g><!--class Agenda--><g id="elem_Agenda"><rect codeLine="57" fill="#F1F1F1" height="27.6094" id="Agenda" rx="2.5" ry="2.5" style="stroke:#181818;stroke-width:0.5;" width="55" x="978.9097" y="815"/><text fill="#000000" font-family="sans-serif" font-size="14" lengthAdjust="spacing" textLength="49" x="981.9097" y="834.5332">Agenda</text></g><!--class Malfunctions--><g id="elem_Malfunctions"><rect codeLine="61" fill="#F1F1F1" height="70.8281" id="Malfunctions" rx="2.5" ry="2.5" style="stroke:#181818;stroke-width:0.5;" width="110" x="1650.4097" y="983"/><text fill="#000000" font-family="sans-serif" font-size="14" lengthAdjust="spacing" textLength="79" x="1665.9097" y="1002.5332">Malfunctions</text><line style="stroke:#181818;stroke-width:0.5;" x1="1651.4097" x2="1759.4097" y1="1010.6094" y2="1010.6094"/><rect fill="none" height="6" style="stroke:#C82930;stroke-width:1.0;" width="6" x="1658.4097" y="1021.9141"/><text fill="#000000" font-family="sans-serif" font-size="14" lengthAdjust="spacing" textLength="69" x="1670.4097" y="1029.1426">description</text><rect fill="none" height="6" style="stroke:#C82930;stroke-width:1.0;" width="6" x="1658.4097" y="1039.5234"/><text fill="#000000" font-family="sans-serif" font-size="14" lengthAdjust="spacing" textLength="84" x="1670.4097" y="1046.752">reportedDate</text></g><!--class GreenSpaces--><g id="elem_GreenSpaces"><rect codeLine="66" fill="#F1F1F1" height="53.2188" id="GreenSpaces" rx="2.5" ry="2.5" style="stroke:#181818;stroke-width:0.5;" width="93" x="1122.9097" y="1264.5"/><text fill="#000000" font-family="sans-serif" font-size="14" lengthAdjust="spacing" textLength="87" x="1125.9097" y="1284.0332">GreenSpaces</text><line style="stroke:#181818;stroke-width:0.5;" x1="1123.9097" x2="1214.9097" y1="1292.1094" y2="1292.1094"/><rect fill="none" height="6" style="stroke:#C82930;stroke-width:1.0;" width="6" x="1130.9097" y="1303.4141"/><text fill="#000000" font-family="sans-serif" font-size="14" lengthAdjust="spacing" textLength="27" x="1142.9097" y="1310.6426">type</text></g><!--class Equipment--><g id="elem_Equipment"><rect codeLine="70" fill="#F1F1F1" height="53.2188" id="Equipment" rx="2.5" ry="2.5" style="stroke:#181818;stroke-width:0.5;" width="95" x="254.9097" y="1264.5"/><text fill="#000000" font-family="sans-serif" font-size="14" lengthAdjust="spacing" textLength="67" x="268.9097" y="1284.0332">Equipment</text><line style="stroke:#181818;stroke-width:0.5;" x1="255.9097" x2="348.9097" y1="1292.1094" y2="1292.1094"/><rect fill="none" height="6" style="stroke:#C82930;stroke-width:1.0;" width="6" x="262.9097" y="1303.4141"/><text fill="#000000" font-family="sans-serif" font-size="14" lengthAdjust="spacing" textLength="69" x="274.9097" y="1310.6426">description</text></g><!--class Vehicles--><g id="elem_Vehicles"><rect codeLine="74" fill="#F1F1F1" height="194.0938" id="Vehicles" rx="2.5" ry="2.5" style="stroke:#181818;stroke-width:0.5;" width="175" x="723.9097" y="1194"/><text fill="#000000" font-family="sans-serif" font-size="14" lengthAdjust="spacing" textLength="53" x="784.9097" y="1213.5332">Vehicles</text><line style="stroke:#181818;stroke-width:0.5;" x1="724.9097" x2="897.9097" y1="1221.6094" y2="1221.6094"/><rect fill="none" height="6" style="stroke:#C82930;stroke-width:1.0;" width="6" x="731.9097" y="1232.9141"/><text fill="#000000" font-family="sans-serif" font-size="14" lengthAdjust="spacing" textLength="37" x="743.9097" y="1240.1426">brand</text><rect fill="none" height="6" style="stroke:#C82930;stroke-width:1.0;" width="6" x="731.9097" y="1250.5234"/><text fill="#000000" font-family="sans-serif" font-size="14" lengthAdjust="spacing" textLength="38" x="743.9097" y="1257.752">model</text><rect fill="none" height="6" style="stroke:#C82930;stroke-width:1.0;" width="6" x="731.9097" y="1268.1328"/><text fill="#000000" font-family="sans-serif" font-size="14" lengthAdjust="spacing" textLength="27" x="743.9097" y="1275.3613">type</text><rect fill="none" height="6" style="stroke:#C82930;stroke-width:1.0;" width="6" x="731.9097" y="1285.7422"/><text fill="#000000" font-family="sans-serif" font-size="14" lengthAdjust="spacing" textLength="69" x="743.9097" y="1292.9707">tareWeight</text><rect fill="none" height="6" style="stroke:#C82930;stroke-width:1.0;" width="6" x="731.9097" y="1303.3516"/><text fill="#000000" font-family="sans-serif" font-size="14" lengthAdjust="spacing" textLength="79" x="743.9097" y="1310.5801">grossWeight</text><rect fill="none" height="6" style="stroke:#C82930;stroke-width:1.0;" width="6" x="731.9097" y="1320.9609"/><text fill="#000000" font-family="sans-serif" font-size="14" lengthAdjust="spacing" textLength="72" x="743.9097" y="1328.1895">currentKms</text><rect fill="none" height="6" style="stroke:#C82930;stroke-width:1.0;" width="6" x="731.9097" y="1338.5703"/><text fill="#000000" font-family="sans-serif" font-size="14" lengthAdjust="spacing" textLength="101" x="743.9097" y="1345.7988">registrationDate</text><rect fill="none" height="6" style="stroke:#C82930;stroke-width:1.0;" width="6" x="731.9097" y="1356.1797"/><text fill="#000000" font-family="sans-serif" font-size="14" lengthAdjust="spacing" textLength="97" x="743.9097" y="1363.4082">acquisitionDate</text><rect fill="none" height="6" style="stroke:#C82930;stroke-width:1.0;" width="6" x="731.9097" y="1373.7891"/><text fill="#000000" font-family="sans-serif" font-size="14" lengthAdjust="spacing" textLength="149" x="743.9097" y="1381.0176">maintenanceFrequency</text></g><!--class Machines--><g id="elem_Machines"><rect codeLine="86" fill="#F1F1F1" height="53.2188" id="Machines" rx="2.5" ry="2.5" style="stroke:#181818;stroke-width:0.5;" width="95" x="388.9097" y="1264.5"/><text fill="#000000" font-family="sans-serif" font-size="14" lengthAdjust="spacing" textLength="60" x="406.4097" y="1284.0332">Machines</text><line style="stroke:#181818;stroke-width:0.5;" x1="389.9097" x2="482.9097" y1="1292.1094" y2="1292.1094"/><rect fill="none" height="6" style="stroke:#C82930;stroke-width:1.0;" width="6" x="396.9097" y="1303.4141"/><text fill="#000000" font-family="sans-serif" font-size="14" lengthAdjust="spacing" textLength="69" x="408.9097" y="1310.6426">description</text></g><!--class GSU--><g id="elem_GSU"><rect codeLine="90" fill="#F1F1F1" height="27.6094" id="GSU" rx="2.5" ry="2.5" style="stroke:#181818;stroke-width:0.5;" width="35" x="1363.9097" y="815"/><text fill="#000000" font-family="sans-serif" font-size="14" lengthAdjust="spacing" textLength="29" x="1366.9097" y="834.5332">GSU</text></g><!--class Portal--><g id="elem_Portal"><rect codeLine="93" fill="#F1F1F1" height="27.6094" id="Portal" rx="2.5" ry="2.5" style="stroke:#181818;stroke-width:0.5;" width="43" x="1675.9097" y="815"/><text fill="#000000" font-family="sans-serif" font-size="14" lengthAdjust="spacing" textLength="37" x="1678.9097" y="834.5332">Portal</text></g><!--class Faults--><g id="elem_Faults"><rect codeLine="96" fill="#F1F1F1" height="70.8281" id="Faults" rx="2.5" ry="2.5" style="stroke:#181818;stroke-width:0.5;" width="110" x="1857.4097" y="983"/><text fill="#000000" font-family="sans-serif" font-size="14" lengthAdjust="spacing" textLength="39" x="1892.9097" y="1002.5332">Faults</text><line style="stroke:#181818;stroke-width:0.5;" x1="1858.4097" x2="1966.4097" y1="1010.6094" y2="1010.6094"/><rect fill="none" height="6" style="stroke:#C82930;stroke-width:1.0;" width="6" x="1865.4097" y="1021.9141"/><text fill="#000000" font-family="sans-serif" font-size="14" lengthAdjust="spacing" textLength="69" x="1877.4097" y="1029.1426">description</text><rect fill="none" height="6" style="stroke:#C82930;stroke-width:1.0;" width="6" x="1865.4097" y="1039.5234"/><text fill="#000000" font-family="sans-serif" font-size="14" lengthAdjust="spacing" textLength="84" x="1877.4097" y="1046.752">reportedDate</text></g><!--class Comments--><g id="elem_Comments"><rect codeLine="101" fill="#F1F1F1" height="27.6094" id="Comments" rx="2.5" ry="2.5" style="stroke:#181818;stroke-width:0.5;" width="73" x="1420.9097" y="1004.5"/><text fill="#000000" font-family="sans-serif" font-size="14" lengthAdjust="spacing" textLength="67" x="1423.9097" y="1024.0332">Comments</text></g><!--link Organization to Employee--><g id="link_Organization_Employee"><path codeLine="105" d="M700.4097,113.1 C700.4097,163.37 700.4097,236.04 700.4097,265.43 " fill="none" id="Organization-Employee" style="stroke:#181818;stroke-width:1.0;"/><polygon fill="#000000" points="705.4097,188.1758,708.3487,179.1307,702.4708,179.1307,705.4097,188.1758" style="stroke:#000000;stroke-width:1.0;"/><text fill="#000000" font-family="sans-serif" font-size="13" lengthAdjust="spacing" textLength="49" x="714.4097" y="188.4951">employs</text><text fill="#000000" font-family="sans-serif" font-size="13" lengthAdjust="spacing" textLength="7" x="692.9613" y="134.4431">1</text><text fill="#000000" font-family="sans-serif" font-size="13" lengthAdjust="spacing" textLength="20" x="676.5972" y="254.6524">1..*</text></g><!--link Employee to TeamMember--><g id="link_Employee_TeamMember"><path codeLine="107" d="M666.2997,292.41 C619.5797,308.71 541.4097,336 541.4097,336 C541.4097,336 347.4097,446 347.4097,446 C347.4097,446 335.7197,454.65 320.1097,466.22 " fill="none" id="Employee-TeamMember" style="stroke:#181818;stroke-width:1.0;"/><polygon fill="#000000" points="494.8782,373.9323,485.476,375.3643,488.1134,380.6173,494.8782,373.9323" style="stroke:#000000;stroke-width:1.0;"/><text fill="#000000" font-family="sans-serif" font-size="13" lengthAdjust="spacing" textLength="21" x="499.4097" y="381.4951">is a</text><text fill="#000000" font-family="sans-serif" font-size="13" lengthAdjust="spacing" textLength="7" x="651.5427" y="290.9943">1</text><text fill="#000000" font-family="sans-serif" font-size="13" lengthAdjust="spacing" textLength="7" x="327.9444" y="457.3252">1</text></g><!--link Employee to Tasks--><g id="link_Employee_Tasks"><path codeLine="108" d="M725.4397,293.64 C774.8997,319.61 880.4097,375 880.4097,375 C880.4097,375 880.4097,375 880.4097,914 C880.4097,914 880.4097,961.27 880.4097,991.92 " fill="none" id="Employee-Tasks" style="stroke:#181818;stroke-width:1.0;"/><polygon fill="#000000" points="886.493,750.057,887.4025,740.59,881.6642,741.8635,886.493,750.057" style="stroke:#000000;stroke-width:1.0;"/><text fill="#000000" font-family="sans-serif" font-size="13" lengthAdjust="spacing" textLength="53" x="894.4097" y="750.4951">manages</text><text fill="#000000" font-family="sans-serif" font-size="13" lengthAdjust="spacing" textLength="7" x="725.5716" y="314.5919">1</text><text fill="#000000" font-family="sans-serif" font-size="13" lengthAdjust="spacing" textLength="20" x="857.9722" y="981.0024">0..*</text></g><!--link Employee to HRM--><g id="link_Employee_HRM"><path codeLine="109" d="M681.9197,293.64 C645.3697,319.61 567.4097,375 567.4097,375 C567.4097,375 567.4097,375 567.4097,746 C567.4097,746 392.0097,803.3 334.4597,822.1 " fill="none" id="Employee-HRM" style="stroke:#181818;stroke-width:1.0;"/><polygon fill="#000000" points="575.1567,521.4979,567.7318,527.4411,572.6431,530.6703,575.1567,521.4979" style="stroke:#000000;stroke-width:1.0;"/><text fill="#000000" font-family="sans-serif" font-size="13" lengthAdjust="spacing" textLength="21" x="581.4097" y="530.9951">is a</text><text fill="#000000" font-family="sans-serif" font-size="13" lengthAdjust="spacing" textLength="7" x="667.6356" y="314.5919">1</text><text fill="#000000" font-family="sans-serif" font-size="13" lengthAdjust="spacing" textLength="7" x="342.4063" y="814.2376">1</text></g><!--link Employee to GSM--><g id="link_Employee_GSM"><path codeLine="110" d="M734.4297,289.66 C792.9397,305.43 906.4097,336 906.4097,336 C906.4097,336 985.0397,468.34 1010.5297,511.25 " fill="none" id="Employee-GSM" style="stroke:#181818;stroke-width:1.0;"/><polygon fill="#000000" points="936.5103,373.0462,941.7249,380.9997,945.404,376.4156,936.5103,373.0462" style="stroke:#000000;stroke-width:1.0;"/><text fill="#000000" font-family="sans-serif" font-size="13" lengthAdjust="spacing" textLength="21" x="949.4097" y="381.4951">is a</text><text fill="#000000" font-family="sans-serif" font-size="13" lengthAdjust="spacing" textLength="7" x="742.6372" y="287.7088">1</text><text fill="#000000" font-family="sans-serif" font-size="13" lengthAdjust="spacing" textLength="7" x="999.3334" y="500.6773">1</text></g><!--link Employee to VFM--><g id="link_Employee_VFM"><path codeLine="111" d="M694.2897,293.64 C682.1997,319.61 656.4097,375 656.4097,375 C656.4097,375 656.4097,375 656.4097,914 C656.4097,914 571.8097,976.54 534.1397,1004.39 " fill="none" id="Employee-VFM" style="stroke:#181818;stroke-width:1.0;"/><polygon fill="#000000" points="662.5088,740.2981,657.6535,748.4759,663.3876,749.7679,662.5088,740.2981" style="stroke:#000000;stroke-width:1.0;"/><text fill="#000000" font-family="sans-serif" font-size="13" lengthAdjust="spacing" textLength="21" x="670.4097" y="750.4951">is a</text><text fill="#000000" font-family="sans-serif" font-size="13" lengthAdjust="spacing" textLength="7" x="684.1031" y="314.5919">1</text><text fill="#000000" font-family="sans-serif" font-size="13" lengthAdjust="spacing" textLength="7" x="532.5649" y="993.5972">1</text></g><!--link Employee to Teams--><g id="link_Employee_Teams"><path codeLine="112" d="M701.9597,293.89 C708.2297,348.13 731.8797,552.53 741.3997,634.84 " fill="none" id="Employee-Teams" style="stroke:#181818;stroke-width:1.0;"/><polygon fill="#000000" points="718.9843,381.1427,720.8644,371.8198,715.0255,372.4952,718.9843,381.1427" style="stroke:#000000;stroke-width:1.0;"/><text fill="#000000" font-family="sans-serif" font-size="13" lengthAdjust="spacing" textLength="53" x="727.4097" y="381.4951">manages</text><text fill="#000000" font-family="sans-serif" font-size="13" lengthAdjust="spacing" textLength="7" x="694.3382" y="314.6402">1</text><text fill="#000000" font-family="sans-serif" font-size="13" lengthAdjust="spacing" textLength="20" x="718.7291" y="624.0623">0..*</text></g><!--link TeamMember to HRM--><g id="link_TeamMember_HRM"><path codeLine="114" d="M254.1997,605.11 C264.8897,670.87 278.4097,754 278.4097,754 C278.4097,754 298.6897,793.49 309.6197,814.77 " fill="none" id="TeamMember-HRM" style="stroke:#181818;stroke-width:1.0;"/><polygon fill="#000000" points="284.6875,750.0098,285.2173,740.514,279.5347,742.0161,284.6875,750.0098" style="stroke:#000000;stroke-width:1.0;"/><text fill="#000000" font-family="sans-serif" font-size="13" lengthAdjust="spacing" textLength="71" x="292.4097" y="750.4951">managed by</text><text fill="#000000" font-family="sans-serif" font-size="13" lengthAdjust="spacing" textLength="20" x="234.4482" y="626.4291">1..*</text><text fill="#000000" font-family="sans-serif" font-size="13" lengthAdjust="spacing" textLength="7" x="298.8253" y="804.2046">1</text></g><!--link Skills to HRM--><g id="link_Skills_HRM"><path codeLine="116" d="M340.9897,306.32 C361.1197,334.3 390.4097,375 390.4097,375 C390.4097,375 390.4097,375 390.4097,746 C390.4097,746 349.2197,791.65 328.2997,814.83 " fill="none" id="Skills-HRM" style="stroke:#181818;stroke-width:1.0;"/><polygon fill="#000000" points="395.285,530.6742,398.4487,521.7053,392.5726,521.5586,395.285,530.6742" style="stroke:#000000;stroke-width:1.0;"/><text fill="#000000" font-family="sans-serif" font-size="13" lengthAdjust="spacing" textLength="61" x="404.4097" y="530.9951">created by</text><text fill="#000000" font-family="sans-serif" font-size="13" lengthAdjust="spacing" textLength="20" x="322.9739" y="327.8826">1..*</text><text fill="#000000" font-family="sans-serif" font-size="13" lengthAdjust="spacing" textLength="7" x="324.4984" y="804.0143">1</text></g><!--link Job to HRM--><g id="link_Job_HRM"><path codeLine="117" d="M47.3897,306.32 C34.3597,334.3 15.4097,375 15.4097,375 C15.4097,375 15.4097,375 15.4097,746 C15.4097,746 232.6797,805.19 298.0297,822.99 " fill="none" id="Job-HRM" style="stroke:#181818;stroke-width:1.0;"/><polygon fill="#000000" points="22.5921,530.1744,21.2884,520.7536,16,523.3191,22.5921,530.1744" style="stroke:#000000;stroke-width:1.0;"/><text fill="#000000" font-family="sans-serif" font-size="13" lengthAdjust="spacing" textLength="61" x="29.4097" y="530.9951">created by</text><text fill="#000000" font-family="sans-serif" font-size="13" lengthAdjust="spacing" textLength="20" x="22.2976" y="327.8826">1..*</text><text fill="#000000" font-family="sans-serif" font-size="13" lengthAdjust="spacing" textLength="7" x="283.5085" y="815.7967">1</text></g><!--link Job to TeamMember--><g id="link_Job_TeamMember"><path codeLine="118" d="M78.5397,306.15 C103.0897,339.06 146.7997,397.67 182.7597,445.88 " fill="none" id="Job-TeamMember" style="stroke:#181818;stroke-width:1.0;"/><polygon fill="#000000" points="145.3991,380.1837,142.3471,371.1762,137.6355,374.6904,145.3991,380.1837" style="stroke:#000000;stroke-width:1.0;"/><text fill="#000000" font-family="sans-serif" font-size="13" lengthAdjust="spacing" textLength="67" x="151.4097" y="381.4951">assigned to</text><text fill="#000000" font-family="sans-serif" font-size="13" lengthAdjust="spacing" textLength="7" x="75.1542" y="327.6733">1</text><text fill="#000000" font-family="sans-serif" font-size="13" lengthAdjust="spacing" textLength="7" x="169.8361" y="435.0465">1</text></g><!--link Skills to TeamMember--><g id="link_Skills_TeamMember"><path codeLine="119" d="M310.4097,306.45 C298.6297,331.93 282.4097,367 282.4097,367 C282.4097,367 272.1597,406.38 261.9097,445.75 " fill="none" id="Skills-TeamMember" style="stroke:#181818;stroke-width:1.0;"/><polygon fill="#000000" points="285.7657,380.8978,291.5153,373.322,285.9643,371.3893,285.7657,380.8978" style="stroke:#000000;stroke-width:1.0;"/><text fill="#000000" font-family="sans-serif" font-size="13" lengthAdjust="spacing" textLength="67" x="296.4097" y="381.4951">assigned to</text><text fill="#000000" font-family="sans-serif" font-size="13" lengthAdjust="spacing" textLength="20" x="285.5972" y="327.605">0..*</text><text fill="#000000" font-family="sans-serif" font-size="13" lengthAdjust="spacing" textLength="7" x="256.4769" y="435.1776">1</text></g><!--link Teams to Tasks--><g id="link_Teams_Tasks"><path codeLine="122" d="M745.4097,706.17 C745.4097,739.23 745.4097,784 745.4097,784 C745.4097,784 745.4097,784 745.4097,914 C745.4097,914 807.0597,961.27 847.0397,991.92 " fill="none" id="Teams-Tasks" style="stroke:#181818;stroke-width:1.0;"/><polygon fill="#000000" points="752.0852,833.8867,751.8233,824.3797,746.2852,826.3494,752.0852,833.8867" style="stroke:#000000;stroke-width:1.0;"/><text fill="#000000" font-family="sans-serif" font-size="13" lengthAdjust="spacing" textLength="67" x="759.4097" y="834.4951">assigned to</text><text fill="#000000" font-family="sans-serif" font-size="13" lengthAdjust="spacing" textLength="7" x="737.8082" y="727.2159">1</text><text fill="#000000" font-family="sans-serif" font-size="13" lengthAdjust="spacing" textLength="20" x="816.4683" y="981.0024">0..*</text></g><!--link Tasks to GreenSpaces--><g id="link_Tasks_GreenSpaces"><path codeLine="123" d="M908.2797,1045.09 C939.0897,1073.38 984.4097,1115 984.4097,1115 C984.4097,1115 1090.6497,1215.5 1142.1097,1264.18 " fill="none" id="Tasks-GreenSpaces" style="stroke:#181818;stroke-width:1.0;"/><polygon fill="#000000" points="1011.0584,1127.5944,1006.4674,1119.2654,1002.4485,1123.5547,1011.0584,1127.5944" style="stroke:#000000;stroke-width:1.0;"/><text fill="#000000" font-family="sans-serif" font-size="13" lengthAdjust="spacing" textLength="54" x="1016.4097" y="1129.4951">relates to</text><text fill="#000000" font-family="sans-serif" font-size="13" lengthAdjust="spacing" textLength="20" x="892.4122" y="1066.5994">1..*</text><text fill="#000000" font-family="sans-serif" font-size="13" lengthAdjust="spacing" textLength="7" x="1127.9872" y="1253.6383">1</text></g><!--link Agenda to Tasks--><g id="link_Agenda_Tasks"><path codeLine="124" d="M997.5497,843.18 C976.8197,874.03 924.8797,951.33 897.6597,991.83 " fill="none" id="Agenda-Tasks" style="stroke:#181818;stroke-width:1.0;"/><polygon fill="#000000" points="957.621,917.3258,965.1052,911.4575,960.2266,908.1791,957.621,917.3258" style="stroke:#000000;stroke-width:1.0;"/><text fill="#000000" font-family="sans-serif" font-size="13" lengthAdjust="spacing" textLength="56" x="969.4097" y="918.4951">organizes</text><text fill="#000000" font-family="sans-serif" font-size="13" lengthAdjust="spacing" textLength="7" x="986.4555" y="864.1452">1</text><text fill="#000000" font-family="sans-serif" font-size="13" lengthAdjust="spacing" textLength="20" x="903.9613" y="981.323">1..*</text></g><!--link GSM to Portal--><g id="link_GSM_Portal"><path codeLine="126" d="M1036.9197,534.72 C1132.7797,577.29 1572.2497,772.42 1675.5997,818.32 " fill="none" id="GSM-Portal" style="stroke:#181818;stroke-width:1.0;"/><polygon fill="#000000" points="1534.9795,747.2049,1527.9054,740.8481,1525.52,746.2202,1534.9795,747.2049" style="stroke:#000000;stroke-width:1.0;"/><text fill="#000000" font-family="sans-serif" font-size="13" lengthAdjust="spacing" textLength="53" x="1539.4097" y="750.4951">manages</text><text fill="#000000" font-family="sans-serif" font-size="13" lengthAdjust="spacing" textLength="7" x="1045.0359" y="532.8018">1</text><text fill="#000000" font-family="sans-serif" font-size="13" lengthAdjust="spacing" textLength="7" x="1660.8486" y="810.208">1</text></g><!--link GSM to Agenda--><g id="link_GSM_Agenda"><path codeLine="127" d="M1017.8797,539.84 C1015.8897,589.76 1008.9097,765.15 1006.9297,814.81 " fill="none" id="GSM-Agenda" style="stroke:#181818;stroke-width:1.0;"/><polygon fill="#000000" points="1014.2108,750.1718,1017.5073,741.2508,1011.6341,741.017,1014.2108,750.1718" style="stroke:#000000;stroke-width:1.0;"/><text fill="#000000" font-family="sans-serif" font-size="13" lengthAdjust="spacing" textLength="53" x="1023.4097" y="750.4951">manages</text><text fill="#000000" font-family="sans-serif" font-size="13" lengthAdjust="spacing" textLength="7" x="1009.5952" y="560.5743">1</text><text fill="#000000" font-family="sans-serif" font-size="13" lengthAdjust="spacing" textLength="7" x="998.8309" y="804.2594">1</text></g><!--link VFM to Vehicles--><g id="link_VFM_Vehicles"><path codeLine="129" d="M530.6397,1032.55 C564.9897,1064.05 654.7197,1146.33 723.5797,1209.47 " fill="none" id="VFM-Vehicles" style="stroke:#181818;stroke-width:1.0;"/><polygon fill="#000000" points="649.095,1127.555,644.4146,1119.2758,640.4421,1123.608,649.095,1127.555" style="stroke:#000000;stroke-width:1.0;"/><text fill="#000000" font-family="sans-serif" font-size="13" lengthAdjust="spacing" textLength="53" x="654.4097" y="1129.4951">manages</text><text fill="#000000" font-family="sans-serif" font-size="13" lengthAdjust="spacing" textLength="7" x="527.1941" y="1053.4721">1</text><text fill="#000000" font-family="sans-serif" font-size="13" lengthAdjust="spacing" textLength="20" x="695.7839" y="1199.841">1..*</text></g><!--link VFM to Machines--><g id="link_VFM_Machines"><path codeLine="130" d="M500.6997,1032.78 C469.6497,1059.02 403.4097,1115 403.4097,1115 C403.4097,1115 403.4097,1133 403.4097,1133 C403.4097,1133 421.6797,1219.94 431.0297,1264.43 " fill="none" id="VFM-Machines" style="stroke:#181818;stroke-width:1.0;"/><polygon fill="#000000" points="406.9697,1128.9639,412.3892,1121.1485,406.7604,1119.4557,406.9697,1128.9639" style="stroke:#000000;stroke-width:1.0;"/><text fill="#000000" font-family="sans-serif" font-size="13" lengthAdjust="spacing" textLength="53" x="417.4097" y="1129.4951">manages</text><text fill="#000000" font-family="sans-serif" font-size="13" lengthAdjust="spacing" textLength="7" x="487.5766" y="1053.4952">1</text><text fill="#000000" font-family="sans-serif" font-size="13" lengthAdjust="spacing" textLength="20" x="407.2809" y="1253.5149">1..*</text></g><!--link VFM to Equipment--><g id="link_VFM_Equipment"><path codeLine="131" d="M498.6297,1028.48 C451.5797,1052.26 327.4097,1115 327.4097,1115 C327.4097,1115 313.0497,1215.5 306.0997,1264.18 " fill="none" id="VFM-Equipment" style="stroke:#181818;stroke-width:1.0;"/><polygon fill="#000000" points="329.2467,1128.0481,337.2448,1122.9022,332.6926,1119.1838,329.2467,1128.0481" style="stroke:#000000;stroke-width:1.0;"/><text fill="#000000" font-family="sans-serif" font-size="13" lengthAdjust="spacing" textLength="53" x="341.4097" y="1129.4951">manages</text><text fill="#000000" font-family="sans-serif" font-size="13" lengthAdjust="spacing" textLength="7" x="483.7827" y="1026.8421">1</text><text fill="#000000" font-family="sans-serif" font-size="13" lengthAdjust="spacing" textLength="20" x="284.6406" y="1253.6383">1..*</text></g><!--link Tasks to Vehicles--><g id="link_Tasks_Vehicles"><path codeLine="133" d="M884.1597,1045.09 C888.3097,1073.38 894.4097,1115 894.4097,1115 C894.4097,1115 894.4097,1133 894.4097,1133 C894.4097,1133 879.4997,1161.2 862.3197,1193.7 " fill="none" id="Tasks-Vehicles" style="stroke:#181818;stroke-width:1.0;"/><polygon fill="#000000" points="900.1367,1119.2289,895.9139,1127.7506,901.7293,1128.6052,900.1367,1119.2289" style="stroke:#000000;stroke-width:1.0;"/><text fill="#000000" font-family="sans-serif" font-size="13" lengthAdjust="spacing" textLength="67" x="908.4097" y="1129.4951">assigned to</text><text fill="#000000" font-family="sans-serif" font-size="13" lengthAdjust="spacing" textLength="7" x="877.2176" y="1066.5994">1</text><text fill="#000000" font-family="sans-serif" font-size="13" lengthAdjust="spacing" textLength="20" x="845.4519" y="1183.143">0..*</text></g><!--link Tasks to Machines--><g id="link_Tasks_Machines"><path codeLine="134" d="M843.1997,1045.25 C794.8097,1078.74 716.4097,1133 716.4097,1133 C716.4097,1133 561.3597,1219.94 482.0197,1264.43 " fill="none" id="Tasks-Machines" style="stroke:#181818;stroke-width:1.0;"/><polygon fill="#000000" points="751.6842,1121.5818,742.4269,1123.7618,745.4763,1128.7868,751.6842,1121.5818" style="stroke:#000000;stroke-width:1.0;"/><text fill="#000000" font-family="sans-serif" font-size="13" lengthAdjust="spacing" textLength="67" x="756.4097" y="1129.4951">assigned to</text><text fill="#000000" font-family="sans-serif" font-size="13" lengthAdjust="spacing" textLength="7" x="826.7856" y="1066.7964">1</text><text fill="#000000" font-family="sans-serif" font-size="13" lengthAdjust="spacing" textLength="20" x="470.6997" y="1253.5149">0..*</text></g><!--link Tasks to Equipment--><g id="link_Tasks_Equipment"><path codeLine="135" d="M825.2697,1034.63 C727.1397,1061.56 532.4097,1115 532.4097,1115 C532.4097,1115 371.4097,1194 371.4097,1194 C371.4097,1194 341.3397,1235.84 320.8997,1264.27 " fill="none" id="Tasks-Equipment" style="stroke:#181818;stroke-width:1.0;"/><polygon fill="#000000" points="541.9603,1122.1039,532.5105,1123.1772,534.9461,1128.5267,541.9603,1122.1039" style="stroke:#000000;stroke-width:1.0;"/><text fill="#000000" font-family="sans-serif" font-size="13" lengthAdjust="spacing" textLength="67" x="546.4097" y="1129.4951">assigned to</text><text fill="#000000" font-family="sans-serif" font-size="13" lengthAdjust="spacing" textLength="7" x="810.39" y="1033.2265">1</text><text fill="#000000" font-family="sans-serif" font-size="13" lengthAdjust="spacing" textLength="20" x="327.4881" y="1253.7492">0..*</text></g><!--link Portal to Malfunctions--><g id="link_Portal_Malfunctions"><path codeLine="137" d="M1709.2097,843.23 C1728.1897,864.51 1763.4097,904 1763.4097,904 C1763.4097,904 1763.4097,922 1763.4097,922 C1763.4097,922 1743.0997,955.45 1726.5097,982.75 " fill="none" id="Portal-Malfunctions" style="stroke:#181818;stroke-width:1.0;"/><polygon fill="#000000" points="1769.025,918.1378,1770.8286,908.7998,1764.9954,909.5231,1769.025,918.1378" style="stroke:#000000;stroke-width:1.0;"/><text fill="#000000" font-family="sans-serif" font-size="13" lengthAdjust="spacing" textLength="64" x="1777.4097" y="918.4951">aggregates</text><text fill="#000000" font-family="sans-serif" font-size="13" lengthAdjust="spacing" textLength="7" x="1704.9591" y="864.2117">1</text><text fill="#000000" font-family="sans-serif" font-size="13" lengthAdjust="spacing" textLength="20" x="1708.5563" y="972.227">0..*</text></g><!--link Portal to Faults--><g id="link_Portal_Faults"><path codeLine="138" d="M1719.0097,840.45 C1761.1797,860.84 1850.4097,904 1850.4097,904 C1850.4097,904 1875.2397,949.45 1893.4697,982.83 " fill="none" id="Portal-Faults" style="stroke:#181818;stroke-width:1.0;"/><polygon fill="#000000" points="1868.2834,916.3372,1863.1341,908.3413,1859.4176,912.8951,1868.2834,916.3372" style="stroke:#000000;stroke-width:1.0;"/><text fill="#000000" font-family="sans-serif" font-size="13" lengthAdjust="spacing" textLength="64" x="1873.4097" y="918.4951">aggregates</text><text fill="#000000" font-family="sans-serif" font-size="13" lengthAdjust="spacing" textLength="7" x="1727.0104" y="839.1631">1</text><text fill="#000000" font-family="sans-serif" font-size="13" lengthAdjust="spacing" textLength="20" x="1867.9531" y="972.0504">0..*</text></g><!--link Portal to Comments--><g id="link_Portal_Comments"><path codeLine="139" d="M1679.1697,843.23 C1649.8397,864.51 1595.4097,904 1595.4097,904 C1595.4097,904 1509.4897,974.67 1473.2397,1004.48 " fill="none" id="Portal-Comments" style="stroke:#181818;stroke-width:1.0;"/><polygon fill="#000000" points="1596.473,916.2584,1605.4065,912.9959,1601.7827,908.368,1596.473,916.2584" style="stroke:#000000;stroke-width:1.0;"/><text fill="#000000" font-family="sans-serif" font-size="13" lengthAdjust="spacing" textLength="47" x="1609.4097" y="918.4951">receives</text><text fill="#000000" font-family="sans-serif" font-size="13" lengthAdjust="spacing" textLength="7" x="1664.9684" y="864.2117">1</text><text fill="#000000" font-family="sans-serif" font-size="13" lengthAdjust="spacing" textLength="20" x="1455.4624" y="993.7215">0..*</text></g><!--link GSU to GreenSpaces--><g id="link_GSU_GreenSpaces"><path codeLine="141" d="M1363.7897,839.57 C1323.9597,861.2 1230.4097,912 1230.4097,912 C1230.4097,912 1230.4097,912 1230.4097,1125 C1230.4097,1125 1196.0997,1217.81 1178.9397,1264.22 " fill="none" id="GSU-GreenSpaces" style="stroke:#181818;stroke-width:1.0;"/><polygon fill="#000000" points="1233.4141,1023.2603,1239.7189,1016.1399,1234.3295,1013.7939,1233.4141,1023.2603" style="stroke:#000000;stroke-width:1.0;"/><text fill="#000000" font-family="sans-serif" font-size="13" lengthAdjust="spacing" textLength="28" x="1244.4097" y="1023.9951">uses</text><text fill="#000000" font-family="sans-serif" font-size="13" lengthAdjust="spacing" textLength="7" x="1349.0017" y="838.1496">1</text><text fill="#000000" font-family="sans-serif" font-size="13" lengthAdjust="spacing" textLength="20" x="1158.8311" y="1253.6876">1..*</text></g><!--link GSU to Malfunctions--><g id="link_GSU_Malfunctions"><path codeLine="142" d="M1399.0797,842.6 C1434.4097,867.8 1510.4097,922 1510.4097,922 C1510.4097,922 1592.6497,962.28 1650.3097,990.52 " fill="none" id="GSU-Malfunctions" style="stroke:#181818;stroke-width:1.0;"/><polygon fill="#000000" points="1519.7184,915.7126,1513.4151,908.5909,1510.4329,913.656,1519.7184,915.7126" style="stroke:#000000;stroke-width:1.0;"/><text fill="#000000" font-family="sans-serif" font-size="13" lengthAdjust="spacing" textLength="40" x="1524.4097" y="918.4951">reports</text><text fill="#000000" font-family="sans-serif" font-size="13" lengthAdjust="spacing" textLength="7" x="1397.3049" y="864.197">1</text><text fill="#000000" font-family="sans-serif" font-size="13" lengthAdjust="spacing" textLength="20" x="1622.3757" y="983.662">0..*</text></g><!--link GSU to Faults--><g id="link_GSU_Faults"><path codeLine="143" d="M1398.9297,834.63 C1460.2197,850.83 1661.4097,904 1661.4097,904 C1661.4097,904 1700.4097,922 1700.4097,922 C1700.4097,922 1794.4497,964.36 1857.2597,992.66 " fill="none" id="GSU-Faults" style="stroke:#181818;stroke-width:1.0;"/><polygon fill="#000000" points="1710.1367,914.8056,1702.5436,909.0788,1700.6276,914.6356,1710.1367,914.8056" style="stroke:#000000;stroke-width:1.0;"/><text fill="#000000" font-family="sans-serif" font-size="13" lengthAdjust="spacing" textLength="40" x="1714.4097" y="918.4951">reports</text><text fill="#000000" font-family="sans-serif" font-size="13" lengthAdjust="spacing" textLength="7" x="1406.9436" y="831.363">1</text><text fill="#000000" font-family="sans-serif" font-size="13" lengthAdjust="spacing" textLength="20" x="1829.3196" y="986.0628">0..*</text></g><!--link GSU to Comments--><g id="link_GSU_Comments"><path codeLine="144" d="M1374.9697,843.23 C1364.6197,864.51 1345.4097,904 1345.4097,904 C1345.4097,904 1345.4097,922 1345.4097,922 C1345.4097,922 1411.0597,977.98 1441.8397,1004.22 " fill="none" id="GSU-Comments" style="stroke:#181818;stroke-width:1.0;"/><polygon fill="#000000" points="1352.3277,917.7933,1351.5722,908.3128,1346.144,910.5675,1352.3277,917.7933" style="stroke:#000000;stroke-width:1.0;"/><text fill="#000000" font-family="sans-serif" font-size="13" lengthAdjust="spacing" textLength="40" x="1359.4097" y="918.4951">reports</text><text fill="#000000" font-family="sans-serif" font-size="13" lengthAdjust="spacing" textLength="7" x="1364.6771" y="864.2117">1</text><text fill="#000000" font-family="sans-serif" font-size="13" lengthAdjust="spacing" textLength="20" x="1412.4108" y="993.6362">0..*</text></g><!--SRC=[ZLJ9Rjim4BtpAmWV2oX8haOGeCZM1MwBkcdFD3cH27DHIAg0MlJVoqqI6JjET1A7RzwysTXn1bY2wpIpg0i7oWqLaFv1zcx4n3d3TuC3Y-oUgvuO8h7W2jpO0-wr6CC1nOyAOYt-QbgY-1_Yk5RuByB-QnIHaFu8OmQiJOU-qohRGH8kqB-9v5RsGey0dc2s_G0YDo1tO19jWoVQ1k-uSHqZBXy9azpQ8A2qpP4RJBLoX3hCrQDEbeytc6cAGrgbOP2W75P32Bj8-V1zKogxtrR7dtVLyPFUHS5PxspVxhaGjhZ2TQxprI1l1GGT5aU3ZOvV01YmmeNO_UJY_F-rpxpLPYnOtxUW68cOnRWXud5GDBHhScTWgU5zx60q6EYrSS1kF6VXUcy0rBOd5ER0OIgADZuDl8yLF4Ayr0iwxiTkujWPebYAApK3WGlcb9o1Ny3RpgLpQxIrfO4EnlYOdwMTrBVSEXCdyYRDWny7whLPFjboFCAL0qKKXJi3JmCeEbQbefsVTdioc_ljGzdzRxvmH9IMEp88zwPIBpxNMgO1Y3oesh7LnQffcjN5sTcxrR8uwx30_jVYAuHcwuHTbTkqnjnYWYyFOEUHCWxMsjT6aTRdVeMFqOMDU977tuSLENKVTkOr7N4d2Y485Kca_2ir2SZmRWpOl6v7SDI0BtR6XMrz6-QmacliUyLRvN5EUzmKyhoWg-fUmJ5A2TaZvN-EHSbQ2IstSUtdI7Z1Dg7pubUJCl7gD4kfeA5DIsPvTikIru3CM_KaTB8ADAzt2Jj0pRjr4hKyAFKSv6eKPIkYbfMxF8OjOh-ABHNKO9JBzOowU5szHzlwroWsvkeeFZyERq3EJqBeDGN-soDJ2n_gcjLpCTZSnuUJGjCp5BVz03fhd467c4hTXFeF]--></g></svg>