<?xml version="1.0" encoding="us-ascii" standalone="no"?><svg xmlns="http://www.w3.org/2000/svg" xmlns:xlink="http://www.w3.org/1999/xlink" contentStyleType="text/css" height="960px" preserveAspectRatio="none" style="width:1692px;height:960px;background:#FFFFFF;" version="1.1" viewBox="0 0 1692 960" width="1692px" zoomAndPan="magnify"><defs/><g><!--class AuthenticationRepository--><g id="elem_AuthenticationRepository"><rect codeLine="11" fill="#F1F1F1" height="65.6094" id="AuthenticationRepository" rx="2.5" ry="2.5" style="stroke:#181818;stroke-width:0.5;" width="190" x="740" y="226.5"/><ellipse cx="755" cy="242.5" fill="#ADD1B2" rx="11" ry="11" style="stroke:#181818;stroke-width:1.0;"/><path d="M757.7656,238.375 Q757.9219,238.1563 758.1094,238.0469 Q758.2969,237.9375 758.5156,237.9375 Q758.8906,237.9375 759.125,238.2031 Q759.3594,238.4531 759.3594,239.0625 L759.3594,240.5156 Q759.3594,241.125 759.125,241.3906 Q758.8906,241.6563 758.5156,241.6563 Q758.1719,241.6563 757.9688,241.4531 Q757.7656,241.2656 757.6563,240.75 Q757.6094,240.3906 757.4219,240.2031 Q757.0938,239.8281 756.4844,239.6094 Q755.875,239.3906 755.25,239.3906 Q754.4844,239.3906 753.8438,239.7188 Q753.2188,240.0469 752.7188,240.7969 Q752.2344,241.5469 752.2344,242.5781 L752.2344,243.6719 Q752.2344,244.9063 753.125,245.7344 Q754.0156,246.5469 755.6094,246.5469 Q756.5469,246.5469 757.2031,246.2969 Q757.5938,246.1406 758.0156,245.7031 Q758.2813,245.4375 758.4219,245.3594 Q758.5781,245.2813 758.7813,245.2813 Q759.1094,245.2813 759.3594,245.5469 Q759.625,245.7969 759.625,246.1406 Q759.625,246.4844 759.2813,246.8906 Q758.7813,247.4688 757.9844,247.7969 Q756.9063,248.25 755.6094,248.25 Q754.0938,248.25 752.8906,247.625 Q751.9063,247.125 751.2188,246.0625 Q750.5313,244.9844 750.5313,243.7031 L750.5313,242.5469 Q750.5313,241.2188 751.1406,240.0781 Q751.7656,238.9219 752.8594,238.3125 Q753.9531,237.6875 755.1875,237.6875 Q755.9219,237.6875 756.5625,237.8594 Q757.2188,238.0156 757.7656,238.375 Z " fill="#000000"/><text fill="#000000" font-family="sans-serif" font-size="14" lengthAdjust="spacing" textLength="158" x="769" y="248.2285">AuthenticationRepository</text><line style="stroke:#181818;stroke-width:0.5;" x1="741" x2="929" y1="258.5" y2="258.5"/><line style="stroke:#181818;stroke-width:0.5;" x1="741" x2="929" y1="266.5" y2="266.5"/><text fill="#000000" font-family="sans-serif" font-size="14" lengthAdjust="spacing" textLength="165" x="746" y="285.0332">+getCurrentUserSession()</text></g><!--class UserSession--><g id="elem_UserSession"><rect codeLine="16" fill="#F1F1F1" height="83.2188" id="UserSession" rx="2.5" ry="2.5" style="stroke:#181818;stroke-width:0.5;" width="156" x="1037" y="218"/><ellipse cx="1072.25" cy="234" fill="#ADD1B2" rx="11" ry="11" style="stroke:#181818;stroke-width:1.0;"/><path d="M1075.0156,229.875 Q1075.1719,229.6563 1075.3594,229.5469 Q1075.5469,229.4375 1075.7656,229.4375 Q1076.1406,229.4375 1076.375,229.7031 Q1076.6094,229.9531 1076.6094,230.5625 L1076.6094,232.0156 Q1076.6094,232.625 1076.375,232.8906 Q1076.1406,233.1563 1075.7656,233.1563 Q1075.4219,233.1563 1075.2188,232.9531 Q1075.0156,232.7656 1074.9063,232.25 Q1074.8594,231.8906 1074.6719,231.7031 Q1074.3438,231.3281 1073.7344,231.1094 Q1073.125,230.8906 1072.5,230.8906 Q1071.7344,230.8906 1071.0938,231.2188 Q1070.4688,231.5469 1069.9688,232.2969 Q1069.4844,233.0469 1069.4844,234.0781 L1069.4844,235.1719 Q1069.4844,236.4063 1070.375,237.2344 Q1071.2656,238.0469 1072.8594,238.0469 Q1073.7969,238.0469 1074.4531,237.7969 Q1074.8438,237.6406 1075.2656,237.2031 Q1075.5313,236.9375 1075.6719,236.8594 Q1075.8281,236.7813 1076.0313,236.7813 Q1076.3594,236.7813 1076.6094,237.0469 Q1076.875,237.2969 1076.875,237.6406 Q1076.875,237.9844 1076.5313,238.3906 Q1076.0313,238.9688 1075.2344,239.2969 Q1074.1563,239.75 1072.8594,239.75 Q1071.3438,239.75 1070.1406,239.125 Q1069.1563,238.625 1068.4688,237.5625 Q1067.7813,236.4844 1067.7813,235.2031 L1067.7813,234.0469 Q1067.7813,232.7188 1068.3906,231.5781 Q1069.0156,230.4219 1070.1094,229.8125 Q1071.2031,229.1875 1072.4375,229.1875 Q1073.1719,229.1875 1073.8125,229.3594 Q1074.4688,229.5156 1075.0156,229.875 Z " fill="#000000"/><text fill="#000000" font-family="sans-serif" font-size="14" lengthAdjust="spacing" textLength="79" x="1090.75" y="239.7285">UserSession</text><line style="stroke:#181818;stroke-width:0.5;" x1="1038" x2="1192" y1="250" y2="250"/><line style="stroke:#181818;stroke-width:0.5;" x1="1038" x2="1192" y1="258" y2="258"/><text fill="#000000" font-family="sans-serif" font-size="14" lengthAdjust="spacing" textLength="144" x="1043" y="276.5332">+isLoggedInWithRole()</text><text fill="#000000" font-family="sans-serif" font-size="14" lengthAdjust="spacing" textLength="78" x="1043" y="294.1426">+getUserId()</text></g><!--class Job--><g id="elem_Job"><rect codeLine="24" fill="#F1F1F1" height="65.6094" id="Job" rx="2.5" ry="2.5" style="stroke:#181818;stroke-width:0.5;" width="93" x="1566.5" y="808"/><ellipse cx="1599.05" cy="824" fill="#ADD1B2" rx="11" ry="11" style="stroke:#181818;stroke-width:1.0;"/><path d="M1601.8156,819.875 Q1601.9719,819.6563 1602.1594,819.5469 Q1602.3469,819.4375 1602.5656,819.4375 Q1602.9406,819.4375 1603.175,819.7031 Q1603.4094,819.9531 1603.4094,820.5625 L1603.4094,822.0156 Q1603.4094,822.625 1603.175,822.8906 Q1602.9406,823.1563 1602.5656,823.1563 Q1602.2219,823.1563 1602.0188,822.9531 Q1601.8156,822.7656 1601.7063,822.25 Q1601.6594,821.8906 1601.4719,821.7031 Q1601.1438,821.3281 1600.5344,821.1094 Q1599.925,820.8906 1599.3,820.8906 Q1598.5344,820.8906 1597.8938,821.2188 Q1597.2688,821.5469 1596.7688,822.2969 Q1596.2844,823.0469 1596.2844,824.0781 L1596.2844,825.1719 Q1596.2844,826.4063 1597.175,827.2344 Q1598.0656,828.0469 1599.6594,828.0469 Q1600.5969,828.0469 1601.2531,827.7969 Q1601.6438,827.6406 1602.0656,827.2031 Q1602.3313,826.9375 1602.4719,826.8594 Q1602.6281,826.7813 1602.8313,826.7813 Q1603.1594,826.7813 1603.4094,827.0469 Q1603.675,827.2969 1603.675,827.6406 Q1603.675,827.9844 1603.3313,828.3906 Q1602.8313,828.9688 1602.0344,829.2969 Q1600.9563,829.75 1599.6594,829.75 Q1598.1438,829.75 1596.9406,829.125 Q1595.9563,828.625 1595.2688,827.5625 Q1594.5813,826.4844 1594.5813,825.2031 L1594.5813,824.0469 Q1594.5813,822.7188 1595.1906,821.5781 Q1595.8156,820.4219 1596.9094,819.8125 Q1598.0031,819.1875 1599.2375,819.1875 Q1599.9719,819.1875 1600.6125,819.3594 Q1601.2688,819.5156 1601.8156,819.875 Z " fill="#000000"/><text fill="#000000" font-family="sans-serif" font-size="14" lengthAdjust="spacing" textLength="22" x="1616.95" y="829.7285">Job</text><line style="stroke:#181818;stroke-width:0.5;" x1="1567.5" x2="1658.5" y1="840" y2="840"/><text fill="#000000" font-family="sans-serif" font-size="14" lengthAdjust="spacing" textLength="81" x="1572.5" y="858.5332">-String name</text><line style="stroke:#181818;stroke-width:0.5;" x1="1567.5" x2="1658.5" y1="865.6094" y2="865.6094"/></g><!--class Employee--><g id="elem_Employee"><rect codeLine="28" fill="#F1F1F1" height="224.0938" id="Employee" rx="2.5" ry="2.5" style="stroke:#181818;stroke-width:0.5;" width="189" x="1264.5" y="729"/><ellipse cx="1323.75" cy="745" fill="#ADD1B2" rx="11" ry="11" style="stroke:#181818;stroke-width:1.0;"/><path d="M1326.5156,740.875 Q1326.6719,740.6563 1326.8594,740.5469 Q1327.0469,740.4375 1327.2656,740.4375 Q1327.6406,740.4375 1327.875,740.7031 Q1328.1094,740.9531 1328.1094,741.5625 L1328.1094,743.0156 Q1328.1094,743.625 1327.875,743.8906 Q1327.6406,744.1563 1327.2656,744.1563 Q1326.9219,744.1563 1326.7188,743.9531 Q1326.5156,743.7656 1326.4063,743.25 Q1326.3594,742.8906 1326.1719,742.7031 Q1325.8438,742.3281 1325.2344,742.1094 Q1324.625,741.8906 1324,741.8906 Q1323.2344,741.8906 1322.5938,742.2188 Q1321.9688,742.5469 1321.4688,743.2969 Q1320.9844,744.0469 1320.9844,745.0781 L1320.9844,746.1719 Q1320.9844,747.4063 1321.875,748.2344 Q1322.7656,749.0469 1324.3594,749.0469 Q1325.2969,749.0469 1325.9531,748.7969 Q1326.3438,748.6406 1326.7656,748.2031 Q1327.0313,747.9375 1327.1719,747.8594 Q1327.3281,747.7813 1327.5313,747.7813 Q1327.8594,747.7813 1328.1094,748.0469 Q1328.375,748.2969 1328.375,748.6406 Q1328.375,748.9844 1328.0313,749.3906 Q1327.5313,749.9688 1326.7344,750.2969 Q1325.6563,750.75 1324.3594,750.75 Q1322.8438,750.75 1321.6406,750.125 Q1320.6563,749.625 1319.9688,748.5625 Q1319.2813,747.4844 1319.2813,746.2031 L1319.2813,745.0469 Q1319.2813,743.7188 1319.8906,742.5781 Q1320.5156,741.4219 1321.6094,740.8125 Q1322.7031,740.1875 1323.9375,740.1875 Q1324.6719,740.1875 1325.3125,740.3594 Q1325.9688,740.5156 1326.5156,740.875 Z " fill="#000000"/><text fill="#000000" font-family="sans-serif" font-size="14" lengthAdjust="spacing" textLength="62" x="1344.25" y="750.7285">Employee</text><line style="stroke:#181818;stroke-width:0.5;" x1="1265.5" x2="1452.5" y1="761" y2="761"/><text fill="#000000" font-family="sans-serif" font-size="14" lengthAdjust="spacing" textLength="81" x="1270.5" y="779.5332">-String name</text><text fill="#000000" font-family="sans-serif" font-size="14" lengthAdjust="spacing" textLength="95" x="1270.5" y="797.1426">-Date birthdate</text><text fill="#000000" font-family="sans-serif" font-size="14" lengthAdjust="spacing" textLength="134" x="1270.5" y="814.752">-Date admission date</text><text fill="#000000" font-family="sans-serif" font-size="14" lengthAdjust="spacing" textLength="151" x="1270.5" y="832.3613">-Address postalAddress</text><text fill="#000000" font-family="sans-serif" font-size="14" lengthAdjust="spacing" textLength="86" x="1270.5" y="849.9707">-String phone</text><text fill="#000000" font-family="sans-serif" font-size="14" lengthAdjust="spacing" textLength="79" x="1270.5" y="867.5801">-String email</text><text fill="#000000" font-family="sans-serif" font-size="14" lengthAdjust="spacing" textLength="117" x="1270.5" y="885.1895">-String ID doc type</text><text fill="#000000" font-family="sans-serif" font-size="14" lengthAdjust="spacing" textLength="177" x="1270.5" y="902.7988">-String ID document number</text><text fill="#000000" font-family="sans-serif" font-size="14" lengthAdjust="spacing" textLength="122" x="1270.5" y="920.4082">-String Taxpayer ID</text><text fill="#000000" font-family="sans-serif" font-size="14" lengthAdjust="spacing" textLength="50" x="1270.5" y="938.0176">-Job job</text><line style="stroke:#181818;stroke-width:0.5;" x1="1265.5" x2="1452.5" y1="945.0938" y2="945.0938"/></g><!--class Organization--><g id="elem_Organization"><rect codeLine="43" fill="#F1F1F1" height="224.0938" id="Organization" rx="2.5" ry="2.5" style="stroke:#181818;stroke-width:0.5;" width="672" x="896" y="427"/><ellipse cx="1187.75" cy="443" fill="#ADD1B2" rx="11" ry="11" style="stroke:#181818;stroke-width:1.0;"/><path d="M1190.5156,438.875 Q1190.6719,438.6563 1190.8594,438.5469 Q1191.0469,438.4375 1191.2656,438.4375 Q1191.6406,438.4375 1191.875,438.7031 Q1192.1094,438.9531 1192.1094,439.5625 L1192.1094,441.0156 Q1192.1094,441.625 1191.875,441.8906 Q1191.6406,442.1563 1191.2656,442.1563 Q1190.9219,442.1563 1190.7188,441.9531 Q1190.5156,441.7656 1190.4063,441.25 Q1190.3594,440.8906 1190.1719,440.7031 Q1189.8438,440.3281 1189.2344,440.1094 Q1188.625,439.8906 1188,439.8906 Q1187.2344,439.8906 1186.5938,440.2188 Q1185.9688,440.5469 1185.4688,441.2969 Q1184.9844,442.0469 1184.9844,443.0781 L1184.9844,444.1719 Q1184.9844,445.4063 1185.875,446.2344 Q1186.7656,447.0469 1188.3594,447.0469 Q1189.2969,447.0469 1189.9531,446.7969 Q1190.3438,446.6406 1190.7656,446.2031 Q1191.0313,445.9375 1191.1719,445.8594 Q1191.3281,445.7813 1191.5313,445.7813 Q1191.8594,445.7813 1192.1094,446.0469 Q1192.375,446.2969 1192.375,446.6406 Q1192.375,446.9844 1192.0313,447.3906 Q1191.5313,447.9688 1190.7344,448.2969 Q1189.6563,448.75 1188.3594,448.75 Q1186.8438,448.75 1185.6406,448.125 Q1184.6563,447.625 1183.9688,446.5625 Q1183.2813,445.4844 1183.2813,444.2031 L1183.2813,443.0469 Q1183.2813,441.7188 1183.8906,440.5781 Q1184.5156,439.4219 1185.6094,438.8125 Q1186.7031,438.1875 1187.9375,438.1875 Q1188.6719,438.1875 1189.3125,438.3594 Q1189.9688,438.5156 1190.5156,438.875 Z " fill="#000000"/><text fill="#000000" font-family="sans-serif" font-size="14" lengthAdjust="spacing" textLength="80" x="1208.25" y="448.7285">Organization</text><line style="stroke:#181818;stroke-width:0.5;" x1="897" x2="1567" y1="459" y2="459"/><text fill="#000000" font-family="sans-serif" font-size="14" lengthAdjust="spacing" textLength="81" x="902" y="477.5332">-String name</text><text fill="#000000" font-family="sans-serif" font-size="14" lengthAdjust="spacing" textLength="114" x="902" y="495.1426">-String vatNumber</text><text fill="#000000" font-family="sans-serif" font-size="14" lengthAdjust="spacing" textLength="86" x="902" y="512.752">-String phone</text><text fill="#000000" font-family="sans-serif" font-size="14" lengthAdjust="spacing" textLength="79" x="902" y="530.3613">-String email</text><text fill="#000000" font-family="sans-serif" font-size="14" lengthAdjust="spacing" textLength="151" x="902" y="547.9707">-Address postalAddress</text><line style="stroke:#181818;stroke-width:0.5;" x1="897" x2="1567" y1="555.0469" y2="555.0469"/><text fill="#000000" font-family="sans-serif" font-size="14" lengthAdjust="spacing" textLength="163" x="902" y="573.5801">-addEmployee(Employee)</text><text fill="#000000" font-family="sans-serif" font-size="14" lengthAdjust="spacing" textLength="188" x="902" y="591.1895">-validateEmployee(Employee)</text><text fill="#000000" font-family="sans-serif" font-size="14" lengthAdjust="spacing" textLength="453" x="902" y="608.7988">+Organization(name, vatNumber, webSite, phone, email, postalAddress)</text><text fill="#000000" font-family="sans-serif" font-size="14" lengthAdjust="spacing" textLength="660" x="902" y="626.4082">+createEmployee(name,birthdate,admission date,Address,phone,email,Id doctype,Id number,taxpayer id)</text><text fill="#000000" font-family="sans-serif" font-size="14" lengthAdjust="spacing" textLength="147" x="902" y="644.0176">-getUserByEmail(email)</text></g><!--class OrganizationRepository--><g id="elem_OrganizationRepository"><rect codeLine="58" fill="#F1F1F1" height="65.6094" id="OrganizationRepository" rx="2.5" ry="2.5" style="stroke:#181818;stroke-width:0.5;" width="275" x="1228.5" y="226.5"/><ellipse cx="1287.75" cy="242.5" fill="#ADD1B2" rx="11" ry="11" style="stroke:#181818;stroke-width:1.0;"/><path d="M1290.5156,238.375 Q1290.6719,238.1563 1290.8594,238.0469 Q1291.0469,237.9375 1291.2656,237.9375 Q1291.6406,237.9375 1291.875,238.2031 Q1292.1094,238.4531 1292.1094,239.0625 L1292.1094,240.5156 Q1292.1094,241.125 1291.875,241.3906 Q1291.6406,241.6563 1291.2656,241.6563 Q1290.9219,241.6563 1290.7188,241.4531 Q1290.5156,241.2656 1290.4063,240.75 Q1290.3594,240.3906 1290.1719,240.2031 Q1289.8438,239.8281 1289.2344,239.6094 Q1288.625,239.3906 1288,239.3906 Q1287.2344,239.3906 1286.5938,239.7188 Q1285.9688,240.0469 1285.4688,240.7969 Q1284.9844,241.5469 1284.9844,242.5781 L1284.9844,243.6719 Q1284.9844,244.9063 1285.875,245.7344 Q1286.7656,246.5469 1288.3594,246.5469 Q1289.2969,246.5469 1289.9531,246.2969 Q1290.3438,246.1406 1290.7656,245.7031 Q1291.0313,245.4375 1291.1719,245.3594 Q1291.3281,245.2813 1291.5313,245.2813 Q1291.8594,245.2813 1292.1094,245.5469 Q1292.375,245.7969 1292.375,246.1406 Q1292.375,246.4844 1292.0313,246.8906 Q1291.5313,247.4688 1290.7344,247.7969 Q1289.6563,248.25 1288.3594,248.25 Q1286.8438,248.25 1285.6406,247.625 Q1284.6563,247.125 1283.9688,246.0625 Q1283.2813,244.9844 1283.2813,243.7031 L1283.2813,242.5469 Q1283.2813,241.2188 1283.8906,240.0781 Q1284.5156,238.9219 1285.6094,238.3125 Q1286.7031,237.6875 1287.9375,237.6875 Q1288.6719,237.6875 1289.3125,237.8594 Q1289.9688,238.0156 1290.5156,238.375 Z " fill="#000000"/><text fill="#000000" font-family="sans-serif" font-size="14" lengthAdjust="spacing" textLength="148" x="1308.25" y="248.2285">OrganizationRepository</text><line style="stroke:#181818;stroke-width:0.5;" x1="1229.5" x2="1502.5" y1="258.5" y2="258.5"/><line style="stroke:#181818;stroke-width:0.5;" x1="1229.5" x2="1502.5" y1="266.5" y2="266.5"/><text fill="#000000" font-family="sans-serif" font-size="14" lengthAdjust="spacing" textLength="263" x="1234.5" y="285.0332">+getOrganizationByEmployeeEmail(email)</text></g><!--class Repositories--><g id="elem_Repositories"><rect codeLine="62" fill="#F1F1F1" height="136.0469" id="Repositories" rx="2.5" ry="2.5" style="stroke:#181818;stroke-width:0.5;" width="208" x="1262" y="21"/><ellipse cx="1322.25" cy="37" fill="#ADD1B2" rx="11" ry="11" style="stroke:#181818;stroke-width:1.0;"/><path d="M1325.0156,32.875 Q1325.1719,32.6563 1325.3594,32.5469 Q1325.5469,32.4375 1325.7656,32.4375 Q1326.1406,32.4375 1326.375,32.7031 Q1326.6094,32.9531 1326.6094,33.5625 L1326.6094,35.0156 Q1326.6094,35.625 1326.375,35.8906 Q1326.1406,36.1563 1325.7656,36.1563 Q1325.4219,36.1563 1325.2188,35.9531 Q1325.0156,35.7656 1324.9063,35.25 Q1324.8594,34.8906 1324.6719,34.7031 Q1324.3438,34.3281 1323.7344,34.1094 Q1323.125,33.8906 1322.5,33.8906 Q1321.7344,33.8906 1321.0938,34.2188 Q1320.4688,34.5469 1319.9688,35.2969 Q1319.4844,36.0469 1319.4844,37.0781 L1319.4844,38.1719 Q1319.4844,39.4063 1320.375,40.2344 Q1321.2656,41.0469 1322.8594,41.0469 Q1323.7969,41.0469 1324.4531,40.7969 Q1324.8438,40.6406 1325.2656,40.2031 Q1325.5313,39.9375 1325.6719,39.8594 Q1325.8281,39.7813 1326.0313,39.7813 Q1326.3594,39.7813 1326.6094,40.0469 Q1326.875,40.2969 1326.875,40.6406 Q1326.875,40.9844 1326.5313,41.3906 Q1326.0313,41.9688 1325.2344,42.2969 Q1324.1563,42.75 1322.8594,42.75 Q1321.3438,42.75 1320.1406,42.125 Q1319.1563,41.625 1318.4688,40.5625 Q1317.7813,39.4844 1317.7813,38.2031 L1317.7813,37.0469 Q1317.7813,35.7188 1318.3906,34.5781 Q1319.0156,33.4219 1320.1094,32.8125 Q1321.2031,32.1875 1322.4375,32.1875 Q1323.1719,32.1875 1323.8125,32.3594 Q1324.4688,32.5156 1325.0156,32.875 Z " fill="#000000"/><text fill="#000000" font-family="sans-serif" font-size="14" lengthAdjust="spacing" textLength="79" x="1342.75" y="42.7285">Repositories</text><line style="stroke:#181818;stroke-width:0.5;" x1="1263" x2="1469" y1="53" y2="53"/><line style="stroke:#181818;stroke-width:0.5;" x1="1263" x2="1469" y1="61" y2="61"/><text fill="#000000" font-family="sans-serif" font-size="14" lengthAdjust="spacing" textLength="94" x="1268" y="79.5332">-Repositories()</text><text fill="#000000" font-family="sans-serif" font-size="14" lengthAdjust="spacing" textLength="182" x="1268" y="97.1426">+getInstance() : Repositories</text><text fill="#000000" font-family="sans-serif" font-size="14" lengthAdjust="spacing" textLength="186" x="1268" y="114.752">+getOrganizationRepository()</text><text fill="#000000" font-family="sans-serif" font-size="14" lengthAdjust="spacing" textLength="196" x="1268" y="132.3613">+getAuthenticationRepository()</text><text fill="#000000" font-family="sans-serif" font-size="14" lengthAdjust="spacing" textLength="128" x="1268" y="149.9707">+getJobRepository()</text></g><!--class JobRepository--><g id="elem_JobRepository"><rect codeLine="69" fill="#F1F1F1" height="65.6094" id="JobRepository" rx="2.5" ry="2.5" style="stroke:#181818;stroke-width:0.5;" width="122" x="1563" y="331"/><ellipse cx="1578" cy="347" fill="#ADD1B2" rx="11" ry="11" style="stroke:#181818;stroke-width:1.0;"/><path d="M1580.7656,342.875 Q1580.9219,342.6563 1581.1094,342.5469 Q1581.2969,342.4375 1581.5156,342.4375 Q1581.8906,342.4375 1582.125,342.7031 Q1582.3594,342.9531 1582.3594,343.5625 L1582.3594,345.0156 Q1582.3594,345.625 1582.125,345.8906 Q1581.8906,346.1563 1581.5156,346.1563 Q1581.1719,346.1563 1580.9688,345.9531 Q1580.7656,345.7656 1580.6563,345.25 Q1580.6094,344.8906 1580.4219,344.7031 Q1580.0938,344.3281 1579.4844,344.1094 Q1578.875,343.8906 1578.25,343.8906 Q1577.4844,343.8906 1576.8438,344.2188 Q1576.2188,344.5469 1575.7188,345.2969 Q1575.2344,346.0469 1575.2344,347.0781 L1575.2344,348.1719 Q1575.2344,349.4063 1576.125,350.2344 Q1577.0156,351.0469 1578.6094,351.0469 Q1579.5469,351.0469 1580.2031,350.7969 Q1580.5938,350.6406 1581.0156,350.2031 Q1581.2813,349.9375 1581.4219,349.8594 Q1581.5781,349.7813 1581.7813,349.7813 Q1582.1094,349.7813 1582.3594,350.0469 Q1582.625,350.2969 1582.625,350.6406 Q1582.625,350.9844 1582.2813,351.3906 Q1581.7813,351.9688 1580.9844,352.2969 Q1579.9063,352.75 1578.6094,352.75 Q1577.0938,352.75 1575.8906,352.125 Q1574.9063,351.625 1574.2188,350.5625 Q1573.5313,349.4844 1573.5313,348.2031 L1573.5313,347.0469 Q1573.5313,345.7188 1574.1406,344.5781 Q1574.7656,343.4219 1575.8594,342.8125 Q1576.9531,342.1875 1578.1875,342.1875 Q1578.9219,342.1875 1579.5625,342.3594 Q1580.2188,342.5156 1580.7656,342.875 Z " fill="#000000"/><text fill="#000000" font-family="sans-serif" font-size="14" lengthAdjust="spacing" textLength="90" x="1592" y="352.7285">JobRepository</text><line style="stroke:#181818;stroke-width:0.5;" x1="1564" x2="1684" y1="363" y2="363"/><line style="stroke:#181818;stroke-width:0.5;" x1="1564" x2="1684" y1="371" y2="371"/><text fill="#000000" font-family="sans-serif" font-size="14" lengthAdjust="spacing" textLength="82" x="1569" y="389.5332">+getJobList()</text></g><!--class CreateEmployeeController--><g id="elem_CreateEmployeeController"><rect codeLine="75" fill="#F1F1F1" height="83.2188" id="CreateEmployeeController" rx="2.5" ry="2.5" style="stroke:#181818;stroke-width:0.5;" width="699" x="459.5" y="47.5"/><ellipse cx="721.25" cy="63.5" fill="#ADD1B2" rx="11" ry="11" style="stroke:#181818;stroke-width:1.0;"/><path d="M724.0156,59.375 Q724.1719,59.1563 724.3594,59.0469 Q724.5469,58.9375 724.7656,58.9375 Q725.1406,58.9375 725.375,59.2031 Q725.6094,59.4531 725.6094,60.0625 L725.6094,61.5156 Q725.6094,62.125 725.375,62.3906 Q725.1406,62.6563 724.7656,62.6563 Q724.4219,62.6563 724.2188,62.4531 Q724.0156,62.2656 723.9063,61.75 Q723.8594,61.3906 723.6719,61.2031 Q723.3438,60.8281 722.7344,60.6094 Q722.125,60.3906 721.5,60.3906 Q720.7344,60.3906 720.0938,60.7188 Q719.4688,61.0469 718.9688,61.7969 Q718.4844,62.5469 718.4844,63.5781 L718.4844,64.6719 Q718.4844,65.9063 719.375,66.7344 Q720.2656,67.5469 721.8594,67.5469 Q722.7969,67.5469 723.4531,67.2969 Q723.8438,67.1406 724.2656,66.7031 Q724.5313,66.4375 724.6719,66.3594 Q724.8281,66.2813 725.0313,66.2813 Q725.3594,66.2813 725.6094,66.5469 Q725.875,66.7969 725.875,67.1406 Q725.875,67.4844 725.5313,67.8906 Q725.0313,68.4688 724.2344,68.7969 Q723.1563,69.25 721.8594,69.25 Q720.3438,69.25 719.1406,68.625 Q718.1563,68.125 717.4688,67.0625 Q716.7813,65.9844 716.7813,64.7031 L716.7813,63.5469 Q716.7813,62.2188 717.3906,61.0781 Q718.0156,59.9219 719.1094,59.3125 Q720.2031,58.6875 721.4375,58.6875 Q722.1719,58.6875 722.8125,58.8594 Q723.4688,59.0156 724.0156,59.375 Z " fill="#000000"/><text fill="#000000" font-family="sans-serif" font-size="14" lengthAdjust="spacing" textLength="167" x="741.75" y="69.2285">CreateEmployeeController</text><line style="stroke:#181818;stroke-width:0.5;" x1="460.5" x2="1157.5" y1="79.5" y2="79.5"/><line style="stroke:#181818;stroke-width:0.5;" x1="460.5" x2="1157.5" y1="87.5" y2="87.5"/><text fill="#000000" font-family="sans-serif" font-size="14" lengthAdjust="spacing" textLength="185" x="465.5" y="106.0332">+CreateEmployeeController()</text><text fill="#000000" font-family="sans-serif" font-size="14" lengthAdjust="spacing" textLength="687" x="465.5" y="123.6426">+createEmployee(name,birthdate,admission date,Address,phone,email,Id doctype,Id number,taxpayer id, job)</text></g><g id="elem_GMN11"><path d="M6,67.5 L6,110.2031 L240,110.2031 L240,77.5 L230,67.5 L6,67.5 " fill="#FEFFDD" style="stroke:#181818;stroke-width:0.5;"/><path d="M230,67.5 L230,77.5 L240,77.5 L230,67.5 " fill="#FEFFDD" style="stroke:#181818;stroke-width:1.0;"/><text fill="#000000" font-family="sans-serif" font-size="13" lengthAdjust="spacing" textLength="213" x="12" y="85.9951">- userEmail and userRole is obtained</text><text fill="#000000" font-family="sans-serif" font-size="13" lengthAdjust="spacing" textLength="129" x="12" y="102.3467">from the user session.</text></g><!--class CreateEmployeeUI--><g id="elem_CreateEmployeeUI"><rect codeLine="87" fill="#F1F1F1" height="48" id="CreateEmployeeUI" rx="2.5" ry="2.5" style="stroke:#181818;stroke-width:0.5;" width="149" x="275.5" y="65"/><ellipse cx="290.5" cy="81" fill="#ADD1B2" rx="11" ry="11" style="stroke:#181818;stroke-width:1.0;"/><path d="M293.2656,76.875 Q293.4219,76.6563 293.6094,76.5469 Q293.7969,76.4375 294.0156,76.4375 Q294.3906,76.4375 294.625,76.7031 Q294.8594,76.9531 294.8594,77.5625 L294.8594,79.0156 Q294.8594,79.625 294.625,79.8906 Q294.3906,80.1563 294.0156,80.1563 Q293.6719,80.1563 293.4688,79.9531 Q293.2656,79.7656 293.1563,79.25 Q293.1094,78.8906 292.9219,78.7031 Q292.5938,78.3281 291.9844,78.1094 Q291.375,77.8906 290.75,77.8906 Q289.9844,77.8906 289.3438,78.2188 Q288.7188,78.5469 288.2188,79.2969 Q287.7344,80.0469 287.7344,81.0781 L287.7344,82.1719 Q287.7344,83.4063 288.625,84.2344 Q289.5156,85.0469 291.1094,85.0469 Q292.0469,85.0469 292.7031,84.7969 Q293.0938,84.6406 293.5156,84.2031 Q293.7813,83.9375 293.9219,83.8594 Q294.0781,83.7813 294.2813,83.7813 Q294.6094,83.7813 294.8594,84.0469 Q295.125,84.2969 295.125,84.6406 Q295.125,84.9844 294.7813,85.3906 Q294.2813,85.9688 293.4844,86.2969 Q292.4063,86.75 291.1094,86.75 Q289.5938,86.75 288.3906,86.125 Q287.4063,85.625 286.7188,84.5625 Q286.0313,83.4844 286.0313,82.2031 L286.0313,81.0469 Q286.0313,79.7188 286.6406,78.5781 Q287.2656,77.4219 288.3594,76.8125 Q289.4531,76.1875 290.6875,76.1875 Q291.4219,76.1875 292.0625,76.3594 Q292.7188,76.5156 293.2656,76.875 Z " fill="#000000"/><text fill="#000000" font-family="sans-serif" font-size="14" lengthAdjust="spacing" textLength="117" x="304.5" y="86.7285">CreateEmployeeUI</text><line style="stroke:#181818;stroke-width:0.5;" x1="276.5" x2="423.5" y1="97" y2="97"/><line style="stroke:#181818;stroke-width:0.5;" x1="276.5" x2="423.5" y1="105" y2="105"/></g><!--link GMN11 to CreateEmployeeController--><g id="link_GMN11_CreateEmployeeController"><path d="M162.67,67.41 C207.85,42.82 275.5,6 275.5,6 C275.5,6 424.5,6 424.5,6 C424.5,6 520.44,26.71 616.47,47.44 " fill="none" id="GMN11-CreateEmployeeController" style="stroke:#181818;stroke-width:1.0;stroke-dasharray:7.0,7.0;"/></g><!--link Repositories to Repositories--><g id="link_Repositories_Repositories"><path codeLine="90" d="M1470.26,71.44 C1490.58,73.48 1505,79.33 1505,89 C1505,98.67 1496.55,103.9207 1476.23,105.9607 " fill="none" id="Repositories-to-Repositories" style="stroke:#181818;stroke-width:1.0;"/><polygon fill="#181818" points="1470.26,106.56,1479.6146,109.641,1475.235,106.0605,1478.8154,101.681,1470.26,106.56" style="stroke:#181818;stroke-width:1.0;"/><text fill="#000000" font-family="sans-serif" font-size="13" lengthAdjust="spacing" textLength="49" x="1511" y="94.4951">instance</text></g><!--link CreateEmployeeUI to CreateEmployeeController--><g id="link_CreateEmployeeUI_CreateEmployeeController"><path codeLine="91" d="M424.71,89 C436.54,89 442.43,89 453.25,89 " fill="none" id="CreateEmployeeUI-to-CreateEmployeeController" style="stroke:#181818;stroke-width:1.0;stroke-dasharray:7.0,7.0;"/><polygon fill="#181818" points="459.25,89,450.25,85,454.25,89,450.25,93,459.25,89" style="stroke:#181818;stroke-width:1.0;"/></g><!--link CreateEmployeeController to Repositories--><g id="link_CreateEmployeeController_Repositories"><path codeLine="92" d="M1158.59,89 C1195.75,89 1225.1,89 1255.74,89 " fill="none" id="CreateEmployeeController-to-Repositories" style="stroke:#181818;stroke-width:1.0;stroke-dasharray:7.0,7.0;"/><polygon fill="#181818" points="1261.74,89,1252.74,85,1256.74,89,1252.74,93,1261.74,89" style="stroke:#181818;stroke-width:1.0;"/><text fill="#000000" font-family="sans-serif" font-size="13" lengthAdjust="spacing" textLength="67" x="1176.75" y="82.4951">repositories</text></g><!--link Repositories to OrganizationRepository--><g id="link_Repositories_OrganizationRepository"><path codeLine="93" d="M1366,157.08 C1366,180.94 1366,200.72 1366,220.32 " fill="none" id="Repositories-to-OrganizationRepository" style="stroke:#181818;stroke-width:1.0;"/><polygon fill="#181818" points="1366,226.32,1370,217.32,1366,221.32,1362,217.32,1366,226.32" style="stroke:#181818;stroke-width:1.0;"/><text fill="#000000" font-family="sans-serif" font-size="13" lengthAdjust="spacing" textLength="7" x="1358.2781" y="215.3983">1</text></g><!--link OrganizationRepository to Organization--><g id="link_OrganizationRepository_Organization"><path codeLine="94" d="M1350.5,292.6 C1334.62,325.49 1311.6293,373.0971 1288.2793,421.4471 " fill="none" id="OrganizationRepository-to-Organization" style="stroke:#181818;stroke-width:1.0;"/><polygon fill="#181818" points="1285.67,426.85,1293.1859,420.4851,1287.8444,422.3476,1285.982,417.0061,1285.67,426.85" style="stroke:#181818;stroke-width:1.0;"/><text fill="#000000" font-family="sans-serif" font-size="13" lengthAdjust="spacing" textLength="77" x="1332" y="369.4951">organizations</text><text fill="#000000" font-family="sans-serif" font-size="13" lengthAdjust="spacing" textLength="5" x="1284.108" y="416.2812">*</text></g><!--link AuthenticationRepository to UserSession--><g id="link_AuthenticationRepository_UserSession"><path codeLine="95" d="M930.19,259.5 C964.91,259.5 997.74,259.5 1030.81,259.5 " fill="none" id="AuthenticationRepository-to-UserSession" style="stroke:#181818;stroke-width:1.0;"/><polygon fill="#181818" points="1036.81,259.5,1027.81,255.5,1031.81,259.5,1027.81,263.5,1036.81,259.5" style="stroke:#181818;stroke-width:1.0;"/><text fill="#000000" font-family="sans-serif" font-size="13" lengthAdjust="spacing" textLength="70" x="948.5" y="252.9951">usersession</text><text fill="#000000" font-family="sans-serif" font-size="13" lengthAdjust="spacing" textLength="7" x="1022.0239" y="256.2389">1</text></g><!--link Repositories to AuthenticationRepository--><g id="link_Repositories_AuthenticationRepository"><path codeLine="96" d="M1261.83,126.73 C1217.57,142.34 1176,157 1176,157 C1176,157 1037.0706,198.3482 936.1906,228.3782 " fill="none" id="Repositories-to-AuthenticationRepository" style="stroke:#181818;stroke-width:1.0;"/><polygon fill="#181818" points="930.44,230.09,940.2072,231.356,935.2322,228.6635,937.9247,223.6885,930.44,230.09" style="stroke:#181818;stroke-width:1.0;"/><text fill="#000000" font-family="sans-serif" font-size="13" lengthAdjust="spacing" textLength="7" x="938.0151" y="224.7493">1</text></g><!--link Repositories to JobRepository--><g id="link_Repositories_JobRepository"><path codeLine="97" d="M1447.59,157.37 C1484.93,188.21 1521,218 1521,218 C1521,218 1567.3258,283.2082 1597.6658,325.9282 " fill="none" id="Repositories-to-JobRepository" style="stroke:#181818;stroke-width:1.0;"/><polygon fill="#181818" points="1601.14,330.82,1599.1899,321.1661,1598.2448,326.7435,1592.6675,325.7984,1601.14,330.82" style="stroke:#181818;stroke-width:1.0;"/><text fill="#000000" font-family="sans-serif" font-size="13" lengthAdjust="spacing" textLength="7" x="1588.7033" y="319.8983">1</text></g><!--link JobRepository to Job--><g id="link_JobRepository_Job"><path codeLine="98" d="M1623.25,397.28 C1621.24,484.04 1615.8788,715.5516 1613.8788,801.9916 " fill="none" id="JobRepository-to-Job" style="stroke:#181818;stroke-width:1.0;"/><polygon fill="#181818" points="1613.74,807.99,1617.9471,799.0849,1613.8557,802.9913,1609.9493,798.8999,1613.74,807.99" style="stroke:#181818;stroke-width:1.0;"/><text fill="#000000" font-family="sans-serif" font-size="13" lengthAdjust="spacing" textLength="57" x="1624" y="544.4951">aggregate</text><text fill="#000000" font-family="sans-serif" font-size="13" lengthAdjust="spacing" textLength="7" x="1615.493" y="418.1942">1</text><text fill="#000000" font-family="sans-serif" font-size="13" lengthAdjust="spacing" textLength="5" x="1608.377" y="797.1033">*</text></g><!--link Organization to Employee--><g id="link_Organization_Employee"><path codeLine="99" d="M1279.11,651.28 C1289.84,676.63 1298.9005,698.0349 1309.6305,723.3749 " fill="none" id="Organization-to-Employee" style="stroke:#181818;stroke-width:1.0;"/><polygon fill="#181818" points="1311.97,728.9,1312.1441,719.0527,1310.0204,724.2958,1304.7773,722.1721,1311.97,728.9" style="stroke:#181818;stroke-width:1.0;"/><text fill="#000000" font-family="sans-serif" font-size="13" lengthAdjust="spacing" textLength="30" x="1301" y="695.4951">owns</text><text fill="#000000" font-family="sans-serif" font-size="13" lengthAdjust="spacing" textLength="7" x="1274.9038" y="672.4888">1</text><text fill="#000000" font-family="sans-serif" font-size="13" lengthAdjust="spacing" textLength="5" x="1303.4874" y="717.9596">*</text></g><!--link Employee to Job--><g id="link_Employee_Job"><path codeLine="100" d="M1453.58,841 C1492.09,841 1528.85,841 1560.39,841 " fill="none" id="Employee-to-Job" style="stroke:#181818;stroke-width:1.0;"/><polygon fill="#181818" points="1566.39,841,1557.39,837,1561.39,841,1557.39,845,1566.39,841" style="stroke:#181818;stroke-width:1.0;"/><text fill="#000000" font-family="sans-serif" font-size="13" lengthAdjust="spacing" textLength="26" x="1497" y="834.4951">have</text><text fill="#000000" font-family="sans-serif" font-size="13" lengthAdjust="spacing" textLength="7" x="1461.3958" y="837.8679">1</text><text fill="#000000" font-family="sans-serif" font-size="13" lengthAdjust="spacing" textLength="7" x="1551.4037" y="837.2793">1</text></g><!--SRC=[lLLBJzmm4BxxLuoui9I0sYi790eSKg5MOejwTkBPn2Mn8zk1BeZ_th7pM5iazDQSudb-yysCVMmVfUguuIsqMkcoDhf5SAP7Tj1ql7pa5MxTla4mM3gkgYOsi3KN-bcg2dQyiR6caGhTlaFeTBFt1tQyeDJ6QHPvbGstziev8ulUOLvgjPKl29yPEsvmvy1fCBAg7GZfuKYj60i-SDMx6fMJ9VVIU-oqbKwRFNjbGDyfLEYkUsF8vi6YsQArPBSvOMzJX4WyEqbxfwiAHQv-ILVVwmR9OuxdFN8nn9YYVDC53DvdiAKwY1h5MpoakMsxHkyH5wq6oGrt28KqhXRq5mkvQ6L0297cIWX3k8bfwtWpdjBWNQqLfY9ikMnIKNu3GfVWExEaw5iY3rJV5cXI_K_-f-DxD6GuAZmDltKHC_F3L5p9bz2V3ueV9K_SVL_8z8z2FgA22p5nlvb-JaRT4s-aPtJ5u3G1l_5eimF239wns4f7iW0l6o1bAOefKcamJXHYpRtEqWPdesysn1t2vi8tmpV9_mxjoDpK0IccciO1_Rg_zMwRu7p2GaVUD-ImC10jJ6pXumoOatZpNCyH9DgvlR4mtfnS4JEgf6s2YyHeEVS1NHnaRULZ6vh3HF5sMDE3_9Kb3dVIkit0r61ydRJiMYjdTDCGsHDLQmQR_zRqp6_RW5bfkYZ2RQbtgyZ6_lGq8A6Tm9K89t_7qRK7kd2SRcaH37VqE02H7Ip03fVaEKFoyTdOCb4FEH54W9B9EBjC9-K2v3WBx9tt-UKw_jMUdBzBOEBvIi4GcgClHokRm5OM97XzIhqeZOwEbgqD9umfezU6V3sl8wtB25UVjqNhPBfPSWhwgG9_Iry0hog3bNzFaefYm_dHeZAVgRhv78pcfAIk-PEVXxy0]--></g></svg>