<?xml version="1.0" encoding="us-ascii" standalone="no"?><svg xmlns="http://www.w3.org/2000/svg" xmlns:xlink="http://www.w3.org/1999/xlink" contentStyleType="text/css" height="346px" preserveAspectRatio="none" style="width:189px;height:346px;background:#FFFFFF;" version="1.1" viewBox="0 0 189 346" width="189px" zoomAndPan="magnify"><defs/><g><!--class VFM--><g id="elem_VFM"><rect codeLine="2" fill="#F1F1F1" height="48" id="VFM" rx="2.5" ry="2.5" style="stroke:#181818;stroke-width:0.5;" width="61" x="64" y="7"/><ellipse cx="79" cy="23" fill="#ADD1B2" rx="11" ry="11" style="stroke:#181818;stroke-width:1.0;"/><path d="M81.7656,18.875 Q81.9219,18.6563 82.1094,18.5469 Q82.2969,18.4375 82.5156,18.4375 Q82.8906,18.4375 83.125,18.7031 Q83.3594,18.9531 83.3594,19.5625 L83.3594,21.0156 Q83.3594,21.625 83.125,21.8906 Q82.8906,22.1563 82.5156,22.1563 Q82.1719,22.1563 81.9688,21.9531 Q81.7656,21.7656 81.6563,21.25 Q81.6094,20.8906 81.4219,20.7031 Q81.0938,20.3281 80.4844,20.1094 Q79.875,19.8906 79.25,19.8906 Q78.4844,19.8906 77.8438,20.2188 Q77.2188,20.5469 76.7188,21.2969 Q76.2344,22.0469 76.2344,23.0781 L76.2344,24.1719 Q76.2344,25.4063 77.125,26.2344 Q78.0156,27.0469 79.6094,27.0469 Q80.5469,27.0469 81.2031,26.7969 Q81.5938,26.6406 82.0156,26.2031 Q82.2813,25.9375 82.4219,25.8594 Q82.5781,25.7813 82.7813,25.7813 Q83.1094,25.7813 83.3594,26.0469 Q83.625,26.2969 83.625,26.6406 Q83.625,26.9844 83.2813,27.3906 Q82.7813,27.9688 81.9844,28.2969 Q80.9063,28.75 79.6094,28.75 Q78.0938,28.75 76.8906,28.125 Q75.9063,27.625 75.2188,26.5625 Q74.5313,25.4844 74.5313,24.2031 L74.5313,23.0469 Q74.5313,21.7188 75.1406,20.5781 Q75.7656,19.4219 76.8594,18.8125 Q77.9531,18.1875 79.1875,18.1875 Q79.9219,18.1875 80.5625,18.3594 Q81.2188,18.5156 81.7656,18.875 Z " fill="#000000"/><text fill="#000000" font-family="sans-serif" font-size="14" lengthAdjust="spacing" textLength="29" x="93" y="28.7285">VFM</text><line style="stroke:#181818;stroke-width:0.5;" x1="65" x2="124" y1="39" y2="39"/><line style="stroke:#181818;stroke-width:0.5;" x1="65" x2="124" y1="47" y2="47"/></g><!--class Vehicles--><g id="elem_Vehicles"><rect codeLine="5" fill="#F1F1F1" height="206.4844" id="Vehicles" rx="2.5" ry="2.5" style="stroke:#181818;stroke-width:0.5;" width="175" x="7" y="133"/><ellipse cx="63.75" cy="149" fill="#ADD1B2" rx="11" ry="11" style="stroke:#181818;stroke-width:1.0;"/><path d="M66.5156,144.875 Q66.6719,144.6563 66.8594,144.5469 Q67.0469,144.4375 67.2656,144.4375 Q67.6406,144.4375 67.875,144.7031 Q68.1094,144.9531 68.1094,145.5625 L68.1094,147.0156 Q68.1094,147.625 67.875,147.8906 Q67.6406,148.1563 67.2656,148.1563 Q66.9219,148.1563 66.7188,147.9531 Q66.5156,147.7656 66.4063,147.25 Q66.3594,146.8906 66.1719,146.7031 Q65.8438,146.3281 65.2344,146.1094 Q64.625,145.8906 64,145.8906 Q63.2344,145.8906 62.5938,146.2188 Q61.9688,146.5469 61.4688,147.2969 Q60.9844,148.0469 60.9844,149.0781 L60.9844,150.1719 Q60.9844,151.4063 61.875,152.2344 Q62.7656,153.0469 64.3594,153.0469 Q65.2969,153.0469 65.9531,152.7969 Q66.3438,152.6406 66.7656,152.2031 Q67.0313,151.9375 67.1719,151.8594 Q67.3281,151.7813 67.5313,151.7813 Q67.8594,151.7813 68.1094,152.0469 Q68.375,152.2969 68.375,152.6406 Q68.375,152.9844 68.0313,153.3906 Q67.5313,153.9688 66.7344,154.2969 Q65.6563,154.75 64.3594,154.75 Q62.8438,154.75 61.6406,154.125 Q60.6563,153.625 59.9688,152.5625 Q59.2813,151.4844 59.2813,150.2031 L59.2813,149.0469 Q59.2813,147.7188 59.8906,146.5781 Q60.5156,145.4219 61.6094,144.8125 Q62.7031,144.1875 63.9375,144.1875 Q64.6719,144.1875 65.3125,144.3594 Q65.9688,144.5156 66.5156,144.875 Z " fill="#000000"/><text fill="#000000" font-family="sans-serif" font-size="14" lengthAdjust="spacing" textLength="53" x="84.25" y="154.7285">Vehicles</text><line style="stroke:#181818;stroke-width:0.5;" x1="8" x2="181" y1="165" y2="165"/><rect fill="none" height="6" style="stroke:#C82930;stroke-width:1.0;" width="6" x="15" y="176.3047"/><text fill="#000000" font-family="sans-serif" font-size="14" lengthAdjust="spacing" textLength="37" x="27" y="183.5332">brand</text><rect fill="none" height="6" style="stroke:#C82930;stroke-width:1.0;" width="6" x="15" y="193.9141"/><text fill="#000000" font-family="sans-serif" font-size="14" lengthAdjust="spacing" textLength="38" x="27" y="201.1426">model</text><rect fill="none" height="6" style="stroke:#C82930;stroke-width:1.0;" width="6" x="15" y="211.5234"/><text fill="#000000" font-family="sans-serif" font-size="14" lengthAdjust="spacing" textLength="27" x="27" y="218.752">type</text><rect fill="none" height="6" style="stroke:#C82930;stroke-width:1.0;" width="6" x="15" y="229.1328"/><text fill="#000000" font-family="sans-serif" font-size="14" lengthAdjust="spacing" textLength="69" x="27" y="236.3613">tareWeight</text><rect fill="none" height="6" style="stroke:#C82930;stroke-width:1.0;" width="6" x="15" y="246.7422"/><text fill="#000000" font-family="sans-serif" font-size="14" lengthAdjust="spacing" textLength="79" x="27" y="253.9707">grossWeight</text><rect fill="none" height="6" style="stroke:#C82930;stroke-width:1.0;" width="6" x="15" y="264.3516"/><text fill="#000000" font-family="sans-serif" font-size="14" lengthAdjust="spacing" textLength="72" x="27" y="271.5801">currentKms</text><rect fill="none" height="6" style="stroke:#C82930;stroke-width:1.0;" width="6" x="15" y="281.9609"/><text fill="#000000" font-family="sans-serif" font-size="14" lengthAdjust="spacing" textLength="101" x="27" y="289.1895">registrationDate</text><rect fill="none" height="6" style="stroke:#C82930;stroke-width:1.0;" width="6" x="15" y="299.5703"/><text fill="#000000" font-family="sans-serif" font-size="14" lengthAdjust="spacing" textLength="97" x="27" y="306.7988">acquisitionDate</text><rect fill="none" height="6" style="stroke:#C82930;stroke-width:1.0;" width="6" x="15" y="317.1797"/><text fill="#000000" font-family="sans-serif" font-size="14" lengthAdjust="spacing" textLength="149" x="27" y="324.4082">maintenanceFrequency</text><line style="stroke:#181818;stroke-width:0.5;" x1="8" x2="181" y1="331.4844" y2="331.4844"/></g><!--link VFM to Vehicles--><g id="link_VFM_Vehicles"><path codeLine="17" d="M94.5,55.29 C94.5,74.66 94.5,97.67 94.5,126.77 " fill="none" id="VFM-to-Vehicles" style="stroke:#181818;stroke-width:1.0;"/><polygon fill="#181818" points="94.5,132.77,98.5,123.77,94.5,127.77,90.5,123.77,94.5,132.77" style="stroke:#181818;stroke-width:1.0;"/><text fill="#000000" font-family="sans-serif" font-size="13" lengthAdjust="spacing" textLength="53" x="95.5" y="99.4951">manages</text></g><!--SRC=[JOwn3e9G34NtznKDEp_Wu6HOZAlEjJIF9b2aBGCn_hl2m-XspbdkfHxTuTfSu9bUAL5HxeHwzay3gE5kg2riE8mjzmLZUV1EQ7nZoLqKppQw_mUQpLZZF7XnuomUXY6ZdZ1uYqZJB2xVjk-XQB2Y4ZV6qynA2wn7ryTrVVnTFK0re69chz8R]--></g></svg>