<?xml version="1.0" encoding="us-ascii" standalone="no"?><svg xmlns="http://www.w3.org/2000/svg" xmlns:xlink="http://www.w3.org/1999/xlink" contentStyleType="text/css" height="1349px" preserveAspectRatio="none" style="width:2211px;height:1349px;background:#FFFFFF;" version="1.1" viewBox="0 0 2211 1349" width="2211px" zoomAndPan="magnify"><defs/><g><!--class ConsultTasksUI--><g id="elem_ConsultTasksUI"><rect codeLine="12" fill="#F1F1F1" height="103.8633" id="ConsultTasksUI" rx="2.5" ry="2.5" style="stroke:#181818;stroke-width:0.5;" width="237" x="7" y="7"/><ellipse cx="72.25" cy="23" fill="#ADD1B2" rx="11" ry="11" style="stroke:#181818;stroke-width:1.0;"/><path d="M75.0156,18.875 Q75.1719,18.6563 75.3594,18.5469 Q75.5469,18.4375 75.7656,18.4375 Q76.1406,18.4375 76.375,18.7031 Q76.6094,18.9531 76.6094,19.5625 L76.6094,21.0156 Q76.6094,21.625 76.375,21.8906 Q76.1406,22.1563 75.7656,22.1563 Q75.4219,22.1563 75.2188,21.9531 Q75.0156,21.7656 74.9063,21.25 Q74.8594,20.8906 74.6719,20.7031 Q74.3438,20.3281 73.7344,20.1094 Q73.125,19.8906 72.5,19.8906 Q71.7344,19.8906 71.0938,20.2188 Q70.4688,20.5469 69.9688,21.2969 Q69.4844,22.0469 69.4844,23.0781 L69.4844,24.1719 Q69.4844,25.4063 70.375,26.2344 Q71.2656,27.0469 72.8594,27.0469 Q73.7969,27.0469 74.4531,26.7969 Q74.8438,26.6406 75.2656,26.2031 Q75.5313,25.9375 75.6719,25.8594 Q75.8281,25.7813 76.0313,25.7813 Q76.3594,25.7813 76.6094,26.0469 Q76.875,26.2969 76.875,26.6406 Q76.875,26.9844 76.5313,27.3906 Q76.0313,27.9688 75.2344,28.2969 Q74.1563,28.75 72.8594,28.75 Q71.3438,28.75 70.1406,28.125 Q69.1563,27.625 68.4688,26.5625 Q67.7813,25.4844 67.7813,24.2031 L67.7813,23.0469 Q67.7813,21.7188 68.3906,20.5781 Q69.0156,19.4219 70.1094,18.8125 Q71.2031,18.1875 72.4375,18.1875 Q73.1719,18.1875 73.8125,18.3594 Q74.4688,18.5156 75.0156,18.875 Z " fill="#000000"/><text fill="#000000" font-family="sans-serif" font-size="14" lengthAdjust="spacing" textLength="98" x="92.75" y="28.7969">ConsultTasksUI</text><line style="stroke:#181818;stroke-width:0.5;" x1="8" x2="243" y1="39" y2="39"/><line style="stroke:#181818;stroke-width:0.5;" x1="8" x2="243" y1="47" y2="47"/><text fill="#000000" font-family="sans-serif" font-size="14" lengthAdjust="spacing" textLength="225" x="13" y="66.1074">+displayTaskList(tasks: List&lt;Task&gt;)</text><text fill="#000000" font-family="sans-serif" font-size="14" lengthAdjust="spacing" textLength="138" x="13" y="84.7285">+requestDateRange()</text><text fill="#000000" font-family="sans-serif" font-size="14" lengthAdjust="spacing" textLength="169" x="13" y="103.3496">+requestTaskStatusFilter()</text></g><!--class ConsultTasksController--><g id="elem_ConsultTasksController"><rect codeLine="18" fill="#F1F1F1" height="85.2422" id="ConsultTasksController" rx="2.5" ry="2.5" style="stroke:#181818;stroke-width:0.5;" width="511" x="279" y="16.5"/><ellipse cx="456.25" cy="32.5" fill="#ADD1B2" rx="11" ry="11" style="stroke:#181818;stroke-width:1.0;"/><path d="M459.0156,28.375 Q459.1719,28.1563 459.3594,28.0469 Q459.5469,27.9375 459.7656,27.9375 Q460.1406,27.9375 460.375,28.2031 Q460.6094,28.4531 460.6094,29.0625 L460.6094,30.5156 Q460.6094,31.125 460.375,31.3906 Q460.1406,31.6563 459.7656,31.6563 Q459.4219,31.6563 459.2188,31.4531 Q459.0156,31.2656 458.9063,30.75 Q458.8594,30.3906 458.6719,30.2031 Q458.3438,29.8281 457.7344,29.6094 Q457.125,29.3906 456.5,29.3906 Q455.7344,29.3906 455.0938,29.7188 Q454.4688,30.0469 453.9688,30.7969 Q453.4844,31.5469 453.4844,32.5781 L453.4844,33.6719 Q453.4844,34.9063 454.375,35.7344 Q455.2656,36.5469 456.8594,36.5469 Q457.7969,36.5469 458.4531,36.2969 Q458.8438,36.1406 459.2656,35.7031 Q459.5313,35.4375 459.6719,35.3594 Q459.8281,35.2813 460.0313,35.2813 Q460.3594,35.2813 460.6094,35.5469 Q460.875,35.7969 460.875,36.1406 Q460.875,36.4844 460.5313,36.8906 Q460.0313,37.4688 459.2344,37.7969 Q458.1563,38.25 456.8594,38.25 Q455.3438,38.25 454.1406,37.625 Q453.1563,37.125 452.4688,36.0625 Q451.7813,34.9844 451.7813,33.7031 L451.7813,32.5469 Q451.7813,31.2188 452.3906,30.0781 Q453.0156,28.9219 454.1094,28.3125 Q455.2031,27.6875 456.4375,27.6875 Q457.1719,27.6875 457.8125,27.8594 Q458.4688,28.0156 459.0156,28.375 Z " fill="#000000"/><text fill="#000000" font-family="sans-serif" font-size="14" lengthAdjust="spacing" textLength="148" x="476.75" y="38.2969">ConsultTasksController</text><line style="stroke:#181818;stroke-width:0.5;" x1="280" x2="789" y1="48.5" y2="48.5"/><line style="stroke:#181818;stroke-width:0.5;" x1="280" x2="789" y1="56.5" y2="56.5"/><text fill="#000000" font-family="sans-serif" font-size="14" lengthAdjust="spacing" textLength="483" x="285" y="75.6074">+ConsultTasksController(employeeRepository, taskRepository, userSession)</text><text fill="#000000" font-family="sans-serif" font-size="14" lengthAdjust="spacing" textLength="499" x="285" y="94.2285">+consultTasks(startDate: Date, endDate: Date, status: TaskStatus): List&lt;Task&gt;</text></g><!--class Repositories--><g id="elem_Repositories"><rect codeLine="23" fill="#F1F1F1" height="103.8633" id="Repositories" rx="2.5" ry="2.5" style="stroke:#181818;stroke-width:0.5;" width="322" x="893.5" y="7"/><ellipse cx="1010.75" cy="23" fill="#ADD1B2" rx="11" ry="11" style="stroke:#181818;stroke-width:1.0;"/><path d="M1013.5156,18.875 Q1013.6719,18.6563 1013.8594,18.5469 Q1014.0469,18.4375 1014.2656,18.4375 Q1014.6406,18.4375 1014.875,18.7031 Q1015.1094,18.9531 1015.1094,19.5625 L1015.1094,21.0156 Q1015.1094,21.625 1014.875,21.8906 Q1014.6406,22.1563 1014.2656,22.1563 Q1013.9219,22.1563 1013.7188,21.9531 Q1013.5156,21.7656 1013.4063,21.25 Q1013.3594,20.8906 1013.1719,20.7031 Q1012.8438,20.3281 1012.2344,20.1094 Q1011.625,19.8906 1011,19.8906 Q1010.2344,19.8906 1009.5938,20.2188 Q1008.9688,20.5469 1008.4688,21.2969 Q1007.9844,22.0469 1007.9844,23.0781 L1007.9844,24.1719 Q1007.9844,25.4063 1008.875,26.2344 Q1009.7656,27.0469 1011.3594,27.0469 Q1012.2969,27.0469 1012.9531,26.7969 Q1013.3438,26.6406 1013.7656,26.2031 Q1014.0313,25.9375 1014.1719,25.8594 Q1014.3281,25.7813 1014.5313,25.7813 Q1014.8594,25.7813 1015.1094,26.0469 Q1015.375,26.2969 1015.375,26.6406 Q1015.375,26.9844 1015.0313,27.3906 Q1014.5313,27.9688 1013.7344,28.2969 Q1012.6563,28.75 1011.3594,28.75 Q1009.8438,28.75 1008.6406,28.125 Q1007.6563,27.625 1006.9688,26.5625 Q1006.2813,25.4844 1006.2813,24.2031 L1006.2813,23.0469 Q1006.2813,21.7188 1006.8906,20.5781 Q1007.5156,19.4219 1008.6094,18.8125 Q1009.7031,18.1875 1010.9375,18.1875 Q1011.6719,18.1875 1012.3125,18.3594 Q1012.9688,18.5156 1013.5156,18.875 Z " fill="#000000"/><text fill="#000000" font-family="sans-serif" font-size="14" lengthAdjust="spacing" textLength="79" x="1031.25" y="28.7969">Repositories</text><line style="stroke:#181818;stroke-width:0.5;" x1="894.5" x2="1214.5" y1="39" y2="39"/><line style="stroke:#181818;stroke-width:0.5;" x1="894.5" x2="1214.5" y1="47" y2="47"/><text fill="#000000" font-family="sans-serif" font-size="14" lengthAdjust="spacing" textLength="94" x="899.5" y="66.1074">-Repositories()</text><text fill="#000000" font-family="sans-serif" font-size="14" lengthAdjust="spacing" textLength="182" x="899.5" y="84.7285">+getInstance() : Repositories</text><text fill="#000000" font-family="sans-serif" font-size="14" lengthAdjust="spacing" textLength="310" x="899.5" y="103.3496">+getEmployeeRepository() : EmployeeRepository</text></g><!--class OrganizationRepository--><g id="elem_OrganizationRepository"><rect codeLine="29" fill="#F1F1F1" height="66.6211" id="OrganizationRepository" rx="2.5" ry="2.5" style="stroke:#181818;stroke-width:0.5;" width="242" x="932.5" y="181"/><ellipse cx="975.4" cy="197" fill="#ADD1B2" rx="11" ry="11" style="stroke:#181818;stroke-width:1.0;"/><path d="M978.1656,192.875 Q978.3219,192.6563 978.5094,192.5469 Q978.6969,192.4375 978.9156,192.4375 Q979.2906,192.4375 979.525,192.7031 Q979.7594,192.9531 979.7594,193.5625 L979.7594,195.0156 Q979.7594,195.625 979.525,195.8906 Q979.2906,196.1563 978.9156,196.1563 Q978.5719,196.1563 978.3688,195.9531 Q978.1656,195.7656 978.0563,195.25 Q978.0094,194.8906 977.8219,194.7031 Q977.4938,194.3281 976.8844,194.1094 Q976.275,193.8906 975.65,193.8906 Q974.8844,193.8906 974.2438,194.2188 Q973.6188,194.5469 973.1188,195.2969 Q972.6344,196.0469 972.6344,197.0781 L972.6344,198.1719 Q972.6344,199.4063 973.525,200.2344 Q974.4156,201.0469 976.0094,201.0469 Q976.9469,201.0469 977.6031,200.7969 Q977.9938,200.6406 978.4156,200.2031 Q978.6813,199.9375 978.8219,199.8594 Q978.9781,199.7813 979.1813,199.7813 Q979.5094,199.7813 979.7594,200.0469 Q980.025,200.2969 980.025,200.6406 Q980.025,200.9844 979.6813,201.3906 Q979.1813,201.9688 978.3844,202.2969 Q977.3063,202.75 976.0094,202.75 Q974.4938,202.75 973.2906,202.125 Q972.3063,201.625 971.6188,200.5625 Q970.9313,199.4844 970.9313,198.2031 L970.9313,197.0469 Q970.9313,195.7188 971.5406,194.5781 Q972.1656,193.4219 973.2594,192.8125 Q974.3531,192.1875 975.5875,192.1875 Q976.3219,192.1875 976.9625,192.3594 Q977.6188,192.5156 978.1656,192.875 Z " fill="#000000"/><text fill="#000000" font-family="sans-serif" font-size="14" lengthAdjust="spacing" textLength="148" x="995.6" y="202.7969">OrganizationRepository</text><line style="stroke:#181818;stroke-width:0.5;" x1="933.5" x2="1173.5" y1="213" y2="213"/><line style="stroke:#181818;stroke-width:0.5;" x1="933.5" x2="1173.5" y1="221" y2="221"/><text fill="#000000" font-family="sans-serif" font-size="14" lengthAdjust="spacing" textLength="230" x="938.5" y="240.1074">+getOrganizationByUserEmail(email)</text></g><!--class Organization--><g id="elem_Organization"><rect codeLine="33" fill="#F1F1F1" height="178.3477" id="Organization" rx="2.5" ry="2.5" style="stroke:#181818;stroke-width:0.5;" width="465" x="765" y="336"/><ellipse cx="953.25" cy="352" fill="#ADD1B2" rx="11" ry="11" style="stroke:#181818;stroke-width:1.0;"/><path d="M956.0156,347.875 Q956.1719,347.6563 956.3594,347.5469 Q956.5469,347.4375 956.7656,347.4375 Q957.1406,347.4375 957.375,347.7031 Q957.6094,347.9531 957.6094,348.5625 L957.6094,350.0156 Q957.6094,350.625 957.375,350.8906 Q957.1406,351.1563 956.7656,351.1563 Q956.4219,351.1563 956.2188,350.9531 Q956.0156,350.7656 955.9063,350.25 Q955.8594,349.8906 955.6719,349.7031 Q955.3438,349.3281 954.7344,349.1094 Q954.125,348.8906 953.5,348.8906 Q952.7344,348.8906 952.0938,349.2188 Q951.4688,349.5469 950.9688,350.2969 Q950.4844,351.0469 950.4844,352.0781 L950.4844,353.1719 Q950.4844,354.4063 951.375,355.2344 Q952.2656,356.0469 953.8594,356.0469 Q954.7969,356.0469 955.4531,355.7969 Q955.8438,355.6406 956.2656,355.2031 Q956.5313,354.9375 956.6719,354.8594 Q956.8281,354.7813 957.0313,354.7813 Q957.3594,354.7813 957.6094,355.0469 Q957.875,355.2969 957.875,355.6406 Q957.875,355.9844 957.5313,356.3906 Q957.0313,356.9688 956.2344,357.2969 Q955.1563,357.75 953.8594,357.75 Q952.3438,357.75 951.1406,357.125 Q950.1563,356.625 949.4688,355.5625 Q948.7813,354.4844 948.7813,353.2031 L948.7813,352.0469 Q948.7813,350.7188 949.3906,349.5781 Q950.0156,348.4219 951.1094,347.8125 Q952.2031,347.1875 953.4375,347.1875 Q954.1719,347.1875 954.8125,347.3594 Q955.4688,347.5156 956.0156,347.875 Z " fill="#000000"/><text fill="#000000" font-family="sans-serif" font-size="14" lengthAdjust="spacing" textLength="80" x="973.75" y="357.7969">Organization</text><line style="stroke:#181818;stroke-width:0.5;" x1="766" x2="1229" y1="368" y2="368"/><text fill="#000000" font-family="sans-serif" font-size="14" lengthAdjust="spacing" textLength="81" x="771" y="387.1074">-String name</text><text fill="#000000" font-family="sans-serif" font-size="14" lengthAdjust="spacing" textLength="114" x="771" y="405.7285">-String vatNumber</text><text fill="#000000" font-family="sans-serif" font-size="14" lengthAdjust="spacing" textLength="86" x="771" y="424.3496">-String phone</text><text fill="#000000" font-family="sans-serif" font-size="14" lengthAdjust="spacing" textLength="79" x="771" y="442.9707">-String email</text><text fill="#000000" font-family="sans-serif" font-size="14" lengthAdjust="spacing" textLength="151" x="771" y="461.5918">-Address postalAddress</text><line style="stroke:#181818;stroke-width:0.5;" x1="766" x2="1229" y1="469.1055" y2="469.1055"/><text fill="#000000" font-family="sans-serif" font-size="14" lengthAdjust="spacing" textLength="453" x="771" y="488.2129">+Organization(name, vatNumber, webSite, phone, email, postalAddress)</text><text fill="#000000" font-family="sans-serif" font-size="14" lengthAdjust="spacing" textLength="147" x="771" y="506.834">-getUserByEmail(email)</text></g><!--class AuthenticationRepository--><g id="elem_AuthenticationRepository"><rect codeLine="43" fill="#F1F1F1" height="66.6211" id="AuthenticationRepository" rx="2.5" ry="2.5" style="stroke:#181818;stroke-width:0.5;" width="190" x="443.5" y="181"/><ellipse cx="458.5" cy="197" fill="#ADD1B2" rx="11" ry="11" style="stroke:#181818;stroke-width:1.0;"/><path d="M461.2656,192.875 Q461.4219,192.6563 461.6094,192.5469 Q461.7969,192.4375 462.0156,192.4375 Q462.3906,192.4375 462.625,192.7031 Q462.8594,192.9531 462.8594,193.5625 L462.8594,195.0156 Q462.8594,195.625 462.625,195.8906 Q462.3906,196.1563 462.0156,196.1563 Q461.6719,196.1563 461.4688,195.9531 Q461.2656,195.7656 461.1563,195.25 Q461.1094,194.8906 460.9219,194.7031 Q460.5938,194.3281 459.9844,194.1094 Q459.375,193.8906 458.75,193.8906 Q457.9844,193.8906 457.3438,194.2188 Q456.7188,194.5469 456.2188,195.2969 Q455.7344,196.0469 455.7344,197.0781 L455.7344,198.1719 Q455.7344,199.4063 456.625,200.2344 Q457.5156,201.0469 459.1094,201.0469 Q460.0469,201.0469 460.7031,200.7969 Q461.0938,200.6406 461.5156,200.2031 Q461.7813,199.9375 461.9219,199.8594 Q462.0781,199.7813 462.2813,199.7813 Q462.6094,199.7813 462.8594,200.0469 Q463.125,200.2969 463.125,200.6406 Q463.125,200.9844 462.7813,201.3906 Q462.2813,201.9688 461.4844,202.2969 Q460.4063,202.75 459.1094,202.75 Q457.5938,202.75 456.3906,202.125 Q455.4063,201.625 454.7188,200.5625 Q454.0313,199.4844 454.0313,198.2031 L454.0313,197.0469 Q454.0313,195.7188 454.6406,194.5781 Q455.2656,193.4219 456.3594,192.8125 Q457.4531,192.1875 458.6875,192.1875 Q459.4219,192.1875 460.0625,192.3594 Q460.7188,192.5156 461.2656,192.875 Z " fill="#000000"/><text fill="#000000" font-family="sans-serif" font-size="14" lengthAdjust="spacing" textLength="158" x="472.5" y="202.7969">AuthenticationRepository</text><line style="stroke:#181818;stroke-width:0.5;" x1="444.5" x2="632.5" y1="213" y2="213"/><line style="stroke:#181818;stroke-width:0.5;" x1="444.5" x2="632.5" y1="221" y2="221"/><text fill="#000000" font-family="sans-serif" font-size="14" lengthAdjust="spacing" textLength="165" x="449.5" y="240.1074">+getCurrentUserSession()</text></g><!--class UserSession--><g id="elem_UserSession"><rect codeLine="47" fill="#F1F1F1" height="85.2422" id="UserSession" rx="2.5" ry="2.5" style="stroke:#181818;stroke-width:0.5;" width="156" x="740.5" y="172"/><ellipse cx="775.75" cy="188" fill="#ADD1B2" rx="11" ry="11" style="stroke:#181818;stroke-width:1.0;"/><path d="M778.5156,183.875 Q778.6719,183.6563 778.8594,183.5469 Q779.0469,183.4375 779.2656,183.4375 Q779.6406,183.4375 779.875,183.7031 Q780.1094,183.9531 780.1094,184.5625 L780.1094,186.0156 Q780.1094,186.625 779.875,186.8906 Q779.6406,187.1563 779.2656,187.1563 Q778.9219,187.1563 778.7188,186.9531 Q778.5156,186.7656 778.4063,186.25 Q778.3594,185.8906 778.1719,185.7031 Q777.8438,185.3281 777.2344,185.1094 Q776.625,184.8906 776,184.8906 Q775.2344,184.8906 774.5938,185.2188 Q773.9688,185.5469 773.4688,186.2969 Q772.9844,187.0469 772.9844,188.0781 L772.9844,189.1719 Q772.9844,190.4063 773.875,191.2344 Q774.7656,192.0469 776.3594,192.0469 Q777.2969,192.0469 777.9531,191.7969 Q778.3438,191.6406 778.7656,191.2031 Q779.0313,190.9375 779.1719,190.8594 Q779.3281,190.7813 779.5313,190.7813 Q779.8594,190.7813 780.1094,191.0469 Q780.375,191.2969 780.375,191.6406 Q780.375,191.9844 780.0313,192.3906 Q779.5313,192.9688 778.7344,193.2969 Q777.6563,193.75 776.3594,193.75 Q774.8438,193.75 773.6406,193.125 Q772.6563,192.625 771.9688,191.5625 Q771.2813,190.4844 771.2813,189.2031 L771.2813,188.0469 Q771.2813,186.7188 771.8906,185.5781 Q772.5156,184.4219 773.6094,183.8125 Q774.7031,183.1875 775.9375,183.1875 Q776.6719,183.1875 777.3125,183.3594 Q777.9688,183.5156 778.5156,183.875 Z " fill="#000000"/><text fill="#000000" font-family="sans-serif" font-size="14" lengthAdjust="spacing" textLength="79" x="794.25" y="193.7969">UserSession</text><line style="stroke:#181818;stroke-width:0.5;" x1="741.5" x2="895.5" y1="204" y2="204"/><line style="stroke:#181818;stroke-width:0.5;" x1="741.5" x2="895.5" y1="212" y2="212"/><text fill="#000000" font-family="sans-serif" font-size="14" lengthAdjust="spacing" textLength="144" x="746.5" y="231.1074">+isLoggedInWithRole()</text><text fill="#000000" font-family="sans-serif" font-size="14" lengthAdjust="spacing" textLength="78" x="746.5" y="249.7285">+getUserId()</text></g><!--class EmployeeRepository--><g id="elem_EmployeeRepository"><rect codeLine="52" fill="#F1F1F1" height="122.4844" id="EmployeeRepository" rx="2.5" ry="2.5" style="stroke:#181818;stroke-width:0.5;" width="224" x="1083.5" y="575"/><ellipse cx="1126.4" cy="591" fill="#ADD1B2" rx="11" ry="11" style="stroke:#181818;stroke-width:1.0;"/><path d="M1129.1656,586.875 Q1129.3219,586.6563 1129.5094,586.5469 Q1129.6969,586.4375 1129.9156,586.4375 Q1130.2906,586.4375 1130.525,586.7031 Q1130.7594,586.9531 1130.7594,587.5625 L1130.7594,589.0156 Q1130.7594,589.625 1130.525,589.8906 Q1130.2906,590.1563 1129.9156,590.1563 Q1129.5719,590.1563 1129.3688,589.9531 Q1129.1656,589.7656 1129.0563,589.25 Q1129.0094,588.8906 1128.8219,588.7031 Q1128.4938,588.3281 1127.8844,588.1094 Q1127.275,587.8906 1126.65,587.8906 Q1125.8844,587.8906 1125.2438,588.2188 Q1124.6188,588.5469 1124.1188,589.2969 Q1123.6344,590.0469 1123.6344,591.0781 L1123.6344,592.1719 Q1123.6344,593.4063 1124.525,594.2344 Q1125.4156,595.0469 1127.0094,595.0469 Q1127.9469,595.0469 1128.6031,594.7969 Q1128.9938,594.6406 1129.4156,594.2031 Q1129.6813,593.9375 1129.8219,593.8594 Q1129.9781,593.7813 1130.1813,593.7813 Q1130.5094,593.7813 1130.7594,594.0469 Q1131.025,594.2969 1131.025,594.6406 Q1131.025,594.9844 1130.6813,595.3906 Q1130.1813,595.9688 1129.3844,596.2969 Q1128.3063,596.75 1127.0094,596.75 Q1125.4938,596.75 1124.2906,596.125 Q1123.3063,595.625 1122.6188,594.5625 Q1121.9313,593.4844 1121.9313,592.2031 L1121.9313,591.0469 Q1121.9313,589.7188 1122.5406,588.5781 Q1123.1656,587.4219 1124.2594,586.8125 Q1125.3531,586.1875 1126.5875,586.1875 Q1127.3219,586.1875 1127.9625,586.3594 Q1128.6188,586.5156 1129.1656,586.875 Z " fill="#000000"/><text fill="#000000" font-family="sans-serif" font-size="14" lengthAdjust="spacing" textLength="130" x="1146.6" y="596.7969">EmployeeRepository</text><line style="stroke:#181818;stroke-width:0.5;" x1="1084.5" x2="1306.5" y1="607" y2="607"/><line style="stroke:#181818;stroke-width:0.5;" x1="1084.5" x2="1306.5" y1="615" y2="615"/><text fill="#000000" font-family="sans-serif" font-size="14" lengthAdjust="spacing" textLength="145" x="1089.5" y="634.1074">-EmployeeRepository()</text><text fill="#000000" font-family="sans-serif" font-size="14" lengthAdjust="spacing" textLength="104" x="1089.5" y="652.7285">+listEmployees()</text><text fill="#000000" font-family="sans-serif" font-size="14" lengthAdjust="spacing" textLength="112" x="1089.5" y="671.3496">+emailExists(mail)</text><text fill="#000000" font-family="sans-serif" font-size="14" lengthAdjust="spacing" textLength="212" x="1089.5" y="689.9707">+getEmployeeByUserEmail(email)</text></g><!--class Employee--><g id="elem_Employee"><rect codeLine="59" fill="#F1F1F1" height="271.4531" id="Employee" rx="2.5" ry="2.5" style="stroke:#181818;stroke-width:0.5;" width="189" x="932" y="823"/><ellipse cx="991.25" cy="839" fill="#ADD1B2" rx="11" ry="11" style="stroke:#181818;stroke-width:1.0;"/><path d="M994.0156,834.875 Q994.1719,834.6563 994.3594,834.5469 Q994.5469,834.4375 994.7656,834.4375 Q995.1406,834.4375 995.375,834.7031 Q995.6094,834.9531 995.6094,835.5625 L995.6094,837.0156 Q995.6094,837.625 995.375,837.8906 Q995.1406,838.1563 994.7656,838.1563 Q994.4219,838.1563 994.2188,837.9531 Q994.0156,837.7656 993.9063,837.25 Q993.8594,836.8906 993.6719,836.7031 Q993.3438,836.3281 992.7344,836.1094 Q992.125,835.8906 991.5,835.8906 Q990.7344,835.8906 990.0938,836.2188 Q989.4688,836.5469 988.9688,837.2969 Q988.4844,838.0469 988.4844,839.0781 L988.4844,840.1719 Q988.4844,841.4063 989.375,842.2344 Q990.2656,843.0469 991.8594,843.0469 Q992.7969,843.0469 993.4531,842.7969 Q993.8438,842.6406 994.2656,842.2031 Q994.5313,841.9375 994.6719,841.8594 Q994.8281,841.7813 995.0313,841.7813 Q995.3594,841.7813 995.6094,842.0469 Q995.875,842.2969 995.875,842.6406 Q995.875,842.9844 995.5313,843.3906 Q995.0313,843.9688 994.2344,844.2969 Q993.1563,844.75 991.8594,844.75 Q990.3438,844.75 989.1406,844.125 Q988.1563,843.625 987.4688,842.5625 Q986.7813,841.4844 986.7813,840.2031 L986.7813,839.0469 Q986.7813,837.7188 987.3906,836.5781 Q988.0156,835.4219 989.1094,834.8125 Q990.2031,834.1875 991.4375,834.1875 Q992.1719,834.1875 992.8125,834.3594 Q993.4688,834.5156 994.0156,834.875 Z " fill="#000000"/><text fill="#000000" font-family="sans-serif" font-size="14" lengthAdjust="spacing" textLength="62" x="1011.75" y="844.7969">Employee</text><line style="stroke:#181818;stroke-width:0.5;" x1="933" x2="1120" y1="855" y2="855"/><text fill="#000000" font-family="sans-serif" font-size="14" lengthAdjust="spacing" textLength="81" x="938" y="874.1074">-String name</text><text fill="#000000" font-family="sans-serif" font-size="14" lengthAdjust="spacing" textLength="95" x="938" y="892.7285">-Date birthdate</text><text fill="#000000" font-family="sans-serif" font-size="14" lengthAdjust="spacing" textLength="134" x="938" y="911.3496">-Date admission date</text><text fill="#000000" font-family="sans-serif" font-size="14" lengthAdjust="spacing" textLength="151" x="938" y="929.9707">-Address postalAddress</text><text fill="#000000" font-family="sans-serif" font-size="14" lengthAdjust="spacing" textLength="86" x="938" y="948.5918">-String phone</text><text fill="#000000" font-family="sans-serif" font-size="14" lengthAdjust="spacing" textLength="79" x="938" y="967.2129">-String email</text><text fill="#000000" font-family="sans-serif" font-size="14" lengthAdjust="spacing" textLength="117" x="938" y="985.834">-String ID doc type</text><text fill="#000000" font-family="sans-serif" font-size="14" lengthAdjust="spacing" textLength="177" x="938" y="1004.4551">-String ID document number</text><text fill="#000000" font-family="sans-serif" font-size="14" lengthAdjust="spacing" textLength="122" x="938" y="1023.0762">-String Taxpayer ID</text><line style="stroke:#181818;stroke-width:0.5;" x1="933" x2="1120" y1="1030.5898" y2="1030.5898"/><text fill="#000000" font-family="sans-serif" font-size="14" lengthAdjust="spacing" textLength="166" x="938" y="1049.6973">+CompareTo(TaxPayerID)</text><text fill="#000000" font-family="sans-serif" font-size="14" lengthAdjust="spacing" textLength="55" x="938" y="1068.3184">+Clone()</text><text fill="#000000" font-family="sans-serif" font-size="14" lengthAdjust="spacing" textLength="67" x="938" y="1086.9395">+toString()</text></g><!--class Tasks--><g id="elem_Tasks"><rect codeLine="75" fill="#F1F1F1" height="103.8633" id="Tasks" rx="2.5" ry="2.5" style="stroke:#181818;stroke-width:0.5;" width="319" x="1156" y="906.5"/><ellipse cx="1292.25" cy="922.5" fill="#ADD1B2" rx="11" ry="11" style="stroke:#181818;stroke-width:1.0;"/><path d="M1295.0156,918.375 Q1295.1719,918.1563 1295.3594,918.0469 Q1295.5469,917.9375 1295.7656,917.9375 Q1296.1406,917.9375 1296.375,918.2031 Q1296.6094,918.4531 1296.6094,919.0625 L1296.6094,920.5156 Q1296.6094,921.125 1296.375,921.3906 Q1296.1406,921.6563 1295.7656,921.6563 Q1295.4219,921.6563 1295.2188,921.4531 Q1295.0156,921.2656 1294.9063,920.75 Q1294.8594,920.3906 1294.6719,920.2031 Q1294.3438,919.8281 1293.7344,919.6094 Q1293.125,919.3906 1292.5,919.3906 Q1291.7344,919.3906 1291.0938,919.7188 Q1290.4688,920.0469 1289.9688,920.7969 Q1289.4844,921.5469 1289.4844,922.5781 L1289.4844,923.6719 Q1289.4844,924.9063 1290.375,925.7344 Q1291.2656,926.5469 1292.8594,926.5469 Q1293.7969,926.5469 1294.4531,926.2969 Q1294.8438,926.1406 1295.2656,925.7031 Q1295.5313,925.4375 1295.6719,925.3594 Q1295.8281,925.2813 1296.0313,925.2813 Q1296.3594,925.2813 1296.6094,925.5469 Q1296.875,925.7969 1296.875,926.1406 Q1296.875,926.4844 1296.5313,926.8906 Q1296.0313,927.4688 1295.2344,927.7969 Q1294.1563,928.25 1292.8594,928.25 Q1291.3438,928.25 1290.1406,927.625 Q1289.1563,927.125 1288.4688,926.0625 Q1287.7813,924.9844 1287.7813,923.7031 L1287.7813,922.5469 Q1287.7813,921.2188 1288.3906,920.0781 Q1289.0156,918.9219 1290.1094,918.3125 Q1291.2031,917.6875 1292.4375,917.6875 Q1293.1719,917.6875 1293.8125,917.8594 Q1294.4688,918.0156 1295.0156,918.375 Z " fill="#000000"/><text fill="#000000" font-family="sans-serif" font-size="14" lengthAdjust="spacing" textLength="38" x="1312.75" y="928.2969">Tasks</text><line style="stroke:#181818;stroke-width:0.5;" x1="1157" x2="1474" y1="938.5" y2="938.5"/><line style="stroke:#181818;stroke-width:0.5;" x1="1157" x2="1474" y1="946.5" y2="946.5"/><text fill="#000000" font-family="sans-serif" font-size="14" lengthAdjust="spacing" textLength="307" x="1162" y="965.6074">+filterThiCollaratorTasks(userEmail):List&lt;Tasks&gt;</text><text fill="#000000" font-family="sans-serif" font-size="14" lengthAdjust="spacing" textLength="306" x="1162" y="984.2285">+filterByDate(Start Date, End Date) :List&lt;Tasks&gt;</text><text fill="#000000" font-family="sans-serif" font-size="14" lengthAdjust="spacing" textLength="225" x="1162" y="1002.8496">+filterByStatus(Status) :List&lt;Tasks&gt;</text></g><!--class Task--><g id="elem_Task"><rect codeLine="81" fill="#F1F1F1" height="364.5586" id="Task" rx="2.5" ry="2.5" style="stroke:#181818;stroke-width:0.5;" width="694" x="1510.5" y="776"/><ellipse cx="1837.75" cy="792" fill="#ADD1B2" rx="11" ry="11" style="stroke:#181818;stroke-width:1.0;"/><path d="M1840.5156,787.875 Q1840.6719,787.6563 1840.8594,787.5469 Q1841.0469,787.4375 1841.2656,787.4375 Q1841.6406,787.4375 1841.875,787.7031 Q1842.1094,787.9531 1842.1094,788.5625 L1842.1094,790.0156 Q1842.1094,790.625 1841.875,790.8906 Q1841.6406,791.1563 1841.2656,791.1563 Q1840.9219,791.1563 1840.7188,790.9531 Q1840.5156,790.7656 1840.4063,790.25 Q1840.3594,789.8906 1840.1719,789.7031 Q1839.8438,789.3281 1839.2344,789.1094 Q1838.625,788.8906 1838,788.8906 Q1837.2344,788.8906 1836.5938,789.2188 Q1835.9688,789.5469 1835.4688,790.2969 Q1834.9844,791.0469 1834.9844,792.0781 L1834.9844,793.1719 Q1834.9844,794.4063 1835.875,795.2344 Q1836.7656,796.0469 1838.3594,796.0469 Q1839.2969,796.0469 1839.9531,795.7969 Q1840.3438,795.6406 1840.7656,795.2031 Q1841.0313,794.9375 1841.1719,794.8594 Q1841.3281,794.7813 1841.5313,794.7813 Q1841.8594,794.7813 1842.1094,795.0469 Q1842.375,795.2969 1842.375,795.6406 Q1842.375,795.9844 1842.0313,796.3906 Q1841.5313,796.9688 1840.7344,797.2969 Q1839.6563,797.75 1838.3594,797.75 Q1836.8438,797.75 1835.6406,797.125 Q1834.6563,796.625 1833.9688,795.5625 Q1833.2813,794.4844 1833.2813,793.2031 L1833.2813,792.0469 Q1833.2813,790.7188 1833.8906,789.5781 Q1834.5156,788.4219 1835.6094,787.8125 Q1836.7031,787.1875 1837.9375,787.1875 Q1838.6719,787.1875 1839.3125,787.3594 Q1839.9688,787.5156 1840.5156,787.875 Z " fill="#000000"/><text fill="#000000" font-family="sans-serif" font-size="14" lengthAdjust="spacing" textLength="31" x="1858.25" y="797.7969">Task</text><line style="stroke:#181818;stroke-width:0.5;" x1="1511.5" x2="2203.5" y1="808" y2="808"/><text fill="#000000" font-family="sans-serif" font-size="14" lengthAdjust="spacing" textLength="75" x="1516.5" y="827.1074">+title: String</text><text fill="#000000" font-family="sans-serif" font-size="14" lengthAdjust="spacing" textLength="173" x="1516.5" y="845.7285">+greenSpace: GreenSpace</text><text fill="#000000" font-family="sans-serif" font-size="14" lengthAdjust="spacing" textLength="122" x="1516.5" y="864.3496">+description: String</text><text fill="#000000" font-family="sans-serif" font-size="14" lengthAdjust="spacing" textLength="94" x="1516.5" y="882.9707">+status: Status</text><text fill="#000000" font-family="sans-serif" font-size="14" lengthAdjust="spacing" textLength="119" x="1516.5" y="901.5918">+urgency: Urgency</text><text fill="#000000" font-family="sans-serif" font-size="14" lengthAdjust="spacing" textLength="61" x="1516.5" y="920.2129">+days: int</text><text fill="#000000" font-family="sans-serif" font-size="14" lengthAdjust="spacing" textLength="67" x="1516.5" y="938.834">+hours: int</text><line style="stroke:#181818;stroke-width:0.5;" x1="1511.5" x2="2203.5" y1="946.3477" y2="946.3477"/><text fill="#000000" font-family="sans-serif" font-size="14" lengthAdjust="spacing" textLength="110" x="1516.5" y="965.4551">+getTitle(): String</text><text fill="#000000" font-family="sans-serif" font-size="14" lengthAdjust="spacing" textLength="206" x="1516.5" y="984.0762">+getGreenSpace(): GreenSpace</text><text fill="#000000" font-family="sans-serif" font-size="14" lengthAdjust="spacing" textLength="154" x="1516.5" y="1002.6973">+getDescription(): String</text><text fill="#000000" font-family="sans-serif" font-size="14" lengthAdjust="spacing" textLength="126" x="1516.5" y="1021.3184">+getStatus(): Status</text><text fill="#000000" font-family="sans-serif" font-size="14" lengthAdjust="spacing" textLength="150" x="1516.5" y="1039.9395">+getUrgency(): Urgency</text><text fill="#000000" font-family="sans-serif" font-size="14" lengthAdjust="spacing" textLength="93" x="1516.5" y="1058.5605">+getDays(): int</text><text fill="#000000" font-family="sans-serif" font-size="14" lengthAdjust="spacing" textLength="98" x="1516.5" y="1077.1816">+getHours(): int</text><text fill="#000000" font-family="sans-serif" font-size="14" lengthAdjust="spacing" textLength="112" x="1516.5" y="1095.8027">+toString(): String</text><text fill="#000000" font-family="sans-serif" font-size="14" lengthAdjust="spacing" textLength="682" x="1516.5" y="1114.4238">+findTasksByCollaboratorAndDateRange(collaboratorId: String, startDate: Date, endDate: Date): List&lt;Task&gt;</text><text fill="#000000" font-family="sans-serif" font-size="14" lengthAdjust="spacing" textLength="216" x="1516.5" y="1133.0449">+compareTo(otherTask: Task): int</text></g><!--class Status--><g id="elem_Status"><rect codeLine="102" fill="#F1F1F1" height="122.4844" id="Status" rx="2.5" ry="2.5" style="stroke:#181818;stroke-width:0.5;" width="98" x="1745.5" y="1220"/><ellipse cx="1772.2" cy="1236" fill="#EB937F" rx="11" ry="11" style="stroke:#181818;stroke-width:1.0;"/><path d="M1771.0594,1236.7969 L1771.0594,1239.2969 L1775.3875,1239.2969 L1775.3875,1238.375 Q1775.3875,1237.7656 1775.6219,1237.5 Q1775.8719,1237.2344 1776.2469,1237.2344 Q1776.6219,1237.2344 1776.8563,1237.5 Q1777.0906,1237.7656 1777.0906,1238.375 L1777.0906,1241 L1769.0906,1241 Q1768.4656,1241 1768.2,1240.7656 Q1767.95,1240.5313 1767.95,1240.1406 Q1767.95,1239.7656 1768.2156,1239.5313 Q1768.4813,1239.2969 1769.0906,1239.2969 L1769.3563,1239.2969 L1769.3563,1232.6406 L1769.0906,1232.6406 Q1768.4656,1232.6406 1768.2,1232.4063 Q1767.95,1232.1719 1767.95,1231.7813 Q1767.95,1231.4063 1768.2,1231.1719 Q1768.4656,1230.9375 1769.0906,1230.9375 L1776.7156,1230.9375 L1776.7156,1233.5313 Q1776.7156,1234.1406 1776.4813,1234.4063 Q1776.2625,1234.6563 1775.8719,1234.6563 Q1775.4969,1234.6563 1775.2625,1234.4063 Q1775.0281,1234.1406 1775.0281,1233.5313 L1775.0281,1232.6406 L1771.0594,1232.6406 L1771.0594,1235.0938 L1772.5438,1235.0938 Q1772.5438,1234.4375 1772.6688,1234.25 Q1772.9344,1233.8438 1773.4031,1233.8438 Q1773.7781,1233.8438 1774.0125,1234.1094 Q1774.2469,1234.3594 1774.2469,1234.9688 L1774.2469,1236.9375 Q1774.2469,1237.4844 1774.1219,1237.6719 Q1773.8563,1238.0625 1773.4031,1238.0625 Q1772.9344,1238.0625 1772.6688,1237.6563 Q1772.5438,1237.4688 1772.5438,1236.7969 L1771.0594,1236.7969 Z " fill="#000000"/><text fill="#000000" font-family="sans-serif" font-size="14" lengthAdjust="spacing" textLength="40" x="1788.8" y="1241.7969">Status</text><line style="stroke:#181818;stroke-width:0.5;" x1="1746.5" x2="1842.5" y1="1252" y2="1252"/><text fill="#000000" font-family="sans-serif" font-size="14" lengthAdjust="spacing" textLength="63" x="1751.5" y="1271.1074">PLANNED</text><text fill="#000000" font-family="sans-serif" font-size="14" lengthAdjust="spacing" textLength="86" x="1751.5" y="1289.7285">POSTPONED</text><text fill="#000000" font-family="sans-serif" font-size="14" lengthAdjust="spacing" textLength="74" x="1751.5" y="1308.3496">CANCELED</text><text fill="#000000" font-family="sans-serif" font-size="14" lengthAdjust="spacing" textLength="39" x="1751.5" y="1326.9707">DONE</text><line style="stroke:#181818;stroke-width:0.5;" x1="1746.5" x2="1842.5" y1="1334.4844" y2="1334.4844"/></g><!--class Urgency--><g id="elem_Urgency"><rect codeLine="109" fill="#F1F1F1" height="103.8633" id="Urgency" rx="2.5" ry="2.5" style="stroke:#181818;stroke-width:0.5;" width="84" x="1878.5" y="1229"/><ellipse cx="1893.5" cy="1245" fill="#EB937F" rx="11" ry="11" style="stroke:#181818;stroke-width:1.0;"/><path d="M1892.3594,1245.7969 L1892.3594,1248.2969 L1896.6875,1248.2969 L1896.6875,1247.375 Q1896.6875,1246.7656 1896.9219,1246.5 Q1897.1719,1246.2344 1897.5469,1246.2344 Q1897.9219,1246.2344 1898.1563,1246.5 Q1898.3906,1246.7656 1898.3906,1247.375 L1898.3906,1250 L1890.3906,1250 Q1889.7656,1250 1889.5,1249.7656 Q1889.25,1249.5313 1889.25,1249.1406 Q1889.25,1248.7656 1889.5156,1248.5313 Q1889.7813,1248.2969 1890.3906,1248.2969 L1890.6563,1248.2969 L1890.6563,1241.6406 L1890.3906,1241.6406 Q1889.7656,1241.6406 1889.5,1241.4063 Q1889.25,1241.1719 1889.25,1240.7813 Q1889.25,1240.4063 1889.5,1240.1719 Q1889.7656,1239.9375 1890.3906,1239.9375 L1898.0156,1239.9375 L1898.0156,1242.5313 Q1898.0156,1243.1406 1897.7813,1243.4063 Q1897.5625,1243.6563 1897.1719,1243.6563 Q1896.7969,1243.6563 1896.5625,1243.4063 Q1896.3281,1243.1406 1896.3281,1242.5313 L1896.3281,1241.6406 L1892.3594,1241.6406 L1892.3594,1244.0938 L1893.8438,1244.0938 Q1893.8438,1243.4375 1893.9688,1243.25 Q1894.2344,1242.8438 1894.7031,1242.8438 Q1895.0781,1242.8438 1895.3125,1243.1094 Q1895.5469,1243.3594 1895.5469,1243.9688 L1895.5469,1245.9375 Q1895.5469,1246.4844 1895.4219,1246.6719 Q1895.1563,1247.0625 1894.7031,1247.0625 Q1894.2344,1247.0625 1893.9688,1246.6563 Q1893.8438,1246.4688 1893.8438,1245.7969 L1892.3594,1245.7969 Z " fill="#000000"/><text fill="#000000" font-family="sans-serif" font-size="14" lengthAdjust="spacing" textLength="52" x="1907.5" y="1250.7969">Urgency</text><line style="stroke:#181818;stroke-width:0.5;" x1="1879.5" x2="1961.5" y1="1261" y2="1261"/><text fill="#000000" font-family="sans-serif" font-size="14" lengthAdjust="spacing" textLength="36" x="1884.5" y="1280.1074">HIGH,</text><text fill="#000000" font-family="sans-serif" font-size="14" lengthAdjust="spacing" textLength="57" x="1884.5" y="1298.7285">MEDIUM,</text><text fill="#000000" font-family="sans-serif" font-size="14" lengthAdjust="spacing" textLength="32" x="1884.5" y="1317.3496">LOW</text><line style="stroke:#181818;stroke-width:0.5;" x1="1879.5" x2="1961.5" y1="1324.8633" y2="1324.8633"/></g><!--link Repositories to Repositories--><g id="link_Repositories_Repositories"><path codeLine="119" d="M1215.6,45.48 C1236.6,47.81 1250.5,52.31 1250.5,59 C1250.5,65.69 1242.5634,69.5283 1221.5634,71.8583 " fill="none" id="Repositories-to-Repositories" style="stroke:#181818;stroke-width:1.0;"/><polygon fill="#181818" points="1215.6,72.52,1224.9862,75.5031,1220.5695,71.9686,1224.104,67.5519,1215.6,72.52" style="stroke:#181818;stroke-width:1.0;"/><text fill="#000000" font-family="sans-serif" font-size="13" lengthAdjust="spacing" textLength="49" x="1256.5" y="64.5283">instance</text></g><!--link ConsultTasksUI to ConsultTasksController--><g id="link_ConsultTasksUI_ConsultTasksController"><path codeLine="120" d="M244.01,59 C254.84,59 261.83,59 261.83,59 C261.83,59 262.47,59 272.82,59 " fill="none" id="ConsultTasksUI-to-ConsultTasksController" style="stroke:#181818;stroke-width:1.0;stroke-dasharray:7.0,7.0;"/><polygon fill="#181818" points="278.82,59,269.82,55,273.82,59,269.82,63,278.82,59" style="stroke:#181818;stroke-width:1.0;"/></g><!--link ConsultTasksController to AuthenticationRepository--><g id="link_ConsultTasksController_AuthenticationRepository"><path codeLine="121" d="M535.58,101.54 C536.23,126.4 536.8844,151.552 537.4844,174.682 " fill="none" id="ConsultTasksController-to-AuthenticationRepository" style="stroke:#181818;stroke-width:1.0;stroke-dasharray:7.0,7.0;"/><polygon fill="#181818" points="537.64,180.68,541.4053,171.5793,537.5103,175.6817,533.408,171.7868,537.64,180.68" style="stroke:#181818;stroke-width:1.0;"/></g><!--link Repositories to OrganizationRepository--><g id="link_Repositories_OrganizationRepository"><path codeLine="122" d="M1054.17,111.11 C1054.02,134.14 1053.8785,154.6401 1053.7485,174.9101 " fill="none" id="Repositories-to-OrganizationRepository" style="stroke:#181818;stroke-width:1.0;"/><polygon fill="#181818" points="1053.71,180.91,1057.7676,171.9358,1053.7421,175.9101,1049.7678,171.8845,1053.71,180.91" style="stroke:#181818;stroke-width:1.0;"/><text fill="#000000" font-family="sans-serif" font-size="13" lengthAdjust="spacing" textLength="7" x="1046.0623" y="169.7178">1</text></g><!--link OrganizationRepository to Organization--><g id="link_OrganizationRepository_Organization"><path codeLine="123" d="M1044.75,248.08 C1038.41,271.67 1031.0866,298.9654 1022.7266,330.0854 " fill="none" id="OrganizationRepository-to-Organization" style="stroke:#181818;stroke-width:1.0;"/><polygon fill="#181818" points="1021.17,335.88,1027.368,328.2259,1022.4672,331.0512,1019.6419,326.1504,1021.17,335.88" style="stroke:#181818;stroke-width:1.0;"/><text fill="#000000" font-family="sans-serif" font-size="13" lengthAdjust="spacing" textLength="77" x="1035.5" y="302.0283">organizations</text><text fill="#000000" font-family="sans-serif" font-size="13" lengthAdjust="spacing" textLength="5" x="1017.9231" y="324.8218">*</text></g><!--link Organization to EmployeeRepository--><g id="link_Organization_EmployeeRepository"><path codeLine="124" d="M1080.9,514.03 C1100.34,534.56 1116.4836,551.5942 1134.4736,570.5842 " fill="none" id="Organization-to-EmployeeRepository" style="stroke:#181818;stroke-width:1.0;"/><polygon fill="#181818" points="1138.6,574.94,1135.3142,565.6554,1135.1613,571.3102,1129.5065,571.1573,1138.6,574.94" style="stroke:#181818;stroke-width:1.0;"/><text fill="#000000" font-family="sans-serif" font-size="13" lengthAdjust="spacing" textLength="7" x="1080.7664" y="536.4374">1</text><text fill="#000000" font-family="sans-serif" font-size="13" lengthAdjust="spacing" textLength="7" x="1124.6162" y="563.9143">1</text></g><!--link Organization to Employee--><g id="link_Organization_Employee"><path codeLine="125" d="M1002.31,514.06 C1006.89,598.14 1013.5434,720.0289 1018.8234,816.8889 " fill="none" id="Organization-to-Employee" style="stroke:#181818;stroke-width:1.0;"/><polygon fill="#181818" points="1019.15,822.88,1022.6542,813.6756,1018.8778,817.8874,1014.6661,814.1111,1019.15,822.88" style="stroke:#181818;stroke-width:1.0;"/><text fill="#000000" font-family="sans-serif" font-size="13" lengthAdjust="spacing" textLength="49" x="1013.5" y="641.5283">employs</text><text fill="#000000" font-family="sans-serif" font-size="13" lengthAdjust="spacing" textLength="7" x="995.4226" y="536.4699">1</text><text fill="#000000" font-family="sans-serif" font-size="13" lengthAdjust="spacing" textLength="5" x="1013.5805" y="811.5717">*</text></g><!--link ConsultTasksController to Repositories--><g id="link_ConsultTasksController_Repositories"><path codeLine="126" d="M790.31,59 C825.34,59 854.47,59 887.15,59 " fill="none" id="ConsultTasksController-to-Repositories" style="stroke:#181818;stroke-width:1.0;stroke-dasharray:7.0,7.0;"/><polygon fill="#181818" points="893.15,59,884.15,55,888.15,59,884.15,63,893.15,59" style="stroke:#181818;stroke-width:1.0;"/><text fill="#000000" font-family="sans-serif" font-size="13" lengthAdjust="spacing" textLength="67" x="808.25" y="52.0283">repositories</text></g><!--link Repositories to AuthenticationRepository--><g id="link_Repositories_AuthenticationRepository"><path codeLine="127" d="M893.36,107.94 C808.05,133.32 711.961,161.8996 639.301,183.5096 " fill="none" id="Repositories-to-AuthenticationRepository" style="stroke:#181818;stroke-width:1.0;"/><polygon fill="#181818" points="633.55,185.22,643.3168,186.4884,638.3425,183.7946,641.0363,178.8203,633.55,185.22" style="stroke:#181818;stroke-width:1.0;"/><text fill="#000000" font-family="sans-serif" font-size="13" lengthAdjust="spacing" textLength="7" x="641.4032" y="179.2644">1</text></g><!--link Repositories to EmployeeRepository--><g id="link_Repositories_EmployeeRepository"><path codeLine="128" d="M1116.99,111.08 C1153.12,140.62 1191.5,172 1191.5,172 C1191.5,172 1247.5,336 1247.5,336 C1247.5,336 1247.5,514 1247.5,514 C1247.5,514 1236.7694,538.9777 1223.7194,569.3377 " fill="none" id="Repositories-to-EmployeeRepository" style="stroke:#181818;stroke-width:1.0;"/><polygon fill="#181818" points="1221.35,574.85,1228.579,568.1611,1223.3245,570.2564,1221.2293,565.0019,1221.35,574.85" style="stroke:#181818;stroke-width:1.0;"/><text fill="#000000" font-family="sans-serif" font-size="13" lengthAdjust="spacing" textLength="7" x="1216.9342" y="563.8139">1</text></g><!--link AuthenticationRepository to UserSession--><g id="link_AuthenticationRepository_UserSession"><path codeLine="129" d="M633.69,214.5 C668.41,214.5 701.24,214.5 734.31,214.5 " fill="none" id="AuthenticationRepository-to-UserSession" style="stroke:#181818;stroke-width:1.0;"/><polygon fill="#181818" points="740.31,214.5,731.31,210.5,735.31,214.5,731.31,218.5,740.31,214.5" style="stroke:#181818;stroke-width:1.0;"/><text fill="#000000" font-family="sans-serif" font-size="13" lengthAdjust="spacing" textLength="70" x="652" y="207.5283">usersession</text><text fill="#000000" font-family="sans-serif" font-size="13" lengthAdjust="spacing" textLength="7" x="725.5239" y="210.7205">1</text></g><!--link EmployeeRepository to Employee--><g id="link_EmployeeRepository_Employee"><path codeLine="130" d="M1163.71,697.28 C1145.02,732.73 1123.3992,773.743 1100.3392,817.463 " fill="none" id="EmployeeRepository-to-Employee" style="stroke:#181818;stroke-width:1.0;"/><polygon fill="#181818" points="1097.54,822.77,1105.2768,816.6756,1099.8727,818.3475,1098.2007,812.9433,1097.54,822.77" style="stroke:#181818;stroke-width:1.0;"/><text fill="#000000" font-family="sans-serif" font-size="13" lengthAdjust="spacing" textLength="64" x="1147.5" y="742.0283">aggregates</text><text fill="#000000" font-family="sans-serif" font-size="13" lengthAdjust="spacing" textLength="7" x="1152.6296" y="719.3655">1</text><text fill="#000000" font-family="sans-serif" font-size="13" lengthAdjust="spacing" textLength="5" x="1096.2883" y="811.9063">*</text></g><!--link Tasks to Task--><g id="link_Tasks_Task"><path codeLine="131" d="M1475.09,958.5 C1487.98,958.5 1496.17,958.5 1496.17,958.5 C1496.17,958.5 1495.5,958.5 1504.34,958.5 " fill="none" id="Tasks-to-Task" style="stroke:#181818;stroke-width:1.0;"/><polygon fill="#181818" points="1510.34,958.5,1501.34,954.5,1505.34,958.5,1501.34,962.5,1510.34,958.5" style="stroke:#181818;stroke-width:1.0;"/><text fill="#000000" font-family="sans-serif" font-size="13" lengthAdjust="spacing" textLength="7" x="1482.9897" y="955.127">1</text><text fill="#000000" font-family="sans-serif" font-size="13" lengthAdjust="spacing" textLength="5" x="1497.1448" y="955.3377">*</text></g><!--link Task to Status--><g id="link_Task_Status"><path codeLine="132" d="M1821.77,1141.29 C1816.21,1169.54 1811.9974,1191.0027 1807.5074,1213.8427 " fill="none" id="Task-to-Status" style="stroke:#181818;stroke-width:1.0;"/><polygon fill="#181818" points="1806.35,1219.73,1812.0109,1211.6706,1807.3145,1214.8239,1804.1612,1210.1274,1806.35,1219.73" style="stroke:#181818;stroke-width:1.0;"/><text fill="#000000" font-family="sans-serif" font-size="13" lengthAdjust="spacing" textLength="21" x="1816.5" y="1186.0283">has</text></g><!--link Task to Urgency--><g id="link_Task_Urgency"><path codeLine="133" d="M1893.23,1141.29 C1899.54,1173.36 1904.4523,1198.3728 1909.2623,1222.8328 " fill="none" id="Task-to-Urgency" style="stroke:#181818;stroke-width:1.0;"/><polygon fill="#181818" points="1910.42,1228.72,1912.6083,1219.1173,1909.4552,1223.814,1904.7586,1220.6609,1910.42,1228.72" style="stroke:#181818;stroke-width:1.0;"/><text fill="#000000" font-family="sans-serif" font-size="13" lengthAdjust="spacing" textLength="21" x="1902.5" y="1186.0283">has</text></g><!--link Employee to Tasks--><g id="link_Employee_Tasks"><path codeLine="134" d="M1121.16,958.5 C1122.25,958.5 1122.83,958.5 1122.83,958.5 C1122.83,958.5 1131.83,958.5 1149.99,958.5 " fill="none" id="Employee-to-Tasks" style="stroke:#181818;stroke-width:1.0;"/><polygon fill="#181818" points="1155.99,958.5,1146.99,954.5,1150.99,958.5,1146.99,962.5,1155.99,958.5" style="stroke:#181818;stroke-width:1.0;"/><text fill="#000000" font-family="sans-serif" font-size="13" lengthAdjust="spacing" textLength="7" x="1128.9821" y="954.8445">1</text><text fill="#000000" font-family="sans-serif" font-size="13" lengthAdjust="spacing" textLength="7" x="1141.0942" y="955.127">1</text></g><!--SRC=[bLPBRziu4BxhLn2zH6xTOdir5W4Sssq4k4aGsUYPbYOI4OdKajIswgB_VOSFIPGj1xi-6EGyltbmHZVgbV66IbgJMd2HbLBKGBHi8Hev3SrUQG6fxYeW4Z9DUL650ggakVZ1U45UQAL2JiKuwAu1qeYgCvVePeOff1PHe9LLLAcrrfATMWr99dZAVW7v8ufkAdZHH0iYML5gaZC3XmaUHP5L8Xl1LLlf0rMlwfYGVoA2lmyeg9gATeQyPqh7sl1Nn9p_DCJRXHUKy5SBIc-fXcSC4-8pXX5EDTMj-i8g3HBvl-TyurbBKLKW1mppx1ZgfX8Tm3CqGZ4jPBSa1bvuRnN859J2I7iyMM0jLffAYtb5pF-I0C_3gxA8LsH4lmY37qCOd39G7lZ72N78Hm4wuMYNPvWZife8ZIAxY-2iy2LvXF0e2yhPBshAElA7BABHKEAkEs9kTZLb5MOI_nVpbePWKkmgR5HEQvXI_gRweQrF8AVafXJyJDBwyQHrdaii3FOtvgBoDmyrz1yRXylHoPByW5FAJ76iXwMpkfmQMdWl6BG9ywwR3tJTwXAuPjaRITkqKgBCSUoai7K3yg34r5uK1UG9_yvq-Img28jlD98yj75Pr27fSstWJLNOXJrxx2uRuUudybJiWhregRSgtykyKNNpCCY9ILtcU0g9DA-PoqJ0kLxd_zefdfHiIIuoOkRU7AEjiKY4ppJYWVviQ8Vp9DaE0wN6UGa74IFloV2IRP-eJOLWXdHguOouSlaasT7HL_l5JhD3oJOubN08OutSQ6dx92zMmy1Gjw7INMVI5gTc1lbvi-EvFU5Rlwhavb3inz5Ky7U8SMX8pNI58ys5qZU41E0fRYXaV1tE_TG7bKdMc4TnfjOFHEVT4rjP0C-w5JcwGs-5TYZ9kFRtKhHoGi2cF1XeyU8S7EWHa-5U84I9xGXope1Fq-8Cgtc13gLXJG4ReuZPC2OWxmtmANLiZ3FFBupdjXXtdUs8ax0ziNPxnQt6B60aUM_0Rfitjj5qy_JBhEzaWPFCTfvRLXwiQLh0H-5pu3lYQRz-UDYvr_3qc1wU7llRPlsmsUtzPOjaOy4Qy9do5kwJh_TBU_gssoR7R-wyV_nkFU9liWy_taxtey7cDc1qzjdnwVRAje_coIX_ROQVGK0Cxpw_kx8aeokxqsgzdseXUX5SrKJN-kXzpIphUTdteonQTzyrwah49aLdoPJX5yHirFylHpEuhovAhnAkmPNzwbBk5iqijojnqm9dKe6DhY8tOQsS4pC4IxMAlfbNfAHgfFOTwiY3uTxAPsT5HVy2]--></g></svg>