<?xml version="1.0" encoding="us-ascii" standalone="no"?><svg xmlns="http://www.w3.org/2000/svg" xmlns:xlink="http://www.w3.org/1999/xlink" contentStyleType="text/css" height="1765px" preserveAspectRatio="none" style="width:2501px;height:1765px;background:#FFFFFF;" version="1.1" viewBox="0 0 2501 1765" width="2501px" zoomAndPan="magnify"><defs/><g><text fill="#000000" font-family="sans-serif" font-size="14" font-weight="bold" lengthAdjust="spacing" textLength="614" x="945" y="30.1074">US028 - As a Collaborator, I wish to consult the tasks assigned to me between two dates</text><text fill="#000000" font-family="sans-serif" font-size="14" font-weight="bold" lengthAdjust="spacing" textLength="228" x="1138" y="48.7285">System Sequence Diagram (SSD)</text><rect fill="#FFFFFF" height="1512.9688" style="stroke:#181818;stroke-width:1.0;" width="10" x="42" y="151.8633"/><rect fill="#FFFFFF" height="31.291" style="stroke:#181818;stroke-width:1.0;" width="10" x="356" y="175.1543"/><rect fill="#FFFFFF" height="1427.0957" style="stroke:#181818;stroke-width:1.0;" width="10" x="356" y="237.7363"/><rect fill="#FFFFFF" height="1301.9316" style="stroke:#181818;stroke-width:1.0;" width="10" x="678" y="331.6094"/><rect fill="#FFFFFF" height="31.291" style="stroke:#181818;stroke-width:1.0;" width="10" x="843" y="407.1914"/><rect fill="#FFFFFF" height="31.291" style="stroke:#181818;stroke-width:1.0;" width="10" x="843" y="720.1016"/><rect fill="#FFFFFF" height="31.291" style="stroke:#181818;stroke-width:1.0;" width="10" x="843" y="1003.7207"/><rect fill="#FFFFFF" height="31.291" style="stroke:#181818;stroke-width:1.0;" width="10" x="843" y="1349.9219"/><rect fill="#FFFFFF" height="31.291" style="stroke:#181818;stroke-width:1.0;" width="10" x="950" y="469.7734"/><rect fill="#FFFFFF" height="31.291" style="stroke:#181818;stroke-width:1.0;" width="10" x="950" y="782.6836"/><rect fill="#FFFFFF" height="31.291" style="stroke:#181818;stroke-width:1.0;" width="10" x="950" y="1066.3027"/><rect fill="#FFFFFF" height="156.4551" style="stroke:#181818;stroke-width:1.0;" width="10" x="1096.5" y="532.3555"/><rect fill="#FFFFFF" height="93.873" style="stroke:#181818;stroke-width:1.0;" width="10" x="1335.5" y="563.6465"/><rect fill="#FFFFFF" height="127.1641" style="stroke:#181818;stroke-width:1.0;" width="10" x="1475.5" y="845.2656"/><rect fill="#FFFFFF" height="31.291" style="stroke:#181818;stroke-width:1.0;" width="10" x="1724.5" y="902.8477"/><rect fill="#FFFFFF" height="189.7461" style="stroke:#181818;stroke-width:1.0;" width="10" x="1857.5" y="1128.8848"/><rect fill="#FFFFFF" height="127.1641" style="stroke:#181818;stroke-width:1.0;" width="10" x="1967.5" y="1412.5039"/><rect fill="#FFFFFF" height="31.291" style="stroke:#181818;stroke-width:1.0;" width="10" x="1967.5" y="1570.959"/><rect fill="#FFFFFF" height="31.291" style="stroke:#181818;stroke-width:1.0;" width="10" x="2404.5" y="1470.0859"/><rect fill="#FFFFFF" height="31.291" style="stroke:#181818;stroke-width:1.0;" width="10" x="2458.5" y="1160.1758"/><rect fill="#FFFFFF" height="31.291" style="stroke:#181818;stroke-width:1.0;" width="10" x="2458.5" y="1249.0488"/><rect fill="none" height="81.873" style="stroke:#000000;stroke-width:1.5;" width="399.5" x="1389" y="860.2656"/><rect fill="none" height="81.873" style="stroke:#000000;stroke-width:1.5;" width="716.5" x="1778.5" y="1206.4668"/><rect fill="none" height="81.873" style="stroke:#000000;stroke-width:1.5;" width="505.5" x="1936.5" y="1427.5039"/><line style="stroke:#181818;stroke-width:0.5;stroke-dasharray:5.0,5.0;" x1="47" x2="47" y1="141.8633" y2="1682.832"/><line style="stroke:#181818;stroke-width:0.5;stroke-dasharray:5.0,5.0;" x1="361" x2="361" y1="141.8633" y2="1682.832"/><line style="stroke:#181818;stroke-width:0.5;stroke-dasharray:5.0,5.0;" x1="683" x2="683" y1="141.8633" y2="1682.832"/><line style="stroke:#181818;stroke-width:0.5;stroke-dasharray:5.0,5.0;" x1="847.5" x2="847.5" y1="141.8633" y2="1682.832"/><line style="stroke:#181818;stroke-width:0.5;stroke-dasharray:5.0,5.0;" x1="954.5" x2="954.5" y1="141.8633" y2="1682.832"/><line style="stroke:#181818;stroke-width:0.5;stroke-dasharray:5.0,5.0;" x1="1101.5" x2="1101.5" y1="141.8633" y2="1682.832"/><line style="stroke:#181818;stroke-width:0.5;stroke-dasharray:5.0,5.0;" x1="1340" x2="1340" y1="141.8633" y2="1682.832"/><line style="stroke:#181818;stroke-width:0.5;stroke-dasharray:5.0,5.0;" x1="1480" x2="1480" y1="141.8633" y2="1682.832"/><line style="stroke:#181818;stroke-width:0.5;stroke-dasharray:5.0,5.0;" x1="1729.5" x2="1729.5" y1="141.8633" y2="1682.832"/><line style="stroke:#181818;stroke-width:0.5;stroke-dasharray:5.0,5.0;" x1="1862.5" x2="1862.5" y1="141.8633" y2="1682.832"/><line style="stroke:#181818;stroke-width:0.5;stroke-dasharray:5.0,5.0;" x1="1972.5" x2="1972.5" y1="141.8633" y2="1682.832"/><line style="stroke:#181818;stroke-width:0.5;stroke-dasharray:5.0,5.0;" x1="2409" x2="2409" y1="141.8633" y2="1682.832"/><line style="stroke:#181818;stroke-width:0.5;stroke-dasharray:5.0,5.0;" x1="2463" x2="2463" y1="141.8633" y2="1682.832"/><text fill="#000000" font-family="sans-serif" font-size="14" lengthAdjust="spacing" textLength="78" x="5" y="138.3496">Collaborator</text><ellipse cx="47" cy="71.7422" fill="#E3E3E3" rx="8" ry="8" style="stroke:#181818;stroke-width:0.5;"/><path d="M47,79.7422 L47,106.7422 M34,87.7422 L60,87.7422 M47,106.7422 L34,121.7422 M47,106.7422 L60,121.7422 " fill="none" style="stroke:#181818;stroke-width:0.5;"/><text fill="#000000" font-family="sans-serif" font-size="14" lengthAdjust="spacing" textLength="78" x="5" y="1696.9395">Collaborator</text><ellipse cx="47" cy="1708.9531" fill="#E3E3E3" rx="8" ry="8" style="stroke:#181818;stroke-width:0.5;"/><path d="M47,1716.9531 L47,1743.9531 M34,1724.9531 L60,1724.9531 M47,1743.9531 L34,1758.9531 M47,1743.9531 L60,1758.9531 " fill="none" style="stroke:#181818;stroke-width:0.5;"/><rect fill="#E3E3E3" height="32.6211" rx="2.5" ry="2.5" style="stroke:#181818;stroke-width:0.5;" width="116" x="303" y="108.2422"/><text fill="#000000" font-family="sans-serif" font-size="14" lengthAdjust="spacing" textLength="102" x="310" y="130.3496">:ConsultTasksUI</text><rect fill="#E3E3E3" height="32.6211" rx="2.5" ry="2.5" style="stroke:#181818;stroke-width:0.5;" width="116" x="303" y="1681.832"/><text fill="#000000" font-family="sans-serif" font-size="14" lengthAdjust="spacing" textLength="102" x="310" y="1703.9395">:ConsultTasksUI</text><rect fill="#E3E3E3" height="32.6211" rx="2.5" ry="2.5" style="stroke:#181818;stroke-width:0.5;" width="166" x="600" y="108.2422"/><text fill="#000000" font-family="sans-serif" font-size="14" lengthAdjust="spacing" textLength="152" x="607" y="130.3496">:ConsultTasksController</text><rect fill="#E3E3E3" height="32.6211" rx="2.5" ry="2.5" style="stroke:#181818;stroke-width:0.5;" width="166" x="600" y="1681.832"/><text fill="#000000" font-family="sans-serif" font-size="14" lengthAdjust="spacing" textLength="152" x="607" y="1703.9395">:ConsultTasksController</text><rect fill="#E3E3E3" height="32.6211" rx="2.5" ry="2.5" style="stroke:#181818;stroke-width:0.5;" width="97" x="799.5" y="108.2422"/><text fill="#000000" font-family="sans-serif" font-size="14" lengthAdjust="spacing" textLength="83" x="806.5" y="130.3496">:Repositories</text><rect fill="#E3E3E3" height="32.6211" rx="2.5" ry="2.5" style="stroke:#181818;stroke-width:0.5;" width="97" x="799.5" y="1681.832"/><text fill="#000000" font-family="sans-serif" font-size="14" lengthAdjust="spacing" textLength="83" x="806.5" y="1703.9395">:Repositories</text><rect fill="#E3E3E3" height="51.2422" rx="2.5" ry="2.5" style="stroke:#181818;stroke-width:0.5;" width="97" x="906.5" y="89.6211"/><text fill="#000000" font-family="sans-serif" font-size="14" lengthAdjust="spacing" textLength="74" x="918" y="111.7285">repositories</text><text fill="#000000" font-family="sans-serif" font-size="14" lengthAdjust="spacing" textLength="83" x="913.5" y="130.3496">:Repositories</text><rect fill="#E3E3E3" height="51.2422" rx="2.5" ry="2.5" style="stroke:#181818;stroke-width:0.5;" width="97" x="906.5" y="1681.832"/><text fill="#000000" font-family="sans-serif" font-size="14" lengthAdjust="spacing" textLength="74" x="918" y="1703.9395">repositories</text><text fill="#000000" font-family="sans-serif" font-size="14" lengthAdjust="spacing" textLength="83" x="913.5" y="1722.5605">:Repositories</text><rect fill="#E3E3E3" height="51.2422" rx="2.5" ry="2.5" style="stroke:#181818;stroke-width:0.5;" width="176" x="1013.5" y="89.6211"/><text fill="#000000" font-family="sans-serif" font-size="14" lengthAdjust="spacing" textLength="77" x="1063" y="111.7285">AuthFacade</text><text fill="#000000" font-family="sans-serif" font-size="14" lengthAdjust="spacing" textLength="162" x="1020.5" y="130.3496">:AuthenticationRepository</text><rect fill="#E3E3E3" height="51.2422" rx="2.5" ry="2.5" style="stroke:#181818;stroke-width:0.5;" width="176" x="1013.5" y="1681.832"/><text fill="#000000" font-family="sans-serif" font-size="14" lengthAdjust="spacing" textLength="77" x="1063" y="1703.9395">AuthFacade</text><text fill="#000000" font-family="sans-serif" font-size="14" lengthAdjust="spacing" textLength="162" x="1020.5" y="1722.5605">:AuthenticationRepository</text><rect fill="#E3E3E3" height="51.2422" rx="2.5" ry="2.5" style="stroke:#181818;stroke-width:0.5;" width="97" x="1292" y="89.6211"/><text fill="#000000" font-family="sans-serif" font-size="14" lengthAdjust="spacing" textLength="78" x="1301.5" y="111.7285">userSession</text><text fill="#000000" font-family="sans-serif" font-size="14" lengthAdjust="spacing" textLength="83" x="1299" y="130.3496">:UserSession</text><rect fill="#E3E3E3" height="51.2422" rx="2.5" ry="2.5" style="stroke:#181818;stroke-width:0.5;" width="97" x="1292" y="1681.832"/><text fill="#000000" font-family="sans-serif" font-size="14" lengthAdjust="spacing" textLength="78" x="1301.5" y="1703.9395">userSession</text><text fill="#000000" font-family="sans-serif" font-size="14" lengthAdjust="spacing" textLength="83" x="1299" y="1722.5605">:UserSession</text><rect fill="#E3E3E3" height="51.2422" rx="2.5" ry="2.5" style="stroke:#181818;stroke-width:0.5;" width="163" x="1399" y="89.6211"/><text fill="#000000" font-family="sans-serif" font-size="14" lengthAdjust="spacing" textLength="149" x="1406" y="111.7285">organizationRepository:</text><text fill="#000000" font-family="sans-serif" font-size="14" lengthAdjust="spacing" textLength="148" x="1406.5" y="130.3496">OrganizationRepository</text><rect fill="#E3E3E3" height="51.2422" rx="2.5" ry="2.5" style="stroke:#181818;stroke-width:0.5;" width="163" x="1399" y="1681.832"/><text fill="#000000" font-family="sans-serif" font-size="14" lengthAdjust="spacing" textLength="149" x="1406" y="1703.9395">organizationRepository:</text><text fill="#000000" font-family="sans-serif" font-size="14" lengthAdjust="spacing" textLength="148" x="1406.5" y="1722.5605">OrganizationRepository</text><rect fill="#E3E3E3" height="51.2422" rx="2.5" ry="2.5" style="stroke:#181818;stroke-width:0.5;" width="98" x="1680.5" y="89.6211"/><text fill="#000000" font-family="sans-serif" font-size="14" lengthAdjust="spacing" textLength="77" x="1691" y="111.7285">organization</text><text fill="#000000" font-family="sans-serif" font-size="14" lengthAdjust="spacing" textLength="84" x="1687.5" y="130.3496">:Organization</text><rect fill="#E3E3E3" height="51.2422" rx="2.5" ry="2.5" style="stroke:#181818;stroke-width:0.5;" width="98" x="1680.5" y="1681.832"/><text fill="#000000" font-family="sans-serif" font-size="14" lengthAdjust="spacing" textLength="77" x="1691" y="1703.9395">organization</text><text fill="#000000" font-family="sans-serif" font-size="14" lengthAdjust="spacing" textLength="84" x="1687.5" y="1722.5605">:Organization</text><rect fill="#E3E3E3" height="51.2422" rx="2.5" ry="2.5" style="stroke:#181818;stroke-width:0.5;" width="148" x="1788.5" y="89.6211"/><text fill="#000000" font-family="sans-serif" font-size="14" lengthAdjust="spacing" textLength="129" x="1798" y="111.7285">employeeRepository</text><text fill="#000000" font-family="sans-serif" font-size="14" lengthAdjust="spacing" textLength="134" x="1795.5" y="130.3496">:EmployeeRepository</text><rect fill="#E3E3E3" height="51.2422" rx="2.5" ry="2.5" style="stroke:#181818;stroke-width:0.5;" width="148" x="1788.5" y="1681.832"/><text fill="#000000" font-family="sans-serif" font-size="14" lengthAdjust="spacing" textLength="129" x="1798" y="1703.9395">employeeRepository</text><text fill="#000000" font-family="sans-serif" font-size="14" lengthAdjust="spacing" textLength="134" x="1795.5" y="1722.5605">:EmployeeRepository</text><rect fill="#E3E3E3" height="51.2422" rx="2.5" ry="2.5" style="stroke:#181818;stroke-width:0.5;" width="52" x="1946.5" y="89.6211"/><text fill="#000000" font-family="sans-serif" font-size="14" lengthAdjust="spacing" textLength="37" x="1954" y="111.7285">tasks:</text><text fill="#000000" font-family="sans-serif" font-size="14" lengthAdjust="spacing" textLength="38" x="1953.5" y="130.3496">Tasks</text><rect fill="#E3E3E3" height="51.2422" rx="2.5" ry="2.5" style="stroke:#181818;stroke-width:0.5;" width="52" x="1946.5" y="1681.832"/><text fill="#000000" font-family="sans-serif" font-size="14" lengthAdjust="spacing" textLength="37" x="1954" y="1703.9395">tasks:</text><text fill="#000000" font-family="sans-serif" font-size="14" lengthAdjust="spacing" textLength="38" x="1953.5" y="1722.5605">Tasks</text><rect fill="#E3E3E3" height="51.2422" rx="2.5" ry="2.5" style="stroke:#181818;stroke-width:0.5;" width="45" x="2387" y="89.6211"/><text fill="#000000" font-family="sans-serif" font-size="14" lengthAdjust="spacing" textLength="30" x="2394.5" y="111.7285">task:</text><text fill="#000000" font-family="sans-serif" font-size="14" lengthAdjust="spacing" textLength="31" x="2394" y="130.3496">Task</text><rect fill="#E3E3E3" height="51.2422" rx="2.5" ry="2.5" style="stroke:#181818;stroke-width:0.5;" width="45" x="2387" y="1681.832"/><text fill="#000000" font-family="sans-serif" font-size="14" lengthAdjust="spacing" textLength="30" x="2394.5" y="1703.9395">task:</text><text fill="#000000" font-family="sans-serif" font-size="14" lengthAdjust="spacing" textLength="31" x="2394" y="1722.5605">Task</text><rect fill="#E3E3E3" height="32.6211" rx="2.5" ry="2.5" style="stroke:#181818;stroke-width:0.5;" width="43" x="2442" y="108.2422"/><text fill="#000000" font-family="sans-serif" font-size="14" lengthAdjust="spacing" textLength="29" x="2449" y="130.3496">EMP</text><rect fill="#E3E3E3" height="32.6211" rx="2.5" ry="2.5" style="stroke:#181818;stroke-width:0.5;" width="43" x="2442" y="1681.832"/><text fill="#000000" font-family="sans-serif" font-size="14" lengthAdjust="spacing" textLength="29" x="2449" y="1703.9395">EMP</text><rect fill="#FFFFFF" height="1512.9688" style="stroke:#181818;stroke-width:1.0;" width="10" x="42" y="151.8633"/><rect fill="#FFFFFF" height="31.291" style="stroke:#181818;stroke-width:1.0;" width="10" x="356" y="175.1543"/><rect fill="#FFFFFF" height="1427.0957" style="stroke:#181818;stroke-width:1.0;" width="10" x="356" y="237.7363"/><rect fill="#FFFFFF" height="1301.9316" style="stroke:#181818;stroke-width:1.0;" width="10" x="678" y="331.6094"/><rect fill="#FFFFFF" height="31.291" style="stroke:#181818;stroke-width:1.0;" width="10" x="843" y="407.1914"/><rect fill="#FFFFFF" height="31.291" style="stroke:#181818;stroke-width:1.0;" width="10" x="843" y="720.1016"/><rect fill="#FFFFFF" height="31.291" style="stroke:#181818;stroke-width:1.0;" width="10" x="843" y="1003.7207"/><rect fill="#FFFFFF" height="31.291" style="stroke:#181818;stroke-width:1.0;" width="10" x="843" y="1349.9219"/><rect fill="#FFFFFF" height="31.291" style="stroke:#181818;stroke-width:1.0;" width="10" x="950" y="469.7734"/><rect fill="#FFFFFF" height="31.291" style="stroke:#181818;stroke-width:1.0;" width="10" x="950" y="782.6836"/><rect fill="#FFFFFF" height="31.291" style="stroke:#181818;stroke-width:1.0;" width="10" x="950" y="1066.3027"/><rect fill="#FFFFFF" height="156.4551" style="stroke:#181818;stroke-width:1.0;" width="10" x="1096.5" y="532.3555"/><rect fill="#FFFFFF" height="93.873" style="stroke:#181818;stroke-width:1.0;" width="10" x="1335.5" y="563.6465"/><rect fill="#FFFFFF" height="127.1641" style="stroke:#181818;stroke-width:1.0;" width="10" x="1475.5" y="845.2656"/><rect fill="#FFFFFF" height="31.291" style="stroke:#181818;stroke-width:1.0;" width="10" x="1724.5" y="902.8477"/><rect fill="#FFFFFF" height="189.7461" style="stroke:#181818;stroke-width:1.0;" width="10" x="1857.5" y="1128.8848"/><rect fill="#FFFFFF" height="127.1641" style="stroke:#181818;stroke-width:1.0;" width="10" x="1967.5" y="1412.5039"/><rect fill="#FFFFFF" height="31.291" style="stroke:#181818;stroke-width:1.0;" width="10" x="1967.5" y="1570.959"/><rect fill="#FFFFFF" height="31.291" style="stroke:#181818;stroke-width:1.0;" width="10" x="2404.5" y="1470.0859"/><rect fill="#FFFFFF" height="31.291" style="stroke:#181818;stroke-width:1.0;" width="10" x="2458.5" y="1160.1758"/><rect fill="#FFFFFF" height="31.291" style="stroke:#181818;stroke-width:1.0;" width="10" x="2458.5" y="1249.0488"/><polygon fill="#181818" points="344,171.1543,354,175.1543,344,179.1543,348,175.1543" style="stroke:#181818;stroke-width:1.0;"/><line style="stroke:#181818;stroke-width:1.0;" x1="52" x2="350" y1="175.1543" y2="175.1543"/><text fill="#000000" font-family="sans-serif" font-size="13" font-weight="bold" lengthAdjust="spacing" textLength="7" x="59" y="169.8916">1</text><text fill="#000000" font-family="sans-serif" font-size="13" lengthAdjust="spacing" textLength="241" x="70" y="169.8916">requests to view tasks between two dates</text><polygon fill="#181818" points="63,202.4453,53,206.4453,63,210.4453,59,206.4453" style="stroke:#181818;stroke-width:1.0;"/><line style="stroke:#181818;stroke-width:1.0;stroke-dasharray:2.0,2.0;" x1="57" x2="360" y1="206.4453" y2="206.4453"/><text fill="#000000" font-family="sans-serif" font-size="13" font-weight="bold" lengthAdjust="spacing" textLength="7" x="69" y="201.1826">2</text><text fill="#000000" font-family="sans-serif" font-size="13" lengthAdjust="spacing" textLength="258" x="80" y="201.1826">request start date, end date, and task status</text><polygon fill="#181818" points="344,233.7363,354,237.7363,344,241.7363,348,237.7363" style="stroke:#181818;stroke-width:1.0;"/><line style="stroke:#181818;stroke-width:1.0;" x1="52" x2="350" y1="237.7363" y2="237.7363"/><text fill="#000000" font-family="sans-serif" font-size="13" font-weight="bold" lengthAdjust="spacing" textLength="7" x="59" y="232.4736">3</text><text fill="#000000" font-family="sans-serif" font-size="13" lengthAdjust="spacing" textLength="255" x="70" y="232.4736">provide start date, end date, and task status</text><polygon fill="#181818" points="63,265.0273,53,269.0273,63,273.0273,59,269.0273" style="stroke:#181818;stroke-width:1.0;"/><line style="stroke:#181818;stroke-width:1.0;" x1="57" x2="355" y1="269.0273" y2="269.0273"/><text fill="#000000" font-family="sans-serif" font-size="13" font-weight="bold" lengthAdjust="spacing" textLength="7" x="69" y="263.7646">4</text><text fill="#000000" font-family="sans-serif" font-size="13" lengthAdjust="spacing" textLength="245" x="80" y="263.7646">show start date, end date, and task status</text><polygon fill="#181818" points="344,296.3184,354,300.3184,344,304.3184,348,300.3184" style="stroke:#181818;stroke-width:1.0;"/><line style="stroke:#181818;stroke-width:1.0;" x1="52" x2="350" y1="300.3184" y2="300.3184"/><text fill="#000000" font-family="sans-serif" font-size="13" font-weight="bold" lengthAdjust="spacing" textLength="7" x="59" y="295.0557">5</text><text fill="#000000" font-family="sans-serif" font-size="13" lengthAdjust="spacing" textLength="269" x="70" y="295.0557">confirm data (start date, end date, task status)</text><polygon fill="#181818" points="666,327.6094,676,331.6094,666,335.6094,670,331.6094" style="stroke:#181818;stroke-width:1.0;"/><line style="stroke:#181818;stroke-width:1.0;" x1="366" x2="672" y1="331.6094" y2="331.6094"/><text fill="#000000" font-family="sans-serif" font-size="13" font-weight="bold" lengthAdjust="spacing" textLength="7" x="373" y="326.3467">6</text><text fill="#000000" font-family="sans-serif" font-size="13" lengthAdjust="spacing" textLength="282" x="384" y="326.3467">confirmConsultTasks(startDate, endDate, status)</text><line style="stroke:#181818;stroke-width:1.0;" x1="688" x2="730" y1="362.9004" y2="362.9004"/><line style="stroke:#181818;stroke-width:1.0;" x1="730" x2="730" y1="362.9004" y2="375.9004"/><line style="stroke:#181818;stroke-width:1.0;" x1="689" x2="730" y1="375.9004" y2="375.9004"/><polygon fill="#181818" points="699,371.9004,689,375.9004,699,379.9004,695,375.9004" style="stroke:#181818;stroke-width:1.0;"/><text fill="#000000" font-family="sans-serif" font-size="13" font-weight="bold" lengthAdjust="spacing" textLength="7" x="695" y="357.6377">7</text><text fill="#000000" font-family="sans-serif" font-size="13" lengthAdjust="spacing" textLength="130" x="706" y="357.6377">getUserFromSession()</text><polygon fill="#181818" points="831,403.1914,841,407.1914,831,411.1914,835,407.1914" style="stroke:#181818;stroke-width:1.0;"/><line style="stroke:#181818;stroke-width:1.0;" x1="688" x2="837" y1="407.1914" y2="407.1914"/><text fill="#000000" font-family="sans-serif" font-size="13" font-weight="bold" lengthAdjust="spacing" textLength="7" x="695" y="401.9287">8</text><text fill="#000000" font-family="sans-serif" font-size="13" lengthAdjust="spacing" textLength="75" x="706" y="401.9287">getInstance()</text><polygon fill="#181818" points="699,434.4824,689,438.4824,699,442.4824,695,438.4824" style="stroke:#181818;stroke-width:1.0;"/><line style="stroke:#181818;stroke-width:1.0;stroke-dasharray:2.0,2.0;" x1="693" x2="847" y1="438.4824" y2="438.4824"/><text fill="#000000" font-family="sans-serif" font-size="13" font-weight="bold" lengthAdjust="spacing" textLength="7" x="705" y="433.2197">9</text><text fill="#000000" font-family="sans-serif" font-size="13" lengthAdjust="spacing" textLength="72" x="716" y="433.2197">Repositories</text><polygon fill="#181818" points="938,465.7734,948,469.7734,938,473.7734,942,469.7734" style="stroke:#181818;stroke-width:1.0;"/><line style="stroke:#181818;stroke-width:1.0;" x1="688" x2="944" y1="469.7734" y2="469.7734"/><text fill="#000000" font-family="sans-serif" font-size="13" font-weight="bold" lengthAdjust="spacing" textLength="14" x="695" y="464.5107">10</text><text fill="#000000" font-family="sans-serif" font-size="13" lengthAdjust="spacing" textLength="171" x="713" y="464.5107">getAuthenticationRepository()</text><polygon fill="#181818" points="699,497.0645,689,501.0645,699,505.0645,695,501.0645" style="stroke:#181818;stroke-width:1.0;"/><line style="stroke:#181818;stroke-width:1.0;stroke-dasharray:2.0,2.0;" x1="693" x2="954" y1="501.0645" y2="501.0645"/><text fill="#000000" font-family="sans-serif" font-size="13" font-weight="bold" lengthAdjust="spacing" textLength="14" x="705" y="495.8018">11</text><text fill="#000000" font-family="sans-serif" font-size="13" lengthAdjust="spacing" textLength="145" x="723" y="495.8018">AuthenticationRepository</text><polygon fill="#181818" points="1084.5,528.3555,1094.5,532.3555,1084.5,536.3555,1088.5,532.3555" style="stroke:#181818;stroke-width:1.0;"/><line style="stroke:#181818;stroke-width:1.0;" x1="688" x2="1090.5" y1="532.3555" y2="532.3555"/><text fill="#000000" font-family="sans-serif" font-size="13" font-weight="bold" lengthAdjust="spacing" textLength="14" x="695" y="527.0928">12</text><text fill="#000000" font-family="sans-serif" font-size="13" lengthAdjust="spacing" textLength="142" x="713" y="527.0928">getCurrentUserSession()</text><polygon fill="#181818" points="1323.5,559.6465,1333.5,563.6465,1323.5,567.6465,1327.5,563.6465" style="stroke:#181818;stroke-width:1.0;"/><line style="stroke:#181818;stroke-width:1.0;" x1="1106.5" x2="1329.5" y1="563.6465" y2="563.6465"/><text fill="#000000" font-family="sans-serif" font-size="13" font-weight="bold" lengthAdjust="spacing" textLength="14" x="1113.5" y="558.3838">13</text><text fill="#000000" font-family="sans-serif" font-size="13" lengthAdjust="spacing" textLength="192" x="1131.5" y="558.3838">isLoggedInWithRole(Collaborator)</text><polygon fill="#181818" points="1117.5,590.9375,1107.5,594.9375,1117.5,598.9375,1113.5,594.9375" style="stroke:#181818;stroke-width:1.0;"/><line style="stroke:#181818;stroke-width:1.0;stroke-dasharray:2.0,2.0;" x1="1111.5" x2="1334.5" y1="594.9375" y2="594.9375"/><text fill="#000000" font-family="sans-serif" font-size="13" font-weight="bold" lengthAdjust="spacing" textLength="14" x="1123.5" y="589.6748">14</text><text fill="#000000" font-family="sans-serif" font-size="13" lengthAdjust="spacing" textLength="61" x="1141.5" y="589.6748">True/False</text><polygon fill="#181818" points="1323.5,622.2285,1333.5,626.2285,1323.5,630.2285,1327.5,626.2285" style="stroke:#181818;stroke-width:1.0;"/><line style="stroke:#181818;stroke-width:1.0;stroke-dasharray:2.0,2.0;" x1="1106.5" x2="1329.5" y1="626.2285" y2="626.2285"/><text fill="#000000" font-family="sans-serif" font-size="13" font-weight="bold" lengthAdjust="spacing" textLength="14" x="1113.5" y="620.9658">15</text><text fill="#000000" font-family="sans-serif" font-size="13" lengthAdjust="spacing" textLength="94" x="1131.5" y="620.9658">getUserId(email)</text><polygon fill="#181818" points="1117.5,653.5195,1107.5,657.5195,1117.5,661.5195,1113.5,657.5195" style="stroke:#181818;stroke-width:1.0;"/><line style="stroke:#181818;stroke-width:1.0;stroke-dasharray:2.0,2.0;" x1="1111.5" x2="1339.5" y1="657.5195" y2="657.5195"/><text fill="#000000" font-family="sans-serif" font-size="13" font-weight="bold" lengthAdjust="spacing" textLength="14" x="1123.5" y="652.2568">16</text><text fill="#000000" font-family="sans-serif" font-size="13" lengthAdjust="spacing" textLength="74" x="1141.5" y="652.2568">userId(email)</text><polygon fill="#181818" points="699,684.8105,689,688.8105,699,692.8105,695,688.8105" style="stroke:#181818;stroke-width:1.0;"/><line style="stroke:#181818;stroke-width:1.0;stroke-dasharray:2.0,2.0;" x1="693" x2="1100.5" y1="688.8105" y2="688.8105"/><text fill="#000000" font-family="sans-serif" font-size="13" font-weight="bold" lengthAdjust="spacing" textLength="14" x="705" y="683.5479">17</text><text fill="#000000" font-family="sans-serif" font-size="13" lengthAdjust="spacing" textLength="74" x="723" y="683.5479">userId(email)</text><polygon fill="#181818" points="831,716.1016,841,720.1016,831,724.1016,835,720.1016" style="stroke:#181818;stroke-width:1.0;"/><line style="stroke:#181818;stroke-width:1.0;" x1="688" x2="837" y1="720.1016" y2="720.1016"/><text fill="#000000" font-family="sans-serif" font-size="13" font-weight="bold" lengthAdjust="spacing" textLength="14" x="695" y="714.8389">18</text><text fill="#000000" font-family="sans-serif" font-size="13" lengthAdjust="spacing" textLength="75" x="713" y="714.8389">getInstance()</text><polygon fill="#181818" points="699,747.3926,689,751.3926,699,755.3926,695,751.3926" style="stroke:#181818;stroke-width:1.0;"/><line style="stroke:#181818;stroke-width:1.0;stroke-dasharray:2.0,2.0;" x1="693" x2="847" y1="751.3926" y2="751.3926"/><text fill="#000000" font-family="sans-serif" font-size="13" font-weight="bold" lengthAdjust="spacing" textLength="14" x="705" y="746.1299">19</text><text fill="#000000" font-family="sans-serif" font-size="13" lengthAdjust="spacing" textLength="72" x="723" y="746.1299">Repositories</text><polygon fill="#181818" points="938,778.6836,948,782.6836,938,786.6836,942,782.6836" style="stroke:#181818;stroke-width:1.0;"/><line style="stroke:#181818;stroke-width:1.0;" x1="688" x2="944" y1="782.6836" y2="782.6836"/><text fill="#000000" font-family="sans-serif" font-size="13" font-weight="bold" lengthAdjust="spacing" textLength="14" x="695" y="777.4209">20</text><text fill="#000000" font-family="sans-serif" font-size="13" lengthAdjust="spacing" textLength="161" x="713" y="777.4209">getOrganizationRepository()</text><polygon fill="#181818" points="699,809.9746,689,813.9746,699,817.9746,695,813.9746" style="stroke:#181818;stroke-width:1.0;"/><line style="stroke:#181818;stroke-width:1.0;stroke-dasharray:2.0,2.0;" x1="693" x2="954" y1="813.9746" y2="813.9746"/><text fill="#000000" font-family="sans-serif" font-size="13" font-weight="bold" lengthAdjust="spacing" textLength="14" x="705" y="808.7119">21</text><text fill="#000000" font-family="sans-serif" font-size="13" lengthAdjust="spacing" textLength="135" x="723" y="808.7119">OrganizationRepository</text><polygon fill="#181818" points="1463.5,841.2656,1473.5,845.2656,1463.5,849.2656,1467.5,845.2656" style="stroke:#181818;stroke-width:1.0;"/><line style="stroke:#181818;stroke-width:1.0;" x1="688" x2="1469.5" y1="845.2656" y2="845.2656"/><text fill="#000000" font-family="sans-serif" font-size="13" font-weight="bold" lengthAdjust="spacing" textLength="14" x="695" y="840.0029">22</text><text fill="#000000" font-family="sans-serif" font-size="13" lengthAdjust="spacing" textLength="183" x="713" y="840.0029">getOrganizationByUserId(email)</text><path d="M1389,860.2656 L1462,860.2656 L1462,869.5566 L1452,879.5566 L1389,879.5566 L1389,860.2656 " fill="#EEEEEE" style="stroke:#000000;stroke-width:1.5;"/><rect fill="none" height="81.873" style="stroke:#000000;stroke-width:1.5;" width="399.5" x="1389" y="860.2656"/><text fill="#000000" font-family="sans-serif" font-size="13" font-weight="bold" lengthAdjust="spacing" textLength="28" x="1404" y="875.2939">loop</text><text fill="#000000" font-family="sans-serif" font-size="11" font-weight="bold" lengthAdjust="spacing" textLength="124" x="1477" y="874.1357">[for each organization]</text><polygon fill="#181818" points="1712.5,898.8477,1722.5,902.8477,1712.5,906.8477,1716.5,902.8477" style="stroke:#181818;stroke-width:1.0;"/><line style="stroke:#181818;stroke-width:1.0;" x1="1485.5" x2="1718.5" y1="902.8477" y2="902.8477"/><text fill="#000000" font-family="sans-serif" font-size="13" font-weight="bold" lengthAdjust="spacing" textLength="14" x="1492.5" y="897.585">23</text><text fill="#000000" font-family="sans-serif" font-size="13" lengthAdjust="spacing" textLength="202" x="1510.5" y="897.585">anyEmployeeHasThisUserId(email)</text><polygon fill="#181818" points="1496.5,930.1387,1486.5,934.1387,1496.5,938.1387,1492.5,934.1387" style="stroke:#181818;stroke-width:1.0;"/><line style="stroke:#181818;stroke-width:1.0;stroke-dasharray:2.0,2.0;" x1="1490.5" x2="1728.5" y1="934.1387" y2="934.1387"/><text fill="#000000" font-family="sans-serif" font-size="13" font-weight="bold" lengthAdjust="spacing" textLength="14" x="1502.5" y="928.876">24</text><text fill="#000000" font-family="sans-serif" font-size="13" lengthAdjust="spacing" textLength="61" x="1520.5" y="928.876">True/False</text><polygon fill="#181818" points="699,968.4297,689,972.4297,699,976.4297,695,972.4297" style="stroke:#181818;stroke-width:1.0;"/><line style="stroke:#181818;stroke-width:1.0;stroke-dasharray:2.0,2.0;" x1="693" x2="1479.5" y1="972.4297" y2="972.4297"/><text fill="#000000" font-family="sans-serif" font-size="13" font-weight="bold" lengthAdjust="spacing" textLength="14" x="705" y="967.167">25</text><text fill="#000000" font-family="sans-serif" font-size="13" lengthAdjust="spacing" textLength="70" x="723" y="967.167">organization</text><polygon fill="#181818" points="831,999.7207,841,1003.7207,831,1007.7207,835,1003.7207" style="stroke:#181818;stroke-width:1.0;"/><line style="stroke:#181818;stroke-width:1.0;" x1="688" x2="837" y1="1003.7207" y2="1003.7207"/><text fill="#000000" font-family="sans-serif" font-size="13" font-weight="bold" lengthAdjust="spacing" textLength="14" x="695" y="998.458">26</text><text fill="#000000" font-family="sans-serif" font-size="13" lengthAdjust="spacing" textLength="75" x="713" y="998.458">getInstance()</text><polygon fill="#181818" points="699,1031.0117,689,1035.0117,699,1039.0117,695,1035.0117" style="stroke:#181818;stroke-width:1.0;"/><line style="stroke:#181818;stroke-width:1.0;stroke-dasharray:2.0,2.0;" x1="693" x2="847" y1="1035.0117" y2="1035.0117"/><text fill="#000000" font-family="sans-serif" font-size="13" font-weight="bold" lengthAdjust="spacing" textLength="14" x="705" y="1029.749">27</text><text fill="#000000" font-family="sans-serif" font-size="13" lengthAdjust="spacing" textLength="72" x="723" y="1029.749">Repositories</text><polygon fill="#181818" points="938,1062.3027,948,1066.3027,938,1070.3027,942,1066.3027" style="stroke:#181818;stroke-width:1.0;"/><line style="stroke:#181818;stroke-width:1.0;" x1="688" x2="944" y1="1066.3027" y2="1066.3027"/><text fill="#000000" font-family="sans-serif" font-size="13" font-weight="bold" lengthAdjust="spacing" textLength="14" x="695" y="1061.04">28</text><text fill="#000000" font-family="sans-serif" font-size="13" lengthAdjust="spacing" textLength="146" x="713" y="1061.04">getEmployeeRepository()</text><polygon fill="#181818" points="699,1093.5938,689,1097.5938,699,1101.5938,695,1097.5938" style="stroke:#181818;stroke-width:1.0;"/><line style="stroke:#181818;stroke-width:1.0;stroke-dasharray:2.0,2.0;" x1="693" x2="954" y1="1097.5938" y2="1097.5938"/><text fill="#000000" font-family="sans-serif" font-size="13" font-weight="bold" lengthAdjust="spacing" textLength="14" x="705" y="1092.3311">29</text><text fill="#000000" font-family="sans-serif" font-size="13" lengthAdjust="spacing" textLength="120" x="723" y="1092.3311">EmployeeRepository</text><polygon fill="#181818" points="1845.5,1124.8848,1855.5,1128.8848,1845.5,1132.8848,1849.5,1128.8848" style="stroke:#181818;stroke-width:1.0;"/><line style="stroke:#181818;stroke-width:1.0;" x1="688" x2="1851.5" y1="1128.8848" y2="1128.8848"/><text fill="#000000" font-family="sans-serif" font-size="13" font-weight="bold" lengthAdjust="spacing" textLength="14" x="695" y="1123.6221">30</text><text fill="#000000" font-family="sans-serif" font-size="13" lengthAdjust="spacing" textLength="195" x="713" y="1123.6221">getEmployeeByUserEmail(userId)</text><polygon fill="#181818" points="2446.5,1156.1758,2456.5,1160.1758,2446.5,1164.1758,2450.5,1160.1758" style="stroke:#181818;stroke-width:1.0;"/><line style="stroke:#181818;stroke-width:1.0;" x1="1867.5" x2="2452.5" y1="1160.1758" y2="1160.1758"/><text fill="#000000" font-family="sans-serif" font-size="13" font-weight="bold" lengthAdjust="spacing" textLength="14" x="1874.5" y="1154.9131">31</text><text fill="#000000" font-family="sans-serif" font-size="13" lengthAdjust="spacing" textLength="202" x="1892.5" y="1154.9131">anyEmployeeHasThisUserId(email)</text><polygon fill="#181818" points="1878.5,1187.4668,1868.5,1191.4668,1878.5,1195.4668,1874.5,1191.4668" style="stroke:#181818;stroke-width:1.0;"/><line style="stroke:#181818;stroke-width:1.0;stroke-dasharray:2.0,2.0;" x1="1872.5" x2="2462.5" y1="1191.4668" y2="1191.4668"/><text fill="#000000" font-family="sans-serif" font-size="13" font-weight="bold" lengthAdjust="spacing" textLength="14" x="1884.5" y="1186.2041">32</text><text fill="#000000" font-family="sans-serif" font-size="13" lengthAdjust="spacing" textLength="61" x="1902.5" y="1186.2041">True/False</text><path d="M1778.5,1206.4668 L1851.5,1206.4668 L1851.5,1215.7578 L1841.5,1225.7578 L1778.5,1225.7578 L1778.5,1206.4668 " fill="#EEEEEE" style="stroke:#000000;stroke-width:1.5;"/><rect fill="none" height="81.873" style="stroke:#000000;stroke-width:1.5;" width="716.5" x="1778.5" y="1206.4668"/><text fill="#000000" font-family="sans-serif" font-size="13" font-weight="bold" lengthAdjust="spacing" textLength="28" x="1793.5" y="1221.4951">loop</text><text fill="#000000" font-family="sans-serif" font-size="11" font-weight="bold" lengthAdjust="spacing" textLength="215" x="1866.5" y="1220.3369">[for each employee with userId(email)]</text><polygon fill="#181818" points="2446.5,1245.0488,2456.5,1249.0488,2446.5,1253.0488,2450.5,1249.0488" style="stroke:#181818;stroke-width:1.0;"/><line style="stroke:#181818;stroke-width:1.0;" x1="1867.5" x2="2452.5" y1="1249.0488" y2="1249.0488"/><text fill="#000000" font-family="sans-serif" font-size="13" font-weight="bold" lengthAdjust="spacing" textLength="14" x="1874.5" y="1243.7861">33</text><text fill="#000000" font-family="sans-serif" font-size="13" lengthAdjust="spacing" textLength="170" x="1892.5" y="1243.7861">findEmployeeByUserId(email)</text><polygon fill="#181818" points="1878.5,1276.3398,1868.5,1280.3398,1878.5,1284.3398,1874.5,1280.3398" style="stroke:#181818;stroke-width:1.0;"/><line style="stroke:#181818;stroke-width:1.0;stroke-dasharray:2.0,2.0;" x1="1872.5" x2="2462.5" y1="1280.3398" y2="1280.3398"/><text fill="#000000" font-family="sans-serif" font-size="13" font-weight="bold" lengthAdjust="spacing" textLength="14" x="1884.5" y="1275.0771">34</text><text fill="#000000" font-family="sans-serif" font-size="13" lengthAdjust="spacing" textLength="56" x="1902.5" y="1275.0771">employee</text><polygon fill="#181818" points="699,1314.6309,689,1318.6309,699,1322.6309,695,1318.6309" style="stroke:#181818;stroke-width:1.0;"/><line style="stroke:#181818;stroke-width:1.0;stroke-dasharray:2.0,2.0;" x1="693" x2="1861.5" y1="1318.6309" y2="1318.6309"/><text fill="#000000" font-family="sans-serif" font-size="13" font-weight="bold" lengthAdjust="spacing" textLength="14" x="705" y="1313.3682">35</text><text fill="#000000" font-family="sans-serif" font-size="13" lengthAdjust="spacing" textLength="56" x="723" y="1313.3682">employee</text><polygon fill="#181818" points="831,1345.9219,841,1349.9219,831,1353.9219,835,1349.9219" style="stroke:#181818;stroke-width:1.0;"/><line style="stroke:#181818;stroke-width:1.0;" x1="688" x2="837" y1="1349.9219" y2="1349.9219"/><text fill="#000000" font-family="sans-serif" font-size="13" font-weight="bold" lengthAdjust="spacing" textLength="14" x="695" y="1344.6592">36</text><text fill="#000000" font-family="sans-serif" font-size="13" lengthAdjust="spacing" textLength="75" x="713" y="1344.6592">getInstance()</text><polygon fill="#181818" points="699,1377.2129,689,1381.2129,699,1385.2129,695,1381.2129" style="stroke:#181818;stroke-width:1.0;"/><line style="stroke:#181818;stroke-width:1.0;stroke-dasharray:2.0,2.0;" x1="693" x2="847" y1="1381.2129" y2="1381.2129"/><text fill="#000000" font-family="sans-serif" font-size="13" font-weight="bold" lengthAdjust="spacing" textLength="14" x="705" y="1375.9502">37</text><text fill="#000000" font-family="sans-serif" font-size="13" lengthAdjust="spacing" textLength="72" x="723" y="1375.9502">Repositories</text><polygon fill="#181818" points="1955.5,1408.5039,1965.5,1412.5039,1955.5,1416.5039,1959.5,1412.5039" style="stroke:#181818;stroke-width:1.0;"/><line style="stroke:#181818;stroke-width:1.0;" x1="688" x2="1961.5" y1="1412.5039" y2="1412.5039"/><text fill="#000000" font-family="sans-serif" font-size="13" font-weight="bold" lengthAdjust="spacing" textLength="14" x="695" y="1407.2412">38</text><text fill="#000000" font-family="sans-serif" font-size="13" lengthAdjust="spacing" textLength="408" x="713" y="1407.2412">findTasksByCollaboratorAndDateRange(employee, startDate, endDate)</text><path d="M1936.5,1427.5039 L2009.5,1427.5039 L2009.5,1436.7949 L1999.5,1446.7949 L1936.5,1446.7949 L1936.5,1427.5039 " fill="#EEEEEE" style="stroke:#000000;stroke-width:1.5;"/><rect fill="none" height="81.873" style="stroke:#000000;stroke-width:1.5;" width="505.5" x="1936.5" y="1427.5039"/><text fill="#000000" font-family="sans-serif" font-size="13" font-weight="bold" lengthAdjust="spacing" textLength="28" x="1951.5" y="1442.5322">loop</text><text fill="#000000" font-family="sans-serif" font-size="11" font-weight="bold" lengthAdjust="spacing" textLength="230" x="2024.5" y="1441.374">[for each task in the specified date range]</text><polygon fill="#181818" points="2392.5,1466.0859,2402.5,1470.0859,2392.5,1474.0859,2396.5,1470.0859" style="stroke:#181818;stroke-width:1.0;"/><line style="stroke:#181818;stroke-width:1.0;" x1="1977.5" x2="2398.5" y1="1470.0859" y2="1470.0859"/><text fill="#000000" font-family="sans-serif" font-size="13" font-weight="bold" lengthAdjust="spacing" textLength="14" x="1984.5" y="1464.8232">39</text><text fill="#000000" font-family="sans-serif" font-size="13" lengthAdjust="spacing" textLength="390" x="2002.5" y="1464.8232">findTaskByEmployeeAndDateRange(employee, startDate, endDate)</text><polygon fill="#181818" points="1988.5,1497.377,1978.5,1501.377,1988.5,1505.377,1984.5,1501.377" style="stroke:#181818;stroke-width:1.0;"/><line style="stroke:#181818;stroke-width:1.0;stroke-dasharray:2.0,2.0;" x1="1982.5" x2="2408.5" y1="1501.377" y2="1501.377"/><text fill="#000000" font-family="sans-serif" font-size="13" font-weight="bold" lengthAdjust="spacing" textLength="14" x="1994.5" y="1496.1143">40</text><text fill="#000000" font-family="sans-serif" font-size="13" lengthAdjust="spacing" textLength="25" x="2012.5" y="1496.1143">task</text><polygon fill="#181818" points="699,1535.668,689,1539.668,699,1543.668,695,1539.668" style="stroke:#181818;stroke-width:1.0;"/><line style="stroke:#181818;stroke-width:1.0;stroke-dasharray:2.0,2.0;" x1="693" x2="1971.5" y1="1539.668" y2="1539.668"/><text fill="#000000" font-family="sans-serif" font-size="13" font-weight="bold" lengthAdjust="spacing" textLength="14" x="705" y="1534.4053">41</text><text fill="#000000" font-family="sans-serif" font-size="13" lengthAdjust="spacing" textLength="32" x="723" y="1534.4053">tasks</text><polygon fill="#181818" points="1955.5,1566.959,1965.5,1570.959,1955.5,1574.959,1959.5,1570.959" style="stroke:#181818;stroke-width:1.0;"/><line style="stroke:#181818;stroke-width:1.0;" x1="688" x2="1961.5" y1="1570.959" y2="1570.959"/><text fill="#000000" font-family="sans-serif" font-size="13" font-weight="bold" lengthAdjust="spacing" textLength="14" x="695" y="1565.6963">42</text><text fill="#000000" font-family="sans-serif" font-size="13" lengthAdjust="spacing" textLength="281" x="713" y="1565.6963">filterTasksByStatus(filteredTasksByDate, status)</text><polygon fill="#181818" points="699,1598.25,689,1602.25,699,1606.25,695,1602.25" style="stroke:#181818;stroke-width:1.0;"/><line style="stroke:#181818;stroke-width:1.0;stroke-dasharray:2.0,2.0;" x1="693" x2="1971.5" y1="1602.25" y2="1602.25"/><text fill="#000000" font-family="sans-serif" font-size="13" font-weight="bold" lengthAdjust="spacing" textLength="14" x="705" y="1596.9873">43</text><text fill="#000000" font-family="sans-serif" font-size="13" lengthAdjust="spacing" textLength="71" x="723" y="1596.9873">sortedTasks</text><polygon fill="#181818" points="377,1629.541,367,1633.541,377,1637.541,373,1633.541" style="stroke:#181818;stroke-width:1.0;"/><line style="stroke:#181818;stroke-width:1.0;stroke-dasharray:2.0,2.0;" x1="371" x2="682" y1="1633.541" y2="1633.541"/><text fill="#000000" font-family="sans-serif" font-size="13" font-weight="bold" lengthAdjust="spacing" textLength="14" x="383" y="1628.2783">44</text><text fill="#000000" font-family="sans-serif" font-size="13" lengthAdjust="spacing" textLength="71" x="401" y="1628.2783">sortedTasks</text><polygon fill="#181818" points="58,1660.832,48,1664.832,58,1668.832,54,1664.832" style="stroke:#181818;stroke-width:1.0;"/><line style="stroke:#181818;stroke-width:1.0;stroke-dasharray:2.0,2.0;" x1="52" x2="360" y1="1664.832" y2="1664.832"/><text fill="#000000" font-family="sans-serif" font-size="13" font-weight="bold" lengthAdjust="spacing" textLength="14" x="64" y="1659.5693">45</text><text fill="#000000" font-family="sans-serif" font-size="13" lengthAdjust="spacing" textLength="179" x="82" y="1659.5693">display sorted tasks with filters</text><!--SRC=[tLTDR-Cs4BthLn2vL05YjEYfC8e2JkBi6asnWMLZBxamqbWY8fEgICLmVts77v8fauetsrDN9qcSUVCud1dEo5V66zhIFTaBBlAg5NiWgkqWaSDAG_DNMaAcZZMG5d95ULdx0hAYXJWmNf8ThIKaYM8AHRVPBx_-HcPa8GabTwAkwOjegHBj3LcH0vCLKOBaWikkLaHLQ9VALvILafKS2hsAP5v07G0uKGT12gf0FlFiA1NiIGP_Ty1p8FUCbff7ccNtrqb2EoLujt-15jzpj4UkVEjNQ87SVNbCaBnYEMieL-HgVcU9R3I7xSe8RLVloE2xQX4M7E1cVOwuXaP8XXOPI2Cp_3XcJBiGQOvLMa_ZcOS0Ju-BpLXZqQdgWUQq09JN7y1naIec-CcQqLriDv_NowUnUYUXpG0TBZZgRqzVTl_PSZsM5sr9EVld37_-pBz45mnAV6aQ5uduAXPZ_Mci0Fkc5aU04o2gBOEVHddvrrEmSHDgoDiSfP7QBB8_ir38oGmY9gJO6mQYYQ64u8ClPFO7XiiSqmDZKYgfW_UDmS75T134Hcz0ma0pF_IpNP4PWY7cW4QaGbf6yOO0BzmRnJSDhvTLPo4B240zTaqhtbW17y2RfEWOoaeSle-UIPXpWbWDTgpTQmHAqZYkXud9VauAKGSOFrqjs7sFPLzwb1uZGiuGnAyJU0bA9ye3bagNBEbrA1l9TQEwucWKYrOQiHgh3oFStsUpEB1VAGOLpzanv82ohYw6urGTYN4s9IaWQQ6cS68C3Kv0oHKjm-gkQrj4yufKZ4zVveOLzyD46DQpEM7oKPGb52l-bQbgBMf8_UiXWcdgu2dGyCkaw41kW_Vbpm_cwWki3cPTsAoA5FQKrTU1gFQR5UsYSdvgZmWDNXy8NGG8lFGZX6tyelbeq4vSLvT2jcSJLoVpCtwtnsWm3DWNMBYd5g8XEsnma5H5_4lqN7A2bYQy_aJcMAoF_UtvcSfDnMGyM0EUU35_codjOMihaYwXSoF0-WhGEqxE3sxAvr6F-3RYJlwXaYBiYJwQ4272jzTlstgDYDZ8N-gmIcsTYl1nBTie0km_X_gnYFLnOvXwimPq8ZIzVMg4P3e7-xuKvnjLJTJXo6PsZ1TZ1_t7ZVGytjj6DBV2AEZFC80Sm_rVhvE0ina4x96Opl7swBS72zixhd46XhHtoGq9kyl8pko8yKxqcDQMSJCComPojcDWsrxIQeCZLOFM4pxnlHtIuZke1dGZ5hNxhKbDToh00kKmmjm6XiRQZ4h915RcdTHFYwQfZwvxnutN2aVzoMFKg-uWCwEHsd_G7- -5MS1Qdo8jHQiSqZlKn-JSi7D1TJo3-6DXmMHJqwC3S2EcAJXsPz5Hq4V6mVLV]--></g></svg>