<?xml version="1.0" encoding="UTF-8" standalone="no"?><svg xmlns="http://www.w3.org/2000/svg" xmlns:xlink="http://www.w3.org/1999/xlink" contentStyleType="text/css" height="501px" preserveAspectRatio="none" style="width:455px;height:501px;background:#FFFFFF;" version="1.1" viewBox="0 0 455 501" width="455px" zoomAndPan="magnify"><defs/><g><text fill="#000000" font-family="sans-serif" font-size="14" font-weight="bold" lengthAdjust="spacing" textLength="351" x="51" y="29.5332">System Sequence Diagram (SSD) - Alternative One</text><rect fill="#FFFFFF" height="243.8125" style="stroke:#181818;stroke-width:1.0;" width="10" x="91" y="148.8281"/><rect fill="#FFFFFF" height="30.3516" style="stroke:#181818;stroke-width:1.0;" width="10" x="412" y="171.1797"/><rect fill="#FFFFFF" height="30.3516" style="stroke:#181818;stroke-width:1.0;" width="10" x="412" y="231.8828"/><rect fill="#FFFFFF" height="30.3516" style="stroke:#181818;stroke-width:1.0;" width="10" x="412" y="292.5859"/><rect fill="#FFFFFF" height="30.3516" style="stroke:#181818;stroke-width:1.0;" width="10" x="412" y="353.2891"/><line style="stroke:#181818;stroke-width:0.5;stroke-dasharray:5.0,5.0;" x1="96" x2="96" y1="138.8281" y2="401.6406"/><line style="stroke:#181818;stroke-width:0.5;stroke-dasharray:5.0,5.0;" x1="417" x2="417" y1="138.8281" y2="401.6406"/><text fill="#000000" font-family="sans-serif" font-size="14" lengthAdjust="spacing" textLength="176" x="5" y="118.1426">Human Resources Manager</text><text fill="#000000" font-family="sans-serif" font-size="14" lengthAdjust="spacing" textLength="40" x="73" y="135.752">(HRM)</text><ellipse cx="96" cy="52.1094" fill="#E3E3E3" rx="8" ry="8" style="stroke:#181818;stroke-width:0.5;"/><path d="M96,60.1094 L96,87.1094 M83,68.1094 L109,68.1094 M96,87.1094 L83,102.1094 M96,87.1094 L109,102.1094 " fill="none" style="stroke:#181818;stroke-width:0.5;"/><text fill="#000000" font-family="sans-serif" font-size="14" lengthAdjust="spacing" textLength="176" x="5" y="415.1738">Human Resources Manager</text><text fill="#000000" font-family="sans-serif" font-size="14" lengthAdjust="spacing" textLength="40" x="73" y="432.7832">(HRM)</text><ellipse cx="96" cy="444.3594" fill="#E3E3E3" rx="8" ry="8" style="stroke:#181818;stroke-width:0.5;"/><path d="M96,452.3594 L96,479.3594 M83,460.3594 L109,460.3594 M96,479.3594 L83,494.3594 M96,479.3594 L109,494.3594 " fill="none" style="stroke:#181818;stroke-width:0.5;"/><rect fill="#E3E3E3" height="31.6094" rx="2.5" ry="2.5" style="stroke:#181818;stroke-width:0.5;" width="64" x="385" y="106.2188"/><text fill="#000000" font-family="sans-serif" font-size="14" lengthAdjust="spacing" textLength="50" x="392" y="127.752">:System</text><rect fill="#E3E3E3" height="31.6094" rx="2.5" ry="2.5" style="stroke:#181818;stroke-width:0.5;" width="64" x="385" y="400.6406"/><text fill="#000000" font-family="sans-serif" font-size="14" lengthAdjust="spacing" textLength="50" x="392" y="422.1738">:System</text><rect fill="#FFFFFF" height="243.8125" style="stroke:#181818;stroke-width:1.0;" width="10" x="91" y="148.8281"/><rect fill="#FFFFFF" height="30.3516" style="stroke:#181818;stroke-width:1.0;" width="10" x="412" y="171.1797"/><rect fill="#FFFFFF" height="30.3516" style="stroke:#181818;stroke-width:1.0;" width="10" x="412" y="231.8828"/><rect fill="#FFFFFF" height="30.3516" style="stroke:#181818;stroke-width:1.0;" width="10" x="412" y="292.5859"/><rect fill="#FFFFFF" height="30.3516" style="stroke:#181818;stroke-width:1.0;" width="10" x="412" y="353.2891"/><polygon fill="#181818" points="400,167.1797,410,171.1797,400,175.1797,404,171.1797" style="stroke:#181818;stroke-width:1.0;"/><line style="stroke:#181818;stroke-width:1.0;" x1="101" x2="406" y1="171.1797" y2="171.1797"/><text fill="#000000" font-family="sans-serif" font-size="13" font-weight="bold" lengthAdjust="spacing" textLength="7" x="108" y="166.3232">1</text><text fill="#000000" font-family="sans-serif" font-size="13" lengthAdjust="spacing" textLength="181" x="119" y="166.3232">asks for a collaborator available</text><polygon fill="#181818" points="112,197.5313,102,201.5313,112,205.5313,108,201.5313" style="stroke:#181818;stroke-width:1.0;"/><line style="stroke:#181818;stroke-width:1.0;stroke-dasharray:2.0,2.0;" x1="106" x2="416" y1="201.5313" y2="201.5313"/><text fill="#000000" font-family="sans-serif" font-size="13" font-weight="bold" lengthAdjust="spacing" textLength="7" x="118" y="196.6748">2</text><text fill="#000000" font-family="sans-serif" font-size="13" lengthAdjust="spacing" textLength="152" x="129" y="196.6748">Shows list of collaborators</text><polygon fill="#181818" points="400,227.8828,410,231.8828,400,235.8828,404,231.8828" style="stroke:#181818;stroke-width:1.0;"/><line style="stroke:#181818;stroke-width:1.0;" x1="101" x2="406" y1="231.8828" y2="231.8828"/><text fill="#000000" font-family="sans-serif" font-size="13" font-weight="bold" lengthAdjust="spacing" textLength="7" x="108" y="227.0264">3</text><text fill="#000000" font-family="sans-serif" font-size="13" lengthAdjust="spacing" textLength="113" x="119" y="227.0264">choose collaborator</text><polygon fill="#181818" points="112,258.2344,102,262.2344,112,266.2344,108,262.2344" style="stroke:#181818;stroke-width:1.0;"/><line style="stroke:#181818;stroke-width:1.0;stroke-dasharray:2.0,2.0;" x1="106" x2="416" y1="262.2344" y2="262.2344"/><text fill="#000000" font-family="sans-serif" font-size="13" font-weight="bold" lengthAdjust="spacing" textLength="7" x="118" y="257.3779">4</text><text fill="#000000" font-family="sans-serif" font-size="13" lengthAdjust="spacing" textLength="276" x="129" y="257.3779">shows skills list and asks to select one or more</text><polygon fill="#181818" points="400,288.5859,410,292.5859,400,296.5859,404,292.5859" style="stroke:#181818;stroke-width:1.0;"/><line style="stroke:#181818;stroke-width:1.0;" x1="101" x2="406" y1="292.5859" y2="292.5859"/><text fill="#000000" font-family="sans-serif" font-size="13" font-weight="bold" lengthAdjust="spacing" textLength="7" x="108" y="287.7295">5</text><text fill="#000000" font-family="sans-serif" font-size="13" lengthAdjust="spacing" textLength="149" x="119" y="287.7295">selects one or more skills</text><polygon fill="#181818" points="112,318.9375,102,322.9375,112,326.9375,108,322.9375" style="stroke:#181818;stroke-width:1.0;"/><line style="stroke:#181818;stroke-width:1.0;stroke-dasharray:2.0,2.0;" x1="106" x2="416" y1="322.9375" y2="322.9375"/><text fill="#000000" font-family="sans-serif" font-size="13" font-weight="bold" lengthAdjust="spacing" textLength="7" x="118" y="318.0811">6</text><text fill="#000000" font-family="sans-serif" font-size="13" lengthAdjust="spacing" textLength="236" x="129" y="318.0811">shows all data and requests confirmation</text><polygon fill="#181818" points="400,349.2891,410,353.2891,400,357.2891,404,353.2891" style="stroke:#181818;stroke-width:1.0;"/><line style="stroke:#181818;stroke-width:1.0;" x1="101" x2="406" y1="353.2891" y2="353.2891"/><text fill="#000000" font-family="sans-serif" font-size="13" font-weight="bold" lengthAdjust="spacing" textLength="7" x="108" y="348.4326">7</text><text fill="#000000" font-family="sans-serif" font-size="13" lengthAdjust="spacing" textLength="78" x="119" y="348.4326">confirms data</text><polygon fill="#181818" points="112,379.6406,102,383.6406,112,387.6406,108,383.6406" style="stroke:#181818;stroke-width:1.0;"/><line style="stroke:#181818;stroke-width:1.0;stroke-dasharray:2.0,2.0;" x1="106" x2="416" y1="383.6406" y2="383.6406"/><text fill="#000000" font-family="sans-serif" font-size="13" font-weight="bold" lengthAdjust="spacing" textLength="7" x="118" y="378.7842">8</text><text fill="#000000" font-family="sans-serif" font-size="13" lengthAdjust="spacing" textLength="158" x="129" y="378.7842">displays operation success</text><!--SRC=[dPAnRi90343tV8N510C_m52f4fLOKALcxM8k9ZbnTqxF3YX_NoS12X8TuAOxnNv-ZYq7drhC625oOjTaZWIQEoha-gL5Ty2QIkq3GIQdcEfm6o0DLdpogOOz1g6YKAyMMlQY5A6aduwI8rXxh8VmULck5x24zw2K4we_4dmcIyDEENLnHzdkJZd3RDD5JF15mbrs9B35P2hvEyqtNzl5353W8xQ1UwB2PDGxts9IcAscwcF4T1sP_eXAVoa5sBcyOFbsSLvPsa5WRme8ZaF07MSSZF28tbxM_v1w9LvAmFcSEKj3Nl4hA1i-2GGl2ho_uygOMT53u4D1rp0BtK5UKP9HoMOPmjaCKpLrhmn2mUODd0YizyYPdlQS47BBE9TxNHT3W0eLHzSyx9TO1STfxtEqXUBq_E-SacNalc9MUMa3zjPeItbq0EcSxUn_e_q5]--></g></svg>