<?xml version="1.0" encoding="us-ascii" standalone="no"?><svg xmlns="http://www.w3.org/2000/svg" xmlns:xlink="http://www.w3.org/1999/xlink" contentStyleType="text/css" height="1820px" preserveAspectRatio="none" style="width:2659px;height:1820px;background:#FFFFFF;" version="1.1" viewBox="0 0 2659 1820" width="2659px" zoomAndPan="magnify"><defs/><g><rect fill="#FFFFFF" height="1629.9473" style="stroke:#181818;stroke-width:1.0;" width="10" x="77.5" y="91.4883"/><rect fill="#FFFFFF" height="1013.5586" style="stroke:#181818;stroke-width:1.0;" width="10" x="591.5" y="112.7988"/><rect fill="#FFFFFF" height="205.1738" style="stroke:#181818;stroke-width:1.0;" width="10" x="591.5" y="1155.668"/><rect fill="#FFFFFF" height="340.2832" style="stroke:#181818;stroke-width:1.0;" width="10" x="591.5" y="1390.1523"/><rect fill="#FFFFFF" height="272.6621" style="stroke:#181818;stroke-width:1.0;" width="10" x="596.5" y="1448.7734"/><rect fill="#FFFFFF" height="954.9375" style="stroke:#181818;stroke-width:1.0;" width="10" x="1064.5" y="142.1094"/><rect fill="#FFFFFF" height="146.5527" style="stroke:#181818;stroke-width:1.0;" width="10" x="1064.5" y="1184.9785"/><rect fill="#FFFFFF" height="214.041" style="stroke:#181818;stroke-width:1.0;" width="10" x="1064.5" y="1478.084"/><rect fill="#FFFFFF" height="29.3105" style="stroke:#181818;stroke-width:1.0;" width="10" x="1294.5" y="213.7305"/><rect fill="#FFFFFF" height="29.3105" style="stroke:#181818;stroke-width:1.0;" width="10" x="1294.5" y="272.3516"/><rect fill="#FFFFFF" height="29.3105" style="stroke:#181818;stroke-width:1.0;" width="10" x="1294.5" y="506.8359"/><rect fill="#FFFFFF" height="29.3105" style="stroke:#181818;stroke-width:1.0;" width="10" x="1294.5" y="565.457"/><rect fill="#FFFFFF" height="29.3105" style="stroke:#181818;stroke-width:1.0;" width="10" x="1294.5" y="772.6309"/><rect fill="#FFFFFF" height="146.5527" style="stroke:#181818;stroke-width:1.0;" width="10" x="1452" y="330.9727"/><rect fill="#FFFFFF" height="87.9316" style="stroke:#181818;stroke-width:1.0;" width="10" x="1641" y="360.2832"/><rect fill="#FFFFFF" height="119.2422" style="stroke:#181818;stroke-width:1.0;" width="10" x="1780" y="831.252"/><rect fill="#FFFFFF" height="29.3105" style="stroke:#181818;stroke-width:1.0;" width="10" x="1959" y="884.873"/><rect fill="#FFFFFF" height="87.9316" style="stroke:#181818;stroke-width:1.0;" width="10" x="1959" y="979.8047"/><rect fill="#FFFFFF" height="87.9316" style="stroke:#181818;stroke-width:1.0;" width="10" x="1959" y="1214.2891"/><rect fill="#FFFFFF" height="155.4199" style="stroke:#181818;stroke-width:1.0;" width="10" x="1959" y="1507.3945"/><rect fill="#FFFFFF" height="119.2422" style="stroke:#181818;stroke-width:1.0;" width="10" x="2172" y="624.0781"/><rect fill="#FFFFFF" height="29.3105" style="stroke:#181818;stroke-width:1.0;" width="10" x="2351" y="677.6992"/><rect fill="#FFFFFF" height="29.3105" style="stroke:#181818;stroke-width:1.0;" width="10" x="2468" y="1009.1152"/><rect fill="#FFFFFF" height="29.3105" style="stroke:#181818;stroke-width:1.0;" width="10" x="2559.5" y="1243.5996"/><rect fill="#FFFFFF" height="37.4883" style="stroke:#181818;stroke-width:1.0;" width="10" x="2623" y="1546.7051"/><rect fill="none" height="75.9316" style="stroke:#000000;stroke-width:1.5;" width="343.5" x="2076.5" y="639.0781"/><rect fill="none" height="75.9316" style="stroke:#000000;stroke-width:1.5;" width="319.5" x="1696.5" y="846.252"/><line style="stroke:#181818;stroke-width:0.5;stroke-dasharray:5.0,5.0;" x1="82" x2="82" y1="81.4883" y2="1739.4355"/><line style="stroke:#181818;stroke-width:0.5;stroke-dasharray:5.0,5.0;" x1="596" x2="596" y1="81.4883" y2="1739.4355"/><line style="stroke:#181818;stroke-width:0.5;stroke-dasharray:5.0,5.0;" x1="1069" x2="1069" y1="81.4883" y2="1739.4355"/><line style="stroke:#181818;stroke-width:0.5;stroke-dasharray:5.0,5.0;" x1="1299" x2="1299" y1="81.4883" y2="1739.4355"/><line style="stroke:#181818;stroke-width:0.5;stroke-dasharray:5.0,5.0;" x1="1457" x2="1457" y1="81.4883" y2="1739.4355"/><line style="stroke:#181818;stroke-width:0.5;stroke-dasharray:5.0,5.0;" x1="1645.5" x2="1645.5" y1="81.4883" y2="1739.4355"/><line style="stroke:#181818;stroke-width:0.5;stroke-dasharray:5.0,5.0;" x1="1784.5" x2="1784.5" y1="81.4883" y2="1739.4355"/><line style="stroke:#181818;stroke-width:0.5;stroke-dasharray:5.0,5.0;" x1="1964" x2="1964" y1="81.4883" y2="1739.4355"/><line style="stroke:#181818;stroke-width:0.5;stroke-dasharray:5.0,5.0;" x1="2176.5" x2="2176.5" y1="81.4883" y2="1739.4355"/><line style="stroke:#181818;stroke-width:0.5;stroke-dasharray:5.0,5.0;" x1="2356" x2="2356" y1="81.4883" y2="1739.4355"/><line style="stroke:#181818;stroke-width:0.5;stroke-dasharray:5.0,5.0;" x1="2473" x2="2473" y1="81.4883" y2="1739.4355"/><line style="stroke:#181818;stroke-width:0.5;stroke-dasharray:5.0,5.0;" x1="2564" x2="2564" y1="81.4883" y2="1739.4355"/><line style="stroke:#181818;stroke-width:0.5;stroke-dasharray:5.0,5.0;" x1="2628" x2="2628" y1="1546.1387" y2="1739.4355"/><text fill="#000000" font-family="sans-serif" font-size="14" lengthAdjust="spacing" textLength="149" x="5" y="78.5352">Green Space Manager</text><ellipse cx="82.5" cy="13.5" fill="#E3E3E3" rx="8" ry="8" style="stroke:#181818;stroke-width:0.5;"/><path d="M82.5,21.5 L82.5,48.5 M69.5,29.5 L95.5,29.5 M82.5,48.5 L69.5,63.5 M82.5,48.5 L95.5,63.5 " fill="none" style="stroke:#181818;stroke-width:0.5;"/><text fill="#000000" font-family="sans-serif" font-size="14" lengthAdjust="spacing" textLength="149" x="5" y="1751.9707">Green Space Manager</text><ellipse cx="82.5" cy="1763.4238" fill="#E3E3E3" rx="8" ry="8" style="stroke:#181818;stroke-width:0.5;"/><path d="M82.5,1771.4238 L82.5,1798.4238 M69.5,1779.4238 L95.5,1779.4238 M82.5,1798.4238 L69.5,1813.4238 M82.5,1798.4238 L95.5,1813.4238 " fill="none" style="stroke:#181818;stroke-width:0.5;"/><rect fill="#E3E3E3" height="30.4883" rx="2.5" ry="2.5" style="stroke:#181818;stroke-width:0.5;" width="85" x="554" y="50"/><text fill="#000000" font-family="sans-serif" font-size="14" lengthAdjust="spacing" textLength="71" x="561" y="70.5352">:AgendaUI</text><rect fill="#E3E3E3" height="30.4883" rx="2.5" ry="2.5" style="stroke:#181818;stroke-width:0.5;" width="85" x="554" y="1738.4355"/><text fill="#000000" font-family="sans-serif" font-size="14" lengthAdjust="spacing" textLength="71" x="561" y="1758.9707">:AgendaUI</text><rect fill="#E3E3E3" height="30.4883" rx="2.5" ry="2.5" style="stroke:#181818;stroke-width:0.5;" width="141" x="999" y="50"/><text fill="#000000" font-family="sans-serif" font-size="14" lengthAdjust="spacing" textLength="127" x="1006" y="70.5352">:AgendaController</text><rect fill="#E3E3E3" height="30.4883" rx="2.5" ry="2.5" style="stroke:#181818;stroke-width:0.5;" width="141" x="999" y="1738.4355"/><text fill="#000000" font-family="sans-serif" font-size="14" lengthAdjust="spacing" textLength="127" x="1006" y="1758.9707">:AgendaController</text><rect fill="#E3E3E3" height="46.9766" rx="2.5" ry="2.5" style="stroke:#181818;stroke-width:0.5;" width="103" x="1248" y="33.5117"/><text fill="#000000" font-family="sans-serif" font-size="14" lengthAdjust="spacing" textLength="82" x="1258.5" y="54.0469">repositories</text><text fill="#000000" font-family="sans-serif" font-size="14" lengthAdjust="spacing" textLength="89" x="1255" y="70.5352">:Repositories</text><rect fill="#E3E3E3" height="46.9766" rx="2.5" ry="2.5" style="stroke:#181818;stroke-width:0.5;" width="103" x="1248" y="1738.4355"/><text fill="#000000" font-family="sans-serif" font-size="14" lengthAdjust="spacing" textLength="82" x="1258.5" y="1758.9707">repositories</text><text fill="#000000" font-family="sans-serif" font-size="14" lengthAdjust="spacing" textLength="89" x="1255" y="1775.459">:Repositories</text><rect fill="#E3E3E3" height="46.9766" rx="2.5" ry="2.5" style="stroke:#181818;stroke-width:0.5;" width="192" x="1361" y="33.5117"/><text fill="#000000" font-family="sans-serif" font-size="14" lengthAdjust="spacing" textLength="81" x="1416.5" y="54.0469">AuthFacade</text><text fill="#000000" font-family="sans-serif" font-size="14" lengthAdjust="spacing" textLength="178" x="1368" y="70.5352">:AuthenticationRepository</text><rect fill="#E3E3E3" height="46.9766" rx="2.5" ry="2.5" style="stroke:#181818;stroke-width:0.5;" width="192" x="1361" y="1738.4355"/><text fill="#000000" font-family="sans-serif" font-size="14" lengthAdjust="spacing" textLength="81" x="1416.5" y="1758.9707">AuthFacade</text><text fill="#000000" font-family="sans-serif" font-size="14" lengthAdjust="spacing" textLength="178" x="1368" y="1775.459">:AuthenticationRepository</text><rect fill="#E3E3E3" height="46.9766" rx="2.5" ry="2.5" style="stroke:#181818;stroke-width:0.5;" width="101" x="1595.5" y="33.5117"/><text fill="#000000" font-family="sans-serif" font-size="14" lengthAdjust="spacing" textLength="82" x="1605" y="54.0469">userSession</text><text fill="#000000" font-family="sans-serif" font-size="14" lengthAdjust="spacing" textLength="87" x="1602.5" y="70.5352">:UserSession</text><rect fill="#E3E3E3" height="46.9766" rx="2.5" ry="2.5" style="stroke:#181818;stroke-width:0.5;" width="101" x="1595.5" y="1738.4355"/><text fill="#000000" font-family="sans-serif" font-size="14" lengthAdjust="spacing" textLength="82" x="1605" y="1758.9707">userSession</text><text fill="#000000" font-family="sans-serif" font-size="14" lengthAdjust="spacing" textLength="87" x="1602.5" y="1775.459">:UserSession</text><rect fill="#E3E3E3" height="46.9766" rx="2.5" ry="2.5" style="stroke:#181818;stroke-width:0.5;" width="157" x="1706.5" y="33.5117"/><text fill="#000000" font-family="sans-serif" font-size="14" lengthAdjust="spacing" textLength="139" x="1715.5" y="54.0469">EmployeeRepository</text><text fill="#000000" font-family="sans-serif" font-size="14" lengthAdjust="spacing" textLength="143" x="1713.5" y="70.5352">:EmployeeRepository</text><rect fill="#E3E3E3" height="46.9766" rx="2.5" ry="2.5" style="stroke:#181818;stroke-width:0.5;" width="157" x="1706.5" y="1738.4355"/><text fill="#000000" font-family="sans-serif" font-size="14" lengthAdjust="spacing" textLength="139" x="1715.5" y="1758.9707">EmployeeRepository</text><text fill="#000000" font-family="sans-serif" font-size="14" lengthAdjust="spacing" textLength="143" x="1713.5" y="1775.459">:EmployeeRepository</text><rect fill="#E3E3E3" height="46.9766" rx="2.5" ry="2.5" style="stroke:#181818;stroke-width:0.5;" width="84" x="1922" y="33.5117"/><text fill="#000000" font-family="sans-serif" font-size="14" lengthAdjust="spacing" textLength="66" x="1931" y="54.0469">Employee</text><text fill="#000000" font-family="sans-serif" font-size="14" lengthAdjust="spacing" textLength="70" x="1929" y="70.5352">:Employee</text><rect fill="#E3E3E3" height="46.9766" rx="2.5" ry="2.5" style="stroke:#181818;stroke-width:0.5;" width="84" x="1922" y="1738.4355"/><text fill="#000000" font-family="sans-serif" font-size="14" lengthAdjust="spacing" textLength="66" x="1931" y="1758.9707">Employee</text><text fill="#000000" font-family="sans-serif" font-size="14" lengthAdjust="spacing" textLength="70" x="1929" y="1775.459">:Employee</text><rect fill="#E3E3E3" height="46.9766" rx="2.5" ry="2.5" style="stroke:#181818;stroke-width:0.5;" width="181" x="2086.5" y="33.5117"/><text fill="#000000" font-family="sans-serif" font-size="14" lengthAdjust="spacing" textLength="163" x="2095.5" y="54.0469">OrganizationRepository</text><text fill="#000000" font-family="sans-serif" font-size="14" lengthAdjust="spacing" textLength="167" x="2093.5" y="70.5352">:OrganizationRepository</text><rect fill="#E3E3E3" height="46.9766" rx="2.5" ry="2.5" style="stroke:#181818;stroke-width:0.5;" width="181" x="2086.5" y="1738.4355"/><text fill="#000000" font-family="sans-serif" font-size="14" lengthAdjust="spacing" textLength="163" x="2095.5" y="1758.9707">OrganizationRepository</text><text fill="#000000" font-family="sans-serif" font-size="14" lengthAdjust="spacing" textLength="167" x="2093.5" y="1775.459">:OrganizationRepository</text><rect fill="#E3E3E3" height="46.9766" rx="2.5" ry="2.5" style="stroke:#181818;stroke-width:0.5;" width="108" x="2302" y="33.5117"/><text fill="#000000" font-family="sans-serif" font-size="14" lengthAdjust="spacing" textLength="90" x="2311" y="54.0469">Organization</text><text fill="#000000" font-family="sans-serif" font-size="14" lengthAdjust="spacing" textLength="94" x="2309" y="70.5352">:Organization</text><rect fill="#E3E3E3" height="46.9766" rx="2.5" ry="2.5" style="stroke:#181818;stroke-width:0.5;" width="108" x="2302" y="1738.4355"/><text fill="#000000" font-family="sans-serif" font-size="14" lengthAdjust="spacing" textLength="90" x="2311" y="1758.9707">Organization</text><text fill="#000000" font-family="sans-serif" font-size="14" lengthAdjust="spacing" textLength="94" x="2309" y="1775.459">:Organization</text><rect fill="#E3E3E3" height="46.9766" rx="2.5" ry="2.5" style="stroke:#181818;stroke-width:0.5;" width="106" x="2420" y="33.5117"/><text fill="#000000" font-family="sans-serif" font-size="14" lengthAdjust="spacing" textLength="92" x="2427" y="54.0469">GreenSpaces:</text><text fill="#000000" font-family="sans-serif" font-size="14" lengthAdjust="spacing" textLength="88" x="2429" y="70.5352">GreenSpaces</text><rect fill="#E3E3E3" height="46.9766" rx="2.5" ry="2.5" style="stroke:#181818;stroke-width:0.5;" width="106" x="2420" y="1738.4355"/><text fill="#000000" font-family="sans-serif" font-size="14" lengthAdjust="spacing" textLength="92" x="2427" y="1758.9707">GreenSpaces:</text><text fill="#000000" font-family="sans-serif" font-size="14" lengthAdjust="spacing" textLength="88" x="2429" y="1775.459">GreenSpaces</text><rect fill="#E3E3E3" height="46.9766" rx="2.5" ry="2.5" style="stroke:#181818;stroke-width:0.5;" width="57" x="2536" y="33.5117"/><text fill="#000000" font-family="sans-serif" font-size="14" lengthAdjust="spacing" textLength="43" x="2543" y="54.0469">Tasks:</text><text fill="#000000" font-family="sans-serif" font-size="14" lengthAdjust="spacing" textLength="39" x="2545" y="70.5352">Tasks</text><rect fill="#E3E3E3" height="46.9766" rx="2.5" ry="2.5" style="stroke:#181818;stroke-width:0.5;" width="57" x="2536" y="1738.4355"/><text fill="#000000" font-family="sans-serif" font-size="14" lengthAdjust="spacing" textLength="43" x="2543" y="1758.9707">Tasks:</text><text fill="#000000" font-family="sans-serif" font-size="14" lengthAdjust="spacing" textLength="39" x="2545" y="1775.459">Tasks</text><rect fill="#E3E3E3" height="30.4883" rx="2.5" ry="2.5" style="stroke:#181818;stroke-width:0.5;" width="50" x="2603" y="1738.4355"/><text fill="#000000" font-family="sans-serif" font-size="14" lengthAdjust="spacing" textLength="36" x="2610" y="1758.9707">TASK</text><rect fill="#FFFFFF" height="1629.9473" style="stroke:#181818;stroke-width:1.0;" width="10" x="77.5" y="91.4883"/><rect fill="#FFFFFF" height="1013.5586" style="stroke:#181818;stroke-width:1.0;" width="10" x="591.5" y="112.7988"/><rect fill="#FFFFFF" height="205.1738" style="stroke:#181818;stroke-width:1.0;" width="10" x="591.5" y="1155.668"/><rect fill="#FFFFFF" height="340.2832" style="stroke:#181818;stroke-width:1.0;" width="10" x="591.5" y="1390.1523"/><rect fill="#FFFFFF" height="272.6621" style="stroke:#181818;stroke-width:1.0;" width="10" x="596.5" y="1448.7734"/><rect fill="#FFFFFF" height="954.9375" style="stroke:#181818;stroke-width:1.0;" width="10" x="1064.5" y="142.1094"/><rect fill="#FFFFFF" height="146.5527" style="stroke:#181818;stroke-width:1.0;" width="10" x="1064.5" y="1184.9785"/><rect fill="#FFFFFF" height="214.041" style="stroke:#181818;stroke-width:1.0;" width="10" x="1064.5" y="1478.084"/><rect fill="#FFFFFF" height="29.3105" style="stroke:#181818;stroke-width:1.0;" width="10" x="1294.5" y="213.7305"/><rect fill="#FFFFFF" height="29.3105" style="stroke:#181818;stroke-width:1.0;" width="10" x="1294.5" y="272.3516"/><rect fill="#FFFFFF" height="29.3105" style="stroke:#181818;stroke-width:1.0;" width="10" x="1294.5" y="506.8359"/><rect fill="#FFFFFF" height="29.3105" style="stroke:#181818;stroke-width:1.0;" width="10" x="1294.5" y="565.457"/><rect fill="#FFFFFF" height="29.3105" style="stroke:#181818;stroke-width:1.0;" width="10" x="1294.5" y="772.6309"/><rect fill="#FFFFFF" height="146.5527" style="stroke:#181818;stroke-width:1.0;" width="10" x="1452" y="330.9727"/><rect fill="#FFFFFF" height="87.9316" style="stroke:#181818;stroke-width:1.0;" width="10" x="1641" y="360.2832"/><rect fill="#FFFFFF" height="119.2422" style="stroke:#181818;stroke-width:1.0;" width="10" x="1780" y="831.252"/><rect fill="#FFFFFF" height="29.3105" style="stroke:#181818;stroke-width:1.0;" width="10" x="1959" y="884.873"/><rect fill="#FFFFFF" height="87.9316" style="stroke:#181818;stroke-width:1.0;" width="10" x="1959" y="979.8047"/><rect fill="#FFFFFF" height="87.9316" style="stroke:#181818;stroke-width:1.0;" width="10" x="1959" y="1214.2891"/><rect fill="#FFFFFF" height="155.4199" style="stroke:#181818;stroke-width:1.0;" width="10" x="1959" y="1507.3945"/><rect fill="#FFFFFF" height="119.2422" style="stroke:#181818;stroke-width:1.0;" width="10" x="2172" y="624.0781"/><rect fill="#FFFFFF" height="29.3105" style="stroke:#181818;stroke-width:1.0;" width="10" x="2351" y="677.6992"/><rect fill="#FFFFFF" height="29.3105" style="stroke:#181818;stroke-width:1.0;" width="10" x="2468" y="1009.1152"/><rect fill="#FFFFFF" height="29.3105" style="stroke:#181818;stroke-width:1.0;" width="10" x="2559.5" y="1243.5996"/><rect fill="#FFFFFF" height="37.4883" style="stroke:#181818;stroke-width:1.0;" width="10" x="2623" y="1546.7051"/><polygon fill="#181818" points="579.5,108.7988,589.5,112.7988,579.5,116.7988,583.5,112.7988" style="stroke:#181818;stroke-width:1.0;"/><line style="stroke:#181818;stroke-width:1.0;" x1="87.5" x2="585.5" y1="112.7988" y2="112.7988"/><text fill="#000000" font-family="sans-serif" font-size="13" font-weight="bold" lengthAdjust="spacing" textLength="9" x="94.5" y="108.0566">1</text><text fill="#000000" font-family="sans-serif" font-size="13" lengthAdjust="spacing" textLength="225" x="107.5" y="108.0566">requests to add a new Agenda entry</text><polygon fill="#181818" points="1052.5,138.1094,1062.5,142.1094,1052.5,146.1094,1056.5,142.1094" style="stroke:#181818;stroke-width:1.0;"/><line style="stroke:#181818;stroke-width:1.0;" x1="601.5" x2="1058.5" y1="142.1094" y2="142.1094"/><text fill="#000000" font-family="sans-serif" font-size="13" font-weight="bold" lengthAdjust="spacing" textLength="9" x="608.5" y="137.3672">2</text><text fill="#000000" font-family="sans-serif" font-size="13" lengthAdjust="spacing" textLength="91" x="621.5" y="137.3672">getController()</text><line style="stroke:#181818;stroke-width:1.0;" x1="1074.5" x2="1116.5" y1="171.4199" y2="171.4199"/><line style="stroke:#181818;stroke-width:1.0;" x1="1116.5" x2="1116.5" y1="171.4199" y2="184.4199"/><line style="stroke:#181818;stroke-width:1.0;" x1="1075.5" x2="1116.5" y1="184.4199" y2="184.4199"/><polygon fill="#181818" points="1085.5,180.4199,1075.5,184.4199,1085.5,188.4199,1081.5,184.4199" style="stroke:#181818;stroke-width:1.0;"/><text fill="#000000" font-family="sans-serif" font-size="13" font-weight="bold" lengthAdjust="spacing" textLength="9" x="1081.5" y="166.6777">3</text><text fill="#000000" font-family="sans-serif" font-size="13" lengthAdjust="spacing" textLength="136" x="1094.5" y="166.6777">getUserFromSession()</text><polygon fill="#181818" points="1282.5,209.7305,1292.5,213.7305,1282.5,217.7305,1286.5,213.7305" style="stroke:#181818;stroke-width:1.0;"/><line style="stroke:#181818;stroke-width:1.0;" x1="1074.5" x2="1288.5" y1="213.7305" y2="213.7305"/><text fill="#000000" font-family="sans-serif" font-size="13" font-weight="bold" lengthAdjust="spacing" textLength="9" x="1081.5" y="208.9883">4</text><text fill="#000000" font-family="sans-serif" font-size="13" lengthAdjust="spacing" textLength="81" x="1094.5" y="208.9883">getInstance()</text><polygon fill="#181818" points="1085.5,239.041,1075.5,243.041,1085.5,247.041,1081.5,243.041" style="stroke:#181818;stroke-width:1.0;"/><line style="stroke:#181818;stroke-width:1.0;stroke-dasharray:2.0,2.0;" x1="1079.5" x2="1298.5" y1="243.041" y2="243.041"/><text fill="#000000" font-family="sans-serif" font-size="13" font-weight="bold" lengthAdjust="spacing" textLength="9" x="1091.5" y="238.2988">5</text><text fill="#000000" font-family="sans-serif" font-size="13" lengthAdjust="spacing" textLength="78" x="1104.5" y="238.2988">Repositories</text><polygon fill="#181818" points="1282.5,268.3516,1292.5,272.3516,1282.5,276.3516,1286.5,272.3516" style="stroke:#181818;stroke-width:1.0;"/><line style="stroke:#181818;stroke-width:1.0;" x1="1074.5" x2="1288.5" y1="272.3516" y2="272.3516"/><text fill="#000000" font-family="sans-serif" font-size="13" font-weight="bold" lengthAdjust="spacing" textLength="9" x="1081.5" y="267.6094">6</text><text fill="#000000" font-family="sans-serif" font-size="13" lengthAdjust="spacing" textLength="188" x="1094.5" y="267.6094">getAuthenticationRepository()</text><polygon fill="#181818" points="1085.5,297.6621,1075.5,301.6621,1085.5,305.6621,1081.5,301.6621" style="stroke:#181818;stroke-width:1.0;"/><line style="stroke:#181818;stroke-width:1.0;stroke-dasharray:2.0,2.0;" x1="1079.5" x2="1298.5" y1="301.6621" y2="301.6621"/><text fill="#000000" font-family="sans-serif" font-size="13" font-weight="bold" lengthAdjust="spacing" textLength="9" x="1091.5" y="296.9199">7</text><text fill="#000000" font-family="sans-serif" font-size="13" lengthAdjust="spacing" textLength="168" x="1104.5" y="296.9199">AuthenticationRepository()</text><polygon fill="#181818" points="1440,326.9727,1450,330.9727,1440,334.9727,1444,330.9727" style="stroke:#181818;stroke-width:1.0;"/><line style="stroke:#181818;stroke-width:1.0;" x1="1074.5" x2="1446" y1="330.9727" y2="330.9727"/><text fill="#000000" font-family="sans-serif" font-size="13" font-weight="bold" lengthAdjust="spacing" textLength="9" x="1081.5" y="326.2305">8</text><text fill="#000000" font-family="sans-serif" font-size="13" lengthAdjust="spacing" textLength="151" x="1094.5" y="326.2305">getCurrentUserSession()</text><polygon fill="#181818" points="1629,356.2832,1639,360.2832,1629,364.2832,1633,360.2832" style="stroke:#181818;stroke-width:1.0;"/><line style="stroke:#181818;stroke-width:1.0;" x1="1462" x2="1635" y1="360.2832" y2="360.2832"/><text fill="#000000" font-family="sans-serif" font-size="13" font-weight="bold" lengthAdjust="spacing" textLength="9" x="1469" y="355.541">9</text><text fill="#000000" font-family="sans-serif" font-size="13" lengthAdjust="spacing" textLength="147" x="1482" y="355.541">isLoggedWithRole(GSM)</text><polygon fill="#181818" points="1473,385.5938,1463,389.5938,1473,393.5938,1469,389.5938" style="stroke:#181818;stroke-width:1.0;"/><line style="stroke:#181818;stroke-width:1.0;stroke-dasharray:2.0,2.0;" x1="1467" x2="1640" y1="389.5938" y2="389.5938"/><text fill="#000000" font-family="sans-serif" font-size="13" font-weight="bold" lengthAdjust="spacing" textLength="18" x="1479" y="384.8516">10</text><text fill="#000000" font-family="sans-serif" font-size="13" lengthAdjust="spacing" textLength="77" x="1501" y="384.8516">"True/False"</text><polygon fill="#181818" points="1629,414.9043,1639,418.9043,1629,422.9043,1633,418.9043" style="stroke:#181818;stroke-width:1.0;"/><line style="stroke:#181818;stroke-width:1.0;stroke-dasharray:2.0,2.0;" x1="1462" x2="1635" y1="418.9043" y2="418.9043"/><text fill="#000000" font-family="sans-serif" font-size="13" font-weight="bold" lengthAdjust="spacing" textLength="18" x="1469" y="414.1621">11</text><text fill="#000000" font-family="sans-serif" font-size="13" lengthAdjust="spacing" textLength="102" x="1491" y="414.1621">getUserId(email)</text><polygon fill="#181818" points="1473,444.2148,1463,448.2148,1473,452.2148,1469,448.2148" style="stroke:#181818;stroke-width:1.0;"/><line style="stroke:#181818;stroke-width:1.0;stroke-dasharray:2.0,2.0;" x1="1467" x2="1645" y1="448.2148" y2="448.2148"/><text fill="#000000" font-family="sans-serif" font-size="13" font-weight="bold" lengthAdjust="spacing" textLength="18" x="1479" y="443.4727">12</text><text fill="#000000" font-family="sans-serif" font-size="13" lengthAdjust="spacing" textLength="81" x="1501" y="443.4727">userId(email)</text><polygon fill="#181818" points="1085.5,473.5254,1075.5,477.5254,1085.5,481.5254,1081.5,477.5254" style="stroke:#181818;stroke-width:1.0;"/><line style="stroke:#181818;stroke-width:1.0;stroke-dasharray:2.0,2.0;" x1="1079.5" x2="1456" y1="477.5254" y2="477.5254"/><text fill="#000000" font-family="sans-serif" font-size="13" font-weight="bold" lengthAdjust="spacing" textLength="18" x="1091.5" y="472.7832">13</text><text fill="#000000" font-family="sans-serif" font-size="13" lengthAdjust="spacing" textLength="81" x="1113.5" y="472.7832">userId(email)</text><polygon fill="#181818" points="1282.5,502.8359,1292.5,506.8359,1282.5,510.8359,1286.5,506.8359" style="stroke:#181818;stroke-width:1.0;"/><line style="stroke:#181818;stroke-width:1.0;" x1="1074.5" x2="1288.5" y1="506.8359" y2="506.8359"/><text fill="#000000" font-family="sans-serif" font-size="13" font-weight="bold" lengthAdjust="spacing" textLength="18" x="1081.5" y="502.0938">14</text><text fill="#000000" font-family="sans-serif" font-size="13" lengthAdjust="spacing" textLength="81" x="1103.5" y="502.0938">getInstance()</text><polygon fill="#181818" points="1085.5,532.1465,1075.5,536.1465,1085.5,540.1465,1081.5,536.1465" style="stroke:#181818;stroke-width:1.0;"/><line style="stroke:#181818;stroke-width:1.0;stroke-dasharray:2.0,2.0;" x1="1079.5" x2="1298.5" y1="536.1465" y2="536.1465"/><text fill="#000000" font-family="sans-serif" font-size="13" font-weight="bold" lengthAdjust="spacing" textLength="18" x="1091.5" y="531.4043">15</text><text fill="#000000" font-family="sans-serif" font-size="13" lengthAdjust="spacing" textLength="78" x="1113.5" y="531.4043">Repositories</text><polygon fill="#181818" points="1282.5,561.457,1292.5,565.457,1282.5,569.457,1286.5,565.457" style="stroke:#181818;stroke-width:1.0;"/><line style="stroke:#181818;stroke-width:1.0;" x1="1074.5" x2="1288.5" y1="565.457" y2="565.457"/><text fill="#000000" font-family="sans-serif" font-size="13" font-weight="bold" lengthAdjust="spacing" textLength="18" x="1081.5" y="560.7148">16</text><text fill="#000000" font-family="sans-serif" font-size="13" lengthAdjust="spacing" textLength="176" x="1103.5" y="560.7148">getOrganizationRepository()</text><polygon fill="#181818" points="1085.5,590.7676,1075.5,594.7676,1085.5,598.7676,1081.5,594.7676" style="stroke:#181818;stroke-width:1.0;"/><line style="stroke:#181818;stroke-width:1.0;stroke-dasharray:2.0,2.0;" x1="1079.5" x2="1298.5" y1="594.7676" y2="594.7676"/><text fill="#000000" font-family="sans-serif" font-size="13" font-weight="bold" lengthAdjust="spacing" textLength="18" x="1091.5" y="590.0254">17</text><text fill="#000000" font-family="sans-serif" font-size="13" lengthAdjust="spacing" textLength="156" x="1113.5" y="590.0254">OrganizationRepository()</text><polygon fill="#181818" points="2160,620.0781,2170,624.0781,2160,628.0781,2164,624.0781" style="stroke:#181818;stroke-width:1.0;"/><line style="stroke:#181818;stroke-width:1.0;" x1="1074.5" x2="2166" y1="624.0781" y2="624.0781"/><text fill="#000000" font-family="sans-serif" font-size="13" font-weight="bold" lengthAdjust="spacing" textLength="18" x="1081.5" y="619.3359">18</text><text fill="#000000" font-family="sans-serif" font-size="13" lengthAdjust="spacing" textLength="199" x="1103.5" y="619.3359">getOrganizationByUserID(email)</text><path d="M2076.5,639.0781 L2150.5,639.0781 L2150.5,646.3887 L2140.5,656.3887 L2076.5,656.3887 L2076.5,639.0781 " fill="#EEEEEE" style="stroke:#000000;stroke-width:1.5;"/><rect fill="none" height="75.9316" style="stroke:#000000;stroke-width:1.5;" width="343.5" x="2076.5" y="639.0781"/><text fill="#000000" font-family="sans-serif" font-size="13" font-weight="bold" lengthAdjust="spacing" textLength="29" x="2091.5" y="652.6465">loop</text><polygon fill="#181818" points="2339,673.6992,2349,677.6992,2339,681.6992,2343,677.6992" style="stroke:#181818;stroke-width:1.0;"/><line style="stroke:#181818;stroke-width:1.0;" x1="2182" x2="2345" y1="677.6992" y2="677.6992"/><text fill="#000000" font-family="sans-serif" font-size="13" font-weight="bold" lengthAdjust="spacing" textLength="18" x="2189" y="672.957">19</text><text fill="#000000" font-family="sans-serif" font-size="13" lengthAdjust="spacing" textLength="128" x="2211" y="672.957">anyUserHasId(email)</text><polygon fill="#181818" points="2193,703.0098,2183,707.0098,2193,711.0098,2189,707.0098" style="stroke:#181818;stroke-width:1.0;"/><line style="stroke:#181818;stroke-width:1.0;stroke-dasharray:2.0,2.0;" x1="2187" x2="2355" y1="707.0098" y2="707.0098"/><text fill="#000000" font-family="sans-serif" font-size="13" font-weight="bold" lengthAdjust="spacing" textLength="18" x="2199" y="702.2676">20</text><text fill="#000000" font-family="sans-serif" font-size="13" lengthAdjust="spacing" textLength="67" x="2221" y="702.2676">True/False</text><polygon fill="#181818" points="1085.5,739.3203,1075.5,743.3203,1085.5,747.3203,1081.5,743.3203" style="stroke:#181818;stroke-width:1.0;"/><line style="stroke:#181818;stroke-width:1.0;stroke-dasharray:2.0,2.0;" x1="1079.5" x2="2176" y1="743.3203" y2="743.3203"/><text fill="#000000" font-family="sans-serif" font-size="13" font-weight="bold" lengthAdjust="spacing" textLength="18" x="1091.5" y="738.5781">21</text><text fill="#000000" font-family="sans-serif" font-size="13" lengthAdjust="spacing" textLength="79" x="1113.5" y="738.5781">organization</text><polygon fill="#181818" points="1282.5,768.6309,1292.5,772.6309,1282.5,776.6309,1286.5,772.6309" style="stroke:#181818;stroke-width:1.0;"/><line style="stroke:#181818;stroke-width:1.0;" x1="1074.5" x2="1288.5" y1="772.6309" y2="772.6309"/><text fill="#000000" font-family="sans-serif" font-size="13" font-weight="bold" lengthAdjust="spacing" textLength="18" x="1081.5" y="767.8887">22</text><text fill="#000000" font-family="sans-serif" font-size="13" lengthAdjust="spacing" textLength="155" x="1103.5" y="767.8887">getEmployeeRepository()</text><polygon fill="#181818" points="1085.5,797.9414,1075.5,801.9414,1085.5,805.9414,1081.5,801.9414" style="stroke:#181818;stroke-width:1.0;"/><line style="stroke:#181818;stroke-width:1.0;stroke-dasharray:2.0,2.0;" x1="1079.5" x2="1298.5" y1="801.9414" y2="801.9414"/><text fill="#000000" font-family="sans-serif" font-size="13" font-weight="bold" lengthAdjust="spacing" textLength="18" x="1091.5" y="797.1992">23</text><text fill="#000000" font-family="sans-serif" font-size="13" lengthAdjust="spacing" textLength="135" x="1113.5" y="797.1992">EmployeeRepository()</text><polygon fill="#181818" points="1768,827.252,1778,831.252,1768,835.252,1772,831.252" style="stroke:#181818;stroke-width:1.0;"/><line style="stroke:#181818;stroke-width:1.0;" x1="1074.5" x2="1774" y1="831.252" y2="831.252"/><text fill="#000000" font-family="sans-serif" font-size="13" font-weight="bold" lengthAdjust="spacing" textLength="18" x="1081.5" y="826.5098">24</text><text fill="#000000" font-family="sans-serif" font-size="13" lengthAdjust="spacing" textLength="178" x="1103.5" y="826.5098">getEmployeeByUserID(email)</text><path d="M1696.5,846.252 L1770.5,846.252 L1770.5,853.5625 L1760.5,863.5625 L1696.5,863.5625 L1696.5,846.252 " fill="#EEEEEE" style="stroke:#000000;stroke-width:1.5;"/><rect fill="none" height="75.9316" style="stroke:#000000;stroke-width:1.5;" width="319.5" x="1696.5" y="846.252"/><text fill="#000000" font-family="sans-serif" font-size="13" font-weight="bold" lengthAdjust="spacing" textLength="29" x="1711.5" y="859.8203">loop</text><polygon fill="#181818" points="1947,880.873,1957,884.873,1947,888.873,1951,884.873" style="stroke:#181818;stroke-width:1.0;"/><line style="stroke:#181818;stroke-width:1.0;" x1="1790" x2="1953" y1="884.873" y2="884.873"/><text fill="#000000" font-family="sans-serif" font-size="13" font-weight="bold" lengthAdjust="spacing" textLength="18" x="1797" y="880.1309">25</text><text fill="#000000" font-family="sans-serif" font-size="13" lengthAdjust="spacing" textLength="128" x="1819" y="880.1309">anyUserHasId(email)</text><polygon fill="#181818" points="1801,910.1836,1791,914.1836,1801,918.1836,1797,914.1836" style="stroke:#181818;stroke-width:1.0;"/><line style="stroke:#181818;stroke-width:1.0;stroke-dasharray:2.0,2.0;" x1="1795" x2="1963" y1="914.1836" y2="914.1836"/><text fill="#000000" font-family="sans-serif" font-size="13" font-weight="bold" lengthAdjust="spacing" textLength="18" x="1807" y="909.4414">26</text><text fill="#000000" font-family="sans-serif" font-size="13" lengthAdjust="spacing" textLength="67" x="1829" y="909.4414">True/False</text><polygon fill="#181818" points="1085.5,946.4941,1075.5,950.4941,1085.5,954.4941,1081.5,950.4941" style="stroke:#181818;stroke-width:1.0;"/><line style="stroke:#181818;stroke-width:1.0;stroke-dasharray:2.0,2.0;" x1="1079.5" x2="1784" y1="950.4941" y2="950.4941"/><text fill="#000000" font-family="sans-serif" font-size="13" font-weight="bold" lengthAdjust="spacing" textLength="18" x="1091.5" y="945.752">27</text><text fill="#000000" font-family="sans-serif" font-size="13" lengthAdjust="spacing" textLength="60" x="1113.5" y="945.752">employee</text><polygon fill="#181818" points="1947,975.8047,1957,979.8047,1947,983.8047,1951,979.8047" style="stroke:#181818;stroke-width:1.0;"/><line style="stroke:#181818;stroke-width:1.0;" x1="1074.5" x2="1953" y1="979.8047" y2="979.8047"/><text fill="#000000" font-family="sans-serif" font-size="13" font-weight="bold" lengthAdjust="spacing" textLength="18" x="1081.5" y="975.0625">28</text><text fill="#000000" font-family="sans-serif" font-size="13" lengthAdjust="spacing" textLength="195" x="1103.5" y="975.0625">getGreenSpacesManagedByMe()</text><polygon fill="#181818" points="2456,1005.1152,2466,1009.1152,2456,1013.1152,2460,1009.1152" style="stroke:#181818;stroke-width:1.0;"/><line style="stroke:#181818;stroke-width:1.0;" x1="1969" x2="2462" y1="1009.1152" y2="1009.1152"/><text fill="#000000" font-family="sans-serif" font-size="13" font-weight="bold" lengthAdjust="spacing" textLength="18" x="1976" y="1004.373">29</text><text fill="#000000" font-family="sans-serif" font-size="13" lengthAdjust="spacing" textLength="195" x="1998" y="1004.373">getGreenSpacesManagedByMe()</text><polygon fill="#181818" points="1980,1034.4258,1970,1038.4258,1980,1042.4258,1976,1038.4258" style="stroke:#181818;stroke-width:1.0;"/><line style="stroke:#181818;stroke-width:1.0;stroke-dasharray:2.0,2.0;" x1="1974" x2="2472" y1="1038.4258" y2="1038.4258"/><text fill="#000000" font-family="sans-serif" font-size="13" font-weight="bold" lengthAdjust="spacing" textLength="18" x="1986" y="1033.6836">30</text><text fill="#000000" font-family="sans-serif" font-size="13" lengthAdjust="spacing" textLength="115" x="2008" y="1033.6836">List&lt;GreenSpace&gt;</text><polygon fill="#181818" points="1085.5,1063.7363,1075.5,1067.7363,1085.5,1071.7363,1081.5,1067.7363" style="stroke:#181818;stroke-width:1.0;"/><line style="stroke:#181818;stroke-width:1.0;stroke-dasharray:2.0,2.0;" x1="1079.5" x2="1963" y1="1067.7363" y2="1067.7363"/><text fill="#000000" font-family="sans-serif" font-size="13" font-weight="bold" lengthAdjust="spacing" textLength="18" x="1091.5" y="1062.9941">31</text><text fill="#000000" font-family="sans-serif" font-size="13" lengthAdjust="spacing" textLength="115" x="1113.5" y="1062.9941">List&lt;GreenSpace&gt;</text><polygon fill="#181818" points="612.5,1093.0469,602.5,1097.0469,612.5,1101.0469,608.5,1097.0469" style="stroke:#181818;stroke-width:1.0;"/><line style="stroke:#181818;stroke-width:1.0;stroke-dasharray:2.0,2.0;" x1="606.5" x2="1068.5" y1="1097.0469" y2="1097.0469"/><text fill="#000000" font-family="sans-serif" font-size="13" font-weight="bold" lengthAdjust="spacing" textLength="18" x="618.5" y="1092.3047">32</text><text fill="#000000" font-family="sans-serif" font-size="13" lengthAdjust="spacing" textLength="115" x="640.5" y="1092.3047">List&lt;GreenSpace&gt;</text><polygon fill="#181818" points="98.5,1122.3574,88.5,1126.3574,98.5,1130.3574,94.5,1126.3574" style="stroke:#181818;stroke-width:1.0;"/><line style="stroke:#181818;stroke-width:1.0;stroke-dasharray:2.0,2.0;" x1="92.5" x2="595.5" y1="1126.3574" y2="1126.3574"/><text fill="#000000" font-family="sans-serif" font-size="13" font-weight="bold" lengthAdjust="spacing" textLength="18" x="104.5" y="1121.6152">33</text><text fill="#000000" font-family="sans-serif" font-size="13" lengthAdjust="spacing" textLength="218" x="126.5" y="1121.6152">Green Spaces managed by the GSM</text><polygon fill="#181818" points="579.5,1151.668,589.5,1155.668,579.5,1159.668,583.5,1155.668" style="stroke:#181818;stroke-width:1.0;"/><line style="stroke:#181818;stroke-width:1.0;" x1="87.5" x2="585.5" y1="1155.668" y2="1155.668"/><text fill="#000000" font-family="sans-serif" font-size="13" font-weight="bold" lengthAdjust="spacing" textLength="18" x="94.5" y="1150.9258">34</text><text fill="#000000" font-family="sans-serif" font-size="13" lengthAdjust="spacing" textLength="463" x="116.5" y="1150.9258">selects a green space (green spaces managed by me) from greenSpaceList</text><polygon fill="#181818" points="1052.5,1180.9785,1062.5,1184.9785,1052.5,1188.9785,1056.5,1184.9785" style="stroke:#181818;stroke-width:1.0;"/><line style="stroke:#181818;stroke-width:1.0;" x1="601.5" x2="1058.5" y1="1184.9785" y2="1184.9785"/><text fill="#000000" font-family="sans-serif" font-size="13" font-weight="bold" lengthAdjust="spacing" textLength="18" x="608.5" y="1180.2363">35</text><text fill="#000000" font-family="sans-serif" font-size="13" lengthAdjust="spacing" textLength="115" x="630.5" y="1180.2363">getPendingTasks()</text><polygon fill="#181818" points="1947,1210.2891,1957,1214.2891,1947,1218.2891,1951,1214.2891" style="stroke:#181818;stroke-width:1.0;"/><line style="stroke:#181818;stroke-width:1.0;" x1="1074.5" x2="1953" y1="1214.2891" y2="1214.2891"/><text fill="#000000" font-family="sans-serif" font-size="13" font-weight="bold" lengthAdjust="spacing" textLength="18" x="1081.5" y="1209.5469">36</text><text fill="#000000" font-family="sans-serif" font-size="13" lengthAdjust="spacing" textLength="115" x="1103.5" y="1209.5469">getPendingTasks()</text><polygon fill="#181818" points="2547.5,1239.5996,2557.5,1243.5996,2547.5,1247.5996,2551.5,1243.5996" style="stroke:#181818;stroke-width:1.0;"/><line style="stroke:#181818;stroke-width:1.0;" x1="1969" x2="2553.5" y1="1243.5996" y2="1243.5996"/><text fill="#000000" font-family="sans-serif" font-size="13" font-weight="bold" lengthAdjust="spacing" textLength="18" x="1976" y="1238.8574">37</text><text fill="#000000" font-family="sans-serif" font-size="13" lengthAdjust="spacing" textLength="115" x="1998" y="1238.8574">getPendingTasks()</text><polygon fill="#181818" points="1980,1268.9102,1970,1272.9102,1980,1276.9102,1976,1272.9102" style="stroke:#181818;stroke-width:1.0;"/><line style="stroke:#181818;stroke-width:1.0;stroke-dasharray:2.0,2.0;" x1="1974" x2="2563.5" y1="1272.9102" y2="1272.9102"/><text fill="#000000" font-family="sans-serif" font-size="13" font-weight="bold" lengthAdjust="spacing" textLength="18" x="1986" y="1268.168">38</text><text fill="#000000" font-family="sans-serif" font-size="13" lengthAdjust="spacing" textLength="73" x="2008" y="1268.168">List&lt;Task&gt;</text><polygon fill="#181818" points="1085.5,1298.2207,1075.5,1302.2207,1085.5,1306.2207,1081.5,1302.2207" style="stroke:#181818;stroke-width:1.0;"/><line style="stroke:#181818;stroke-width:1.0;stroke-dasharray:2.0,2.0;" x1="1079.5" x2="1963" y1="1302.2207" y2="1302.2207"/><text fill="#000000" font-family="sans-serif" font-size="13" font-weight="bold" lengthAdjust="spacing" textLength="18" x="1091.5" y="1297.4785">39</text><text fill="#000000" font-family="sans-serif" font-size="13" lengthAdjust="spacing" textLength="73" x="1113.5" y="1297.4785">List&lt;Task&gt;</text><polygon fill="#181818" points="612.5,1327.5313,602.5,1331.5313,612.5,1335.5313,608.5,1331.5313" style="stroke:#181818;stroke-width:1.0;"/><line style="stroke:#181818;stroke-width:1.0;stroke-dasharray:2.0,2.0;" x1="606.5" x2="1068.5" y1="1331.5313" y2="1331.5313"/><text fill="#000000" font-family="sans-serif" font-size="13" font-weight="bold" lengthAdjust="spacing" textLength="18" x="618.5" y="1326.7891">40</text><text fill="#000000" font-family="sans-serif" font-size="13" lengthAdjust="spacing" textLength="73" x="640.5" y="1326.7891">List&lt;Task&gt;</text><polygon fill="#181818" points="98.5,1356.8418,88.5,1360.8418,98.5,1364.8418,94.5,1360.8418" style="stroke:#181818;stroke-width:1.0;"/><line style="stroke:#181818;stroke-width:1.0;stroke-dasharray:2.0,2.0;" x1="92.5" x2="595.5" y1="1360.8418" y2="1360.8418"/><text fill="#000000" font-family="sans-serif" font-size="13" font-weight="bold" lengthAdjust="spacing" textLength="18" x="104.5" y="1356.0996">41</text><text fill="#000000" font-family="sans-serif" font-size="13" lengthAdjust="spacing" textLength="187" x="126.5" y="1356.0996">Presents list of pending tasks</text><polygon fill="#181818" points="579.5,1386.1523,589.5,1390.1523,579.5,1394.1523,583.5,1390.1523" style="stroke:#181818;stroke-width:1.0;"/><line style="stroke:#181818;stroke-width:1.0;" x1="87.5" x2="585.5" y1="1390.1523" y2="1390.1523"/><text fill="#000000" font-family="sans-serif" font-size="13" font-weight="bold" lengthAdjust="spacing" textLength="18" x="94.5" y="1385.4102">42</text><text fill="#000000" font-family="sans-serif" font-size="13" lengthAdjust="spacing" textLength="278" x="116.5" y="1385.4102">selects a task from the list of pending tasks</text><polygon fill="#181818" points="98.5,1415.4629,88.5,1419.4629,98.5,1423.4629,94.5,1419.4629" style="stroke:#181818;stroke-width:1.0;"/><line style="stroke:#181818;stroke-width:1.0;" x1="92.5" x2="590.5" y1="1419.4629" y2="1419.4629"/><text fill="#000000" font-family="sans-serif" font-size="13" font-weight="bold" lengthAdjust="spacing" textLength="18" x="104.5" y="1414.7207">43</text><text fill="#000000" font-family="sans-serif" font-size="13" lengthAdjust="spacing" textLength="138" x="126.5" y="1414.7207">requests starting date</text><polygon fill="#181818" points="584.5,1444.7734,594.5,1448.7734,584.5,1452.7734,588.5,1448.7734" style="stroke:#181818;stroke-width:1.0;"/><line style="stroke:#181818;stroke-width:1.0;" x1="87.5" x2="590.5" y1="1448.7734" y2="1448.7734"/><text fill="#000000" font-family="sans-serif" font-size="13" font-weight="bold" lengthAdjust="spacing" textLength="18" x="94.5" y="1444.0313">44</text><text fill="#000000" font-family="sans-serif" font-size="13" lengthAdjust="spacing" textLength="118" x="116.5" y="1444.0313">types starting date</text><polygon fill="#181818" points="1052.5,1474.084,1062.5,1478.084,1052.5,1482.084,1056.5,1478.084" style="stroke:#181818;stroke-width:1.0;"/><line style="stroke:#181818;stroke-width:1.0;" x1="606.5" x2="1058.5" y1="1478.084" y2="1478.084"/><text fill="#000000" font-family="sans-serif" font-size="13" font-weight="bold" lengthAdjust="spacing" textLength="18" x="613.5" y="1473.3418">45</text><text fill="#000000" font-family="sans-serif" font-size="13" lengthAdjust="spacing" textLength="417" x="635.5" y="1473.3418">addNewAgendaEntry(selectedTask, selectedGreenSpace, startDate)</text><polygon fill="#181818" points="1947,1503.3945,1957,1507.3945,1947,1511.3945,1951,1507.3945" style="stroke:#181818;stroke-width:1.0;"/><line style="stroke:#181818;stroke-width:1.0;" x1="1074.5" x2="1953" y1="1507.3945" y2="1507.3945"/><text fill="#000000" font-family="sans-serif" font-size="13" font-weight="bold" lengthAdjust="spacing" textLength="18" x="1081.5" y="1502.6523">46</text><text fill="#000000" font-family="sans-serif" font-size="13" lengthAdjust="spacing" textLength="272" x="1103.5" y="1502.6523">planTaskInAgenda(selectedTask, startDate)</text><polygon fill="#181818" points="2591,1532.7051,2601,1536.7051,2591,1540.7051,2595,1536.7051" style="stroke:#181818;stroke-width:1.0;"/><line style="stroke:#181818;stroke-width:1.0;" x1="1969" x2="2597" y1="1536.7051" y2="1536.7051"/><text fill="#000000" font-family="sans-serif" font-size="13" font-weight="bold" lengthAdjust="spacing" textLength="18" x="1976" y="1531.9629">47</text><text fill="#000000" font-family="sans-serif" font-size="13" lengthAdjust="spacing" textLength="182" x="1998" y="1531.9629">planTaskInAgenda(startDate)</text><rect fill="#E3E3E3" height="30.4883" rx="2.5" ry="2.5" style="stroke:#181818;stroke-width:0.5;" width="50" x="2603" y="1515.3945"/><text fill="#000000" font-family="sans-serif" font-size="14" lengthAdjust="spacing" textLength="36" x="2610" y="1535.9297">TASK</text><line style="stroke:#181818;stroke-width:1.0;" x1="1969" x2="2011" y1="1583.1934" y2="1583.1934"/><line style="stroke:#181818;stroke-width:1.0;" x1="2011" x2="2011" y1="1583.1934" y2="1596.1934"/><line style="stroke:#181818;stroke-width:1.0;" x1="1964" x2="2011" y1="1596.1934" y2="1596.1934"/><polygon fill="#181818" points="1974,1592.1934,1964,1596.1934,1974,1600.1934,1970,1596.1934" style="stroke:#181818;stroke-width:1.0;"/><text fill="#000000" font-family="sans-serif" font-size="13" font-weight="bold" lengthAdjust="spacing" textLength="18" x="1976" y="1578.4512">48</text><text fill="#000000" font-family="sans-serif" font-size="13" lengthAdjust="spacing" textLength="167" x="1998" y="1578.4512">addNewAgendaEntry(Task)</text><line style="stroke:#181818;stroke-width:1.0;" x1="1969" x2="2011" y1="1620.5039" y2="1620.5039"/><line style="stroke:#181818;stroke-width:1.0;" x1="2011" x2="2011" y1="1620.5039" y2="1633.5039"/><line style="stroke:#181818;stroke-width:1.0;" x1="1970" x2="2011" y1="1633.5039" y2="1633.5039"/><polygon fill="#181818" points="1980,1629.5039,1970,1633.5039,1980,1637.5039,1976,1633.5039" style="stroke:#181818;stroke-width:1.0;"/><text fill="#000000" font-family="sans-serif" font-size="13" font-weight="bold" lengthAdjust="spacing" textLength="18" x="1976" y="1615.7617">49</text><text fill="#000000" font-family="sans-serif" font-size="13" lengthAdjust="spacing" textLength="166" x="1998" y="1615.7617">validateAgendaEntry(Task)</text><polygon fill="#181818" points="1085.5,1658.8145,1075.5,1662.8145,1085.5,1666.8145,1081.5,1662.8145" style="stroke:#181818;stroke-width:1.0;"/><line style="stroke:#181818;stroke-width:1.0;" x1="1079.5" x2="1963" y1="1662.8145" y2="1662.8145"/><text fill="#000000" font-family="sans-serif" font-size="13" font-weight="bold" lengthAdjust="spacing" textLength="18" x="1091.5" y="1658.0723">50</text><text fill="#000000" font-family="sans-serif" font-size="13" lengthAdjust="spacing" textLength="30" x="1113.5" y="1658.0723">Task</text><polygon fill="#181818" points="617.5,1688.125,607.5,1692.125,617.5,1696.125,613.5,1692.125" style="stroke:#181818;stroke-width:1.0;"/><line style="stroke:#181818;stroke-width:1.0;stroke-dasharray:2.0,2.0;" x1="611.5" x2="1068.5" y1="1692.125" y2="1692.125"/><text fill="#000000" font-family="sans-serif" font-size="13" font-weight="bold" lengthAdjust="spacing" textLength="18" x="623.5" y="1687.3828">51</text><text fill="#000000" font-family="sans-serif" font-size="13" lengthAdjust="spacing" textLength="114" x="645.5" y="1687.3828">operation success</text><polygon fill="#181818" points="93.5,1717.4355,83.5,1721.4355,93.5,1725.4355,89.5,1721.4355" style="stroke:#181818;stroke-width:1.0;"/><line style="stroke:#181818;stroke-width:1.0;stroke-dasharray:2.0,2.0;" x1="87.5" x2="590.5" y1="1721.4355" y2="1721.4355"/><text fill="#000000" font-family="sans-serif" font-size="13" font-weight="bold" lengthAdjust="spacing" textLength="18" x="99.5" y="1716.6934">52</text><text fill="#000000" font-family="sans-serif" font-size="13" lengthAdjust="spacing" textLength="160" x="121.5" y="1716.6934">Display success message</text><!--SRC=[nLR1Rjim3BthAuISqc75xi5G85lJBbYp1KcANNRHOjOrwaYU9Q_mlduKPTcIxRYvBOSsZjzxfFWeKVebauKenOcVb5J7vrATW9ko0gRRDuKuleWKzgREWPTmD4AcUGZGpo9HhvbC-PF8DJ0cAgDaTVe59Nu_6bNosNq98FaUjO1lX4IzSiQ5vlVx3KCLanspGaZ3Pujb2Z8HZsjw_RWUVVjPILEgF6z4FXzs3p6kX4Bf32Dde7_AnIvu9CRsONc86SlAFD-9eqW0yVO19BuK9bEoPTV4NJuUlknMsvXUQIZte3N2aV_OFRbbx5Ux6Byw5Rcg0Jfjf0r_9FPgint4yz20vR4ny7kP2fdzxIq4QUClIEJxxduGC8Jts9uJ4yXnCbmlVihWgV6zLv23q2yMIFy9SbZklzeqR0jbVuG1QXQ6V_Zr3NO6Ns0t_gv06ysDuY99kE0INhdh4Ou6bdL7nbPYI4AgRHSafs2wFffVTKXg9qQe26rTlSCTqZYB5CRnuu6sfnnmBJLkaYCWmW9QOUgwblBn-jfpmluaG08nwKoWStrwSU0t12RJQFP1KycgB54eQFn-3dxRqA-UQut4lO4QcNvGQGh9ZymyxrGES_Ivfq2xAABRbJJysG5FhGztzW2QnI6w68s7wsGE9v7bL-UqgW4eA4INHLlChXAJpAW2_x5hndV-nM4dwPCfk7DbcCIdccov3UlMoZI7aVqjLwgWB_RJY3bPr1IILBu87HlG5mi5g3dQhBeEQZ71SZmLpnOMnk-E21KiYGtP4zOF3_wBtJXBdNJ2ZPGu-AGBpGmQkD08ESbBNR13AX2W6hOPJRlWgTu57xzp0Phbi26J763TqUvInX84qybTJf9FzGR2cM3ZCihrniwkIsbsp5duTHlj8TFcOqUyOK6A5iryGPhbJE4fARSOFn6du6wksHb8YzWWFBYMQNvoQ-2_QevJWQPjUEwjuzch8SUxeCQPcvA8fhlTF7Y854zmnPzmU3eqHRIvJi_dBTgCzqgw4voVqAsDv-2sJertpQLY6kzl7XxSSy_Yey9w_9Xr0x1DPiIp0OxM69crBK7ZZDKyHm9NJxnm-NDZ5t2PLnRgVB0MZmkDME8IQAzREAZmweQ4165H95CNq7z_tcAyits3LtTVMzdhsjnb2eajntlkdxg6Vk-qRr7kZNueSa6NoRLq-dtf4PbUdxnxDoepGhHeHbktEmW7IxCgL_ssyV7mtuB_4NbcApPaiVRmQIfdVtxZA505b3IBkAwEk1lr6sV1RQPniRL7uuxL6dTllw-Yysh3_W40]--></g></svg>