<?xml version="1.0" encoding="us-ascii" standalone="no"?><svg xmlns="http://www.w3.org/2000/svg" xmlns:xlink="http://www.w3.org/1999/xlink" contentStyleType="text/css" height="683px" preserveAspectRatio="none" style="width:1541px;height:683px;background:#FFFFFF;" version="1.1" viewBox="0 0 1541 683" width="1541px" zoomAndPan="magnify"><defs/><g><!--class AuthenticationRepository--><g id="elem_AuthenticationRepository"><rect codeLine="9" fill="#F1F1F1" height="64.4883" id="AuthenticationRepository" rx="2.5" ry="2.5" style="stroke:#181818;stroke-width:0.5;" width="206" x="780.5" y="246.36"/><ellipse cx="795.5" cy="262.36" fill="#ADD1B2" rx="11" ry="11" style="stroke:#181818;stroke-width:1.0;"/><path d="M797.9731,268.5031 Q797.3921,268.8019 796.7529,268.9513 Q796.1138,269.1007 795.4082,269.1007 Q792.9014,269.1007 791.5815,267.4489 Q790.2617,265.797 790.2617,262.6759 Q790.2617,259.5465 791.5815,257.8947 Q792.9014,256.2428 795.4082,256.2428 Q796.1138,256.2428 796.7612,256.3922 Q797.4087,256.5416 797.9731,256.8405 L797.9731,259.5631 Q797.3423,258.9821 796.7488,258.7123 Q796.1553,258.4425 795.5244,258.4425 Q794.1797,258.4425 793.4949,259.5092 Q792.8101,260.5758 792.8101,262.6759 Q792.8101,264.7677 793.4949,265.8344 Q794.1797,266.901 795.5244,266.901 Q796.1553,266.901 796.7488,266.6312 Q797.3423,266.3615 797.9731,265.7804 Z " fill="#000000"/><text fill="#000000" font-family="sans-serif" font-size="14" lengthAdjust="spacing" textLength="174" x="809.5" y="267.651">AuthenticationRepository</text><line style="stroke:#181818;stroke-width:0.5;" x1="781.5" x2="985.5" y1="278.36" y2="278.36"/><line style="stroke:#181818;stroke-width:0.5;" x1="781.5" x2="985.5" y1="286.36" y2="286.36"/><text fill="#000000" font-family="sans-serif" font-size="14" lengthAdjust="spacing" textLength="179" x="786.5" y="303.8952">+getCurrentUserSession()</text></g><!--class Employee--><g id="elem_Employee"><rect codeLine="13" fill="#F1F1F1" height="130.4414" id="Employee" rx="2.5" ry="2.5" style="stroke:#181818;stroke-width:0.5;" width="319" x="972" y="387.85"/><ellipse cx="1094.25" cy="403.85" fill="#ADD1B2" rx="11" ry="11" style="stroke:#181818;stroke-width:1.0;"/><path d="M1096.7231,409.9931 Q1096.1421,410.2919 1095.5029,410.4413 Q1094.8638,410.5907 1094.1582,410.5907 Q1091.6514,410.5907 1090.3315,408.9389 Q1089.0117,407.287 1089.0117,404.1659 Q1089.0117,401.0365 1090.3315,399.3847 Q1091.6514,397.7328 1094.1582,397.7328 Q1094.8638,397.7328 1095.5112,397.8822 Q1096.1587,398.0316 1096.7231,398.3305 L1096.7231,401.0531 Q1096.0923,400.4721 1095.4988,400.2023 Q1094.9053,399.9325 1094.2744,399.9325 Q1092.9297,399.9325 1092.2449,400.9992 Q1091.5601,402.0658 1091.5601,404.1659 Q1091.5601,406.2577 1092.2449,407.3244 Q1092.9297,408.391 1094.2744,408.391 Q1094.9053,408.391 1095.4988,408.1212 Q1096.0923,407.8515 1096.7231,407.2704 Z " fill="#000000"/><text fill="#000000" font-family="sans-serif" font-size="14" lengthAdjust="spacing" textLength="66" x="1114.75" y="409.141">Employee</text><line style="stroke:#181818;stroke-width:0.5;" x1="973" x2="1290" y1="419.85" y2="419.85"/><line style="stroke:#181818;stroke-width:0.5;" x1="973" x2="1290" y1="427.85" y2="427.85"/><text fill="#000000" font-family="sans-serif" font-size="14" lengthAdjust="spacing" textLength="229" x="978" y="445.3852">+getGreenSpacesManagedByMe()</text><text fill="#000000" font-family="sans-serif" font-size="14" lengthAdjust="spacing" textLength="138" x="978" y="461.8734">+getPendingTasks()</text><text fill="#000000" font-family="sans-serif" font-size="14" lengthAdjust="spacing" textLength="307" x="978" y="478.3617">+planTaskInAgenda(selectedTask, startDate)</text><text fill="#000000" font-family="sans-serif" font-size="14" lengthAdjust="spacing" textLength="196" x="978" y="494.85">+addNewAgendaEntry(Task)</text><text fill="#000000" font-family="sans-serif" font-size="14" lengthAdjust="spacing" textLength="194" x="978" y="511.3383">+validateAgendaEntry(Task)</text></g><!--class EmployeeRepository--><g id="elem_EmployeeRepository"><rect codeLine="21" fill="#F1F1F1" height="64.4883" id="EmployeeRepository" rx="2.5" ry="2.5" style="stroke:#181818;stroke-width:0.5;" width="225" x="1021" y="246.36"/><ellipse cx="1060.3" cy="262.36" fill="#ADD1B2" rx="11" ry="11" style="stroke:#181818;stroke-width:1.0;"/><path d="M1062.7731,268.5031 Q1062.1921,268.8019 1061.5529,268.9513 Q1060.9138,269.1007 1060.2082,269.1007 Q1057.7014,269.1007 1056.3815,267.4489 Q1055.0617,265.797 1055.0617,262.6759 Q1055.0617,259.5465 1056.3815,257.8947 Q1057.7014,256.2428 1060.2082,256.2428 Q1060.9138,256.2428 1061.5612,256.3922 Q1062.2087,256.5416 1062.7731,256.8405 L1062.7731,259.5631 Q1062.1423,258.9821 1061.5488,258.7123 Q1060.9553,258.4425 1060.3244,258.4425 Q1058.9797,258.4425 1058.2949,259.5092 Q1057.6101,260.5758 1057.6101,262.6759 Q1057.6101,264.7677 1058.2949,265.8344 Q1058.9797,266.901 1060.3244,266.901 Q1060.9553,266.901 1061.5488,266.6312 Q1062.1423,266.3615 1062.7731,265.7804 Z " fill="#000000"/><text fill="#000000" font-family="sans-serif" font-size="14" lengthAdjust="spacing" textLength="139" x="1079.7" y="267.651">EmployeeRepository</text><line style="stroke:#181818;stroke-width:0.5;" x1="1022" x2="1245" y1="278.36" y2="278.36"/><line style="stroke:#181818;stroke-width:0.5;" x1="1022" x2="1245" y1="286.36" y2="286.36"/><text fill="#000000" font-family="sans-serif" font-size="14" lengthAdjust="spacing" textLength="213" x="1027" y="303.8952">+getEmployeeByUserID(userID)</text></g><!--class Organization--><g id="elem_Organization"><rect codeLine="25" fill="#F1F1F1" height="64.4883" id="Organization" rx="2.5" ry="2.5" style="stroke:#181818;stroke-width:0.5;" width="170" x="1326.5" y="420.83"/><ellipse cx="1363.1" cy="436.83" fill="#ADD1B2" rx="11" ry="11" style="stroke:#181818;stroke-width:1.0;"/><path d="M1365.5731,442.9731 Q1364.9921,443.2719 1364.3529,443.4213 Q1363.7138,443.5707 1363.0082,443.5707 Q1360.5014,443.5707 1359.1815,441.9189 Q1357.8617,440.267 1357.8617,437.1459 Q1357.8617,434.0165 1359.1815,432.3647 Q1360.5014,430.7128 1363.0082,430.7128 Q1363.7138,430.7128 1364.3612,430.8622 Q1365.0087,431.0116 1365.5731,431.3105 L1365.5731,434.0331 Q1364.9423,433.4521 1364.3488,433.1823 Q1363.7553,432.9125 1363.1244,432.9125 Q1361.7797,432.9125 1361.0949,433.9792 Q1360.4101,435.0458 1360.4101,437.1459 Q1360.4101,439.2377 1361.0949,440.3044 Q1361.7797,441.371 1363.1244,441.371 Q1363.7553,441.371 1364.3488,441.1012 Q1364.9423,440.8315 1365.5731,440.2504 Z " fill="#000000"/><text fill="#000000" font-family="sans-serif" font-size="14" lengthAdjust="spacing" textLength="90" x="1381.9" y="442.121">Organization</text><line style="stroke:#181818;stroke-width:0.5;" x1="1327.5" x2="1495.5" y1="452.83" y2="452.83"/><line style="stroke:#181818;stroke-width:0.5;" x1="1327.5" x2="1495.5" y1="460.83" y2="460.83"/><text fill="#000000" font-family="sans-serif" font-size="14" lengthAdjust="spacing" textLength="158" x="1332.5" y="478.3652">+anyUserHasId(userID)</text></g><!--class OrganizationRepository--><g id="elem_OrganizationRepository"><rect codeLine="29" fill="#F1F1F1" height="64.4883" id="OrganizationRepository" rx="2.5" ry="2.5" style="stroke:#181818;stroke-width:0.5;" width="249" x="1285" y="246.36"/><ellipse cx="1324.3" cy="262.36" fill="#ADD1B2" rx="11" ry="11" style="stroke:#181818;stroke-width:1.0;"/><path d="M1326.7731,268.5031 Q1326.1921,268.8019 1325.5529,268.9513 Q1324.9138,269.1007 1324.2082,269.1007 Q1321.7014,269.1007 1320.3815,267.4489 Q1319.0617,265.797 1319.0617,262.6759 Q1319.0617,259.5465 1320.3815,257.8947 Q1321.7014,256.2428 1324.2082,256.2428 Q1324.9138,256.2428 1325.5612,256.3922 Q1326.2087,256.5416 1326.7731,256.8405 L1326.7731,259.5631 Q1326.1423,258.9821 1325.5488,258.7123 Q1324.9553,258.4425 1324.3244,258.4425 Q1322.9797,258.4425 1322.2949,259.5092 Q1321.6101,260.5758 1321.6101,262.6759 Q1321.6101,264.7677 1322.2949,265.8344 Q1322.9797,266.901 1324.3244,266.901 Q1324.9553,266.901 1325.5488,266.6312 Q1326.1423,266.3615 1326.7731,265.7804 Z " fill="#000000"/><text fill="#000000" font-family="sans-serif" font-size="14" lengthAdjust="spacing" textLength="163" x="1343.7" y="267.651">OrganizationRepository</text><line style="stroke:#181818;stroke-width:0.5;" x1="1286" x2="1533" y1="278.36" y2="278.36"/><line style="stroke:#181818;stroke-width:0.5;" x1="1286" x2="1533" y1="286.36" y2="286.36"/><text fill="#000000" font-family="sans-serif" font-size="14" lengthAdjust="spacing" textLength="237" x="1291" y="303.8952">+getOrganizationByUserID(userID)</text></g><!--class Repositories--><g id="elem_Repositories"><rect codeLine="33" fill="#F1F1F1" height="130.4414" id="Repositories" rx="2.5" ry="2.5" style="stroke:#181818;stroke-width:0.5;" width="229" x="1019" y="46.68"/><ellipse cx="1086.75" cy="62.68" fill="#ADD1B2" rx="11" ry="11" style="stroke:#181818;stroke-width:1.0;"/><path d="M1089.2231,68.8231 Q1088.6421,69.1219 1088.0029,69.2713 Q1087.3638,69.4207 1086.6582,69.4207 Q1084.1514,69.4207 1082.8315,67.7689 Q1081.5117,66.117 1081.5117,62.9959 Q1081.5117,59.8665 1082.8315,58.2147 Q1084.1514,56.5628 1086.6582,56.5628 Q1087.3638,56.5628 1088.0112,56.7122 Q1088.6587,56.8616 1089.2231,57.1605 L1089.2231,59.8831 Q1088.5923,59.3021 1087.9988,59.0323 Q1087.4053,58.7625 1086.7744,58.7625 Q1085.4297,58.7625 1084.7449,59.8292 Q1084.0601,60.8958 1084.0601,62.9959 Q1084.0601,65.0877 1084.7449,66.1544 Q1085.4297,67.221 1086.7744,67.221 Q1087.4053,67.221 1087.9988,66.9512 Q1088.5923,66.6815 1089.2231,66.1004 Z " fill="#000000"/><text fill="#000000" font-family="sans-serif" font-size="14" lengthAdjust="spacing" textLength="85" x="1107.25" y="67.971">Repositories</text><line style="stroke:#181818;stroke-width:0.5;" x1="1020" x2="1247" y1="78.68" y2="78.68"/><line style="stroke:#181818;stroke-width:0.5;" x1="1020" x2="1247" y1="86.68" y2="86.68"/><text fill="#000000" font-family="sans-serif" font-size="14" lengthAdjust="spacing" textLength="103" x="1025" y="104.2152">-Repositories()</text><text fill="#000000" font-family="sans-serif" font-size="14" lengthAdjust="spacing" textLength="197" x="1025" y="120.7034">+getInstance() : Repositories</text><text fill="#000000" font-family="sans-serif" font-size="14" lengthAdjust="spacing" textLength="217" x="1025" y="137.1917">+getAuthenticationRepository()</text><text fill="#000000" font-family="sans-serif" font-size="14" lengthAdjust="spacing" textLength="182" x="1025" y="153.68">+getEmployeeRepository()</text><text fill="#000000" font-family="sans-serif" font-size="14" lengthAdjust="spacing" textLength="206" x="1025" y="170.1683">+getOrganizationRepository()</text></g><!--class AgendaController--><g id="elem_AgendaController"><rect codeLine="41" fill="#F1F1F1" height="146.9297" id="AgendaController" rx="2.5" ry="2.5" style="stroke:#181818;stroke-width:0.5;" width="479" x="428" y="38.43"/><ellipse cx="601.75" cy="54.43" fill="#ADD1B2" rx="11" ry="11" style="stroke:#181818;stroke-width:1.0;"/><path d="M604.2231,60.5731 Q603.6421,60.8719 603.0029,61.0213 Q602.3638,61.1707 601.6582,61.1707 Q599.1514,61.1707 597.8315,59.5189 Q596.5117,57.867 596.5117,54.7459 Q596.5117,51.6165 597.8315,49.9647 Q599.1514,48.3128 601.6582,48.3128 Q602.3638,48.3128 603.0112,48.4622 Q603.6587,48.6116 604.2231,48.9105 L604.2231,51.6331 Q603.5923,51.0521 602.9988,50.7823 Q602.4053,50.5125 601.7744,50.5125 Q600.4297,50.5125 599.7449,51.5792 Q599.0601,52.6458 599.0601,54.7459 Q599.0601,56.8377 599.7449,57.9044 Q600.4297,58.971 601.7744,58.971 Q602.4053,58.971 602.9988,58.7012 Q603.5923,58.4315 604.2231,57.8504 Z " fill="#000000"/><text fill="#000000" font-family="sans-serif" font-size="14" lengthAdjust="spacing" textLength="123" x="622.25" y="59.721">AgendaController</text><line style="stroke:#181818;stroke-width:0.5;" x1="429" x2="906" y1="70.43" y2="70.43"/><line style="stroke:#181818;stroke-width:0.5;" x1="429" x2="906" y1="78.43" y2="78.43"/><text fill="#000000" font-family="sans-serif" font-size="14" lengthAdjust="spacing" textLength="144" x="434" y="95.9652">+AgendaController()</text><text fill="#000000" font-family="sans-serif" font-size="14" lengthAdjust="spacing" textLength="162" x="434" y="112.4534">+getUserFromSession()</text><text fill="#000000" font-family="sans-serif" font-size="14" lengthAdjust="spacing" textLength="206" x="434" y="128.9417">+getOrganizationByID(userID)</text><text fill="#000000" font-family="sans-serif" font-size="14" lengthAdjust="spacing" textLength="229" x="434" y="145.43">+getGreenSpacesManagedByMe()</text><text fill="#000000" font-family="sans-serif" font-size="14" lengthAdjust="spacing" textLength="138" x="434" y="161.9183">+getPendingTasks()</text><text fill="#000000" font-family="sans-serif" font-size="14" lengthAdjust="spacing" textLength="467" x="434" y="178.4066">+addNewAgendaEntry(selectedTask, selectedGreenSpace, startDate)</text></g><!--class AgendaUI--><g id="elem_AgendaUI"><rect codeLine="50" fill="#F1F1F1" height="48" id="AgendaUI" rx="2.5" ry="2.5" style="stroke:#181818;stroke-width:0.5;" width="99" x="294" y="87.9"/><ellipse cx="309" cy="103.9" fill="#ADD1B2" rx="11" ry="11" style="stroke:#181818;stroke-width:1.0;"/><path d="M311.4731,110.0431 Q310.8921,110.3419 310.2529,110.4913 Q309.6138,110.6407 308.9082,110.6407 Q306.4014,110.6407 305.0815,108.9889 Q303.7617,107.337 303.7617,104.2159 Q303.7617,101.0865 305.0815,99.4347 Q306.4014,97.7828 308.9082,97.7828 Q309.6138,97.7828 310.2612,97.9322 Q310.9087,98.0816 311.4731,98.3805 L311.4731,101.1031 Q310.8423,100.5221 310.2488,100.2523 Q309.6553,99.9825 309.0244,99.9825 Q307.6797,99.9825 306.9949,101.0492 Q306.3101,102.1158 306.3101,104.2159 Q306.3101,106.3077 306.9949,107.3744 Q307.6797,108.441 309.0244,108.441 Q309.6553,108.441 310.2488,108.1712 Q310.8423,107.9015 311.4731,107.3204 Z " fill="#000000"/><text fill="#000000" font-family="sans-serif" font-size="14" lengthAdjust="spacing" textLength="67" x="323" y="109.191">AgendaUI</text><line style="stroke:#181818;stroke-width:0.5;" x1="295" x2="392" y1="119.9" y2="119.9"/><line style="stroke:#181818;stroke-width:0.5;" x1="295" x2="392" y1="127.9" y2="127.9"/></g><!--class GreenSpaces--><g id="elem_GreenSpaces"><rect codeLine="53" fill="#F1F1F1" height="64.4883" id="GreenSpaces" rx="2.5" ry="2.5" style="stroke:#181818;stroke-width:0.5;" width="241" x="878" y="603.54"/><ellipse cx="950.25" cy="619.54" fill="#ADD1B2" rx="11" ry="11" style="stroke:#181818;stroke-width:1.0;"/><path d="M952.7231,625.6831 Q952.1421,625.9819 951.5029,626.1313 Q950.8638,626.2807 950.1582,626.2807 Q947.6514,626.2807 946.3315,624.6289 Q945.0117,622.977 945.0117,619.8559 Q945.0117,616.7265 946.3315,615.0747 Q947.6514,613.4228 950.1582,613.4228 Q950.8638,613.4228 951.5112,613.5722 Q952.1587,613.7216 952.7231,614.0205 L952.7231,616.7431 Q952.0923,616.1621 951.4988,615.8923 Q950.9053,615.6225 950.2744,615.6225 Q948.9297,615.6225 948.2449,616.6892 Q947.5601,617.7558 947.5601,619.8559 Q947.5601,621.9477 948.2449,623.0144 Q948.9297,624.081 950.2744,624.081 Q950.9053,624.081 951.4988,623.8112 Q952.0923,623.5415 952.7231,622.9604 Z " fill="#000000"/><text fill="#000000" font-family="sans-serif" font-size="14" lengthAdjust="spacing" textLength="88" x="970.75" y="624.831">GreenSpaces</text><line style="stroke:#181818;stroke-width:0.5;" x1="879" x2="1118" y1="635.54" y2="635.54"/><line style="stroke:#181818;stroke-width:0.5;" x1="879" x2="1118" y1="643.54" y2="643.54"/><text fill="#000000" font-family="sans-serif" font-size="14" lengthAdjust="spacing" textLength="229" x="884" y="661.0752">+getGreenSpacesManagedByMe()</text></g><!--class Tasks--><g id="elem_Tasks"><rect codeLine="57" fill="#F1F1F1" height="80.9766" id="Tasks" rx="2.5" ry="2.5" style="stroke:#181818;stroke-width:0.5;" width="223" x="1154" y="595.29"/><ellipse cx="1241.75" cy="611.29" fill="#ADD1B2" rx="11" ry="11" style="stroke:#181818;stroke-width:1.0;"/><path d="M1244.2231,617.4331 Q1243.6421,617.7319 1243.0029,617.8813 Q1242.3638,618.0307 1241.6582,618.0307 Q1239.1514,618.0307 1237.8315,616.3789 Q1236.5117,614.727 1236.5117,611.6059 Q1236.5117,608.4765 1237.8315,606.8247 Q1239.1514,605.1728 1241.6582,605.1728 Q1242.3638,605.1728 1243.0112,605.3222 Q1243.6587,605.4716 1244.2231,605.7705 L1244.2231,608.4931 Q1243.5923,607.9121 1242.9988,607.6423 Q1242.4053,607.3725 1241.7744,607.3725 Q1240.4297,607.3725 1239.7449,608.4392 Q1239.0601,609.5058 1239.0601,611.6059 Q1239.0601,613.6977 1239.7449,614.7644 Q1240.4297,615.831 1241.7744,615.831 Q1242.4053,615.831 1242.9988,615.5612 Q1243.5923,615.2915 1244.2231,614.7104 Z " fill="#000000"/><text fill="#000000" font-family="sans-serif" font-size="14" lengthAdjust="spacing" textLength="39" x="1262.25" y="616.581">Tasks</text><line style="stroke:#181818;stroke-width:0.5;" x1="1155" x2="1376" y1="627.29" y2="627.29"/><line style="stroke:#181818;stroke-width:0.5;" x1="1155" x2="1376" y1="635.29" y2="635.29"/><text fill="#000000" font-family="sans-serif" font-size="14" lengthAdjust="spacing" textLength="138" x="1160" y="652.8252">+getPendingTasks()</text><text fill="#000000" font-family="sans-serif" font-size="14" lengthAdjust="spacing" textLength="211" x="1160" y="669.3134">+planTaskInAgenda(startDate)</text></g><g id="elem_GMN12"><path d="M6,91.59 L6,132.2111 L259,132.2111 L259,101.59 L249,91.59 L6,91.59 " fill="#FEFFDD" style="stroke:#181818;stroke-width:0.5;"/><path d="M249,91.59 L249,101.59 L259,101.59 L249,91.59 " fill="#FEFFDD" style="stroke:#181818;stroke-width:1.0;"/><text fill="#000000" font-family="sans-serif" font-size="13" lengthAdjust="spacing" textLength="232" x="12" y="109.1584">- userEmail and userRole is obtained</text><text fill="#000000" font-family="sans-serif" font-size="13" lengthAdjust="spacing" textLength="141" x="12" y="124.4689">from the user session.</text></g><!--link GMN12 to AgendaController--><g id="link_GMN12_AgendaController"><path d="M159.84,91.27 C190.58,69.48 242.9,36.51 294,23.43 C362.11,6 437.51,17.96 502.63,38.05 " fill="none" id="GMN12-AgendaController" style="stroke:#181818;stroke-width:1.0;stroke-dasharray:7.0,7.0;"/></g><!--link Repositories to Repositories--><g id="link_Repositories_Repositories"><path codeLine="67" d="M1248.21,93.55 C1268.69,95.93 1283,102.05 1283,111.9 C1283,121.75 1274.6496,127.1645 1254.1696,129.5545 " fill="none" id="Repositories-to-Repositories" style="stroke:#181818;stroke-width:1.0;"/><polygon fill="#181818" points="1248.21,130.25,1257.613,133.1798,1253.1763,129.6704,1256.6857,125.2337,1248.21,130.25" style="stroke:#181818;stroke-width:1.0;"/><text fill="#000000" font-family="sans-serif" font-size="13" lengthAdjust="spacing" textLength="53" x="1289" y="116.9684">instance</text></g><!--link AgendaUI to AgendaController--><g id="link_AgendaUI_AgendaController"><path codeLine="68" d="M393.49,111.9 C404.91,111.9 410.33,111.9 421.74,111.9 " fill="none" id="AgendaUI-to-AgendaController" style="stroke:#181818;stroke-width:1.0;stroke-dasharray:7.0,7.0;"/><polygon fill="#181818" points="427.74,111.9,418.74,107.9,422.74,111.9,418.74,115.9,427.74,111.9" style="stroke:#181818;stroke-width:1.0;"/></g><!--link AgendaController to Repositories--><g id="link_AgendaController_Repositories"><path codeLine="69" d="M907.33,111.9 C946.13,111.9 978.68,111.9 1012.67,111.9 " fill="none" id="AgendaController-to-Repositories" style="stroke:#181818;stroke-width:1.0;stroke-dasharray:7.0,7.0;"/><polygon fill="#181818" points="1018.67,111.9,1009.67,107.9,1013.67,111.9,1009.67,115.9,1018.67,111.9" style="stroke:#181818;stroke-width:1.0;"/><text fill="#000000" font-family="sans-serif" font-size="13" lengthAdjust="spacing" textLength="75" x="925.5" y="105.4684">repositories</text></g><!--link Repositories to AuthenticationRepository--><g id="link_Repositories_AuthenticationRepository"><path codeLine="70" d="M1035.41,177.52 C999.71,201.05 965.94,223.2886 936.5,242.6886 " fill="none" id="Repositories-to-AuthenticationRepository" style="stroke:#181818;stroke-width:1.0;"/><polygon fill="#181818" points="931.49,245.99,941.206,244.3778,935.665,243.2388,936.8041,237.6978,931.49,245.99" style="stroke:#181818;stroke-width:1.0;"/><text fill="#000000" font-family="sans-serif" font-size="13" lengthAdjust="spacing" textLength="8" x="932.1505" y="235.6915">1</text></g><!--link Repositories to EmployeeRepository--><g id="link_Repositories_EmployeeRepository"><path codeLine="71" d="M1133.5,177.52 C1133.5,201.14 1133.5,220.79 1133.5,240.21 " fill="none" id="Repositories-to-EmployeeRepository" style="stroke:#181818;stroke-width:1.0;"/><polygon fill="#181818" points="1133.5,246.21,1137.5,237.21,1133.5,241.21,1129.5,237.21,1133.5,246.21" style="stroke:#181818;stroke-width:1.0;"/><text fill="#000000" font-family="sans-serif" font-size="13" lengthAdjust="spacing" textLength="8" x="1124.675" y="235.5822">1</text></g><!--link Repositories to OrganizationRepository--><g id="link_Repositories_OrganizationRepository"><path codeLine="72" d="M1241.79,177.52 C1281.21,201.05 1318.8681,223.5147 1351.3681,242.9147 " fill="none" id="Repositories-to-OrganizationRepository" style="stroke:#181818;stroke-width:1.0;"/><polygon fill="#181818" points="1356.52,245.99,1350.8423,237.9424,1352.2267,243.4272,1346.7419,244.8117,1356.52,245.99" style="stroke:#181818;stroke-width:1.0;"/><text fill="#000000" font-family="sans-serif" font-size="13" lengthAdjust="spacing" textLength="8" x="1337.3021" y="235.6915">1</text></g><!--link EmployeeRepository to Employee--><g id="link_EmployeeRepository_Employee"><path codeLine="73" d="M1133.13,311.24 C1132.89,332.54 1132.6191,355.3804 1132.3191,381.4204 " fill="none" id="EmployeeRepository-to-Employee" style="stroke:#181818;stroke-width:1.0;"/><polygon fill="#181818" points="1132.25,387.42,1136.3534,378.4667,1132.3076,382.4203,1128.3539,378.3745,1132.25,387.42" style="stroke:#181818;stroke-width:1.0;"/><text fill="#000000" font-family="sans-serif" font-size="13" lengthAdjust="spacing" textLength="39" x="1134.5" y="354.4184">stores</text><text fill="#000000" font-family="sans-serif" font-size="13" lengthAdjust="spacing" textLength="8" x="1124.297" y="331.4889">1</text><text fill="#000000" font-family="sans-serif" font-size="13" lengthAdjust="spacing" textLength="6" x="1126.0039" y="377.0045">*</text></g><!--link OrganizationRepository to Organization--><g id="link_OrganizationRepository_Organization"><path codeLine="74" d="M1409.87,311.24 C1410.23,342.26 1410.7004,383.3004 1411.0604,414.3504 " fill="none" id="OrganizationRepository-to-Organization" style="stroke:#181818;stroke-width:1.0;"/><polygon fill="#181818" points="1411.13,420.35,1415.0254,411.3042,1411.072,415.3503,1407.0259,411.397,1411.13,420.35" style="stroke:#181818;stroke-width:1.0;"/><text fill="#000000" font-family="sans-serif" font-size="13" lengthAdjust="spacing" textLength="39" x="1411.5" y="354.4184">stores</text><text fill="#000000" font-family="sans-serif" font-size="13" lengthAdjust="spacing" textLength="8" x="1401.178" y="331.4889">1</text><text fill="#000000" font-family="sans-serif" font-size="13" lengthAdjust="spacing" textLength="6" x="1404.4665" y="410.0298">*</text></g><!--link Employee to GreenSpaces--><g id="link_Employee_GreenSpaces"><path codeLine="75" d="M1084.05,518.55 C1062.86,547.33 1042.4168,575.1179 1025.2368,598.4579 " fill="none" id="Employee-to-GreenSpaces" style="stroke:#181818;stroke-width:1.0;"/><polygon fill="#181818" points="1021.68,603.29,1030.2366,598.413,1024.644,599.2632,1023.7938,593.6706,1021.68,603.29" style="stroke:#181818;stroke-width:1.0;"/><text fill="#000000" font-family="sans-serif" font-size="13" lengthAdjust="spacing" textLength="56" x="1062.5" y="561.8584">manages</text><text fill="#000000" font-family="sans-serif" font-size="13" lengthAdjust="spacing" textLength="8" x="1017.6359" y="592.6416">1</text></g><!--link Employee to Tasks--><g id="link_Employee_Tasks"><path codeLine="76" d="M1179.31,518.55 C1198.18,543.99 1215.6869,567.5999 1232.2769,589.9799 " fill="none" id="Employee-to-Tasks" style="stroke:#181818;stroke-width:1.0;"/><polygon fill="#181818" points="1235.85,594.8,1233.7038,585.1878,1232.8724,590.7833,1227.277,589.9519,1235.85,594.8" style="stroke:#181818;stroke-width:1.0;"/><text fill="#000000" font-family="sans-serif" font-size="13" lengthAdjust="spacing" textLength="22" x="1212.5" y="561.8584">has</text><text fill="#000000" font-family="sans-serif" font-size="13" lengthAdjust="spacing" textLength="6" x="1224.6464" y="584.6669">*</text></g><!--SRC=[fLJBRjim4BppAuXSuZQDqLvz2E0aRgj3sY9kFc0ZhcN252cGL0EbwBztHLiKPKb5WFfYY3kpZ-5mBzr1wWeibBmqskHxQqhatjR8-aW5-G4AtFf68RUOUz25IW5k3yAyI5tm7IY7xB8FAQdHDnLoOxrX2ITNuDpQUokVQuzPRlHMlYB_o1WB8Rwk_HwrbpbuQVGZLiP9Rsp3VpDElojUeB-hhINCaqExHUS8jtZ7_dGPDcMbJ8EOChvOHBsbYT0zWAQfn6tpWCIAY1-e1Oto4zp1nVDAWMvFChqkA0uBXug4GD4UVk3EW_NtuB73Wn3VyEM8tMXlcqKBxAA_G4b1w75yrFlqt5tqjcb7p-uNTVXB-Dzj0Lg-1kqY4tJ0VmMNYNzJfikcYFdIaIlHdTZNWyDKxKoJTZgd6-2h0QY7p1aXJJEMAurEJvPQvNWJTuQkmYY5Davz7aZJjW9yfWVJMsz6gKIb_pNYs5XdJZnzzUa7xZmR-2cZGUDPqjARdamaXXPJoXlVqA0lRJnoXJlFpMua-yb5hOgR4gGYAulmzMXe9qd7pRC7MZKY07TqAPnC4n0aIRYU9QEKlAt2sC2YrpT3owwuF9cIHPMMD-EMHfvPZXBPrD33ebJrujF5x9QRHezjFesRDZoRM2ejEh3UzzcfSKT1Qdbc9QIamQA9n9YgwoZrregNmKVdCCfsTDAAxy6nlm00]--></g></svg>