<?xml version="1.0" encoding="us-ascii" standalone="no"?><svg xmlns="http://www.w3.org/2000/svg" xmlns:xlink="http://www.w3.org/1999/xlink" contentStyleType="text/css" height="551px" preserveAspectRatio="none" style="width:423px;height:551px;background:#FFFFFF;" version="1.1" viewBox="0 0 423 551" width="423px" zoomAndPan="magnify"><defs/><g><text fill="#000000" font-family="sans-serif" font-size="14" font-weight="bold" lengthAdjust="spacing" textLength="393" x="12.75" y="30.1074">US026 - As a GSM, I want to assign one or more vehicles</text><text fill="#000000" font-family="sans-serif" font-size="14" font-weight="bold" lengthAdjust="spacing" textLength="180" x="121.25" y="48.7285">to an entry in the Agenda.</text><text fill="#000000" font-family="sans-serif" font-size="14" font-weight="bold" lengthAdjust="spacing" textLength="228" x="95.25" y="67.3496">System Sequence Diagram (SSD)</text><rect fill="#FFFFFF" height="251.3281" style="stroke:#181818;stroke-width:1.0;" width="10" x="48.5" y="189.1055"/><rect fill="#FFFFFF" height="31.291" style="stroke:#181818;stroke-width:1.0;" width="10" x="377.5" y="212.3965"/><rect fill="#FFFFFF" height="31.291" style="stroke:#181818;stroke-width:1.0;" width="10" x="377.5" y="274.9785"/><rect fill="#FFFFFF" height="31.291" style="stroke:#181818;stroke-width:1.0;" width="10" x="377.5" y="337.5605"/><rect fill="#FFFFFF" height="31.291" style="stroke:#181818;stroke-width:1.0;" width="10" x="377.5" y="400.1426"/><line style="stroke:#181818;stroke-width:0.5;stroke-dasharray:5.0,5.0;" x1="53" x2="53" y1="179.1055" y2="449.4336"/><line style="stroke:#181818;stroke-width:0.5;stroke-dasharray:5.0,5.0;" x1="382.5" x2="382.5" y1="179.1055" y2="449.4336"/><text fill="#000000" font-family="sans-serif" font-size="14" lengthAdjust="spacing" textLength="91" x="5" y="156.9707">Green Spaces</text><text fill="#000000" font-family="sans-serif" font-size="14" lengthAdjust="spacing" textLength="56" x="24.5" y="175.5918">Manager</text><ellipse cx="53.5" cy="90.3633" fill="#E3E3E3" rx="8" ry="8" style="stroke:#181818;stroke-width:0.5;"/><path d="M53.5,98.3633 L53.5,125.3633 M40.5,106.3633 L66.5,106.3633 M53.5,125.3633 L40.5,140.3633 M53.5,125.3633 L66.5,140.3633 " fill="none" style="stroke:#181818;stroke-width:0.5;"/><text fill="#000000" font-family="sans-serif" font-size="14" lengthAdjust="spacing" textLength="91" x="5" y="463.541">Green Spaces</text><text fill="#000000" font-family="sans-serif" font-size="14" lengthAdjust="spacing" textLength="56" x="24.5" y="482.1621">Manager</text><ellipse cx="53.5" cy="494.1758" fill="#E3E3E3" rx="8" ry="8" style="stroke:#181818;stroke-width:0.5;"/><path d="M53.5,502.1758 L53.5,529.1758 M40.5,510.1758 L66.5,510.1758 M53.5,529.1758 L40.5,544.1758 M53.5,529.1758 L66.5,544.1758 " fill="none" style="stroke:#181818;stroke-width:0.5;"/><rect fill="#E3E3E3" height="32.6211" rx="2.5" ry="2.5" style="stroke:#181818;stroke-width:0.5;" width="64" x="350.5" y="145.4844"/><text fill="#000000" font-family="sans-serif" font-size="14" lengthAdjust="spacing" textLength="50" x="357.5" y="167.5918">:System</text><rect fill="#E3E3E3" height="32.6211" rx="2.5" ry="2.5" style="stroke:#181818;stroke-width:0.5;" width="64" x="350.5" y="448.4336"/><text fill="#000000" font-family="sans-serif" font-size="14" lengthAdjust="spacing" textLength="50" x="357.5" y="470.541">:System</text><rect fill="#FFFFFF" height="251.3281" style="stroke:#181818;stroke-width:1.0;" width="10" x="48.5" y="189.1055"/><rect fill="#FFFFFF" height="31.291" style="stroke:#181818;stroke-width:1.0;" width="10" x="377.5" y="212.3965"/><rect fill="#FFFFFF" height="31.291" style="stroke:#181818;stroke-width:1.0;" width="10" x="377.5" y="274.9785"/><rect fill="#FFFFFF" height="31.291" style="stroke:#181818;stroke-width:1.0;" width="10" x="377.5" y="337.5605"/><rect fill="#FFFFFF" height="31.291" style="stroke:#181818;stroke-width:1.0;" width="10" x="377.5" y="400.1426"/><polygon fill="#181818" points="365.5,208.3965,375.5,212.3965,365.5,216.3965,369.5,212.3965" style="stroke:#181818;stroke-width:1.0;"/><line style="stroke:#181818;stroke-width:1.0;" x1="58.5" x2="371.5" y1="212.3965" y2="212.3965"/><text fill="#000000" font-family="sans-serif" font-size="13" font-weight="bold" lengthAdjust="spacing" textLength="7" x="65.5" y="207.1338">1</text><text fill="#000000" font-family="sans-serif" font-size="13" lengthAdjust="spacing" textLength="289" x="76.5" y="207.1338">asks to assign vehicles to an entry in the Agenda.</text><polygon fill="#181818" points="69.5,239.6875,59.5,243.6875,69.5,247.6875,65.5,243.6875" style="stroke:#181818;stroke-width:1.0;"/><line style="stroke:#181818;stroke-width:1.0;stroke-dasharray:2.0,2.0;" x1="63.5" x2="381.5" y1="243.6875" y2="243.6875"/><text fill="#000000" font-family="sans-serif" font-size="13" font-weight="bold" lengthAdjust="spacing" textLength="7" x="75.5" y="238.4248">2</text><text fill="#000000" font-family="sans-serif" font-size="13" lengthAdjust="spacing" textLength="270" x="86.5" y="238.4248">List tasks in the Agenda and ask to select one</text><polygon fill="#181818" points="365.5,270.9785,375.5,274.9785,365.5,278.9785,369.5,274.9785" style="stroke:#181818;stroke-width:1.0;"/><line style="stroke:#181818;stroke-width:1.0;" x1="58.5" x2="371.5" y1="274.9785" y2="274.9785"/><text fill="#000000" font-family="sans-serif" font-size="13" font-weight="bold" lengthAdjust="spacing" textLength="7" x="65.5" y="269.7158">3</text><text fill="#000000" font-family="sans-serif" font-size="13" lengthAdjust="spacing" textLength="73" x="76.5" y="269.7158">Selects task</text><polygon fill="#181818" points="69.5,302.2695,59.5,306.2695,69.5,310.2695,65.5,306.2695" style="stroke:#181818;stroke-width:1.0;"/><line style="stroke:#181818;stroke-width:1.0;stroke-dasharray:2.0,2.0;" x1="63.5" x2="381.5" y1="306.2695" y2="306.2695"/><text fill="#000000" font-family="sans-serif" font-size="13" font-weight="bold" lengthAdjust="spacing" textLength="7" x="75.5" y="301.0068">4</text><text fill="#000000" font-family="sans-serif" font-size="13" lengthAdjust="spacing" textLength="263" x="86.5" y="301.0068">List all available vehicles that can be selected</text><polygon fill="#181818" points="365.5,333.5605,375.5,337.5605,365.5,341.5605,369.5,337.5605" style="stroke:#181818;stroke-width:1.0;"/><line style="stroke:#181818;stroke-width:1.0;" x1="58.5" x2="371.5" y1="337.5605" y2="337.5605"/><text fill="#000000" font-family="sans-serif" font-size="13" font-weight="bold" lengthAdjust="spacing" textLength="7" x="65.5" y="332.2979">5</text><text fill="#000000" font-family="sans-serif" font-size="13" lengthAdjust="spacing" textLength="94" x="76.5" y="332.2979">Selects vehicles</text><polygon fill="#181818" points="69.5,364.8516,59.5,368.8516,69.5,372.8516,65.5,368.8516" style="stroke:#181818;stroke-width:1.0;"/><line style="stroke:#181818;stroke-width:1.0;stroke-dasharray:2.0,2.0;" x1="63.5" x2="381.5" y1="368.8516" y2="368.8516"/><text fill="#000000" font-family="sans-serif" font-size="13" font-weight="bold" lengthAdjust="spacing" textLength="7" x="75.5" y="363.5889">6</text><text fill="#000000" font-family="sans-serif" font-size="13" lengthAdjust="spacing" textLength="207" x="86.5" y="363.5889">Show data and request confirmation</text><polygon fill="#181818" points="365.5,396.1426,375.5,400.1426,365.5,404.1426,369.5,400.1426" style="stroke:#181818;stroke-width:1.0;"/><line style="stroke:#181818;stroke-width:1.0;" x1="58.5" x2="371.5" y1="400.1426" y2="400.1426"/><text fill="#000000" font-family="sans-serif" font-size="13" font-weight="bold" lengthAdjust="spacing" textLength="7" x="65.5" y="394.8799">7</text><text fill="#000000" font-family="sans-serif" font-size="13" lengthAdjust="spacing" textLength="80" x="76.5" y="394.8799">Confirms data</text><polygon fill="#181818" points="69.5,427.4336,59.5,431.4336,69.5,435.4336,65.5,431.4336" style="stroke:#181818;stroke-width:1.0;"/><line style="stroke:#181818;stroke-width:1.0;stroke-dasharray:2.0,2.0;" x1="63.5" x2="381.5" y1="431.4336" y2="431.4336"/><text fill="#000000" font-family="sans-serif" font-size="13" font-weight="bold" lengthAdjust="spacing" textLength="7" x="75.5" y="426.1709">8</text><text fill="#000000" font-family="sans-serif" font-size="13" lengthAdjust="spacing" textLength="158" x="86.5" y="426.1709">displays operation success</text><!--SRC=[dP8_JmCn3CNt-nHM9v0eGWmC7P0GHGW9feYjYvjpxwBcd2FEjRflZo_zYoWWcYbHxFT-puai7RSOiO4cSB1r30r1YXqLihzfqIwn8fDwJn399kJA7nT8ZMLOEwvWWLweA99BMlfkRcxlO0mF0WZFvkqANc2Dd205G15NCGGc256z8y6AQcSzoOnp0GDnYZquFTO43nLnYTSpDhqaQi3GHqTi2QOEgm7YmfZfPL5Wbm9tpPoYxcrIyT5p968m6YEBlo5hcZXI1dXgMXzweaA396TTE-2D9XkFNB7PPYstmaI7bW9qxKumlj-MmaJRbd8KSXVibrXPQs-nyuJjsWgFrMFlDu5N9phAxFL5J3tA0M6m4_BwNiEOirX99prEXZ2vLRB3sNZeFU0AdSUvfwD1r9Z0wYpcj4Maycp0dUgUvv-WfWvhA35j1XU7VwNaDl32nGQJ2_nljCTDisJPlxb-PYkTj1vxWT1Ip2mWdTL_V4ZxdUiJ]--></g></svg>