<?xml version="1.0" encoding="us-ascii" standalone="no"?><svg xmlns="http://www.w3.org/2000/svg" xmlns:xlink="http://www.w3.org/1999/xlink" contentStyleType="text/css" height="432px" preserveAspectRatio="none" style="width:642px;height:432px;background:#FFFFFF;" version="1.1" viewBox="0 0 642 432" width="642px" zoomAndPan="magnify"><defs/><g><text fill="#000000" font-family="sans-serif" font-size="14" font-weight="bold" lengthAdjust="spacing" textLength="614" x="10" y="30.1074">US028 - As a Collaborator, I wish to consult the tasks assigned to me between two dates</text><text fill="#000000" font-family="sans-serif" font-size="14" font-weight="bold" lengthAdjust="spacing" textLength="228" x="203" y="48.7285">System Sequence Diagram (SSD)</text><rect fill="#FFFFFF" height="179.7461" style="stroke:#181818;stroke-width:1.0;" width="10" x="129.5" y="151.8633"/><rect fill="#FFFFFF" height="31.291" style="stroke:#181818;stroke-width:1.0;" width="10" x="505.5" y="175.1543"/><rect fill="#FFFFFF" height="31.291" style="stroke:#181818;stroke-width:1.0;" width="10" x="505.5" y="237.7363"/><rect fill="#FFFFFF" height="31.291" style="stroke:#181818;stroke-width:1.0;" width="10" x="505.5" y="300.3184"/><line style="stroke:#181818;stroke-width:0.5;stroke-dasharray:5.0,5.0;" x1="134.5" x2="134.5" y1="141.8633" y2="349.6094"/><line style="stroke:#181818;stroke-width:0.5;stroke-dasharray:5.0,5.0;" x1="510.5" x2="510.5" y1="141.8633" y2="349.6094"/><text fill="#000000" font-family="sans-serif" font-size="14" lengthAdjust="spacing" textLength="78" x="92.5" y="138.3496">Collaborator</text><ellipse cx="134.5" cy="71.7422" fill="#E3E3E3" rx="8" ry="8" style="stroke:#181818;stroke-width:0.5;"/><path d="M134.5,79.7422 L134.5,106.7422 M121.5,87.7422 L147.5,87.7422 M134.5,106.7422 L121.5,121.7422 M134.5,106.7422 L147.5,121.7422 " fill="none" style="stroke:#181818;stroke-width:0.5;"/><text fill="#000000" font-family="sans-serif" font-size="14" lengthAdjust="spacing" textLength="78" x="92.5" y="363.7168">Collaborator</text><ellipse cx="134.5" cy="375.7305" fill="#E3E3E3" rx="8" ry="8" style="stroke:#181818;stroke-width:0.5;"/><path d="M134.5,383.7305 L134.5,410.7305 M121.5,391.7305 L147.5,391.7305 M134.5,410.7305 L121.5,425.7305 M134.5,410.7305 L147.5,425.7305 " fill="none" style="stroke:#181818;stroke-width:0.5;"/><rect fill="#E3E3E3" height="32.6211" rx="2.5" ry="2.5" style="stroke:#181818;stroke-width:0.5;" width="64" x="478.5" y="108.2422"/><text fill="#000000" font-family="sans-serif" font-size="14" lengthAdjust="spacing" textLength="50" x="485.5" y="130.3496">:System</text><rect fill="#E3E3E3" height="32.6211" rx="2.5" ry="2.5" style="stroke:#181818;stroke-width:0.5;" width="64" x="478.5" y="348.6094"/><text fill="#000000" font-family="sans-serif" font-size="14" lengthAdjust="spacing" textLength="50" x="485.5" y="370.7168">:System</text><rect fill="#FFFFFF" height="179.7461" style="stroke:#181818;stroke-width:1.0;" width="10" x="129.5" y="151.8633"/><rect fill="#FFFFFF" height="31.291" style="stroke:#181818;stroke-width:1.0;" width="10" x="505.5" y="175.1543"/><rect fill="#FFFFFF" height="31.291" style="stroke:#181818;stroke-width:1.0;" width="10" x="505.5" y="237.7363"/><rect fill="#FFFFFF" height="31.291" style="stroke:#181818;stroke-width:1.0;" width="10" x="505.5" y="300.3184"/><polygon fill="#181818" points="493.5,171.1543,503.5,175.1543,493.5,179.1543,497.5,175.1543" style="stroke:#181818;stroke-width:1.0;"/><line style="stroke:#181818;stroke-width:1.0;" x1="139.5" x2="499.5" y1="175.1543" y2="175.1543"/><text fill="#000000" font-family="sans-serif" font-size="13" font-weight="bold" lengthAdjust="spacing" textLength="7" x="146.5" y="169.8916">1</text><text fill="#000000" font-family="sans-serif" font-size="13" lengthAdjust="spacing" textLength="241" x="157.5" y="169.8916">requests to view tasks between two dates</text><polygon fill="#181818" points="150.5,202.4453,140.5,206.4453,150.5,210.4453,146.5,206.4453" style="stroke:#181818;stroke-width:1.0;"/><line style="stroke:#181818;stroke-width:1.0;stroke-dasharray:2.0,2.0;" x1="144.5" x2="509.5" y1="206.4453" y2="206.4453"/><text fill="#000000" font-family="sans-serif" font-size="13" font-weight="bold" lengthAdjust="spacing" textLength="7" x="156.5" y="201.1826">2</text><text fill="#000000" font-family="sans-serif" font-size="13" lengthAdjust="spacing" textLength="300" x="167.5" y="201.1826">requests email, start date, end date and task status</text><polygon fill="#181818" points="493.5,233.7363,503.5,237.7363,493.5,241.7363,497.5,237.7363" style="stroke:#181818;stroke-width:1.0;"/><line style="stroke:#181818;stroke-width:1.0;" x1="139.5" x2="499.5" y1="237.7363" y2="237.7363"/><text fill="#000000" font-family="sans-serif" font-size="13" font-weight="bold" lengthAdjust="spacing" textLength="7" x="146.5" y="232.4736">3</text><text fill="#000000" font-family="sans-serif" font-size="13" lengthAdjust="spacing" textLength="297" x="157.5" y="232.4736">provides email, start date, end date and task status</text><polygon fill="#181818" points="150.5,265.0273,140.5,269.0273,150.5,273.0273,146.5,269.0273" style="stroke:#181818;stroke-width:1.0;"/><line style="stroke:#181818;stroke-width:1.0;stroke-dasharray:2.0,2.0;" x1="144.5" x2="509.5" y1="269.0273" y2="269.0273"/><text fill="#000000" font-family="sans-serif" font-size="13" font-weight="bold" lengthAdjust="spacing" textLength="7" x="156.5" y="263.7646">4</text><text fill="#000000" font-family="sans-serif" font-size="13" lengthAdjust="spacing" textLength="287" x="167.5" y="263.7646">shows email, start date, end date and task status</text><polygon fill="#181818" points="493.5,296.3184,503.5,300.3184,493.5,304.3184,497.5,300.3184" style="stroke:#181818;stroke-width:1.0;"/><line style="stroke:#181818;stroke-width:1.0;" x1="139.5" x2="499.5" y1="300.3184" y2="300.3184"/><text fill="#000000" font-family="sans-serif" font-size="13" font-weight="bold" lengthAdjust="spacing" textLength="7" x="146.5" y="295.0557">5</text><text fill="#000000" font-family="sans-serif" font-size="13" lengthAdjust="spacing" textLength="329" x="157.5" y="295.0557">confirm data (email, start date, end date and task status)</text><polygon fill="#181818" points="145.5,327.6094,135.5,331.6094,145.5,335.6094,141.5,331.6094" style="stroke:#181818;stroke-width:1.0;"/><line style="stroke:#181818;stroke-width:1.0;stroke-dasharray:2.0,2.0;" x1="139.5" x2="509.5" y1="331.6094" y2="331.6094"/><text fill="#000000" font-family="sans-serif" font-size="13" font-weight="bold" lengthAdjust="spacing" textLength="7" x="151.5" y="326.3467">6</text><text fill="#000000" font-family="sans-serif" font-size="13" lengthAdjust="spacing" textLength="331" x="162.5" y="326.3467">displays list of tasks sorted by date and filtered by status</text><!--SRC=[jP8zRuD038PtVeMLAP4IgUfKPQXKDKjdrAsB0GEd77VqR8BuzpKVJK5fKcNeJTQTUHy_o7mqhiQ05LJU-RGClYAGq534vvSQqoCM54jd2GAbWgwmymOkCVEjSGNaQ9cYI8newtlyyFW4EtXXG7ZrrcBY0ueFMtY3rd09uY7rZXih8ALoaO_QosmAHrd_giCa92sH0sazP2Z47oxkMAY2c3uRSYd1mM3Hpx6EuyCcYh0HxvegeQ1rgZnOpUah9Ip6YTH2J6fgT0Ah_PW-T8tba69Eobv-5e6U-GtidgTFOAy_IgTZuLxZPAYTx2vqXfGpu9i8qvdYTfgy8CtogK9Zjy2Y5aFa5iXbGmMeHS_jNwKPMHdzIhigKWT_CXdT3xh0dArkQ77fs_ztqgtBJQZwG8Jr7RJD7sRNnJB3jSMEmHeMyFcq3-o3wAudtGykDrOeZ9Ut7MTNoyty0W00]--></g></svg>