<?xml version="1.0" encoding="us-ascii" standalone="no"?><svg xmlns="http://www.w3.org/2000/svg" xmlns:xlink="http://www.w3.org/1999/xlink" contentStyleType="text/css" height="532px" preserveAspectRatio="none" style="width:517px;height:532px;background:#FFFFFF;" version="1.1" viewBox="0 0 517 532" width="517px" zoomAndPan="magnify"><defs/><g><text fill="#000000" font-family="sans-serif" font-size="14" font-weight="bold" lengthAdjust="spacing" textLength="489" x="10" y="30.1074">US04 - As an HRM, I want to assign one or more skills to a collaborator</text><text fill="#000000" font-family="sans-serif" font-size="14" font-weight="bold" lengthAdjust="spacing" textLength="228" x="140.5" y="48.7285">System Sequence Diagram (SSD)</text><rect fill="#FFFFFF" height="251.3281" style="stroke:#181818;stroke-width:1.0;" width="10" x="129.5" y="170.4844"/><rect fill="#FFFFFF" height="31.291" style="stroke:#181818;stroke-width:1.0;" width="10" x="429.5" y="193.7754"/><rect fill="#FFFFFF" height="31.291" style="stroke:#181818;stroke-width:1.0;" width="10" x="429.5" y="256.3574"/><rect fill="#FFFFFF" height="31.291" style="stroke:#181818;stroke-width:1.0;" width="10" x="429.5" y="318.9395"/><rect fill="#FFFFFF" height="31.291" style="stroke:#181818;stroke-width:1.0;" width="10" x="429.5" y="381.5215"/><line style="stroke:#181818;stroke-width:0.5;stroke-dasharray:5.0,5.0;" x1="134.5" x2="134.5" y1="160.4844" y2="430.8125"/><line style="stroke:#181818;stroke-width:0.5;stroke-dasharray:5.0,5.0;" x1="434.5" x2="434.5" y1="160.4844" y2="430.8125"/><text fill="#000000" font-family="sans-serif" font-size="14" lengthAdjust="spacing" textLength="176" x="43.5" y="138.3496">Human Resources Manager</text><text fill="#000000" font-family="sans-serif" font-size="14" lengthAdjust="spacing" textLength="40" x="111.5" y="156.9707">(HRM)</text><ellipse cx="134.5" cy="71.7422" fill="#E3E3E3" rx="8" ry="8" style="stroke:#181818;stroke-width:0.5;"/><path d="M134.5,79.7422 L134.5,106.7422 M121.5,87.7422 L147.5,87.7422 M134.5,106.7422 L121.5,121.7422 M134.5,106.7422 L147.5,121.7422 " fill="none" style="stroke:#181818;stroke-width:0.5;"/><text fill="#000000" font-family="sans-serif" font-size="14" lengthAdjust="spacing" textLength="176" x="43.5" y="444.9199">Human Resources Manager</text><text fill="#000000" font-family="sans-serif" font-size="14" lengthAdjust="spacing" textLength="40" x="111.5" y="463.541">(HRM)</text><ellipse cx="134.5" cy="475.5547" fill="#E3E3E3" rx="8" ry="8" style="stroke:#181818;stroke-width:0.5;"/><path d="M134.5,483.5547 L134.5,510.5547 M121.5,491.5547 L147.5,491.5547 M134.5,510.5547 L121.5,525.5547 M134.5,510.5547 L147.5,525.5547 " fill="none" style="stroke:#181818;stroke-width:0.5;"/><rect fill="#E3E3E3" height="32.6211" rx="2.5" ry="2.5" style="stroke:#181818;stroke-width:0.5;" width="64" x="402.5" y="126.8633"/><text fill="#000000" font-family="sans-serif" font-size="14" lengthAdjust="spacing" textLength="50" x="409.5" y="148.9707">:System</text><rect fill="#E3E3E3" height="32.6211" rx="2.5" ry="2.5" style="stroke:#181818;stroke-width:0.5;" width="64" x="402.5" y="429.8125"/><text fill="#000000" font-family="sans-serif" font-size="14" lengthAdjust="spacing" textLength="50" x="409.5" y="451.9199">:System</text><rect fill="#FFFFFF" height="251.3281" style="stroke:#181818;stroke-width:1.0;" width="10" x="129.5" y="170.4844"/><rect fill="#FFFFFF" height="31.291" style="stroke:#181818;stroke-width:1.0;" width="10" x="429.5" y="193.7754"/><rect fill="#FFFFFF" height="31.291" style="stroke:#181818;stroke-width:1.0;" width="10" x="429.5" y="256.3574"/><rect fill="#FFFFFF" height="31.291" style="stroke:#181818;stroke-width:1.0;" width="10" x="429.5" y="318.9395"/><rect fill="#FFFFFF" height="31.291" style="stroke:#181818;stroke-width:1.0;" width="10" x="429.5" y="381.5215"/><polygon fill="#181818" points="417.5,189.7754,427.5,193.7754,417.5,197.7754,421.5,193.7754" style="stroke:#181818;stroke-width:1.0;"/><line style="stroke:#181818;stroke-width:1.0;" x1="139.5" x2="423.5" y1="193.7754" y2="193.7754"/><text fill="#000000" font-family="sans-serif" font-size="13" font-weight="bold" lengthAdjust="spacing" textLength="7" x="146.5" y="188.5127">1</text><text fill="#000000" font-family="sans-serif" font-size="13" lengthAdjust="spacing" textLength="170" x="157.5" y="188.5127">list for a collaborator available</text><polygon fill="#181818" points="150.5,221.0664,140.5,225.0664,150.5,229.0664,146.5,225.0664" style="stroke:#181818;stroke-width:1.0;"/><line style="stroke:#181818;stroke-width:1.0;stroke-dasharray:2.0,2.0;" x1="144.5" x2="433.5" y1="225.0664" y2="225.0664"/><text fill="#000000" font-family="sans-serif" font-size="13" font-weight="bold" lengthAdjust="spacing" textLength="7" x="156.5" y="219.8037">2</text><text fill="#000000" font-family="sans-serif" font-size="13" lengthAdjust="spacing" textLength="150" x="167.5" y="219.8037">shows list of collaborators</text><polygon fill="#181818" points="417.5,252.3574,427.5,256.3574,417.5,260.3574,421.5,256.3574" style="stroke:#181818;stroke-width:1.0;"/><line style="stroke:#181818;stroke-width:1.0;" x1="139.5" x2="423.5" y1="256.3574" y2="256.3574"/><text fill="#000000" font-family="sans-serif" font-size="13" font-weight="bold" lengthAdjust="spacing" textLength="7" x="146.5" y="251.0947">3</text><text fill="#000000" font-family="sans-serif" font-size="13" lengthAdjust="spacing" textLength="113" x="157.5" y="251.0947">choose collaborator</text><polygon fill="#181818" points="150.5,283.6484,140.5,287.6484,150.5,291.6484,146.5,287.6484" style="stroke:#181818;stroke-width:1.0;"/><line style="stroke:#181818;stroke-width:1.0;stroke-dasharray:2.0,2.0;" x1="144.5" x2="433.5" y1="287.6484" y2="287.6484"/><text fill="#000000" font-family="sans-serif" font-size="13" font-weight="bold" lengthAdjust="spacing" textLength="7" x="156.5" y="282.3857">4</text><text fill="#000000" font-family="sans-serif" font-size="13" lengthAdjust="spacing" textLength="255" x="167.5" y="282.3857">shows skills list, asks to select one or more</text><polygon fill="#181818" points="417.5,314.9395,427.5,318.9395,417.5,322.9395,421.5,318.9395" style="stroke:#181818;stroke-width:1.0;"/><line style="stroke:#181818;stroke-width:1.0;" x1="139.5" x2="423.5" y1="318.9395" y2="318.9395"/><text fill="#000000" font-family="sans-serif" font-size="13" font-weight="bold" lengthAdjust="spacing" textLength="7" x="146.5" y="313.6768">5</text><text fill="#000000" font-family="sans-serif" font-size="13" lengthAdjust="spacing" textLength="149" x="157.5" y="313.6768">selects one or more skills</text><polygon fill="#181818" points="150.5,346.2305,140.5,350.2305,150.5,354.2305,146.5,350.2305" style="stroke:#181818;stroke-width:1.0;"/><line style="stroke:#181818;stroke-width:1.0;stroke-dasharray:2.0,2.0;" x1="144.5" x2="433.5" y1="350.2305" y2="350.2305"/><text fill="#000000" font-family="sans-serif" font-size="13" font-weight="bold" lengthAdjust="spacing" textLength="7" x="156.5" y="344.9678">6</text><text fill="#000000" font-family="sans-serif" font-size="13" lengthAdjust="spacing" textLength="236" x="167.5" y="344.9678">shows all data and requests confirmation</text><polygon fill="#181818" points="417.5,377.5215,427.5,381.5215,417.5,385.5215,421.5,381.5215" style="stroke:#181818;stroke-width:1.0;"/><line style="stroke:#181818;stroke-width:1.0;" x1="139.5" x2="423.5" y1="381.5215" y2="381.5215"/><text fill="#000000" font-family="sans-serif" font-size="13" font-weight="bold" lengthAdjust="spacing" textLength="7" x="146.5" y="376.2588">7</text><text fill="#000000" font-family="sans-serif" font-size="13" lengthAdjust="spacing" textLength="228" x="157.5" y="376.2588">confirms collaborator and skill assigned</text><polygon fill="#181818" points="150.5,408.8125,140.5,412.8125,150.5,416.8125,146.5,412.8125" style="stroke:#181818;stroke-width:1.0;"/><line style="stroke:#181818;stroke-width:1.0;stroke-dasharray:2.0,2.0;" x1="144.5" x2="433.5" y1="412.8125" y2="412.8125"/><text fill="#000000" font-family="sans-serif" font-size="13" font-weight="bold" lengthAdjust="spacing" textLength="7" x="156.5" y="407.5498">8</text><text fill="#000000" font-family="sans-serif" font-size="13" lengthAdjust="spacing" textLength="158" x="167.5" y="407.5498">displays operation success</text><!--SRC=[dP8zRm8n38Rt-nKM4qWWTUZ4KAaIbTg1XLEtBYRdEoAI-1hdGFVlw_k0GaK7o9GezlE-_f2z3JL6zE0viDb5zWGfDfJ9-QT6iyUAyjGwWaWcOQZSPO3iiE2Z3HMKw8IoBDcaeP_vqpCiu5K00xnlrdFuW2E618a1HMmLW0C1HzME1CfpJlfFCEmSRZbYulWLybOIUSZfkw5W25OMgqvtckUhMPPXapWqVajHxqOpOFBUUDNSa70J3GciCMW5YfggZzb4vU7DruvReanhIDROkdCsMGvQVSHmxPdsW8b-KpBGSth1ucKCXIKuAmbAjN1T0-01hRwqRLtgcNYIWF6Cd8KYp_YbzfUFCg2vlE9AdrdGJU1DWsR7B7G5UTpIEBBEsLmxjk-d9-HqHov7UxV90I4trkDnh-WS59XGbx7GBTPL4bKm74eRFIRBuVvU3idoPzJAxysEIqx58wOBAxN3LdjGK-pjWJH6T_c_aVy0]--></g></svg>