<?xml version="1.0" encoding="us-ascii" standalone="no"?><svg xmlns="http://www.w3.org/2000/svg" xmlns:xlink="http://www.w3.org/1999/xlink" contentStyleType="text/css" height="440px" preserveAspectRatio="none" style="width:493px;height:440px;background:#FFFFFF;" version="1.1" viewBox="0 0 493 440" width="493px" zoomAndPan="magnify"><defs/><g><text fill="#000000" font-family="sans-serif" font-size="14" font-weight="bold" lengthAdjust="spacing" textLength="284" x="103.75" y="29.5332">US007 - System Sequence Diagram (SSD)</text><rect fill="#FFFFFF" height="183.1094" style="stroke:#181818;stroke-width:1.0;" width="10" x="75.5" y="148.8281"/><rect fill="#FFFFFF" height="30.3516" style="stroke:#181818;stroke-width:1.0;" width="10" x="450.5" y="171.1797"/><rect fill="#FFFFFF" height="30.3516" style="stroke:#181818;stroke-width:1.0;" width="10" x="450.5" y="231.8828"/><rect fill="#FFFFFF" height="30.3516" style="stroke:#181818;stroke-width:1.0;" width="10" x="450.5" y="292.5859"/><line style="stroke:#181818;stroke-width:0.5;stroke-dasharray:5.0,5.0;" x1="80" x2="80" y1="138.8281" y2="340.9375"/><line style="stroke:#181818;stroke-width:0.5;stroke-dasharray:5.0,5.0;" x1="455.5" x2="455.5" y1="138.8281" y2="340.9375"/><text fill="#000000" font-family="sans-serif" font-size="14" lengthAdjust="spacing" textLength="145" x="5" y="118.1426">Vehicle and Equipment</text><text fill="#000000" font-family="sans-serif" font-size="14" lengthAdjust="spacing" textLength="135" x="10" y="135.752">Fleet Manager (VFM)</text><ellipse cx="80.5" cy="52.1094" fill="#E2E2F0" rx="8" ry="8" style="stroke:#181818;stroke-width:0.5;"/><path d="M80.5,60.1094 L80.5,87.1094 M67.5,68.1094 L93.5,68.1094 M80.5,87.1094 L67.5,102.1094 M80.5,87.1094 L93.5,102.1094 " fill="none" style="stroke:#181818;stroke-width:0.5;"/><text fill="#000000" font-family="sans-serif" font-size="14" lengthAdjust="spacing" textLength="145" x="5" y="354.4707">Vehicle and Equipment</text><text fill="#000000" font-family="sans-serif" font-size="14" lengthAdjust="spacing" textLength="135" x="10" y="372.0801">Fleet Manager (VFM)</text><ellipse cx="80.5" cy="383.6563" fill="#E2E2F0" rx="8" ry="8" style="stroke:#181818;stroke-width:0.5;"/><path d="M80.5,391.6563 L80.5,418.6563 M67.5,399.6563 L93.5,399.6563 M80.5,418.6563 L67.5,433.6563 M80.5,418.6563 L93.5,433.6563 " fill="none" style="stroke:#181818;stroke-width:0.5;"/><rect fill="#E2E2F0" height="31.6094" rx="2.5" ry="2.5" style="stroke:#181818;stroke-width:0.5;" width="64" x="423.5" y="106.2188"/><text fill="#000000" font-family="sans-serif" font-size="14" lengthAdjust="spacing" textLength="50" x="430.5" y="127.752">:System</text><rect fill="#E2E2F0" height="31.6094" rx="2.5" ry="2.5" style="stroke:#181818;stroke-width:0.5;" width="64" x="423.5" y="339.9375"/><text fill="#000000" font-family="sans-serif" font-size="14" lengthAdjust="spacing" textLength="50" x="430.5" y="361.4707">:System</text><rect fill="#FFFFFF" height="183.1094" style="stroke:#181818;stroke-width:1.0;" width="10" x="75.5" y="148.8281"/><rect fill="#FFFFFF" height="30.3516" style="stroke:#181818;stroke-width:1.0;" width="10" x="450.5" y="171.1797"/><rect fill="#FFFFFF" height="30.3516" style="stroke:#181818;stroke-width:1.0;" width="10" x="450.5" y="231.8828"/><rect fill="#FFFFFF" height="30.3516" style="stroke:#181818;stroke-width:1.0;" width="10" x="450.5" y="292.5859"/><polygon fill="#181818" points="438.5,167.1797,448.5,171.1797,438.5,175.1797,442.5,171.1797" style="stroke:#181818;stroke-width:1.0;"/><line style="stroke:#181818;stroke-width:1.0;" x1="85.5" x2="444.5" y1="171.1797" y2="171.1797"/><text fill="#000000" font-family="sans-serif" font-size="13" font-weight="bold" lengthAdjust="spacing" textLength="7" x="92.5" y="166.3232">1</text><text fill="#000000" font-family="sans-serif" font-size="13" lengthAdjust="spacing" textLength="255" x="103.5" y="166.3232">asks to register a new vehicle for check's up</text><polygon fill="#181818" points="96.5,197.5313,86.5,201.5313,96.5,205.5313,92.5,201.5313" style="stroke:#181818;stroke-width:1.0;"/><line style="stroke:#181818;stroke-width:1.0;stroke-dasharray:2.0,2.0;" x1="90.5" x2="454.5" y1="201.5313" y2="201.5313"/><text fill="#000000" font-family="sans-serif" font-size="13" font-weight="bold" lengthAdjust="spacing" textLength="7" x="102.5" y="196.6748">2</text><text fill="#000000" font-family="sans-serif" font-size="13" lengthAdjust="spacing" textLength="330" x="113.5" y="196.6748">requests data (Vehicle ID, current km's, Check's up date)</text><polygon fill="#181818" points="438.5,227.8828,448.5,231.8828,438.5,235.8828,442.5,231.8828" style="stroke:#181818;stroke-width:1.0;"/><line style="stroke:#181818;stroke-width:1.0;" x1="85.5" x2="444.5" y1="231.8828" y2="231.8828"/><text fill="#000000" font-family="sans-serif" font-size="13" font-weight="bold" lengthAdjust="spacing" textLength="7" x="92.5" y="227.0264">3</text><text fill="#000000" font-family="sans-serif" font-size="13" lengthAdjust="spacing" textLength="125" x="103.5" y="227.0264">Types requested data</text><polygon fill="#181818" points="96.5,258.2344,86.5,262.2344,96.5,266.2344,92.5,262.2344" style="stroke:#181818;stroke-width:1.0;"/><line style="stroke:#181818;stroke-width:1.0;stroke-dasharray:2.0,2.0;" x1="90.5" x2="454.5" y1="262.2344" y2="262.2344"/><text fill="#000000" font-family="sans-serif" font-size="13" font-weight="bold" lengthAdjust="spacing" textLength="7" x="102.5" y="257.3779">4</text><text fill="#000000" font-family="sans-serif" font-size="13" lengthAdjust="spacing" textLength="221" x="113.5" y="257.3779">Shows data and requests confirmation</text><polygon fill="#181818" points="438.5,288.5859,448.5,292.5859,438.5,296.5859,442.5,292.5859" style="stroke:#181818;stroke-width:1.0;"/><line style="stroke:#181818;stroke-width:1.0;" x1="85.5" x2="444.5" y1="292.5859" y2="292.5859"/><text fill="#000000" font-family="sans-serif" font-size="13" font-weight="bold" lengthAdjust="spacing" textLength="7" x="92.5" y="287.7295">5</text><text fill="#000000" font-family="sans-serif" font-size="13" lengthAdjust="spacing" textLength="80" x="103.5" y="287.7295">Confirms data</text><polygon fill="#181818" points="96.5,318.9375,86.5,322.9375,96.5,326.9375,92.5,322.9375" style="stroke:#181818;stroke-width:1.0;"/><line style="stroke:#181818;stroke-width:1.0;stroke-dasharray:2.0,2.0;" x1="90.5" x2="454.5" y1="322.9375" y2="322.9375"/><text fill="#000000" font-family="sans-serif" font-size="13" font-weight="bold" lengthAdjust="spacing" textLength="7" x="102.5" y="318.0811">6</text><text fill="#000000" font-family="sans-serif" font-size="13" lengthAdjust="spacing" textLength="158" x="113.5" y="318.0811">displays operation success</text><!--SRC=[dP0_Ry903CNtV0gB1P2An5Q9eGiKgGDJMgOkxiKaf-J-S7P0-VPrGa1LMrMYdgppyti_7zVMHqpem0KVJ9M28pXWmvJnRHJHr5XIBbr3aCW8-hBvAk0AYt2slXnNCx6YqhTykNo41UGT2pd8wTYIDmGRYsM_DilppJpBi9NWM_T1INiZ8S5aJvKrwe2-WETZQwCZB-z-sn09xD0hJOBPVhkRJm0PjCcKHAon4Rt0P7M978QNTh2s9nGQr1beQGEBfolUIiKrWmGziRJwb031qnbE8yn1oKn5ffuoj75mk7bUGs2iqNEXzdtAIZtrU1Q60WKLVVHysJo0QLFIyw1sKtw0zIsXbz9yi2perwJl1xnsaVWQHSMGTITdNeNp2Db__WtR17-moQ7OuEz1Mb_s-3yiXUNOOCSG8gKX6RWrXfZ_8lZv_0a0]--></g></svg>