<?xml version="1.0" encoding="UTF-8" standalone="no"?><svg xmlns="http://www.w3.org/2000/svg" xmlns:xlink="http://www.w3.org/1999/xlink" contentStyleType="text/css" height="458px" preserveAspectRatio="none" style="width:354px;height:458px;background:#FFFFFF;" version="1.1" viewBox="0 0 354 458" width="354px" zoomAndPan="magnify"><defs/><g><text fill="#000000" font-family="sans-serif" font-size="14" font-weight="bold" lengthAdjust="spacing" textLength="158" x="97" y="29.5332">US002 - Register a Job</text><text fill="#000000" font-family="sans-serif" font-size="14" font-weight="bold" lengthAdjust="spacing" textLength="228" x="62" y="47.1426">System Sequence Diagram (SSD)</text><rect fill="#FFFFFF" height="183.1094" style="stroke:#181818;stroke-width:1.0;" width="10" x="61" y="166.4375"/><rect fill="#FFFFFF" height="30.3516" style="stroke:#181818;stroke-width:1.0;" width="10" x="311" y="188.7891"/><rect fill="#FFFFFF" height="30.3516" style="stroke:#181818;stroke-width:1.0;" width="10" x="311" y="249.4922"/><rect fill="#FFFFFF" height="30.3516" style="stroke:#181818;stroke-width:1.0;" width="10" x="311" y="310.1953"/><line style="stroke:#181818;stroke-width:0.5;stroke-dasharray:5.0,5.0;" x1="66" x2="66" y1="156.4375" y2="358.5469"/><line style="stroke:#181818;stroke-width:0.5;stroke-dasharray:5.0,5.0;" x1="316" x2="316" y1="156.4375" y2="358.5469"/><text fill="#000000" font-family="sans-serif" font-size="14" lengthAdjust="spacing" textLength="116" x="5" y="135.752">Human Resources</text><text fill="#000000" font-family="sans-serif" font-size="14" lengthAdjust="spacing" textLength="56" x="37" y="153.3613">Manager</text><ellipse cx="66" cy="69.7188" fill="#E3E3E3" rx="8" ry="8" style="stroke:#181818;stroke-width:0.5;"/><path d="M66,77.7188 L66,104.7188 M53,85.7188 L79,85.7188 M66,104.7188 L53,119.7188 M66,104.7188 L79,119.7188 " fill="none" style="stroke:#181818;stroke-width:0.5;"/><text fill="#000000" font-family="sans-serif" font-size="14" lengthAdjust="spacing" textLength="116" x="5" y="372.0801">Human Resources</text><text fill="#000000" font-family="sans-serif" font-size="14" lengthAdjust="spacing" textLength="56" x="37" y="389.6895">Manager</text><ellipse cx="66" cy="401.2656" fill="#E3E3E3" rx="8" ry="8" style="stroke:#181818;stroke-width:0.5;"/><path d="M66,409.2656 L66,436.2656 M53,417.2656 L79,417.2656 M66,436.2656 L53,451.2656 M66,436.2656 L79,451.2656 " fill="none" style="stroke:#181818;stroke-width:0.5;"/><rect fill="#E3E3E3" height="31.6094" rx="2.5" ry="2.5" style="stroke:#181818;stroke-width:0.5;" width="64" x="284" y="123.8281"/><text fill="#000000" font-family="sans-serif" font-size="14" lengthAdjust="spacing" textLength="50" x="291" y="145.3613">:System</text><rect fill="#E3E3E3" height="31.6094" rx="2.5" ry="2.5" style="stroke:#181818;stroke-width:0.5;" width="64" x="284" y="357.5469"/><text fill="#000000" font-family="sans-serif" font-size="14" lengthAdjust="spacing" textLength="50" x="291" y="379.0801">:System</text><rect fill="#FFFFFF" height="183.1094" style="stroke:#181818;stroke-width:1.0;" width="10" x="61" y="166.4375"/><rect fill="#FFFFFF" height="30.3516" style="stroke:#181818;stroke-width:1.0;" width="10" x="311" y="188.7891"/><rect fill="#FFFFFF" height="30.3516" style="stroke:#181818;stroke-width:1.0;" width="10" x="311" y="249.4922"/><rect fill="#FFFFFF" height="30.3516" style="stroke:#181818;stroke-width:1.0;" width="10" x="311" y="310.1953"/><polygon fill="#181818" points="299,184.7891,309,188.7891,299,192.7891,303,188.7891" style="stroke:#181818;stroke-width:1.0;"/><line style="stroke:#181818;stroke-width:1.0;" x1="71" x2="305" y1="188.7891" y2="188.7891"/><text fill="#000000" font-family="sans-serif" font-size="13" font-weight="bold" lengthAdjust="spacing" textLength="7" x="78" y="183.9326">1</text><text fill="#000000" font-family="sans-serif" font-size="13" lengthAdjust="spacing" textLength="142" x="89" y="183.9326">asks to create a new job</text><polygon fill="#181818" points="82,215.1406,72,219.1406,82,223.1406,78,219.1406" style="stroke:#181818;stroke-width:1.0;"/><line style="stroke:#181818;stroke-width:1.0;stroke-dasharray:2.0,2.0;" x1="76" x2="315" y1="219.1406" y2="219.1406"/><text fill="#000000" font-family="sans-serif" font-size="13" font-weight="bold" lengthAdjust="spacing" textLength="7" x="88" y="214.2842">2</text><text fill="#000000" font-family="sans-serif" font-size="13" lengthAdjust="spacing" textLength="147" x="99" y="214.2842">requests data (Job name)</text><polygon fill="#181818" points="299,245.4922,309,249.4922,299,253.4922,303,249.4922" style="stroke:#181818;stroke-width:1.0;"/><line style="stroke:#181818;stroke-width:1.0;" x1="71" x2="305" y1="249.4922" y2="249.4922"/><text fill="#000000" font-family="sans-serif" font-size="13" font-weight="bold" lengthAdjust="spacing" textLength="7" x="78" y="244.6357">3</text><text fill="#000000" font-family="sans-serif" font-size="13" lengthAdjust="spacing" textLength="122" x="89" y="244.6357">types requested data</text><polygon fill="#181818" points="82,275.8438,72,279.8438,82,283.8438,78,279.8438" style="stroke:#181818;stroke-width:1.0;"/><line style="stroke:#181818;stroke-width:1.0;stroke-dasharray:2.0,2.0;" x1="76" x2="315" y1="279.8438" y2="279.8438"/><text fill="#000000" font-family="sans-serif" font-size="13" font-weight="bold" lengthAdjust="spacing" textLength="7" x="88" y="274.9873">4</text><text fill="#000000" font-family="sans-serif" font-size="13" lengthAdjust="spacing" textLength="205" x="99" y="274.9873">show data and request confirmation</text><polygon fill="#181818" points="299,306.1953,309,310.1953,299,314.1953,303,310.1953" style="stroke:#181818;stroke-width:1.0;"/><line style="stroke:#181818;stroke-width:1.0;" x1="71" x2="305" y1="310.1953" y2="310.1953"/><text fill="#000000" font-family="sans-serif" font-size="13" font-weight="bold" lengthAdjust="spacing" textLength="7" x="78" y="305.3389">5</text><text fill="#000000" font-family="sans-serif" font-size="13" lengthAdjust="spacing" textLength="78" x="89" y="305.3389">confirms data</text><polygon fill="#181818" points="82,336.5469,72,340.5469,82,344.5469,78,340.5469" style="stroke:#181818;stroke-width:1.0;"/><line style="stroke:#181818;stroke-width:1.0;stroke-dasharray:2.0,2.0;" x1="76" x2="315" y1="340.5469" y2="340.5469"/><text fill="#000000" font-family="sans-serif" font-size="13" font-weight="bold" lengthAdjust="spacing" textLength="7" x="88" y="335.6904">6</text><text fill="#000000" font-family="sans-serif" font-size="13" lengthAdjust="spacing" textLength="158" x="99" y="335.6904">displays operation success</text><!--SRC=[dP71JiCm38RlUGfhf-qmQUAu0wSX8IGkLDnsyLAl2sli4hjCVNkohksG64ZWKwpu__8bqMFW1XD6YCBY3qaYWQMMd4ux3VeZLbHOLnCayePSrLy7z82bd09NiCTQoJaBbaTVYzNg3fRmGbLGemG8JxBRSj7bBa91xosn9zW4hCwOUL5i5ivXQy9jt57AQs-IOFROHkJCKMcJ9zqoF2DdfJG3L7Y8JIqTaSis5dnea0rcwyin_SHbsUF21nfT8mvoZHqixuTHMEVOKS44VA9p0e7f16-ownCJQ2J3K4DycKaJTPqVBLzLJQ54GvZdLm36I8i-Lj9DsaqfwnhI4KTbp_kFa1xaT951BaSUUE5zI14j2FzPRGZhrUbNhv_Tog1DZPs2D9Hw5z3Mvs_NAVpTwnC0]--></g></svg>