<?xml version="1.0" encoding="us-ascii" standalone="no"?><svg xmlns="http://www.w3.org/2000/svg" xmlns:xlink="http://www.w3.org/1999/xlink" contentStyleType="text/css" height="453px" preserveAspectRatio="none" style="width:582px;height:453px;background:#FFFFFF;" version="1.1" viewBox="0 0 582 453" width="582px" zoomAndPan="magnify"><defs/><g><!--class Employee--><g id="elem_Employee"><rect codeLine="7" fill="#F1F1F1" height="35.6094" id="Employee" rx="2.5" ry="2.5" style="stroke:#181818;stroke-width:0.5;" width="68" x="86.3674" y="15.5"/><text fill="#000000" font-family="sans-serif" font-size="14" lengthAdjust="spacing" textLength="62" x="89.3674" y="35.0332">Employee</text><line style="stroke:#181818;stroke-width:0.5;" x1="87.3674" x2="153.3674" y1="43.1094" y2="43.1094"/></g><!--class TeamMember--><g id="elem_TeamMember"><rect codeLine="10" fill="#F1F1F1" height="70.8281" id="TeamMember" rx="2.5" ry="2.5" style="stroke:#181818;stroke-width:0.5;" width="93" x="271.8674" y="200"/><text fill="#000000" font-family="sans-serif" font-size="14" lengthAdjust="spacing" textLength="87" x="274.8674" y="219.5332">TeamMember</text><line style="stroke:#181818;stroke-width:0.5;" x1="272.8674" x2="363.8674" y1="227.6094" y2="227.6094"/><rect fill="none" height="6" style="stroke:#C82930;stroke-width:1.0;" width="6" x="279.8674" y="238.9141"/><text fill="#000000" font-family="sans-serif" font-size="14" lengthAdjust="spacing" textLength="35" x="291.8674" y="246.1426">name</text><rect fill="none" height="6" style="stroke:#C82930;stroke-width:1.0;" width="6" x="279.8674" y="256.5234"/><text fill="#000000" font-family="sans-serif" font-size="14" lengthAdjust="spacing" textLength="11" x="291.8674" y="263.752">id</text></g><!--class HRM--><g id="elem_HRM"><rect codeLine="15" fill="#F1F1F1" height="35.6094" id="HRM" rx="2.5" ry="2.5" style="stroke:#181818;stroke-width:0.5;" width="36" x="300.3674" y="411"/><text fill="#000000" font-family="sans-serif" font-size="14" lengthAdjust="spacing" textLength="30" x="303.3674" y="430.5332">HRM</text><line style="stroke:#181818;stroke-width:0.5;" x1="301.3674" x2="335.3674" y1="438.6094" y2="438.6094"/></g><!--class Skills--><g id="elem_Skills"><rect codeLine="18" fill="#F1F1F1" height="53.2188" id="Skills" rx="2.5" ry="2.5" style="stroke:#181818;stroke-width:0.5;" width="61" x="400.8674" y="7"/><text fill="#000000" font-family="sans-serif" font-size="14" lengthAdjust="spacing" textLength="32" x="415.3674" y="26.5332">Skills</text><line style="stroke:#181818;stroke-width:0.5;" x1="401.8674" x2="460.8674" y1="34.6094" y2="34.6094"/><rect fill="none" height="6" style="stroke:#C82930;stroke-width:1.0;" width="6" x="408.8674" y="45.9141"/><text fill="#000000" font-family="sans-serif" font-size="14" lengthAdjust="spacing" textLength="35" x="420.8674" y="53.1426">name</text></g><!--class Teams--><g id="elem_Teams"><rect codeLine="22" fill="#F1F1F1" height="70.8281" id="Teams" rx="2.5" ry="2.5" style="stroke:#181818;stroke-width:0.5;" width="111" x="84.8674" y="200"/><text fill="#000000" font-family="sans-serif" font-size="14" lengthAdjust="spacing" textLength="43" x="118.8674" y="219.5332">Teams</text><line style="stroke:#181818;stroke-width:0.5;" x1="85.8674" x2="194.8674" y1="227.6094" y2="227.6094"/><rect fill="none" height="6" style="stroke:#C82930;stroke-width:1.0;" width="6" x="92.8674" y="238.9141"/><text fill="#000000" font-family="sans-serif" font-size="14" lengthAdjust="spacing" textLength="85" x="104.8674" y="246.1426">numElements</text><rect fill="none" height="6" style="stroke:#C82930;stroke-width:1.0;" width="6" x="92.8674" y="256.5234"/><text fill="#000000" font-family="sans-serif" font-size="14" lengthAdjust="spacing" textLength="79" x="104.8674" y="263.752">skillsNeeded</text></g><!--link Employee to TeamMember--><g id="link_Employee_TeamMember"><path codeLine="27" d="M137.3574,51.59 C162.4174,76.8 206.3674,121 206.3674,121 C206.3674,121 251.2174,166.45 284.1574,199.83 " fill="none" id="Employee-TeamMember" style="stroke:#181818;stroke-width:1.0;"/><polygon fill="#000000" points="224.8492,126.623,229.1255,135.118,233.302,130.982,224.8492,126.623" style="stroke:#000000;stroke-width:1.0;"/><text fill="#000000" font-family="sans-serif" font-size="13" lengthAdjust="spacing" textLength="21" x="237.3674" y="135.4951">is a</text><text fill="#000000" font-family="sans-serif" font-size="13" lengthAdjust="spacing" textLength="7" x="134.1515" y="72.5273">1</text><text fill="#000000" font-family="sans-serif" font-size="13" lengthAdjust="spacing" textLength="7" x="269.9689" y="189.0504">1</text></g><!--link Employee to Teams--><g id="link_Employee_Teams"><path codeLine="28" d="M122.0774,51.55 C125.3474,84.33 132.5874,156.71 136.9174,199.96 " fill="none" id="Employee-Teams" style="stroke:#181818;stroke-width:1.0;"/><polygon fill="#000000" points="135.8649,135.151,137.8893,125.8584,132.0406,126.4432,135.8649,135.151" style="stroke:#000000;stroke-width:1.0;"/><text fill="#000000" font-family="sans-serif" font-size="13" lengthAdjust="spacing" textLength="53" x="144.3674" y="135.4951">manages</text><text fill="#000000" font-family="sans-serif" font-size="13" lengthAdjust="spacing" textLength="7" x="114.574" y="72.476">1</text><text fill="#000000" font-family="sans-serif" font-size="13" lengthAdjust="spacing" textLength="20" x="114.3535" y="189.2052">0..*</text></g><!--link TeamMember to HRM--><g id="link_TeamMember_HRM"><path codeLine="30" d="M318.3674,271.18 C318.3674,312.35 318.3674,379.38 318.3674,410.77 " fill="none" id="TeamMember-HRM" style="stroke:#181818;stroke-width:1.0;"/><polygon fill="#000000" points="323.3674,346.1758,326.3063,337.1307,320.4285,337.1307,323.3674,346.1758" style="stroke:#000000;stroke-width:1.0;"/><text fill="#000000" font-family="sans-serif" font-size="13" lengthAdjust="spacing" textLength="71" x="332.3674" y="346.4951">managed by</text><text fill="#000000" font-family="sans-serif" font-size="13" lengthAdjust="spacing" textLength="20" x="296.6487" y="292.2276">1..*</text><text fill="#000000" font-family="sans-serif" font-size="13" lengthAdjust="spacing" textLength="7" x="310.2518" y="400.0226">1</text></g><!--link Skills to HRM--><g id="link_Skills_HRM"><path codeLine="32" d="M449.9474,60.32 C470.0774,88.3 499.3674,129 499.3674,129 C499.3674,129 499.3674,129 499.3674,342 C499.3674,342 382.1674,397.69 336.3874,419.44 " fill="none" id="Skills-HRM" style="stroke:#181818;stroke-width:1.0;"/><polygon fill="#000000" points="502.8599,240.4431,508.3892,232.705,502.7848,230.9328,502.8599,240.4431" style="stroke:#000000;stroke-width:1.0;"/><text fill="#000000" font-family="sans-serif" font-size="13" lengthAdjust="spacing" textLength="61" x="513.3674" y="240.9951">created by</text><text fill="#000000" font-family="sans-serif" font-size="13" lengthAdjust="spacing" textLength="20" x="431.9315" y="81.8826">1..*</text><text fill="#000000" font-family="sans-serif" font-size="13" lengthAdjust="spacing" textLength="7" x="344.3229" y="410.5967">1</text></g><!--link Skills to TeamMember--><g id="link_Skills_TeamMember"><path codeLine="33" d="M416.8274,60.24 C396.7374,95.79 360.4374,160.04 337.9674,199.8 " fill="none" id="Skills-TeamMember" style="stroke:#181818;stroke-width:1.0;"/><polygon fill="#000000" points="384.9076,134.5289,391.9161,128.0999,386.7987,125.2082,384.9076,134.5289" style="stroke:#000000;stroke-width:1.0;"/><text fill="#000000" font-family="sans-serif" font-size="13" lengthAdjust="spacing" textLength="67" x="396.3674" y="135.4951">assigned to</text><text fill="#000000" font-family="sans-serif" font-size="13" lengthAdjust="spacing" textLength="20" x="391.1525" y="81.7841">0..*</text><text fill="#000000" font-family="sans-serif" font-size="13" lengthAdjust="spacing" textLength="7" x="334.0365" y="189.0147">1</text></g><!--link HRM to Employee--><g id="link_HRM_Employee"><path codeLine="35" d="M300.1974,422.88 C234.5374,404.36 13.3674,342 13.3674,342 C13.3674,129 13.3674,129 13.3674,129 C13.3674,129 69.8474,79.11 100.7374,51.83 " fill="none" id="HRM-Employee" style="stroke:#181818;stroke-width:1.0;"/><polygon fill="#000000" points="16,231.2718,17.6941,240.6302,22.8713,237.8472,16,231.2718" style="stroke:#000000;stroke-width:1.0;"/><text fill="#000000" font-family="sans-serif" font-size="13" lengthAdjust="spacing" textLength="21" x="27.3674" y="240.9951">is a</text><text fill="#000000" font-family="sans-serif" font-size="13" lengthAdjust="spacing" textLength="7" x="285.4775" y="415.4771">1</text><text fill="#000000" font-family="sans-serif" font-size="13" lengthAdjust="spacing" textLength="7" x="87.5212" y="72.501">1</text></g><!--SRC=[RO-nZi8m44HxVyKgvKb1qA8J7T8rN07ym1AFmCBhH5bJHEZ-_Mn8GY9eB7ltpNX6houqtBAGTm6nQq1DxRlyCERYB4WGBxNLvwDoRUNJflAiIbjfVDq1T3T_m-m8bXtaX3PDYKeABA37pLbwSJ_xtLHsk3hlTIQPMOwhcsmz127gqrGVmb_0mcR9cAbO5MLPfdCQQKrEYUdx3Lik5bz5_zEQX0EVeRGnPY8kLXdgJNF-0RHqwZBRb_Z0LIqu3jo0BIVOB6CgxSuXuR7EjjdYrMPCtdVPc7y0]--></g></svg>