<?xml version="1.0" encoding="UTF-8" standalone="no"?><svg xmlns="http://www.w3.org/2000/svg" xmlns:xlink="http://www.w3.org/1999/xlink" contentStyleType="text/css" height="1162px" preserveAspectRatio="none" style="width:772px;height:1162px;background:#FFFFFF;" version="1.1" viewBox="0 0 772 1162" width="772px" zoomAndPan="magnify"><defs/><g><!--class User--><g id="elem_User"><rect codeLine="10" fill="#FEFECE" height="48" id="User" rx="2.5" ry="2.5" style="stroke:#2ECC71;stroke-width:0.5;" width="61" x="173.5" y="7"/><ellipse cx="188.5" cy="23" fill="#ADD1B2" rx="11" ry="11" style="stroke:#181818;stroke-width:1.0;"/><path d="M191.2656,18.875 Q191.4219,18.6563 191.6094,18.5469 Q191.7969,18.4375 192.0156,18.4375 Q192.3906,18.4375 192.625,18.7031 Q192.8594,18.9531 192.8594,19.5625 L192.8594,21.0156 Q192.8594,21.625 192.625,21.8906 Q192.3906,22.1563 192.0156,22.1563 Q191.6719,22.1563 191.4688,21.9531 Q191.2656,21.7656 191.1563,21.25 Q191.1094,20.8906 190.9219,20.7031 Q190.5938,20.3281 189.9844,20.1094 Q189.375,19.8906 188.75,19.8906 Q187.9844,19.8906 187.3438,20.2188 Q186.7188,20.5469 186.2188,21.2969 Q185.7344,22.0469 185.7344,23.0781 L185.7344,24.1719 Q185.7344,25.4063 186.625,26.2344 Q187.5156,27.0469 189.1094,27.0469 Q190.0469,27.0469 190.7031,26.7969 Q191.0938,26.6406 191.5156,26.2031 Q191.7813,25.9375 191.9219,25.8594 Q192.0781,25.7813 192.2813,25.7813 Q192.6094,25.7813 192.8594,26.0469 Q193.125,26.2969 193.125,26.6406 Q193.125,26.9844 192.7813,27.3906 Q192.2813,27.9688 191.4844,28.2969 Q190.4063,28.75 189.1094,28.75 Q187.5938,28.75 186.3906,28.125 Q185.4063,27.625 184.7188,26.5625 Q184.0313,25.4844 184.0313,24.2031 L184.0313,23.0469 Q184.0313,21.7188 184.6406,20.5781 Q185.2656,19.4219 186.3594,18.8125 Q187.4531,18.1875 188.6875,18.1875 Q189.4219,18.1875 190.0625,18.3594 Q190.7188,18.5156 191.2656,18.875 Z " fill="#000000"/><text fill="#000000" font-family="sans-serif" font-size="14" lengthAdjust="spacing" textLength="29" x="202.5" y="28.7285">User</text><line style="stroke:#2ECC71;stroke-width:0.5;" x1="174.5" x2="233.5" y1="39" y2="39"/><line style="stroke:#2ECC71;stroke-width:0.5;" x1="174.5" x2="233.5" y1="47" y2="47"/></g><!--class Parque--><g id="elem_Parque"><rect codeLine="13" fill="#FEFECE" height="48" id="Parque" rx="2.5" ry="2.5" style="stroke:#2ECC71;stroke-width:0.5;" width="78" x="270" y="7"/><ellipse cx="285" cy="23" fill="#ADD1B2" rx="11" ry="11" style="stroke:#181818;stroke-width:1.0;"/><path d="M287.7656,18.875 Q287.9219,18.6563 288.1094,18.5469 Q288.2969,18.4375 288.5156,18.4375 Q288.8906,18.4375 289.125,18.7031 Q289.3594,18.9531 289.3594,19.5625 L289.3594,21.0156 Q289.3594,21.625 289.125,21.8906 Q288.8906,22.1563 288.5156,22.1563 Q288.1719,22.1563 287.9688,21.9531 Q287.7656,21.7656 287.6563,21.25 Q287.6094,20.8906 287.4219,20.7031 Q287.0938,20.3281 286.4844,20.1094 Q285.875,19.8906 285.25,19.8906 Q284.4844,19.8906 283.8438,20.2188 Q283.2188,20.5469 282.7188,21.2969 Q282.2344,22.0469 282.2344,23.0781 L282.2344,24.1719 Q282.2344,25.4063 283.125,26.2344 Q284.0156,27.0469 285.6094,27.0469 Q286.5469,27.0469 287.2031,26.7969 Q287.5938,26.6406 288.0156,26.2031 Q288.2813,25.9375 288.4219,25.8594 Q288.5781,25.7813 288.7813,25.7813 Q289.1094,25.7813 289.3594,26.0469 Q289.625,26.2969 289.625,26.6406 Q289.625,26.9844 289.2813,27.3906 Q288.7813,27.9688 287.9844,28.2969 Q286.9063,28.75 285.6094,28.75 Q284.0938,28.75 282.8906,28.125 Q281.9063,27.625 281.2188,26.5625 Q280.5313,25.4844 280.5313,24.2031 L280.5313,23.0469 Q280.5313,21.7188 281.1406,20.5781 Q281.7656,19.4219 282.8594,18.8125 Q283.9531,18.1875 285.1875,18.1875 Q285.9219,18.1875 286.5625,18.3594 Q287.2188,18.5156 287.7656,18.875 Z " fill="#000000"/><text fill="#000000" font-family="sans-serif" font-size="14" lengthAdjust="spacing" textLength="46" x="299" y="28.7285">Parque</text><line style="stroke:#2ECC71;stroke-width:0.5;" x1="271" x2="347" y1="39" y2="39"/><line style="stroke:#2ECC71;stroke-width:0.5;" x1="271" x2="347" y1="47" y2="47"/></g><!--class Organization--><g id="elem_Organization"><rect codeLine="16" fill="#FEFECE" height="48" id="Organization" rx="2.5" ry="2.5" style="stroke:#2ECC71;stroke-width:0.5;" width="112" x="233" y="259"/><ellipse cx="248" cy="275" fill="#ADD1B2" rx="11" ry="11" style="stroke:#181818;stroke-width:1.0;"/><path d="M250.7656,270.875 Q250.9219,270.6563 251.1094,270.5469 Q251.2969,270.4375 251.5156,270.4375 Q251.8906,270.4375 252.125,270.7031 Q252.3594,270.9531 252.3594,271.5625 L252.3594,273.0156 Q252.3594,273.625 252.125,273.8906 Q251.8906,274.1563 251.5156,274.1563 Q251.1719,274.1563 250.9688,273.9531 Q250.7656,273.7656 250.6563,273.25 Q250.6094,272.8906 250.4219,272.7031 Q250.0938,272.3281 249.4844,272.1094 Q248.875,271.8906 248.25,271.8906 Q247.4844,271.8906 246.8438,272.2188 Q246.2188,272.5469 245.7188,273.2969 Q245.2344,274.0469 245.2344,275.0781 L245.2344,276.1719 Q245.2344,277.4063 246.125,278.2344 Q247.0156,279.0469 248.6094,279.0469 Q249.5469,279.0469 250.2031,278.7969 Q250.5938,278.6406 251.0156,278.2031 Q251.2813,277.9375 251.4219,277.8594 Q251.5781,277.7813 251.7813,277.7813 Q252.1094,277.7813 252.3594,278.0469 Q252.625,278.2969 252.625,278.6406 Q252.625,278.9844 252.2813,279.3906 Q251.7813,279.9688 250.9844,280.2969 Q249.9063,280.75 248.6094,280.75 Q247.0938,280.75 245.8906,280.125 Q244.9063,279.625 244.2188,278.5625 Q243.5313,277.4844 243.5313,276.2031 L243.5313,275.0469 Q243.5313,273.7188 244.1406,272.5781 Q244.7656,271.4219 245.8594,270.8125 Q246.9531,270.1875 248.1875,270.1875 Q248.9219,270.1875 249.5625,270.3594 Q250.2188,270.5156 250.7656,270.875 Z " fill="#000000"/><text fill="#000000" font-family="sans-serif" font-size="14" lengthAdjust="spacing" textLength="80" x="262" y="280.7285">Organization</text><line style="stroke:#2ECC71;stroke-width:0.5;" x1="234" x2="344" y1="291" y2="291"/><line style="stroke:#2ECC71;stroke-width:0.5;" x1="234" x2="344" y1="299" y2="299"/></g><!--class Admin--><g id="elem_Admin"><rect codeLine="19" fill="#FEFECE" height="48" id="Admin" rx="2.5" ry="2.5" style="stroke:#2ECC71;stroke-width:0.5;" width="71" x="349.5" y="385"/><ellipse cx="364.5" cy="401" fill="#ADD1B2" rx="11" ry="11" style="stroke:#181818;stroke-width:1.0;"/><path d="M367.2656,396.875 Q367.4219,396.6563 367.6094,396.5469 Q367.7969,396.4375 368.0156,396.4375 Q368.3906,396.4375 368.625,396.7031 Q368.8594,396.9531 368.8594,397.5625 L368.8594,399.0156 Q368.8594,399.625 368.625,399.8906 Q368.3906,400.1563 368.0156,400.1563 Q367.6719,400.1563 367.4688,399.9531 Q367.2656,399.7656 367.1563,399.25 Q367.1094,398.8906 366.9219,398.7031 Q366.5938,398.3281 365.9844,398.1094 Q365.375,397.8906 364.75,397.8906 Q363.9844,397.8906 363.3438,398.2188 Q362.7188,398.5469 362.2188,399.2969 Q361.7344,400.0469 361.7344,401.0781 L361.7344,402.1719 Q361.7344,403.4063 362.625,404.2344 Q363.5156,405.0469 365.1094,405.0469 Q366.0469,405.0469 366.7031,404.7969 Q367.0938,404.6406 367.5156,404.2031 Q367.7813,403.9375 367.9219,403.8594 Q368.0781,403.7813 368.2813,403.7813 Q368.6094,403.7813 368.8594,404.0469 Q369.125,404.2969 369.125,404.6406 Q369.125,404.9844 368.7813,405.3906 Q368.2813,405.9688 367.4844,406.2969 Q366.4063,406.75 365.1094,406.75 Q363.5938,406.75 362.3906,406.125 Q361.4063,405.625 360.7188,404.5625 Q360.0313,403.4844 360.0313,402.2031 L360.0313,401.0469 Q360.0313,399.7188 360.6406,398.5781 Q361.2656,397.4219 362.3594,396.8125 Q363.4531,396.1875 364.6875,396.1875 Q365.4219,396.1875 366.0625,396.3594 Q366.7188,396.5156 367.2656,396.875 Z " fill="#000000"/><text fill="#000000" font-family="sans-serif" font-size="14" lengthAdjust="spacing" textLength="39" x="378.5" y="406.7285">Admin</text><line style="stroke:#2ECC71;stroke-width:0.5;" x1="350.5" x2="419.5" y1="417" y2="417"/><line style="stroke:#2ECC71;stroke-width:0.5;" x1="350.5" x2="419.5" y1="425" y2="425"/></g><!--class Employee--><g id="elem_Employee"><rect codeLine="22" fill="#FEFECE" height="48" id="Employee" rx="2.5" ry="2.5" style="stroke:#2ECC71;stroke-width:0.5;" width="94" x="87" y="511"/><ellipse cx="102" cy="527" fill="#ADD1B2" rx="11" ry="11" style="stroke:#181818;stroke-width:1.0;"/><path d="M104.7656,522.875 Q104.9219,522.6563 105.1094,522.5469 Q105.2969,522.4375 105.5156,522.4375 Q105.8906,522.4375 106.125,522.7031 Q106.3594,522.9531 106.3594,523.5625 L106.3594,525.0156 Q106.3594,525.625 106.125,525.8906 Q105.8906,526.1563 105.5156,526.1563 Q105.1719,526.1563 104.9688,525.9531 Q104.7656,525.7656 104.6563,525.25 Q104.6094,524.8906 104.4219,524.7031 Q104.0938,524.3281 103.4844,524.1094 Q102.875,523.8906 102.25,523.8906 Q101.4844,523.8906 100.8438,524.2188 Q100.2188,524.5469 99.7188,525.2969 Q99.2344,526.0469 99.2344,527.0781 L99.2344,528.1719 Q99.2344,529.4063 100.125,530.2344 Q101.0156,531.0469 102.6094,531.0469 Q103.5469,531.0469 104.2031,530.7969 Q104.5938,530.6406 105.0156,530.2031 Q105.2813,529.9375 105.4219,529.8594 Q105.5781,529.7813 105.7813,529.7813 Q106.1094,529.7813 106.3594,530.0469 Q106.625,530.2969 106.625,530.6406 Q106.625,530.9844 106.2813,531.3906 Q105.7813,531.9688 104.9844,532.2969 Q103.9063,532.75 102.6094,532.75 Q101.0938,532.75 99.8906,532.125 Q98.9063,531.625 98.2188,530.5625 Q97.5313,529.4844 97.5313,528.2031 L97.5313,527.0469 Q97.5313,525.7188 98.1406,524.5781 Q98.7656,523.4219 99.8594,522.8125 Q100.9531,522.1875 102.1875,522.1875 Q102.9219,522.1875 103.5625,522.3594 Q104.2188,522.5156 104.7656,522.875 Z " fill="#000000"/><text fill="#000000" font-family="sans-serif" font-size="14" lengthAdjust="spacing" textLength="62" x="116" y="532.7285">Employee</text><line style="stroke:#2ECC71;stroke-width:0.5;" x1="88" x2="180" y1="543" y2="543"/><line style="stroke:#2ECC71;stroke-width:0.5;" x1="88" x2="180" y1="551" y2="551"/></g><!--class Job--><g id="elem_Job"><rect codeLine="25" fill="#FEFECE" height="48" id="Job" rx="2.5" ry="2.5" style="stroke:#2ECC71;stroke-width:0.5;" width="54" x="306" y="511"/><ellipse cx="321" cy="527" fill="#ADD1B2" rx="11" ry="11" style="stroke:#181818;stroke-width:1.0;"/><path d="M323.7656,522.875 Q323.9219,522.6563 324.1094,522.5469 Q324.2969,522.4375 324.5156,522.4375 Q324.8906,522.4375 325.125,522.7031 Q325.3594,522.9531 325.3594,523.5625 L325.3594,525.0156 Q325.3594,525.625 325.125,525.8906 Q324.8906,526.1563 324.5156,526.1563 Q324.1719,526.1563 323.9688,525.9531 Q323.7656,525.7656 323.6563,525.25 Q323.6094,524.8906 323.4219,524.7031 Q323.0938,524.3281 322.4844,524.1094 Q321.875,523.8906 321.25,523.8906 Q320.4844,523.8906 319.8438,524.2188 Q319.2188,524.5469 318.7188,525.2969 Q318.2344,526.0469 318.2344,527.0781 L318.2344,528.1719 Q318.2344,529.4063 319.125,530.2344 Q320.0156,531.0469 321.6094,531.0469 Q322.5469,531.0469 323.2031,530.7969 Q323.5938,530.6406 324.0156,530.2031 Q324.2813,529.9375 324.4219,529.8594 Q324.5781,529.7813 324.7813,529.7813 Q325.1094,529.7813 325.3594,530.0469 Q325.625,530.2969 325.625,530.6406 Q325.625,530.9844 325.2813,531.3906 Q324.7813,531.9688 323.9844,532.2969 Q322.9063,532.75 321.6094,532.75 Q320.0938,532.75 318.8906,532.125 Q317.9063,531.625 317.2188,530.5625 Q316.5313,529.4844 316.5313,528.2031 L316.5313,527.0469 Q316.5313,525.7188 317.1406,524.5781 Q317.7656,523.4219 318.8594,522.8125 Q319.9531,522.1875 321.1875,522.1875 Q321.9219,522.1875 322.5625,522.3594 Q323.2188,522.5156 323.7656,522.875 Z " fill="#000000"/><text fill="#000000" font-family="sans-serif" font-size="14" lengthAdjust="spacing" textLength="22" x="335" y="532.7285">Job</text><line style="stroke:#2ECC71;stroke-width:0.5;" x1="307" x2="359" y1="543" y2="543"/><line style="stroke:#2ECC71;stroke-width:0.5;" x1="307" x2="359" y1="551" y2="551"/></g><!--class Skill--><g id="elem_Skill"><rect codeLine="28" fill="#FEFECE" height="48" id="Skill" rx="2.5" ry="2.5" style="stroke:#2ECC71;stroke-width:0.5;" width="57" x="304.5" y="637"/><ellipse cx="319.5" cy="653" fill="#ADD1B2" rx="11" ry="11" style="stroke:#181818;stroke-width:1.0;"/><path d="M322.2656,648.875 Q322.4219,648.6563 322.6094,648.5469 Q322.7969,648.4375 323.0156,648.4375 Q323.3906,648.4375 323.625,648.7031 Q323.8594,648.9531 323.8594,649.5625 L323.8594,651.0156 Q323.8594,651.625 323.625,651.8906 Q323.3906,652.1563 323.0156,652.1563 Q322.6719,652.1563 322.4688,651.9531 Q322.2656,651.7656 322.1563,651.25 Q322.1094,650.8906 321.9219,650.7031 Q321.5938,650.3281 320.9844,650.1094 Q320.375,649.8906 319.75,649.8906 Q318.9844,649.8906 318.3438,650.2188 Q317.7188,650.5469 317.2188,651.2969 Q316.7344,652.0469 316.7344,653.0781 L316.7344,654.1719 Q316.7344,655.4063 317.625,656.2344 Q318.5156,657.0469 320.1094,657.0469 Q321.0469,657.0469 321.7031,656.7969 Q322.0938,656.6406 322.5156,656.2031 Q322.7813,655.9375 322.9219,655.8594 Q323.0781,655.7813 323.2813,655.7813 Q323.6094,655.7813 323.8594,656.0469 Q324.125,656.2969 324.125,656.6406 Q324.125,656.9844 323.7813,657.3906 Q323.2813,657.9688 322.4844,658.2969 Q321.4063,658.75 320.1094,658.75 Q318.5938,658.75 317.3906,658.125 Q316.4063,657.625 315.7188,656.5625 Q315.0313,655.4844 315.0313,654.2031 L315.0313,653.0469 Q315.0313,651.7188 315.6406,650.5781 Q316.2656,649.4219 317.3594,648.8125 Q318.4531,648.1875 319.6875,648.1875 Q320.4219,648.1875 321.0625,648.3594 Q321.7188,648.5156 322.2656,648.875 Z " fill="#000000"/><text fill="#000000" font-family="sans-serif" font-size="14" lengthAdjust="spacing" textLength="25" x="333.5" y="658.7285">Skill</text><line style="stroke:#2ECC71;stroke-width:0.5;" x1="305.5" x2="360.5" y1="669" y2="669"/><line style="stroke:#2ECC71;stroke-width:0.5;" x1="305.5" x2="360.5" y1="677" y2="677"/></g><!--class Team--><g id="elem_Team"><rect codeLine="31" fill="#FEFECE" height="48" id="Team" rx="2.5" ry="2.5" style="stroke:#2ECC71;stroke-width:0.5;" width="68" x="299" y="746"/><ellipse cx="314" cy="762" fill="#ADD1B2" rx="11" ry="11" style="stroke:#181818;stroke-width:1.0;"/><path d="M316.7656,757.875 Q316.9219,757.6563 317.1094,757.5469 Q317.2969,757.4375 317.5156,757.4375 Q317.8906,757.4375 318.125,757.7031 Q318.3594,757.9531 318.3594,758.5625 L318.3594,760.0156 Q318.3594,760.625 318.125,760.8906 Q317.8906,761.1563 317.5156,761.1563 Q317.1719,761.1563 316.9688,760.9531 Q316.7656,760.7656 316.6563,760.25 Q316.6094,759.8906 316.4219,759.7031 Q316.0938,759.3281 315.4844,759.1094 Q314.875,758.8906 314.25,758.8906 Q313.4844,758.8906 312.8438,759.2188 Q312.2188,759.5469 311.7188,760.2969 Q311.2344,761.0469 311.2344,762.0781 L311.2344,763.1719 Q311.2344,764.4063 312.125,765.2344 Q313.0156,766.0469 314.6094,766.0469 Q315.5469,766.0469 316.2031,765.7969 Q316.5938,765.6406 317.0156,765.2031 Q317.2813,764.9375 317.4219,764.8594 Q317.5781,764.7813 317.7813,764.7813 Q318.1094,764.7813 318.3594,765.0469 Q318.625,765.2969 318.625,765.6406 Q318.625,765.9844 318.2813,766.3906 Q317.7813,766.9688 316.9844,767.2969 Q315.9063,767.75 314.6094,767.75 Q313.0938,767.75 311.8906,767.125 Q310.9063,766.625 310.2188,765.5625 Q309.5313,764.4844 309.5313,763.2031 L309.5313,762.0469 Q309.5313,760.7188 310.1406,759.5781 Q310.7656,758.4219 311.8594,757.8125 Q312.9531,757.1875 314.1875,757.1875 Q314.9219,757.1875 315.5625,757.3594 Q316.2188,757.5156 316.7656,757.875 Z " fill="#000000"/><text fill="#000000" font-family="sans-serif" font-size="14" lengthAdjust="spacing" textLength="36" x="328" y="767.7285">Team</text><line style="stroke:#2ECC71;stroke-width:0.5;" x1="300" x2="366" y1="778" y2="778"/><line style="stroke:#2ECC71;stroke-width:0.5;" x1="300" x2="366" y1="786" y2="786"/></g><!--class Vehicle--><g id="elem_Vehicle"><rect codeLine="34" fill="#FEFECE" height="48" id="Vehicle" rx="2.5" ry="2.5" style="stroke:#2ECC71;stroke-width:0.5;" width="78" x="665" y="746"/><ellipse cx="680" cy="762" fill="#ADD1B2" rx="11" ry="11" style="stroke:#181818;stroke-width:1.0;"/><path d="M682.7656,757.875 Q682.9219,757.6563 683.1094,757.5469 Q683.2969,757.4375 683.5156,757.4375 Q683.8906,757.4375 684.125,757.7031 Q684.3594,757.9531 684.3594,758.5625 L684.3594,760.0156 Q684.3594,760.625 684.125,760.8906 Q683.8906,761.1563 683.5156,761.1563 Q683.1719,761.1563 682.9688,760.9531 Q682.7656,760.7656 682.6563,760.25 Q682.6094,759.8906 682.4219,759.7031 Q682.0938,759.3281 681.4844,759.1094 Q680.875,758.8906 680.25,758.8906 Q679.4844,758.8906 678.8438,759.2188 Q678.2188,759.5469 677.7188,760.2969 Q677.2344,761.0469 677.2344,762.0781 L677.2344,763.1719 Q677.2344,764.4063 678.125,765.2344 Q679.0156,766.0469 680.6094,766.0469 Q681.5469,766.0469 682.2031,765.7969 Q682.5938,765.6406 683.0156,765.2031 Q683.2813,764.9375 683.4219,764.8594 Q683.5781,764.7813 683.7813,764.7813 Q684.1094,764.7813 684.3594,765.0469 Q684.625,765.2969 684.625,765.6406 Q684.625,765.9844 684.2813,766.3906 Q683.7813,766.9688 682.9844,767.2969 Q681.9063,767.75 680.6094,767.75 Q679.0938,767.75 677.8906,767.125 Q676.9063,766.625 676.2188,765.5625 Q675.5313,764.4844 675.5313,763.2031 L675.5313,762.0469 Q675.5313,760.7188 676.1406,759.5781 Q676.7656,758.4219 677.8594,757.8125 Q678.9531,757.1875 680.1875,757.1875 Q680.9219,757.1875 681.5625,757.3594 Q682.2188,757.5156 682.7656,757.875 Z " fill="#000000"/><text fill="#000000" font-family="sans-serif" font-size="14" lengthAdjust="spacing" textLength="46" x="694" y="767.7285">Vehicle</text><line style="stroke:#2ECC71;stroke-width:0.5;" x1="666" x2="742" y1="778" y2="778"/><line style="stroke:#2ECC71;stroke-width:0.5;" x1="666" x2="742" y1="786" y2="786"/></g><!--class Schedule--><g id="elem_Schedule"><rect codeLine="37" fill="#FEFECE" height="48" id="Schedule" rx="2.5" ry="2.5" style="stroke:#2ECC71;stroke-width:0.5;" width="91" x="496.5" y="872"/><ellipse cx="511.5" cy="888" fill="#ADD1B2" rx="11" ry="11" style="stroke:#181818;stroke-width:1.0;"/><path d="M514.2656,883.875 Q514.4219,883.6563 514.6094,883.5469 Q514.7969,883.4375 515.0156,883.4375 Q515.3906,883.4375 515.625,883.7031 Q515.8594,883.9531 515.8594,884.5625 L515.8594,886.0156 Q515.8594,886.625 515.625,886.8906 Q515.3906,887.1563 515.0156,887.1563 Q514.6719,887.1563 514.4688,886.9531 Q514.2656,886.7656 514.1563,886.25 Q514.1094,885.8906 513.9219,885.7031 Q513.5938,885.3281 512.9844,885.1094 Q512.375,884.8906 511.75,884.8906 Q510.9844,884.8906 510.3438,885.2188 Q509.7188,885.5469 509.2188,886.2969 Q508.7344,887.0469 508.7344,888.0781 L508.7344,889.1719 Q508.7344,890.4063 509.625,891.2344 Q510.5156,892.0469 512.1094,892.0469 Q513.0469,892.0469 513.7031,891.7969 Q514.0938,891.6406 514.5156,891.2031 Q514.7813,890.9375 514.9219,890.8594 Q515.0781,890.7813 515.2813,890.7813 Q515.6094,890.7813 515.8594,891.0469 Q516.125,891.2969 516.125,891.6406 Q516.125,891.9844 515.7813,892.3906 Q515.2813,892.9688 514.4844,893.2969 Q513.4063,893.75 512.1094,893.75 Q510.5938,893.75 509.3906,893.125 Q508.4063,892.625 507.7188,891.5625 Q507.0313,890.4844 507.0313,889.2031 L507.0313,888.0469 Q507.0313,886.7188 507.6406,885.5781 Q508.2656,884.4219 509.3594,883.8125 Q510.4531,883.1875 511.6875,883.1875 Q512.4219,883.1875 513.0625,883.3594 Q513.7188,883.5156 514.2656,883.875 Z " fill="#000000"/><text fill="#000000" font-family="sans-serif" font-size="14" lengthAdjust="spacing" textLength="59" x="525.5" y="893.7285">Schedule</text><line style="stroke:#2ECC71;stroke-width:0.5;" x1="497.5" x2="586.5" y1="904" y2="904"/><line style="stroke:#2ECC71;stroke-width:0.5;" x1="497.5" x2="586.5" y1="912" y2="912"/></g><!--class Task--><g id="elem_Task"><rect codeLine="40" fill="#FEFECE" height="48" id="Task" rx="2.5" ry="2.5" style="stroke:#2ECC71;stroke-width:0.5;" width="63" x="206.5" y="872"/><ellipse cx="221.5" cy="888" fill="#ADD1B2" rx="11" ry="11" style="stroke:#181818;stroke-width:1.0;"/><path d="M224.2656,883.875 Q224.4219,883.6563 224.6094,883.5469 Q224.7969,883.4375 225.0156,883.4375 Q225.3906,883.4375 225.625,883.7031 Q225.8594,883.9531 225.8594,884.5625 L225.8594,886.0156 Q225.8594,886.625 225.625,886.8906 Q225.3906,887.1563 225.0156,887.1563 Q224.6719,887.1563 224.4688,886.9531 Q224.2656,886.7656 224.1563,886.25 Q224.1094,885.8906 223.9219,885.7031 Q223.5938,885.3281 222.9844,885.1094 Q222.375,884.8906 221.75,884.8906 Q220.9844,884.8906 220.3438,885.2188 Q219.7188,885.5469 219.2188,886.2969 Q218.7344,887.0469 218.7344,888.0781 L218.7344,889.1719 Q218.7344,890.4063 219.625,891.2344 Q220.5156,892.0469 222.1094,892.0469 Q223.0469,892.0469 223.7031,891.7969 Q224.0938,891.6406 224.5156,891.2031 Q224.7813,890.9375 224.9219,890.8594 Q225.0781,890.7813 225.2813,890.7813 Q225.6094,890.7813 225.8594,891.0469 Q226.125,891.2969 226.125,891.6406 Q226.125,891.9844 225.7813,892.3906 Q225.2813,892.9688 224.4844,893.2969 Q223.4063,893.75 222.1094,893.75 Q220.5938,893.75 219.3906,893.125 Q218.4063,892.625 217.7188,891.5625 Q217.0313,890.4844 217.0313,889.2031 L217.0313,888.0469 Q217.0313,886.7188 217.6406,885.5781 Q218.2656,884.4219 219.3594,883.8125 Q220.4531,883.1875 221.6875,883.1875 Q222.4219,883.1875 223.0625,883.3594 Q223.7188,883.5156 224.2656,883.875 Z " fill="#000000"/><text fill="#000000" font-family="sans-serif" font-size="14" lengthAdjust="spacing" textLength="31" x="235.5" y="893.7285">Task</text><line style="stroke:#2ECC71;stroke-width:0.5;" x1="207.5" x2="268.5" y1="904" y2="904"/><line style="stroke:#2ECC71;stroke-width:0.5;" x1="207.5" x2="268.5" y1="912" y2="912"/></g><!--class Tool--><g id="elem_Tool"><rect codeLine="43" fill="#FEFECE" height="48" id="Tool" rx="2.5" ry="2.5" style="stroke:#2ECC71;stroke-width:0.5;" width="60" x="310" y="998"/><ellipse cx="325" cy="1014" fill="#ADD1B2" rx="11" ry="11" style="stroke:#181818;stroke-width:1.0;"/><path d="M327.7656,1009.875 Q327.9219,1009.6563 328.1094,1009.5469 Q328.2969,1009.4375 328.5156,1009.4375 Q328.8906,1009.4375 329.125,1009.7031 Q329.3594,1009.9531 329.3594,1010.5625 L329.3594,1012.0156 Q329.3594,1012.625 329.125,1012.8906 Q328.8906,1013.1563 328.5156,1013.1563 Q328.1719,1013.1563 327.9688,1012.9531 Q327.7656,1012.7656 327.6563,1012.25 Q327.6094,1011.8906 327.4219,1011.7031 Q327.0938,1011.3281 326.4844,1011.1094 Q325.875,1010.8906 325.25,1010.8906 Q324.4844,1010.8906 323.8438,1011.2188 Q323.2188,1011.5469 322.7188,1012.2969 Q322.2344,1013.0469 322.2344,1014.0781 L322.2344,1015.1719 Q322.2344,1016.4063 323.125,1017.2344 Q324.0156,1018.0469 325.6094,1018.0469 Q326.5469,1018.0469 327.2031,1017.7969 Q327.5938,1017.6406 328.0156,1017.2031 Q328.2813,1016.9375 328.4219,1016.8594 Q328.5781,1016.7813 328.7813,1016.7813 Q329.1094,1016.7813 329.3594,1017.0469 Q329.625,1017.2969 329.625,1017.6406 Q329.625,1017.9844 329.2813,1018.3906 Q328.7813,1018.9688 327.9844,1019.2969 Q326.9063,1019.75 325.6094,1019.75 Q324.0938,1019.75 322.8906,1019.125 Q321.9063,1018.625 321.2188,1017.5625 Q320.5313,1016.4844 320.5313,1015.2031 L320.5313,1014.0469 Q320.5313,1012.7188 321.1406,1011.5781 Q321.7656,1010.4219 322.8594,1009.8125 Q323.9531,1009.1875 325.1875,1009.1875 Q325.9219,1009.1875 326.5625,1009.3594 Q327.2188,1009.5156 327.7656,1009.875 Z " fill="#000000"/><text fill="#000000" font-family="sans-serif" font-size="14" lengthAdjust="spacing" textLength="28" x="339" y="1019.7285">Tool</text><line style="stroke:#2ECC71;stroke-width:0.5;" x1="311" x2="369" y1="1030" y2="1030"/><line style="stroke:#2ECC71;stroke-width:0.5;" x1="311" x2="369" y1="1038" y2="1038"/></g><!--class Machine--><g id="elem_Machine"><rect codeLine="46" fill="#FEFECE" height="48" id="Machine" rx="2.5" ry="2.5" style="stroke:#2ECC71;stroke-width:0.5;" width="85" x="352.5" y="1107"/><ellipse cx="367.5" cy="1123" fill="#ADD1B2" rx="11" ry="11" style="stroke:#181818;stroke-width:1.0;"/><path d="M370.2656,1118.875 Q370.4219,1118.6563 370.6094,1118.5469 Q370.7969,1118.4375 371.0156,1118.4375 Q371.3906,1118.4375 371.625,1118.7031 Q371.8594,1118.9531 371.8594,1119.5625 L371.8594,1121.0156 Q371.8594,1121.625 371.625,1121.8906 Q371.3906,1122.1563 371.0156,1122.1563 Q370.6719,1122.1563 370.4688,1121.9531 Q370.2656,1121.7656 370.1563,1121.25 Q370.1094,1120.8906 369.9219,1120.7031 Q369.5938,1120.3281 368.9844,1120.1094 Q368.375,1119.8906 367.75,1119.8906 Q366.9844,1119.8906 366.3438,1120.2188 Q365.7188,1120.5469 365.2188,1121.2969 Q364.7344,1122.0469 364.7344,1123.0781 L364.7344,1124.1719 Q364.7344,1125.4063 365.625,1126.2344 Q366.5156,1127.0469 368.1094,1127.0469 Q369.0469,1127.0469 369.7031,1126.7969 Q370.0938,1126.6406 370.5156,1126.2031 Q370.7813,1125.9375 370.9219,1125.8594 Q371.0781,1125.7813 371.2813,1125.7813 Q371.6094,1125.7813 371.8594,1126.0469 Q372.125,1126.2969 372.125,1126.6406 Q372.125,1126.9844 371.7813,1127.3906 Q371.2813,1127.9688 370.4844,1128.2969 Q369.4063,1128.75 368.1094,1128.75 Q366.5938,1128.75 365.3906,1128.125 Q364.4063,1127.625 363.7188,1126.5625 Q363.0313,1125.4844 363.0313,1124.2031 L363.0313,1123.0469 Q363.0313,1121.7188 363.6406,1120.5781 Q364.2656,1119.4219 365.3594,1118.8125 Q366.4531,1118.1875 367.6875,1118.1875 Q368.4219,1118.1875 369.0625,1118.3594 Q369.7188,1118.5156 370.2656,1118.875 Z " fill="#000000"/><text fill="#000000" font-family="sans-serif" font-size="14" lengthAdjust="spacing" textLength="53" x="381.5" y="1128.7285">Machine</text><line style="stroke:#2ECC71;stroke-width:0.5;" x1="353.5" x2="436.5" y1="1139" y2="1139"/><line style="stroke:#2ECC71;stroke-width:0.5;" x1="353.5" x2="436.5" y1="1147" y2="1147"/></g><!--class Parks--><g id="elem_Parks"><rect fill="#FEFECE" height="48" id="Parks" rx="2.5" ry="2.5" style="stroke:#2ECC71;stroke-width:0.5;" width="68" x="170" y="133"/><ellipse cx="185" cy="149" fill="#ADD1B2" rx="11" ry="11" style="stroke:#181818;stroke-width:1.0;"/><path d="M187.7656,144.875 Q187.9219,144.6563 188.1094,144.5469 Q188.2969,144.4375 188.5156,144.4375 Q188.8906,144.4375 189.125,144.7031 Q189.3594,144.9531 189.3594,145.5625 L189.3594,147.0156 Q189.3594,147.625 189.125,147.8906 Q188.8906,148.1563 188.5156,148.1563 Q188.1719,148.1563 187.9688,147.9531 Q187.7656,147.7656 187.6563,147.25 Q187.6094,146.8906 187.4219,146.7031 Q187.0938,146.3281 186.4844,146.1094 Q185.875,145.8906 185.25,145.8906 Q184.4844,145.8906 183.8438,146.2188 Q183.2188,146.5469 182.7188,147.2969 Q182.2344,148.0469 182.2344,149.0781 L182.2344,150.1719 Q182.2344,151.4063 183.125,152.2344 Q184.0156,153.0469 185.6094,153.0469 Q186.5469,153.0469 187.2031,152.7969 Q187.5938,152.6406 188.0156,152.2031 Q188.2813,151.9375 188.4219,151.8594 Q188.5781,151.7813 188.7813,151.7813 Q189.1094,151.7813 189.3594,152.0469 Q189.625,152.2969 189.625,152.6406 Q189.625,152.9844 189.2813,153.3906 Q188.7813,153.9688 187.9844,154.2969 Q186.9063,154.75 185.6094,154.75 Q184.0938,154.75 182.8906,154.125 Q181.9063,153.625 181.2188,152.5625 Q180.5313,151.4844 180.5313,150.2031 L180.5313,149.0469 Q180.5313,147.7188 181.1406,146.5781 Q181.7656,145.4219 182.8594,144.8125 Q183.9531,144.1875 185.1875,144.1875 Q185.9219,144.1875 186.5625,144.3594 Q187.2188,144.5156 187.7656,144.875 Z " fill="#000000"/><text fill="#000000" font-family="sans-serif" font-size="14" lengthAdjust="spacing" textLength="36" x="199" y="154.7285">Parks</text><line style="stroke:#2ECC71;stroke-width:0.5;" x1="171" x2="237" y1="165" y2="165"/><line style="stroke:#2ECC71;stroke-width:0.5;" x1="171" x2="237" y1="173" y2="173"/></g><!--link User to Parks--><g id="link_User_Parks"><path codeLine="50" d="M188.02,55.21 C182.79,64.12 177.65,74.63 175,85 C171.24,99.71 176.58,115.39 183.66,128.27 " fill="none" id="User-to-Parks" style="stroke:#3498DB;stroke-width:1.0;"/><polygon fill="#3498DB" points="186.33,132.88,185.2684,123.0885,183.8186,128.5565,178.3507,127.1067,186.33,132.88" style="stroke:#3498DB;stroke-width:1.0;"/><text fill="#000000" font-family="sans-serif" font-size="13" lengthAdjust="spacing" textLength="28" x="176" y="99.4951">uses</text></g><!--link User to Parks--><!--link Parks to Organization--><g id="link_Parks_Organization"><path codeLine="51" d="M197.06,181.2 C194.07,195.83 192.87,214.61 201,229 C207.43,240.38 217.39,249.58 228.33,256.93 " fill="none" id="Parks-to-Organization" style="stroke:#3498DB;stroke-width:1.0;"/><polygon fill="#3498DB" points="232.73,259.76,227.3097,251.5368,228.5199,257.0627,222.9941,258.2729,232.73,259.76" style="stroke:#3498DB;stroke-width:1.0;"/><text fill="#000000" font-family="sans-serif" font-size="13" lengthAdjust="spacing" textLength="60" x="202" y="225.4951">belongs to</text></g><!--link Parks to Organization--><!--link Organization to Admin--><g id="link_Organization_Admin"><path codeLine="52" d="M281.89,307.01 C278.74,321.75 277.44,340.71 286,355 C298.67,376.15 322.97,389.33 344.33,397.26 " fill="none" id="Organization-to-Admin" style="stroke:#3498DB;stroke-width:1.0;"/><polygon fill="#3498DB" points="349.11,398.97,341.9705,392.1856,344.399,397.2947,339.29,399.7232,349.11,398.97" style="stroke:#3498DB;stroke-width:1.0;"/><text fill="#000000" font-family="sans-serif" font-size="13" lengthAdjust="spacing" textLength="71" x="287" y="351.4951">managed by</text></g><!--link Organization to Admin--><!--link Admin to Employee--><g id="link_Admin_Employee"><path codeLine="53" d="M349.3,427.63 C306.43,448.82 234.19,484.5 185.33,508.64 " fill="none" id="Admin-to-Employee" style="stroke:#3498DB;stroke-width:1.0;"/><polygon fill="#3498DB" points="180.68,510.94,190.5209,510.5431,185.1635,508.7268,186.9797,503.3695,180.68,510.94" style="stroke:#3498DB;stroke-width:1.0;"/><polygon fill="#000000" points="275.5173,474.3905,284.9284,473.0189,282.3248,467.7491,275.5173,474.3905" style="stroke:#000000;stroke-width:1.0;"/><text fill="#000000" font-family="sans-serif" font-size="13" lengthAdjust="spacing" textLength="21" x="289" y="477.4951">is a</text></g><!--link Admin to Employee--><!--link Admin to Job--><g id="link_Admin_Job"><path codeLine="54" d="M363,433.15 C355.86,441.89 348.6,452.31 344,463 C338.26,476.35 335.46,492.26 334.12,505.63 " fill="none" id="Admin-to-Job" style="stroke:#3498DB;stroke-width:1.0;"/><polygon fill="#3498DB" points="333.66,510.81,338.4406,502.1992,334.1024,505.8296,330.472,501.4914,333.66,510.81" style="stroke:#3498DB;stroke-width:1.0;"/><polygon fill="#000000" points="347.1492,476.8206,353.2275,469.5059,347.7671,467.3302,347.1492,476.8206" style="stroke:#000000;stroke-width:1.0;"/><text fill="#000000" font-family="sans-serif" font-size="13" lengthAdjust="spacing" textLength="45" x="358" y="477.4951">assigns</text></g><!--link Admin to Skill--><g id="link_Admin_Skill"><path codeLine="55" d="M397.45,433.06 C401.69,442.12 405.88,452.79 408,463 C409.63,470.83 408.99,473.06 408,481 C400.83,538.33 401.92,555.36 376,607 C371.52,615.94 365.32,624.74 359.02,632.52 " fill="none" id="Admin-to-Skill" style="stroke:#3498DB;stroke-width:1.0;"/><polygon fill="#3498DB" points="355.52,636.74,364.3433,632.3641,358.7111,632.8907,358.1845,627.2584,355.52,636.74" style="stroke:#3498DB;stroke-width:1.0;"/><polygon fill="#000000" points="408.054,540.0855,412.6511,531.7598,406.8794,530.6477,408.054,540.0855" style="stroke:#000000;stroke-width:1.0;"/><text fill="#000000" font-family="sans-serif" font-size="13" lengthAdjust="spacing" textLength="39" x="418" y="540.4951">regists</text></g><!--link Admin to Team--><g id="link_Admin_Team"><path codeLine="56" d="M407.78,433.04 C416.34,442.09 425.94,452.76 434,463 C449.86,483.14 458.57,486.46 466,511 C472.18,531.42 471.49,538.39 466,559 C446.45,632.43 390.87,704.2 358.07,741.85 " fill="none" id="Admin-to-Team" style="stroke:#3498DB;stroke-width:1.0;"/><polygon fill="#3498DB" points="354.58,745.83,363.5157,741.6884,357.8715,742.0662,357.4937,736.422,354.58,745.83" style="stroke:#3498DB;stroke-width:1.0;"/><polygon fill="#000000" points="459.2054,603.1122,463.5444,594.6492,457.7413,593.715,459.2054,603.1122" style="stroke:#000000;stroke-width:1.0;"/><text fill="#000000" font-family="sans-serif" font-size="13" lengthAdjust="spacing" textLength="56" x="469" y="603.4951">organizes</text></g><!--link Admin to Vehicle--><g id="link_Admin_Vehicle"><path codeLine="57" d="M420.64,412.92 C482.06,418.69 604.16,433.61 634,463 C710.89,538.73 710.71,680.39 706.69,740.68 " fill="none" id="Admin-to-Vehicle" style="stroke:#3498DB;stroke-width:1.0;"/><polygon fill="#3498DB" points="706.31,745.91,710.9428,737.2188,706.6673,740.9228,702.9633,736.6472,706.31,745.91" style="stroke:#3498DB;stroke-width:1.0;"/><polygon fill="#000000" points="708.2877,601.9429,704.5544,593.1957,700.1259,597.0606,708.2877,601.9429" style="stroke:#000000;stroke-width:1.0;"/><text fill="#000000" font-family="sans-serif" font-size="13" lengthAdjust="spacing" textLength="50" x="714" y="603.4951">operates</text></g><!--link Job to Skill--><!--link Job to Skill--><!--link Skill to Team--><!--link Skill to Team--><!--link Team to Vehicle--><!--link Team to Vehicle--><g id="link_Team_Vehicle"><path codeLine="64" d="M367.24,770 C434.68,770 584.67,770 659.6,770 " fill="none" id="Team-to-Vehicle-1" style="stroke:#3498DB;stroke-width:1.0;"/><polygon fill="#3498DB" points="664.87,770,655.87,766,659.87,770,655.87,774,664.87,770" style="stroke:#3498DB;stroke-width:1.0;"/><text fill="#000000" font-family="sans-serif" font-size="13" lengthAdjust="spacing" textLength="28" x="502" y="763.4951">uses</text></g><!--link Team to Vehicle--><!--reverse link Employee to Job--><g id="link_Employee_Job"><path codeLine="61" d="M186.25,535 C224.59,535 275.11,535 305.77,535 " fill="none" id="Employee-backto-Job" style="stroke:#3498DB;stroke-width:1.0;"/><polygon fill="#3498DB" points="181.16,535,190.16,539,186.16,535,190.16,531,181.16,535" style="stroke:#3498DB;stroke-width:1.0;"/><polygon fill="#000000" points="198.5,523.1758,207.5451,526.1147,207.5451,520.2369,198.5,523.1758" style="stroke:#000000;stroke-width:1.0;"/><text fill="#000000" font-family="sans-serif" font-size="13" lengthAdjust="spacing" textLength="75" x="212.5" y="528.4951">performed by</text></g><!--link Employee to Job--><!--reverse link Employee to Skill--><g id="link_Employee_Skill"><path codeLine="62" d="M175.08,561.93 C196.49,575.42 223.13,592.14 247,607 C266.06,618.86 287.56,632.11 304.29,642.4 " fill="none" id="Employee-backto-Skill" style="stroke:#3498DB;stroke-width:1.0;"/><polygon fill="#3498DB" points="170.59,559.1,176.0822,567.2753,174.8236,561.7603,180.3386,560.5016,170.59,559.1" style="stroke:#3498DB;stroke-width:1.0;"/><polygon fill="#000000" points="247.7558,595.5326,253.88,602.8089,256.9873,597.8195,247.7558,595.5326" style="stroke:#000000;stroke-width:1.0;"/><text fill="#000000" font-family="sans-serif" font-size="13" lengthAdjust="spacing" textLength="63" x="261" y="603.4951">possesses</text></g><!--link Employee to Team--><g id="link_Employee_Team"><path codeLine="63" d="M147.2,559.02 C165.22,589.47 199.47,644.07 236,685 C254.76,706.01 278.65,726.76 298.02,742.38 " fill="none" id="Employee-to-Team" style="stroke:#3498DB;stroke-width:1.0;"/><polygon fill="#3498DB" points="302.34,745.83,297.8227,737.0782,298.4398,742.7013,292.8168,743.3185,302.34,745.83" style="stroke:#3498DB;stroke-width:1.0;"/><polygon fill="#000000" points="244.1762,665.0373,240.7001,656.1848,236.1606,659.9187,244.1762,665.0373" style="stroke:#000000;stroke-width:1.0;"/><text fill="#000000" font-family="sans-serif" font-size="13" lengthAdjust="spacing" textLength="36" x="250" y="666.4951">part of</text></g><!--link Team to Tool--><g id="link_Team_Tool"><path codeLine="65" d="M333.65,794.07 C334.93,840.02 337.81,942.84 339.21,992.75 " fill="none" id="Team-to-Tool" style="stroke:#3498DB;stroke-width:1.0;"/><polygon fill="#3498DB" points="339.36,997.98,343.1006,988.8691,339.2168,992.9821,335.1039,989.0983,339.36,997.98" style="stroke:#3498DB;stroke-width:1.0;"/><polygon fill="#000000" points="342.1399,901.1738,344.8246,892.0501,338.9491,892.2145,342.1399,901.1738" style="stroke:#000000;stroke-width:1.0;"/><text fill="#000000" font-family="sans-serif" font-size="13" lengthAdjust="spacing" textLength="28" x="351" y="901.4951">uses</text></g><!--link Team to Machine--><g id="link_Team_Machine"><path codeLine="66" d="M367.23,782.02 C386.73,790.26 409.51,803.66 421,824 C472.18,914.57 430.24,1044.83 407.4,1101.67 " fill="none" id="Team-to-Machine" style="stroke:#3498DB;stroke-width:1.0;"/><polygon fill="#3498DB" points="405.39,1106.62,412.5081,1099.8132,407.2887,1101.9945,405.1073,1096.7752,405.39,1106.62" style="stroke:#3498DB;stroke-width:1.0;"/><polygon fill="#000000" points="449.6234,964.1368,451.4116,954.7958,445.5796,955.5287,449.6234,964.1368" style="stroke:#000000;stroke-width:1.0;"/><text fill="#000000" font-family="sans-serif" font-size="13" lengthAdjust="spacing" textLength="50" x="458" y="964.4951">operates</text></g><!--link Admin to Schedule--><g id="link_Admin_Schedule"><path codeLine="67" d="M420.83,413.56 C483.87,422.01 608,449.39 608,534 C608,534 608,534 608,771 C608,807.66 585.25,844.01 566.46,867.79 " fill="none" id="Admin-to-Schedule" style="stroke:#3498DB;stroke-width:1.0;"/><polygon fill="#3498DB" points="563.25,871.78,572.0199,867.2979,566.3943,867.8924,565.7998,862.2669,563.25,871.78" style="stroke:#3498DB;stroke-width:1.0;"/><polygon fill="#000000" points="614.5265,665.9371,614.5636,656.4266,608.9664,658.2211,614.5265,665.9371" style="stroke:#000000;stroke-width:1.0;"/><text fill="#000000" font-family="sans-serif" font-size="13" lengthAdjust="spacing" textLength="31" x="622" y="666.4951">plans</text></g><!--link Schedule to Task--><g id="link_Schedule_Task"><path codeLine="68" d="M505.85,871.91 C482.46,857.81 450.73,841.36 420,834 C392.34,827.37 383.62,827.19 356,834 C326.72,841.22 296.67,857.16 274.23,871.06 " fill="none" id="Schedule-to-Task" style="stroke:#3498DB;stroke-width:1.0;"/><polygon fill="#3498DB" points="269.84,873.81,279.5886,872.4084,274.0736,871.1497,275.3322,865.6347,269.84,873.81" style="stroke:#3498DB;stroke-width:1.0;"/><polygon fill="#000000" points="356,833.1574,365.0343,836.1295,365.0558,830.2517,356,833.1574" style="stroke:#000000;stroke-width:1.0;"/><text fill="#000000" font-family="sans-serif" font-size="13" lengthAdjust="spacing" textLength="49" x="370" y="838.4951">organize</text></g><!--link Schedule to Task--><!--reverse link Parks to Task--><g id="link_Parks_Task"><path codeLine="69" d="M164.86,164.4 C107.15,176.31 6,207.78 6,282 C6,282 6,282 6,771 C6,860.74 142.69,885.77 206.23,892.56 " fill="none" id="Parks-backto-Task" style="stroke:#3498DB;stroke-width:1.0;"/><polygon fill="#3498DB" points="169.96,163.37,160.3479,161.2235,165.0582,164.3561,161.9256,169.0664,169.96,163.37" style="stroke:#3498DB;stroke-width:1.0;"/><text fill="#000000" font-family="sans-serif" font-size="13" lengthAdjust="spacing" textLength="44" x="7" y="540.4951">involves</text></g><!--link Vehicle to Schedule--><!--link Task to Tool--><!--link Tool to Machine--><!--SRC=[TLB1RjGm4BtxAqRYqDDAG96072ejrLO2WK1iuL9nS9BPnCJn1DjfjKNzTnmxJkpTujky6S-RUVDC9zJ0DU-XajmO-Cl0lG-ywXfDewglIPA65pUxcztrpkUsMjF335- -UV-kBiCNqZNg6N-DLVNs5NjYpEJzjzPgKOuMFrQazk8HuILZWVc7GUtedsByZUi_8wR8Lzrm9Hwv5QHIV5lt8WDs_I3fYDddJrIcuRuJKgR0BRePa_WdjgAIMOjzrM8zvjWjDrqM4sLjl_2g5Mh-SW7VKVhnJIi6m_pAcveUrEPgshSpKC1eqB0Gn5IsU04bIbAD0KiioyJoe4S1FLUymHhA8mjGB5ZqAK0Ou71raf-qAi2DBnfbph91kW8qDiBOyxnNiW0Ae-5vGPJMrGoekVKb4-VchXLrZUfNP661AyMdxinJfEZSCdIHUB3vbexcGBhtMZYkkUipTMIS-iOFjC0RBPhMheivErkWWoi9OyJqkfO_OPxqlWYPiu_H8vaUisInPl6UuvVSNsM1LfB9ZAlo4z64RCOXyPTGzoJltO3EZf_vaKOBlFuz6jkZij6JYxJXM_JZ2gV6Et7XMkHtY9kiS5GsaNXDkWkUUE4_LdZM2OiHuZ7IDhDUYN19CoVKh5O2kgCnVxa4dA_5_W40]--></g></svg>