<?xml version="1.0" encoding="UTF-8" standalone="no"?><svg xmlns="http://www.w3.org/2000/svg" xmlns:xlink="http://www.w3.org/1999/xlink" contentStyleType="text/css" height="1308px" preserveAspectRatio="none" style="width:1217px;height:1308px;background:#FFFFFF;" version="1.1" viewBox="0 0 1217 1308" width="1217px" zoomAndPan="magnify"><defs/><g><!--class Organization--><g id="elem_Organization"><rect codeLine="9" fill="#F1F1F1" height="106.0469" id="Organization" rx="2.5" ry="2.5" style="stroke:#181818;stroke-width:0.5;" width="86" x="492.5" y="7"/><text fill="#000000" font-family="sans-serif" font-size="14" lengthAdjust="spacing" textLength="80" x="495.5" y="26.5332">Organization</text><line style="stroke:#181818;stroke-width:0.5;" x1="493.5" x2="577.5" y1="34.6094" y2="34.6094"/><rect fill="none" height="6" style="stroke:#C82930;stroke-width:1.0;" width="6" x="500.5" y="45.9141"/><text fill="#000000" font-family="sans-serif" font-size="14" lengthAdjust="spacing" textLength="35" x="512.5" y="53.1426">name</text><rect fill="none" height="6" style="stroke:#C82930;stroke-width:1.0;" width="6" x="500.5" y="63.5234"/><text fill="#000000" font-family="sans-serif" font-size="14" lengthAdjust="spacing" textLength="51" x="512.5" y="70.752">address</text><rect fill="none" height="6" style="stroke:#C82930;stroke-width:1.0;" width="6" x="500.5" y="81.1328"/><text fill="#000000" font-family="sans-serif" font-size="14" lengthAdjust="spacing" textLength="40" x="512.5" y="88.3613">phone</text><rect fill="none" height="6" style="stroke:#C82930;stroke-width:1.0;" width="6" x="500.5" y="98.7422"/><text fill="#000000" font-family="sans-serif" font-size="14" lengthAdjust="spacing" textLength="33" x="512.5" y="105.9707">email</text></g><!--class Employee--><g id="elem_Employee"><rect codeLine="16" fill="#F1F1F1" height="35.6094" id="Employee" rx="2.5" ry="2.5" style="stroke:#181818;stroke-width:0.5;" width="68" x="501.5" y="242.5"/><text fill="#000000" font-family="sans-serif" font-size="14" lengthAdjust="spacing" textLength="62" x="504.5" y="262.0332">Employee</text><line style="stroke:#181818;stroke-width:0.5;" x1="502.5" x2="568.5" y1="270.1094" y2="270.1094"/></g><!--class TeamMember--><g id="elem_TeamMember"><rect codeLine="19" fill="#F1F1F1" height="158.875" id="TeamMember" rx="2.5" ry="2.5" style="stroke:#181818;stroke-width:0.5;" width="157" x="137" y="408"/><text fill="#000000" font-family="sans-serif" font-size="14" lengthAdjust="spacing" textLength="87" x="172" y="427.5332">TeamMember</text><line style="stroke:#181818;stroke-width:0.5;" x1="138" x2="293" y1="435.6094" y2="435.6094"/><rect fill="none" height="6" style="stroke:#C82930;stroke-width:1.0;" width="6" x="145" y="446.9141"/><text fill="#000000" font-family="sans-serif" font-size="14" lengthAdjust="spacing" textLength="35" x="157" y="454.1426">name</text><rect fill="none" height="6" style="stroke:#C82930;stroke-width:1.0;" width="6" x="145" y="464.5234"/><text fill="#000000" font-family="sans-serif" font-size="14" lengthAdjust="spacing" textLength="56" x="157" y="471.752">birthdate</text><rect fill="none" height="6" style="stroke:#C82930;stroke-width:1.0;" width="6" x="145" y="482.1328"/><text fill="#000000" font-family="sans-serif" font-size="14" lengthAdjust="spacing" textLength="95" x="157" y="489.3613">admission date</text><rect fill="none" height="6" style="stroke:#C82930;stroke-width:1.0;" width="6" x="145" y="499.7422"/><text fill="#000000" font-family="sans-serif" font-size="14" lengthAdjust="spacing" textLength="51" x="157" y="506.9707">address</text><rect fill="none" height="6" style="stroke:#C82930;stroke-width:1.0;" width="6" x="145" y="517.3516"/><text fill="#000000" font-family="sans-serif" font-size="14" lengthAdjust="spacing" textLength="73" x="157" y="524.5801">contact info</text><rect fill="none" height="6" style="stroke:#C82930;stroke-width:1.0;" width="6" x="145" y="534.9609"/><text fill="#000000" font-family="sans-serif" font-size="14" lengthAdjust="spacing" textLength="71" x="157" y="542.1895">ID doc type</text><rect fill="none" height="6" style="stroke:#C82930;stroke-width:1.0;" width="6" x="145" y="552.5703"/><text fill="#000000" font-family="sans-serif" font-size="14" lengthAdjust="spacing" textLength="131" x="157" y="559.7988">ID document number</text></g><!--class HRM--><g id="elem_HRM"><rect codeLine="29" fill="#F1F1F1" height="35.6094" id="HRM" rx="2.5" ry="2.5" style="stroke:#181818;stroke-width:0.5;" width="36" x="111.5" y="758"/><text fill="#000000" font-family="sans-serif" font-size="14" lengthAdjust="spacing" textLength="30" x="114.5" y="777.5332">HRM</text><line style="stroke:#181818;stroke-width:0.5;" x1="112.5" x2="146.5" y1="785.6094" y2="785.6094"/></g><!--class GSM--><g id="elem_GSM"><rect codeLine="32" fill="#F1F1F1" height="35.6094" id="GSM" rx="2.5" ry="2.5" style="stroke:#181818;stroke-width:0.5;" width="37" x="643" y="469.5"/><text fill="#000000" font-family="sans-serif" font-size="14" lengthAdjust="spacing" textLength="31" x="646" y="489.0332">GSM</text><line style="stroke:#181818;stroke-width:0.5;" x1="644" x2="679" y1="497.1094" y2="497.1094"/></g><!--class VFM--><g id="elem_VFM"><rect codeLine="35" fill="#F1F1F1" height="35.6094" id="VFM" rx="2.5" ry="2.5" style="stroke:#181818;stroke-width:0.5;" width="35" x="1175" y="932.5"/><text fill="#000000" font-family="sans-serif" font-size="14" lengthAdjust="spacing" textLength="29" x="1178" y="952.0332">VFM</text><line style="stroke:#181818;stroke-width:0.5;" x1="1176" x2="1209" y1="960.1094" y2="960.1094"/></g><!--class Job--><g id="elem_Job"><rect codeLine="38" fill="#F1F1F1" height="53.2188" id="Job" rx="2.5" ry="2.5" style="stroke:#181818;stroke-width:0.5;" width="61" x="7" y="234"/><text fill="#000000" font-family="sans-serif" font-size="14" lengthAdjust="spacing" textLength="22" x="26.5" y="253.5332">Job</text><line style="stroke:#181818;stroke-width:0.5;" x1="8" x2="67" y1="261.6094" y2="261.6094"/><rect fill="none" height="6" style="stroke:#C82930;stroke-width:1.0;" width="6" x="15" y="272.9141"/><text fill="#000000" font-family="sans-serif" font-size="14" lengthAdjust="spacing" textLength="35" x="27" y="280.1426">name</text></g><!--class Skills--><g id="elem_Skills"><rect codeLine="42" fill="#F1F1F1" height="53.2188" id="Skills" rx="2.5" ry="2.5" style="stroke:#181818;stroke-width:0.5;" width="61" x="161" y="234"/><text fill="#000000" font-family="sans-serif" font-size="14" lengthAdjust="spacing" textLength="32" x="175.5" y="253.5332">Skills</text><line style="stroke:#181818;stroke-width:0.5;" x1="162" x2="221" y1="261.6094" y2="261.6094"/><rect fill="none" height="6" style="stroke:#C82930;stroke-width:1.0;" width="6" x="169" y="272.9141"/><text fill="#000000" font-family="sans-serif" font-size="14" lengthAdjust="spacing" textLength="35" x="181" y="280.1426">name</text></g><!--class Teams--><g id="elem_Teams"><rect codeLine="46" fill="#F1F1F1" height="70.8281" id="Teams" rx="2.5" ry="2.5" style="stroke:#181818;stroke-width:0.5;" width="111" x="416" y="627"/><text fill="#000000" font-family="sans-serif" font-size="14" lengthAdjust="spacing" textLength="43" x="450" y="646.5332">Teams</text><line style="stroke:#181818;stroke-width:0.5;" x1="417" x2="526" y1="654.6094" y2="654.6094"/><rect fill="none" height="6" style="stroke:#C82930;stroke-width:1.0;" width="6" x="424" y="665.9141"/><text fill="#000000" font-family="sans-serif" font-size="14" lengthAdjust="spacing" textLength="85" x="436" y="673.1426">numElements</text><rect fill="none" height="6" style="stroke:#C82930;stroke-width:1.0;" width="6" x="424" y="683.5234"/><text fill="#000000" font-family="sans-serif" font-size="14" lengthAdjust="spacing" textLength="79" x="436" y="690.752">skillsNeeded</text></g><!--class Tasks--><g id="elem_Tasks"><rect codeLine="51" fill="#F1F1F1" height="53.2188" id="Tasks" rx="2.5" ry="2.5" style="stroke:#181818;stroke-width:0.5;" width="110" x="559.5" y="924"/><text fill="#000000" font-family="sans-serif" font-size="14" lengthAdjust="spacing" textLength="38" x="595.5" y="943.5332">Tasks</text><line style="stroke:#181818;stroke-width:0.5;" x1="560.5" x2="668.5" y1="951.6094" y2="951.6094"/><rect fill="none" height="6" style="stroke:#C82930;stroke-width:1.0;" width="6" x="567.5" y="962.9141"/><text fill="#000000" font-family="sans-serif" font-size="14" lengthAdjust="spacing" textLength="84" x="579.5" y="970.1426">taskCategory</text></g><!--class Agenda--><g id="elem_Agenda"><rect codeLine="55" fill="#F1F1F1" height="35.6094" id="Agenda" rx="2.5" ry="2.5" style="stroke:#181818;stroke-width:0.5;" width="55" x="634" y="758"/><text fill="#000000" font-family="sans-serif" font-size="14" lengthAdjust="spacing" textLength="49" x="637" y="777.5332">Agenda</text><line style="stroke:#181818;stroke-width:0.5;" x1="635" x2="688" y1="785.6094" y2="785.6094"/></g><!--class Malfunctions--><g id="elem_Malfunctions"><rect codeLine="59" fill="#F1F1F1" height="70.8281" id="Malfunctions" rx="2.5" ry="2.5" style="stroke:#181818;stroke-width:0.5;" width="110" x="1029.5" y="915"/><text fill="#000000" font-family="sans-serif" font-size="14" lengthAdjust="spacing" textLength="79" x="1045" y="934.5332">Malfunctions</text><line style="stroke:#181818;stroke-width:0.5;" x1="1030.5" x2="1138.5" y1="942.6094" y2="942.6094"/><rect fill="none" height="6" style="stroke:#C82930;stroke-width:1.0;" width="6" x="1037.5" y="953.9141"/><text fill="#000000" font-family="sans-serif" font-size="14" lengthAdjust="spacing" textLength="69" x="1049.5" y="961.1426">description</text><rect fill="none" height="6" style="stroke:#C82930;stroke-width:1.0;" width="6" x="1037.5" y="971.5234"/><text fill="#000000" font-family="sans-serif" font-size="14" lengthAdjust="spacing" textLength="84" x="1049.5" y="978.752">reportedDate</text></g><!--class GreenSpaces--><g id="elem_GreenSpaces"><rect codeLine="64" fill="#F1F1F1" height="53.2188" id="GreenSpaces" rx="2.5" ry="2.5" style="stroke:#181818;stroke-width:0.5;" width="93" x="595" y="1177.5"/><text fill="#000000" font-family="sans-serif" font-size="14" lengthAdjust="spacing" textLength="87" x="598" y="1197.0332">GreenSpaces</text><line style="stroke:#181818;stroke-width:0.5;" x1="596" x2="687" y1="1205.1094" y2="1205.1094"/><rect fill="none" height="6" style="stroke:#C82930;stroke-width:1.0;" width="6" x="603" y="1216.4141"/><text fill="#000000" font-family="sans-serif" font-size="14" lengthAdjust="spacing" textLength="27" x="615" y="1223.6426">type</text></g><!--class Equipment--><g id="elem_Equipment"><rect codeLine="68" fill="#F1F1F1" height="53.2188" id="Equipment" rx="2.5" ry="2.5" style="stroke:#181818;stroke-width:0.5;" width="95" x="1076" y="1177.5"/><text fill="#000000" font-family="sans-serif" font-size="14" lengthAdjust="spacing" textLength="67" x="1090" y="1197.0332">Equipment</text><line style="stroke:#181818;stroke-width:0.5;" x1="1077" x2="1170" y1="1205.1094" y2="1205.1094"/><rect fill="none" height="6" style="stroke:#C82930;stroke-width:1.0;" width="6" x="1084" y="1216.4141"/><text fill="#000000" font-family="sans-serif" font-size="14" lengthAdjust="spacing" textLength="69" x="1096" y="1223.6426">description</text></g><!--class Vehicles--><g id="elem_Vehicles"><rect codeLine="72" fill="#F1F1F1" height="194.0938" id="Vehicles" rx="2.5" ry="2.5" style="stroke:#181818;stroke-width:0.5;" width="175" x="727" y="1107"/><text fill="#000000" font-family="sans-serif" font-size="14" lengthAdjust="spacing" textLength="53" x="788" y="1126.5332">Vehicles</text><line style="stroke:#181818;stroke-width:0.5;" x1="728" x2="901" y1="1134.6094" y2="1134.6094"/><rect fill="none" height="6" style="stroke:#C82930;stroke-width:1.0;" width="6" x="735" y="1145.9141"/><text fill="#000000" font-family="sans-serif" font-size="14" lengthAdjust="spacing" textLength="37" x="747" y="1153.1426">brand</text><rect fill="none" height="6" style="stroke:#C82930;stroke-width:1.0;" width="6" x="735" y="1163.5234"/><text fill="#000000" font-family="sans-serif" font-size="14" lengthAdjust="spacing" textLength="38" x="747" y="1170.752">model</text><rect fill="none" height="6" style="stroke:#C82930;stroke-width:1.0;" width="6" x="735" y="1181.1328"/><text fill="#000000" font-family="sans-serif" font-size="14" lengthAdjust="spacing" textLength="27" x="747" y="1188.3613">type</text><rect fill="none" height="6" style="stroke:#C82930;stroke-width:1.0;" width="6" x="735" y="1198.7422"/><text fill="#000000" font-family="sans-serif" font-size="14" lengthAdjust="spacing" textLength="69" x="747" y="1205.9707">tareWeight</text><rect fill="none" height="6" style="stroke:#C82930;stroke-width:1.0;" width="6" x="735" y="1216.3516"/><text fill="#000000" font-family="sans-serif" font-size="14" lengthAdjust="spacing" textLength="79" x="747" y="1223.5801">grossWeight</text><rect fill="none" height="6" style="stroke:#C82930;stroke-width:1.0;" width="6" x="735" y="1233.9609"/><text fill="#000000" font-family="sans-serif" font-size="14" lengthAdjust="spacing" textLength="72" x="747" y="1241.1895">currentKms</text><rect fill="none" height="6" style="stroke:#C82930;stroke-width:1.0;" width="6" x="735" y="1251.5703"/><text fill="#000000" font-family="sans-serif" font-size="14" lengthAdjust="spacing" textLength="101" x="747" y="1258.7988">registrationDate</text><rect fill="none" height="6" style="stroke:#C82930;stroke-width:1.0;" width="6" x="735" y="1269.1797"/><text fill="#000000" font-family="sans-serif" font-size="14" lengthAdjust="spacing" textLength="97" x="747" y="1276.4082">acquisitionDate</text><rect fill="none" height="6" style="stroke:#C82930;stroke-width:1.0;" width="6" x="735" y="1286.7891"/><text fill="#000000" font-family="sans-serif" font-size="14" lengthAdjust="spacing" textLength="149" x="747" y="1294.0176">maintenanceFrequency</text></g><!--class Machines--><g id="elem_Machines"><rect codeLine="84" fill="#F1F1F1" height="53.2188" id="Machines" rx="2.5" ry="2.5" style="stroke:#181818;stroke-width:0.5;" width="95" x="939" y="1177.5"/><text fill="#000000" font-family="sans-serif" font-size="14" lengthAdjust="spacing" textLength="60" x="956.5" y="1197.0332">Machines</text><line style="stroke:#181818;stroke-width:0.5;" x1="940" x2="1033" y1="1205.1094" y2="1205.1094"/><rect fill="none" height="6" style="stroke:#C82930;stroke-width:1.0;" width="6" x="947" y="1216.4141"/><text fill="#000000" font-family="sans-serif" font-size="14" lengthAdjust="spacing" textLength="69" x="959" y="1223.6426">description</text></g><!--class GSU--><g id="elem_GSU"><rect codeLine="88" fill="#F1F1F1" height="35.6094" id="GSU" rx="2.5" ry="2.5" style="stroke:#181818;stroke-width:0.5;" width="35" x="811" y="758"/><text fill="#000000" font-family="sans-serif" font-size="14" lengthAdjust="spacing" textLength="29" x="814" y="777.5332">GSU</text><line style="stroke:#181818;stroke-width:0.5;" x1="812" x2="845" y1="785.6094" y2="785.6094"/></g><!--class Portal--><g id="elem_Portal"><rect codeLine="91" fill="#F1F1F1" height="35.6094" id="Portal" rx="2.5" ry="2.5" style="stroke:#181818;stroke-width:0.5;" width="43" x="916" y="758"/><text fill="#000000" font-family="sans-serif" font-size="14" lengthAdjust="spacing" textLength="37" x="919" y="777.5332">Portal</text><line style="stroke:#181818;stroke-width:0.5;" x1="917" x2="958" y1="785.6094" y2="785.6094"/></g><!--class Faults--><g id="elem_Faults"><rect codeLine="94" fill="#F1F1F1" height="70.8281" id="Faults" rx="2.5" ry="2.5" style="stroke:#181818;stroke-width:0.5;" width="110" x="884.5" y="915"/><text fill="#000000" font-family="sans-serif" font-size="14" lengthAdjust="spacing" textLength="39" x="920" y="934.5332">Faults</text><line style="stroke:#181818;stroke-width:0.5;" x1="885.5" x2="993.5" y1="942.6094" y2="942.6094"/><rect fill="none" height="6" style="stroke:#C82930;stroke-width:1.0;" width="6" x="892.5" y="953.9141"/><text fill="#000000" font-family="sans-serif" font-size="14" lengthAdjust="spacing" textLength="69" x="904.5" y="961.1426">description</text><rect fill="none" height="6" style="stroke:#C82930;stroke-width:1.0;" width="6" x="892.5" y="971.5234"/><text fill="#000000" font-family="sans-serif" font-size="14" lengthAdjust="spacing" textLength="84" x="904.5" y="978.752">reportedDate</text></g><!--class Comments--><g id="elem_Comments"><rect codeLine="99" fill="#F1F1F1" height="35.6094" id="Comments" rx="2.5" ry="2.5" style="stroke:#181818;stroke-width:0.5;" width="73" x="776" y="932.5"/><text fill="#000000" font-family="sans-serif" font-size="14" lengthAdjust="spacing" textLength="67" x="779" y="952.0332">Comments</text><line style="stroke:#181818;stroke-width:0.5;" x1="777" x2="848" y1="960.1094" y2="960.1094"/></g><!--link Organization to Employee--><g id="link_Organization_Employee"><path codeLine="103" d="M535.5,113.2 C535.5,155.9 535.5,213.31 535.5,242.23 " fill="none" id="Organization-Employee" style="stroke:#181818;stroke-width:1.0;"/><polygon fill="#000000" points="476.5,173.8958,479.4389,164.8507,473.5611,164.8507,476.5,173.8958" style="stroke:#000000;stroke-width:1.0;"/><text fill="#000000" font-family="sans-serif" font-size="13" lengthAdjust="spacing" textLength="49" x="485.5" y="174.2151">employs</text><text fill="#000000" font-family="sans-serif" font-size="13" lengthAdjust="spacing" textLength="7" x="528.0516" y="134.5559">1</text><text fill="#000000" font-family="sans-serif" font-size="13" lengthAdjust="spacing" textLength="20" x="512.4375" y="231.7936">1..*</text></g><!--link Employee to TeamMember--><g id="link_Employee_TeamMember"><path codeLine="105" d="M510,278.6 C510,323.98 510,439 510,439 C510,439 381.28,439 294.03,439 " fill="none" id="Employee-TeamMember" style="stroke:#181818;stroke-width:1.0;"/><polygon fill="#000000" points="455.234,427.1946,446.2203,430.2282,449.7249,434.947,455.234,427.1946" style="stroke:#000000;stroke-width:1.0;"/><text fill="#000000" font-family="sans-serif" font-size="13" lengthAdjust="spacing" textLength="21" x="460.22" y="435.4951">is a</text><text fill="#000000" font-family="sans-serif" font-size="13" lengthAdjust="spacing" textLength="7" x="494.8438" y="299.5401">1</text><text fill="#000000" font-family="sans-serif" font-size="13" lengthAdjust="spacing" textLength="7" x="302.1048" y="430.9569">1</text></g><!--link Employee to Tasks--><g id="link_Employee_Tasks"><path codeLine="106" d="M564.5,278.6 C564.5,373.22 564.5,810.92 564.5,923.86 " fill="none" id="Employee-Tasks" style="stroke:#181818;stroke-width:1.0;"/><polygon fill="#000000" points="501.5,597.4058,504.4389,588.3607,498.5611,588.3607,501.5,597.4058" style="stroke:#000000;stroke-width:1.0;"/><text fill="#000000" font-family="sans-serif" font-size="13" lengthAdjust="spacing" textLength="53" x="510.5" y="597.7251">manages</text><text fill="#000000" font-family="sans-serif" font-size="13" lengthAdjust="spacing" textLength="7" x="573.6406" y="299.5401">1</text><text fill="#000000" font-family="sans-serif" font-size="13" lengthAdjust="spacing" textLength="20" x="531.375" y="913.7921">0..*</text></g><!--link Employee to HRM--><g id="link_Employee_HRM"><path codeLine="107" d="M543.25,278.54 C543.25,369.78 543.25,776 543.25,776 C543.25,776 227.18,776 147.54,776 " fill="none" id="Employee-HRM" style="stroke:#181818;stroke-width:1.0;"/><polygon fill="#000000" points="515.3626,712.3928,507.4318,717.6419,512.0318,721.301,515.3626,712.3928" style="stroke:#000000;stroke-width:1.0;"/><text fill="#000000" font-family="sans-serif" font-size="13" lengthAdjust="spacing" textLength="21" x="521.25" y="721.6251">is a</text><text fill="#000000" font-family="sans-serif" font-size="13" lengthAdjust="spacing" textLength="7" x="537.4453" y="299.4632">1</text><text fill="#000000" font-family="sans-serif" font-size="13" lengthAdjust="spacing" textLength="7" x="155.4829" y="770.682">1</text></g><!--link Employee to GSM--><g id="link_Employee_GSM"><path codeLine="108" d="M567,278.73 C567,332.72 567,488 567,488 C567,488 615.29,488 642.83,488 " fill="none" id="Employee-GSM" style="stroke:#181818;stroke-width:1.0;"/><polygon fill="#000000" points="534.2966,407.7549,534.615,417.2601,540.1412,415.2577,534.2966,407.7549" style="stroke:#000000;stroke-width:1.0;"/><text fill="#000000" font-family="sans-serif" font-size="13" lengthAdjust="spacing" textLength="21" x="545" y="417.7751">is a</text><text fill="#000000" font-family="sans-serif" font-size="13" lengthAdjust="spacing" textLength="7" x="567.875" y="299.7067">1</text><text fill="#000000" font-family="sans-serif" font-size="13" lengthAdjust="spacing" textLength="7" x="627.9319" y="482.9554">1</text></g><!--link Employee to VFM--><g id="link_Employee_VFM"><path codeLine="109" d="M569.9,261 C705.08,261 1192.5,261 1192.5,261 C1192.5,261 1192.5,823.62 1192.5,932.41 " fill="none" id="Employee-VFM" style="stroke:#181818;stroke-width:1.0;"/><polygon fill="#000000" points="1158.1002,272.9195,1162.0955,281.5502,1166.4054,277.5535,1158.1002,272.9195" style="stroke:#000000;stroke-width:1.0;"/><text fill="#000000" font-family="sans-serif" font-size="13" lengthAdjust="spacing" textLength="21" x="1170.5" y="281.9051">is a</text><text fill="#000000" font-family="sans-serif" font-size="13" lengthAdjust="spacing" textLength="7" x="577.7169" y="257.0248">1</text><text fill="#000000" font-family="sans-serif" font-size="13" lengthAdjust="spacing" textLength="7" x="1184.3844" y="921.7072">1</text></g><!--link Employee to Teams--><g id="link_Employee_Teams"><path codeLine="110" d="M518.5,278.55 C518.5,340.28 518.5,543.65 518.5,626.7 " fill="none" id="Employee-Teams" style="stroke:#181818;stroke-width:1.0;"/><polygon fill="#000000" points="455.5,466.7958,458.4389,457.7507,452.5611,457.7507,455.5,466.7958" style="stroke:#000000;stroke-width:1.0;"/><text fill="#000000" font-family="sans-serif" font-size="13" lengthAdjust="spacing" textLength="53" x="464.5" y="467.1151">manages</text><text fill="#000000" font-family="sans-serif" font-size="13" lengthAdjust="spacing" textLength="7" x="505.7344" y="299.476">1</text><text fill="#000000" font-family="sans-serif" font-size="13" lengthAdjust="spacing" textLength="20" x="505.3219" y="616.1677">0..*</text></g><!--link TeamMember to HRM--><g id="link_TeamMember_HRM"><path codeLine="112" d="M142.25,567.1 C142.25,632.48 142.25,720.2 142.25,757.73 " fill="none" id="TeamMember-HRM" style="stroke:#181818;stroke-width:1.0;"/><polygon fill="#000000" points="61.25,658.5858,64.1889,649.5407,58.3111,649.5407,61.25,658.5858" style="stroke:#000000;stroke-width:1.0;"/><text fill="#000000" font-family="sans-serif" font-size="13" lengthAdjust="spacing" textLength="71" x="70.25" y="658.9051">managed by</text><text fill="#000000" font-family="sans-serif" font-size="13" lengthAdjust="spacing" textLength="20" x="114.8355" y="588.4182">1..*</text><text fill="#000000" font-family="sans-serif" font-size="13" lengthAdjust="spacing" textLength="7" x="138.0828" y="747.2936">1</text></g><!--link Skills to HRM--><g id="link_Skills_HRM"><path codeLine="114" d="M160.74,248 C144.75,248 128.5,248 128.5,248 C128.5,248 128.5,664.98 128.5,757.83 " fill="none" id="Skills-HRM" style="stroke:#181818;stroke-width:1.0;"/><polygon fill="#000000" points="57.1844,500.9558,60.6884,492.1142,54.8222,491.7433,57.1844,500.9558" style="stroke:#000000;stroke-width:1.0;"/><text fill="#000000" font-family="sans-serif" font-size="13" lengthAdjust="spacing" textLength="61" x="66.5" y="501.2851">created by</text><text fill="#000000" font-family="sans-serif" font-size="13" lengthAdjust="spacing" textLength="20" x="132.9701" y="241.6">1..*</text><text fill="#000000" font-family="sans-serif" font-size="13" lengthAdjust="spacing" textLength="7" x="120.0656" y="747.1017">1</text></g><!--link Job to HRM--><g id="link_Job_HRM"><path codeLine="115" d="M68.22,274 C91.68,274 120,274 120,274 C120,274 120,667.84 120,757.84 " fill="none" id="Job-HRM" style="stroke:#181818;stroke-width:1.0;"/><polygon fill="#000000" points="49.5321,486.1774,51.4918,476.8709,45.6473,477.4964,49.5321,486.1774" style="stroke:#000000;stroke-width:1.0;"/><text fill="#000000" font-family="sans-serif" font-size="13" lengthAdjust="spacing" textLength="61" x="58" y="486.5251">created by</text><text fill="#000000" font-family="sans-serif" font-size="13" lengthAdjust="spacing" textLength="20" x="75.9823" y="291.6062">1..*</text><text fill="#000000" font-family="sans-serif" font-size="13" lengthAdjust="spacing" textLength="7" x="108.8563" y="747.1149">1</text></g><!--link Job to TeamMember--><g id="link_Job_TeamMember"><path codeLine="116" d="M68.26,261 C101.27,261 149,261 149,261 C149,261 149,342.7 149,407.96 " fill="none" id="Job-TeamMember" style="stroke:#181818;stroke-width:1.0;"/><polygon fill="#000000" points="74.4076,307.668,72.628,298.3254,67.4764,301.1557,74.4076,307.668" style="stroke:#000000;stroke-width:1.0;"/><text fill="#000000" font-family="sans-serif" font-size="13" lengthAdjust="spacing" textLength="67" x="81" y="308.6051">assigned to</text><text fill="#000000" font-family="sans-serif" font-size="13" lengthAdjust="spacing" textLength="7" x="76.1826" y="256.7761">1</text><text fill="#000000" font-family="sans-serif" font-size="13" lengthAdjust="spacing" textLength="7" x="135.3281" y="397.1342">1</text></g><!--link Skills to TeamMember--><g id="link_Skills_TeamMember"><path codeLine="117" d="M191.5,287.43 C191.5,316.97 191.5,365.76 191.5,407.77 " fill="none" id="Skills-TeamMember" style="stroke:#181818;stroke-width:1.0;"/><polygon fill="#000000" points="114.5,343.7758,117.4389,334.7307,111.5611,334.7307,114.5,343.7758" style="stroke:#000000;stroke-width:1.0;"/><text fill="#000000" font-family="sans-serif" font-size="13" lengthAdjust="spacing" textLength="67" x="123.5" y="344.0951">assigned to</text><text fill="#000000" font-family="sans-serif" font-size="13" lengthAdjust="spacing" textLength="20" x="169.3125" y="308.5806">0..*</text><text fill="#000000" font-family="sans-serif" font-size="13" lengthAdjust="spacing" textLength="7" x="181.9648" y="397.1995">1</text></g><!--link Teams to Tasks--><g id="link_Teams_Tasks"><path codeLine="120" d="M527.01,663 C545.74,663 562,663 562,663 C562,663 562,852.79 562,923.97 " fill="none" id="Teams-Tasks" style="stroke:#181818;stroke-width:1.0;"/><polygon fill="#000000" points="485.6644,772.1214,487.3753,762.766,481.5496,763.5471,485.6644,772.1214" style="stroke:#000000;stroke-width:1.0;"/><text fill="#000000" font-family="sans-serif" font-size="13" lengthAdjust="spacing" textLength="67" x="494" y="772.4851">assigned to</text><text fill="#000000" font-family="sans-serif" font-size="13" lengthAdjust="spacing" textLength="7" x="534.9395" y="659.5225">1</text><text fill="#000000" font-family="sans-serif" font-size="13" lengthAdjust="spacing" textLength="20" x="531.6484" y="934.4071">0..*</text></g><!--link Tasks to GreenSpaces--><g id="link_Tasks_GreenSpaces"><path codeLine="121" d="M613.62,977.15 C613.62,1025.84 613.62,1128.62 613.62,1177.33 " fill="none" id="Tasks-GreenSpaces" style="stroke:#181818;stroke-width:1.0;"/><polygon fill="#000000" points="549.62,1073.4158,552.5589,1064.3707,546.6811,1064.3707,549.62,1073.4158" style="stroke:#000000;stroke-width:1.0;"/><text fill="#000000" font-family="sans-serif" font-size="13" lengthAdjust="spacing" textLength="54" x="558.62" y="1073.7351">relates to</text><text fill="#000000" font-family="sans-serif" font-size="13" lengthAdjust="spacing" textLength="20" x="591.104" y="998.6733">1..*</text><text fill="#000000" font-family="sans-serif" font-size="13" lengthAdjust="spacing" textLength="7" x="599.3634" y="1166.823">1</text></g><!--link Agenda to Tasks--><g id="link_Agenda_Tasks"><path codeLine="122" d="M651.75,794.02 C651.75,824.84 651.75,887.85 651.75,923.8 " fill="none" id="Agenda-Tasks" style="stroke:#181818;stroke-width:1.0;"/><polygon fill="#000000" points="585.75,855.0858,588.6889,846.0407,582.8111,846.0407,585.75,855.0858" style="stroke:#000000;stroke-width:1.0;"/><text fill="#000000" font-family="sans-serif" font-size="13" lengthAdjust="spacing" textLength="56" x="594.75" y="855.4051">organizes</text><text fill="#000000" font-family="sans-serif" font-size="13" lengthAdjust="spacing" textLength="7" x="640.8578" y="815.2675">1</text><text fill="#000000" font-family="sans-serif" font-size="13" lengthAdjust="spacing" textLength="20" x="638.0516" y="913.2861">1..*</text></g><!--link GSM to Portal--><g id="link_GSM_Portal"><path codeLine="124" d="M680.04,488 C741.92,488 937.5,488 937.5,488 C937.5,488 937.5,694.93 937.5,757.98 " fill="none" id="GSM-Portal" style="stroke:#181818;stroke-width:1.0;"/><polygon fill="#000000" points="877.9506,489.0542,873.8352,480.4802,869.5815,484.5366,877.9506,489.0542" style="stroke:#000000;stroke-width:1.0;"/><text fill="#000000" font-family="sans-serif" font-size="13" lengthAdjust="spacing" textLength="53" x="883.5" y="490.7551">manages</text><text fill="#000000" font-family="sans-serif" font-size="13" lengthAdjust="spacing" textLength="7" x="687.8918" y="482.9554">1</text><text fill="#000000" font-family="sans-serif" font-size="13" lengthAdjust="spacing" textLength="7" x="929.3844" y="747.2995">1</text></g><!--link GSM to Agenda--><g id="link_GSM_Agenda"><path codeLine="125" d="M661.5,505.55 C661.5,557.36 661.5,706.16 661.5,757.96 " fill="none" id="GSM-Agenda" style="stroke:#181818;stroke-width:1.0;"/><polygon fill="#000000" points="598.5,627.9258,601.4389,618.8807,595.5611,618.8807,598.5,627.9258" style="stroke:#000000;stroke-width:1.0;"/><text fill="#000000" font-family="sans-serif" font-size="13" lengthAdjust="spacing" textLength="53" x="607.5" y="628.2451">manages</text><text fill="#000000" font-family="sans-serif" font-size="13" lengthAdjust="spacing" textLength="7" x="653.5156" y="526.476">1</text><text fill="#000000" font-family="sans-serif" font-size="13" lengthAdjust="spacing" textLength="7" x="653.3844" y="747.2732">1</text></g><!--link VFM to Vehicles--><g id="link_VFM_Vehicles"><path codeLine="127" d="M1186.67,968.8 C1186.67,1014.69 1186.67,1131 1186.67,1131 C1186.67,1131 1012.26,1131 902.23,1131 " fill="none" id="VFM-Vehicles" style="stroke:#181818;stroke-width:1.0;"/><polygon fill="#000000" points="1058.2066,1124.6526,1067.5197,1122.725,1064.6081,1117.619,1058.2066,1124.6526" style="stroke:#000000;stroke-width:1.0;"/><text fill="#000000" font-family="sans-serif" font-size="13" lengthAdjust="spacing" textLength="53" x="1071.55" y="1127.4951">manages</text><text fill="#000000" font-family="sans-serif" font-size="13" lengthAdjust="spacing" textLength="7" x="1177.1626" y="989.463">1</text><text fill="#000000" font-family="sans-serif" font-size="13" lengthAdjust="spacing" textLength="20" x="910.0179" y="1122.0507">1..*</text></g><!--link VFM to Machines--><g id="link_VFM_Machines"><path codeLine="128" d="M1198.33,968.56 C1198.33,1018.36 1198.33,1154 1198.33,1154 C1198.33,1154 1012,1154 1012,1154 C1012,1154 1012,1165.36 1012,1177.24 " fill="none" id="VFM-Machines" style="stroke:#181818;stroke-width:1.0;"/><polygon fill="#000000" points="1119.9398,1148.9054,1128.1564,1144.1159,1123.7719,1140.201,1119.9398,1148.9054" style="stroke:#000000;stroke-width:1.0;"/><text fill="#000000" font-family="sans-serif" font-size="13" lengthAdjust="spacing" textLength="53" x="1132.27" y="1150.4951">manages</text><text fill="#000000" font-family="sans-serif" font-size="13" lengthAdjust="spacing" textLength="7" x="1191.9853" y="989.4889">1</text><text fill="#000000" font-family="sans-serif" font-size="13" lengthAdjust="spacing" textLength="20" x="995.5844" y="1166.7122">1..*</text></g><!--link VFM to Equipment--><g id="link_VFM_Equipment"><path codeLine="129" d="M1174.75,951 C1165.15,951 1155.25,951 1155.25,951 C1155.25,951 1155.25,1112.45 1155.25,1177.4 " fill="none" id="VFM-Equipment" style="stroke:#181818;stroke-width:1.0;"/><polygon fill="#000000" points="1091.8209,1050.6073,1095.5252,1041.8478,1089.669,1041.3434,1091.8209,1050.6073" style="stroke:#000000;stroke-width:1.0;"/><text fill="#000000" font-family="sans-serif" font-size="13" lengthAdjust="spacing" textLength="53" x="1101.25" y="1050.9451">manages</text><text fill="#000000" font-family="sans-serif" font-size="13" lengthAdjust="spacing" textLength="7" x="1159.9141" y="945.8663">1</text><text fill="#000000" font-family="sans-serif" font-size="13" lengthAdjust="spacing" textLength="20" x="1140.5516" y="1166.4776">1..*</text></g><!--link Tasks to Vehicles--><g id="link_Tasks_Vehicles"><path codeLine="131" d="M669.83,973 C707.85,973 751.5,973 751.5,973 C751.5,973 751.5,1043.57 751.5,1106.7 " fill="none" id="Tasks-Vehicles" style="stroke:#181818;stroke-width:1.0;"/><polygon fill="#000000" points="671.8936,985.9289,674.1006,995.1798,679.1167,992.1158,671.8936,985.9289" style="stroke:#000000;stroke-width:1.0;"/><text fill="#000000" font-family="sans-serif" font-size="13" lengthAdjust="spacing" textLength="67" x="683.5" y="995.5151">assigned to</text><text fill="#000000" font-family="sans-serif" font-size="13" lengthAdjust="spacing" textLength="7" x="677.3676" y="972.3614">1</text><text fill="#000000" font-family="sans-serif" font-size="13" lengthAdjust="spacing" textLength="20" x="725.9109" y="1096.143">0..*</text></g><!--link Tasks to Machines--><g id="link_Tasks_Machines"><path codeLine="132" d="M632.25,977.23 C632.25,1011.62 632.25,1067 632.25,1067 C632.25,1067 966.75,1067 966.75,1067 C966.75,1067 966.75,1137.39 966.75,1177.26 " fill="none" id="Tasks-Machines" style="stroke:#181818;stroke-width:1.0;"/><polygon fill="#000000" points="728.4487,1055.6096,734.7033,1062.7742,737.72,1057.7295,728.4487,1055.6096" style="stroke:#000000;stroke-width:1.0;"/><text fill="#000000" font-family="sans-serif" font-size="13" lengthAdjust="spacing" textLength="67" x="741.74" y="1063.4951">assigned to</text><text fill="#000000" font-family="sans-serif" font-size="13" lengthAdjust="spacing" textLength="7" x="628.5453" y="998.7718">1</text><text fill="#000000" font-family="sans-serif" font-size="13" lengthAdjust="spacing" textLength="20" x="939.8703" y="1166.7368">0..*</text></g><!--link Tasks to Equipment--><g id="link_Tasks_Equipment"><path codeLine="133" d="M650.88,977.26 C650.88,999.32 650.88,1027 650.88,1027 C650.88,1027 1107.75,1027 1107.75,1027 C1107.75,1027 1107.75,1127.6 1107.75,1177.12 " fill="none" id="Tasks-Equipment" style="stroke:#181818;stroke-width:1.0;"/><polygon fill="#000000" points="847.9191,1016.1719,855.0281,1022.4896,857.3839,1017.1044,847.9191,1016.1719" style="stroke:#000000;stroke-width:1.0;"/><text fill="#000000" font-family="sans-serif" font-size="13" lengthAdjust="spacing" textLength="67" x="861.5" y="1023.4951">assigned to</text><text fill="#000000" font-family="sans-serif" font-size="13" lengthAdjust="spacing" textLength="7" x="651.4835" y="998.8087">1</text><text fill="#000000" font-family="sans-serif" font-size="13" lengthAdjust="spacing" textLength="20" x="1081.7953" y="1166.5645">0..*</text></g><!--link Portal to Malfunctions--><g id="link_Portal_Malfunctions"><path codeLine="135" d="M959.11,776 C1003.93,776 1102.83,776 1102.83,776 C1102.83,776 1102.83,863.71 1102.83,914.77 " fill="none" id="Portal-Malfunctions" style="stroke:#181818;stroke-width:1.0;"/><polygon fill="#000000" points="1029.9569,770.6488,1025.4914,762.2518,1021.4086,766.4803,1029.9569,770.6488" style="stroke:#000000;stroke-width:1.0;"/><text fill="#000000" font-family="sans-serif" font-size="13" lengthAdjust="spacing" textLength="64" x="1035.36" y="772.4951">aggregates</text><text fill="#000000" font-family="sans-serif" font-size="13" lengthAdjust="spacing" textLength="7" x="967.1138" y="771.0634">1</text><text fill="#000000" font-family="sans-serif" font-size="13" lengthAdjust="spacing" textLength="20" x="1084.3658" y="904.2507">0..*</text></g><!--link Portal to Faults--><g id="link_Portal_Faults"><path codeLine="136" d="M937.5,794.02 C937.5,822.41 937.5,878.08 937.5,914.79 " fill="none" id="Portal-Faults" style="stroke:#181818;stroke-width:1.0;"/><polygon fill="#000000" points="942.5,850.5758,945.4389,841.5307,939.5611,841.5307,942.5,850.5758" style="stroke:#000000;stroke-width:1.0;"/><text fill="#000000" font-family="sans-serif" font-size="13" lengthAdjust="spacing" textLength="64" x="951.5" y="850.8951">aggregates</text><text fill="#000000" font-family="sans-serif" font-size="13" lengthAdjust="spacing" textLength="7" x="929.4719" y="815.2675">1</text><text fill="#000000" font-family="sans-serif" font-size="13" lengthAdjust="spacing" textLength="20" x="915.2875" y="904.2743">0..*</text></g><!--link Portal to Comments--><g id="link_Portal_Comments"><path codeLine="137" d="M915.89,776 C895.08,776 866.75,776 866.75,776 C866.75,776 866.75,951 866.75,951 C866.75,951 858.96,951 849.29,951 " fill="none" id="Portal-Comments" style="stroke:#181818;stroke-width:1.0;"/><polygon fill="#000000" points="869.9716,843.5088,875.9355,836.1006,870.442,834.0099,869.9716,843.5088" style="stroke:#000000;stroke-width:1.0;"/><text fill="#000000" font-family="sans-serif" font-size="13" lengthAdjust="spacing" textLength="47" x="880.75" y="844.1551">receives</text><text fill="#000000" font-family="sans-serif" font-size="13" lengthAdjust="spacing" textLength="7" x="900.8862" y="771.0634">1</text><text fill="#000000" font-family="sans-serif" font-size="13" lengthAdjust="spacing" textLength="20" x="857.0396" y="947.3144">0..*</text></g><!--link GSU to GreenSpaces--><g id="link_GSU_GreenSpaces"><path codeLine="139" d="M818,794.02 C818,811.37 818,835 818,835 C818,835 678.75,835 678.75,835 C678.75,835 678.75,1092.85 678.75,1177.46 " fill="none" id="GSU-GreenSpaces" style="stroke:#181818;stroke-width:1.0;"/><polygon fill="#000000" points="682.0433,911.9955,687.8932,904.4969,682.3684,902.4905,682.0433,911.9955" style="stroke:#000000;stroke-width:1.0;"/><text fill="#000000" font-family="sans-serif" font-size="13" lengthAdjust="spacing" textLength="53" x="692.75" y="912.6151">manages</text><text fill="#000000" font-family="sans-serif" font-size="13" lengthAdjust="spacing" textLength="7" x="806.8875" y="815.2675">1</text><text fill="#000000" font-family="sans-serif" font-size="13" lengthAdjust="spacing" textLength="20" x="665.3922" y="1166.5522">1..*</text></g><!--link GSU to Malfunctions--><g id="link_GSU_Malfunctions"><path codeLine="140" d="M825,794.16 C825,822.74 825,875 825,875 C825,875 1066.17,875 1066.17,875 C1066.17,875 1066.17,895.38 1066.17,914.96 " fill="none" id="GSU-Malfunctions" style="stroke:#181818;stroke-width:1.0;"/><polygon fill="#000000" points="879.6105,868.415,872.8395,861.7365,870.2071,866.9919,879.6105,868.415" style="stroke:#000000;stroke-width:1.0;"/><text fill="#000000" font-family="sans-serif" font-size="13" lengthAdjust="spacing" textLength="40" x="884.14" y="871.4951">reports</text><text fill="#000000" font-family="sans-serif" font-size="13" lengthAdjust="spacing" textLength="7" x="816.0313" y="815.117">1</text><text fill="#000000" font-family="sans-serif" font-size="13" lengthAdjust="spacing" textLength="20" x="1040.7696" y="904.2052">0..*</text></g><!--link GSU to Faults--><g id="link_GSU_Faults"><path codeLine="141" d="M839,794.24 C839,832.99 839,920 839,920 C839,920 860.9,920 884.25,920 " fill="none" id="GSU-Faults" style="stroke:#181818;stroke-width:1.0;"/><polygon fill="#000000" points="790.6928,893.6205,790.3958,884.1146,784.8651,886.1046,790.6928,893.6205" style="stroke:#000000;stroke-width:1.0;"/><text fill="#000000" font-family="sans-serif" font-size="13" lengthAdjust="spacing" textLength="40" x="798" y="894.2351">reports</text><text fill="#000000" font-family="sans-serif" font-size="13" lengthAdjust="spacing" textLength="7" x="833.9688" y="815.2195">1</text><text fill="#000000" font-family="sans-serif" font-size="13" lengthAdjust="spacing" textLength="20" x="856.2977" y="912.8348">0..*</text></g><!--link GSU to Comments--><g id="link_GSU_Comments"><path codeLine="142" d="M832,794.02 C832,827.46 832,898.76 832,932.32 " fill="none" id="GSU-Comments" style="stroke:#181818;stroke-width:1.0;"/><polygon fill="#000000" points="782,859.3458,784.9389,850.3007,779.0611,850.3007,782,859.3458" style="stroke:#000000;stroke-width:1.0;"/><text fill="#000000" font-family="sans-serif" font-size="13" lengthAdjust="spacing" textLength="40" x="791" y="859.6651">reports</text><text fill="#000000" font-family="sans-serif" font-size="13" lengthAdjust="spacing" textLength="7" x="825" y="815.2675">1</text><text fill="#000000" font-family="sans-serif" font-size="13" lengthAdjust="spacing" textLength="20" x="815.0281" y="921.5885">0..*</text></g><!--SRC=[ZLJ9RXin3BthAmGV2qoGN8qWG96j2z8MTTEUPOcP4Q9b8caAk4N_lLfceMB7YKyMv-dnyP5K9mLG3Q6pmfCk7RXqN07nZzBqp35DbJGGTZrGwoACf1zNp7lwrRNCo3yiI6leNqBZhp5CG_d7X73WVJdqdJLZ73IJYloRIAvrh-mE81BCiH_0z1teBRX2sz29jg5R6LK85iOZ4rfwdmJWs9oveToQm7YWqZpO4lbuHONbD9M40uC64wWPKjf5oeVlTrZPxQOw_hofZf_iDWiUzSxnpQDKogDFjAvr_ZJeQmL9XwSvuFF5Bm021Bh2_EDq9SJ_bx7orheTOdtVWX4iOvRW7LCFW-6fNTDr0PuxsUSEve23FhOPn5NaH5Tl7O3Pz8p3d3XD16hZqo3xxE01uiKlw6GShebZwvWH9Q-s0XH5pAKu1xz0jbqevzPPxt603yx5d9-rdzItqWUN9_Agp4CS1nwrUJd5ndnCcW266Gut3fu6C7nNMSMxEFR-Q3MtctlS_M_HEAPmv8ODAhp9wkNEfTLb038FgNPiTRPgccPrTdBoRhKipff2_klf1I5pTCAky3QjgVIKqVCzs6ccp8ErZjuOriRQB-WXkhGHB_B4xsb5ZdrFE_EQZhmJI0WXg8XIVwMc00NTxX9sNBS3EEuWcZtYqhQ-3RFlv9h6NidMH5om4JUbF4LqbUyLd99Ia3zW_tCiAT5AADx6TPmZ5GNxWXuNlvgKYTUMMIg6fZOjbOspYosl0IDlrPFKoIhHlDuOjeUQT-ieQdbGwZaOtK2seQpOkVD3M9JxLInMK8F9QDSpQlIwnXjj6r-Zt9YBW_ZnSNW3SduIKgyvoDyHMLfuNtjMpmLkvVrHhUKboWk_1vrbpg1zJ2LmGlq7]--></g></svg>