<?xml version="1.0" encoding="us-ascii" standalone="no"?><svg xmlns="http://www.w3.org/2000/svg" xmlns:xlink="http://www.w3.org/1999/xlink" contentStyleType="text/css" height="554px" preserveAspectRatio="none" style="width:386px;height:554px;background:#FFFFFF;" version="1.1" viewBox="0 0 386 554" width="386px" zoomAndPan="magnify"><defs/><g><!--class HRM--><g id="elem_HRM"><rect codeLine="12" fill="#F1F1F1" height="36.6211" id="HRM" rx="2.5" ry="2.5" style="stroke:#181818;stroke-width:0.5;" width="36" x="181.9938" y="511"/><text fill="#000000" font-family="sans-serif" font-size="14" lengthAdjust="spacing" textLength="30" x="184.9938" y="531.1074">HRM</text><line style="stroke:#181818;stroke-width:0.5;" x1="182.9938" x2="216.9938" y1="539.6211" y2="539.6211"/></g><!--class TeamMember--><g id="elem_TeamMember"><rect codeLine="15" fill="#F1F1F1" height="166.9688" id="TeamMember" rx="2.5" ry="2.5" style="stroke:#181818;stroke-width:0.5;" width="148" x="125.9938" y="203"/><text fill="#000000" font-family="sans-serif" font-size="14" lengthAdjust="spacing" textLength="87" x="156.4938" y="223.1074">TeamMember</text><line style="stroke:#181818;stroke-width:0.5;" x1="126.9938" x2="272.9938" y1="231.6211" y2="231.6211"/><text fill="#000000" font-family="sans-serif" font-size="14" lengthAdjust="spacing" textLength="40" x="131.9938" y="250.7285">-name</text><text fill="#000000" font-family="sans-serif" font-size="14" lengthAdjust="spacing" textLength="61" x="131.9938" y="269.3496">-birthdate</text><text fill="#000000" font-family="sans-serif" font-size="14" lengthAdjust="spacing" textLength="100" x="131.9938" y="287.9707">-admission date</text><text fill="#000000" font-family="sans-serif" font-size="14" lengthAdjust="spacing" textLength="56" x="131.9938" y="306.5918">-address</text><text fill="#000000" font-family="sans-serif" font-size="14" lengthAdjust="spacing" textLength="78" x="131.9938" y="325.2129">-contact info</text><text fill="#000000" font-family="sans-serif" font-size="14" lengthAdjust="spacing" textLength="76" x="131.9938" y="343.834">-ID doc type</text><text fill="#000000" font-family="sans-serif" font-size="14" lengthAdjust="spacing" textLength="136" x="131.9938" y="362.4551">-ID document number</text></g><!--class Skills--><g id="elem_Skills"><rect codeLine="25" fill="#F1F1F1" height="55.2422" id="Skills" rx="2.5" ry="2.5" style="stroke:#181818;stroke-width:0.5;" width="52" x="32.9938" y="7"/><text fill="#000000" font-family="sans-serif" font-size="14" lengthAdjust="spacing" textLength="32" x="42.9938" y="27.1074">Skills</text><line style="stroke:#181818;stroke-width:0.5;" x1="33.9938" x2="83.9938" y1="35.6211" y2="35.6211"/><text fill="#000000" font-family="sans-serif" font-size="14" lengthAdjust="spacing" textLength="40" x="38.9938" y="54.7285">-name</text></g><!--class Employee--><g id="elem_Employee"><rect fill="#F1F1F1" height="36.6211" id="Employee" rx="2.5" ry="2.5" style="stroke:#181818;stroke-width:0.5;" width="68" x="264.9938" y="16"/><text fill="#000000" font-family="sans-serif" font-size="14" lengthAdjust="spacing" textLength="62" x="267.9938" y="36.1074">Employee</text><line style="stroke:#181818;stroke-width:0.5;" x1="265.9938" x2="331.9938" y1="44.6211" y2="44.6211"/></g><!--link Skills to HRM--><g id="link_Skills_HRM"><path codeLine="32" d="M39.3138,62.16 C27.5938,80.66 14.9938,106.38 14.9938,131.5 C14.9938,131.5 14.9938,131.5 14.9938,441.5 C14.9938,514.79 135.3638,526.45 181.9138,528.22 " fill="none" id="Skills-HRM" style="stroke:#181818;stroke-width:1.0;"/><polygon fill="#000000" points="21.4567,291.4267,21.6206,281.9176,16,283.6373,21.4567,291.4267" style="stroke:#000000;stroke-width:1.0;"/><text fill="#000000" font-family="sans-serif" font-size="13" lengthAdjust="spacing" textLength="61" x="28.9938" y="292.0283">created by</text><text fill="#000000" font-family="sans-serif" font-size="13" lengthAdjust="spacing" textLength="20" x="12.8213" y="84.1037">1..*</text><text fill="#000000" font-family="sans-serif" font-size="13" lengthAdjust="spacing" textLength="20" x="154.0163" y="522.5919">1..*</text></g><!--link Skills to TeamMember--><g id="link_Skills_TeamMember"><path codeLine="33" d="M74.0838,62.25 C92.8738,95.57 125.8538,154.04 153.3438,202.79 " fill="none" id="Skills-TeamMember" style="stroke:#181818;stroke-width:1.0;"/><polygon fill="#000000" points="126.45,137.0007,124.5666,127.6784,119.4469,130.5658,126.45,137.0007" style="stroke:#000000;stroke-width:1.0;"/><text fill="#000000" font-family="sans-serif" font-size="13" lengthAdjust="spacing" textLength="67" x="132.9938" y="138.0283">assigned to</text><text fill="#000000" font-family="sans-serif" font-size="13" lengthAdjust="spacing" textLength="20" x="55.1973" y="84.2133">0..*</text><text fill="#000000" font-family="sans-serif" font-size="13" lengthAdjust="spacing" textLength="7" x="141.8773" y="191.6202">1</text></g><!--link TeamMember to HRM--><g id="link_TeamMember_HRM"><path codeLine="35" d="M199.9938,370.1 C199.9938,420.79 199.9938,481.44 199.9938,510.82 " fill="none" id="TeamMember-HRM" style="stroke:#181818;stroke-width:1.0;"/><polygon fill="#000000" points="204.9938,445.6455,207.9328,436.6004,202.0549,436.6004,204.9938,445.6455" style="stroke:#000000;stroke-width:1.0;"/><text fill="#000000" font-family="sans-serif" font-size="13" lengthAdjust="spacing" textLength="71" x="213.9938" y="446.0283">managed by</text><text fill="#000000" font-family="sans-serif" font-size="13" lengthAdjust="spacing" textLength="20" x="179.1345" y="392.057">1..*</text><text fill="#000000" font-family="sans-serif" font-size="13" lengthAdjust="spacing" textLength="20" x="176.9313" y="499.627">1..*</text></g><!--link Employee to HRM--><g id="link_Employee_HRM"><path codeLine="37" d="M312.9838,53.11 C326.1938,71.54 343.9938,101.86 343.9938,131.5 C343.9938,131.5 343.9938,131.5 343.9938,441.5 C343.9938,499.62 256.9838,519.95 218.2338,526.13 " fill="none" id="Employee-HRM" style="stroke:#181818;stroke-width:1.0;"/><polygon fill="#000000" points="349.9759,281.7429,345.3177,290.0346,351.081,291.189,349.9759,281.7429" style="stroke:#000000;stroke-width:1.0;"/><text fill="#000000" font-family="sans-serif" font-size="13" lengthAdjust="spacing" textLength="21" x="357.9938" y="292.0283">is a</text><text fill="#000000" font-family="sans-serif" font-size="13" lengthAdjust="spacing" textLength="7" x="308.803" y="74.5142">1</text><text fill="#000000" font-family="sans-serif" font-size="13" lengthAdjust="spacing" textLength="20" x="225.8233" y="520.0583">1..*</text></g><!--link Employee to TeamMember--><g id="link_Employee_TeamMember"><path codeLine="38" d="M292.0338,53.08 C279.8638,83.81 253.9938,149.13 232.7738,202.72 " fill="none" id="Employee-TeamMember" style="stroke:#181818;stroke-width:1.0;"/><polygon fill="#000000" points="270.8348,127.9968,264.772,135.3243,270.2369,137.4885,270.8348,127.9968" style="stroke:#000000;stroke-width:1.0;"/><text fill="#000000" font-family="sans-serif" font-size="13" lengthAdjust="spacing" textLength="21" x="277.9938" y="138.0283">is a</text><text fill="#000000" font-family="sans-serif" font-size="13" lengthAdjust="spacing" textLength="7" x="282.092" y="74.8188">1</text><text fill="#000000" font-family="sans-serif" font-size="13" lengthAdjust="spacing" textLength="7" x="228.2901" y="191.8319">1</text></g><!--SRC=[RP7FJiCm3CRlUGfh5oIaed6Tq2GaaDXX5yOBk8dNMikVAdQ52kBToTeoAaPEzkUVxI-9d3Xsc350I37PDgT0eBad8vTAX_Q43Hrqy0IPh69i_1AG5brwvzZ04RsGCJUUZWgQ87FJAZW-Tt6APj5aFOeygcQkUwMTJV707mHhOrfs19QpBKl6E92soOanOm-ylExXqtpzf6-4OK-XfbnK0AWWOg0fgZbhwr3d55rWaM84bfhB938bnOMYLU1uJ9EoUmANBEZGqLBe0qM5s9_N_bevdDXx6MtCBagfd5bVtT_TtQwggfg2yI8Ri9cA6GVr0DiBkRwGg-K5Dr3MS1CBNbvtQyoYzl_qWB7ytJpTF8VEfu6em5Sa2o0yN2D_3CpODm00]--></g></svg>